<svg id="Layer_1" data-name="Layer 1" xmlns="http://www.w3.org/2000/svg" width="234.1" height="233.78" viewBox="0 0 234.1 233.78"><defs><style>.cls-1{fill:#343740;stroke:#fff;stroke-miterlimit:10;stroke-width:3px;opacity:0.64;}.cls-2,.cls-3{fill:#fff;}.cls-3{opacity:0.75;}</style></defs><title>2</title><ellipse class="cls-1" cx="117.05" cy="116.89" rx="115.55" ry="115.39"/><path class="cls-2" d="M90.23,98.18q3.88-8,15.2-14.59l11.25-6.5q7.56-4.4,10.61-7.5a15.4,15.4,0,0,0,4.8-11.13q0-7.32-4.39-11.63T116,42.52q-10.85,0-15,8.2-2.24,4.39-2.46,12.19H87.79Q88,52,91.84,45,98.7,32.86,116,32.85q14.42,0,21.06,7.8A26.06,26.06,0,0,1,143.75,58a23.58,23.58,0,0,1-7.09,17.23Q132.57,79.38,122,85.29l-8,4.46a52.39,52.39,0,0,0-9,6,22.06,22.06,0,0,0-7.38,11.31h45.82v10H85.74A49,49,0,0,1,90.23,98.18Z"/><path class="cls-3" d="M77.87,145.12h5.28l12.49,34.43H90.53L87,169.23H73.42l-3.73,10.32H64.91Zm7.67,20.32-5.23-15.21-5.55,15.21Z"/><path class="cls-3" d="M99.76,145.12h14.79q6,0,8.6,3.61a8.33,8.33,0,0,1,1.5,4.92A7.71,7.71,0,0,1,122.8,159a9,9,0,0,1-2.76,2,11.83,11.83,0,0,1,4,2.27,8.24,8.24,0,0,1,2.32,6.21,9.63,9.63,0,0,1-2.09,6q-3.12,4-9.91,4H99.76Zm13.06,14.55a10.38,10.38,0,0,0,4.59-.82,4.72,4.72,0,0,0,2.58-4.64,4.48,4.48,0,0,0-2.74-4.55,12.51,12.51,0,0,0-4.6-.65h-8.32v10.66Zm1.57,15.89q4.29,0,6.12-2.48a6.29,6.29,0,0,0,1.14-3.8,5,5,0,0,0-3.35-5.11,12.73,12.73,0,0,0-4.71-.72h-9.26v12.11Z"/><path class="cls-3" d="M156.55,147.63a12.1,12.1,0,0,1,4,7.82H156a9.42,9.42,0,0,0-3.08-5.27,9.76,9.76,0,0,0-6.48-2,10.39,10.39,0,0,0-8.21,3.58q-3.13,3.57-3.13,11,0,6,2.82,9.8t8.43,3.77a8.9,8.9,0,0,0,7.85-4,15.21,15.21,0,0,0,2.13-5.49h4.55a15.58,15.58,0,0,1-4,9.12q-4.11,4.43-11.06,4.43a14.57,14.57,0,0,1-10.08-3.64q-5.37-4.8-5.37-14.83,0-7.62,4-12.49,4.37-5.29,12-5.3Q152.94,144.18,156.55,147.63Z"/></svg>