<svg id="Layer_1" data-name="Layer 1" xmlns="http://www.w3.org/2000/svg" width="234.1" height="233.78" viewBox="0 0 234.1 233.78"><defs><style>.cls-1{fill:#343740;stroke:#fff;stroke-miterlimit:10;stroke-width:3px;opacity:0.64;}.cls-2,.cls-3{fill:#fff;}.cls-3{opacity:0.75;}</style></defs><title>3</title><ellipse class="cls-1" cx="117.05" cy="116.89" rx="115.55" ry="115.39"/><path class="cls-2" d="M98.57,110.16q-6.7-8.18-6.71-19.89h11q.7,8.15,3.05,11.84,4.09,6.61,14.82,6.62,8.32,0,13.36-4.46a14.6,14.6,0,0,0,5-11.48q0-8.67-5.3-12.13T119.11,77.2l-2.14,0-2.2.09V68q1.65.18,2.76.24t2.4.06a22,22,0,0,0,9.73-1.88q6.68-3.27,6.68-11.72,0-6.27-4.46-9.66a16.58,16.58,0,0,0-10.37-3.4q-10.55,0-14.59,7-2.22,3.87-2.52,11H94q0-9.36,3.75-15.93Q104.17,32,120.4,32q12.82,0,19.86,5.71t7,16.55q0,7.74-4.16,12.54a17.33,17.33,0,0,1-6.68,4.69,18.26,18.26,0,0,1,10.35,7,21.21,21.21,0,0,1,3.72,12.69q0,12-7.91,19.57t-22.45,7.56Q105.28,118.34,98.57,110.16Z"/><path class="cls-3" d="M77.08,138.12H91q7.11,0,11,5,3.49,4.54,3.49,11.64a23.29,23.29,0,0,1-2.06,9.92q-3.63,7.83-12.49,7.83H77.08Zm13,30.44a12.92,12.92,0,0,0,3.9-.49,8.56,8.56,0,0,0,4.45-3.52,14.49,14.49,0,0,0,2-5.34,20.82,20.82,0,0,0,.35-3.61q0-6.39-2.54-9.94c-1.7-2.36-4.43-3.53-8.19-3.53H81.76v26.43Z"/><path class="cls-3" d="M112,138.12h25.1v4.22H116.52v10.45h19v4h-19v11.68h20.91v4.1H112Z"/><path class="cls-3" d="M144,138.12h23.88v4.22H148.65v10.45h16.9v4.1h-16.9v15.66H144Z"/></svg>