<svg id="Layer_1" data-name="Layer 1" xmlns="http://www.w3.org/2000/svg" width="234.1" height="233.78" viewBox="0 0 234.1 233.78"><defs><style>.cls-1{fill:#343740;stroke:#fff;stroke-miterlimit:10;stroke-width:3px;opacity:0.64;}.cls-2,.cls-3{fill:#fff;}.cls-3{opacity:0.75;}</style></defs><title>4</title><ellipse class="cls-1" cx="117.05" cy="116.89" rx="115.55" ry="115.39"/><path class="cls-2" d="M120.84,114.89V94.38H84V84.07l38.44-53.32h8.9V85.18h12.37v9.2H131.38v20.51Zm-.18-29.71v-38l-26.89,38Z"/><path class="cls-3" d="M96.14,134.94q5.13,2.7,6.28,9.45H97.8a8.36,8.36,0,0,0-3.49-5.5,12,12,0,0,0-6.68-1.72,10.46,10.46,0,0,0-8,3.58q-3.27,3.58-3.27,10.69a17.08,17.08,0,0,0,2.7,10q2.68,3.85,8.79,3.85a11.25,11.25,0,0,0,7.72-2.7q3.06-2.72,3.13-8.76H87.87V150H103v18.43h-3L98.86,164a18,18,0,0,1-4.2,3.61,15.77,15.77,0,0,1-7.8,1.73,15.23,15.23,0,0,1-10.53-4q-4.8-5-4.8-13.64t4.69-13.76a14.89,14.89,0,0,1,11.53-4.87A17.7,17.7,0,0,1,96.14,134.94Z"/><path class="cls-3" d="M110.32,134H115v14.22h17.91V134h4.71v34.43h-4.71V152.28H115v16.11h-4.71Z"/><path class="cls-3" d="M145.92,134h4.71v34.43h-4.71Z"/></svg>