<svg id="Layer_1" data-name="Layer 1" xmlns="http://www.w3.org/2000/svg" width="1009.68" height="235.48" viewBox="0 0 1009.68 235.48"><defs><style>.cls-1{opacity:0.5;}.cls-2{fill:#fff;}.cls-3{fill:#010101;}.cls-4{fill:#6a6c6c;}.cls-5{fill:#4fba6f;}</style></defs><title>beskedjoachim</title><g class="cls-1"><rect class="cls-2" x="34.38" y="17.29" width="952" height="191" rx="11.5"/><path class="cls-3" d="M974.88,17.79a11,11,0,0,1,11,11v168a11,11,0,0,1-11,11h-929a11,11,0,0,1-11-11v-168a11,11,0,0,1,11-11h929m0-1h-929a12,12,0,0,0-12,12v168a12,12,0,0,0,12,12h929a12,12,0,0,0,12-12v-168a12,12,0,0,0-12-12Z"/></g><path class="cls-3" d="M68.19,121.78c0,6.9-3.12,9.59-9.39,9.59s-9.17-3.53-9.17-9v-2.1h6.93v1.43c0,1.93,0,3.71,2.07,3.71s1.86-2.41,1.86-3.53v-16.1h7.7Z"/><path class="cls-3" d="M81.17,131.24c-6.83,0-9.91-4.52-9.91-9.56s3.08-9.52,9.91-9.52,9.91,4.48,9.91,9.52S88,131.24,81.17,131.24Zm0-14c-2.63,0-3,2.55-3,4.48s.35,4.51,3,4.51,3-2.59,3-4.51S83.8,117.2,81.17,117.2Z"/><path class="cls-3" d="M111.8,126.72a7.36,7.36,0,0,0,.84,4.06h-7.07a4.67,4.67,0,0,1-.25-1.72h-.07c-1.47,1.69-3.61,2.18-5.85,2.18-3.5,0-6.4-1.69-6.4-5.5,0-5.74,6.72-5.53,10.25-6.2,1-.17,1.89-.45,1.89-1.61s-1.15-1.68-2.27-1.68c-2.14,0-2.56,1.09-2.59,1.86H93.84c.21-5.11,5-6,9.34-6,8.69,0,8.62,3.6,8.62,7.1Zm-6.66-4.1a11.78,11.78,0,0,1-2.73.88c-1.54.35-2.34.73-2.34,2a2,2,0,0,0,2.17,1.68,2.75,2.75,0,0,0,2.9-2.84Z"/><path class="cls-3" d="M127.19,119.51a2.46,2.46,0,0,0-.77-1.72,2.53,2.53,0,0,0-1.75-.59c-2.66,0-3,2.31-3,4.51s.38,4.48,3,4.48a2.78,2.78,0,0,0,2.7-2.66H134c-.67,4.94-4.56,7.71-9.46,7.71-5.46,0-9.83-3.78-9.83-9.53s4.37-9.55,9.83-9.55c4.77,0,8.83,2.34,9.25,7.35Z"/><path class="cls-3" d="M136.85,105.79h6.93v8.78h.07a6.69,6.69,0,0,1,5.67-2.41c3.26,0,6.24,2,6.24,6.16v12.46h-6.94v-9.52c0-2.1-.24-3.57-2.27-3.57-1.19,0-2.77.59-2.77,3.5v9.59h-6.93Z"/><path class="cls-3" d="M166.6,110.65h-6.93v-4.86h6.93Zm-6.93,2h6.93v18.17h-6.93Z"/><path class="cls-3" d="M170.52,112.61h6.69V115h.07a6.56,6.56,0,0,1,5.95-2.87,5.4,5.4,0,0,1,4.9,2.83c.28-.21,1.68-2.83,6.19-2.83,4.66,0,6.24,3.22,6.24,6.16v12.46h-6.94v-9.84c0-1.71-.17-3.25-2.27-3.25-1.75,0-2.35,1.36-2.35,3.25v9.84h-6.93v-9.84c0-1.71-.17-3.25-2.27-3.25-1.75,0-2.35,1.36-2.35,3.25v9.84h-6.93Z"/><path class="cls-4" d="M904.81,48.69l9.57,13.9h0V48.69H916V65.12h-1.75l-9.56-13.9h0v13.9h-1.56V48.69Z"/><path class="cls-4" d="M927.29,65.12V63h0a4.18,4.18,0,0,1-1.67,1.83,4.79,4.79,0,0,1-2.43.63,5.44,5.44,0,0,1-1.92-.31,3.31,3.31,0,0,1-1.28-.89,3.66,3.66,0,0,1-.73-1.4A7.19,7.19,0,0,1,919,61v-7.7h1.45V61a3.82,3.82,0,0,0,.75,2.43,3,3,0,0,0,2.43.83,3.08,3.08,0,0,0,1.61-.4,3.51,3.51,0,0,0,1.1-1.07,4.58,4.58,0,0,0,.64-1.53,7.37,7.37,0,0,0,.21-1.76V53.25h1.45V65.12Z"/><path class="cls-4" d="M153.49,44.79a17,17,0,0,1,3.46.34,8.35,8.35,0,0,1,2.92,1.16,6.25,6.25,0,0,1,2,2.16,6.66,6.66,0,0,1,.76,3.34,6.73,6.73,0,0,1-.36,2.18,6.56,6.56,0,0,1-2.58,3.38,5.76,5.76,0,0,1-2,.84v.08a6.71,6.71,0,0,1,4.4,2.26,7,7,0,0,1,1.64,4.7,11.26,11.26,0,0,1-.12,1.54,7.42,7.42,0,0,1-1.52,3.54,6.07,6.07,0,0,1-1.82,1.54,10.91,10.91,0,0,1-2.8,1.08,16.41,16.41,0,0,1-4,.42H141.41V44.79Zm0,12.52a9.57,9.57,0,0,0,2.84-.38,5.82,5.82,0,0,0,2-1,4.33,4.33,0,0,0,1.2-1.54,4.44,4.44,0,0,0,.4-1.88q0-5.36-6.44-5.36h-9.36v10.2Zm0,13.72a15.66,15.66,0,0,0,2.88-.26,6.55,6.55,0,0,0,2.4-.94A4.81,4.81,0,0,0,160.41,68a6.09,6.09,0,0,0,.6-2.86A4.75,4.75,0,0,0,159.07,61a9.54,9.54,0,0,0-5.58-1.38h-9.36V71Z"/><path class="cls-4" d="M187.81,44.79v2.32h-17V57.43h15.92v2.32H170.81V71H188v2.32H168.09V44.79Z"/><path class="cls-4" d="M193.77,67.63a6,6,0,0,0,2,2.36,8.11,8.11,0,0,0,3,1.26,17.25,17.25,0,0,0,3.68.38,10.56,10.56,0,0,0,2.44-.32,8.32,8.32,0,0,0,2.46-1,6.4,6.4,0,0,0,1.9-1.8,4.53,4.53,0,0,0,.76-2.66,3.91,3.91,0,0,0-.54-2.08,4.94,4.94,0,0,0-1.4-1.48,8.12,8.12,0,0,0-1.9-1,18.88,18.88,0,0,0-2-.62l-6.36-1.56a18.53,18.53,0,0,1-2.42-.8A7,7,0,0,1,193.25,57a6,6,0,0,1-1.42-2,6.69,6.69,0,0,1-.54-2.84,8.93,8.93,0,0,1,.4-2.44,6.92,6.92,0,0,1,1.5-2.64,8.62,8.62,0,0,1,3-2.1,12.16,12.16,0,0,1,4.92-.86,14.5,14.5,0,0,1,4,.56,9.82,9.82,0,0,1,3.36,1.68,8.09,8.09,0,0,1,3.16,6.64H209a6.57,6.57,0,0,0-.74-2.86,6.42,6.42,0,0,0-1.72-2,7.5,7.5,0,0,0-2.44-1.24,9.92,9.92,0,0,0-2.9-.42,12,12,0,0,0-2.7.3,6.7,6.7,0,0,0-2.28,1,5,5,0,0,0-1.58,1.74,5.45,5.45,0,0,0-.6,2.68,4.06,4.06,0,0,0,.34,1.74,3.79,3.79,0,0,0,.94,1.26,4.81,4.81,0,0,0,1.38.84,10.38,10.38,0,0,0,1.66.52l7,1.72a20,20,0,0,1,2.86,1,9.73,9.73,0,0,1,2.36,1.44,6.06,6.06,0,0,1,1.6,2.1,7,7,0,0,1,.58,3,10.13,10.13,0,0,1-.1,1.28,6.76,6.76,0,0,1-.48,1.7A8.13,8.13,0,0,1,211,70.59a6.9,6.9,0,0,1-1.92,1.66,11.31,11.31,0,0,1-3,1.2,17.49,17.49,0,0,1-4.32.46,17.86,17.86,0,0,1-4.68-.58,10.1,10.1,0,0,1-3.68-1.78,7.93,7.93,0,0,1-2.34-3.08,10,10,0,0,1-.7-4.52h2.72A8,8,0,0,0,193.77,67.63Z"/><path class="cls-4" d="M219.73,44.79V60.15l16.6-15.36H240l-12.76,11.8,13.36,16.76h-3.52L225.21,58.47l-5.48,5.08v9.8H217V44.79Z"/><path class="cls-4" d="M262.65,44.79v2.32h-17V57.43h15.92v2.32H245.65V71h17.2v2.32H242.93V44.79Z"/><path class="cls-4" d="M276.53,44.79q6.51.16,9.82,3.66t3.3,10.62q0,7.12-3.3,10.62t-9.82,3.66h-9.88V44.79ZM275.17,71a18.75,18.75,0,0,0,5.3-.66,8.49,8.49,0,0,0,3.66-2.1,8.71,8.71,0,0,0,2.12-3.72,19.47,19.47,0,0,0,.68-5.48,19.47,19.47,0,0,0-.68-5.48,8.71,8.71,0,0,0-2.12-3.72,8.49,8.49,0,0,0-3.66-2.1,18.75,18.75,0,0,0-5.3-.66h-5.8V71Z"/><path class="cls-4" d="M313.77,44.79v2.32h-17V57.43h15.92v2.32H296.77V71H314v2.32H294.05V44.79Z"/><path class="cls-4" d="M330.85,44.79a12.59,12.59,0,0,1,3.34.44A8.06,8.06,0,0,1,337,46.57a6.53,6.53,0,0,1,1.88,2.32,7.57,7.57,0,0,1,.7,3.34,8,8,0,0,1-1.4,4.72A6.4,6.4,0,0,1,334,59.51v.08a6.34,6.34,0,0,1,2.32.74,4.73,4.73,0,0,1,1.5,1.38,6,6,0,0,1,.84,1.94A15.32,15.32,0,0,1,339,66c0,.48,0,1.07.08,1.76s.08,1.39.16,2.1a12.22,12.22,0,0,0,.38,2,3.68,3.68,0,0,0,.7,1.46h-3a3.4,3.4,0,0,1-.38-1,7.91,7.91,0,0,1-.2-1.2c0-.41-.08-.82-.1-1.22s-.06-.75-.08-1c-.06-1-.14-2-.26-3a8.46,8.46,0,0,0-.76-2.68,4.75,4.75,0,0,0-1.68-1.9,5.11,5.11,0,0,0-3-.64H320.49V73.35h-2.72V44.79Zm-.2,13.56A7.43,7.43,0,0,0,333,58a5.89,5.89,0,0,0,2-1.1,5.48,5.48,0,0,0,1.34-1.74,5.3,5.3,0,0,0,.5-2.34,5.63,5.63,0,0,0-1.52-4.16,6.34,6.34,0,0,0-4.64-1.52H320.49V58.35Z"/><rect class="cls-5" x="47.88" y="27.79" width="57" height="57" rx="12"/><path class="cls-2" d="M76.38,35.18C64,35.18,54,43.63,54,54.05A17.31,17.31,0,0,0,59.9,66.82l-2,7.4L68,71.58l.07,0a26.08,26.08,0,0,0,8.34,1.35c12.37,0,22.39-8.44,22.39-18.86S88.75,35.18,76.38,35.18Z"/><path class="cls-3" d="M57.06,152.33v10.85H71.9V152.33h2.38v25H71.9V165.21H57.06v12.11H54.68v-25Z"/><path class="cls-3" d="M79.32,159.26,85,175.12h.07l5.6-15.86h2.27l-6.75,18.06H83.83l-7-18.06Z"/><path class="cls-3" d="M95.56,162.06a5.15,5.15,0,0,1,1.52-1.89,6.32,6.32,0,0,1,2.26-1.08,10.7,10.7,0,0,1,2.87-.35,12.86,12.86,0,0,1,2.38.22,5.9,5.9,0,0,1,2.13.86,4.69,4.69,0,0,1,1.54,1.77,6.33,6.33,0,0,1,.6,3v9.59a1.16,1.16,0,0,0,1.29,1.33,1.75,1.75,0,0,0,.7-.14v1.85l-.68.11q-.3,0-.75,0a3.21,3.21,0,0,1-1.35-.23,1.8,1.8,0,0,1-.79-.64,2.45,2.45,0,0,1-.37-1,10,10,0,0,1-.08-1.28h-.07a16,16,0,0,1-1.21,1.56,6.2,6.2,0,0,1-1.37,1.14,6.59,6.59,0,0,1-1.71.7,9.58,9.58,0,0,1-2.29.24,9.05,9.05,0,0,1-2.37-.3,5.22,5.22,0,0,1-1.92-.94,4.53,4.53,0,0,1-1.3-1.65,5.52,5.52,0,0,1-.47-2.36,4.69,4.69,0,0,1,.84-3A5.26,5.26,0,0,1,97.18,168a12.39,12.39,0,0,1,3.12-.79l3.52-.44a11.23,11.23,0,0,0,1.22-.17,2.27,2.27,0,0,0,.88-.37,1.8,1.8,0,0,0,.54-.72,3.05,3.05,0,0,0,.19-1.19,4,4,0,0,0-.37-1.84,2.9,2.9,0,0,0-1-1.13,4,4,0,0,0-1.51-.58,9.67,9.67,0,0,0-1.83-.16,5.52,5.52,0,0,0-3.43,1,3.87,3.87,0,0,0-1.4,3.2H94.89A7.21,7.21,0,0,1,95.56,162.06Zm11,5.39a1.27,1.27,0,0,1-.8.56,8.6,8.6,0,0,1-1,.25c-.94.16-1.9.31-2.89.43a15.54,15.54,0,0,0-2.71.58,5.5,5.5,0,0,0-2,1.1,2.66,2.66,0,0,0-.78,2,3.24,3.24,0,0,0,.33,1.49,3.7,3.7,0,0,0,.89,1.12,4.11,4.11,0,0,0,1.3.72,4.8,4.8,0,0,0,1.5.24,7.81,7.81,0,0,0,2.42-.38,6,6,0,0,0,2-1.12,5.38,5.38,0,0,0,1.87-4.17v-2.87Z"/><path class="cls-3" d="M127.13,177.32v-3.43h-.07a5.28,5.28,0,0,1-1,1.61,6.41,6.41,0,0,1-1.55,1.24,8.22,8.22,0,0,1-1.88.79,7.1,7.1,0,0,1-2,.28,8,8,0,0,1-3.59-.75,7.12,7.12,0,0,1-2.54-2.07,8.65,8.65,0,0,1-1.5-3,13.91,13.91,0,0,1,0-7.32,8.65,8.65,0,0,1,1.5-3,7.26,7.26,0,0,1,2.54-2.08,7.76,7.76,0,0,1,3.59-.77,8.11,8.11,0,0,1,2,.24,6.72,6.72,0,0,1,1.81.75,6.34,6.34,0,0,1,1.48,1.25,5,5,0,0,1,1,1.71H127V152.33h2.21v25ZM115,171.07a8,8,0,0,0,1,2.47,5.87,5.87,0,0,0,1.84,1.77,5.15,5.15,0,0,0,2.7.68,6,6,0,0,0,2.95-.68,5.88,5.88,0,0,0,2-1.77,7,7,0,0,0,1.09-2.47,11.87,11.87,0,0,0,0-5.56,7.08,7.08,0,0,0-1.09-2.47,5.88,5.88,0,0,0-2-1.77,6,6,0,0,0-2.95-.68,5.15,5.15,0,0,0-2.7.68,5.87,5.87,0,0,0-1.84,1.77,8.08,8.08,0,0,0-1,2.47,11.87,11.87,0,0,0,0,5.56Z"/><path class="cls-3" d="M146.48,161.12v16.2h-2.2v-16.2H141.2v-1.86h3.08v-1.64a11.9,11.9,0,0,1,.17-2.14,4.21,4.21,0,0,1,.67-1.68,3.07,3.07,0,0,1,1.34-1.08,5.33,5.33,0,0,1,2.19-.39,8.59,8.59,0,0,1,.91,0c.28,0,.6,0,.95.1v1.89l-.84-.12a5.06,5.06,0,0,0-.77-.05,2.79,2.79,0,0,0-1.4.28,1.63,1.63,0,0,0-.72.75,2.83,2.83,0,0,0-.26,1.1c0,.42,0,.88,0,1.37v1.57h3.57v1.86Z"/><path class="cls-3" d="M164.75,177.32v-3.25h-.07a6.24,6.24,0,0,1-2.54,2.78,7.25,7.25,0,0,1-3.69,1,8.12,8.12,0,0,1-2.92-.47,4.81,4.81,0,0,1-2-1.35,5.39,5.39,0,0,1-1.1-2.13,10.49,10.49,0,0,1-.35-2.87V159.26h2.2V171a5.89,5.89,0,0,0,1.14,3.71,5.69,5.69,0,0,0,6.14.65,5.13,5.13,0,0,0,1.68-1.63,7.31,7.31,0,0,0,1-2.33,11.34,11.34,0,0,0,.32-2.67v-9.49h2.2v18.06Z"/><path class="cls-3" d="M182,161.75a4.81,4.81,0,0,0-3.43-1.16,5.52,5.52,0,0,0-2.77.67,6,6,0,0,0-2,1.75,8,8,0,0,0-1.19,2.46,10.14,10.14,0,0,0,0,5.64,8.2,8.2,0,0,0,1.19,2.47,6.29,6.29,0,0,0,2,1.75,5.62,5.62,0,0,0,2.77.66,5,5,0,0,0,1.92-.38,5.33,5.33,0,0,0,1.61-1.07,5.87,5.87,0,0,0,1.16-1.63,6.1,6.1,0,0,0,.56-2.06H186a8.32,8.32,0,0,1-2.41,5.12,7.06,7.06,0,0,1-5,1.84,8.49,8.49,0,0,1-3.66-.75,7.8,7.8,0,0,1-2.68-2.05,8.86,8.86,0,0,1-1.64-3,12.44,12.44,0,0,1,0-7.38,8.86,8.86,0,0,1,1.64-3,8,8,0,0,1,2.68-2.06,8.21,8.21,0,0,1,3.66-.77,7.82,7.82,0,0,1,4.91,1.54,6.56,6.56,0,0,1,2.4,4.65h-2.2A6.16,6.16,0,0,0,182,161.75Z"/><path class="cls-3" d="M191.32,152.33V168l10-8.75h2.94l-7.7,6.69,8.22,11.37H202l-7.14-9.83-3.57,3v6.86h-2.21v-25Z"/><path class="cls-3" d="M206.93,156.65a7,7,0,0,1,1.55-2.59A7.29,7.29,0,0,1,211,152.4a8.83,8.83,0,0,1,3.36-.59,8.42,8.42,0,0,1,2.74.43,7,7,0,0,1,2.26,1.28,6,6,0,0,1,1.54,2,6.37,6.37,0,0,1,.56,2.73,6.15,6.15,0,0,1-.86,3.33,13.72,13.72,0,0,1-2.18,2.62c-.73.73-1.31,1.29-1.74,1.7a4.79,4.79,0,0,0-1,1.21,4.13,4.13,0,0,0-.42,1.45c-.07.57-.12,1.39-.14,2.47H213a12.61,12.61,0,0,1,.17-2.7,7,7,0,0,1,.68-2,8,8,0,0,1,1.26-1.68c.53-.54,1.16-1.14,1.91-1.82a8.76,8.76,0,0,0,1.63-2,4.88,4.88,0,0,0,.65-2.48,4.54,4.54,0,0,0-.41-1.93,4.64,4.64,0,0,0-1.08-1.49,5.53,5.53,0,0,0-1.59-1,5.41,5.41,0,0,0-1.93-.35,6.06,6.06,0,0,0-2.48.49A4.88,4.88,0,0,0,210,155.5a5.67,5.67,0,0,0-1.05,2,7.85,7.85,0,0,0-.31,2.52H206.4A10.33,10.33,0,0,1,206.93,156.65Zm8.61,17v3.71H212.6v-3.71Z"/><path class="cls-3" d="M226.07,173.61H229v3.71h-2.94Zm.28-21.28h2.38v7.46l-.53,11.3h-1.33l-.52-11.3Z"/><path class="cls-3" d="M234.51,173.61h2.93v3.71h-2.93Zm.27-21.28h2.38v7.46l-.52,11.3h-1.33l-.53-11.3Z"/></svg>
