<svg id="Layer_1" data-name="Layer 1" xmlns="http://www.w3.org/2000/svg" width="1009.68" height="245.16" viewBox="0 0 1009.68 245.16"><defs><style>.cls-1{opacity:0.5;}.cls-2{fill:#fff;}.cls-3{fill:#010101;}.cls-4{fill:#6a6c6c;}.cls-5{fill:#4fba6f;}</style></defs><title>beskedhanna</title><g class="cls-1"><rect class="cls-2" x="28.84" y="17.29" width="952" height="191" rx="11.5"/><path class="cls-3" d="M969.34,17.79a11,11,0,0,1,11,11v168a11,11,0,0,1-11,11h-929a11,11,0,0,1-11-11v-168a11,11,0,0,1,11-11h929m0-1h-929a12,12,0,0,0-12,12v168a12,12,0,0,0,12,12h929a12,12,0,0,0,12-12v-168a12,12,0,0,0-12-12Z"/></g><path class="cls-3" d="M45.21,105.79h7.7v8.68h7.21v-8.68h7.71v25H60.12v-9.91H52.91v9.91h-7.7Z"/><path class="cls-3" d="M89.38,126.72a7.36,7.36,0,0,0,.84,4.06H83.15a4.87,4.87,0,0,1-.24-1.72h-.07c-1.47,1.68-3.61,2.17-5.85,2.17-3.5,0-6.4-1.68-6.4-5.49,0-5.74,6.72-5.53,10.25-6.2,1-.17,1.89-.45,1.89-1.61s-1.15-1.68-2.27-1.68c-2.14,0-2.56,1.09-2.59,1.86H71.43c.21-5.11,5-6,9.34-6,8.68,0,8.61,3.6,8.61,7.1Zm-6.65-4.1a11.78,11.78,0,0,1-2.73.88c-1.54.35-2.34.73-2.34,2a2,2,0,0,0,2.17,1.68,2.75,2.75,0,0,0,2.9-2.84Z"/><path class="cls-3" d="M93.06,112.61h6.68v2.31h.07a6.67,6.67,0,0,1,5.92-2.76c3.25,0,6.23,2,6.23,6.16v12.46H105v-9.52c0-2.1-.25-3.57-2.28-3.57-1.19,0-2.76.59-2.76,3.5v9.59H93.06Z"/><path class="cls-3" d="M115.74,112.61h6.68v2.31h.07a6.67,6.67,0,0,1,5.92-2.76c3.25,0,6.23,2,6.23,6.16v12.46h-6.93v-9.52c0-2.1-.25-3.57-2.28-3.57-1.19,0-2.76.59-2.76,3.5v9.59h-6.93Z"/><path class="cls-3" d="M156.13,126.72a7.36,7.36,0,0,0,.84,4.06H149.9a4.88,4.88,0,0,1-.25-1.72h-.07c-1.47,1.68-3.6,2.17-5.84,2.17-3.5,0-6.41-1.68-6.41-5.49,0-5.74,6.72-5.53,10.26-6.2.94-.17,1.89-.45,1.89-1.61s-1.16-1.68-2.28-1.68c-2.13,0-2.55,1.09-2.59,1.86h-6.44c.21-5.11,5-6,9.35-6,8.68,0,8.61,3.6,8.61,7.1Zm-6.65-4.1a11.94,11.94,0,0,1-2.73.88c-1.54.35-2.35.73-2.35,2a2,2,0,0,0,2.17,1.68,2.76,2.76,0,0,0,2.91-2.84Z"/><path class="cls-4" d="M899.27,48.69l9.57,13.9h0V48.69h1.56V65.12H908.7l-9.56-13.9h0v13.9h-1.56V48.69Z"/><path class="cls-4" d="M921.75,65.12V63h0A4.12,4.12,0,0,1,920,64.81a4.79,4.79,0,0,1-2.43.63,5.44,5.44,0,0,1-1.92-.31,3.31,3.31,0,0,1-1.28-.89,3.66,3.66,0,0,1-.73-1.4,7.19,7.19,0,0,1-.23-1.89v-7.7h1.45V61a3.82,3.82,0,0,0,.75,2.43,3.73,3.73,0,0,0,4,.43,3.44,3.44,0,0,0,1.11-1.07,4.58,4.58,0,0,0,.64-1.53,7.37,7.37,0,0,0,.21-1.76V53.25h1.45V65.12Z"/><path class="cls-4" d="M148,44.79a17,17,0,0,1,3.46.34,8.35,8.35,0,0,1,2.92,1.16,6.25,6.25,0,0,1,2,2.16,6.66,6.66,0,0,1,.76,3.34,6.73,6.73,0,0,1-.36,2.18,6.56,6.56,0,0,1-2.58,3.38,5.76,5.76,0,0,1-2,.84v.08a6.71,6.71,0,0,1,4.4,2.26,7,7,0,0,1,1.64,4.7,11.26,11.26,0,0,1-.12,1.54,7.42,7.42,0,0,1-1.52,3.54,6.07,6.07,0,0,1-1.82,1.54,10.91,10.91,0,0,1-2.8,1.08,16.41,16.41,0,0,1-4,.42H135.87V44.79Zm0,12.52a9.57,9.57,0,0,0,2.84-.38,5.82,5.82,0,0,0,2-1,4.33,4.33,0,0,0,1.2-1.54,4.44,4.44,0,0,0,.4-1.88q0-5.36-6.44-5.36h-9.36v10.2ZM148,71a15.66,15.66,0,0,0,2.88-.26,6.55,6.55,0,0,0,2.4-.94A4.81,4.81,0,0,0,154.87,68a6.09,6.09,0,0,0,.6-2.86A4.75,4.75,0,0,0,153.53,61,9.54,9.54,0,0,0,148,59.63h-9.36V71Z"/><path class="cls-4" d="M182.27,44.79v2.32h-17V57.43h15.92v2.32H165.27V71h17.2v2.32H162.55V44.79Z"/><path class="cls-4" d="M188.23,67.63a6,6,0,0,0,2,2.36,8.11,8.11,0,0,0,3,1.26,17.18,17.18,0,0,0,3.68.38,10.63,10.63,0,0,0,2.44-.32,8.32,8.32,0,0,0,2.46-1,6.4,6.4,0,0,0,1.9-1.8,4.61,4.61,0,0,0,.76-2.66,3.91,3.91,0,0,0-.54-2.08,4.94,4.94,0,0,0-1.4-1.48,8.33,8.33,0,0,0-1.9-1,20.35,20.35,0,0,0-2-.62l-6.36-1.56a18,18,0,0,1-2.42-.8A6.83,6.83,0,0,1,187.71,57a6,6,0,0,1-1.42-2,6.69,6.69,0,0,1-.54-2.84,8.93,8.93,0,0,1,.4-2.44,6.66,6.66,0,0,1,1.5-2.64,8.62,8.62,0,0,1,3-2.1,12.16,12.16,0,0,1,4.92-.86,14.5,14.5,0,0,1,4,.56A9.82,9.82,0,0,1,203,46.43a8.41,8.41,0,0,1,2.3,2.78,8.32,8.32,0,0,1,.86,3.86h-2.72a6.71,6.71,0,0,0-.74-2.86,6.55,6.55,0,0,0-1.72-2,7.5,7.5,0,0,0-2.44-1.24,9.92,9.92,0,0,0-2.9-.42,11.89,11.89,0,0,0-2.7.3,6.7,6.7,0,0,0-2.28,1,4.91,4.91,0,0,0-1.58,1.74,5.45,5.45,0,0,0-.6,2.68,4.06,4.06,0,0,0,.34,1.74,3.66,3.66,0,0,0,.94,1.26,4.81,4.81,0,0,0,1.38.84,10.38,10.38,0,0,0,1.66.52l7,1.72a20.45,20.45,0,0,1,2.86,1A9.73,9.73,0,0,1,205,60.69a6.06,6.06,0,0,1,1.6,2.1,7.16,7.16,0,0,1,.58,3,12.45,12.45,0,0,1-.1,1.28,6.76,6.76,0,0,1-.48,1.7,9,9,0,0,1-1.08,1.82,6.9,6.9,0,0,1-1.92,1.66,11.45,11.45,0,0,1-3,1.2,17.49,17.49,0,0,1-4.32.46,17.86,17.86,0,0,1-4.68-.58,10.1,10.1,0,0,1-3.68-1.78,7.74,7.74,0,0,1-2.34-3.08,10,10,0,0,1-.7-4.52h2.72A8,8,0,0,0,188.23,67.63Z"/><path class="cls-4" d="M214.19,44.79V60.15l16.6-15.36h3.68l-12.76,11.8,13.36,16.76h-3.52L219.67,58.47l-5.48,5.08v9.8h-2.72V44.79Z"/><path class="cls-4" d="M257.11,44.79v2.32h-17V57.43H256v2.32H240.11V71h17.2v2.32H237.39V44.79Z"/><path class="cls-4" d="M271,44.79q6.51.16,9.82,3.66t3.3,10.62q0,7.12-3.3,10.62T271,73.35h-9.88V44.79ZM269.63,71a18.75,18.75,0,0,0,5.3-.66,8.49,8.49,0,0,0,3.66-2.1,8.71,8.71,0,0,0,2.12-3.72,19.47,19.47,0,0,0,.68-5.48,19.47,19.47,0,0,0-.68-5.48,8.71,8.71,0,0,0-2.12-3.72,8.49,8.49,0,0,0-3.66-2.1,18.75,18.75,0,0,0-5.3-.66h-5.8V71Z"/><path class="cls-4" d="M308.23,44.79v2.32h-17V57.43h15.92v2.32H291.23V71h17.2v2.32H288.51V44.79Z"/><path class="cls-4" d="M325.31,44.79a12.59,12.59,0,0,1,3.34.44,8.06,8.06,0,0,1,2.76,1.34,6.53,6.53,0,0,1,1.88,2.32,7.57,7.57,0,0,1,.7,3.34,8,8,0,0,1-1.4,4.72,6.4,6.4,0,0,1-4.16,2.56v.08a6.34,6.34,0,0,1,2.32.74,4.73,4.73,0,0,1,1.5,1.38,6,6,0,0,1,.84,1.94,15.32,15.32,0,0,1,.34,2.38c0,.48.05,1.07.08,1.76s.08,1.39.16,2.1a12.22,12.22,0,0,0,.38,2,3.68,3.68,0,0,0,.7,1.46h-3a3.4,3.4,0,0,1-.38-1,7.91,7.91,0,0,1-.2-1.2c0-.41-.08-.82-.1-1.22s-.06-.75-.08-1c-.06-1-.14-2-.26-3a8.46,8.46,0,0,0-.76-2.68,4.75,4.75,0,0,0-1.68-1.9,5.11,5.11,0,0,0-3-.64H315V73.35h-2.72V44.79Zm-.2,13.56a7.43,7.43,0,0,0,2.36-.38,5.89,5.89,0,0,0,2-1.1,5.48,5.48,0,0,0,1.34-1.74,5.3,5.3,0,0,0,.5-2.34,5.63,5.63,0,0,0-1.52-4.16,6.34,6.34,0,0,0-4.64-1.52H315V58.35Z"/><rect class="cls-5" x="42.34" y="27.79" width="57" height="57" rx="12"/><path class="cls-2" d="M70.84,35.18c-12.37,0-22.39,8.45-22.39,18.87a17.31,17.31,0,0,0,5.91,12.77l-2,7.4,10.11-2.64.07,0a26.08,26.08,0,0,0,8.34,1.35c12.37,0,22.39-8.44,22.39-18.86S83.21,35.18,70.84,35.18Z"/><path class="cls-3" d="M48.93,152.33l8.12,22.37h.07l8.05-22.37h2.52l-9.28,25H55.65l-9.24-25Z"/><path class="cls-3" d="M71.92,152.33v3.54h-2.2v-3.54Zm0,6.93v18.06h-2.2V159.26Z"/><path class="cls-3" d="M78.4,152.33v25H76.19v-25Z"/><path class="cls-3" d="M106.22,177.32v-3.43h-.07a5.13,5.13,0,0,1-1,1.61,7,7,0,0,1-1.56,1.25,8.12,8.12,0,0,1-1.87.78,7.22,7.22,0,0,1-2,.28,8,8,0,0,1-3.59-.75A7.17,7.17,0,0,1,93.59,175,8.9,8.9,0,0,1,92.08,172a13.91,13.91,0,0,1,0-7.32,8.85,8.85,0,0,1,1.51-3,7.22,7.22,0,0,1,2.53-2.08,7.79,7.79,0,0,1,3.59-.77,8.13,8.13,0,0,1,2,.24,7.14,7.14,0,0,1,1.8.75A6.39,6.39,0,0,1,105,161a5.39,5.39,0,0,1,1,1.71h.07V152.33h2.2v25Zm-12.09-6.24a7.56,7.56,0,0,0,1.05,2.46A5.66,5.66,0,0,0,97,175.31a5,5,0,0,0,2.69.68,5.89,5.89,0,0,0,3-.68,5.76,5.76,0,0,0,2-1.77,7.2,7.2,0,0,0,1.08-2.46,11.58,11.58,0,0,0,0-5.57,7.34,7.34,0,0,0-1.08-2.47,5.7,5.7,0,0,0-4.92-2.45,5,5,0,0,0-2.69.69A5.73,5.73,0,0,0,95.18,163a7.71,7.71,0,0,0-1.05,2.47,11.92,11.92,0,0,0,0,5.57Z"/><path class="cls-3" d="M125.05,177.32v-3.25H125a6.24,6.24,0,0,1-2.54,2.78,7.25,7.25,0,0,1-3.69,1,8.12,8.12,0,0,1-2.92-.47,4.72,4.72,0,0,1-2-1.35,5.39,5.39,0,0,1-1.1-2.13,10.49,10.49,0,0,1-.35-2.87V159.26h2.2V171a5.89,5.89,0,0,0,1.14,3.71,5.69,5.69,0,0,0,6.14.65,5.13,5.13,0,0,0,1.68-1.63,7.35,7.35,0,0,0,1-2.32,11.49,11.49,0,0,0,.32-2.68v-9.49h2.2v18.06Z"/><path class="cls-3" d="M151.37,162.78a3.57,3.57,0,0,0-1-1.24,4.3,4.3,0,0,0-1.49-.72,6.91,6.91,0,0,0-1.79-.23,6.84,6.84,0,0,0-1.48.16,4.66,4.66,0,0,0-1.39.53,2.9,2.9,0,0,0-1,1,2.6,2.6,0,0,0-.39,1.47,2.09,2.09,0,0,0,.37,1.24,3.48,3.48,0,0,0,.93.86,5.94,5.94,0,0,0,1.22.57,12.47,12.47,0,0,0,1.23.37l2.94.67a8,8,0,0,1,1.87.51,5.86,5.86,0,0,1,1.65,1,4.59,4.59,0,0,1,1.17,1.47,4.44,4.44,0,0,1,.45,2.06,4.58,4.58,0,0,1-.66,2.51,5.56,5.56,0,0,1-1.7,1.68,7.06,7.06,0,0,1-2.33.92,11.78,11.78,0,0,1-2.55.28,8.32,8.32,0,0,1-5.16-1.5,6.43,6.43,0,0,1-2.26-4.83h2.2a4.39,4.39,0,0,0,1.63,3.38,5.94,5.94,0,0,0,3.69,1.13,8.09,8.09,0,0,0,1.67-.17,5.44,5.44,0,0,0,1.59-.6,3.78,3.78,0,0,0,1.21-1.07,2.65,2.65,0,0,0,.47-1.59,2.6,2.6,0,0,0-.33-1.35,3,3,0,0,0-.9-.91,6,6,0,0,0-1.27-.61c-.48-.16-1-.3-1.46-.42l-2.83-.63a16.21,16.21,0,0,1-2-.64,6.81,6.81,0,0,1-1.59-.91,4.06,4.06,0,0,1-1.07-1.33,4.55,4.55,0,0,1-.38-1.95,4.29,4.29,0,0,1,.61-2.34,4.8,4.8,0,0,1,1.59-1.58A7.54,7.54,0,0,1,145,159a10.47,10.47,0,0,1,2.4-.28,9,9,0,0,1,2.54.35,5.72,5.72,0,0,1,2.06,1.08A5.31,5.31,0,0,1,153.4,162a6.47,6.47,0,0,1,.59,2.56h-2.2A4.05,4.05,0,0,0,151.37,162.78Z"/><path class="cls-3" d="M159.44,171.36a6.77,6.77,0,0,0,1.06,2.29,6.27,6.27,0,0,0,1.86,1.68,5.21,5.21,0,0,0,2.69.66,5.36,5.36,0,0,0,3.78-1.26,6.63,6.63,0,0,0,1.89-3.36h2.21a8.85,8.85,0,0,1-2.57,4.76,7.69,7.69,0,0,1-5.31,1.68,8.44,8.44,0,0,1-3.69-.75,6.87,6.87,0,0,1-2.54-2.06,9.16,9.16,0,0,1-1.45-3.05,14.06,14.06,0,0,1-.47-3.66,13.36,13.36,0,0,1,.47-3.5,9.6,9.6,0,0,1,1.45-3.06,7.35,7.35,0,0,1,2.54-2.17,7.79,7.79,0,0,1,3.69-.82,7.16,7.16,0,0,1,6.22,3.16,9.64,9.64,0,0,1,1.38,3.26,14.14,14.14,0,0,1,.35,3.73H159.1A9.52,9.52,0,0,0,159.44,171.36Zm10.92-6.74a6.72,6.72,0,0,0-1.14-2.05,5.72,5.72,0,0,0-1.79-1.44,5.12,5.12,0,0,0-2.38-.54,5.19,5.19,0,0,0-2.41.54,5.72,5.72,0,0,0-1.79,1.44,7.17,7.17,0,0,0-1.17,2.06,10.77,10.77,0,0,0-.58,2.4h11.69A8.08,8.08,0,0,0,170.36,164.62Z"/><path class="cls-3" d="M187.91,152.33v10.36H188a5,5,0,0,1,1-1.71,6.34,6.34,0,0,1,1.48-1.25,7.12,7.12,0,0,1,1.82-.75,8.28,8.28,0,0,1,2-.24,7.76,7.76,0,0,1,3.59.77,7.26,7.26,0,0,1,2.54,2.08,8.65,8.65,0,0,1,1.5,3,13.91,13.91,0,0,1,0,7.32,8.7,8.7,0,0,1-1.5,3.05,7.2,7.2,0,0,1-2.54,2.06,8,8,0,0,1-3.59.75,7.66,7.66,0,0,1-3.93-1,5.86,5.86,0,0,1-2.51-2.91h-.07v3.43h-2v-25Zm11.92,13.18a8.19,8.19,0,0,0-1.05-2.47,5.73,5.73,0,0,0-1.84-1.76,5.07,5.07,0,0,0-2.7-.69,5.85,5.85,0,0,0-3,.69,5.74,5.74,0,0,0-2,1.76,7.17,7.17,0,0,0-1.09,2.47,11.92,11.92,0,0,0,0,5.57,7,7,0,0,0,1.09,2.46,5.67,5.67,0,0,0,2,1.77,5.85,5.85,0,0,0,3,.68,5.06,5.06,0,0,0,2.7-.68,5.66,5.66,0,0,0,1.84-1.77,8,8,0,0,0,1.05-2.46,11.92,11.92,0,0,0,0-5.57Z"/><path class="cls-3" d="M208,152.33v3.54h-2.2v-3.54Zm0,6.93v18.06h-2.2V159.26Z"/><path class="cls-3" d="M214.51,152.33v25H212.3v-25Z"/><path class="cls-3" d="M221,152.33v25h-2.2v-25Z"/><path class="cls-3" d="M226.85,171.36a6.77,6.77,0,0,0,1.06,2.29,6.27,6.27,0,0,0,1.86,1.68,5.21,5.21,0,0,0,2.69.66,5.36,5.36,0,0,0,3.78-1.26,6.63,6.63,0,0,0,1.89-3.36h2.21a8.85,8.85,0,0,1-2.57,4.76,7.69,7.69,0,0,1-5.31,1.68,8.44,8.44,0,0,1-3.69-.75,6.87,6.87,0,0,1-2.54-2.06,9.16,9.16,0,0,1-1.45-3.05,14.06,14.06,0,0,1-.47-3.66,13.36,13.36,0,0,1,.47-3.5,9.6,9.6,0,0,1,1.45-3.06,7.35,7.35,0,0,1,2.54-2.17,7.79,7.79,0,0,1,3.69-.82,7.16,7.16,0,0,1,6.22,3.16,9.64,9.64,0,0,1,1.38,3.26,14.14,14.14,0,0,1,.35,3.73h-13.9A9.52,9.52,0,0,0,226.85,171.36Zm10.92-6.74a6.72,6.72,0,0,0-1.14-2.05,5.72,5.72,0,0,0-1.79-1.44,5.12,5.12,0,0,0-2.38-.54,5.19,5.19,0,0,0-2.41.54,5.72,5.72,0,0,0-1.79,1.44,7.17,7.17,0,0,0-1.17,2.06,10.77,10.77,0,0,0-.58,2.4H238.2A8.08,8.08,0,0,0,237.77,164.62Z"/><path class="cls-3" d="M257.24,177.32v-3.43h-.07a5,5,0,0,1-1,1.61,6.55,6.55,0,0,1-1.56,1.25,7.94,7.94,0,0,1-1.87.78,7.12,7.12,0,0,1-2,.28,8,8,0,0,1-3.58-.75,7.2,7.2,0,0,1-2.54-2.06A8.9,8.9,0,0,1,243.1,172a13.91,13.91,0,0,1,0-7.32,8.85,8.85,0,0,1,1.51-3,7.26,7.26,0,0,1,2.54-2.08,7.74,7.74,0,0,1,3.58-.77,8.13,8.13,0,0,1,2,.24,7.14,7.14,0,0,1,1.8.75A6.39,6.39,0,0,1,256,161a5.21,5.21,0,0,1,1,1.71h.07V152.33h2.2v25Zm-12.09-6.24a7.56,7.56,0,0,0,1,2.46,5.66,5.66,0,0,0,1.84,1.77,5,5,0,0,0,2.69.68,5.87,5.87,0,0,0,3-.68,5.67,5.67,0,0,0,2-1.77,7.42,7.42,0,0,0,1.09-2.46,11.92,11.92,0,0,0,0-5.57,7.56,7.56,0,0,0-1.09-2.47,5.74,5.74,0,0,0-2-1.76,5.87,5.87,0,0,0-3-.69,5,5,0,0,0-2.69.69A5.73,5.73,0,0,0,246.2,163a7.71,7.71,0,0,0-1,2.47,11.92,11.92,0,0,0,0,5.57Z"/><path class="cls-3" d="M265.1,171.36a6.79,6.79,0,0,0,1.07,2.29,6.35,6.35,0,0,0,1.85,1.68,5.25,5.25,0,0,0,2.7.66,5.36,5.36,0,0,0,3.78-1.26,6.63,6.63,0,0,0,1.89-3.36h2.2a8.73,8.73,0,0,1-2.57,4.76,7.66,7.66,0,0,1-5.3,1.68,8.41,8.41,0,0,1-3.69-.75,6.79,6.79,0,0,1-2.54-2.06A9,9,0,0,1,263,172a13.65,13.65,0,0,1-.48-3.66,13,13,0,0,1,.48-3.5,9.4,9.4,0,0,1,1.45-3.06,7.26,7.26,0,0,1,2.54-2.17,7.76,7.76,0,0,1,3.69-.82,7.43,7.43,0,0,1,3.71.87,7.34,7.34,0,0,1,2.5,2.29,9.64,9.64,0,0,1,1.38,3.26,14.14,14.14,0,0,1,.35,3.73H264.77A9.94,9.94,0,0,0,265.1,171.36ZM276,164.62a6.72,6.72,0,0,0-1.14-2.05,5.68,5.68,0,0,0-1.78-1.44,5.12,5.12,0,0,0-2.38-.54,5.23,5.23,0,0,0-2.42.54,5.68,5.68,0,0,0-1.78,1.44,7.17,7.17,0,0,0-1.17,2.06,9.77,9.77,0,0,0-.58,2.4h11.69A7.79,7.79,0,0,0,276,164.62Z"/><path class="cls-3" d="M291.82,162.06a5.18,5.18,0,0,1,1.53-1.89,6.36,6.36,0,0,1,2.25-1.08,11.17,11.17,0,0,1,2.87-.35,12.7,12.7,0,0,1,2.38.22,5.88,5.88,0,0,1,2.14.86,4.69,4.69,0,0,1,1.54,1.77,6.34,6.34,0,0,1,.59,3v9.59a1.16,1.16,0,0,0,1.3,1.33,1.75,1.75,0,0,0,.7-.14v1.85c-.26,0-.49.09-.68.11s-.45,0-.76,0a3.31,3.31,0,0,1-1.34-.22,1.89,1.89,0,0,1-.79-.65,2.39,2.39,0,0,1-.37-1,8.38,8.38,0,0,1-.09-1.28H303a13.84,13.84,0,0,1-1.2,1.56,6.16,6.16,0,0,1-1.37,1.14,6.59,6.59,0,0,1-1.71.7,9.67,9.67,0,0,1-2.3.24,9.42,9.42,0,0,1-2.36-.29,5.32,5.32,0,0,1-1.92-1,4.58,4.58,0,0,1-1.3-1.64,5.6,5.6,0,0,1-.47-2.37,4.64,4.64,0,0,1,.84-2.95,5.2,5.2,0,0,1,2.22-1.63,12.72,12.72,0,0,1,3.12-.79l3.51-.44a11.09,11.09,0,0,0,1.23-.17,2.16,2.16,0,0,0,.87-.37,1.67,1.67,0,0,0,.55-.72,3.25,3.25,0,0,0,.19-1.19,4,4,0,0,0-.37-1.84,2.9,2.9,0,0,0-1-1.13,4.28,4.28,0,0,0-1.51-.58,9.7,9.7,0,0,0-1.84-.16,5.6,5.6,0,0,0-3.43,1,3.94,3.94,0,0,0-1.4,3.2h-2.2A7.4,7.4,0,0,1,291.82,162.06Zm11,5.39a1.23,1.23,0,0,1-.81.56,7.81,7.81,0,0,1-1.05.25c-.93.16-1.89.31-2.88.43a16.65,16.65,0,0,0-2.72.58,5.54,5.54,0,0,0-2,1.1,2.67,2.67,0,0,0-.79,2,3.12,3.12,0,0,0,.34,1.49,3.7,3.7,0,0,0,.89,1.12,3.87,3.87,0,0,0,1.29.72,4.87,4.87,0,0,0,1.51.24,7.74,7.74,0,0,0,2.41-.38,6.12,6.12,0,0,0,2-1.12,5.49,5.49,0,0,0,1.36-1.79,5.37,5.37,0,0,0,.51-2.38v-2.87Z"/><path class="cls-3" d="M312.93,161.12v16.2h-2.21v-16.2h-3.08v-1.86h3.08v-1.64a12,12,0,0,1,.18-2.14,4.35,4.35,0,0,1,.66-1.68,3.23,3.23,0,0,1,1.35-1.08,5.3,5.3,0,0,1,2.19-.39c.33,0,.63,0,.91,0l.94.1v1.89l-.84-.12a4.9,4.9,0,0,0-.77-.05,2.85,2.85,0,0,0-1.4.28,1.66,1.66,0,0,0-.71.75,2.83,2.83,0,0,0-.27,1.1c0,.42,0,.88,0,1.37v1.57h3.57v1.86Z"/><path class="cls-3" d="M319.89,173.61h2.94v3.71h-2.94Z"/><path class="cls-3" d="M329.62,173.61h2.94v3.71h-2.94Z"/><path class="cls-3" d="M339.35,173.61h2.94v3.71h-2.94Z"/></svg>
