<svg xmlns="http://www.w3.org/2000/svg" width="1080" height="1920" viewBox="0 0 1080 1920"><defs><style>.cls-1{fill:#dcdfe6;}.cls-2{fill:#fff;}.cls-3{fill:#999;}.cls-4{fill:#bcc0cc;}.cls-5{fill:#343740;}.cls-6{fill:#a1a5b3;}.cls-7{fill:gray;}.cls-8{fill:#fefefe;}.cls-9{fill:#ecf0f1;}.cls-10{fill:#057afc;}.cls-11{fill:#2c3e50;}.cls-12{fill:#858e99;}.cls-13{fill:#848e98;}.cls-14{fill:#808a95;}.cls-15{fill:#d0d3da;}.cls-16{fill:#3498db;}.cls-17{fill:#f8f8f8;}.cls-18{fill:#e5e5ea;}.cls-19{fill:#2ecc71;}.cls-20{fill:#e74c3c;}.cls-21{fill:#f5f6f0;}.cls-22{opacity:0.33;}.cls-23{fill:#895d3b;}.cls-24{fill:#8bc53f;}.cls-25{fill:#b6835a;}.cls-26{fill:#be9066;}.cls-27{fill:#3f2914;}.cls-28{fill:#f2a087;}.cls-29{fill:#f1c40f;}.cls-30{fill:#e67e22;}.cls-31{fill:#2980b9;}</style></defs><title>Artboard 1 copy</title><g id="Layer_1" data-name="Layer 1"><rect class="cls-1" x="1063.48" y="362.16" width="21.52" height="125.16"/><rect class="cls-1" width="1078.85" height="1920" rx="44.6"/><rect class="cls-2" x="36.88" y="202.39" width="998.94" height="1517.89"/><rect class="cls-3" x="467.2" y="87.88" width="144.46" height="10.65" rx="2"/><path class="cls-4" d="M543.6,1751c-42.2,0-76.4,31.27-76.4,69.85s34.2,69.86,76.4,69.86,76.4-31.28,76.4-69.86S585.79,1751,543.6,1751Zm0,130.6c-34.86,0-63.12-26.52-63.12-59.23s28.26-59.22,63.12-59.22,63.11,26.51,63.11,59.22S578.46,1881.6,543.6,1881.6Z"/><ellipse class="cls-3" cx="390.35" cy="93.2" rx="15.37" ry="13.31"/><rect class="cls-5" x="37" y="258.31" width="1001.9" height="1461.97"/><ellipse class="cls-1" cx="545.57" cy="35.95" rx="10.76" ry="9.32"/><ellipse class="cls-6" cx="539.5" cy="35.95" rx="10.76" ry="9.32"/><rect class="cls-5" x="37" y="202.39" width="1001.9" height="55.92"/><rect class="cls-3" x="1023.53" y="223.69" width="3.07" height="10.65"/><rect class="cls-7" x="971.27" y="218.36" width="52.25" height="21.3"/><rect class="cls-8" x="974.35" y="221.03" width="46.1" height="15.98"/><rect class="cls-8" x="1023.53" y="226.35" width="3.07" height="5.33"/><path class="cls-2" d="M103.88,238v-5.47H94.06v-2.75l10.25-14.22h2.38v14.52H110v2.45h-3.29V238Zm0-7.92V219.92l-7.17,10.17Z"/><path class="cls-2" d="M128.76,215.71a8.16,8.16,0,0,1,4.13,6.3h-3.08a5.56,5.56,0,0,0-2.28-3.67,7.74,7.74,0,0,0-4.36-1.14,6.74,6.74,0,0,0-5.25,2.39q-2.15,2.39-2.14,7.12a11.62,11.62,0,0,0,1.76,6.67q1.77,2.56,5.74,2.57a7.25,7.25,0,0,0,5.05-1.81q2-1.8,2-5.84h-7.19v-2.57h10.08V238h-2l-.75-3a11.74,11.74,0,0,1-2.76,2.41,10.14,10.14,0,0,1-5.11,1.16,9.9,9.9,0,0,1-6.91-2.64q-3.15-3.31-3.15-9.1t3.08-9.17a9.72,9.72,0,0,1,7.58-3.25A11.49,11.49,0,0,1,128.76,215.71Z"/><rect class="cls-8" x="57" y="221" width="7" height="18" rx="0.75"/><rect class="cls-8" x="47" y="226" width="7" height="13" rx="0.75"/><rect class="cls-8" x="66" y="217" width="7" height="22" rx="0.75"/><rect class="cls-8" x="76" y="214" width="7" height="25" rx="0.75"/><path class="cls-2" d="M915,226.37V225a7.45,7.45,0,0,0,2.79-.65,3.18,3.18,0,0,0,1.18-2.16h1.45v14.63h-2v-10.4Z"/><path class="cls-2" d="M934.48,224.43a10.46,10.46,0,0,1,1,5,11.92,11.92,0,0,1-.9,5,4.37,4.37,0,0,1-4.22,2.81,4.24,4.24,0,0,1-3.94-2.3,10.63,10.63,0,0,1-1.07-5.15,12.77,12.77,0,0,1,.64-4.3c.81-2.22,2.27-3.34,4.38-3.34A4.33,4.33,0,0,1,934.48,224.43Zm-1.86,9.78c.57-.85.86-2.42.86-4.73a11.68,11.68,0,0,0-.62-4.12,2.34,2.34,0,0,0-2.39-1.62,2.49,2.49,0,0,0-2.39,1.54,10.59,10.59,0,0,0-.75,4.51,11.13,11.13,0,0,0,.48,3.61,2.62,2.62,0,0,0,4.81.81Z"/><path class="cls-2" d="M946.16,224.43a10.46,10.46,0,0,1,1,5,11.92,11.92,0,0,1-.9,5,4.37,4.37,0,0,1-4.22,2.81,4.24,4.24,0,0,1-3.94-2.3,10.63,10.63,0,0,1-1.07-5.15,12.77,12.77,0,0,1,.64-4.3c.81-2.22,2.27-3.34,4.38-3.34A4.33,4.33,0,0,1,946.16,224.43Zm-1.86,9.78c.57-.85.86-2.42.86-4.73a11.68,11.68,0,0,0-.62-4.12,2.34,2.34,0,0,0-2.39-1.62,2.49,2.49,0,0,0-2.39,1.54,10.57,10.57,0,0,0-.76,4.51,11.1,11.1,0,0,0,.49,3.61,2.62,2.62,0,0,0,4.81.81Z"/><path class="cls-2" d="M954.82,223.57a3.49,3.49,0,0,1,1,2.53,3.57,3.57,0,0,1-6.1,2.52,3.4,3.4,0,0,1-1-2.52,3.57,3.57,0,0,1,6.1-2.53Zm-1,4a2.1,2.1,0,0,0,0-3,2.08,2.08,0,0,0-1.51-.62,2.11,2.11,0,0,0-1.49,3.6,2,2,0,0,0,1.49.62A2,2,0,0,0,953.79,227.59Zm7.08-5.45H962l-8.21,15h-1.15Zm4,8.53a3.57,3.57,0,1,1-6.1,2.52,3.57,3.57,0,0,1,6.1-2.52Zm-1,4a2.08,2.08,0,0,0,.62-1.5,2.12,2.12,0,0,0-4.24,0,2.12,2.12,0,0,0,3.62,1.5Z"/></g><g id="Layer_2" data-name="Layer 2"><rect class="cls-2" x="37" y="263.99" width="1001.9" height="1461.97"/><rect class="cls-9" x="37" y="264" width="1002" height="151"/><polygon class="cls-10" points="114 303.39 71.92 341.26 64.91 334.95 106.99 297.07 114 303.39"/><polygon class="cls-10" points="106.99 374 64.91 336.12 71.92 329.81 114 367.69 106.99 374"/><ellipse class="cls-2" cx="551.42" cy="309.02" rx="16.19" ry="22.25"/><rect class="cls-2" x="543.86" y="284.55" width="15.11" height="2.22"/><rect class="cls-2" x="535.23" y="291.22" width="2.16" height="13.35"/><rect class="cls-2" x="537.39" y="291.22" width="4.32" height="6.67"/><rect class="cls-2" x="539.55" y="288.99" width="8.64" height="4.45"/><rect class="cls-2" x="541.7" y="286.77" width="10.8" height="6.67"/><rect class="cls-2" x="554.66" y="286.77" width="8.64" height="8.9"/><rect class="cls-2" x="563.3" y="288.99" width="2.16" height="8.9"/><rect class="cls-2" x="565.45" y="291.22" width="2.16" height="13.35"/><rect class="cls-2" x="533.07" y="309.02" width="4.32" height="6.67"/><rect class="cls-2" x="533.07" y="295.67" width="2.16" height="11.12"/><rect class="cls-2" x="533.07" y="304.57" width="4.32" height="4.45"/><rect class="cls-2" x="565.45" y="295.67" width="4.32" height="20.02"/><ellipse class="cls-2" cx="543.86" cy="294.56" rx="10.8" ry="10.01"/><ellipse class="cls-2" cx="552.5" cy="305.68" rx="17.27" ry="21.13"/><ellipse class="cls-2" cx="558.98" cy="294.56" rx="10.8" ry="10.01"/><path class="cls-11" d="M502.71,371.18v11.16H518V371.18h2.45v25.7H518V384.43H502.71v12.45h-2.45v-25.7Z"/><path class="cls-11" d="M525.64,381.19a5.27,5.27,0,0,1,1.56-1.95,6.71,6.71,0,0,1,2.33-1.11,11.25,11.25,0,0,1,3-.36,12.77,12.77,0,0,1,2.45.23,6,6,0,0,1,2.19.88,4.81,4.81,0,0,1,1.59,1.82,6.65,6.65,0,0,1,.61,3v9.87a1.19,1.19,0,0,0,1.33,1.36,1.71,1.71,0,0,0,.72-.14v1.91l-.7.11c-.21,0-.46,0-.78,0a3.54,3.54,0,0,1-1.38-.23,1.86,1.86,0,0,1-.81-.67,2.55,2.55,0,0,1-.38-1,8.93,8.93,0,0,1-.09-1.32h-.07a14.58,14.58,0,0,1-1.24,1.6,6,6,0,0,1-1.41,1.17,5.92,5.92,0,0,1-1.76.72,10.22,10.22,0,0,1-4.79-.05,5.39,5.39,0,0,1-2-1,4.72,4.72,0,0,1-1.33-1.69,5.58,5.58,0,0,1-.49-2.43,4.81,4.81,0,0,1,.87-3.05,5.34,5.34,0,0,1,2.28-1.67,13.46,13.46,0,0,1,3.21-.81c1.18-.16,2.39-.31,3.61-.45q.72-.08,1.26-.18a2.17,2.17,0,0,0,.9-.38,1.7,1.7,0,0,0,.56-.74,3.2,3.2,0,0,0,.2-1.22,4.15,4.15,0,0,0-.38-1.89,3,3,0,0,0-1-1.17,4.07,4.07,0,0,0-1.55-.59,10.3,10.3,0,0,0-1.89-.17,5.75,5.75,0,0,0-3.53,1,4,4,0,0,0-1.44,3.29H525A7.53,7.53,0,0,1,525.64,381.19ZM537,386.73a1.33,1.33,0,0,1-.83.58,8.93,8.93,0,0,1-1.08.25q-1.44.26-3,.45a16.49,16.49,0,0,0-2.79.59,5.43,5.43,0,0,0-2.07,1.14,2.69,2.69,0,0,0-.81,2.1,3.25,3.25,0,0,0,.34,1.53,3.68,3.68,0,0,0,.92,1.15,3.93,3.93,0,0,0,1.33.74,4.84,4.84,0,0,0,1.55.25,7.9,7.9,0,0,0,2.48-.39,6.12,6.12,0,0,0,2.07-1.15,5.69,5.69,0,0,0,1.41-1.84,5.54,5.54,0,0,0,.52-2.45v-2.95Z"/><path class="cls-11" d="M546.09,378.31v3.2h.07a5.46,5.46,0,0,1,2.3-2.72,6.83,6.83,0,0,1,3.64-1,9.12,9.12,0,0,1,3.26.5,5.24,5.24,0,0,1,2.1,1.42,5.3,5.3,0,0,1,1.12,2.25,13.05,13.05,0,0,1,.32,3v11.95h-2.27V385.29a11,11,0,0,0-.21-2.21,4.83,4.83,0,0,0-.76-1.79,3.57,3.57,0,0,0-1.46-1.18,5.29,5.29,0,0,0-2.28-.44,5.86,5.86,0,0,0-2.43.49,5.22,5.22,0,0,0-1.8,1.33,6.16,6.16,0,0,0-1.15,2,8,8,0,0,0-.45,2.54v10.83h-2.27V378.31Z"/><path class="cls-11" d="M565.42,378.31v3.2h.07a5.46,5.46,0,0,1,2.3-2.72,6.83,6.83,0,0,1,3.64-1,9.08,9.08,0,0,1,3.26.5,5.17,5.17,0,0,1,2.1,1.42,5.3,5.3,0,0,1,1.12,2.25,12.52,12.52,0,0,1,.32,3v11.95H576V385.29a11,11,0,0,0-.22-2.21,4.67,4.67,0,0,0-.76-1.79,3.61,3.61,0,0,0-1.45-1.18,5.37,5.37,0,0,0-2.29-.44,5.86,5.86,0,0,0-2.43.49,5.22,5.22,0,0,0-1.8,1.33,6.16,6.16,0,0,0-1.15,2,8,8,0,0,0-.45,2.54v10.83h-2.27V378.31Z"/><path class="cls-11" d="M583,381.19a5.27,5.27,0,0,1,1.56-1.95,6.75,6.75,0,0,1,2.32-1.11,11.38,11.38,0,0,1,3-.36,12.6,12.6,0,0,1,2.44.23,6,6,0,0,1,2.2.88,4.79,4.79,0,0,1,1.58,1.82,6.51,6.51,0,0,1,.62,3v9.87A1.19,1.19,0,0,0,598,395a1.71,1.71,0,0,0,.72-.14v1.91l-.7.11q-.32,0-.78,0a3.51,3.51,0,0,1-1.38-.23A2,2,0,0,1,595,396a2.54,2.54,0,0,1-.37-1,8.93,8.93,0,0,1-.09-1.32h-.07a14.6,14.6,0,0,1-1.25,1.6,6.08,6.08,0,0,1-3.16,1.89,9.56,9.56,0,0,1-2.36.26,9.4,9.4,0,0,1-2.43-.31,5.39,5.39,0,0,1-2-1,4.61,4.61,0,0,1-1.33-1.69,5.58,5.58,0,0,1-.49-2.43,4.87,4.87,0,0,1,.86-3.05,5.44,5.44,0,0,1,2.29-1.67,13.5,13.5,0,0,1,3.2-.81c1.19-.16,2.4-.31,3.62-.45q.72-.08,1.26-.18a2.17,2.17,0,0,0,.9-.38,1.7,1.7,0,0,0,.56-.74,3.2,3.2,0,0,0,.2-1.22,4.15,4.15,0,0,0-.38-1.89,3,3,0,0,0-1-1.17,4.07,4.07,0,0,0-1.55-.59,10.3,10.3,0,0,0-1.89-.17,5.75,5.75,0,0,0-3.53,1,4,4,0,0,0-1.44,3.29H582.3A7.34,7.34,0,0,1,583,381.19Zm11.34,5.54a1.33,1.33,0,0,1-.83.58,8.93,8.93,0,0,1-1.08.25q-1.44.26-3,.45a16.49,16.49,0,0,0-2.79.59,5.43,5.43,0,0,0-2.07,1.14,2.69,2.69,0,0,0-.81,2.1,3.25,3.25,0,0,0,.34,1.53,3.55,3.55,0,0,0,.92,1.15,3.93,3.93,0,0,0,1.33.74,4.79,4.79,0,0,0,1.55.25,7.9,7.9,0,0,0,2.48-.39,6.32,6.32,0,0,0,2.07-1.15,5.47,5.47,0,0,0,1.93-4.29v-2.95Z"/><path class="cls-12" d="M956.7,1521H417.17c-24.3,0-44.18,17.65-44.18,39.23v1.67c0,21.58,19.88,39.24,44.18,39.24H956.7c24.3,0,44.18-17.66,44.18-39.24v-1.67C1000.88,1538.65,981,1521,956.7,1521Zm38.54,41.74c0,19.28-17.76,35.06-39.48,35.06H416.23c-21.72,0-39.48-15.78-39.48-35.06v-3.34c0-19.28,17.76-35.06,39.48-35.06H955.76c21.72,0,39.48,15.78,39.48,35.06Z"/><ellipse class="cls-13" cx="952.82" cy="1562.23" rx="34.78" ry="30.89"/><ellipse class="cls-14" cx="274.29" cy="1560.22" rx="42.3" ry="34.22"/><path class="cls-2" d="M294.07,1582.08h0a2.86,2.86,0,0,1-3.85-1l-22-37.52a2.75,2.75,0,0,1,1-3.79h0a2.84,2.84,0,0,1,3.85,1l22,37.52A2.76,2.76,0,0,1,294.07,1582.08Z"/><path class="cls-2" d="M254.2,1582.08h0a2.76,2.76,0,0,1-1-3.79l22.91-39a2.86,2.86,0,0,1,3.85-1h0a2.76,2.76,0,0,1,1,3.79l-22.91,39.06A2.85,2.85,0,0,1,254.2,1582.08Z"/><rect class="cls-2" x="269.93" y="1543.67" width="5.55" height="51.46" rx="1.5" transform="translate(-1296.7 1842.11) rotate(-90)"/><rect class="cls-2" x="533" y="312" width="37" height="10" rx="3"/><rect class="cls-2" x="946.44" y="1534.73" width="15.02" height="31.7" rx="5.39"/><rect class="cls-2" x="944.08" y="1579.21" width="19.74" height="5.06"/><rect class="cls-2" x="951.17" y="1569.08" width="5.15" height="12.33"/><rect class="cls-2" x="939.15" y="1554.33" width="4.94" height="7.49"/><rect class="cls-2" x="963.18" y="1553.89" width="4.72" height="8.59"/><path class="cls-2" d="M947.3,1567.54l-.75-.91c.13-.05-.34-.41-1-.86l-.68-1.28-.83-2v-.66h-4.93l.21,2,.43,1.76,1.07,2,1.29,2,2.58,2.2,2.36,1.54,2.57.66h1.51v-4.84"/><polyline class="cls-2" points="961.78 1565.67 960.9 1566.44 960.07 1567.43 958.82 1568.13 956.85 1568.98 956.21 1568.98 956.22 1574.05 958.15 1573.82 959.87 1573.38 961.8 1572.27 963.73 1570.94 965.87 1568.3 967.36 1565.87 968 1563.23 968 1561.69 963.28 1561.7"/><rect class="cls-15" x="35" y="1614" width="1004" height="112"/><ellipse class="cls-16" cx="979.5" cy="332.28" rx="33.5" ry="33.28"/><ellipse class="cls-17" cx="979.5" cy="332.28" rx="30.82" ry="30.62"/><rect class="cls-16" x="973.48" y="325.18" width="10.72" height="31.95" rx="1.5"/><ellipse class="cls-16" cx="978.84" cy="312.76" rx="5.36" ry="5.33"/><rect class="cls-12" x="87" y="1539.36" width="90" height="16.85" rx="4.5"/><rect class="cls-12" x="87" y="1574.93" width="90" height="16.85" rx="4.5"/><rect class="cls-12" x="89.04" y="1546.85" width="87.96" height="37.44"/><path class="cls-2" d="M132,1546.85c-12.43,0-22.5,9.22-22.5,20.59S119.57,1588,132,1588s22.5-9.22,22.5-20.6S144.43,1546.85,132,1546.85Zm0,35.57c-9,0-16.36-6.71-16.36-15s7.32-15,16.36-15,16.36,6.7,16.36,15S141,1582.42,132,1582.42Z"/><rect class="cls-12" x="111.54" y="1530" width="42.96" height="13.1" rx="3.5"/><rect class="cls-12" x="95.18" y="1533.74" width="8.18" height="3.74"/><rect class="cls-18" x="76.32" y="504" width="528.68" height="209" rx="12"/><polygon class="cls-18" points="65 713 77.2 685.86 89.39 713 65 713"/><ellipse class="cls-19" cx="342.22" cy="1667.5" rx="70.22" ry="46.5"/><ellipse class="cls-2" cx="342.22" cy="1666.58" rx="34.42" ry="29.81"/><rect class="cls-19" x="340.84" y="1646.31" width="5.51" height="23.85"/><rect class="cls-19" x="324.32" y="1665.39" width="22.03" height="4.77"/><ellipse class="cls-11" cx="535.12" cy="1670" rx="71.6" ry="46"/><ellipse class="cls-20" cx="520.22" cy="1661.32" rx="20.65" ry="19.42"/><ellipse class="cls-20" cx="551.89" cy="1662.62" rx="19.28" ry="20.72"/><polygon class="cls-20" points="503.69 1672.97 568.41 1672.97 536.05 1699.85 503.69 1672.97"/><path class="cls-21" d="M552.17,1681.44l-17.86-16.79a6,6,0,0,1,0-8.84h0a7,7,0,0,1,9.4,0l17.86,16.79a6,6,0,0,1,0,8.84h0A7,7,0,0,1,552.17,1681.44Z"/><path class="cls-21" d="M538.4,1691.8l-15.24-14.33a6,6,0,0,1,0-8.84h0a7,7,0,0,1,9.4,0L547.8,1683a6,6,0,0,1,0,8.84h0A7,7,0,0,1,538.4,1691.8Z"/><ellipse class="cls-20" cx="731.88" cy="1666.21" rx="68.84" ry="44.21"/><path class="cls-2" d="M727.38,1634.49c-16.73,0-30.3,11.77-30.3,26.29s13.57,26.28,30.3,26.28,30.29-11.77,30.29-26.28S744.1,1634.49,727.38,1634.49Zm0,47.79c-13.69,0-24.79-9.63-24.79-21.5s11.1-21.51,24.79-21.51,24.78,9.63,24.78,21.51S741.06,1682.28,727.38,1682.28Z"/><path class="cls-2" d="M761.81,1694.88l-16.51-12.66a3.26,3.26,0,0,1-.36-5h0a4.6,4.6,0,0,1,5.83-.32l16.51,12.66a3.26,3.26,0,0,1,.36,5h0A4.6,4.6,0,0,1,761.81,1694.88Z"/><ellipse class="cls-22" cx="925.5" cy="1670" rx="69.5" ry="45"/><ellipse class="cls-2" cx="925.41" cy="1670" rx="65.91" ry="42.41"/><rect class="cls-11" x="910.2" y="1656.61" width="5.07" height="26.79"/><polygon class="cls-11" points="951.14 1650.63 910.75 1661.2 907.36 1651.17 947.76 1640.6 951.14 1650.63"/><rect class="cls-11" x="943.15" y="1649.91" width="7.6" height="31.25"/><ellipse class="cls-11" cx="907.66" cy="1686.74" rx="10.14" ry="5.58"/><ellipse class="cls-11" cx="944.42" cy="1684.51" rx="8.87" ry="5.58"/><path class="cls-12" d="M410.52,1545.57v3.64h-2.26v-3.64Zm0,7.13v18.57h-2.26V1552.7Z"/><path class="cls-12" d="M418.84,1545.57l8.53,22.54,8.86-22.54h3.6v25.7h-2.45v-22.21h-.07l-8.79,22.21h-2.3l-8.46-22.21h-.07v22.21h-2.45v-25.7Z"/><path class="cls-12" d="M446.11,1565.14a6.86,6.86,0,0,0,1.1,2.35,6.11,6.11,0,0,0,1.91,1.73,5.27,5.27,0,0,0,2.77.69,5.56,5.56,0,0,0,3.89-1.3,6.85,6.85,0,0,0,1.94-3.46H460a9,9,0,0,1-2.65,4.9,7.89,7.89,0,0,1-5.45,1.73,8.59,8.59,0,0,1-3.8-.78,6.89,6.89,0,0,1-2.61-2.12,9.17,9.17,0,0,1-1.49-3.13,14,14,0,0,1-.49-3.76,13.19,13.19,0,0,1,.49-3.6,9.54,9.54,0,0,1,1.49-3.15,7.49,7.49,0,0,1,2.61-2.24,8.07,8.07,0,0,1,3.8-.84,7.36,7.36,0,0,1,6.39,3.26,9.75,9.75,0,0,1,1.42,3.34,14.55,14.55,0,0,1,.36,3.84H445.77A10,10,0,0,0,446.11,1565.14Zm11.23-6.93a6.48,6.48,0,0,0-1.17-2.11,5.88,5.88,0,0,0-1.83-1.48,5.29,5.29,0,0,0-2.45-.55,5.37,5.37,0,0,0-2.49.55,5.88,5.88,0,0,0-1.83,1.48,7.23,7.23,0,0,0-1.21,2.12,10.22,10.22,0,0,0-.59,2.47h12A7.94,7.94,0,0,0,457.34,1558.21Z"/><path class="cls-12" d="M473.81,1556.32a3.59,3.59,0,0,0-1.06-1.28,4.36,4.36,0,0,0-1.53-.74,6.87,6.87,0,0,0-1.84-.23,7.37,7.37,0,0,0-1.53.16,4.59,4.59,0,0,0-1.42.54,3,3,0,0,0-1,1,2.68,2.68,0,0,0-.4,1.51,2.15,2.15,0,0,0,.38,1.28,3.34,3.34,0,0,0,.95.88,6.05,6.05,0,0,0,1.26.59,13.11,13.11,0,0,0,1.26.38l3,.68a8.85,8.85,0,0,1,1.92.53,6.22,6.22,0,0,1,1.7,1,4.83,4.83,0,0,1,1.2,1.51,4.57,4.57,0,0,1,.47,2.12,4.72,4.72,0,0,1-.68,2.58,5.66,5.66,0,0,1-1.75,1.73,7.52,7.52,0,0,1-2.39,1,12.61,12.61,0,0,1-2.63.29,8.52,8.52,0,0,1-5.31-1.55,6.57,6.57,0,0,1-2.32-5h2.26a4.5,4.5,0,0,0,1.68,3.48,6.06,6.06,0,0,0,3.8,1.17,8.58,8.58,0,0,0,1.71-.18,5.45,5.45,0,0,0,1.63-.62,3.88,3.88,0,0,0,1.25-1.09,2.74,2.74,0,0,0,.48-1.64,2.6,2.6,0,0,0-.34-1.39,2.92,2.92,0,0,0-.92-.93,5.13,5.13,0,0,0-1.31-.63,15.2,15.2,0,0,0-1.5-.44l-2.91-.64a17.63,17.63,0,0,1-2.05-.67,6.22,6.22,0,0,1-1.64-.94,3.83,3.83,0,0,1-1.1-1.36,4.63,4.63,0,0,1-.4-2,4.44,4.44,0,0,1,.63-2.41,4.8,4.8,0,0,1,1.64-1.62,7.47,7.47,0,0,1,2.25-.9,10.48,10.48,0,0,1,2.47-.29,9.15,9.15,0,0,1,2.61.36,6.05,6.05,0,0,1,2.12,1.11,5.54,5.54,0,0,1,1.46,1.88,6.69,6.69,0,0,1,.61,2.62h-2.27A4.09,4.09,0,0,0,473.81,1556.32Z"/><path class="cls-12" d="M491.13,1556.32a3.7,3.7,0,0,0-1.06-1.28,4.53,4.53,0,0,0-1.53-.74,6.87,6.87,0,0,0-1.84-.23,7.37,7.37,0,0,0-1.53.16,4.5,4.5,0,0,0-1.42.54,3.11,3.11,0,0,0-1.05,1,2.76,2.76,0,0,0-.39,1.51,2.09,2.09,0,0,0,.38,1.28,3.21,3.21,0,0,0,.95.88,5.61,5.61,0,0,0,1.26.59,13.11,13.11,0,0,0,1.26.38l3,.68a9.09,9.09,0,0,1,1.93.53,6,6,0,0,1,1.69,1,4.86,4.86,0,0,1,1.21,1.51,4.57,4.57,0,0,1,.47,2.12,4.64,4.64,0,0,1-.69,2.58,5.66,5.66,0,0,1-1.75,1.73,7.34,7.34,0,0,1-2.39,1,12.54,12.54,0,0,1-2.63.29,8.56,8.56,0,0,1-5.31-1.55,6.6,6.6,0,0,1-2.32-5h2.27a4.46,4.46,0,0,0,1.67,3.48,6.08,6.08,0,0,0,3.8,1.17,8.58,8.58,0,0,0,1.71-.18,5.4,5.4,0,0,0,1.64-.62,3.85,3.85,0,0,0,1.24-1.09,2.75,2.75,0,0,0,.49-1.64,2.7,2.7,0,0,0-.34-1.39,3,3,0,0,0-.92-.93,5.37,5.37,0,0,0-1.32-.63c-.49-.17-1-.32-1.49-.44l-2.92-.64a18.28,18.28,0,0,1-2.05-.67,6.39,6.39,0,0,1-1.64-.94,3.91,3.91,0,0,1-1.09-1.36,4.49,4.49,0,0,1-.4-2,4.44,4.44,0,0,1,.63-2.41,4.71,4.71,0,0,1,1.64-1.62,7.47,7.47,0,0,1,2.25-.9,10.45,10.45,0,0,1,2.46-.29,9,9,0,0,1,2.61.36,6,6,0,0,1,2.13,1.11,5.54,5.54,0,0,1,1.46,1.88,6.69,6.69,0,0,1,.61,2.62h-2.27A4.24,4.24,0,0,0,491.13,1556.32Z"/><path class="cls-12" d="M498.22,1555.58a5.28,5.28,0,0,1,1.57-1.95,6.58,6.58,0,0,1,2.32-1.11,11.25,11.25,0,0,1,2.95-.36,13.63,13.63,0,0,1,2.45.23,6,6,0,0,1,2.19.88,4.89,4.89,0,0,1,1.59,1.82,6.68,6.68,0,0,1,.61,3V1568a1.19,1.19,0,0,0,1.33,1.37,1.69,1.69,0,0,0,.72-.15v1.91l-.7.11c-.21,0-.46,0-.78,0a3.37,3.37,0,0,1-1.38-.23,1.86,1.86,0,0,1-.81-.67,2.55,2.55,0,0,1-.38-1,8.93,8.93,0,0,1-.09-1.32h-.07a15.77,15.77,0,0,1-1.24,1.61,6.16,6.16,0,0,1-3.17,1.89,10.1,10.1,0,0,1-2.36.25,9.51,9.51,0,0,1-2.43-.31,5.47,5.47,0,0,1-2-1,4.64,4.64,0,0,1-1.33-1.69,5.72,5.72,0,0,1-.49-2.43,4.81,4.81,0,0,1,.87-3.05,5.43,5.43,0,0,1,2.28-1.67,13.46,13.46,0,0,1,3.21-.81l3.61-.45c.48-.05.91-.11,1.26-.18a2.28,2.28,0,0,0,.91-.38,1.79,1.79,0,0,0,.55-.73,3.26,3.26,0,0,0,.2-1.23,4.15,4.15,0,0,0-.38-1.89,3,3,0,0,0-1-1.17,4.07,4.07,0,0,0-1.55-.59,10.32,10.32,0,0,0-1.89-.16,5.75,5.75,0,0,0-3.53,1,4,4,0,0,0-1.44,3.3h-2.26A7.4,7.4,0,0,1,498.22,1555.58Zm11.34,5.54a1.27,1.27,0,0,1-.83.58,8.93,8.93,0,0,1-1.08.25q-1.44.25-3,.45a16.49,16.49,0,0,0-2.79.59,5.57,5.57,0,0,0-2.07,1.14,2.69,2.69,0,0,0-.81,2.1,3.25,3.25,0,0,0,.34,1.53,3.84,3.84,0,0,0,.92,1.16,3.91,3.91,0,0,0,1.33.73,4.85,4.85,0,0,0,1.55.26,7.9,7.9,0,0,0,2.48-.4,6.1,6.1,0,0,0,2.08-1.15,5.8,5.8,0,0,0,1.4-1.84,5.51,5.51,0,0,0,.52-2.45v-3Z"/><path class="cls-12" d="M531.68,1573.47a7.24,7.24,0,0,1-1.42,2.81,6.33,6.33,0,0,1-2.54,1.76,10.5,10.5,0,0,1-3.83.61,11.35,11.35,0,0,1-2.74-.32,7.66,7.66,0,0,1-2.39-1,6,6,0,0,1-1.77-1.74,5.2,5.2,0,0,1-.81-2.54h2.27a4,4,0,0,0,.7,1.74,4.27,4.27,0,0,0,1.26,1.14,5.48,5.48,0,0,0,1.64.63,8.64,8.64,0,0,0,1.84.2q3.17,0,4.57-1.8a8.33,8.33,0,0,0,1.4-5.19v-2.52h-.07a6.61,6.61,0,0,1-2.32,2.77,6.19,6.19,0,0,1-3.58,1,9,9,0,0,1-3.82-.74,7,7,0,0,1-2.61-2,8.36,8.36,0,0,1-1.49-3,13.94,13.94,0,0,1-.47-3.72,11.38,11.38,0,0,1,.56-3.62,8.9,8.9,0,0,1,1.62-3,7.47,7.47,0,0,1,2.62-2,8.23,8.23,0,0,1,3.59-.74,6.28,6.28,0,0,1,2,.29,6,6,0,0,1,1.67.81,6.75,6.75,0,0,1,1.35,1.2,5.65,5.65,0,0,1,.92,1.44h.07v-3.2h2.27v17.06A14.13,14.13,0,0,1,531.68,1573.47Zm-5.2-5a5.84,5.84,0,0,0,1.87-1.66,7.32,7.32,0,0,0,1.13-2.35,9.7,9.7,0,0,0,.38-2.74,12.27,12.27,0,0,0-.32-2.74,8,8,0,0,0-1-2.48,5.68,5.68,0,0,0-1.85-1.8,5.2,5.2,0,0,0-2.75-.68,5.53,5.53,0,0,0-2.78.66,6,6,0,0,0-1.9,1.75,7.24,7.24,0,0,0-1.1,2.46,11.72,11.72,0,0,0-.34,2.83,10.46,10.46,0,0,0,.36,2.74,7.08,7.08,0,0,0,1.11,2.35,5.77,5.77,0,0,0,1.91,1.66,5.63,5.63,0,0,0,2.74.63A5.2,5.2,0,0,0,526.48,1568.52Z"/><path class="cls-12" d="M538.12,1565.14a7.05,7.05,0,0,0,1.1,2.35,6.22,6.22,0,0,0,1.91,1.73,5.3,5.3,0,0,0,2.77.69,5.54,5.54,0,0,0,3.89-1.3,6.78,6.78,0,0,0,1.94-3.46H552a9.05,9.05,0,0,1-2.64,4.9,7.93,7.93,0,0,1-5.46,1.73,8.62,8.62,0,0,1-3.8-.78,7.05,7.05,0,0,1-2.61-2.12,9.17,9.17,0,0,1-1.49-3.13,14.4,14.4,0,0,1-.49-3.76,13.59,13.59,0,0,1,.49-3.6,9.54,9.54,0,0,1,1.49-3.15,7.67,7.67,0,0,1,2.61-2.24,8.1,8.1,0,0,1,3.8-.84,7.33,7.33,0,0,1,6.39,3.26,9.56,9.56,0,0,1,1.42,3.34,14.55,14.55,0,0,1,.36,3.84H537.78A10.52,10.52,0,0,0,538.12,1565.14Zm11.24-6.93a6.87,6.87,0,0,0-1.17-2.11,6,6,0,0,0-1.84-1.48,5.29,5.29,0,0,0-2.45-.55,5.36,5.36,0,0,0-2.48.55,6,6,0,0,0-1.84,1.48,7.44,7.44,0,0,0-1.2,2.12,10.73,10.73,0,0,0-.6,2.47h12A8.56,8.56,0,0,0,549.36,1558.21Z"/><ellipse class="cls-16" cx="159" cy="1668" rx="70" ry="48"/><path class="cls-2" d="M191.74,1695.65h0a5.23,5.23,0,0,1-6.38-1.42l-36.43-52.62c-1.28-1.86-.51-4.25,1.71-5.32h0a5.21,5.21,0,0,1,6.37,1.43l36.43,52.62C194.73,1692.19,194,1694.58,191.74,1695.65Z"/><path class="cls-2" d="M125.75,1695.65h0c-2.22-1.07-3-3.46-1.71-5.31L162,1635.57a5.22,5.22,0,0,1,6.37-1.43h0c2.23,1.07,3,3.47,1.71,5.32l-37.91,54.77A5.23,5.23,0,0,1,125.75,1695.65Z"/><rect class="cls-2" x="152.48" y="1635.29" width="7.78" height="85.16" rx="1.46" transform="translate(-1521.5 1834.25) rotate(-90)"/><path class="cls-23" d="M575.07,299.34c0-12.41-12-22.48-26.76-22.48s-26.75,10.07-26.75,22.48"/><rect class="cls-23" x="521.56" y="299.34" width="53.51" height="19.55"/><ellipse class="cls-23" cx="575.07" cy="325.7" rx="10.53" ry="10.36"/><ellipse class="cls-23" cx="521.56" cy="325.7" rx="10.53" ry="10.36"/><path class="cls-24" d="M584.14,365c0-9-4.65-16.44-10.59-17.32v-.09H524.26c-6.5,0-11.78,7.79-11.78,17.41"/><path class="cls-25" d="M555.49,352h0l-.09-17.48-14.37.07.09,17.49h.05c0,2.2,3.22,4,7.16,3.95S555.5,354.18,555.49,352Z"/><path class="cls-26" d="M522.64,299.24V315C522.64,329.9,534,342,548.09,342S573.54,329.9,573.54,315V299.24Z"/><ellipse class="cls-27" cx="537.53" cy="310.43" rx="3.15" ry="3.09"/><ellipse class="cls-27" cx="558.2" cy="310.43" rx="3.15" ry="3.09"/><path class="cls-2" d="M555.87,321.61c0,5.82-3.92,10.53-8.76,10.53s-8.76-4.71-8.76-10.53"/><ellipse class="cls-28" cx="531.99" cy="320.63" rx="3.21" ry="3.15"/><ellipse class="cls-28" cx="562.17" cy="320.63" rx="3.21" ry="3.15"/><path class="cls-25" d="M522.7,317.89c-4,0-7.25-3-7.25-6.66s3.25-6.65,7.25-6.65"/><path class="cls-25" d="M573.4,304.58c4,0,7.25,3,7.25,6.65s-3.25,6.66-7.25,6.66"/><path class="cls-11" d="M489.49,456.3v-2.08h1.7v2.08Zm1.7,1.86V468.5h-1.7V458.16Z"/><path class="cls-11" d="M506.93,468.5v-1.4h0a2.54,2.54,0,0,1-1.32,1.24,5.1,5.1,0,0,1-2,.38,4.7,4.7,0,0,1-2.09-.44A4.32,4.32,0,0,1,500,467.1a5.12,5.12,0,0,1-.89-1.72,7.12,7.12,0,0,1-.3-2.08,7,7,0,0,1,.29-2.08,4.63,4.63,0,0,1,.88-1.71,4.05,4.05,0,0,1,1.48-1.16,4.64,4.64,0,0,1,2.07-.43,4.51,4.51,0,0,1,.86.08,4.16,4.16,0,0,1,.92.27,3.83,3.83,0,0,1,.87.5,2.7,2.7,0,0,1,.69.77h0v-5.32h1.7V468.5Zm-6.11-3.67a3.67,3.67,0,0,0,.58,1.23,2.88,2.88,0,0,0,1,.86,3,3,0,0,0,1.43.32,3,3,0,0,0,1.46-.34,3.1,3.1,0,0,0,1-.89,4,4,0,0,0,.55-1.25,6.2,6.2,0,0,0,.17-1.42,5.92,5.92,0,0,0-.18-1.47,3.58,3.58,0,0,0-.57-1.25,2.94,2.94,0,0,0-1-.87,3.19,3.19,0,0,0-1.5-.33,2.87,2.87,0,0,0-1.46.34,2.59,2.59,0,0,0-1,.9,3.75,3.75,0,0,0-.52,1.28,6.58,6.58,0,0,0-.16,1.48A5.16,5.16,0,0,0,500.82,464.83Z"/><path class="cls-11" d="M520.41,468.46a2.46,2.46,0,0,1-1.22.26,1.49,1.49,0,0,1-1.05-.37,1.61,1.61,0,0,1-.39-1.21,4.12,4.12,0,0,1-1.63,1.21,5.52,5.52,0,0,1-2,.37,5.7,5.7,0,0,1-1.33-.16,3.22,3.22,0,0,1-1.09-.5,2.45,2.45,0,0,1-.73-.89,3.51,3.51,0,0,1,0-2.77,2.5,2.5,0,0,1,.79-.91,3.41,3.41,0,0,1,1.12-.53q.63-.18,1.29-.3a11.4,11.4,0,0,1,1.33-.21,9,9,0,0,0,1.11-.2,2,2,0,0,0,.76-.38,1,1,0,0,0,.28-.73,1.66,1.66,0,0,0-.21-.9,1.42,1.42,0,0,0-.54-.52,2.22,2.22,0,0,0-.74-.24,5.73,5.73,0,0,0-.81-.06,3.53,3.53,0,0,0-1.8.41,1.74,1.74,0,0,0-.78,1.55h-1.7a3.58,3.58,0,0,1,.4-1.62,3,3,0,0,1,1-1.07,3.85,3.85,0,0,1,1.37-.59,7.19,7.19,0,0,1,1.65-.18,9.29,9.29,0,0,1,1.39.1,3.48,3.48,0,0,1,1.25.41,2.39,2.39,0,0,1,.9.86,2.87,2.87,0,0,1,.34,1.46v5.31a3.8,3.8,0,0,0,.07.88c0,.18.2.28.47.28a2.28,2.28,0,0,0,.52-.08Zm-2.76-5.3a2.31,2.31,0,0,1-.84.35c-.35.07-.71.13-1.09.17l-1.15.16a4.25,4.25,0,0,0-1,.29,1.79,1.79,0,0,0-.75.57,1.55,1.55,0,0,0-.29,1,1.31,1.31,0,0,0,.17.71,1.41,1.41,0,0,0,.44.47,2,2,0,0,0,.63.26,3.69,3.69,0,0,0,.76.08,4.1,4.1,0,0,0,1.44-.23,3.1,3.1,0,0,0,1-.58,2.24,2.24,0,0,0,.56-.76,1.87,1.87,0,0,0,.18-.76Z"/><path class="cls-11" d="M529.75,471.42a4.74,4.74,0,0,1-3.64,1.26,7.43,7.43,0,0,1-1.47-.16,4.52,4.52,0,0,1-1.36-.52,3.14,3.14,0,0,1-1-.94,2.6,2.6,0,0,1-.44-1.42h1.7a1.27,1.27,0,0,0,.29.78,2.15,2.15,0,0,0,.66.52,3.28,3.28,0,0,0,.85.29,4.53,4.53,0,0,0,.88.09,3.13,3.13,0,0,0,1.41-.29,2.8,2.8,0,0,0,1-.8,3.47,3.47,0,0,0,.55-1.23,7.09,7.09,0,0,0,.17-1.58v-.68h0a2.9,2.9,0,0,1-1.33,1.41,4.18,4.18,0,0,1-1.9.45,4.51,4.51,0,0,1-2-.42,4.14,4.14,0,0,1-1.44-1.13,5,5,0,0,1-.88-1.66,7,7,0,0,1-.28-2,7.77,7.77,0,0,1,.24-1.89,5.11,5.11,0,0,1,.79-1.76,4.39,4.39,0,0,1,1.49-1.3,4.58,4.58,0,0,1,2.26-.51,3.8,3.8,0,0,1,1.8.43,3,3,0,0,1,1.28,1.29h0v-1.48h1.6v9.46A5.47,5.47,0,0,1,529.75,471.42Zm-2.17-4.65a2.88,2.88,0,0,0,.95-.92,4.38,4.38,0,0,0,.53-1.29,6.44,6.44,0,0,0,.17-1.44,6,6,0,0,0-.16-1.34,3.86,3.86,0,0,0-.51-1.19,2.57,2.57,0,0,0-2.27-1.17,2.87,2.87,0,0,0-1.4.31,2.55,2.55,0,0,0-.95.83,3.29,3.29,0,0,0-.54,1.2,5.47,5.47,0,0,0-.17,1.42,6.72,6.72,0,0,0,.14,1.4,3.89,3.89,0,0,0,.48,1.27,2.51,2.51,0,0,0,2.3,1.27A2.81,2.81,0,0,0,527.58,466.77Z"/><path class="cls-11" d="M545.79,455.05a4.56,4.56,0,0,1,1.49,1.71,7.59,7.59,0,0,1,.72,2.32,17.87,17.87,0,0,1,.19,2.5,18.27,18.27,0,0,1-.19,2.52,7.77,7.77,0,0,1-.72,2.32,4.61,4.61,0,0,1-1.49,1.7,5,5,0,0,1-5,0,4.52,4.52,0,0,1-1.49-1.7,7.23,7.23,0,0,1-.72-2.32,16.67,16.67,0,0,1,0-5,7.08,7.08,0,0,1,.72-2.32,4.48,4.48,0,0,1,1.49-1.71,4.92,4.92,0,0,1,5,0Zm-4.4,1a3.92,3.92,0,0,0-1.1,1.54,7.81,7.81,0,0,0-.48,2,16.48,16.48,0,0,0,0,4,8,8,0,0,0,.48,2,4,4,0,0,0,1.1,1.55,3.28,3.28,0,0,0,3.84,0,4,4,0,0,0,1.09-1.55,7.6,7.6,0,0,0,.48-2,15.22,15.22,0,0,0,0-4,7.42,7.42,0,0,0-.48-2,3.9,3.9,0,0,0-1.09-1.54,3.28,3.28,0,0,0-3.84,0Z"/><path class="cls-11" d="M558.07,459.83a3.15,3.15,0,0,1-1.69,1.13v0a3.41,3.41,0,0,1,2.12,1.21,3.66,3.66,0,0,1,.75,2.37,4.3,4.3,0,0,1-.38,1.85,3.83,3.83,0,0,1-1,1.31,4.86,4.86,0,0,1-1.54.78,6.78,6.78,0,0,1-3.72,0,4.66,4.66,0,0,1-1.54-.78,3.6,3.6,0,0,1-1-1.31,4.16,4.16,0,0,1-.38-1.85,4,4,0,0,1,.77-2.36,3.2,3.2,0,0,1,2.07-1.22v0a3.31,3.31,0,0,1-1.7-1.13,3.2,3.2,0,0,1-.58-1.95,3.1,3.1,0,0,1,.37-1.56,3.26,3.26,0,0,1,1-1.09,4.31,4.31,0,0,1,1.37-.64,5.67,5.67,0,0,1,1.54-.21,5.83,5.83,0,0,1,1.54.21,4.41,4.41,0,0,1,1.37.64,3.18,3.18,0,0,1,1,1.09,3.11,3.11,0,0,1,.38,1.56A3.25,3.25,0,0,1,558.07,459.83Zm-2.25,7.72A3.36,3.36,0,0,0,557,467a2.79,2.79,0,0,0,.76-1,3.39,3.39,0,0,0,.28-1.4,2.93,2.93,0,0,0-.29-1.33,3.05,3.05,0,0,0-.78-1,3.24,3.24,0,0,0-1.14-.58,4.13,4.13,0,0,0-1.36-.17,4.38,4.38,0,0,0-1.36.16,3.14,3.14,0,0,0-1.14.57,2.93,2.93,0,0,0-.76,1,2.85,2.85,0,0,0-.29,1.34,3.18,3.18,0,0,0,.28,1.38,2.58,2.58,0,0,0,.76,1,3.37,3.37,0,0,0,1.13.59,4.75,4.75,0,0,0,1.38.2A5.26,5.26,0,0,0,555.82,467.55Zm-.28-7.2a2.78,2.78,0,0,0,1-.47,2.54,2.54,0,0,0,.66-.82,2.73,2.73,0,0,0,.25-1.18,2.24,2.24,0,0,0-.24-1.06,2,2,0,0,0-.63-.76,2.79,2.79,0,0,0-.93-.46,4.08,4.08,0,0,0-1.19-.16,3.77,3.77,0,0,0-1.11.16,3,3,0,0,0-1,.46,2.14,2.14,0,0,0-.93,1.82,2.53,2.53,0,0,0,.27,1.2,2.36,2.36,0,0,0,.68.82,2.76,2.76,0,0,0,1,.46,4,4,0,0,0,1.09.12A3.74,3.74,0,0,0,555.54,460.35Z"/><path class="cls-11" d="M561.93,466.38h1.68v2.12h-1.68Z"/><path class="cls-11" d="M573.59,455.05a4.56,4.56,0,0,1,1.49,1.71,7.32,7.32,0,0,1,.71,2.32,16.51,16.51,0,0,1,.2,2.5,16.87,16.87,0,0,1-.2,2.52,7.48,7.48,0,0,1-.71,2.32,4.61,4.61,0,0,1-1.49,1.7,5,5,0,0,1-5,0,4.7,4.7,0,0,1-1.49-1.7,7.48,7.48,0,0,1-.71-2.32,15.85,15.85,0,0,1,0-5,7.32,7.32,0,0,1,.71-2.32,4.65,4.65,0,0,1,1.49-1.71,4.94,4.94,0,0,1,5,0Zm-4.41,1a4,4,0,0,0-1.09,1.54,7.81,7.81,0,0,0-.49,2c-.07.72-.11,1.38-.11,2s0,1.27.11,2a8,8,0,0,0,.49,2,4.11,4.11,0,0,0,1.09,1.55,3.3,3.3,0,0,0,3.85,0,4.11,4.11,0,0,0,1.09-1.55,7.6,7.6,0,0,0,.48-2,16.48,16.48,0,0,0,0-4,7.42,7.42,0,0,0-.48-2,4,4,0,0,0-1.09-1.54,3.3,3.3,0,0,0-3.85,0Z"/><path class="cls-11" d="M584.71,455.05a4.56,4.56,0,0,1,1.49,1.71,7.59,7.59,0,0,1,.72,2.32,17.87,17.87,0,0,1,.19,2.5,18.27,18.27,0,0,1-.19,2.52,7.77,7.77,0,0,1-.72,2.32,4.61,4.61,0,0,1-1.49,1.7,5,5,0,0,1-5,0,4.63,4.63,0,0,1-1.5-1.7,7.48,7.48,0,0,1-.71-2.32,15.85,15.85,0,0,1,0-5,7.32,7.32,0,0,1,.71-2.32,4.59,4.59,0,0,1,1.5-1.71,4.92,4.92,0,0,1,5,0Zm-4.41,1a4,4,0,0,0-1.09,1.54,7.81,7.81,0,0,0-.49,2c-.07.72-.11,1.38-.11,2s0,1.27.11,2a8,8,0,0,0,.49,2,4.11,4.11,0,0,0,1.09,1.55,3.3,3.3,0,0,0,3.85,0,4.11,4.11,0,0,0,1.09-1.55,7.6,7.6,0,0,0,.48-2,16.48,16.48,0,0,0,0-4,7.42,7.42,0,0,0-.48-2,4,4,0,0,0-1.09-1.54,3.3,3.3,0,0,0-3.85,0Z"/><path class="cls-11" d="M102.44,536.57l8.35,23h.07l8.28-23h2.59l-9.54,25.7h-2.84l-9.51-25.7Z"/><path class="cls-11" d="M126.09,536.57v3.64h-2.27v-3.64Zm0,7.13v18.57h-2.27V543.7Z"/><path class="cls-11" d="M132.75,536.57v25.7h-2.27v-25.7Z"/><path class="cls-11" d="M161.37,562.27v-3.52h-.07a5.26,5.26,0,0,1-1.07,1.65,6.63,6.63,0,0,1-1.6,1.28,8.14,8.14,0,0,1-1.92.81,7.67,7.67,0,0,1-2,.29A8.22,8.22,0,0,1,151,562a7.39,7.39,0,0,1-2.61-2.12,9.27,9.27,0,0,1-1.55-3.13,14.43,14.43,0,0,1,0-7.53,9.36,9.36,0,0,1,1.55-3.13A7.66,7.66,0,0,1,151,544a8.81,8.81,0,0,1,5.73-.54,7.17,7.17,0,0,1,1.85.77,6.51,6.51,0,0,1,1.53,1.28,5.46,5.46,0,0,1,1,1.77h.07V536.57h2.27v25.7Zm-12.44-6.42a8.05,8.05,0,0,0,1.08,2.54,5.84,5.84,0,0,0,1.89,1.81,5.21,5.21,0,0,0,2.77.71,6,6,0,0,0,3-.71,6,6,0,0,0,2-1.81,7.49,7.49,0,0,0,1.12-2.54,12.24,12.24,0,0,0,0-5.73,7.57,7.57,0,0,0-1.12-2.54,5.84,5.84,0,0,0-5.06-2.51,5.21,5.21,0,0,0-2.77.7,6,6,0,0,0-1.89,1.81,8.15,8.15,0,0,0-1.08,2.54,12.24,12.24,0,0,0,0,5.73Z"/><path class="cls-11" d="M180.74,562.27v-3.34h-.08a6.47,6.47,0,0,1-2.61,2.86,7.42,7.42,0,0,1-3.79,1,8.15,8.15,0,0,1-3-.49,5,5,0,0,1-2-1.38,5.74,5.74,0,0,1-1.13-2.2,11,11,0,0,1-.36-3V543.7H170v12.09a6.07,6.07,0,0,0,1.17,3.82c.73.86,2,1.3,3.8,1.3a4.81,4.81,0,0,0,2.52-.63,5.3,5.3,0,0,0,1.72-1.68,7.24,7.24,0,0,0,1-2.39,11.58,11.58,0,0,0,.33-2.76V543.7h2.26v18.57Z"/><path class="cls-11" d="M207.81,547.32a3.7,3.7,0,0,0-1.06-1.28,4.53,4.53,0,0,0-1.53-.74,6.87,6.87,0,0,0-1.84-.23,7.37,7.37,0,0,0-1.53.16,4.5,4.5,0,0,0-1.42.54,3.11,3.11,0,0,0-1.05,1,2.76,2.76,0,0,0-.39,1.51,2.09,2.09,0,0,0,.38,1.28,3.34,3.34,0,0,0,.95.88,5.61,5.61,0,0,0,1.26.59,13.11,13.11,0,0,0,1.26.38l3,.68a9.09,9.09,0,0,1,1.93.53,6,6,0,0,1,1.69,1,4.86,4.86,0,0,1,1.21,1.51,4.57,4.57,0,0,1,.47,2.12,4.64,4.64,0,0,1-.69,2.58,5.63,5.63,0,0,1-1.74,1.73,7.49,7.49,0,0,1-2.4,1,12.54,12.54,0,0,1-2.63.29,8.56,8.56,0,0,1-5.31-1.55,6.6,6.6,0,0,1-2.32-5h2.27a4.49,4.49,0,0,0,1.67,3.48,6.08,6.08,0,0,0,3.8,1.17,8.58,8.58,0,0,0,1.71-.18,5.4,5.4,0,0,0,1.64-.62A3.85,3.85,0,0,0,208.4,559a3,3,0,0,0,.15-3,3,3,0,0,0-.92-.93,5.2,5.2,0,0,0-1.32-.63c-.49-.17-1-.32-1.49-.44l-2.92-.64a19,19,0,0,1-2.05-.67,6.39,6.39,0,0,1-1.64-.94,3.91,3.91,0,0,1-1.09-1.36,4.49,4.49,0,0,1-.4-2,4.44,4.44,0,0,1,.63-2.41,4.8,4.8,0,0,1,1.64-1.62,7.47,7.47,0,0,1,2.25-.9,10.45,10.45,0,0,1,2.46-.29,9,9,0,0,1,2.61.36,6,6,0,0,1,2.13,1.11,5.54,5.54,0,0,1,1.46,1.88,6.69,6.69,0,0,1,.61,2.62h-2.27A4.24,4.24,0,0,0,207.81,547.32Z"/><path class="cls-11" d="M216.11,556.14a6.84,6.84,0,0,0,1.09,2.35,6.22,6.22,0,0,0,1.91,1.73,5.3,5.3,0,0,0,2.77.69,5.52,5.52,0,0,0,3.89-1.3,6.79,6.79,0,0,0,1.95-3.46H230a9.05,9.05,0,0,1-2.64,4.9,7.91,7.91,0,0,1-5.46,1.73,8.54,8.54,0,0,1-3.79-.78,6.89,6.89,0,0,1-2.61-2.12,9.18,9.18,0,0,1-1.5-3.13,14.4,14.4,0,0,1-.48-3.76,13.58,13.58,0,0,1,.48-3.6,9.56,9.56,0,0,1,1.5-3.15,7.49,7.49,0,0,1,2.61-2.24,8,8,0,0,1,3.79-.84,7.33,7.33,0,0,1,6.39,3.26,9.77,9.77,0,0,1,1.43,3.34,15.44,15.44,0,0,1,.36,3.84h-14.3A10.07,10.07,0,0,0,216.11,556.14Zm11.23-6.93a6.87,6.87,0,0,0-1.17-2.11,6,6,0,0,0-1.84-1.48,5.29,5.29,0,0,0-2.45-.55,5.36,5.36,0,0,0-2.48.55,6,6,0,0,0-1.84,1.48,7.44,7.44,0,0,0-1.2,2.12,10.73,10.73,0,0,0-.6,2.47h12A8.56,8.56,0,0,0,227.34,549.21Z"/><path class="cls-11" d="M244.8,556.14a6.84,6.84,0,0,0,1.09,2.35,6.22,6.22,0,0,0,1.91,1.73,5.33,5.33,0,0,0,2.78.69,5.51,5.51,0,0,0,3.88-1.3,6.79,6.79,0,0,0,2-3.46h2.26a9.05,9.05,0,0,1-2.64,4.9,7.89,7.89,0,0,1-5.45,1.73,8.56,8.56,0,0,1-3.8-.78,6.89,6.89,0,0,1-2.61-2.12,9.37,9.37,0,0,1-1.5-3.13,14.4,14.4,0,0,1-.48-3.76,13.58,13.58,0,0,1,.48-3.6,9.76,9.76,0,0,1,1.5-3.15,7.49,7.49,0,0,1,2.61-2.24,8,8,0,0,1,3.8-.84,7.62,7.62,0,0,1,3.81.9,7.48,7.48,0,0,1,2.57,2.36,9.77,9.77,0,0,1,1.43,3.34,15.44,15.44,0,0,1,.36,3.84H244.46A10,10,0,0,0,244.8,556.14ZM256,549.21a6.87,6.87,0,0,0-1.17-2.11,6,6,0,0,0-1.84-1.48,5.25,5.25,0,0,0-2.44-.55,5.37,5.37,0,0,0-2.49.55,6,6,0,0,0-1.84,1.48,7.44,7.44,0,0,0-1.2,2.12,10.22,10.22,0,0,0-.59,2.47h12A8.24,8.24,0,0,0,256,549.21Z"/><path class="cls-11" d="M264,543.7v3.2h.07a5.46,5.46,0,0,1,2.3-2.72,6.83,6.83,0,0,1,3.64-1,9.31,9.31,0,0,1,3.26.5,5.17,5.17,0,0,1,2.1,1.42,5.42,5.42,0,0,1,1.12,2.25,12.52,12.52,0,0,1,.32,3v11.95h-2.26V550.68a11,11,0,0,0-.22-2.21,4.56,4.56,0,0,0-.76-1.78,3.63,3.63,0,0,0-1.45-1.19,5.38,5.38,0,0,0-2.29-.43,5.86,5.86,0,0,0-2.43.48,5.35,5.35,0,0,0-1.8,1.33,6.16,6.16,0,0,0-1.15,2,8,8,0,0,0-.45,2.54v10.83h-2.27V543.7Z"/><path class="cls-11" d="M291.58,543.7,297.41,560h.07l5.76-16.31h2.34l-6.95,18.57h-2.41l-7.16-18.57Z"/><path class="cls-11" d="M310.12,536.57v3.64h-2.27v-3.64Zm0,7.13v18.57h-2.27V543.7Z"/><path class="cls-11" d="M328.73,562.27v-3.52h-.07a5.4,5.4,0,0,1-1.06,1.65,6.88,6.88,0,0,1-1.61,1.28,8.14,8.14,0,0,1-1.92.81,7.61,7.61,0,0,1-2,.29,8.22,8.22,0,0,1-3.69-.78,7.39,7.39,0,0,1-2.61-2.12,9.07,9.07,0,0,1-1.54-3.13,14.15,14.15,0,0,1,0-7.53,9.16,9.16,0,0,1,1.54-3.13,7.66,7.66,0,0,1,2.61-2.14,8.81,8.81,0,0,1,5.73-.54,7,7,0,0,1,1.85.77,6.51,6.51,0,0,1,1.53,1.28,5.28,5.28,0,0,1,1,1.77h.07V536.57h2.27v25.7Zm-12.44-6.42a8.05,8.05,0,0,0,1.08,2.54,5.84,5.84,0,0,0,1.89,1.81,5.21,5.21,0,0,0,2.77.71,6.12,6.12,0,0,0,3.05-.71,6,6,0,0,0,2-1.81,7.49,7.49,0,0,0,1.12-2.54,12.24,12.24,0,0,0,0-5.73,7.57,7.57,0,0,0-1.12-2.54,6.05,6.05,0,0,0-2-1.81,6.11,6.11,0,0,0-3.05-.7,5.21,5.21,0,0,0-2.77.7,6,6,0,0,0-1.89,1.81,8.15,8.15,0,0,0-1.08,2.54,12.24,12.24,0,0,0,0,5.73Z"/><path class="cls-11" d="M336.81,556.14a7.05,7.05,0,0,0,1.1,2.35,6.11,6.11,0,0,0,1.91,1.73,5.27,5.27,0,0,0,2.77.69,5.54,5.54,0,0,0,3.89-1.3,6.85,6.85,0,0,0,1.94-3.46h2.27a9,9,0,0,1-2.65,4.9,7.89,7.89,0,0,1-5.45,1.73,8.59,8.59,0,0,1-3.8-.78,6.89,6.89,0,0,1-2.61-2.12,9.17,9.17,0,0,1-1.49-3.13,14,14,0,0,1-.49-3.76,13.19,13.19,0,0,1,.49-3.6,9.54,9.54,0,0,1,1.49-3.15,7.49,7.49,0,0,1,2.61-2.24,8.07,8.07,0,0,1,3.8-.84,7.33,7.33,0,0,1,6.39,3.26,9.75,9.75,0,0,1,1.42,3.34,14.55,14.55,0,0,1,.36,3.84H336.47A10,10,0,0,0,336.81,556.14ZM348,549.21a6.48,6.48,0,0,0-1.17-2.11,5.88,5.88,0,0,0-1.83-1.48,5.8,5.8,0,0,0-4.93,0,5.92,5.92,0,0,0-1.84,1.48,7.46,7.46,0,0,0-1.21,2.12,10.71,10.71,0,0,0-.59,2.47h12A7.94,7.94,0,0,0,348,549.21Z"/><path class="cls-11" d="M365.43,544a8.42,8.42,0,0,1,2.76,2.12,9.39,9.39,0,0,1,1.69,3.12,12.92,12.92,0,0,1,0,7.59,9.39,9.39,0,0,1-1.69,3.12,8,8,0,0,1-2.76,2.1,9.45,9.45,0,0,1-7.52,0,7.89,7.89,0,0,1-2.76-2.1,9.22,9.22,0,0,1-1.69-3.12,12.71,12.71,0,0,1,0-7.59,9.22,9.22,0,0,1,1.69-3.12,8.32,8.32,0,0,1,2.76-2.12,9.34,9.34,0,0,1,7.52,0Zm-6.6,1.8a6.32,6.32,0,0,0-2,1.8,8,8,0,0,0-1.22,2.54,10.19,10.19,0,0,0,0,5.79,8,8,0,0,0,1.22,2.54,6.09,6.09,0,0,0,2,1.8,6.19,6.19,0,0,0,5.68,0,6.09,6.09,0,0,0,2-1.8,8,8,0,0,0,1.22-2.54,10.19,10.19,0,0,0,0-5.79,8,8,0,0,0-1.22-2.54,6.32,6.32,0,0,0-2-1.8,6.27,6.27,0,0,0-5.68,0Z"/><path class="cls-11" d="M384.31,546.58a5.48,5.48,0,0,1,1.57-2,6.66,6.66,0,0,1,2.32-1.11,11.3,11.3,0,0,1,2.95-.36,13.54,13.54,0,0,1,2.45.23,6,6,0,0,1,2.2.88,5,5,0,0,1,1.58,1.82,6.55,6.55,0,0,1,.61,3V559a1.2,1.2,0,0,0,1.33,1.37,1.66,1.66,0,0,0,.72-.15v1.91l-.7.11c-.2,0-.46,0-.77,0a3.38,3.38,0,0,1-1.39-.23,1.86,1.86,0,0,1-.81-.67,2.55,2.55,0,0,1-.38-1,8.93,8.93,0,0,1-.09-1.32h-.07a15.77,15.77,0,0,1-1.24,1.61,6.05,6.05,0,0,1-3.17,1.89,10,10,0,0,1-2.36.25,9.51,9.51,0,0,1-2.43-.31,5.55,5.55,0,0,1-2-1,4.74,4.74,0,0,1-1.33-1.69,5.73,5.73,0,0,1-.48-2.43,4.81,4.81,0,0,1,.86-3,5.52,5.52,0,0,1,2.29-1.67,13.25,13.25,0,0,1,3.2-.81l3.62-.45q.72-.07,1.26-.18a2.17,2.17,0,0,0,.9-.38,1.81,1.81,0,0,0,.56-.73,3.28,3.28,0,0,0,.19-1.23,4.16,4.16,0,0,0-.37-1.89,3,3,0,0,0-1.05-1.17,4,4,0,0,0-1.55-.59,10.17,10.17,0,0,0-1.89-.16,5.72,5.72,0,0,0-3.52,1,4,4,0,0,0-1.44,3.3h-2.27A7.59,7.59,0,0,1,384.31,546.58Zm11.34,5.54a1.27,1.27,0,0,1-.83.58,8.14,8.14,0,0,1-1.08.25q-1.44.25-3,.45A16.49,16.49,0,0,0,388,554a5.44,5.44,0,0,0-2.06,1.14,2.7,2.7,0,0,0-.82,2.1,3.26,3.26,0,0,0,.35,1.53,3.66,3.66,0,0,0,.91,1.16,4,4,0,0,0,1.34.73,4.79,4.79,0,0,0,1.54.26,7.92,7.92,0,0,0,2.49-.4,6.15,6.15,0,0,0,2.07-1.15,5.66,5.66,0,0,0,1.4-1.84,5.51,5.51,0,0,0,.52-2.45v-3Z"/><path class="cls-11" d="M406,545.61v16.66h-2.27V545.61h-3.17V543.7h3.17V542a12.48,12.48,0,0,1,.18-2.2,4.25,4.25,0,0,1,.69-1.73A3.19,3.19,0,0,1,406,537a5.43,5.43,0,0,1,2.25-.4,9.18,9.18,0,0,1,.94,0l1,.1v1.95l-.86-.13a7.16,7.16,0,0,0-.8,0,2.87,2.87,0,0,0-1.44.29,1.75,1.75,0,0,0-.73.77,2.81,2.81,0,0,0-.27,1.13c0,.44,0,.9,0,1.41v1.62h3.67v1.91Z"/><path class="cls-11" d="M438.6,536.57v2.09H424.74V548h12.31V550H424.74v12.24h-2.45v-25.7Z"/><path class="cls-11" d="M441.66,546.58a5.35,5.35,0,0,1,1.56-2,6.71,6.71,0,0,1,2.33-1.11,11.25,11.25,0,0,1,2.95-.36,13.63,13.63,0,0,1,2.45.23,6,6,0,0,1,2.19.88,4.89,4.89,0,0,1,1.59,1.82,6.68,6.68,0,0,1,.61,3V559a1.19,1.19,0,0,0,1.33,1.37,1.72,1.72,0,0,0,.72-.15v1.91l-.7.11c-.21,0-.46,0-.78,0a3.37,3.37,0,0,1-1.38-.23,1.86,1.86,0,0,1-.81-.67,2.55,2.55,0,0,1-.38-1,8.93,8.93,0,0,1-.09-1.32h-.07a15.77,15.77,0,0,1-1.24,1.61,6.16,6.16,0,0,1-3.17,1.89,10.1,10.1,0,0,1-2.36.25,9.51,9.51,0,0,1-2.43-.31,5.39,5.39,0,0,1-2-1,4.64,4.64,0,0,1-1.33-1.69,5.58,5.58,0,0,1-.49-2.43,4.81,4.81,0,0,1,.87-3,5.43,5.43,0,0,1,2.28-1.67,13.46,13.46,0,0,1,3.21-.81l3.61-.45q.72-.07,1.26-.18a2.17,2.17,0,0,0,.9-.38,1.73,1.73,0,0,0,.56-.73,3.26,3.26,0,0,0,.2-1.23,4.15,4.15,0,0,0-.38-1.89,3,3,0,0,0-1-1.17,4.07,4.07,0,0,0-1.55-.59,10.32,10.32,0,0,0-1.89-.16,5.75,5.75,0,0,0-3.53,1,4,4,0,0,0-1.44,3.3H441A7.59,7.59,0,0,1,441.66,546.58ZM453,552.12a1.3,1.3,0,0,1-.83.58,8.93,8.93,0,0,1-1.08.25q-1.44.25-3,.45a16.49,16.49,0,0,0-2.79.59,5.57,5.57,0,0,0-2.07,1.14,2.69,2.69,0,0,0-.81,2.1,3.25,3.25,0,0,0,.34,1.53,3.84,3.84,0,0,0,.92,1.16,3.91,3.91,0,0,0,1.33.73,4.85,4.85,0,0,0,1.55.26,7.9,7.9,0,0,0,2.48-.4,6,6,0,0,0,2.07-1.15,5.69,5.69,0,0,0,1.41-1.84,5.51,5.51,0,0,0,.52-2.45v-3Z"/><path class="cls-11" d="M467.25,543.7v1.91h-3.78v12.52a4.12,4.12,0,0,0,.31,1.75c.2.42.71.65,1.53.7a15.66,15.66,0,0,0,1.94-.11v1.91c-.33,0-.67,0-1,0l-1,0a4.48,4.48,0,0,1-3.17-.88,4.42,4.42,0,0,1-.86-3.26v-12.7H458V543.7h3.24v-5.58h2.26v5.58Z"/><path class="cls-11" d="M472.83,536.57v3.64h-2.26v-3.64Zm0,7.13v18.57h-2.26V543.7Z"/><path class="cls-11" d="M479.28,543.7v3.13h.11a7.14,7.14,0,0,1,2.35-2.7,6.59,6.59,0,0,1,3.73-1,6.35,6.35,0,0,1,3.33.9,4.45,4.45,0,0,1,2,2.73,5.7,5.7,0,0,1,2.45-2.73,7,7,0,0,1,3.45-.9q6.17,0,6.16,6.51v12.6h-2.27V549.78a5.5,5.5,0,0,0-1-3.51,4.19,4.19,0,0,0-3.42-1.2,4.88,4.88,0,0,0-2.45.55,4.29,4.29,0,0,0-1.55,1.5,6.52,6.52,0,0,0-.81,2.14,13.59,13.59,0,0,0-.23,2.5v10.51h-2.27v-12.6a8,8,0,0,0-.2-1.78,4.1,4.1,0,0,0-.65-1.47,3.08,3.08,0,0,0-1.2-1,4.28,4.28,0,0,0-1.84-.36,5.58,5.58,0,0,0-2.5.52,4.6,4.6,0,0,0-1.73,1.44,6.5,6.5,0,0,0-1,2.16,11,11,0,0,0-.32,2.72v10.36h-2.27V543.7Z"/><path class="cls-11" d="M507.64,546.58a5.48,5.48,0,0,1,1.57-2,6.66,6.66,0,0,1,2.32-1.11,11.3,11.3,0,0,1,3-.36,13.46,13.46,0,0,1,2.45.23,6,6,0,0,1,2.2.88,4.86,4.86,0,0,1,1.58,1.82,6.55,6.55,0,0,1,.61,3V559a1.2,1.2,0,0,0,1.34,1.37,1.72,1.72,0,0,0,.72-.15v1.91l-.71.11c-.2,0-.46,0-.77,0a3.38,3.38,0,0,1-1.39-.23,1.89,1.89,0,0,1-.8-.67,2.41,2.41,0,0,1-.38-1,8.93,8.93,0,0,1-.09-1.32h-.07a15.8,15.8,0,0,1-1.25,1.61,6.05,6.05,0,0,1-3.17,1.89,10,10,0,0,1-2.35.25,9.4,9.4,0,0,1-2.43-.31,5.39,5.39,0,0,1-2-1,4.66,4.66,0,0,1-1.34-1.69,5.73,5.73,0,0,1-.48-2.43,4.87,4.87,0,0,1,.86-3,5.52,5.52,0,0,1,2.29-1.67,13.37,13.37,0,0,1,3.2-.81l3.62-.45q.72-.07,1.26-.18a2.17,2.17,0,0,0,.9-.38,1.73,1.73,0,0,0,.56-.73,3.26,3.26,0,0,0,.2-1.23,4.15,4.15,0,0,0-.38-1.89,3,3,0,0,0-1-1.17,4,4,0,0,0-1.54-.59,10.32,10.32,0,0,0-1.89-.16,5.75,5.75,0,0,0-3.53,1,4,4,0,0,0-1.44,3.3H507A7.59,7.59,0,0,1,507.64,546.58ZM519,552.12a1.27,1.27,0,0,1-.82.58,8.93,8.93,0,0,1-1.08.25q-1.44.25-3,.45a16.49,16.49,0,0,0-2.79.59,5.57,5.57,0,0,0-2.07,1.14,2.69,2.69,0,0,0-.81,2.1,3.25,3.25,0,0,0,.34,1.53,3.69,3.69,0,0,0,.92,1.16,3.82,3.82,0,0,0,1.33.73,4.8,4.8,0,0,0,1.55.26,7.9,7.9,0,0,0,2.48-.4,6.15,6.15,0,0,0,2.07-1.15,5.55,5.55,0,0,0,1.93-4.29v-3Z"/><path class="cls-11" d="M116.48,605.47V602h-.08a5.22,5.22,0,0,1-1.06,1.65,6.63,6.63,0,0,1-1.6,1.28,8,8,0,0,1-1.93.81,7.54,7.54,0,0,1-2,.29,8.16,8.16,0,0,1-3.69-.78,7.39,7.39,0,0,1-2.61-2.12,9.09,9.09,0,0,1-1.55-3.13,14.43,14.43,0,0,1,0-7.53,9.18,9.18,0,0,1,1.55-3.13,7.66,7.66,0,0,1,2.61-2.14,8.78,8.78,0,0,1,5.72-.54,7.23,7.23,0,0,1,1.86.77,6.94,6.94,0,0,1,1.53,1.28,5.44,5.44,0,0,1,1,1.77h.08V579.77h2.26v25.7ZM104,599.05a8.05,8.05,0,0,0,1.08,2.54A5.84,5.84,0,0,0,107,603.4a5.21,5.21,0,0,0,2.77.71,6.08,6.08,0,0,0,3-.71,6,6,0,0,0,2-1.81,7.47,7.47,0,0,0,1.11-2.54,11.9,11.9,0,0,0,0-5.73,7.42,7.42,0,0,0-1.11-2.53,6,6,0,0,0-2-1.82,6.08,6.08,0,0,0-3-.7,5.21,5.21,0,0,0-2.77.7,5.87,5.87,0,0,0-1.89,1.82,8,8,0,0,0-1.08,2.53,12.24,12.24,0,0,0,0,5.73Z"/><path class="cls-11" d="M124.56,599.34a6.86,6.86,0,0,0,1.1,2.35,6.18,6.18,0,0,0,1.9,1.73,5.33,5.33,0,0,0,2.78.69,5.51,5.51,0,0,0,3.88-1.3,6.79,6.79,0,0,0,1.95-3.46h2.27a9.06,9.06,0,0,1-2.65,4.9,7.89,7.89,0,0,1-5.45,1.73,8.59,8.59,0,0,1-3.8-.78,6.89,6.89,0,0,1-2.61-2.12,9.37,9.37,0,0,1-1.5-3.13,14.4,14.4,0,0,1-.48-3.76,13.58,13.58,0,0,1,.48-3.6,9.76,9.76,0,0,1,1.5-3.15,7.49,7.49,0,0,1,2.61-2.24,8.07,8.07,0,0,1,3.8-.84,7.59,7.59,0,0,1,3.81.9,7.51,7.51,0,0,1,2.58,2.36,9.75,9.75,0,0,1,1.42,3.34,14.55,14.55,0,0,1,.36,3.84H124.22A10,10,0,0,0,124.56,599.34Zm11.23-6.93a6.87,6.87,0,0,0-1.17-2.11,5.92,5.92,0,0,0-1.84-1.48,5.25,5.25,0,0,0-2.44-.55,5.37,5.37,0,0,0-2.49.55A5.88,5.88,0,0,0,126,590.3a7.23,7.23,0,0,0-1.21,2.12,10.22,10.22,0,0,0-.59,2.47h12A7.94,7.94,0,0,0,135.79,592.41Z"/><path class="cls-11" d="M143.66,586.9v4.35h.07a7.13,7.13,0,0,1,2.68-3.49,7,7,0,0,1,4.34-1.11v2.26a6.89,6.89,0,0,0-2.81.42,6.24,6.24,0,0,0-2.18,1.38,6.35,6.35,0,0,0-1.42,2.15,7,7,0,0,0-.5,2.71v9.9h-2.27V586.9Z"/><path class="cls-11" d="M164.59,599.34a6.86,6.86,0,0,0,1.1,2.35,6.11,6.11,0,0,0,1.91,1.73,5.27,5.27,0,0,0,2.77.69,5.56,5.56,0,0,0,3.89-1.3,6.85,6.85,0,0,0,1.94-3.46h2.27a9,9,0,0,1-2.65,4.9,7.89,7.89,0,0,1-5.45,1.73,8.59,8.59,0,0,1-3.8-.78,6.89,6.89,0,0,1-2.61-2.12,9.17,9.17,0,0,1-1.49-3.13,14,14,0,0,1-.49-3.76,13.19,13.19,0,0,1,.49-3.6,9.54,9.54,0,0,1,1.49-3.15,7.49,7.49,0,0,1,2.61-2.24,8.07,8.07,0,0,1,3.8-.84,7.36,7.36,0,0,1,6.39,3.26,9.75,9.75,0,0,1,1.42,3.34,14.55,14.55,0,0,1,.36,3.84H164.25A10,10,0,0,0,164.59,599.34Zm11.23-6.93a6.48,6.48,0,0,0-1.17-2.11,5.88,5.88,0,0,0-1.83-1.48,5.29,5.29,0,0,0-2.45-.55,5.37,5.37,0,0,0-2.49.55,5.88,5.88,0,0,0-1.83,1.48,7.23,7.23,0,0,0-1.21,2.12,10.22,10.22,0,0,0-.59,2.47h12A7.94,7.94,0,0,0,175.82,592.41Z"/><path class="cls-11" d="M183.69,586.9v4.35h.07a7.18,7.18,0,0,1,2.68-3.49,7,7,0,0,1,4.34-1.11v2.26a6.89,6.89,0,0,0-2.81.42,6.14,6.14,0,0,0-3.6,3.53,7.22,7.22,0,0,0-.5,2.71v9.9H181.6V586.9Z"/><path class="cls-11" d="M205,586.9V590h.1a7.16,7.16,0,0,1,2.36-2.7,6.56,6.56,0,0,1,3.73-1,6.35,6.35,0,0,1,3.33.9,4.4,4.4,0,0,1,2,2.73,5.75,5.75,0,0,1,2.45-2.73,7,7,0,0,1,3.46-.9q6.15,0,6.16,6.51v12.6h-2.27V593a5.56,5.56,0,0,0-1-3.51,4.19,4.19,0,0,0-3.42-1.2,4.88,4.88,0,0,0-2.45.55,4.29,4.29,0,0,0-1.55,1.5,6.31,6.31,0,0,0-.81,2.14,12.78,12.78,0,0,0-.23,2.5v10.51h-2.27v-12.6a8,8,0,0,0-.2-1.78,4.1,4.1,0,0,0-.65-1.47,3,3,0,0,0-1.21-1,4.2,4.2,0,0,0-1.83-.36,5.55,5.55,0,0,0-2.5.52,4.6,4.6,0,0,0-1.73,1.44,6.13,6.13,0,0,0-1,2.16,10.56,10.56,0,0,0-.33,2.72v10.36H203V586.9Z"/><path class="cls-11" d="M234.61,599.34a6.86,6.86,0,0,0,1.1,2.35,6.18,6.18,0,0,0,1.9,1.73,5.33,5.33,0,0,0,2.78.69,5.51,5.51,0,0,0,3.88-1.3,6.79,6.79,0,0,0,1.95-3.46h2.27a9.06,9.06,0,0,1-2.65,4.9,7.89,7.89,0,0,1-5.45,1.73,8.59,8.59,0,0,1-3.8-.78,6.89,6.89,0,0,1-2.61-2.12,9.37,9.37,0,0,1-1.5-3.13,14.4,14.4,0,0,1-.48-3.76,13.58,13.58,0,0,1,.48-3.6,9.76,9.76,0,0,1,1.5-3.15,7.49,7.49,0,0,1,2.61-2.24,8.07,8.07,0,0,1,3.8-.84,7.59,7.59,0,0,1,3.81.9,7.51,7.51,0,0,1,2.58,2.36A9.75,9.75,0,0,1,248.2,593a14.55,14.55,0,0,1,.36,3.84H234.27A10,10,0,0,0,234.61,599.34Zm11.23-6.93a6.87,6.87,0,0,0-1.17-2.11,5.92,5.92,0,0,0-1.84-1.48,5.25,5.25,0,0,0-2.44-.55,5.37,5.37,0,0,0-2.49.55,5.88,5.88,0,0,0-1.83,1.48,7.23,7.23,0,0,0-1.21,2.12,10.22,10.22,0,0,0-.59,2.47h12A7.94,7.94,0,0,0,245.84,592.41Z"/><path class="cls-11" d="M266.86,607.67a7.24,7.24,0,0,1-1.42,2.81,6.17,6.17,0,0,1-2.54,1.76,10.5,10.5,0,0,1-3.83.61,11.35,11.35,0,0,1-2.74-.32,7.86,7.86,0,0,1-2.39-1,5.84,5.84,0,0,1-1.76-1.74,5.2,5.2,0,0,1-.81-2.54h2.26a4,4,0,0,0,.71,1.74,4,4,0,0,0,1.26,1.14,5.42,5.42,0,0,0,1.63.63,8.71,8.71,0,0,0,1.84.2c2.11,0,3.64-.6,4.57-1.8a8.27,8.27,0,0,0,1.41-5.19v-2.52H265a6.54,6.54,0,0,1-2.32,2.77,6.16,6.16,0,0,1-3.58,1,9,9,0,0,1-3.82-.74,7.2,7.2,0,0,1-2.61-2,8.36,8.36,0,0,1-1.49-3,14.36,14.36,0,0,1-.47-3.72,11.67,11.67,0,0,1,.56-3.62,8.9,8.9,0,0,1,1.62-3,7.51,7.51,0,0,1,2.63-2,8.18,8.18,0,0,1,3.58-.74,6.38,6.38,0,0,1,3.64,1.1,7.34,7.34,0,0,1,1.35,1.2,5.6,5.6,0,0,1,.91,1.44h.08v-3.2h2.26V604A14.13,14.13,0,0,1,266.86,607.67Zm-5.2-4.95a5.73,5.73,0,0,0,1.87-1.66,7.14,7.14,0,0,0,1.14-2.35,10.07,10.07,0,0,0,.38-2.74,11.73,11.73,0,0,0-.33-2.74,7.72,7.72,0,0,0-1-2.48,5.71,5.71,0,0,0-1.86-1.8,5.17,5.17,0,0,0-2.75-.68,5.49,5.49,0,0,0-2.77.66,5.94,5.94,0,0,0-1.91,1.75,7.44,7.44,0,0,0-1.1,2.46A11.72,11.72,0,0,0,253,596a10.46,10.46,0,0,0,.36,2.74,6.91,6.91,0,0,0,1.12,2.35,5.74,5.74,0,0,0,1.9,1.66,5.63,5.63,0,0,0,2.74.63A5.18,5.18,0,0,0,261.66,602.72Z"/><path class="cls-11" d="M272.1,589.78a5.48,5.48,0,0,1,1.57-1.95,6.66,6.66,0,0,1,2.32-1.11,11.3,11.3,0,0,1,2.95-.36,13.54,13.54,0,0,1,2.45.23,6,6,0,0,1,2.2.88,5,5,0,0,1,1.58,1.82,6.55,6.55,0,0,1,.61,3v9.87a1.2,1.2,0,0,0,1.33,1.37,1.66,1.66,0,0,0,.72-.15v1.91l-.7.11c-.2,0-.46,0-.77,0a3.38,3.38,0,0,1-1.39-.23,1.86,1.86,0,0,1-.81-.67,2.49,2.49,0,0,1-.38-1,8.93,8.93,0,0,1-.09-1.32h-.07a15.77,15.77,0,0,1-1.24,1.61,6.05,6.05,0,0,1-3.17,1.89,10,10,0,0,1-2.36.25,9.09,9.09,0,0,1-2.43-.31,5.55,5.55,0,0,1-2-1,4.74,4.74,0,0,1-1.33-1.69,5.73,5.73,0,0,1-.48-2.43,4.76,4.76,0,0,1,.86-3,5.46,5.46,0,0,1,2.29-1.68,13.25,13.25,0,0,1,3.2-.81l3.62-.45q.72-.08,1.26-.18a2.17,2.17,0,0,0,.9-.38,1.81,1.81,0,0,0,.56-.73,3.28,3.28,0,0,0,.19-1.23,4.16,4.16,0,0,0-.37-1.89,3,3,0,0,0-1.05-1.17,4.17,4.17,0,0,0-1.55-.59,10.17,10.17,0,0,0-1.89-.16,5.72,5.72,0,0,0-3.52,1,4,4,0,0,0-1.44,3.3h-2.27A7.59,7.59,0,0,1,272.1,589.78Zm11.34,5.54a1.27,1.27,0,0,1-.83.58,8.14,8.14,0,0,1-1.08.25q-1.44.26-3,.45a16.49,16.49,0,0,0-2.79.59,5.57,5.57,0,0,0-2.07,1.14,2.69,2.69,0,0,0-.81,2.1,3.26,3.26,0,0,0,.35,1.53,3.66,3.66,0,0,0,.91,1.16,4,4,0,0,0,1.34.73,4.79,4.79,0,0,0,1.54.26,7.92,7.92,0,0,0,2.49-.4,6.15,6.15,0,0,0,2.07-1.15,5.66,5.66,0,0,0,1.4-1.84,5.51,5.51,0,0,0,.52-2.45v-2.95Z"/><path class="cls-11" d="M303.82,588.81v16.66h-2.27V588.81h-3.17V586.9h3.17v-1.69a12.48,12.48,0,0,1,.18-2.2,4.39,4.39,0,0,1,.68-1.73,3.28,3.28,0,0,1,1.39-1.11,5.43,5.43,0,0,1,2.25-.4,9.31,9.31,0,0,1,.94,0l1,.1v2l-.87-.13a7,7,0,0,0-.79-.05,2.87,2.87,0,0,0-1.44.29,1.77,1.77,0,0,0-.74.77,3.18,3.18,0,0,0-.27,1.13c0,.44,0,.9,0,1.41v1.62h3.67v1.91Z"/><path class="cls-11" d="M322.61,605.47v-3.34h-.07a6.47,6.47,0,0,1-2.61,2.86,7.46,7.46,0,0,1-3.8,1,8.15,8.15,0,0,1-3-.49,4.88,4.88,0,0,1-2-1.38,5.62,5.62,0,0,1-1.14-2.2,11,11,0,0,1-.36-2.95V586.9h2.27V599a6.07,6.07,0,0,0,1.17,3.82c.73.86,2,1.3,3.8,1.3a4.81,4.81,0,0,0,2.52-.63,5.44,5.44,0,0,0,1.73-1.68,7.45,7.45,0,0,0,1-2.39,11.58,11.58,0,0,0,.33-2.76V586.9h2.27v18.57Z"/><path class="cls-11" d="M331.28,579.77v25.7H329v-25.7Z"/><path class="cls-11" d="M349.9,605.47V602h-.08a5.22,5.22,0,0,1-1.06,1.65,6.83,6.83,0,0,1-1.6,1.28,8,8,0,0,1-1.93.81,7.54,7.54,0,0,1-2,.29,8.16,8.16,0,0,1-3.69-.78,7.39,7.39,0,0,1-2.61-2.12,9.09,9.09,0,0,1-1.55-3.13,14.43,14.43,0,0,1,0-7.53,9.18,9.18,0,0,1,1.55-3.13,7.66,7.66,0,0,1,2.61-2.14,8.78,8.78,0,0,1,5.72-.54,7.23,7.23,0,0,1,1.86.77,6.94,6.94,0,0,1,1.53,1.28,5.44,5.44,0,0,1,1,1.77h.08V579.77H352v25.7Zm-12.44-6.42a8.05,8.05,0,0,0,1.08,2.54,5.84,5.84,0,0,0,1.89,1.81,5.21,5.21,0,0,0,2.77.71,6.08,6.08,0,0,0,3-.71,6,6,0,0,0,2-1.81,7.47,7.47,0,0,0,1.11-2.54,11.9,11.9,0,0,0,0-5.73,7.42,7.42,0,0,0-1.11-2.53,6,6,0,0,0-2-1.82,6.08,6.08,0,0,0-3-.7,5.21,5.21,0,0,0-2.77.7,5.87,5.87,0,0,0-1.89,1.82,8,8,0,0,0-1.08,2.53,12.24,12.24,0,0,0,0,5.73Z"/><path class="cls-11" d="M377.92,587.15a8.42,8.42,0,0,1,2.76,2.12,9.39,9.39,0,0,1,1.69,3.12,12.92,12.92,0,0,1,0,7.59,9.39,9.39,0,0,1-1.69,3.12,8,8,0,0,1-2.76,2.1,9.45,9.45,0,0,1-7.52,0,8,8,0,0,1-2.76-2.1A9.39,9.39,0,0,1,366,600a12.92,12.92,0,0,1,0-7.59,9.39,9.39,0,0,1,1.69-3.12,8.95,8.95,0,0,1,10.28-2.12Zm-6.6,1.8a6.32,6.32,0,0,0-2,1.8,8,8,0,0,0-1.22,2.54,10.19,10.19,0,0,0,0,5.79,8,8,0,0,0,1.22,2.54,6.09,6.09,0,0,0,2,1.8,6.19,6.19,0,0,0,5.68,0,6.09,6.09,0,0,0,2-1.8,8,8,0,0,0,1.22-2.54,10.19,10.19,0,0,0,0-5.79,8,8,0,0,0-1.22-2.54,6.32,6.32,0,0,0-2-1.8,6.27,6.27,0,0,0-5.68,0Z"/><path class="cls-11" d="M401.57,607.67a7.24,7.24,0,0,1-1.42,2.81,6.17,6.17,0,0,1-2.54,1.76,10.5,10.5,0,0,1-3.83.61,11.35,11.35,0,0,1-2.74-.32,7.86,7.86,0,0,1-2.39-1,5.84,5.84,0,0,1-1.76-1.74,5.2,5.2,0,0,1-.81-2.54h2.26a4,4,0,0,0,.71,1.74,4,4,0,0,0,1.26,1.14,5.42,5.42,0,0,0,1.63.63,8.71,8.71,0,0,0,1.84.2c2.11,0,3.64-.6,4.57-1.8a8.27,8.27,0,0,0,1.41-5.19v-2.52h-.08a6.54,6.54,0,0,1-2.32,2.77,6.16,6.16,0,0,1-3.58,1,9,9,0,0,1-3.82-.74,7.2,7.2,0,0,1-2.61-2,8.36,8.36,0,0,1-1.49-3,14.36,14.36,0,0,1-.47-3.72,11.67,11.67,0,0,1,.56-3.62,8.9,8.9,0,0,1,1.62-3,7.51,7.51,0,0,1,2.63-2,8.18,8.18,0,0,1,3.58-.74,6.38,6.38,0,0,1,3.64,1.1,7.34,7.34,0,0,1,1.35,1.2,5.6,5.6,0,0,1,.91,1.44h.08v-3.2H402V604A14.13,14.13,0,0,1,401.57,607.67Zm-5.2-4.95a5.73,5.73,0,0,0,1.87-1.66,7.14,7.14,0,0,0,1.14-2.35,10.07,10.07,0,0,0,.38-2.74,11.73,11.73,0,0,0-.33-2.74,7.72,7.72,0,0,0-1-2.48,5.71,5.71,0,0,0-1.86-1.8,5.17,5.17,0,0,0-2.75-.68,5.49,5.49,0,0,0-2.77.66,5.94,5.94,0,0,0-1.91,1.75,7.44,7.44,0,0,0-1.1,2.46,11.72,11.72,0,0,0-.34,2.83,10.46,10.46,0,0,0,.36,2.74,6.91,6.91,0,0,0,1.12,2.35,5.74,5.74,0,0,0,1.9,1.66,5.63,5.63,0,0,0,2.74.63A5.18,5.18,0,0,0,396.37,602.72Z"/><path class="cls-11" d="M423.73,586.9v1.91H420v12.52a4,4,0,0,0,.31,1.75c.2.42.71.65,1.53.7a15.77,15.77,0,0,0,1.94-.11v1.91c-.33,0-.67,0-1,0s-.67,0-1,0a3.36,3.36,0,0,1-4-4.14v-12.7h-3.24V586.9h3.24v-5.58H420v5.58Z"/><path class="cls-11" d="M429.31,579.77v3.64H427v-3.64Zm0,7.13v18.57H427V586.9Z"/><path class="cls-11" d="M444.36,590.52a3.7,3.7,0,0,0-1.06-1.28,4.53,4.53,0,0,0-1.53-.74,6.87,6.87,0,0,0-1.84-.23,7.37,7.37,0,0,0-1.53.16A4.75,4.75,0,0,0,437,589a3.11,3.11,0,0,0-1.05,1,2.76,2.76,0,0,0-.39,1.51,2.15,2.15,0,0,0,.38,1.28,3.34,3.34,0,0,0,.95.88,5.61,5.61,0,0,0,1.26.59,13.11,13.11,0,0,0,1.26.38l3,.69a8.43,8.43,0,0,1,1.92.52,6,6,0,0,1,1.69,1,4.86,4.86,0,0,1,1.21,1.51,4.57,4.57,0,0,1,.47,2.12A4.64,4.64,0,0,1,447,603a5.63,5.63,0,0,1-1.74,1.73,7.49,7.49,0,0,1-2.4,1,12.46,12.46,0,0,1-2.63.29,8.51,8.51,0,0,1-5.3-1.55,6.57,6.57,0,0,1-2.33-5h2.27a4.49,4.49,0,0,0,1.67,3.48,6.08,6.08,0,0,0,3.8,1.17,8.5,8.5,0,0,0,1.71-.18,5.4,5.4,0,0,0,1.64-.62,3.85,3.85,0,0,0,1.24-1.09,3,3,0,0,0,.15-3,3,3,0,0,0-.92-.93,5.3,5.3,0,0,0-1.31-.63c-.5-.17-1-.32-1.5-.44l-2.91-.64a18.47,18.47,0,0,1-2.06-.67,6.39,6.39,0,0,1-1.64-.94,3.91,3.91,0,0,1-1.09-1.36,5,5,0,0,1,.23-4.41,4.8,4.8,0,0,1,1.64-1.62,7.47,7.47,0,0,1,2.25-.9,10.45,10.45,0,0,1,2.46-.29,9.17,9.17,0,0,1,2.62.36,6.05,6.05,0,0,1,2.12,1.11,5.54,5.54,0,0,1,1.46,1.88,6.73,6.73,0,0,1,.61,2.62h-2.27A4.24,4.24,0,0,0,444.36,590.52Z"/><path class="cls-11" d="M461.67,590.52a3.49,3.49,0,0,0-1.06-1.28,4.36,4.36,0,0,0-1.53-.74,6.8,6.8,0,0,0-1.83-.23,7.23,7.23,0,0,0-1.53.16,4.92,4.92,0,0,0-1.43.54,3,3,0,0,0-1,1,2.76,2.76,0,0,0-.4,1.51,2.15,2.15,0,0,0,.38,1.28,3.25,3.25,0,0,0,1,.88,5.61,5.61,0,0,0,1.26.59,11.6,11.6,0,0,0,1.26.38l3,.69a8.51,8.51,0,0,1,1.93.52,6.16,6.16,0,0,1,1.69,1,4.83,4.83,0,0,1,1.2,1.51,4.45,4.45,0,0,1,.47,2.12,4.72,4.72,0,0,1-.68,2.58,5.66,5.66,0,0,1-1.75,1.73,7.43,7.43,0,0,1-2.39,1,12.61,12.61,0,0,1-2.63.29,8.56,8.56,0,0,1-5.31-1.55,6.57,6.57,0,0,1-2.32-5h2.27a4.46,4.46,0,0,0,1.67,3.48,6.08,6.08,0,0,0,3.8,1.17,8.58,8.58,0,0,0,1.71-.18,5.51,5.51,0,0,0,1.64-.62,4,4,0,0,0,1.24-1.09,2.74,2.74,0,0,0,.48-1.64,2.6,2.6,0,0,0-.34-1.39,2.92,2.92,0,0,0-.92-.93,5.13,5.13,0,0,0-1.31-.63c-.49-.17-1-.32-1.49-.44l-2.92-.64a18.28,18.28,0,0,1-2-.67,6.22,6.22,0,0,1-1.64-.94,3.94,3.94,0,0,1-1.1-1.36,4.6,4.6,0,0,1-.39-2,4.44,4.44,0,0,1,.63-2.41,4.77,4.77,0,0,1,1.63-1.62,7.69,7.69,0,0,1,2.25-.9,10.48,10.48,0,0,1,2.47-.29,9,9,0,0,1,2.61.36,6.05,6.05,0,0,1,2.12,1.11,5.42,5.42,0,0,1,1.46,1.88,6.56,6.56,0,0,1,.61,2.62h-2.26A4.24,4.24,0,0,0,461.67,590.52Z"/><path class="cls-11" d="M470,599.34a7.05,7.05,0,0,0,1.1,2.35,6.11,6.11,0,0,0,1.91,1.73,5.3,5.3,0,0,0,2.77.69,5.54,5.54,0,0,0,3.89-1.3,6.85,6.85,0,0,0,1.94-3.46h2.27a9,9,0,0,1-2.65,4.9,7.89,7.89,0,0,1-5.45,1.73,8.62,8.62,0,0,1-3.8-.78,6.89,6.89,0,0,1-2.61-2.12,9.17,9.17,0,0,1-1.49-3.13,14,14,0,0,1-.49-3.76,13.19,13.19,0,0,1,.49-3.6,9.54,9.54,0,0,1,1.49-3.15A7.49,7.49,0,0,1,472,587.2a8.1,8.1,0,0,1,3.8-.84,7.33,7.33,0,0,1,6.39,3.26,9.75,9.75,0,0,1,1.42,3.34,14.55,14.55,0,0,1,.36,3.84H469.63A10,10,0,0,0,470,599.34Zm11.23-6.93A6.48,6.48,0,0,0,480,590.3a5.88,5.88,0,0,0-1.83-1.48,5.8,5.8,0,0,0-4.93,0,5.92,5.92,0,0,0-1.84,1.48,7.46,7.46,0,0,0-1.21,2.12,10.71,10.71,0,0,0-.59,2.47h12A7.94,7.94,0,0,0,481.2,592.41Z"/><path class="cls-11" d="M489.07,586.9v4.35h.07a7.18,7.18,0,0,1,2.68-3.49,7,7,0,0,1,4.34-1.11v2.26a6.89,6.89,0,0,0-2.81.42,6.14,6.14,0,0,0-3.6,3.53,7.22,7.22,0,0,0-.5,2.71v9.9H487V586.9Z"/><path class="cls-11" d="M515.71,586.9v1.91h-3.78v12.52a4,4,0,0,0,.31,1.75c.2.42.71.65,1.52.7a15.93,15.93,0,0,0,2-.11v1.91c-.34,0-.67,0-1,0s-.67,0-1,0a4.44,4.44,0,0,1-3.16-.88c-.61-.59-.89-1.67-.87-3.26v-12.7h-3.24V586.9h3.24v-5.58h2.27v5.58Z"/><path class="cls-11" d="M521.29,579.77v3.64H519v-3.64Zm0,7.13v18.57H519V586.9Z"/><path class="cls-11" d="M528,579.77v25.7h-2.27v-25.7Z"/><path class="cls-11" d="M105.71,632v16.66h-2.27V632h-3.16V630.1h3.16v-1.69a12.48,12.48,0,0,1,.18-2.2,4.25,4.25,0,0,1,.69-1.73,3.25,3.25,0,0,1,1.38-1.11,5.43,5.43,0,0,1,2.25-.4,9.18,9.18,0,0,1,.94,0l1,.1v1.95l-.86-.13a7.13,7.13,0,0,0-.79,0,2.82,2.82,0,0,0-1.44.29,1.72,1.72,0,0,0-.74.77,2.81,2.81,0,0,0-.27,1.13c0,.44,0,.9,0,1.41v1.62h3.67V632Z"/><path class="cls-11" d="M113.22,642.54a6.86,6.86,0,0,0,1.1,2.35,6.18,6.18,0,0,0,1.9,1.73,5.33,5.33,0,0,0,2.78.69,5.51,5.51,0,0,0,3.88-1.3,6.79,6.79,0,0,0,2-3.46h2.27a9.06,9.06,0,0,1-2.65,4.9,7.89,7.89,0,0,1-5.45,1.73,8.59,8.59,0,0,1-3.8-.78,6.89,6.89,0,0,1-2.61-2.12,9.37,9.37,0,0,1-1.5-3.13,14.4,14.4,0,0,1-.48-3.76,13.58,13.58,0,0,1,.48-3.6,9.76,9.76,0,0,1,1.5-3.15,7.49,7.49,0,0,1,2.61-2.24,8.07,8.07,0,0,1,3.8-.84,7.59,7.59,0,0,1,3.81.9,7.51,7.51,0,0,1,2.58,2.36,9.75,9.75,0,0,1,1.42,3.34,14.55,14.55,0,0,1,.36,3.84H112.88A10,10,0,0,0,113.22,642.54Zm11.23-6.93a6.87,6.87,0,0,0-1.17-2.11,5.92,5.92,0,0,0-1.84-1.48,5.25,5.25,0,0,0-2.44-.55,5.37,5.37,0,0,0-2.49.55,5.88,5.88,0,0,0-1.83,1.48,7.23,7.23,0,0,0-1.21,2.12,10.22,10.22,0,0,0-.59,2.47h12A7.94,7.94,0,0,0,124.45,635.61Z"/><path class="cls-11" d="M140.92,633.72a3.59,3.59,0,0,0-1.06-1.28,4.53,4.53,0,0,0-1.53-.74,6.87,6.87,0,0,0-1.84-.23,7.37,7.37,0,0,0-1.53.16,4.86,4.86,0,0,0-1.42.54,3,3,0,0,0-1,1,2.68,2.68,0,0,0-.4,1.51,2.15,2.15,0,0,0,.38,1.28,3.34,3.34,0,0,0,1,.88,6.05,6.05,0,0,0,1.26.59,13.11,13.11,0,0,0,1.26.38l3,.69a8.43,8.43,0,0,1,1.92.52,6,6,0,0,1,1.69,1,4.86,4.86,0,0,1,1.21,1.51,4.57,4.57,0,0,1,.47,2.12,4.64,4.64,0,0,1-.69,2.58,5.63,5.63,0,0,1-1.74,1.73,7.49,7.49,0,0,1-2.4.95,12.44,12.44,0,0,1-2.62.29,8.52,8.52,0,0,1-5.31-1.55,6.61,6.61,0,0,1-2.33-5h2.27a4.52,4.52,0,0,0,1.67,3.48,6.1,6.1,0,0,0,3.8,1.17,8.5,8.5,0,0,0,1.71-.18,5.4,5.4,0,0,0,1.64-.62,3.74,3.74,0,0,0,1.24-1.09,3,3,0,0,0,.15-3,3,3,0,0,0-.92-.93,5.13,5.13,0,0,0-1.31-.63c-.5-.17-1-.32-1.5-.44l-2.91-.64a18.47,18.47,0,0,1-2.06-.67,6.16,6.16,0,0,1-1.63-.94,3.83,3.83,0,0,1-1.1-1.36,5,5,0,0,1,.23-4.41,4.8,4.8,0,0,1,1.64-1.62,7.47,7.47,0,0,1,2.25-.9,10.48,10.48,0,0,1,2.47-.29,9.15,9.15,0,0,1,2.61.36,6.05,6.05,0,0,1,2.12,1.11,5.54,5.54,0,0,1,1.46,1.88,6.73,6.73,0,0,1,.61,2.62h-2.27A4.24,4.24,0,0,0,140.92,633.72Z"/><path class="cls-11" d="M154.92,630.1V632h-3.78v12.52a4,4,0,0,0,.31,1.75c.2.42.71.65,1.53.7a15.77,15.77,0,0,0,1.94-.11v1.91c-.33,0-.67,0-1,0l-1,0a4.47,4.47,0,0,1-3.17-.88,4.42,4.42,0,0,1-.86-3.26V632h-3.25V630.1h3.25v-5.58h2.26v5.58Z"/><path class="cls-11" d="M159.87,642.54a7.05,7.05,0,0,0,1.1,2.35,6.11,6.11,0,0,0,1.91,1.73,5.3,5.3,0,0,0,2.77.69,5.54,5.54,0,0,0,3.89-1.3,6.85,6.85,0,0,0,1.94-3.46h2.27a9,9,0,0,1-2.65,4.9,7.89,7.89,0,0,1-5.45,1.73,8.62,8.62,0,0,1-3.8-.78,6.89,6.89,0,0,1-2.61-2.12,9.17,9.17,0,0,1-1.49-3.13,14,14,0,0,1-.49-3.76,13.19,13.19,0,0,1,.49-3.6,9.54,9.54,0,0,1,1.49-3.15,7.49,7.49,0,0,1,2.61-2.24,8.1,8.1,0,0,1,3.8-.84,7.33,7.33,0,0,1,6.39,3.26,9.75,9.75,0,0,1,1.42,3.34,14.55,14.55,0,0,1,.36,3.84H159.53A10,10,0,0,0,159.87,642.54Zm11.23-6.93a6.48,6.48,0,0,0-1.17-2.11A5.88,5.88,0,0,0,168.1,632a5.8,5.8,0,0,0-4.93,0,5.92,5.92,0,0,0-1.84,1.48,7.46,7.46,0,0,0-1.21,2.12,10.71,10.71,0,0,0-.59,2.47h12A7.94,7.94,0,0,0,171.1,635.61Z"/><path class="cls-11" d="M179.11,630.1v3.2h.08a5.46,5.46,0,0,1,2.3-2.72,6.8,6.8,0,0,1,3.64-1,9.25,9.25,0,0,1,3.25.5,5.21,5.21,0,0,1,2.11,1.42,5.42,5.42,0,0,1,1.12,2.25,13.05,13.05,0,0,1,.32,3v11.95h-2.27V637.08a11,11,0,0,0-.21-2.21,4.71,4.71,0,0,0-.76-1.78,3.66,3.66,0,0,0-1.46-1.19,5.3,5.3,0,0,0-2.28-.43,5.79,5.79,0,0,0-2.43.48,5.35,5.35,0,0,0-1.8,1.33,6.18,6.18,0,0,0-1.16,2,8.61,8.61,0,0,0-.45,2.54v10.83h-2.26V630.1Z"/><path class="cls-11" d="M208.52,623v3.64h-2.26V623Zm0,7.13v18.57h-2.26V630.1Z"/><path class="cls-11" d="M223.43,630.1,228.18,646h.07l4.54-15.91h2.55L239.88,646H240l4.75-15.91h2.42l-6,18.57h-2.48l-4.58-15.62H234l-4.53,15.62H227l-6-18.57Z"/><path class="cls-11" d="M251.24,642.54a6.86,6.86,0,0,0,1.1,2.35,6.18,6.18,0,0,0,1.9,1.73,5.33,5.33,0,0,0,2.78.69,5.51,5.51,0,0,0,3.88-1.3,6.79,6.79,0,0,0,2-3.46h2.27a9.06,9.06,0,0,1-2.65,4.9,7.89,7.89,0,0,1-5.45,1.73,8.59,8.59,0,0,1-3.8-.78,6.89,6.89,0,0,1-2.61-2.12,9.37,9.37,0,0,1-1.5-3.13,14.4,14.4,0,0,1-.48-3.76,13.58,13.58,0,0,1,.48-3.6,9.76,9.76,0,0,1,1.5-3.15,7.49,7.49,0,0,1,2.61-2.24,8.07,8.07,0,0,1,3.8-.84,7.59,7.59,0,0,1,3.81.9,7.51,7.51,0,0,1,2.58,2.36,9.75,9.75,0,0,1,1.42,3.34,14.55,14.55,0,0,1,.36,3.84H250.9A10,10,0,0,0,251.24,642.54Zm11.23-6.93a6.87,6.87,0,0,0-1.17-2.11,5.92,5.92,0,0,0-1.84-1.48,5.25,5.25,0,0,0-2.44-.55,5.37,5.37,0,0,0-2.49.55,5.88,5.88,0,0,0-1.83,1.48,7.23,7.23,0,0,0-1.21,2.12,10.22,10.22,0,0,0-.59,2.47h12A7.94,7.94,0,0,0,262.47,635.61Z"/><path class="cls-11" d="M269.92,642.54a7.05,7.05,0,0,0,1.1,2.35,6.11,6.11,0,0,0,1.91,1.73,5.3,5.3,0,0,0,2.77.69,5.54,5.54,0,0,0,3.89-1.3,6.85,6.85,0,0,0,1.94-3.46h2.27a9,9,0,0,1-2.65,4.9,7.89,7.89,0,0,1-5.45,1.73,8.62,8.62,0,0,1-3.8-.78,6.89,6.89,0,0,1-2.61-2.12,9.17,9.17,0,0,1-1.49-3.13,14,14,0,0,1-.49-3.76,13.19,13.19,0,0,1,.49-3.6,9.54,9.54,0,0,1,1.49-3.15,7.49,7.49,0,0,1,2.61-2.24,8.1,8.1,0,0,1,3.8-.84,7.33,7.33,0,0,1,6.39,3.26,9.75,9.75,0,0,1,1.42,3.34,14.55,14.55,0,0,1,.36,3.84H269.58A10,10,0,0,0,269.92,642.54Zm11.23-6.93A6.48,6.48,0,0,0,280,633.5a5.88,5.88,0,0,0-1.83-1.48,5.8,5.8,0,0,0-4.93,0,5.92,5.92,0,0,0-1.84,1.48,7.46,7.46,0,0,0-1.21,2.12,10.71,10.71,0,0,0-.59,2.47h12A7.94,7.94,0,0,0,281.15,635.61Z"/><path class="cls-11" d="M289.2,623V639.1l10.3-9h3L294.6,637l8.46,11.7h-2.84l-7.35-10.11-3.67,3.06v7h-2.27V623Z"/><path class="cls-11" d="M306.61,642.54a6.84,6.84,0,0,0,1.09,2.35,6.22,6.22,0,0,0,1.91,1.73,5.3,5.3,0,0,0,2.77.69,5.52,5.52,0,0,0,3.89-1.3,6.79,6.79,0,0,0,2-3.46h2.26a9.05,9.05,0,0,1-2.64,4.9,7.91,7.91,0,0,1-5.46,1.73,8.54,8.54,0,0,1-3.79-.78,6.89,6.89,0,0,1-2.61-2.12,9.18,9.18,0,0,1-1.5-3.13,14.4,14.4,0,0,1-.48-3.76,13.58,13.58,0,0,1,.48-3.6,9.56,9.56,0,0,1,1.5-3.15,7.49,7.49,0,0,1,2.61-2.24,8,8,0,0,1,3.79-.84,7.33,7.33,0,0,1,6.39,3.26,9.77,9.77,0,0,1,1.43,3.34,15.44,15.44,0,0,1,.36,3.84h-14.3A10.07,10.07,0,0,0,306.61,642.54Zm11.23-6.93a6.87,6.87,0,0,0-1.17-2.11,6,6,0,0,0-1.84-1.48,5.29,5.29,0,0,0-2.45-.55,5.36,5.36,0,0,0-2.48.55,6,6,0,0,0-1.84,1.48,7.44,7.44,0,0,0-1.2,2.12,10.73,10.73,0,0,0-.6,2.47h12A8.56,8.56,0,0,0,317.84,635.61Z"/><path class="cls-11" d="M325.85,630.1v3.2h.07a5.46,5.46,0,0,1,2.3-2.72,6.83,6.83,0,0,1,3.64-1,9.31,9.31,0,0,1,3.26.5,5.17,5.17,0,0,1,2.1,1.42,5.42,5.42,0,0,1,1.12,2.25,13.05,13.05,0,0,1,.32,3v11.95H336.4V637.08a11,11,0,0,0-.22-2.21,4.56,4.56,0,0,0-.76-1.78A3.59,3.59,0,0,0,334,631.9a5.3,5.3,0,0,0-2.28-.43,5.86,5.86,0,0,0-2.43.48,5.35,5.35,0,0,0-1.8,1.33,6.16,6.16,0,0,0-1.15,2,8,8,0,0,0-.45,2.54v10.83h-2.27V630.1Z"/><path class="cls-11" d="M357.2,648.67v-3.52h-.07a5.22,5.22,0,0,1-1.06,1.65,6.83,6.83,0,0,1-1.6,1.28,8,8,0,0,1-1.93.81,7.54,7.54,0,0,1-2,.29,8.16,8.16,0,0,1-3.69-.78,7.21,7.21,0,0,1-2.61-2.12,9.09,9.09,0,0,1-1.55-3.13,14.43,14.43,0,0,1,0-7.53,9.18,9.18,0,0,1,1.55-3.13,7.48,7.48,0,0,1,2.61-2.14,8,8,0,0,1,3.69-.79,8.12,8.12,0,0,1,2,.25,7.23,7.23,0,0,1,1.86.77,6.67,6.67,0,0,1,1.52,1.28,5.28,5.28,0,0,1,1,1.77H357V623h2.27v25.7Zm-12.44-6.42a8.05,8.05,0,0,0,1.08,2.54,6,6,0,0,0,1.9,1.81,5.18,5.18,0,0,0,2.77.71,6.08,6.08,0,0,0,3-.71,6,6,0,0,0,2-1.81,7.67,7.67,0,0,0,1.11-2.54,12.24,12.24,0,0,0,0-5.73,7.62,7.62,0,0,0-1.11-2.53,6,6,0,0,0-2-1.82,6.08,6.08,0,0,0-3-.7,5.18,5.18,0,0,0-2.77.7,6,6,0,0,0-1.9,1.82,8,8,0,0,0-1.08,2.53,12.24,12.24,0,0,0,0,5.73Z"/><path class="cls-11" d="M365.29,642.54a6.84,6.84,0,0,0,1.09,2.35,6.22,6.22,0,0,0,1.91,1.73,5.3,5.3,0,0,0,2.77.69A5.52,5.52,0,0,0,375,646a6.79,6.79,0,0,0,1.95-3.46h2.26a9.05,9.05,0,0,1-2.64,4.9,7.91,7.91,0,0,1-5.46,1.73,8.54,8.54,0,0,1-3.79-.78,6.89,6.89,0,0,1-2.61-2.12,9.18,9.18,0,0,1-1.5-3.13,14.4,14.4,0,0,1-.49-3.76,13.59,13.59,0,0,1,.49-3.6,9.56,9.56,0,0,1,1.5-3.15,7.49,7.49,0,0,1,2.61-2.24,8,8,0,0,1,3.79-.84,7.33,7.33,0,0,1,6.39,3.26,9.77,9.77,0,0,1,1.43,3.34,15.44,15.44,0,0,1,.36,3.84h-14.3A10.07,10.07,0,0,0,365.29,642.54Zm11.23-6.93a6.87,6.87,0,0,0-1.17-2.11,6,6,0,0,0-1.84-1.48,5.29,5.29,0,0,0-2.45-.55,5.36,5.36,0,0,0-2.48.55,6,6,0,0,0-1.84,1.48,7.44,7.44,0,0,0-1.2,2.12,10.73,10.73,0,0,0-.6,2.47h12A8.56,8.56,0,0,0,376.52,635.61Z"/><path class="cls-11" d="M384.53,630.1v3.2h.07a5.46,5.46,0,0,1,2.3-2.72,6.83,6.83,0,0,1,3.64-1,9.35,9.35,0,0,1,3.26.5,5.17,5.17,0,0,1,2.1,1.42,5.42,5.42,0,0,1,1.12,2.25,13.05,13.05,0,0,1,.32,3v11.95h-2.26V637.08a11,11,0,0,0-.22-2.21,4.71,4.71,0,0,0-.76-1.78,3.59,3.59,0,0,0-1.46-1.19,5.3,5.3,0,0,0-2.28-.43,5.86,5.86,0,0,0-2.43.48,5.35,5.35,0,0,0-1.8,1.33,6.16,6.16,0,0,0-1.15,2,8,8,0,0,0-.45,2.54v10.83h-2.27V630.1Z"/><path class="cls-11" d="M402,627.42a7,7,0,0,1,1.6-2.67,7.46,7.46,0,0,1,2.58-1.71,9.07,9.07,0,0,1,3.45-.61,8.7,8.7,0,0,1,2.83.45,7.16,7.16,0,0,1,2.32,1.31,6.25,6.25,0,0,1,1.58,2.09,6.45,6.45,0,0,1,.58,2.81,6.3,6.3,0,0,1-.88,3.42,13.9,13.9,0,0,1-2.25,2.7c-.75.74-1.34,1.33-1.78,1.75a4.64,4.64,0,0,0-1,1.24,4.36,4.36,0,0,0-.44,1.49c-.07.59-.12,1.44-.14,2.54h-2.27a13.94,13.94,0,0,1,.18-2.77,7.3,7.3,0,0,1,.7-2,8.16,8.16,0,0,1,1.3-1.73c.54-.55,1.19-1.17,2-1.87a9.08,9.08,0,0,0,1.68-2.09,5,5,0,0,0,.66-2.55,4.77,4.77,0,0,0-.41-2,4.66,4.66,0,0,0-1.12-1.53,5.27,5.27,0,0,0-1.63-1,5.53,5.53,0,0,0-2-.36,6.2,6.2,0,0,0-2.55.5,5,5,0,0,0-1.84,1.39A6,6,0,0,0,404,628.3a8,8,0,0,0-.32,2.59h-2.27A10.57,10.57,0,0,1,402,627.42Zm8.86,17.44v3.81h-3v-3.81Z"/><circle class="cls-29" cx="458.5" cy="641.5" r="27.5"/><path class="cls-30" d="M476.83,631.93c-1.12.59-8.4-2.72-7.79-3.52.34-.46,3.47-.35,5.59.73C476.42,630.05,477.43,631.61,476.83,631.93Z"/><path class="cls-30" d="M441.17,630.93c1.12.59,8.4-2.72,7.79-3.52-.34-.46-3.47-.35-5.59.73C441.58,629.05,440.57,630.61,441.17,630.93Z"/><path class="cls-30" d="M439.76,639.18a7.39,7.39,0,0,1,2.93-3.42,7.91,7.91,0,0,1,8.07.24c1.72,1,3.34,3,2.93,3.67s-3.24-.74-7.82-1A23.15,23.15,0,0,0,439.76,639.18Z"/><path class="cls-30" d="M474.62,639.18a7.46,7.46,0,0,0-2.93-3.42,7.9,7.9,0,0,0-8.07.24c-1.72,1-3.34,3-2.93,3.67s3.24-.74,7.82-1A23.23,23.23,0,0,1,474.62,639.18Z"/><path class="cls-30" d="M439.07,644.8c-.17.16-.5.66.38,2.9a18.37,18.37,0,0,0,3.28,5.41c3.15,3.53,4.72,5.32,6.6,6.36a18,18,0,0,0,11.25,1.95,19.06,19.06,0,0,0,8.8-3.91A25,25,0,0,0,475,651.4c2.26-3.15,3.52-4.91,2.93-5.87-.89-1.47-5,.75-13.2,1.47a71,71,0,0,1-13.2-.24c-4.57-.43-6.86-.64-8.8-1.23S439.58,644.3,439.07,644.8Z"/><path class="cls-9" d="M438.82,644.8c-.39.53,1.37,2.66,3.18,4.16a18.6,18.6,0,0,0,8.07,3.66c3.45.76,6,.58,10.51.25,6.5-.48,9.62-1.62,10.51-2A14.54,14.54,0,0,0,477,647c.89-1,1.73-2,1.46-2.44-.61-1.14-5.95,2.06-14.18,2.93-2.19.23-5.61.07-12.46-.25-4.71-.21-6.25-.43-8.07-1C440.92,645.43,439.16,644.34,438.82,644.8Z"/><path class="cls-31" d="M469.13,637.71c-1,.77,1.05,3.19,1.47,9.53.22,3.37-.24,4.45.73,6.36.25.49,1.93,3.64,5.38,4.16a6,6,0,0,0,7.09-5.38,7.55,7.55,0,0,0-1-4.89,9.17,9.17,0,0,0-3.18-3.18C471.58,639,470,637,469.13,637.71Z"/><path class="cls-9" d="M471.73,641.1c-.23.13-.23.39.16,4.42.1.94.15,1.41.5,1.8a2.63,2.63,0,0,0,3.11.32,2.52,2.52,0,0,0,1.31-2.12c0-.38-.15-.9-1.48-2.13S472.43,640.68,471.73,641.1Z"/><path class="cls-31" d="M446.2,637.71c1,.77-1.05,3.19-1.47,9.53-.22,3.37.25,4.45-.73,6.36a7.74,7.74,0,0,1-5.38,4.16,6.38,6.38,0,0,1-4.89-1.23,6.45,6.45,0,0,1-2.2-4.15,7.62,7.62,0,0,1,1-4.89,9.17,9.17,0,0,1,3.18-3.18C443.75,639,445.3,637,446.2,637.71Z"/><path class="cls-9" d="M443.6,641.1c.23.13.23.39-.16,4.42a3,3,0,0,1-.49,1.8,2.63,2.63,0,0,1-3.11.32,2.47,2.47,0,0,1-1.31-2.12c0-.38.15-.9,1.47-2.13S442.91,640.68,443.6,641.1Z"/><circle class="cls-29" cx="517.5" cy="641.5" r="27.5"/><path class="cls-30" d="M498.07,644.8c-.17.16-.5.66.38,2.9a18.37,18.37,0,0,0,3.28,5.41c3.15,3.53,4.72,5.32,6.6,6.36a18,18,0,0,0,11.25,1.95,19.06,19.06,0,0,0,8.8-3.91A25,25,0,0,0,534,651.4c2.26-3.15,3.52-4.91,2.93-5.87-.89-1.47-5,.75-13.2,1.47a71,71,0,0,1-13.2-.24c-4.57-.43-6.86-.64-8.8-1.23S498.58,644.3,498.07,644.8Z"/><path class="cls-9" d="M497.82,644.8c-.39.53,1.37,2.66,3.18,4.16a18.6,18.6,0,0,0,8.07,3.66c3.45.76,6,.58,10.51.25,6.5-.48,9.62-1.62,10.51-2A14.54,14.54,0,0,0,536,647c.89-1,1.73-2,1.46-2.44-.61-1.14-5.95,2.06-14.18,2.93-2.19.23-5.61.07-12.46-.25-4.71-.21-6.25-.43-8.07-1C499.92,645.43,498.16,644.34,497.82,644.8Z"/><path class="cls-30" d="M504.46,629.65c.73-.69,2.94.58,5.22,1.89,3.1,1.8,4.66,2.69,4.74,4,.1,1.74-2.18,3.16-4.74,4.74-.23.15-4.2,2.58-4.74,1.9-.41-.5,1-2.77,2.84-4.27,1.15-.93,1.92-1.13,1.9-1.66,0-1-1.19-1.31-2.85-3.31C505.78,631.69,503.84,630.23,504.46,629.65Z"/><path class="cls-30" d="M531.37,629.65c-.73-.69-2.94.58-5.21,1.89-3.11,1.8-4.67,2.69-4.75,4-.1,1.74,2.18,3.16,4.75,4.74.22.15,4.19,2.58,4.74,1.9.4-.5-1-2.77-2.85-4.27-1.15-.93-1.91-1.13-1.89-1.66,0-1,1.18-1.31,2.84-3.31C530.05,631.69,532,630.23,531.37,629.65Z"/></g></svg>