<svg id="Layer_1" data-name="Layer 1" xmlns="http://www.w3.org/2000/svg" width="500" height="43" viewBox="0 0 500 43"><defs><style>.cls-1{fill:none;}.cls-2{fill:#e5e5ea;}.cls-3{fill:#bdc3c7;}.cls-4{fill:#7f8c8d;}</style></defs><title>besked_sprite</title><rect class="cls-1" x="202" y="-1" width="100" height="100"/><rect class="cls-1" x="300" y="-1" width="100" height="100"/><rect class="cls-1" x="400" y="-1" width="100" height="100"/><rect class="cls-1" y="-1.75" width="50" height="49.5"/><rect class="cls-1" x="50" y="-1.75" width="50" height="49.5"/><path class="cls-2" d="M97.61,42.82l-2.19-6.36-.06.19v-31A2.22,2.22,0,0,0,93.2,3.42H2.4A2.22,2.22,0,0,0,.24,5.69V40.63A2.22,2.22,0,0,0,2.4,42.9H93.2a1.77,1.77,0,0,0,.52-.08Z"/><ellipse class="cls-3" cx="47.1" cy="25.7" rx="5.23" ry="5.18"/><ellipse class="cls-3" cx="72.78" cy="25.7" rx="5.23" ry="5.18"/><ellipse class="cls-4" cx="22.93" cy="25.7" rx="5.23" ry="5.18"/><rect class="cls-1" x="100" y="-1.75" width="50" height="49.5"/><rect class="cls-1" x="150" y="-1.75" width="50" height="49.5"/><path class="cls-2" d="M197.61,42.82l-2.19-6.36-.06.19v-31a2.22,2.22,0,0,0-2.16-2.27H102.4a2.22,2.22,0,0,0-2.16,2.27V40.63a2.22,2.22,0,0,0,2.16,2.27h90.8a1.77,1.77,0,0,0,.52-.08Z"/><ellipse class="cls-4" cx="147.1" cy="25.7" rx="5.23" ry="5.18"/><ellipse class="cls-3" cx="172.78" cy="25.7" rx="5.23" ry="5.18"/><ellipse class="cls-3" cx="122.93" cy="25.7" rx="5.23" ry="5.18"/><rect class="cls-1" x="400" y="-1.75" width="50" height="49.5"/><rect class="cls-1" x="450" y="-1.75" width="50" height="49.5"/><path class="cls-2" d="M497.61,42.82l-2.19-6.36-.06.19v-31a2.22,2.22,0,0,0-2.16-2.27H402.4a2.22,2.22,0,0,0-2.16,2.27V40.63a2.22,2.22,0,0,0,2.16,2.27h90.8a1.77,1.77,0,0,0,.52-.08Z"/><ellipse class="cls-3" cx="447.1" cy="25.7" rx="5.23" ry="5.18"/><ellipse class="cls-3" cx="472.78" cy="25.7" rx="5.23" ry="5.18"/><ellipse class="cls-4" cx="422.93" cy="25.7" rx="5.23" ry="5.18"/><rect class="cls-1" x="200" y="-1.75" width="50" height="49.5"/><rect class="cls-1" x="250" y="-1.75" width="50" height="49.5"/><path class="cls-2" d="M297.61,42.82l-2.19-6.36-.06.19v-31a2.22,2.22,0,0,0-2.16-2.27H202.4a2.22,2.22,0,0,0-2.16,2.27V40.63a2.22,2.22,0,0,0,2.16,2.27h90.8a1.77,1.77,0,0,0,.52-.08Z"/><ellipse class="cls-3" cx="247.1" cy="25.7" rx="5.23" ry="5.18"/><ellipse class="cls-4" cx="272.78" cy="25.7" rx="5.23" ry="5.18"/><ellipse class="cls-3" cx="222.93" cy="25.7" rx="5.23" ry="5.18"/><rect class="cls-1" x="300" y="-1.75" width="50" height="49.5"/><rect class="cls-1" x="350" y="-1.75" width="50" height="49.5"/><path class="cls-2" d="M397.61,42.82l-2.19-6.36-.06.19v-31a2.22,2.22,0,0,0-2.16-2.27H302.4a2.22,2.22,0,0,0-2.16,2.27V40.63a2.22,2.22,0,0,0,2.16,2.27h90.8a1.77,1.77,0,0,0,.52-.08Z"/><ellipse class="cls-4" cx="347.1" cy="25.7" rx="5.23" ry="5.18"/><ellipse class="cls-3" cx="372.78" cy="25.7" rx="5.23" ry="5.18"/><ellipse class="cls-3" cx="322.93" cy="25.7" rx="5.23" ry="5.18"/></svg>