<svg id="Layer_1" data-name="Layer 1" xmlns="http://www.w3.org/2000/svg" width="1078.85" height="1920" viewBox="0 0 1078.85 1920"><defs><style>.cls-1{fill:#dcdfe6;}.cls-11,.cls-12,.cls-2{fill:#fff;}.cls-3{fill:#999;}.cls-4{fill:#bcc0cc;}.cls-10,.cls-5,.cls-9{fill:#343740;}.cls-6{fill:#a1a5b3;}.cls-19,.cls-7{fill:gray;}.cls-8{fill:#fefefe;}.cls-10,.cls-11,.cls-9{stroke:#fff;stroke-width:3px;}.cls-10,.cls-11,.cls-15,.cls-19,.cls-9{stroke-miterlimit:10;}.cls-10{opacity:0.64;}.cls-12{opacity:0.75;}.cls-13{fill:#ecf0f1;}.cls-14{fill:#3498db;}.cls-15{fill:#666;stroke:#666;opacity:0.35;}.cls-16{opacity:0.68;}.cls-17{fill:#4d4d4d;}.cls-18{fill:#ed1c24;}.cls-19{stroke:gray;}.cls-20{fill:#e6e7e8;}.cls-21{fill:#94909a;}</style></defs><title>easteregg</title><rect class="cls-1" x="1063.48" y="362.16" width="21.52" height="125.16"/><rect class="cls-1" width="1078.85" height="1920" rx="44.6" ry="44.6"/><rect class="cls-2" x="36.88" y="202.39" width="998.94" height="1517.89"/><rect class="cls-3" x="467.2" y="87.88" width="144.46" height="10.65" rx="2" ry="2"/><path class="cls-4" d="M543.6,1751c-42.2,0-76.4,31.27-76.4,69.85s34.2,69.86,76.4,69.86,76.4-31.28,76.4-69.86S585.79,1751,543.6,1751Zm0,130.6c-34.86,0-63.12-26.52-63.12-59.23s28.26-59.22,63.12-59.22,63.11,26.51,63.11,59.22S578.46,1881.6,543.6,1881.6Z"/><ellipse class="cls-3" cx="390.35" cy="93.2" rx="15.37" ry="13.31"/><rect class="cls-5" x="37" y="258.31" width="1001.9" height="1461.97"/><ellipse class="cls-1" cx="545.57" cy="35.95" rx="10.76" ry="9.32"/><ellipse class="cls-6" cx="539.5" cy="35.95" rx="10.76" ry="9.32"/><rect class="cls-5" x="37" y="202.39" width="1001.9" height="55.92"/><rect class="cls-3" x="1023.53" y="223.69" width="3.07" height="10.65"/><rect class="cls-7" x="971.27" y="218.36" width="52.25" height="21.3"/><rect class="cls-8" x="974.35" y="221.03" width="46.1" height="15.98"/><rect class="cls-8" x="1023.53" y="226.35" width="3.07" height="5.33"/><path class="cls-2" d="M103.88,238v-5.47H94.06v-2.75l10.25-14.22h2.38v14.52H110v2.45h-3.29V238Zm0-7.92V220l-7.17,10.14Z"/><path class="cls-2" d="M129,215.73a8.17,8.17,0,0,1,4.19,6.3h-3.08a5.57,5.57,0,0,0-2.33-3.66,8,8,0,0,0-4.45-1.15,7,7,0,0,0-5.37,2.39c-1.45,1.59-2.18,4-2.18,7.12a11.38,11.38,0,0,0,1.8,6.67q1.8,2.57,5.86,2.57a7.46,7.46,0,0,0,5.15-1.81q2-1.8,2.08-5.83h-7.19v-2.58h10.08V238h-2l-.75-2.95a11.7,11.7,0,0,1-2.79,2.4,10.52,10.52,0,0,1-5.21,1.16,10.11,10.11,0,0,1-7-2.64q-3.21-3.31-3.21-9.09c0-3.85,1-6.9,3.13-9.18a10,10,0,0,1,7.69-3.25A11.82,11.82,0,0,1,129,215.73Z"/><rect class="cls-8" x="57" y="221" width="7" height="18" rx="0.75" ry="0.75"/><rect class="cls-8" x="47" y="226" width="7" height="13" rx="0.75" ry="0.75"/><rect class="cls-8" x="66" y="217" width="7" height="22" rx="0.75" ry="0.75"/><rect class="cls-8" x="76" y="214" width="7" height="25" rx="0.75" ry="0.75"/><path class="cls-2" d="M915,226.38V225a7.66,7.66,0,0,0,2.79-.65,3.23,3.23,0,0,0,1.18-2.16h1.45v14.62h-2v-10.4Z"/><path class="cls-2" d="M934.48,224.45a10.43,10.43,0,0,1,1,5,11.87,11.87,0,0,1-.9,5,4.37,4.37,0,0,1-4.22,2.81,4.22,4.22,0,0,1-3.94-2.3,10.56,10.56,0,0,1-1.07-5.14,12.77,12.77,0,0,1,.64-4.3q1.21-3.34,4.38-3.34A4.33,4.33,0,0,1,934.48,224.45Zm-1.85,9.78c.56-.85.85-2.43.85-4.74a11.72,11.72,0,0,0-.62-4.12,2.34,2.34,0,0,0-2.39-1.61,2.5,2.5,0,0,0-2.38,1.53,10.64,10.64,0,0,0-.75,4.52,11.17,11.17,0,0,0,.48,3.61,2.62,2.62,0,0,0,4.81.81Z"/><path class="cls-2" d="M946.16,224.45a10.43,10.43,0,0,1,1,5,11.87,11.87,0,0,1-.9,5,4.37,4.37,0,0,1-4.22,2.81,4.22,4.22,0,0,1-3.94-2.3,10.56,10.56,0,0,1-1.07-5.14,12.77,12.77,0,0,1,.64-4.3q1.22-3.34,4.38-3.34A4.33,4.33,0,0,1,946.16,224.45Zm-1.85,9.78c.56-.85.85-2.43.85-4.74a11.72,11.72,0,0,0-.62-4.12,2.35,2.35,0,0,0-2.39-1.61,2.5,2.5,0,0,0-2.38,1.53,10.64,10.64,0,0,0-.75,4.52,11.17,11.17,0,0,0,.48,3.61,2.62,2.62,0,0,0,4.81.81Z"/><path class="cls-2" d="M954.82,223.59a3.58,3.58,0,0,1-2.54,6.1,3.58,3.58,0,1,1,2.54-6.1Zm-1,4a2.12,2.12,0,1,0-1.51.62A2.08,2.08,0,0,0,953.79,227.61Zm7.08-5.45H962l-8.21,15h-1.14Zm4,8.53a3.57,3.57,0,0,1-5.06,5,3.57,3.57,0,0,1,0-5,3.57,3.57,0,0,1,5.06,0Zm-1,4a2.08,2.08,0,0,0,.62-1.5,2,2,0,0,0-.62-1.49,2.12,2.12,0,0,0-3,0,2,2,0,0,0-.62,1.49,2.08,2.08,0,0,0,.62,1.5,2.15,2.15,0,0,0,3,0Z"/><ellipse class="cls-9" cx="534.84" cy="1547.61" rx="115.55" ry="115.39"/><ellipse class="cls-10" cx="534.84" cy="1250.33" rx="115.55" ry="115.39"/><ellipse class="cls-10" cx="534.84" cy="953.05" rx="115.55" ry="115.39"/><ellipse class="cls-10" cx="881.84" cy="1251.33" rx="115.55" ry="115.39"/><ellipse class="cls-10" cx="881.84" cy="954.05" rx="115.55" ry="115.39"/><ellipse class="cls-10" cx="194.84" cy="1246.33" rx="115.55" ry="115.39"/><path class="cls-2" d="M281.48,305.43a11.72,11.72,0,0,0,1.73,5.95q2.9,4.28,10.22,4.28a18,18,0,0,0,6-.94q5.22-1.82,5.22-6.5c0-2.35-.74-4-2.2-5a22.11,22.11,0,0,0-7-2.55l-5.83-1.32c-3.81-.86-6.51-1.8-8.09-2.84a9,9,0,0,1-4.1-8.06,12.4,12.4,0,0,1,4-9.52q4-3.72,11.37-3.72a19.75,19.75,0,0,1,11.5,3.27c3.15,2.17,4.73,5.66,4.73,10.44h-5.48a10.83,10.83,0,0,0-1.87-5.3q-2.67-3.37-9.06-3.37-5.16,0-7.41,2.17a6.79,6.79,0,0,0-2.26,5,4.92,4.92,0,0,0,2.64,4.63,39.26,39.26,0,0,0,7.82,2.34l6,1.38a18.46,18.46,0,0,1,6.74,2.72q4.1,3,4.1,8.76,0,7.16-5.2,10.22A23.23,23.23,0,0,1,293,320.58q-8,0-12.56-4.1T276,305.43Z"/><path class="cls-2" d="M316.87,276.28h5.07v25l13.53-13.33h6.74l-12,11.75,12.69,19.63h-6.74l-9.79-15.82-4.42,4v11.78h-5.07Z"/><path class="cls-2" d="M347.13,287.94h5v5.42a12.12,12.12,0,0,1,3-3.85,7.84,7.84,0,0,1,5.54-2.27l.5,0,1.2.12V293c-.31-.05-.6-.09-.87-.11s-.55,0-.86,0a7.5,7.5,0,0,0-6.12,2.56,8.93,8.93,0,0,0-2.14,5.9v18.05h-5.28Z"/><path class="cls-2" d="M367,276.28h5.36v6H367Zm0,11.81h5.36v31.23H367Z"/><path class="cls-2" d="M382.88,287.94l8.38,25.55L400,287.94h5.77L394,319.32h-5.62l-11.58-31.38Z"/><path class="cls-2" d="M443.79,300.31a2.87,2.87,0,0,0,2.43-1.53,4.67,4.67,0,0,0,.35-2,4.29,4.29,0,0,0-1.92-3.91,10.3,10.3,0,0,0-5.49-1.21q-4.14,0-5.86,2.22a7.22,7.22,0,0,0-1.26,3.66h-4.92c.09-3.86,1.35-6.55,3.76-8.07a15.48,15.48,0,0,1,8.39-2.27,17.18,17.18,0,0,1,9,2.11,7.18,7.18,0,0,1,3.43,6.56v18.08a2.35,2.35,0,0,0,.33,1.32,1.64,1.64,0,0,0,1.42.5,7.79,7.79,0,0,0,.79-.05c.3,0,.61-.07.94-.13v3.9a15.74,15.74,0,0,1-1.87.44,13.45,13.45,0,0,1-1.76.09,4.34,4.34,0,0,1-4-1.94,7.35,7.35,0,0,1-.9-2.9,13.39,13.39,0,0,1-4.63,3.66,14.29,14.29,0,0,1-6.65,1.56,9.91,9.91,0,0,1-7.14-2.66,8.8,8.8,0,0,1-2.77-6.63,8.54,8.54,0,0,1,2.73-6.77,13,13,0,0,1,7.15-3Zm-11.11,14.27a6.23,6.23,0,0,0,4,1.31A12,12,0,0,0,442,314.6a7.24,7.24,0,0,0,4.39-7v-4.25a8.81,8.81,0,0,1-2.49,1,21.92,21.92,0,0,1-3,.59l-3.19.41a12.13,12.13,0,0,0-4.31,1.2A4.68,4.68,0,0,0,431,311,4.36,4.36,0,0,0,432.68,314.58Z"/><path class="cls-2" d="M477.65,288.91a14.32,14.32,0,0,1,3.2,3.08V276.14h5.06v43.18h-4.74V315a11.45,11.45,0,0,1-4.37,4.19,12.6,12.6,0,0,1-5.77,1.28A11.7,11.7,0,0,1,462,316q-3.84-4.41-3.84-11.74a20.28,20.28,0,0,1,3.5-11.88,11.47,11.47,0,0,1,10-5A11.2,11.2,0,0,1,477.65,288.91Zm-11.83,23.53c1.42,2.26,3.71,3.39,6.85,3.39a7.21,7.21,0,0,0,6-3.14c1.57-2.1,2.36-5.12,2.36-9s-.81-6.9-2.43-8.81a7.59,7.59,0,0,0-6-2.85,7.93,7.93,0,0,0-6.46,3c-1.65,2-2.47,5-2.47,9A15.53,15.53,0,0,0,465.82,312.44Z"/><path class="cls-2" d="M511.23,289.2a14.62,14.62,0,0,1,3,3v-3.95h4.87v28.53a21.09,21.09,0,0,1-1.76,9.44q-3.28,6.38-12.39,6.38a15.18,15.18,0,0,1-8.53-2.27,8.88,8.88,0,0,1-3.87-7.1H498a6,6,0,0,0,1.52,3.25q1.78,1.75,5.62,1.76,6.07,0,7.94-4.28,1.13-2.52,1-9a10.41,10.41,0,0,1-3.81,3.57,12.68,12.68,0,0,1-5.89,1.17,12.54,12.54,0,0,1-8.92-3.62q-3.82-3.61-3.82-12,0-7.89,3.85-12.31a11.91,11.91,0,0,1,9.3-4.42A11.47,11.47,0,0,1,511.23,289.2Zm.64,5.66a7.67,7.67,0,0,0-6.12-2.81,7.57,7.57,0,0,0-7.62,5.21,20.56,20.56,0,0,0-1.08,7.3c0,3.53.71,6.22,2.15,8.07A7,7,0,0,0,505,315.4a8.11,8.11,0,0,0,8-5.13,16.55,16.55,0,0,0,1.29-6.77C514.27,299.62,513.47,296.73,511.87,294.86Z"/><path class="cls-2" d="M543.89,300.31a2.87,2.87,0,0,0,2.43-1.53,4.5,4.5,0,0,0,.36-2,4.29,4.29,0,0,0-1.92-3.91,10.32,10.32,0,0,0-5.5-1.21q-4.12,0-5.86,2.22a7.41,7.41,0,0,0-1.26,3.66h-4.92q.15-5.79,3.77-8.07a15.48,15.48,0,0,1,8.39-2.27,17.18,17.18,0,0,1,9,2.11,7.17,7.17,0,0,1,3.42,6.56v18.08a2.35,2.35,0,0,0,.34,1.32,1.63,1.63,0,0,0,1.42.5c.23,0,.5,0,.79-.05s.61-.07.94-.13v3.9a15.8,15.8,0,0,1-1.88.44,13.28,13.28,0,0,1-1.75.09,4.34,4.34,0,0,1-4-1.94,7.5,7.5,0,0,1-.91-2.9,13.2,13.2,0,0,1-4.63,3.66,14.23,14.23,0,0,1-6.65,1.56,9.88,9.88,0,0,1-7.13-2.66,8.76,8.76,0,0,1-2.77-6.63,8.54,8.54,0,0,1,2.73-6.77,13,13,0,0,1,7.14-3Zm-11.1,14.27a6.22,6.22,0,0,0,4,1.31,12,12,0,0,0,5.39-1.29,7.25,7.25,0,0,0,4.4-7v-4.25a9.06,9.06,0,0,1-2.49,1,22.23,22.23,0,0,1-3,.59l-3.19.41a12.07,12.07,0,0,0-4.31,1.2,4.68,4.68,0,0,0-2.43,4.39A4.36,4.36,0,0,0,532.79,314.58Z"/><path class="cls-2" d="M560.45,287.94h5v4.46a14,14,0,0,1,4.71-4,12.6,12.6,0,0,1,5.54-1.2q6.67,0,9,4.66a16.52,16.52,0,0,1,1.29,7.29v20.13h-5.36V299.55a10.64,10.64,0,0,0-.85-4.63,5.15,5.15,0,0,0-5.1-2.93,10.47,10.47,0,0,0-3.07.38,7.89,7.89,0,0,0-3.81,2.58,7.8,7.8,0,0,0-1.72,3.2,22,22,0,0,0-.39,4.74v16.43h-5.27Z"/><path class="cls-2" d="M611.33,289.2a14.41,14.41,0,0,1,3,3v-3.95h4.86v28.53c0,4-.58,7.13-1.75,9.44q-3.29,6.38-12.4,6.38a15.12,15.12,0,0,1-8.52-2.27,8.82,8.82,0,0,1-3.87-7.1h5.36a6,6,0,0,0,1.53,3.25q1.78,1.75,5.62,1.76,6.06,0,7.94-4.28,1.11-2.52,1-9a10.41,10.41,0,0,1-3.81,3.57,12.71,12.71,0,0,1-5.89,1.17,12.54,12.54,0,0,1-8.92-3.62q-3.82-3.61-3.83-12,0-7.89,3.86-12.31a11.91,11.91,0,0,1,9.3-4.42A11.41,11.41,0,0,1,611.33,289.2Zm.65,5.66a7.67,7.67,0,0,0-6.12-2.81,7.56,7.56,0,0,0-7.62,5.21,20.53,20.53,0,0,0-1.09,7.3q0,5.29,2.16,8.07a7,7,0,0,0,5.78,2.77,8.12,8.12,0,0,0,8-5.13,16.55,16.55,0,0,0,1.29-6.77C614.38,299.62,613.58,296.73,612,294.86Z"/><path class="cls-2" d="M630.32,309.48a7.54,7.54,0,0,0,1.32,4c1.32,1.7,3.63,2.55,6.91,2.55a10.23,10.23,0,0,0,5.16-1.28,4.22,4.22,0,0,0,2.22-3.94,3.36,3.36,0,0,0-1.78-3.07,21.57,21.57,0,0,0-4.52-1.5l-4.18-1a20.29,20.29,0,0,1-5.92-2.23,6.64,6.64,0,0,1-3.4-5.92,9,9,0,0,1,3.21-7.2,12.77,12.77,0,0,1,8.62-2.76q7.1,0,10.23,4.16a9,9,0,0,1,1.9,5.69h-5a6,6,0,0,0-1.26-3.25q-1.82-2.09-6.3-2.08a7.51,7.51,0,0,0-4.52,1.14,3.57,3.57,0,0,0-1.54,3,3.71,3.71,0,0,0,2,3.28,12.11,12.11,0,0,0,3.46,1.29l3.49.85q5.67,1.36,7.61,2.66,3.07,2,3.08,6.36a9.71,9.71,0,0,1-3.18,7.24q-3.18,3-9.68,3-7,0-9.92-3.18a12.05,12.05,0,0,1-3.12-7.86Z"/><path class="cls-2" d="M657.07,276.28h5.06v25l13.54-13.33h6.74l-12,11.75,12.68,19.63h-6.74l-9.78-15.82-4.43,4v11.78h-5.06Z"/><path class="cls-2" d="M710.09,291.08q4.2,4,4.19,11.89,0,7.59-3.69,12.54t-11.45,4.95a12.94,12.94,0,0,1-10.29-4.38Q685,311.7,685,304.32q0-7.9,4-12.6A13.47,13.47,0,0,1,699.84,287,14.18,14.18,0,0,1,710.09,291.08ZM706.83,312a19.74,19.74,0,0,0,1.95-8.83,15.71,15.71,0,0,0-1.41-7.15c-1.49-2.89-4-4.33-7.68-4.33q-4.83,0-7,3.69a17.15,17.15,0,0,0-2.2,8.9,14.91,14.91,0,0,0,2.2,8.35q2.21,3.35,7,3.34Q704.88,315.92,706.83,312Z"/><path class="cls-2" d="M737.87,288.91a14.31,14.31,0,0,1,3.19,3.08V276.14h5.07v43.18h-4.75V315a11.43,11.43,0,0,1-4.36,4.19,12.63,12.63,0,0,1-5.77,1.28,11.72,11.72,0,0,1-9.09-4.4q-3.82-4.41-3.83-11.74a20.21,20.21,0,0,1,3.5-11.88,11.45,11.45,0,0,1,10-5A11.23,11.23,0,0,1,737.87,288.91ZM726,312.44c1.43,2.26,3.71,3.39,6.86,3.39a7.22,7.22,0,0,0,6-3.14c1.57-2.1,2.36-5.12,2.36-9s-.81-6.9-2.44-8.81a7.58,7.58,0,0,0-6-2.85,7.92,7.92,0,0,0-6.46,3c-1.65,2-2.48,5-2.48,9A15.62,15.62,0,0,0,726,312.44Z"/><path class="cls-2" d="M773.46,288.81a12,12,0,0,1,4.78,4.06,14,14,0,0,1,2.11,5.53,36.48,36.48,0,0,1,.47,6.92h-23a13.5,13.5,0,0,0,2.25,7.66q2.11,2.88,6.54,2.88a8.43,8.43,0,0,0,6.59-2.72,9.15,9.15,0,0,0,2-3.66h5.19a10.88,10.88,0,0,1-1.37,3.85,13.54,13.54,0,0,1-2.59,3.47,12.23,12.23,0,0,1-5.95,3.17,18.11,18.11,0,0,1-4.3.46,13.2,13.2,0,0,1-9.93-4.26q-4.08-4.26-4.08-11.94T756.27,292A13.5,13.5,0,0,1,767,287.24,14.25,14.25,0,0,1,773.46,288.81Zm1.94,12.32a13.76,13.76,0,0,0-1.5-5.48c-1.44-2.54-3.86-3.81-7.23-3.81a8,8,0,0,0-6.1,2.62,9.93,9.93,0,0,0-2.61,6.67Z"/><ellipse class="cls-11" cx="364.85" cy="402" rx="40.56" ry="40.5"/><ellipse class="cls-11" cx="487.85" cy="402" rx="40.56" ry="40.5"/><ellipse class="cls-9" cx="611.85" cy="402" rx="40.56" ry="40.5"/><ellipse class="cls-9" cx="725.85" cy="402" rx="40.56" ry="40.5"/><path class="cls-2" d="M514.61,925.67q1,9,8.38,12.48a20.24,20.24,0,0,0,8.67,1.75q9.38,0,13.88-6a21.48,21.48,0,0,0,4.52-13.25q0-8.77-5.36-13.59a18.65,18.65,0,0,0-12.87-4.8,19.32,19.32,0,0,0-9.34,2.11,20,20,0,0,0-6.65,5.85l-9.14-.52,6.38-45.18h43.6v10.2H521l-3.57,23.32a25.77,25.77,0,0,1,5.57-3.34,28.22,28.22,0,0,1,10.84-1.94,27.77,27.77,0,0,1,19.57,7.45,24.6,24.6,0,0,1,8,18.86,32.38,32.38,0,0,1-7.35,21q-7.35,9.07-23.47,9.08a29.86,29.86,0,0,1-18.13-5.77q-7.89-5.77-8.82-17.72Z"/><path class="cls-2" d="M900.48,870.09q5.53,7.29,5.54,15H895.59a19.22,19.22,0,0,0-3-7.79q-3.81-5.28-11.54-5.28-8.85,0-14.07,8.18t-5.8,23.4a23,23,0,0,1,9.14-8,26.25,26.25,0,0,1,11.25-2.35,27.36,27.36,0,0,1,18.4,6.74q7.86,6.74,7.85,20.1a30.5,30.5,0,0,1-7.44,20.24q-7.44,8.82-21.21,8.82a27.19,27.19,0,0,1-20.33-8.94q-8.55-8.92-8.56-30.08,0-15.65,3.81-26.55,7.33-20.85,26.78-20.86Q895,862.79,900.48,870.09Zm-7.91,64.16A21.65,21.65,0,0,0,896.7,921,22.61,22.61,0,0,0,893,908.76q-3.69-5.82-13.42-5.83a17.53,17.53,0,0,0-11.92,4.51q-5.13,4.51-5.13,13.6a19.78,19.78,0,0,0,4.66,13.38q4.65,5.43,12.92,5.42T892.57,934.25Z"/><path class="cls-2" d="M224.54,1160.55v9.2q-4,3.93-10.75,13.65a138.34,138.34,0,0,0-11.87,21,142.64,142.64,0,0,0-7.73,20q-1.71,5.81-4.4,18.69H178.13q4-24,17.58-47.81a151.73,151.73,0,0,1,16.87-24.08h-46.4v-10.61Z"/><path class="cls-2" d="M511.21,1193q-4.63-4.68-4.63-12.19a21.89,21.89,0,0,1,6.8-16.11q6.79-6.74,19.27-6.74,12.08,0,18.93,6.36t6.86,14.85q0,7.86-4,12.72a24,24,0,0,1-6.91,5.39,26.85,26.85,0,0,1,8.2,5.51q5.57,5.85,5.57,15.23a26,26,0,0,1-7.44,18.78q-7.46,7.71-21,7.7-12.24,0-20.71-6.65t-8.47-19.3a21.45,21.45,0,0,1,14.41-21.16A20.87,20.87,0,0,1,511.21,1193Zm34,37.94q4.85-4,4.84-11.81,0-8.14-5-12.36t-12.78-4.22q-7.56,0-12.33,4.31t-4.78,11.92a16.23,16.23,0,0,0,4.37,11.34q4.37,4.77,13.5,4.77A18.54,18.54,0,0,0,545.22,1230.89Zm-1.9-41.48a12.63,12.63,0,0,0,3.92-9.29,12.25,12.25,0,0,0-3.75-8.62q-3.75-3.91-11.42-3.92t-11,3.92a13.66,13.66,0,0,0-3.4,9.2,11,11,0,0,0,4.4,9.26,16.64,16.64,0,0,0,10.37,3.34Q539.4,1193.3,543.32,1189.41Z"/><path class="cls-2" d="M869.72,1222.78q.46,8.73,6.74,12.07a14.94,14.94,0,0,0,7.26,1.76q7.56,0,12.9-6.3t7.55-25.58a19.48,19.48,0,0,1-8.7,7.82,27.56,27.56,0,0,1-11.16,2.26q-12.13,0-19.19-7.56t-7.06-19.45a31.13,31.13,0,0,1,7-20.1q7-8.67,20.57-8.67,18.35,0,25.31,16.52,3.87,9.09,3.87,22.74,0,15.4-4.63,27.3-7.68,19.8-26,19.81-12.3,0-18.69-6.45a22.07,22.07,0,0,1-6.38-16.17Zm27.45-21.36q5.19-4.12,5.19-14.44,0-9.26-4.66-13.8a16.29,16.29,0,0,0-11.87-4.54q-7.73,0-12.27,5.18T869,1187.68q0,8.21,4,13t12.72,4.83A18,18,0,0,0,897.17,1201.42Z"/><path class="cls-2" d="M554.8,1471.56q5.63,10.38,5.62,28.42,0,17.12-5.09,28.3-7.4,16.07-24.14,16.06-15.12,0-22.5-13.13-6.17-10.95-6.16-29.41,0-14.29,3.7-24.55,6.9-19.11,25-19.1Q547.53,1458.15,554.8,1471.56Zm-10.61,55.9q4.88-7.26,4.87-27.07,0-14.3-3.52-23.52t-13.65-9.23q-9.32,0-13.62,8.76T514,1502.21q0,12.82,2.75,20.62,4.23,11.89,14.42,11.9Q539.34,1534.73,544.19,1527.46Z"/><path class="cls-12" d="M813.93,1267.12l6.49,28,7.78-28h5.07l7.78,28,6.49-28h5.11l-9,34.43h-4.9L830.76,1273l-8,28.55h-4.9l-9-34.43Z"/><path class="cls-12" d="M859.91,1301.55h-5.62l12.33-17.65-11.56-16.78h5.84l8.79,13.17,8.72-13.17H884l-11.55,16.78,12.11,17.65h-5.79l-9.28-14.16Z"/><path class="cls-12" d="M886.3,1267.12h5.44l9.89,16.54,9.89-16.54H917l-13,20.55v13.88h-4.67v-13.88Z"/><path class="cls-12" d="M918.44,1297.68l21.11-26.46H920v-4.1h25.57v4l-21.23,26.32h21.23v4.1H918.44Z"/><path class="cls-12" d="M514.71,1275.12v4.1h-11.6v30.33h-4.73v-30.33H486.77v-4.1Z"/><path class="cls-12" d="M524,1275.12v21.28a12.46,12.46,0,0,0,1.41,6.23q2.09,3.75,7,3.75,5.92,0,8.06-4.05a13,13,0,0,0,1.15-5.93v-21.28h4.73v19.33q0,6.36-1.71,9.78-3.13,6.23-11.86,6.23T521,1304.23c-1.14-2.28-1.72-5.54-1.72-9.78v-19.33Z"/><path class="cls-12" d="M556.36,1275.12l9.89,29.32,9.77-29.32h5.23l-12.56,34.43h-5l-12.54-34.43Z"/><path class="cls-12" d="M125.1,1267.12h15.49a10.48,10.48,0,0,1,7.41,2.59,9.36,9.36,0,0,1,2.81,7.27,10.53,10.53,0,0,1-2.51,7c-1.67,2-4.24,3-7.71,3H129.77v14.56H125.1Zm18.19,4.73a10.24,10.24,0,0,0-4.24-.72h-9.28v11.92h9.28a8.85,8.85,0,0,0,5.09-1.33q2-1.34,2-4.71Q146.1,1273.22,143.29,1271.85Z"/><path class="cls-12" d="M157.23,1267.12h15.94a15.78,15.78,0,0,1,6.49,1.15c3.24,1.46,4.86,4.18,4.86,8.13a8.48,8.48,0,0,1-4.86,8.23,7,7,0,0,1,3,2.15,7.77,7.77,0,0,1,1.14,4.34l.16,4.61a14.45,14.45,0,0,0,.33,2.93,2.86,2.86,0,0,0,1.5,2.11v.78h-5.72a4.42,4.42,0,0,1-.38-1.15,22.73,22.73,0,0,1-.23-2.72l-.28-5.74q-.16-3.37-2.51-4.53a10.4,10.4,0,0,0-4.19-.63H161.9v14.77h-4.67Zm15.45,15.77a9.06,9.06,0,0,0,5.19-1.31c1.27-.88,1.91-2.45,1.91-4.74q0-3.67-2.67-5a8.72,8.72,0,0,0-3.82-.7H161.9v11.76Z"/><path class="cls-12" d="M222.84,1301.45l-2.35,2.84-5.32-4.06a19.39,19.39,0,0,1-4.16,1.69,18,18,0,0,1-4.88.63q-8,0-12.57-5.25a20.09,20.09,0,0,1-4-12.79,20.4,20.4,0,0,1,3.47-12q4.46-6.37,13.18-6.37,9.11,0,13.5,5.86,3.42,4.57,3.42,11.69a25,25,0,0,1-.82,6.4,16.53,16.53,0,0,1-4.2,7.64Zm-13.43-3.27a5.81,5.81,0,0,0,2.2-.78l-3.77-3,2.34-2.89,4.5,3.49a12.9,12.9,0,0,0,2.89-5.46,23.55,23.55,0,0,0,.77-5.79q0-6.06-3.18-9.77a10.83,10.83,0,0,0-8.68-3.7,11.39,11.39,0,0,0-8.84,3.55q-3.25,3.55-3.26,10.93,0,6.21,3.13,9.89t9.18,3.68A16.72,16.72,0,0,0,209.41,1298.18Z"/><path class="cls-12" d="M231.72,1290.44a9.46,9.46,0,0,0,1.38,4.76q2.33,3.42,8.18,3.42a14.44,14.44,0,0,0,4.78-.75q4.17-1.45,4.17-5.21a4.48,4.48,0,0,0-1.75-4,17.88,17.88,0,0,0-5.58-2l-4.67-1.06a20.83,20.83,0,0,1-6.46-2.27,7.21,7.21,0,0,1-3.29-6.45,9.88,9.88,0,0,1,3.22-7.61q3.21-3,9.09-3a15.82,15.82,0,0,1,9.2,2.61q3.78,2.63,3.78,8.36h-4.38a8.53,8.53,0,0,0-1.5-4.24c-1.42-1.8-3.84-2.7-7.24-2.7q-4.12,0-5.93,1.74a5.43,5.43,0,0,0-1.81,4,4,4,0,0,0,2.11,3.7,31.07,31.07,0,0,0,6.26,1.88l4.83,1.1a14.65,14.65,0,0,1,5.39,2.18,8.14,8.14,0,0,1,3.28,7q0,5.73-4.16,8.18a18.61,18.61,0,0,1-9.67,2.46q-6.42,0-10-3.28a11,11,0,0,1-3.56-8.83Z"/><path class="cls-12" d="M832.54,985.12h6.68l9.89,29.11,9.82-29.11h6.61v34.43h-4.43V999.23c0-.71,0-1.87,0-3.5s0-3.36,0-5.22l-9.82,29h-4.61l-9.89-29v1c0,.85,0,2.13,0,3.86s.06,3,.06,3.81v20.32h-4.45Z"/><path class="cls-12" d="M872.64,985.12h5.51L895.54,1013V985.12H900v34.43h-5.23l-17.65-27.87v27.87h-4.45Z"/><path class="cls-12" d="M935.66,990q3.44,4.58,3.43,11.69,0,7.72-3.92,12.82-4.59,6-13.1,6-8,0-12.49-5.25-4.05-5.06-4.06-12.79a20.4,20.4,0,0,1,3.47-12q4.46-6.37,13.17-6.37Q931.28,984.18,935.66,990ZM931.55,1012a18.75,18.75,0,0,0,2.75-10.16q0-6.06-3.17-9.77a10.83,10.83,0,0,0-8.68-3.7,11.29,11.29,0,0,0-8.72,3.67q-3.37,3.66-3.38,10.81a15.81,15.81,0,0,0,2.9,9.65q2.89,3.91,9.38,3.92Q928.8,1016.38,931.55,1012Z"/><path class="cls-12" d="M510.55,1000.28a14.53,14.53,0,0,1-1.28,6.77q-2.4,4.41-9.1,4.41a10.55,10.55,0,0,1-6.61-2.1c-1.83-1.4-2.74-3.88-2.74-7.46v-2.46h4.38v2.46a6.21,6.21,0,0,0,1.26,4.23,5,5,0,0,0,3.9,1.42c2.48,0,4.11-.85,4.87-2.56q.7-1.56.71-5.93V976.12h4.61Z"/><path class="cls-12" d="M517.66,976.12h4.54V992.9L539,976.12h6.45L531.11,990l14.72,20.56h-6.07l-12-17.28-5.51,5.28v12h-4.54Z"/><path class="cls-12" d="M549.67,976.12h4.67v30.33h17.43v4.1h-22.1Z"/><path class="cls-13" d="M448.56,273.57A16.31,16.31,0,0,0,457,276c4.84,0,7.66-2.64,7.66-6.45,0-3.53-1.95-5.54-6.9-7.5-6-2.19-9.67-5.38-9.67-10.71,0-5.88,4.73-10.25,11.84-10.25a16.27,16.27,0,0,1,8.1,1.85l-1.3,4a14.3,14.3,0,0,0-7-1.79c-5,0-6.9,3.08-6.9,5.65,0,3.53,2.23,5.27,7.28,7.29,6.2,2.46,9.35,5.55,9.35,11.09,0,5.83-4.19,10.87-12.82,10.87-3.54,0-7.39-1.06-9.35-2.41Z"/><path class="cls-13" d="M500,265.73c0,10-6.74,14.4-13.09,14.4-7.12,0-12.61-5.38-12.61-13.95,0-9.08,5.76-14.4,13-14.4C494.84,251.78,500,257.44,500,265.73Zm-20.86.28c0,5.94,3.31,10.42,8,10.42s8-4.43,8-10.53c0-4.6-2.23-10.43-7.88-10.43S479.09,260.85,479.09,266Z"/><path class="cls-13" d="M506.47,279.51V256.15h-3.7v-3.76h3.7v-1.45c0-7.18,4.07-11.83,11.46-11.83a12.85,12.85,0,0,1,6.68,1.8l-1.36,3.75a9.81,9.81,0,0,0-5.54-1.57c-5.05,0-6.52,3.64-6.52,8v1.34h15.27v27.12h-4.73V256.15H511.19v23.36Z"/><path class="cls-13" d="M537.05,266.85c.11,6.67,4.24,9.41,9,9.41a16.75,16.75,0,0,0,7.28-1.4l.81,3.53a20.61,20.61,0,0,1-8.74,1.68c-8.1,0-12.93-5.49-12.93-13.67s4.67-14.62,12.33-14.62c8.58,0,10.86,7.78,10.86,12.77a18.27,18.27,0,0,1-.16,2.3Zm14-3.53c0-3.14-1.25-8-6.63-8-4.84,0-7,4.59-7.33,8Z"/><rect class="cls-14" x="40" y="202" width="999" height="1518"/><rect class="cls-13" x="40" y="332.74" width="999" height="1387.26" rx="49" ry="49"/><path class="cls-13" d="M450.33,273.57a16.24,16.24,0,0,0,8.45,2.47c4.82,0,7.63-2.64,7.63-6.45,0-3.53-2-5.54-6.88-7.5-5.95-2.19-9.64-5.38-9.64-10.71,0-5.88,4.71-10.25,11.81-10.25a16.14,16.14,0,0,1,8.07,1.85l-1.3,4a14.19,14.19,0,0,0-6.93-1.79c-5,0-6.88,3.08-6.88,5.65,0,3.53,2.22,5.27,7.26,7.29,6.17,2.46,9.31,5.55,9.31,11.09,0,5.83-4.17,10.87-12.78,10.87-3.52,0-7.37-1.06-9.32-2.41Z"/><path class="cls-13" d="M501.57,265.73c0,10-6.72,14.4-13.06,14.4-7.09,0-12.57-5.38-12.57-13.95,0-9.08,5.75-14.4,13-14.4C496.47,251.78,501.57,257.44,501.57,265.73Zm-20.8.28c0,5.94,3.3,10.42,8,10.42s8-4.43,8-10.53c0-4.6-2.22-10.43-7.85-10.43S480.77,260.85,480.77,266Z"/><path class="cls-13" d="M508.06,279.51V256.15h-3.68v-3.76h3.68v-1.45c0-7.18,4.07-11.83,11.43-11.83a12.74,12.74,0,0,1,6.66,1.8l-1.35,3.75a9.79,9.79,0,0,0-5.52-1.57c-5,0-6.51,3.64-6.51,8v1.34H528v27.12h-4.72V256.15H512.77v23.36Z"/><path class="cls-13" d="M538.56,266.85c.1,6.67,4.22,9.41,9,9.41a16.69,16.69,0,0,0,7.26-1.4l.81,3.53a20.54,20.54,0,0,1-8.72,1.68c-8.07,0-12.89-5.49-12.89-13.67s4.65-14.62,12.29-14.62c8.56,0,10.84,7.78,10.84,12.77a17.88,17.88,0,0,1-.17,2.3Zm14-3.53c.06-3.14-1.24-8-6.61-8-4.82,0-6.93,4.59-7.31,8Z"/><rect class="cls-2" x="58.05" y="232.09" width="90.27" height="13.49" rx="6.5" ry="6.5"/><rect class="cls-2" x="58.05" y="253.88" width="90.27" height="13.49" rx="6.5" ry="6.5"/><rect class="cls-2" x="58.05" y="277.74" width="90.27" height="13.49" rx="6.5" ry="6.5"/><path class="cls-2" d="M1015.11,264.54l-37.65,30.08a4.41,4.41,0,0,1-5.79-.34h0A3.5,3.5,0,0,1,972,289L1009.7,259a4.4,4.4,0,0,1,5.79.34h0A3.49,3.49,0,0,1,1015.11,264.54Z"/><path class="cls-2" d="M1010,264.39l-36.7-31a3.5,3.5,0,0,1-.2-5.27h0a4.4,4.4,0,0,1,5.79-.18l36.7,31a3.49,3.49,0,0,1,.21,5.26h0A4.41,4.41,0,0,1,1010,264.39Z"/><rect class="cls-2" x="40" y="1543.61" width="999" height="176.39"/><line class="cls-15" x1="40" y1="1618.32" x2="1039" y2="1620.39"/><g class="cls-16"><path class="cls-17" d="M54.18,1589.41a7.6,7.6,0,0,0,1,3.7q1.76,2.66,6.16,2.66a10.52,10.52,0,0,0,3.59-.58c2.1-.76,3.14-2.11,3.14-4a3.55,3.55,0,0,0-1.32-3.12,13,13,0,0,0-4.2-1.59l-3.5-.82a15.22,15.22,0,0,1-4.87-1.77,5.65,5.65,0,0,1-2.47-5,7.85,7.85,0,0,1,2.42-5.93,9.51,9.51,0,0,1,6.84-2.32,11.58,11.58,0,0,1,6.92,2c1.9,1.35,2.84,3.52,2.84,6.5H67.48a6.84,6.84,0,0,0-1.13-3.3q-1.6-2.1-5.45-2.1c-2.07,0-3.55.45-4.46,1.35a4.32,4.32,0,0,0-1.36,3.14,3.09,3.09,0,0,0,1.59,2.88,22.91,22.91,0,0,0,4.71,1.46l3.63.86a10.8,10.8,0,0,1,4,1.69,6.43,6.43,0,0,1,2.47,5.46q0,4.44-3.13,6.36a13.61,13.61,0,0,1-7.27,1.92q-4.83,0-7.56-2.56a8.75,8.75,0,0,1-2.68-6.87Z"/><path class="cls-17" d="M87.31,1579.06a7.28,7.28,0,0,1,2.88,2.52,9.18,9.18,0,0,1,1.27,3.45,24.05,24.05,0,0,1,.28,4.3H77.9a8.5,8.5,0,0,0,1.36,4.77,4.47,4.47,0,0,0,3.93,1.8,5,5,0,0,0,4-1.7,5.56,5.56,0,0,0,1.2-2.28h3.12a6.77,6.77,0,0,1-.82,2.4,8.34,8.34,0,0,1-1.56,2.16,7.21,7.21,0,0,1-3.58,2,10.18,10.18,0,0,1-2.59.3,7.81,7.81,0,0,1-6-2.66c-1.64-1.77-2.45-4.25-2.45-7.43A11.48,11.48,0,0,1,77,1581a8,8,0,0,1,6.46-2.94A8.34,8.34,0,0,1,87.31,1579.06Zm1.17,7.67a8.8,8.8,0,0,0-.9-3.42,4.58,4.58,0,0,0-4.36-2.37,4.73,4.73,0,0,0-3.66,1.64,6.21,6.21,0,0,0-1.57,4.15Z"/><path class="cls-17" d="M95.63,1578.52h3v2.77a8.53,8.53,0,0,1,2.84-2.46,7.34,7.34,0,0,1,3.33-.75q4,0,5.43,2.9a10.56,10.56,0,0,1,.78,4.54v12.53H107.8v-12.31a6.88,6.88,0,0,0-.51-2.88,3.08,3.08,0,0,0-3.07-1.82,6,6,0,0,0-1.85.23,4.74,4.74,0,0,0-2.29,1.61,4.88,4.88,0,0,0-1,2,13.83,13.83,0,0,0-.24,3v10.23H95.63Z"/><path class="cls-17" d="M126.14,1579.12a8.57,8.57,0,0,1,1.92,1.92v-9.87h3.05v26.88h-2.86v-2.72a6.88,6.88,0,0,1-2.62,2.61,7.3,7.3,0,0,1-3.48.81,7,7,0,0,1-5.46-2.75,11,11,0,0,1-2.31-7.3,12.94,12.94,0,0,1,2.1-7.4,6.84,6.84,0,0,1,6-3.13A6.59,6.59,0,0,1,126.14,1579.12ZM119,1593.77a4.47,4.47,0,0,0,4.13,2.11,4.28,4.28,0,0,0,3.62-2,9.48,9.48,0,0,0,1.42-5.63q0-3.69-1.46-5.48a4.52,4.52,0,0,0-3.62-1.77,4.71,4.71,0,0,0-3.88,1.89,8.88,8.88,0,0,0-1.49,5.58A10,10,0,0,0,119,1593.77Z"/><path class="cls-17" d="M157.59,1579.06a7.18,7.18,0,0,1,2.87,2.52,8.85,8.85,0,0,1,1.27,3.45,22.93,22.93,0,0,1,.29,4.3H148.18a8.5,8.5,0,0,0,1.35,4.77,4.5,4.5,0,0,0,3.94,1.8,5,5,0,0,0,4-1.7,5.56,5.56,0,0,0,1.2-2.28h3.12a6.77,6.77,0,0,1-.82,2.4,8.34,8.34,0,0,1-1.56,2.16,7.26,7.26,0,0,1-3.58,2,10.24,10.24,0,0,1-2.59.3,7.85,7.85,0,0,1-6-2.66q-2.44-2.65-2.45-7.43a11.48,11.48,0,0,1,2.47-7.64,8,8,0,0,1,6.45-2.94A8.41,8.41,0,0,1,157.59,1579.06Zm1.16,7.67a8.64,8.64,0,0,0-.89-3.42,4.59,4.59,0,0,0-4.36-2.37,4.76,4.76,0,0,0-3.67,1.64,6.31,6.31,0,0,0-1.57,4.15Z"/><path class="cls-17" d="M165.91,1578.52h3v2.77a8.53,8.53,0,0,1,2.84-2.46,7.34,7.34,0,0,1,3.33-.75q4,0,5.43,2.9a10.56,10.56,0,0,1,.78,4.54v12.53h-3.23v-12.31a6.88,6.88,0,0,0-.51-2.88,3.09,3.09,0,0,0-3.07-1.82,6,6,0,0,0-1.85.23,4.7,4.7,0,0,0-2.29,1.61,4.91,4.91,0,0,0-1,2,14.65,14.65,0,0,0-.23,3v10.23h-3.18Z"/><path class="cls-17" d="M208.5,1579.56q2,1.61,2.41,5.52h-3.09a6,6,0,0,0-1.28-3,4,4,0,0,0-3.23-1.19A4.47,4.47,0,0,0,199,1584a12.65,12.65,0,0,0-.84,4.91,9.46,9.46,0,0,0,1.19,4.94,4.55,4.55,0,0,0,6.91.76,6.9,6.9,0,0,0,1.59-3.42h3.09a8.67,8.67,0,0,1-2.65,5.68,8,8,0,0,1-5.41,1.8,7.15,7.15,0,0,1-5.91-2.8,11,11,0,0,1-2.2-7q0-5.14,2.42-8a7.7,7.7,0,0,1,6.15-2.87A8,8,0,0,1,208.5,1579.56Z"/><path class="cls-17" d="M214.08,1571.17h3.18v10a9.34,9.34,0,0,1,2-2.08,6.72,6.72,0,0,1,3.83-1c2.74,0,4.59,1,5.57,3a10.4,10.4,0,0,1,.79,4.5v12.53h-3.26v-12.31a7,7,0,0,0-.53-3.16,3.34,3.34,0,0,0-3.24-1.6,5.32,5.32,0,0,0-3.58,1.4q-1.61,1.41-1.6,5.31v10.36h-3.18Z"/><path class="cls-17" d="M244.28,1586.21a1.72,1.72,0,0,0,1.47-.94A3,3,0,0,0,246,1584a2.71,2.71,0,0,0-1.16-2.44,6.06,6.06,0,0,0-3.3-.75,4.15,4.15,0,0,0-3.53,1.38,4.66,4.66,0,0,0-.76,2.28h-3c.06-2.41.81-4.08,2.27-5a9,9,0,0,1,5-1.42,10,10,0,0,1,5.41,1.32,4.47,4.47,0,0,1,2.06,4.08v11.26a1.45,1.45,0,0,0,.21.82,1,1,0,0,0,.85.31l.48,0,.56-.08v2.42a8.56,8.56,0,0,1-1.13.28,9.41,9.41,0,0,1-1,0,2.57,2.57,0,0,1-2.38-1.2,4.67,4.67,0,0,1-.55-1.81,8.09,8.09,0,0,1-2.79,2.28,8.3,8.3,0,0,1-4,1,5.83,5.83,0,0,1-4.29-1.65,5.59,5.59,0,0,1-1.67-4.13,5.45,5.45,0,0,1,1.64-4.22,7.71,7.71,0,0,1,4.3-1.84Zm-6.68,8.89a3.68,3.68,0,0,0,2.38.82,7.13,7.13,0,0,0,3.25-.8,4.54,4.54,0,0,0,2.64-4.36v-2.65a5.24,5.24,0,0,1-1.5.64,12,12,0,0,1-1.8.36l-1.92.26a7.24,7.24,0,0,0-2.59.75,2.92,2.92,0,0,0-1.46,2.73A2.75,2.75,0,0,0,237.6,1595.1Z"/><path class="cls-17" d="M254.88,1573.06h3.21v5.46h3v2.68h-3V1594a1.4,1.4,0,0,0,.67,1.37,2.83,2.83,0,0,0,1.23.2h.5c.17,0,.38,0,.61,0v2.59a6.86,6.86,0,0,1-1.13.24,10.29,10.29,0,0,1-1.28.07,3.41,3.41,0,0,1-3-1.17,5.39,5.39,0,0,1-.79-3.06V1581.2h-2.56v-2.68h2.56Z"/></g><path class="cls-18" d="M60.33,442.41h5l7.44,22.65,7.39-22.65h5V469.2H81.82V453.39c0-.55,0-1.45,0-2.72s0-2.62,0-4.06L74.5,469.2H71l-7.44-22.59v.82c0,.65,0,1.65,0,3s0,2.33,0,3V469.2H60.33Z"/><path class="cls-18" d="M91.29,442.41h3.54V469.2H91.29Z"/><path class="cls-18" d="M118,443.18q3.85,2.08,4.72,7.35h-3.47a6.56,6.56,0,0,0-2.63-4.28,8.83,8.83,0,0,0-5-1.34,7.77,7.77,0,0,0-6.06,2.79q-2.46,2.79-2.46,8.32a13.63,13.63,0,0,0,2,7.77q2,3,6.61,3a8.3,8.3,0,0,0,5.81-2.11c1.53-1.41,2.32-3.68,2.35-6.81h-8.11v-3h11.37V469.2h-2.25l-.85-3.44a13.47,13.47,0,0,1-3.15,2.8,11.53,11.53,0,0,1-5.88,1.35,11.2,11.2,0,0,1-7.91-3.08q-3.61-3.87-3.62-10.61t3.53-10.71a11,11,0,0,1,8.67-3.79A12.89,12.89,0,0,1,118,443.18Z"/><path d="M77.81,510.76a7.5,7.5,0,0,0,1,3.71q1.74,2.65,6.15,2.66a10.54,10.54,0,0,0,3.6-.58q3.14-1.14,3.14-4a3.53,3.53,0,0,0-1.33-3.12,13,13,0,0,0-4.19-1.59L82.71,507a15.31,15.31,0,0,1-4.87-1.77,5.67,5.67,0,0,1-2.47-5,7.85,7.85,0,0,1,2.42-5.93q2.42-2.33,6.84-2.32a11.56,11.56,0,0,1,6.92,2q2.85,2,2.85,6.5H91.1a6.7,6.7,0,0,0-1.13-3.3c-1.07-1.4-2.88-2.1-5.45-2.1-2.06,0-3.55.45-4.46,1.35a4.31,4.31,0,0,0-1.35,3.14,3.1,3.1,0,0,0,1.58,2.88A23.36,23.36,0,0,0,85,503.91l3.63.85a11,11,0,0,1,4.06,1.7,6.45,6.45,0,0,1,2.47,5.45c0,3-1,5.09-3.13,6.37a13.64,13.64,0,0,1-7.28,1.91,10.64,10.64,0,0,1-7.56-2.55,8.79,8.79,0,0,1-2.68-6.88Z"/><path d="M99.18,492.62h3.22v3.72H99.18Zm0,7.35h3.22v19.44H99.18Z"/><path d="M107.13,492.62h3.05v15.55l8.14-8.29h4.06l-7.23,7.31,7.63,12.22h-4l-5.89-9.85-2.66,2.52v7.33h-3.05Z"/><path d="M125.18,492.62h3v15.55l8.15-8.29h4.05l-7.23,7.31,7.64,12.22h-4.06l-5.89-9.85-2.66,2.52v7.33h-3Z"/><path d="M155.07,500.41a7.34,7.34,0,0,1,2.87,2.53,8.73,8.73,0,0,1,1.27,3.45,23.13,23.13,0,0,1,.28,4.3H145.65a8.55,8.55,0,0,0,1.36,4.77,4.49,4.49,0,0,0,3.93,1.8,5,5,0,0,0,4-1.7,5.81,5.81,0,0,0,1.2-2.28h3.12a7,7,0,0,1-.82,2.4,8.84,8.84,0,0,1-1.56,2.16,7.38,7.38,0,0,1-3.58,2,10.31,10.31,0,0,1-2.59.29,7.82,7.82,0,0,1-6-2.65q-2.44-2.66-2.45-7.43a11.43,11.43,0,0,1,2.47-7.64,8,8,0,0,1,6.45-2.94A8.4,8.4,0,0,1,155.07,500.41Zm1.16,7.67a8.75,8.75,0,0,0-.9-3.41A4.57,4.57,0,0,0,151,502.3a4.78,4.78,0,0,0-3.67,1.63,6.3,6.3,0,0,0-1.57,4.15Z"/><path d="M185.18,500.41a7.21,7.21,0,0,1,2.87,2.53,8.73,8.73,0,0,1,1.27,3.45,22.93,22.93,0,0,1,.29,4.3H175.77a8.55,8.55,0,0,0,1.35,4.77,4.5,4.5,0,0,0,3.94,1.8,5,5,0,0,0,4-1.7,5.56,5.56,0,0,0,1.2-2.28h3.12a6.77,6.77,0,0,1-.82,2.4,8.34,8.34,0,0,1-1.56,2.16,7.34,7.34,0,0,1-3.58,2,10.26,10.26,0,0,1-2.59.29,7.84,7.84,0,0,1-6-2.65q-2.44-2.66-2.45-7.43a11.48,11.48,0,0,1,2.47-7.64,8,8,0,0,1,6.45-2.94A8.4,8.4,0,0,1,185.18,500.41Zm1.16,7.67a8.59,8.59,0,0,0-.89-3.41,4.59,4.59,0,0,0-4.36-2.37,4.78,4.78,0,0,0-3.67,1.63,6.35,6.35,0,0,0-1.57,4.15Z"/><path d="M194.14,494.42h3.21v5.46h3v2.68h-3v12.75a1.37,1.37,0,0,0,.67,1.36,2.6,2.6,0,0,0,1.23.21h.49l.62,0v2.59a6.77,6.77,0,0,1-1.14.24,10.13,10.13,0,0,1-1.27.07,3.39,3.39,0,0,1-3-1.18,5.33,5.33,0,0,1-.79-3V502.56h-2.56v-2.68h2.56Z"/><path d="M215.05,493.91c.74-1.12,2.17-1.68,4.28-1.68l.62,0,.72.06v3l-.71-.05h-.42c-1,0-1.54.26-1.72.78a15.59,15.59,0,0,0-.29,4h3.14v2.59H217.5v16.85h-3.14V502.56h-2.63V500h2.63V496.9A6.05,6.05,0,0,1,215.05,493.91Z"/><path d="M235.36,500.41a7.21,7.21,0,0,1,2.87,2.53,8.73,8.73,0,0,1,1.27,3.45,22.93,22.93,0,0,1,.29,4.3H225.94a8.63,8.63,0,0,0,1.36,4.77,4.49,4.49,0,0,0,3.93,1.8,5,5,0,0,0,4-1.7,5.68,5.68,0,0,0,1.2-2.28h3.12a6.77,6.77,0,0,1-.82,2.4,8.34,8.34,0,0,1-1.56,2.16,7.34,7.34,0,0,1-3.58,2,10.26,10.26,0,0,1-2.59.29,7.84,7.84,0,0,1-6-2.65q-2.44-2.66-2.45-7.43a11.43,11.43,0,0,1,2.47-7.64,8,8,0,0,1,6.45-2.94A8.4,8.4,0,0,1,235.36,500.41Zm1.16,7.67a8.75,8.75,0,0,0-.9-3.41,4.57,4.57,0,0,0-4.35-2.37,4.78,4.78,0,0,0-3.67,1.63,6.3,6.3,0,0,0-1.57,4.15Z"/><path d="M254.1,500.48a8.3,8.3,0,0,1,1.92,1.91v-9.86h3.05v26.88h-2.85v-2.72a6.91,6.91,0,0,1-2.63,2.61,7.25,7.25,0,0,1-3.47.8,6.94,6.94,0,0,1-5.47-2.74,11,11,0,0,1-2.31-7.31,12.86,12.86,0,0,1,2.11-7.39,6.81,6.81,0,0,1,6-3.13A6.53,6.53,0,0,1,254.1,500.48ZM247,515.12a4.45,4.45,0,0,0,4.12,2.12,4.31,4.31,0,0,0,3.63-2,9.55,9.55,0,0,0,1.42-5.63c0-2.47-.49-4.29-1.47-5.48a4.51,4.51,0,0,0-3.61-1.78,4.73,4.73,0,0,0-3.89,1.9,8.92,8.92,0,0,0-1.49,5.58A9.92,9.92,0,0,0,247,515.12Z"/><path d="M264.4,494.42h3.21v5.46h3v2.68h-3v12.75a1.37,1.37,0,0,0,.67,1.36,2.63,2.63,0,0,0,1.23.21h.5l.61,0v2.59a6.86,6.86,0,0,1-1.13.24,10.29,10.29,0,0,1-1.28.07,3.39,3.39,0,0,1-3-1.18,5.33,5.33,0,0,1-.79-3V502.56h-2.56v-2.68h2.56Z"/><path d="M285.71,513.28a4.91,4.91,0,0,0,.8,2.52c.8,1.06,2.18,1.59,4.16,1.59a6,6,0,0,0,3.1-.8,2.63,2.63,0,0,0,1.34-2.45,2.13,2.13,0,0,0-1.07-1.92,13.55,13.55,0,0,0-2.72-.93l-2.52-.65a12.19,12.19,0,0,1-3.56-1.39,4.18,4.18,0,0,1-2.05-3.68,5.74,5.74,0,0,1,1.93-4.49,7.56,7.56,0,0,1,5.2-1.71q4.26,0,6.15,2.59a5.74,5.74,0,0,1,1.15,3.53h-3a3.86,3.86,0,0,0-.76-2c-.73-.86-2-1.3-3.79-1.3a4.35,4.35,0,0,0-2.72.72,2.24,2.24,0,0,0-.93,1.87,2.33,2.33,0,0,0,1.22,2.05,7.21,7.21,0,0,0,2.08.8l2.09.53a15.67,15.67,0,0,1,4.59,1.66,4.46,4.46,0,0,1,1.85,4,6.13,6.13,0,0,1-1.91,4.5q-1.92,1.9-5.83,1.9-4.22,0-6-2a7.67,7.67,0,0,1-1.88-4.9Z"/><path d="M301.64,500h3.08v2.59a7.79,7.79,0,0,1,2.08-2.06,6.54,6.54,0,0,1,3.77-1.1A7,7,0,0,1,316,502c1.5,1.69,2.24,4.12,2.24,7.26q0,6.39-3.22,9.12a7.16,7.16,0,0,1-4.77,1.74,6.3,6.3,0,0,1-3.57-1,8.06,8.06,0,0,1-1.89-1.88v10h-3.17Zm11.91,15.31q1.47-1.92,1.47-5.76a11.2,11.2,0,0,0-.65-4,4.73,4.73,0,0,0-9,.18,13.89,13.89,0,0,0-.65,4.64,10.07,10.07,0,0,0,.65,3.85,4.72,4.72,0,0,0,8.21,1.1Z"/><path d="M322,492.62h3.23v3.72H322Zm0,7.35h3.23v19.44H322Z"/><path d="M330.07,492.62h3.18v26.79h-3.18Z"/><path d="M338.68,523.22a2.25,2.25,0,0,0,1.71-1.77,5.27,5.27,0,0,0,.26-1.58,1.62,1.62,0,0,0,0-.23,1.11,1.11,0,0,0,0-.23h-1.92v-4h3.77v3.69a8.11,8.11,0,0,1-.85,3.81,3.88,3.88,0,0,1-2.92,2Z"/><path d="M358.07,492.53h3.18v10a9.34,9.34,0,0,1,2-2.08,6.72,6.72,0,0,1,3.83-1q4.11,0,5.57,3a10.4,10.4,0,0,1,.79,4.5v12.53H370.2V507.1a7,7,0,0,0-.53-3.16,3.33,3.33,0,0,0-3.24-1.6,5.32,5.32,0,0,0-3.58,1.4q-1.61,1.41-1.6,5.31v10.36h-3.18Z"/><path d="M379.71,499.88l5,15.9,5.27-15.9h3.47l-7.12,19.53H383l-7-19.53Z"/><path d="M406.33,507.57a1.69,1.69,0,0,0,1.46-.94,3,3,0,0,0,.21-1.26,2.71,2.71,0,0,0-1.15-2.44,6.07,6.07,0,0,0-3.31-.76,4.14,4.14,0,0,0-3.52,1.39,4.66,4.66,0,0,0-.76,2.28h-3q.09-3.61,2.26-5a9,9,0,0,1,5.05-1.42,10.07,10.07,0,0,1,5.42,1.31,4.52,4.52,0,0,1,2.06,4.09v11.25a1.57,1.57,0,0,0,.2.83,1,1,0,0,0,.86.3,3.94,3.94,0,0,0,.47,0l.57-.08v2.42a9,9,0,0,1-1.13.28,9.48,9.48,0,0,1-1.06.05,2.59,2.59,0,0,1-2.38-1.2,4.85,4.85,0,0,1-.55-1.81,8,8,0,0,1-2.78,2.28,8.45,8.45,0,0,1-4,1,5.84,5.84,0,0,1-4.3-1.65,5.58,5.58,0,0,1-1.66-4.13,5.4,5.4,0,0,1,1.64-4.22,7.68,7.68,0,0,1,4.3-1.84Zm-6.68,8.89a3.68,3.68,0,0,0,2.38.82,7,7,0,0,0,3.24-.81,4.53,4.53,0,0,0,2.65-4.36v-2.64a5.24,5.24,0,0,1-1.5.64,12,12,0,0,1-1.8.36l-1.92.26a7.23,7.23,0,0,0-2.6.75,2.93,2.93,0,0,0-1.46,2.73A2.76,2.76,0,0,0,399.65,516.46Z"/><path d="M418.86,494.67a8.52,8.52,0,0,1,11.47-.35,7,7,0,0,1,2.09,5.25,5.74,5.74,0,0,1-.76,3.13,24.75,24.75,0,0,1-3.1,3.54,10.08,10.08,0,0,0-2.19,2.87,9.18,9.18,0,0,0-.51,3.48h-3.13a12.24,12.24,0,0,1,.6-4.21,11.14,11.14,0,0,1,2.62-3.65l1.41-1.44a6.06,6.06,0,0,0,1-1.3,4.95,4.95,0,0,0-.33-5.56,4.07,4.07,0,0,0-3.41-1.31,4.15,4.15,0,0,0-4.08,2.26,9.12,9.12,0,0,0-.72,3.63h-3.14A9.15,9.15,0,0,1,418.86,494.67Zm3.79,20.95h3.51v3.79h-3.51Z"/><path class="cls-4" d="M509,1618.7c-27.37,0-49.55,21-49.55,46.87s22.18,46.86,49.55,46.86,49.55-21,49.55-46.86S536.37,1618.7,509,1618.7Zm0,87.62c-22.61,0-40.94-17.79-40.94-39.73s18.33-39.74,40.94-39.74,40.93,17.79,40.93,39.74S531.61,1706.32,509,1706.32Z"/><path class="cls-7" d="M713.8,1639.07H645.55c-4.26,0-7.75,3.22-7.75,7.16v48.67c0,3.94,3.49,7.16,7.75,7.16H713.8c4.26,0,7.75-3.22,7.75-7.16v-48.67C721.55,1642.29,718.06,1639.07,713.8,1639.07Zm3.65,50.1c0,3.94-3.49,7.16-7.76,7.16h-60c-4.27,0-7.76-3.22-7.76-7.16V1652c0-3.93,3.49-7.16,7.76-7.16h60c4.27,0,7.76,3.23,7.76,7.16Z"/><path class="cls-7" d="M731.22,1679.39v-16.46"/><path class="cls-7" d="M732.72,1679.39v-16.46a1.5,1.5,0,0,0-3,0v16.46a1.5,1.5,0,0,0,3,0Z"/><path class="cls-7" d="M731.08,1680.74l8.47,2.15c6.19,1.56,12.46,3.15,17.61,5.44"/><path class="cls-7" d="M730.68,1682.19c8.6,2.18,17.52,4,25.72,7.44,1.76.74,3.29-1.84,1.51-2.59-8.46-3.6-17.55-5.5-26.44-7.74-1.87-.48-2.67,2.42-.79,2.89Z"/><path class="cls-7" d="M758.3,1688.23l-.2-37.75"/><path class="cls-7" d="M759.8,1688.23l-.2-37.75a1.5,1.5,0,0,0-3,0l.2,37.75a1.5,1.5,0,0,0,3,0Z"/><path class="cls-7" d="M732.5,1662.82a154,154,0,0,1,16.17-7.32c1.36-.49,2.75-1,4-1.54a30.51,30.51,0,0,0,5.48-3.48"/><path class="cls-7" d="M733.26,1664.12c8.4-4.21,18.07-6.76,25.65-12.34,1.54-1.14.05-3.74-1.51-2.59-7.49,5.51-17.31,8.16-25.66,12.34-1.72.86-.21,3.45,1.52,2.59Z"/><rect class="cls-19" x="642.31" y="1641.66" width="76.23" height="56.03"/><rect class="cls-19" x="731.58" y="1662.41" width="26.08" height="18.68"/><rect class="cls-19" x="751.64" y="1653.08" width="6.02" height="33.2"/><rect class="cls-19" x="737.59" y="1659.3" width="16.05" height="6.23"/><rect class="cls-19" x="745.62" y="1656.19" width="9.03" height="6.23"/><rect class="cls-19" x="741.61" y="1676.94" width="11.03" height="7.26"/><path class="cls-7" d="M268.09,1626.08a107.73,107.73,0,0,1,10.83,11.52c3.38,4.17,6.48,9.67,3.69,14-.95,1.46-2.47,2.57-3.48,4-2.27,3.2-1.59,7.56.69,10.87s5.9,5.78,9.59,7.94c4.36,2.54,9.2,4.85,14.38,5,2.51.07,5-.38,7.49-.47a25.49,25.49,0,0,1,17.78,6.36,18.89,18.89,0,0,1,6.3,15.77,9.16,9.16,0,0,1-1.26,4c-1.64,2.62-5,4-8.26,5a41.33,41.33,0,0,1-17.68,1.15c-14.44-2.36-25.25-13-34.13-23.29-9.27-10.77-17.91-22.12-23.55-34.59-2.15-4.76-3.88-9.81-3.44-14.85a14.42,14.42,0,0,1,8.63-12.22c3.17-1.29,6.82-1.42,10.36-1.26"/><polygon class="cls-7" points="135.14 1708.64 84.93 1714.81 75.51 1632.76 125.71 1626.59 135.14 1708.64"/><polygon class="cls-2" points="132.82 1707.7 85.89 1713.47 76.74 1633.84 123.67 1628.07 132.82 1707.7"/><polygon class="cls-20" points="124.8 1638.86 172.71 1646.68 161.78 1718.36 113.87 1710.54 124.8 1638.86"/><path class="cls-21" d="M158.93,1719.09,114,1711.76a4.58,4.58,0,0,1-3.69-5.24l12.06-79.06a4.46,4.46,0,0,1,5.06-3.81l45,7.33a4.58,4.58,0,0,1,3.69,5.24L164,1715.28A4.46,4.46,0,0,1,158.93,1719.09Z"/><path class="cls-2" d="M157.59,1716.22l-41.48-6.77a4.58,4.58,0,0,1-3.69-5.24l11.26-73.88a4.47,4.47,0,0,1,5.07-3.81l41.48,6.77a4.58,4.58,0,0,1,3.69,5.24l-11.27,73.88A4.46,4.46,0,0,1,157.59,1716.22Z"/><polygon class="cls-21" points="120.94 1697.14 133.81 1672.72 138.8 1700.05 120.94 1697.14"/><polygon class="cls-21" points="152.26 1660.9 132.75 1698.3 159.7 1702.7 152.26 1660.9"/><ellipse class="cls-21" cx="130.61" cy="1642.43" rx="5.97" ry="3.99" transform="translate(-1513.69 1537.89) rotate(-81.82)"/><path class="cls-7" d="M895.56,1684.57c11.12,13.06,33.18,10,44.84-.6,1.44-1.3-.69-3.42-2.12-2.12-10.52,9.52-30.57,12.37-40.6.6-1.25-1.47-3.36.66-2.12,2.12Z"/><path class="cls-7" d="M917.64,1627.65a43.06,43.06,0,1,0,43.13,43.06A43.1,43.1,0,0,0,917.64,1627.65Zm0,83.51a40.45,40.45,0,1,1,40.51-40.45A40.48,40.48,0,0,1,917.64,1711.16Z"/><ellipse class="cls-7" cx="933.81" cy="1654.65" rx="5.39" ry="7.99"/><ellipse class="cls-7" cx="903.36" cy="1654.65" rx="5.39" ry="7.99"/><ellipse class="cls-7" cx="932.22" cy="1691.61" rx="4.44" ry="5.7"/><path class="cls-2" d="M1010.3,265.19l-33.58,27.28a3.87,3.87,0,0,1-5.16-.31h0a3.21,3.21,0,0,1,.33-4.77l33.57-27.27a3.9,3.9,0,0,1,5.17.3h0A3.21,3.21,0,0,1,1010.3,265.19Z"/><path class="cls-2" d="M1006,264.65l-34.08-28.88a3.56,3.56,0,0,1,.11-5.28h0a4.32,4.32,0,0,1,5.69-.55l34.08,28.88a3.56,3.56,0,0,1-.11,5.28h0A4.32,4.32,0,0,1,1006,264.65Z"/></svg>