<svg id="Layer_1" data-name="Layer 1" xmlns="http://www.w3.org/2000/svg" width="5400" height="1577" viewBox="0 0 5400 1577"><defs><style>.cls-1{fill:#fff;}.cls-2{fill:#2b987f;}.cls-3{fill:#33a88f;}.cls-4{fill:#6b4d2e;}.cls-5{fill:#7d8a8b;stroke:#304457;}.cls-5,.cls-6,.cls-7{stroke-miterlimit:10;}.cls-6{fill:#93a3a3;stroke:#314559;}.cls-7{fill:#bbc1c5;stroke:#32465a;}.cls-8{fill:#33475c;}.cls-9{fill:#ebeff0;}.cls-10{fill:#d0a637;}.cls-11{fill:#38271a;}.cls-12{fill:#814795;}.cls-13{fill:#634528;}.cls-14{fill:#dd9e87;}.cls-15{fill:#2b3d4f;}.cls-16{fill:#e6be33;}.cls-17{fill:#d7d0c8;}.cls-18{fill:#ececec;}.cls-19{fill:#d05242;}.cls-19,.cls-20{opacity:0.3;}.cls-20{fill:#46a869;}</style></defs><title>ekstranyfatima</title><rect class="cls-1" x="2162.3728" y="0.4436" width="1080" height="1577"/><rect class="cls-2" x="2973.0759" y="530.892" width="63.3055" height="129.987" rx="10.367"/><rect class="cls-2" x="2991.7926" y="465.4841" width="25.8722" height="101.5234" rx="2.367"/><rect class="cls-3" x="2973.0759" y="570.685" width="63.3055" height="47.4135"/><polygon class="cls-2" points="3017.665 515.191 2991.793 515.045 2975.275 533.954 3033.742 533.485 3017.665 515.191"/><ellipse class="cls-4" cx="2961.7081" cy="624.5382" rx="29.0627" ry="29.0823"/><ellipse class="cls-5" cx="2703.1015" cy="178.4136" rx="108.9353" ry="109.0086"/><ellipse class="cls-6" cx="2702.1293" cy="178.4136" rx="86.6967" ry="109.0086"/><ellipse class="cls-7" cx="2703.1015" cy="178.4136" rx="49.562" ry="109.0086"/><rect class="cls-8" x="2700.7171" y="69.405" width="2.8245" height="218.0171"/><rect class="cls-8" x="2700.7171" y="0.4436" width="2.8245" height="218.0171"/><polygon class="cls-8" points="2811.984 181.842 2811.86 184.669 2594.343 184.669 2594.218 181.825 2811.984 181.842"/><polygon class="cls-8" points="2808.276 206.915 2807.471 209.741 2598.717 209.741 2597.927 206.915 2808.276 206.915"/><polygon class="cls-8" points="2797.995 231.987 2796.363 234.813 2609.902 234.813 2608.208 231.987 2797.995 231.987"/><polygon class="cls-8" points="2778.535 257.059 2775.439 259.885 2630.751 259.885 2627.668 257.059 2778.535 257.059"/><polygon class="cls-8" points="2809.89 156.77 2810.42 159.597 2595.783 159.597 2596.313 156.77 2809.89 156.77"/><polygon class="cls-8" points="2801.566 131.698 2802.847 134.524 2603.356 134.524 2604.701 131.698 2801.566 131.698"/><polygon class="cls-8" points="2785.013 106.626 2787.55 109.452 2618.888 109.261 2621.087 106.626 2785.013 106.626"/><polygon class="cls-8" points="2753.102 81.554 2758.24 84.38 2649.115 83.712 2653.031 81.554 2753.102 81.554"/><polygon class="cls-9" points="2611.859 64.009 2630.346 76.444 2648.727 63.903 2638.22 82.403 2648.833 100.797 2630.346 89.439 2611.964 100.903 2623.635 83.241 2611.859 64.009"/><polygon class="cls-9" points="2773.445 240.078 2791.932 252.513 2810.314 239.972 2799.806 258.472 2810.42 276.866 2791.932 265.508 2773.551 276.972 2785.222 259.31 2773.445 240.078"/><polygon class="cls-9" points="2583.398 106.305 2601.157 118.25 2618.815 106.203 2608.721 123.975 2618.917 141.644 2601.157 130.733 2583.5 141.746 2594.711 124.78 2583.398 106.305"/><path class="cls-10" d="M2858.5737,1540.32c-34.785,17.0123-46.2719,31.7456-138.0458,24.2651-83.7044-6.8228-162.5043-14.65-166.7217-25.0459-5.1992-12.8166,14.0649-10.1272,166.7217-25.0458C2720.5279,1514.4929,2870.9929,1534.2456,2858.5737,1540.32Z"/><path class="cls-11" d="M2566.2893,689.7861c3.5485,2.523,16.0188-11.3514,23.1934-19.3337,14.4863-16.1171,36.0662-44.6356,39.0444-53.8506,4.6709-14.4525-35.31,15.1606-53.24,44.5365C2567.5141,673.8731,2563.2407,687.6186,2566.2893,689.7861Z"/><path class="cls-11" d="M2886.6888,706.9014c3.465-2.6367-6.05-18.6856-11.5237-27.9191-11.0527-18.6432-31.8185-47.76-39.72-53.3535-12.3922-8.7719,3.93,38.2468,26.6019,64.1342C2871.8756,700.9854,2883.7122,709.1667,2886.6888,706.9014Z"/><path class="cls-11" d="M2900.1957,541.8384c-2.1954-3.7614-19.2689,3.7433-29.0919,8.0609-19.8335,8.7178-51.2346,25.8135-57.7407,32.9837-10.204,11.2454,38.4156.7346,66.844-18.6463C2892.531,555.8349,2902.0817,545.07,2900.1957,541.8384Z"/><path class="cls-4" d="M2895.2229,947.6315c0,141.1073-22.0936,257.1393-50.3908,270.9067v1.372c-36.5006,3.2552-102.3249,1.0821-104.0844,1.6042-7.2054,2.1382-11.8133.6437-16.0058-1.6042-6.4543,4.0189-7.3076,4.6619-14.7247,2.0414-2.618-.9249-67.4531,3.39-99.7143-2.0414-30.9512,0-56.0421-121.9033-56.0421-272.2787"/><path class="cls-11" d="M2724.91,430.7448c-74.2229,0-134.3927,43.2485-134.3927,96.5981V743.1764c0,41.507,60.17,75.1551,134.3927,75.1551s134.3927-33.6481,134.3927-75.1551V527.3429C2859.3023,473.9933,2799.1327,430.7448,2724.91,430.7448Z"/><path class="cls-12" d="M2905.6887,1071.0312c0-141.1073-23.3218-257.1393-53.1919-270.9067v-1.3719H2604.9307c-32.6717,0-59.1573,121.9032-59.1573,272.2786"/><path class="cls-13" d="M2761.7942,821.2277l.2669-.0014-.451-89.3934-72.2091.3648.4509,89.3934.2668-.0014c.0567,11.2377,16.1478,20.2665,35.94,20.1665S2761.8509,832.4653,2761.7942,821.2277Z"/><path class="cls-4" d="M2596.7705,551.5083V631.85c0,76.436,57.238,138.4,127.8447,138.4S2852.46,708.2863,2852.46,631.85v-80.342Z"/><ellipse class="cls-14" cx="2643.7518" cy="660.879" rx="16.1073" ry="16.1181"/><ellipse class="cls-14" cx="2795.3297" cy="660.879" rx="16.1073" ry="16.1181"/><path class="cls-13" d="M2597.1017,646.8544c-20.1211,0-36.4324-15.2367-36.4324-34.0322s16.3113-34.0321,36.4324-34.0321"/><path class="cls-13" d="M2851.7312,578.79c20.1211,0,36.4324,15.2367,36.4324,34.0321s-16.3113,34.0322-36.4324,34.0322"/><path class="cls-15" d="M2657.2056,590.9507h43.036a2.1937,2.1937,0,0,1,2.1937,2.1937v6.1537a2.1907,2.1907,0,0,1-2.1907,2.1907h-43.036a2.1937,2.1937,0,0,1-2.1937-2.1937v-6.1537a2.1907,2.1907,0,0,1,2.1907-2.1907Z" transform="translate(334.7545 2023.4016) rotate(-43.8843)"/><path class="cls-15" d="M2675.7427,574.8982h7.179a2.5593,2.5593,0,0,1,2.5593,2.5593v38.7938a2.5559,2.5559,0,0,1-2.5559,2.5559h-7.1789a2.5594,2.5594,0,0,1-2.5594-2.5594V577.454A2.5559,2.5559,0,0,1,2675.7427,574.8982Z" transform="translate(334.4858 2024.0003) rotate(-43.8843)"/><path class="cls-15" d="M2740.5416,590.8953h43.0359a2.1937,2.1937,0,0,1,2.1937,2.1937v6.1536a2.1908,2.1908,0,0,1-2.1908,2.1908h-43.036a2.1937,2.1937,0,0,1-2.1937-2.1937v-6.1537A2.1908,2.1908,0,0,1,2740.5416,590.8953Z" transform="translate(358.0656 2081.1556) rotate(-43.8843)"/><path class="cls-15" d="M2759.0786,574.8428h7.179a2.5593,2.5593,0,0,1,2.5593,2.5593v38.7938a2.5559,2.5559,0,0,1-2.5559,2.5559h-7.179a2.5593,2.5593,0,0,1-2.5593-2.5593V577.3987A2.5559,2.5559,0,0,1,2759.0786,574.8428Z" transform="translate(357.7964 2081.7536) rotate(-43.8843)"/><path class="cls-12" d="M2650.0546,869.9609l-12.9805,8.2908a24.3307,24.3307,0,0,1-33.5145-7.4047L2497.1842,704.0757a24.3666,24.3666,0,0,1,7.4-33.537l12.9806-8.2908a24.3305,24.3305,0,0,1,33.5144,7.4047l106.3754,166.7713A24.3665,24.3665,0,0,1,2650.0546,869.9609Z"/><path class="cls-12" d="M2860.9026,860.5253l-13.9718-6.48A24.3637,24.3637,0,0,1,2835.116,821.8l83.1347-179.5076a24.3335,24.3335,0,0,1,32.224-11.8227l13.9718,6.4794a24.3638,24.3638,0,0,1,11.8148,32.2457l-83.1347,179.5075A24.3335,24.3335,0,0,1,2860.9026,860.5253Z"/><path class="cls-11" d="M2639.5412,493.1245c.1628-4.3529-18.27-7.1808-28.8748-8.8078-21.4123-3.285-57.0781-5.7063-66.4122-3.1457-14.6391,4.0159,32.031,21.235,66.4122,20.1322C2625.571,500.8251,2639.4014,496.8641,2639.5412,493.1245Z"/><path class="cls-11" d="M2652.9127,490.4184c2.0194-3.8588-13.4015-14.3513-22.2736-20.388-17.9137-12.1886-49.0643-29.7374-58.5908-31.4469-14.9409-2.6812,19.7764,32.9644,51.2836,46.779C2636.9905,491.3512,2651.1778,493.7336,2652.9127,490.4184Z"/><path class="cls-11" d="M2663.3273,463.6779c2.0194-3.8589-13.4015-14.3514-22.2736-20.388-17.9138-12.1887-49.0643-29.7375-58.5908-31.4469-14.9409-2.6812,19.7764,32.9644,51.2835,46.7789C2647.4051,464.6107,2661.5924,466.993,2663.3273,463.6779Z"/><path class="cls-11" d="M2884.9853,432.0448c-3.1448-3.012-17.4964,8.9033-25.7533,15.7584-16.6716,13.8413-42.1612,38.9217-46.4451,47.6063-6.7187,13.62,37.1353-9.8691,59.1387-36.3281C2881.4642,447.6111,2887.6869,434.6323,2884.9853,432.0448Z"/><path class="cls-11" d="M2857.8087,404.3872c-3.8246-2.08-14.5466,13.1876-20.7153,21.9715-12.4552,17.7357-30.47,48.6329-32.3255,58.1383-2.9094,14.9079,33.2433-19.279,47.5328-50.5906C2858.4953,420.3325,2861.0945,406.1741,2857.8087,404.3872Z"/><rect class="cls-4" x="2577.0831" y="1116.8632" width="90.5485" height="450.9255" rx="17.4747"/><rect class="cls-4" x="2779.2224" y="1116.8632" width="90.5485" height="450.9255" rx="17.4747"/><rect class="cls-11" x="2722.1911" y="1187.9989" width="5.1015" height="31.9113" rx="0.9845"/><rect class="cls-16" x="2720.3032" y="1224.5721" width="8.8773" height="14.0876" rx="1.7132"/><rect class="cls-16" x="2715.8646" y="1272.7853" width="8.8773" height="14.0876" rx="1.7132"/><rect class="cls-16" x="2726.7739" y="1256.4833" width="8.8773" height="18.9832" rx="1.7132"/><rect class="cls-16" x="2709.4103" y="1289.0873" width="8.8773" height="31.9113" rx="1.7132"/><rect class="cls-16" x="2713.8489" y="1243.145" width="8.8773" height="18.8519" rx="1.7132"/><rect class="cls-16" x="2696.293" y="1500.8355" width="34.83" height="9.8083" rx="1.8916"/><rect class="cls-16" x="2713.708" y="1505.7396" width="34.83" height="9.8083" rx="1.8916"/><rect class="cls-16" x="2700.4161" y="1507.9544" width="34.83" height="9.8083" rx="1.8916"/><rect class="cls-16" x="2689.8387" y="1512.8585" width="34.83" height="9.8083" rx="1.8916"/><rect class="cls-16" x="2707.2537" y="1513.6349" width="34.83" height="9.8083" rx="1.8916"/><rect class="cls-16" x="2722.2698" y="1513.6349" width="34.83" height="9.8083" rx="1.8916"/><rect class="cls-16" x="2696.293" y="1518.5391" width="34.83" height="9.8083" rx="1.8916"/><rect class="cls-16" x="2716.131" y="1518.5391" width="34.83" height="9.8083" rx="1.8916"/><rect class="cls-11" x="2706.5051" y="1206.0011" width="1.3868" height="10.9044" transform="matrix(0.951, -0.3092, 0.3092, 0.951, -241.9344, 896.5595)"/><rect class="cls-11" x="2714.0302" y="1208.3599" width="1.3868" height="10.9044" transform="translate(-242.2949 899.0022) rotate(-18.0135)"/><rect class="cls-11" x="2709.7336" y="1198.8591" width="1.3873" height="7.1815" transform="translate(72.7049 2556.969) rotate(-51.1053)"/><rect class="cls-11" x="2716.3737" y="1194.7798" width="1.3867" height="9.2272"/><rect class="cls-11" x="2701.8126" y="1213.5127" width="1.0256" height="5.1607" transform="translate(-132.3426 2079.8652) rotate(-41.1754)"/><rect class="cls-11" x="2702.0506" y="1205.8736" width="0.5496" height="5.0095" transform="matrix(0.951, -0.3092, 0.3092, 0.951, -241.2223, 894.9018)"/><rect class="cls-11" x="2737.2702" y="1210.2803" width="10.9044" height="1.3868" transform="translate(742.9426 3444.7741) rotate(-71.9865)"/><rect class="cls-11" x="2729.7451" y="1212.639" width="10.9044" height="1.3868" transform="translate(735.5014 3439.2472) rotate(-71.9865)"/><rect class="cls-11" x="2735.9029" y="1201.2766" width="7.1815" height="1.3873" transform="translate(-147.3633 1986.5813) rotate(-38.8947)"/><rect class="cls-11" x="2732.1605" y="1194.3002" width="1.3867" height="9.2272" transform="translate(5465.7078 2397.8276) rotate(-180)"/><rect class="cls-11" x="2745.0152" y="1215.1006" width="5.1607" height="1.0256" transform="translate(23.6806 2483.4008) rotate(-48.8246)"/><rect class="cls-11" x="2745.0908" y="1207.6239" width="5.0095" height="0.5496" transform="matrix(0.3092, -0.951, 0.951, 0.3092, 749.233, 3447.2843)"/><path class="cls-17" d="M2307.1466,819.3081,2496.113,635.7614a10.6181,10.6181,0,0,1,13.139-.7966l37.33,27.1585c3.8738,2.8183,4.3,7.7886.9476,11.0451,0,0-70.2983,62.2993-95.8691,93.12s-93.0973,90.4271-93.0973,90.4271a10.6178,10.6178,0,0,1-13.139.7966l-37.33-27.1584C2304.22,827.5348,2303.794,822.5645,2307.1466,819.3081Z"/><path class="cls-18" d="M2304.3293,817.2584l188.9663-183.5466a10.6181,10.6181,0,0,1,13.1391-.7967l37.33,27.1585c3.8739,2.8183,4.3,7.7886.9477,11.0451,0,0-70.2984,62.2993-95.8692,93.12s-93.0972,90.4271-93.0972,90.4271a10.6178,10.6178,0,0,1-13.139.7966l-37.33-27.1584C2301.4031,825.4851,2300.9766,820.5149,2304.3293,817.2584Z"/><path class="cls-18" d="M2302.0805,821.8357c3.8752-24.1054,9.2691-84.3862,50.72-124.6481,49.5591-48.1377,114.9754-53.0465,140.4006-64.58,20.8256-9.4472-28.8068,66.27-75.6019,111.7234S2298.9114,841.55,2302.0805,821.8357Z"/><path class="cls-17" d="M2319.3457,742.8082c19.14,2.7145,30.9461,23.405,26.3687,46.2135s-23.8045,39.098-42.945,36.3836"/><path class="cls-17" d="M2396.0246,664.145c6.2448,15.45,32.4275,21.9419,58.4806,14.5s42.1109-25.9989,35.866-41.4488"/><ellipse class="cls-1" cx="2717.3776" cy="699.9518" rx="38.6525" ry="31.8811"/><path class="cls-11" d="M2711.6641,1092.2271c1.3408,1.483,1.5076-7.181,4.9255-9.8059,3.2029-2.46,9.7245,1.2216,9.3294-.7106-.5155-2.5209-6.7053-4.75-11.0152-.809C2711.3609,1084.1408,2710.1625,1090.5663,2711.6641,1092.2271Z"/><path class="cls-16" d="M2365.4841,192.1292a35.0112,35.0112,0,1,0,56.2679-41.678"/><rect class="cls-8" x="2267.9618" y="42.7465" width="89.9763" height="46.8508" transform="translate(471.7301 1467.6088) rotate(-38.9152)"/><rect class="cls-8" x="2289.2803" y="69.1074" width="140.7619" height="116.7001" transform="translate(443.5987 1510.5521) rotate(-38.9152)"/><rect class="cls-8" x="2286.9574" y="1.8109" width="17.9346" height="64.361" transform="translate(4591.8493 67.9828) rotate(-180)"/><path class="cls-16" d="M3039.2614,192.1292a35.0111,35.0111,0,1,1-56.2678-41.678"/><rect class="cls-8" x="3068.3702" y="21.1837" width="46.8508" height="89.9763" transform="matrix(0.6282, -0.7781, 0.7781, 0.6282, 1098.1382, 2430.2592)"/><rect class="cls-8" x="2986.7342" y="57.0766" width="116.7001" height="140.7619" transform="translate(1033.0846 2416.7021) rotate(-51.0848)"/><rect class="cls-8" x="3099.8536" y="1.8109" width="17.9346" height="64.361"/><rect class="cls-1" x="1081.0583" y="0.6669" width="1080" height="1577"/><path class="cls-10" d="M1772.8231,1539.5659c-34.3494,17.0123-45.6925,31.7456-136.3172,24.2651-82.6562-6.8229-160.4693-14.65-164.6339-25.0459-5.1342-12.8166,13.8887-10.1272,164.634-25.0458C1636.506,1513.7393,1785.0868,1533.492,1772.8231,1539.5659Z"/><path class="cls-2" d="M2035.3053,693.0389l-34.4817,23.9051a10.3119,10.3119,0,0,1-14.41-2.7389l-60.7205-89.9421a10.625,10.625,0,0,1,2.7027-14.6025l34.4817-23.905a10.3119,10.3119,0,0,1,14.41,2.7388l60.7205,89.9422A10.6249,10.6249,0,0,1,2035.3053,693.0389Z"/><path class="cls-2" d="M1974.3494,621.5608,1957.1706,633.47a2.3543,2.3543,0,0,1-3.29-.6253l-53.895-79.8319a2.426,2.426,0,0,1,.617-3.3341l17.1788-11.9095a2.3544,2.3544,0,0,1,3.29.6254l53.895,79.8319A2.4258,2.4258,0,0,1,1974.3494,621.5608Z"/><polygon class="cls-3" points="2020.025 651.799 1968.43 687.567 1942.012 648.435 1993.606 612.666 2020.025 651.799"/><polygon class="cls-2" points="1947.431 577.44 1926.264 591.938 1923.337 616.877 1970.728 583.455 1947.431 577.44"/><ellipse class="cls-4" cx="1958.2484" cy="690.3115" rx="28.6988" ry="29.0823"/><ellipse class="cls-5" cx="1621.7779" cy="178.6368" rx="107.5712" ry="109.0086"/><ellipse class="cls-6" cx="1620.8179" cy="178.6368" rx="85.6111" ry="109.0086"/><ellipse class="cls-7" cx="1621.7779" cy="178.6368" rx="48.9414" ry="109.0086"/><rect class="cls-8" x="1619.4233" y="69.6283" width="2.7891" height="218.0171"/><rect class="cls-8" x="1619.4233" y="0.6669" width="2.7891" height="218.0171"/><polygon class="cls-8" points="1729.297 182.066 1729.175 184.892 1514.381 184.892 1514.258 182.048 1729.297 182.066"/><polygon class="cls-8" points="1725.635 207.138 1724.841 209.964 1518.701 209.964 1517.921 207.138 1725.635 207.138"/><polygon class="cls-8" points="1715.483 232.21 1713.872 235.036 1529.746 235.036 1528.072 232.21 1715.483 232.21"/><polygon class="cls-8" points="1696.266 257.282 1693.209 260.109 1550.333 260.109 1547.289 257.282 1696.266 257.282"/><polygon class="cls-8" points="1727.229 156.993 1727.752 159.82 1515.803 159.82 1516.327 156.993 1727.229 156.993"/><polygon class="cls-8" points="1719.01 131.921 1720.275 134.748 1523.281 134.748 1524.609 131.921 1719.01 131.921"/><polygon class="cls-8" points="1702.663 106.849 1705.169 109.675 1538.619 109.484 1540.791 106.849 1702.663 106.849"/><polygon class="cls-8" points="1671.152 81.777 1676.226 84.603 1568.468 83.935 1572.335 81.777 1671.152 81.777"/><polygon class="cls-9" points="1531.678 64.233 1549.933 76.667 1568.085 64.127 1557.709 82.626 1568.189 101.02 1549.933 89.662 1531.782 101.126 1543.307 83.464 1531.678 64.233"/><polygon class="cls-9" points="1670.719 64.796 1688.975 77.231 1707.126 64.69 1696.75 83.19 1707.231 101.584 1688.975 90.226 1670.824 101.69 1682.348 84.028 1670.719 64.796"/><polygon class="cls-9" points="1510.535 235.138 1528.072 247.083 1545.509 235.036 1535.541 252.808 1545.609 270.477 1528.072 259.566 1510.636 270.579 1521.707 253.613 1510.535 235.138"/><polygon class="cls-9" points="1547.289 269.976 1564.826 281.921 1582.263 269.874 1572.295 287.645 1582.363 305.315 1564.826 294.404 1547.39 305.417 1558.461 288.45 1547.289 269.976"/><path class="cls-11" d="M1486.6788,690.0093c3.5041,2.523,15.8183-11.3514,22.9031-19.3337,14.3048-16.1171,35.6145-44.6356,38.5554-53.8506,4.6124-14.4525-34.8674,15.1606-52.5733,44.5365C1487.8883,674.0963,1483.6685,687.8418,1486.6788,690.0093Z"/><path class="cls-11" d="M1803.0663,707.1246c3.4216-2.6367-5.9739-18.6856-11.3794-27.9191-10.9143-18.6432-31.42-47.7606-39.2226-53.3535-12.2371-8.7719,3.88,38.2468,26.2687,64.1342C1788.4386,701.2086,1800.1269,709.39,1803.0663,707.1246Z"/><path class="cls-11" d="M1816.404,542.0616c-2.1679-3.7614-19.0276,3.7433-28.7275,8.0609-19.5852,8.7178-50.5931,25.8135-57.0178,32.9837-10.0761,11.2454,37.9346.7346,66.007-18.6463C1808.8353,556.0581,1818.2665,545.293,1816.404,542.0616Z"/><path class="cls-4" d="M1811.4936,947.8547c0,141.1073-21.817,257.1393-49.76,270.9067v1.372c-36.0435,3.2551-101.0436,1.0821-102.781,1.6042-7.1152,2.1381-11.6654.6437-15.8054-1.6042-6.3735,4.0189-7.2161,4.6618-14.54,2.0414-2.5853-.925-66.6084,3.39-98.4657-2.0414-30.5636,0-55.34-121.9033-55.34-272.2787"/><path class="cls-11" d="M1643.3129,430.968c-73.2935,0-132.71,43.2485-132.71,96.5981V743.4c0,41.507,59.4162,75.1551,132.71,75.1551s132.71-33.6481,132.71-75.1551V527.5661C1776.0227,474.2165,1716.6066,430.968,1643.3129,430.968Z"/><path class="cls-12" d="M1821.8282,1071.2544c0-141.1073-23.03-257.1393-52.5258-270.9067v-1.3719h-244.466c-32.2626,0-58.4166,121.9032-58.4166,272.2786"/><path class="cls-13" d="M1679.7357,821.4508l.2634-.0013-.4453-89.3934-71.3049.3648.4453,89.3934.2635-.0014c.056,11.2376,15.9455,20.2665,35.49,20.1665S1679.7916,832.6885,1679.7357,821.4508Z"/><path class="cls-4" d="M1516.7784,551.7315v80.342c0,76.436,56.5212,138.4,126.2438,138.4S1769.266,708.51,1769.266,632.0735v-80.342Z"/><ellipse class="cls-14" cx="1563.1713" cy="661.1022" rx="15.9056" ry="16.1181"/><ellipse class="cls-14" cx="1712.8512" cy="661.1022" rx="15.9056" ry="16.1181"/><path class="cls-13" d="M1517.1054,647.0776c-19.8691,0-35.9762-15.2367-35.9762-34.0322s16.1071-34.0321,35.9762-34.0321"/><path class="cls-13" d="M1768.5464,579.0133c19.8692,0,35.9763,15.2367,35.9763,34.0321s-16.1071,34.0322-35.9763,34.0322"/><path class="cls-15" d="M1583.04,615.2037l-4.3941-4.6265a2.0859,2.0859,0,0,1,.0551-2.913l30.7985-30.0378a2.02,2.02,0,0,1,2.8746.0558l4.394,4.6265a2.0858,2.0858,0,0,1-.055,2.913L1585.9143,615.26A2.02,2.02,0,0,1,1583.04,615.2037Z"/><path class="cls-15" d="M1607.3193,615.4318l-26.7672-28.1835a2.4335,2.4335,0,0,1,.0642-3.3985l5.3264-5.1949a2.3567,2.3567,0,0,1,3.3537.0651l26.7673,28.1834A2.4336,2.4336,0,0,1,1616,610.302l-5.3265,5.1948A2.3567,2.3567,0,0,1,1607.3193,615.4318Z"/><path class="cls-15" d="M1665.3321,615.1483l-4.3941-4.6265a2.0859,2.0859,0,0,1,.0551-2.913l30.7985-30.0378a2.02,2.02,0,0,1,2.8746.0558l4.394,4.6265a2.0858,2.0858,0,0,1-.055,2.913l-30.7985,30.0378A2.02,2.02,0,0,1,1665.3321,615.1483Z"/><path class="cls-15" d="M1689.6117,615.3764l-26.7672-28.1835a2.4335,2.4335,0,0,1,.0642-3.3985l5.3264-5.1949a2.3567,2.3567,0,0,1,3.3537.0651l26.7673,28.1835a2.4335,2.4335,0,0,1-.0642,3.3985l-5.3265,5.1949A2.3567,2.3567,0,0,1,1689.6117,615.3764Z"/><path class="cls-12" d="M1565.1512,872.9292l-4.33,2.8006a28.8573,28.8573,0,0,1-40.0477-8.96L1421.148,708.6a29.71,29.71,0,0,1,8.8422-40.5828l4.33-2.8006a28.8573,28.8573,0,0,1,40.0477,8.96l99.6256,158.17A29.71,29.71,0,0,1,1565.1512,872.9292Z"/><path class="cls-12" d="M1745.0257,831.6545l.4516-5.1853a29.1993,29.1993,0,0,1,31.4375-26.69l73.1314,6.5413a29.364,29.364,0,0,1,26.3379,31.8576l-.4517,5.1853a29.1993,29.1993,0,0,1-31.4375,26.69l-73.1314-6.5413A29.364,29.364,0,0,1,1745.0257,831.6545Z"/><path class="cls-12" d="M1839.5722,858.9972l-4.1448-3.0748a29.7318,29.7318,0,0,1-6.27-41.0717L1909.17,704.0923a28.8358,28.8358,0,0,1,40.53-6.3536l4.1449,3.0748a29.7319,29.7319,0,0,1,6.27,41.0717l-80.0124,110.7583A28.8358,28.8358,0,0,1,1839.5722,858.9972Z"/><path class="cls-11" d="M1559.0135,493.3477c.1607-4.3529-18.0412-7.1808-28.5132-8.8078-21.1442-3.285-56.3634-5.7063-65.5806-3.1457-14.4558,4.0159,31.63,21.235,65.5806,20.1322C1545.2182,501.0483,1558.8754,497.0873,1559.0135,493.3477Z"/><path class="cls-11" d="M1572.2175,490.6416c1.9942-3.8588-13.2336-14.3513-21.9946-20.388-17.6895-12.1886-48.45-29.7374-57.8572-31.4469-14.7538-2.6812,19.5288,32.9644,50.6414,46.779C1556.4947,491.5744,1570.5044,493.9568,1572.2175,490.6416Z"/><path class="cls-11" d="M1582.5017,463.9011c1.9942-3.8589-13.2337-14.3514-21.9947-20.388-17.6894-12.1887-48.45-29.7374-57.8571-31.4469-14.7538-2.6812,19.5288,32.9644,50.6414,46.779C1566.7789,464.8339,1580.7885,467.2162,1582.5017,463.9011Z"/><path class="cls-11" d="M1801.3841,432.268c-3.1054-3.0119-17.2773,8.9033-25.4308,15.7584-16.4628,13.8413-41.6333,38.9217-45.8635,47.6063-6.6346,13.62,36.67-9.8691,58.3981-36.3281C1797.9071,447.8343,1804.0519,434.8555,1801.3841,432.268Z"/><path class="cls-11" d="M1774.5479,404.61c-3.7768-2.08-14.3645,13.1876-20.456,21.9715-12.2992,17.7357-30.0889,48.6329-31.9207,58.1383-2.873,14.9079,32.8271-19.279,46.9376-50.5906C1775.2258,420.5557,1777.7925,406.3973,1774.5479,404.61Z"/><rect class="cls-4" x="1497.3375" y="1117.0864" width="89.4147" height="450.9255" rx="17.4747"/><rect class="cls-4" x="1696.9456" y="1117.0864" width="89.4147" height="450.9255" rx="17.4747"/><rect class="cls-11" x="1640.6285" y="1188.222" width="5.0376" height="31.9113" rx="0.9845"/><rect class="cls-16" x="1638.7642" y="1224.7952" width="8.7661" height="14.0876" rx="1.7132"/><rect class="cls-16" x="1634.3811" y="1273.0085" width="8.7661" height="14.0876" rx="1.7132"/><rect class="cls-16" x="1645.1539" y="1256.7065" width="8.7661" height="18.9832" rx="1.7132"/><rect class="cls-16" x="1628.0077" y="1289.3105" width="8.7661" height="31.9113" rx="1.7132"/><rect class="cls-16" x="1642.8357" y="1321.2217" width="8.7661" height="18.8519" rx="1.7132"/><rect class="cls-16" x="1632.3907" y="1243.3682" width="8.7661" height="18.8519" rx="1.7132"/><rect class="cls-16" x="1638.9572" y="1348.3121" width="8.7661" height="14.0876" rx="1.7132"/><rect class="cls-16" x="1634.5741" y="1396.5254" width="8.7661" height="14.0876" rx="1.7132"/><rect class="cls-16" x="1645.3469" y="1380.2234" width="8.7661" height="18.9832" rx="1.7132"/><rect class="cls-16" x="1628.2007" y="1412.8274" width="8.7661" height="31.9113" rx="1.7132"/><rect class="cls-16" x="1643.0287" y="1444.7386" width="8.7661" height="18.8519" rx="1.7132"/><rect class="cls-16" x="1632.5837" y="1366.8851" width="8.7661" height="18.8519" rx="1.7132"/><rect class="cls-16" x="1615.0547" y="1501.0586" width="34.3939" height="9.8083" rx="1.8916"/><rect class="cls-16" x="1632.2516" y="1505.9628" width="34.3939" height="9.8083" rx="1.8916"/><rect class="cls-16" x="1619.1262" y="1508.1775" width="34.3939" height="9.8083" rx="1.8916"/><rect class="cls-16" x="1608.6812" y="1513.0817" width="34.3939" height="9.8083" rx="1.8916"/><rect class="cls-16" x="1625.8781" y="1513.8581" width="34.3939" height="9.8083" rx="1.8916"/><rect class="cls-16" x="1640.7062" y="1513.8581" width="34.3939" height="9.8083" rx="1.8916"/><rect class="cls-16" x="1615.0547" y="1518.7622" width="34.3939" height="9.8083" rx="1.8916"/><rect class="cls-16" x="1634.6442" y="1518.7622" width="34.3939" height="9.8083" rx="1.8916"/><polygon class="cls-11" points="1628.138 1216.648 1626.835 1217.077 1623.51 1206.705 1624.812 1206.276 1628.138 1216.648"/><polygon class="cls-11" points="1635.569 1219.006 1634.266 1219.435 1630.94 1209.064 1632.243 1208.635 1635.569 1219.006"/><polygon class="cls-11" points="1632.2 1204.39 1631.34 1205.469 1625.824 1200.956 1626.684 1199.877 1632.2 1204.39"/><rect class="cls-11" x="1634.8839" y="1195.003" width="1.3694" height="9.2272"/><polygon class="cls-11" points="1623.069 1217.922 1622.307 1218.597 1618.954 1214.71 1619.716 1214.035 1623.069 1217.922"/><polygon class="cls-11" points="1622.034 1210.899 1621.517 1211.069 1619.99 1206.304 1620.506 1206.134 1622.034 1210.899"/><polygon class="cls-11" points="1658.589 1216.168 1659.891 1216.597 1663.217 1206.226 1661.914 1205.797 1658.589 1216.168"/><polygon class="cls-11" points="1651.158 1218.527 1652.46 1218.956 1655.786 1208.584 1654.484 1208.156 1651.158 1218.527"/><polygon class="cls-11" points="1654.526 1203.91 1655.386 1204.99 1660.903 1200.477 1660.043 1199.397 1654.526 1203.91"/><rect class="cls-11" x="1650.473" y="1194.5234" width="1.3694" height="9.2272" transform="translate(3302.3154 2398.2739) rotate(-180)"/><polygon class="cls-11" points="1663.657 1217.442 1664.42 1218.118 1667.772 1214.231 1667.01 1213.556 1663.657 1217.442"/><polygon class="cls-11" points="1664.693 1210.419 1665.209 1210.589 1666.737 1205.825 1666.221 1205.655 1664.693 1210.419"/><path class="cls-17" d="M1230.7812,819.5313l186.6-183.5467a10.3836,10.3836,0,0,1,12.9745-.7966l36.8622,27.1585a7.07,7.07,0,0,1,.9358,11.0451s-69.4181,62.2993-94.6687,93.12-91.9314,90.4271-91.9314,90.4271a10.3835,10.3835,0,0,1-12.9745.7966l-36.8623-27.1584A7.07,7.07,0,0,1,1230.7812,819.5313Z"/><path class="cls-18" d="M1227.9991,817.4816l186.6-183.5466a10.3835,10.3835,0,0,1,12.9745-.7967l36.8622,27.1585a7.07,7.07,0,0,1,.9358,11.0451s-69.4181,62.2993-94.6687,93.12-91.9314,90.4271-91.9314,90.4271a10.3833,10.3833,0,0,1-12.9745.7966l-36.8622-27.1584A7.07,7.07,0,0,1,1227.9991,817.4816Z"/><path class="cls-18" d="M1225.7785,822.0589c3.8266-24.1054,9.153-84.3862,50.0846-124.6481,48.9386-48.1377,113.5358-53.0465,138.6425-64.58,20.5649-9.4472-28.446,66.27-74.6552,111.7234S1222.649,841.7728,1225.7785,822.0589Z"/><path class="cls-17" d="M1242.8275,743.0314c18.9007,2.7145,30.5585,23.405,26.0385,46.2135s-23.5065,39.098-42.4072,36.3836"/><path class="cls-17" d="M1318.5462,664.3682c6.1666,15.45,32.0214,21.9419,57.7483,14.5s41.5836-25.9989,35.4169-41.4488"/><ellipse class="cls-1" cx="1635.8752" cy="700.175" rx="38.1685" ry="31.8811"/><path class="cls-11" d="M1630.2332,1092.45c1.324,1.4829,1.4888-7.181,4.8639-9.8059,3.1627-2.46,9.6027,1.2216,9.2125-.7107-.509-2.5208-6.6213-4.75-10.8772-.809C1629.9339,1084.364,1628.7505,1090.79,1630.2332,1092.45Z"/><path class="cls-16" d="M1288.3881,192.3524a34.2672,34.2672,0,0,0,48.3459,7.3138,35.3336,35.3336,0,0,0,7.2174-48.9918"/><polygon class="cls-8" points="1216.465 112.892 1285.597 56.371 1256.559 19.899 1187.427 76.419 1216.465 112.892"/><polygon class="cls-8" points="1264.727 217.317 1372.88 128.894 1300.549 38.045 1192.397 126.467 1264.727 217.317"/><rect class="cls-8" x="1210.8447" y="2.0341" width="17.71" height="64.361" transform="translate(2439.3995 68.4292) rotate(-180)"/><path class="cls-16" d="M1953.7284,192.3524a34.2671,34.2671,0,0,1-48.3458,7.3138,35.3336,35.3336,0,0,1-7.2175-48.9918"/><polygon class="cls-8" points="2025.652 112.892 1956.52 56.371 1985.558 19.899 2054.69 76.419 2025.652 112.892"/><polygon class="cls-8" points="1977.389 217.317 1869.237 128.894 1941.568 38.045 2049.72 126.467 1977.389 217.317"/><rect class="cls-8" x="2013.5618" y="2.0341" width="17.71" height="64.361"/><rect class="cls-1" x="3243.0583" y="0.8275" width="1080" height="1577"/><path class="cls-10" d="M3934.8231,1539.407c-34.3494,17.0087-45.6925,31.739-136.3172,24.26-82.6562-6.8214-160.4693-14.6467-164.6339-25.0407-5.1342-12.8139,13.8887-10.1251,164.634-25.0406C3798.506,1513.5857,3947.0868,1533.3344,3934.8231,1539.407Z"/><path class="cls-2" d="M4197.3053,693.0557l-34.4817,23.9a10.3132,10.3132,0,0,1-14.41-2.7382l-60.72-89.9235a10.6213,10.6213,0,0,1,2.7027-14.5994l34.4817-23.9a10.3131,10.3131,0,0,1,14.41,2.7383l60.72,89.9235A10.6212,10.6212,0,0,1,4197.3053,693.0557Z"/><path class="cls-2" d="M4136.3494,621.5925,4119.1706,633.5a2.3546,2.3546,0,0,1-3.29-.6252l-53.895-79.8153a2.4252,2.4252,0,0,1,.617-3.3334l17.1788-11.907a2.3548,2.3548,0,0,1,3.29.6252l53.895,79.8154A2.425,2.425,0,0,1,4136.3494,621.5925Z"/><polygon class="cls-3" points="4182.025 651.824 4130.43 687.585 4104.012 648.461 4155.606 612.7 4182.025 651.824"/><polygon class="cls-2" points="4109.431 577.481 4088.264 591.976 4085.337 616.909 4132.728 583.494 4109.431 577.481"/><ellipse class="cls-4" cx="4120.2484" cy="690.3289" rx="28.6988" ry="29.0762"/><ellipse class="cls-5" cx="3783.7779" cy="178.7605" rx="107.5712" ry="108.9859"/><ellipse class="cls-6" cx="3782.8179" cy="178.7605" rx="85.6111" ry="108.9859"/><ellipse class="cls-7" cx="3783.7779" cy="178.7605" rx="48.9414" ry="108.9859"/><rect class="cls-8" x="3781.4233" y="69.7746" width="2.7891" height="217.9719"/><rect class="cls-8" x="3781.4233" y="0.8275" width="2.7891" height="217.9719"/><polygon class="cls-8" points="3891.297 182.189 3891.175 185.014 3676.381 185.014 3676.258 182.171 3891.297 182.189"/><polygon class="cls-8" points="3887.635 207.256 3886.841 210.081 3680.701 210.081 3679.921 207.256 3887.635 207.256"/><polygon class="cls-8" points="3877.483 232.322 3875.872 235.148 3691.746 235.148 3690.072 232.322 3877.483 232.322"/><polygon class="cls-8" points="3858.266 257.389 3855.209 260.215 3712.333 260.215 3709.289 257.389 3858.266 257.389"/><polygon class="cls-8" points="3889.229 157.122 3889.752 159.947 3677.803 159.947 3678.327 157.122 3889.229 157.122"/><polygon class="cls-8" points="3881.01 132.055 3882.275 134.88 3685.281 134.88 3686.609 132.055 3881.01 132.055"/><polygon class="cls-8" points="3864.663 106.988 3867.169 109.813 3700.619 109.622 3702.791 106.988 3864.663 106.988"/><polygon class="cls-8" points="3833.152 81.921 3838.226 84.746 3730.468 84.078 3734.335 81.921 3833.152 81.921"/><polygon class="cls-9" points="3693.678 64.38 3711.933 76.812 3730.085 64.274 3719.709 82.77 3730.189 101.16 3711.933 89.804 3693.782 101.266 3705.307 83.608 3693.678 64.38"/><polygon class="cls-9" points="3832.719 64.944 3850.975 77.375 3869.126 64.838 3858.75 83.334 3869.231 101.724 3850.975 90.368 3832.824 101.829 3844.348 84.171 3832.719 64.944"/><polygon class="cls-9" points="3672.535 235.25 3690.072 247.192 3707.509 235.148 3697.541 252.916 3707.609 270.582 3690.072 259.673 3672.636 270.684 3683.707 253.721 3672.535 235.25"/><polygon class="cls-9" points="3709.289 270.081 3726.826 282.023 3744.263 269.979 3734.295 287.746 3744.363 305.412 3726.826 294.504 3709.39 305.514 3720.461 288.551 3709.289 270.081"/><path class="cls-11" d="M3648.6788,690.0268c3.5041,2.5225,15.8183-11.349,22.9031-19.33,14.3048-16.1138,35.6145-44.6263,38.5554-53.8395,4.6124-14.4494-34.8674,15.1575-52.5733,44.5273C3649.8883,674.117,3645.6685,687.86,3648.6788,690.0268Z"/><path class="cls-11" d="M3965.0663,707.1386c3.4216-2.6363-5.9739-18.6818-11.3794-27.9133-10.9143-18.6394-31.42-47.7507-39.2226-53.3425-12.2371-8.77,3.88,38.2389,26.2687,64.1209C3950.4386,701.2238,3962.1269,709.4033,3965.0663,707.1386Z"/><path class="cls-11" d="M3978.404,542.11c-2.1679-3.7606-19.0276,3.7425-28.7275,8.0592-19.5852,8.716-50.5931,25.8081-57.0178,32.9769-10.0761,11.2431,37.9346.7344,66.007-18.6425C3970.8353,556.1034,3980.2665,545.3406,3978.404,542.11Z"/><path class="cls-4" d="M3973.4936,947.8186c0,141.078-21.817,257.0859-49.76,270.8505v1.3717c-36.0435,3.2544-101.0436,1.0819-102.781,1.6038-7.1152,2.1378-11.6654.6436-15.8054-1.6038-6.3735,4.018-7.2161,4.6609-14.54,2.041-2.5853-.9248-66.6084,3.39-98.4657-2.041-30.5636,0-55.34-121.878-55.34-272.2222"/><path class="cls-11" d="M3805.3129,431.0393c-73.2935,0-132.71,43.2395-132.71,96.578V743.406c0,41.4984,59.4162,75.14,132.71,75.14s132.71-33.6411,132.71-75.1395V527.6173C3938.0227,474.2788,3878.6066,431.0393,3805.3129,431.0393Z"/><path class="cls-12" d="M3983.8282,1071.1927c0-141.078-23.03-257.0859-52.5258-270.85v-1.3716h-244.466c-32.2626,0-58.4166,121.8779-58.4166,272.2221"/><path class="cls-13" d="M3841.7357,821.441l.2634-.0013-.4453-89.3749-71.3049.3647.4453,89.3749.2635-.0014c.056,11.2353,15.9455,20.2623,35.49,20.1623S3841.7916,832.6763,3841.7357,821.441Z"/><path class="cls-4" d="M3678.7784,551.7776V632.103c0,76.42,56.5212,138.3708,126.2438,138.3708S3931.266,708.5231,3931.266,632.103V551.7776Z"/><ellipse class="cls-14" cx="3725.1713" cy="661.1257" rx="15.9056" ry="16.1148"/><ellipse class="cls-14" cx="3874.8512" cy="661.1257" rx="15.9056" ry="16.1148"/><path class="cls-13" d="M3679.1054,647.1039c-19.8691,0-35.9762-15.2335-35.9762-34.025s16.1071-34.0251,35.9762-34.0251"/><path class="cls-13" d="M3930.5464,579.0538c19.8692,0,35.9763,15.2336,35.9763,34.0251s-16.1071,34.025-35.9763,34.025"/><path class="cls-15" d="M3745.04,615.2367l-4.3941-4.6255a2.0851,2.0851,0,0,1,.0551-2.9124l30.7985-30.0316a2.02,2.02,0,0,1,2.8746.0558l4.394,4.6255a2.085,2.085,0,0,1-.055,2.9124l-30.7985,30.0316A2.02,2.02,0,0,1,3745.04,615.2367Z"/><path class="cls-15" d="M3769.3193,615.4647l-26.7672-28.1776a2.4327,2.4327,0,0,1,.0642-3.3978l5.3264-5.1938a2.3571,2.3571,0,0,1,3.3537.065l26.7673,28.1777A2.4327,2.4327,0,0,1,3778,610.336l-5.3265,5.1938A2.357,2.357,0,0,1,3769.3193,615.4647Z"/><path class="cls-15" d="M3827.3321,615.1814l-4.3941-4.6256a2.0851,2.0851,0,0,1,.0551-2.9124l30.7985-30.0315a2.02,2.02,0,0,1,2.8746.0557l4.394,4.6256a2.085,2.085,0,0,1-.055,2.9124l-30.7985,30.0315A2.02,2.02,0,0,1,3827.3321,615.1814Z"/><path class="cls-15" d="M3851.6117,615.4094l-26.7672-28.1777a2.4327,2.4327,0,0,1,.0642-3.3978l5.3264-5.1938a2.357,2.357,0,0,1,3.3537.0651l26.7673,28.1776a2.4327,2.4327,0,0,1-.0642,3.3978l-5.3265,5.1938A2.357,2.357,0,0,1,3851.6117,615.4094Z"/><path class="cls-12" d="M3727.1512,872.9087l-4.33,2.8a28.8608,28.8608,0,0,1-40.0477-8.9584L3583.148,708.6132a29.7,29.7,0,0,1,8.8422-40.5743l4.33-2.8a28.8608,28.8608,0,0,1,40.0477,8.9585l99.6256,158.137A29.7,29.7,0,0,1,3727.1512,872.9087Z"/><path class="cls-12" d="M3907.0257,831.6426l.4516-5.1842a29.1975,29.1975,0,0,1,31.4375-26.6843l73.1314,6.54a29.36,29.36,0,0,1,26.3379,31.8509l-.4517,5.1842a29.1975,29.1975,0,0,1-31.4375,26.6843l-73.1314-6.54A29.3594,29.3594,0,0,1,3907.0257,831.6426Z"/><path class="cls-12" d="M4001.5722,858.98l-4.1448-3.0742a29.7214,29.7214,0,0,1-6.27-41.0631L4071.17,704.1069a28.84,28.84,0,0,1,40.53-6.3523l4.1449,3.0741a29.7216,29.7216,0,0,1,6.27,41.0632l-80.0124,110.7353A28.84,28.84,0,0,1,4001.5722,858.98Z"/><path class="cls-11" d="M3721.0135,493.406c.1607-4.352-18.0412-7.1793-28.5132-8.8059-21.1442-3.2844-56.3634-5.7052-65.5806-3.1451-14.4558,4.015,31.63,21.2306,65.5806,20.128C3707.2182,501.105,3720.8754,497.1449,3721.0135,493.406Z"/><path class="cls-11" d="M3734.2175,490.7005c1.9942-3.8581-13.2336-14.3484-21.9946-20.3838-17.69-12.1861-48.45-29.7312-57.8572-31.44-14.7538-2.6807,19.5288,32.9575,50.6414,46.7692C3718.4947,491.6331,3732.5044,494.015,3734.2175,490.7005Z"/><path class="cls-11" d="M3744.5017,463.9655c1.9942-3.8581-13.2337-14.3484-21.9947-20.3838-17.6894-12.1861-48.45-29.7312-57.8571-31.44-14.7538-2.6807,19.5288,32.9575,50.6414,46.7692C3728.7789,464.8981,3742.7885,467.28,3744.5017,463.9655Z"/><path class="cls-11" d="M3963.3841,432.339c-3.1054-3.0113-17.2773,8.9014-25.4308,15.7551-16.4628,13.8385-41.6333,38.9136-45.8635,47.5964-6.6346,13.6177,36.67-9.867,58.3981-36.32C3959.9071,447.9021,3966.0519,434.9259,3963.3841,432.339Z"/><path class="cls-11" d="M3936.5479,404.6871c-3.7768-2.08-14.3645,13.1849-20.456,21.967-12.2992,17.732-30.0889,48.6228-31.9207,58.1262-2.873,14.9048,32.8271-19.275,46.9376-50.58C3937.2258,420.6292,3939.7925,406.4737,3936.5479,404.6871Z"/><rect class="cls-4" x="3659.3375" y="1117.0152" width="89.4147" height="450.8318" rx="17.4747"/><rect class="cls-4" x="3858.9456" y="1117.0152" width="89.4147" height="450.8318" rx="17.4747"/><rect class="cls-11" x="3802.6285" y="1188.1361" width="5.0376" height="31.9046" rx="0.9845"/><rect class="cls-16" x="3800.7642" y="1224.7017" width="8.7661" height="14.0846" rx="1.7132"/><rect class="cls-16" x="3796.3811" y="1272.9049" width="8.7661" height="14.0846" rx="1.7132"/><rect class="cls-16" x="3807.1539" y="1256.6063" width="8.7661" height="18.9792" rx="1.7132"/><rect class="cls-16" x="3790.0077" y="1289.2035" width="8.7661" height="31.9046" rx="1.7132"/><rect class="cls-16" x="3804.8357" y="1321.1082" width="8.7661" height="18.848" rx="1.7132"/><rect class="cls-16" x="3794.3907" y="1243.2708" width="8.7661" height="18.848" rx="1.7132"/><rect class="cls-16" x="3800.9572" y="1348.1929" width="8.7661" height="14.0846" rx="1.7132"/><rect class="cls-16" x="3796.5741" y="1396.3961" width="8.7661" height="14.0846" rx="1.7132"/><rect class="cls-16" x="3807.3469" y="1380.0975" width="8.7661" height="18.9792" rx="1.7132"/><rect class="cls-16" x="3790.2007" y="1412.6947" width="8.7661" height="31.9046" rx="1.7132"/><rect class="cls-16" x="3805.0287" y="1444.5994" width="8.7661" height="18.848" rx="1.7132"/><rect class="cls-16" x="3794.5837" y="1366.762" width="8.7661" height="18.848" rx="1.7132"/><rect class="cls-16" x="3777.0547" y="1500.9077" width="34.3939" height="9.8062" rx="1.8916"/><rect class="cls-16" x="3794.2516" y="1505.8108" width="34.3939" height="9.8062" rx="1.8916"/><rect class="cls-16" x="3781.1262" y="1508.0251" width="34.3939" height="9.8062" rx="1.8916"/><rect class="cls-16" x="3770.6812" y="1512.9282" width="34.3939" height="9.8062" rx="1.8916"/><rect class="cls-16" x="3787.8781" y="1513.7045" width="34.3939" height="9.8062" rx="1.8916"/><rect class="cls-16" x="3802.7062" y="1513.7045" width="34.3939" height="9.8062" rx="1.8916"/><rect class="cls-16" x="3777.0547" y="1518.6076" width="34.3939" height="9.8062" rx="1.8916"/><rect class="cls-16" x="3796.6442" y="1518.6076" width="34.3939" height="9.8062" rx="1.8916"/><polygon class="cls-11" points="3790.138 1216.556 3788.835 1216.985 3785.51 1206.615 3786.812 1206.187 3790.138 1216.556"/><polygon class="cls-11" points="3797.569 1218.914 3796.266 1219.343 3792.94 1208.974 3794.243 1208.545 3797.569 1218.914"/><polygon class="cls-11" points="3794.2 1204.3 3793.34 1205.38 3787.824 1200.868 3788.684 1199.788 3794.2 1204.3"/><rect class="cls-11" x="3796.8839" y="1194.9156" width="1.3694" height="9.2253"/><polygon class="cls-11" points="3785.069 1217.83 3784.307 1218.505 3780.954 1214.619 3781.716 1213.944 3785.069 1217.83"/><polygon class="cls-11" points="3784.034 1210.808 3783.517 1210.978 3781.99 1206.215 3782.506 1206.045 3784.034 1210.808"/><polygon class="cls-11" points="3820.589 1216.076 3821.891 1216.505 3825.217 1206.136 3823.914 1205.707 3820.589 1216.076"/><polygon class="cls-11" points="3813.158 1218.435 3814.46 1218.863 3817.786 1208.494 3816.484 1208.065 3813.158 1218.435"/><polygon class="cls-11" points="3816.526 1203.821 3817.386 1204.9 3822.903 1200.388 3822.043 1199.309 3816.526 1203.821"/><rect class="cls-11" x="3812.473" y="1194.4361" width="1.3694" height="9.2253" transform="translate(7626.3154 2398.0974) rotate(-180)"/><polygon class="cls-11" points="3825.657 1217.35 3826.42 1218.025 3829.772 1214.139 3829.01 1213.464 3825.657 1217.35"/><polygon class="cls-11" points="3826.693 1210.329 3827.209 1210.499 3828.737 1205.735 3828.221 1205.565 3826.693 1210.329"/><path class="cls-17" d="M3392.7812,819.5218l186.6-183.5085a10.385,10.385,0,0,1,12.9745-.7964L3629.218,662.37a7.0676,7.0676,0,0,1,.9358,11.0428s-69.4181,62.2864-94.6687,93.1-91.9314,90.4083-91.9314,90.4083a10.3852,10.3852,0,0,1-12.9745.7965l-36.8623-27.1529A7.0675,7.0675,0,0,1,3392.7812,819.5218Z"/><path class="cls-18" d="M3389.9991,817.4726l186.6-183.5085a10.3852,10.3852,0,0,1,12.9745-.7965l36.8622,27.1528a7.0675,7.0675,0,0,1,.9358,11.0428s-69.4181,62.2864-94.6687,93.1-91.9314,90.4083-91.9314,90.4083a10.3852,10.3852,0,0,1-12.9745.7965l-36.8622-27.1528A7.0676,7.0676,0,0,1,3389.9991,817.4726Z"/><path class="cls-18" d="M3387.7785,822.049c3.8266-24.1,9.153-84.3687,50.0846-124.6222,48.9386-48.1277,113.5358-53.0356,138.6425-64.567,20.5649-9.4453-28.446,66.2566-74.6552,111.7S3384.649,841.7588,3387.7785,822.049Z"/><path class="cls-17" d="M3404.8275,743.0379c18.9007,2.7139,30.5585,23.4,26.0385,46.2039s-23.5065,39.09-42.4072,36.376"/><path class="cls-17" d="M3480.5462,664.391c6.1666,15.4467,32.0214,21.9373,57.7483,14.4973s41.5836-25.9935,35.4169-41.44"/><ellipse class="cls-1" cx="3797.8752" cy="700.1903" rx="38.1685" ry="31.8745"/><path class="cls-11" d="M3792.2332,1092.3842c1.324,1.4826,1.4888-7.1795,4.8639-9.8039,3.1627-2.4593,9.6027,1.2214,9.2125-.7105-.509-2.52-6.6213-4.7485-10.8772-.8088C3791.9339,1084.3,3790.7505,1090.7237,3792.2332,1092.3842Z"/><path class="cls-16" d="M3450.3881,192.4732a34.2719,34.2719,0,0,0,48.3459,7.3123,35.3214,35.3214,0,0,0,7.2174-48.9816"/><polygon class="cls-8" points="3378.465 113.029 3447.597 56.52 3418.559 20.055 3349.427 76.564 3378.465 113.029"/><polygon class="cls-8" points="3426.727 217.432 3534.88 129.028 3462.549 38.198 3354.397 126.601 3426.727 217.432"/><rect class="cls-8" x="3372.8447" y="2.1945" width="17.71" height="64.3476" transform="translate(6763.3995 68.7365) rotate(-180)"/><path class="cls-16" d="M4115.7284,192.4732a34.2718,34.2718,0,0,1-48.3458,7.3123,35.3214,35.3214,0,0,1-7.2175-48.9816"/><polygon class="cls-8" points="4187.652 113.029 4118.52 56.52 4147.558 20.055 4216.69 76.564 4187.652 113.029"/><polygon class="cls-8" points="4139.389 217.432 4031.237 129.028 4103.568 38.198 4211.72 126.601 4139.389 217.432"/><rect class="cls-8" x="4175.5618" y="2.1945" width="17.71" height="64.3476"/><polygon class="cls-19" points="2350.543 1556 3074.273 1556 3037.205 196.014 2982 151 2350.543 1556"/><rect class="cls-1" x="4320.3728" y="0.4436" width="1080" height="1577"/><rect class="cls-2" x="5131.0759" y="530.892" width="63.3055" height="129.987" rx="10.367"/><rect class="cls-2" x="5149.7926" y="465.4841" width="25.8722" height="101.5234" rx="2.367"/><rect class="cls-3" x="5131.0759" y="570.685" width="63.3055" height="47.4135"/><polygon class="cls-2" points="5175.665 515.191 5149.793 515.045 5133.275 533.954 5191.742 533.485 5175.665 515.191"/><ellipse class="cls-4" cx="5119.7081" cy="624.5382" rx="29.0627" ry="29.0823"/><ellipse class="cls-5" cx="4861.1015" cy="178.4136" rx="108.9353" ry="109.0086"/><ellipse class="cls-6" cx="4860.1293" cy="178.4136" rx="86.6967" ry="109.0086"/><ellipse class="cls-7" cx="4861.1015" cy="178.4136" rx="49.562" ry="109.0086"/><rect class="cls-8" x="4858.7171" y="69.405" width="2.8245" height="218.0171"/><rect class="cls-8" x="4858.7171" y="0.4436" width="2.8245" height="218.0171"/><polygon class="cls-8" points="4969.984 181.842 4969.86 184.669 4752.343 184.669 4752.218 181.825 4969.984 181.842"/><polygon class="cls-8" points="4966.276 206.915 4965.471 209.741 4756.717 209.741 4755.927 206.915 4966.276 206.915"/><polygon class="cls-8" points="4955.995 231.987 4954.363 234.813 4767.902 234.813 4766.208 231.987 4955.995 231.987"/><polygon class="cls-8" points="4936.535 257.059 4933.439 259.885 4788.751 259.885 4785.668 257.059 4936.535 257.059"/><polygon class="cls-8" points="4967.89 156.77 4968.42 159.597 4753.783 159.597 4754.313 156.77 4967.89 156.77"/><polygon class="cls-8" points="4959.566 131.698 4960.847 134.524 4761.356 134.524 4762.701 131.698 4959.566 131.698"/><polygon class="cls-8" points="4943.013 106.626 4945.55 109.452 4776.888 109.261 4779.087 106.626 4943.013 106.626"/><polygon class="cls-8" points="4911.102 81.554 4916.24 84.38 4807.115 83.712 4811.031 81.554 4911.102 81.554"/><polygon class="cls-9" points="4769.859 64.009 4788.346 76.444 4806.727 63.903 4796.22 82.403 4806.833 100.797 4788.346 89.439 4769.964 100.903 4781.635 83.241 4769.859 64.009"/><polygon class="cls-9" points="4931.445 240.078 4949.932 252.513 4968.314 239.972 4957.806 258.472 4968.42 276.866 4949.932 265.508 4931.551 276.972 4943.222 259.31 4931.445 240.078"/><polygon class="cls-9" points="4741.398 106.305 4759.157 118.25 4776.815 106.203 4766.721 123.975 4776.917 141.644 4759.157 130.733 4741.5 141.746 4752.711 124.78 4741.398 106.305"/><path class="cls-10" d="M5016.5737,1540.32c-34.785,17.0123-46.2719,31.7456-138.0458,24.2651-83.7044-6.8228-162.5043-14.65-166.7217-25.0459-5.1992-12.8166,14.0649-10.1272,166.7217-25.0458C4878.5279,1514.4929,5028.9929,1534.2456,5016.5737,1540.32Z"/><path class="cls-11" d="M4724.2893,689.7861c3.5485,2.523,16.0188-11.3514,23.1934-19.3337,14.4863-16.1171,36.0662-44.6356,39.0444-53.8506,4.6709-14.4525-35.31,15.1606-53.24,44.5365C4725.5141,673.8731,4721.2407,687.6186,4724.2893,689.7861Z"/><path class="cls-11" d="M5044.6888,706.9014c3.465-2.6367-6.05-18.6856-11.5237-27.9191-11.0527-18.6432-31.8185-47.76-39.72-53.3535-12.3922-8.7719,3.93,38.2468,26.6019,64.1342C5029.8756,700.9854,5041.7122,709.1667,5044.6888,706.9014Z"/><path class="cls-11" d="M5058.1957,541.8384c-2.1954-3.7614-19.2689,3.7433-29.0919,8.0609-19.8335,8.7178-51.2346,25.8135-57.7407,32.9837-10.204,11.2454,38.4156.7346,66.844-18.6463C5050.531,555.8349,5060.0817,545.07,5058.1957,541.8384Z"/><path class="cls-4" d="M5053.2229,947.6315c0,141.1073-22.0936,257.1393-50.3908,270.9067v1.372c-36.5006,3.2552-102.3249,1.0821-104.0844,1.6042-7.2054,2.1382-11.8133.6437-16.0058-1.6042-6.4543,4.0189-7.3076,4.6619-14.7247,2.0414-2.618-.9249-67.4531,3.39-99.7143-2.0414-30.9512,0-56.0421-121.9033-56.0421-272.2787"/><path class="cls-11" d="M4882.91,430.7448c-74.2229,0-134.3927,43.2485-134.3927,96.5981V743.1764c0,41.507,60.17,75.1551,134.3927,75.1551s134.3927-33.6481,134.3927-75.1551V527.3429C5017.3023,473.9933,4957.1327,430.7448,4882.91,430.7448Z"/><path class="cls-12" d="M5063.6887,1071.0312c0-141.1073-23.3218-257.1393-53.1919-270.9067v-1.3719H4762.9307c-32.6717,0-59.1573,121.9032-59.1573,272.2786"/><path class="cls-13" d="M4919.7942,821.2277l.2669-.0014-.451-89.3934-72.2091.3648.4509,89.3934.2668-.0014c.0567,11.2377,16.1478,20.2665,35.94,20.1665S4919.8509,832.4653,4919.7942,821.2277Z"/><path class="cls-4" d="M4754.7705,551.5083V631.85c0,76.436,57.238,138.4,127.8447,138.4S5010.46,708.2863,5010.46,631.85v-80.342Z"/><ellipse class="cls-14" cx="4801.7518" cy="660.879" rx="16.1073" ry="16.1181"/><ellipse class="cls-14" cx="4953.3297" cy="660.879" rx="16.1073" ry="16.1181"/><path class="cls-13" d="M4755.1017,646.8544c-20.1211,0-36.4324-15.2367-36.4324-34.0322s16.3113-34.0321,36.4324-34.0321"/><path class="cls-13" d="M5009.7312,578.79c20.1211,0,36.4324,15.2367,36.4324,34.0321s-16.3113,34.0322-36.4324,34.0322"/><path class="cls-15" d="M4815.2056,590.9507h43.036a2.1937,2.1937,0,0,1,2.1937,2.1937v6.1536a2.1908,2.1908,0,0,1-2.1908,2.1908h-43.036a2.1937,2.1937,0,0,1-2.1937-2.1937v-6.1537a2.1907,2.1907,0,0,1,2.1907-2.1907Z" transform="translate(937.3939 3519.3353) rotate(-43.8843)"/><path class="cls-15" d="M4833.7427,574.8982h7.179a2.5594,2.5594,0,0,1,2.5594,2.5594v38.7938a2.5559,2.5559,0,0,1-2.5559,2.5559h-7.179a2.5594,2.5594,0,0,1-2.5594-2.5594V577.454A2.5559,2.5559,0,0,1,4833.7427,574.8982Z" transform="translate(937.1252 3519.934) rotate(-43.8843)"/><path class="cls-15" d="M4898.5416,590.8953h43.0359a2.1937,2.1937,0,0,1,2.1937,2.1937v6.1536a2.1908,2.1908,0,0,1-2.1908,2.1908h-43.036a2.1937,2.1937,0,0,1-2.1937-2.1937v-6.1537A2.1908,2.1908,0,0,1,4898.5416,590.8953Z" transform="translate(960.7055 3577.0898) rotate(-43.8843)"/><path class="cls-15" d="M4917.0787,574.8428h7.1789a2.5594,2.5594,0,0,1,2.5594,2.5594v38.7938a2.5559,2.5559,0,0,1-2.5559,2.5559h-7.179a2.5594,2.5594,0,0,1-2.5594-2.5594V577.3987A2.5559,2.5559,0,0,1,4917.0787,574.8428Z" transform="translate(960.4358 3577.6873) rotate(-43.8843)"/><path class="cls-12" d="M4808.0546,869.9609l-12.9805,8.2908a24.3307,24.3307,0,0,1-33.5145-7.4047L4655.1842,704.0757a24.3666,24.3666,0,0,1,7.4-33.537l12.9806-8.2908a24.3305,24.3305,0,0,1,33.5144,7.4047l106.3754,166.7713A24.3665,24.3665,0,0,1,4808.0546,869.9609Z"/><path class="cls-12" d="M5018.9026,860.5253l-13.9718-6.48A24.3637,24.3637,0,0,1,4993.116,821.8l83.1347-179.5076a24.3335,24.3335,0,0,1,32.224-11.8227l13.9718,6.4794a24.3638,24.3638,0,0,1,11.8148,32.2457l-83.1347,179.5075A24.3335,24.3335,0,0,1,5018.9026,860.5253Z"/><path class="cls-11" d="M4797.5412,493.1245c.1628-4.3529-18.27-7.1808-28.8748-8.8078-21.4123-3.285-57.0781-5.7063-66.4122-3.1457-14.6391,4.0159,32.031,21.235,66.4122,20.1322C4783.571,500.8251,4797.4014,496.8641,4797.5412,493.1245Z"/><path class="cls-11" d="M4810.9127,490.4184c2.0194-3.8588-13.4015-14.3513-22.2736-20.388-17.9137-12.1886-49.0643-29.7374-58.5908-31.4469-14.9409-2.6812,19.7764,32.9644,51.2836,46.779C4794.9905,491.3512,4809.1778,493.7336,4810.9127,490.4184Z"/><path class="cls-11" d="M4821.3273,463.6779c2.0194-3.8589-13.4015-14.3514-22.2736-20.388-17.9138-12.1887-49.0643-29.7375-58.5908-31.4469-14.9409-2.6812,19.7764,32.9644,51.2835,46.7789C4805.4051,464.6107,4819.5924,466.993,4821.3273,463.6779Z"/><path class="cls-11" d="M5042.9853,432.0448c-3.1448-3.012-17.4964,8.9033-25.7533,15.7584-16.6716,13.8413-42.1612,38.9217-46.4451,47.6063-6.7187,13.62,37.1353-9.8691,59.1387-36.3281C5039.4642,447.6111,5045.6869,434.6323,5042.9853,432.0448Z"/><path class="cls-11" d="M5015.8087,404.3872c-3.8246-2.08-14.5466,13.1876-20.7153,21.9715-12.4552,17.7357-30.47,48.6329-32.3255,58.1383-2.9094,14.9079,33.2433-19.279,47.5328-50.5906C5016.4953,420.3325,5019.0945,406.1741,5015.8087,404.3872Z"/><rect class="cls-4" x="4735.0831" y="1116.8632" width="90.5485" height="450.9255" rx="17.4747"/><rect class="cls-4" x="4937.2224" y="1116.8632" width="90.5485" height="450.9255" rx="17.4747"/><rect class="cls-11" x="4880.1911" y="1187.9989" width="5.1015" height="31.9113" rx="0.9845"/><rect class="cls-16" x="4878.3032" y="1224.5721" width="8.8773" height="14.0876" rx="1.7132"/><rect class="cls-16" x="4873.8646" y="1272.7853" width="8.8773" height="14.0876" rx="1.7132"/><rect class="cls-16" x="4884.7739" y="1256.4833" width="8.8773" height="18.9832" rx="1.7132"/><rect class="cls-16" x="4867.4103" y="1289.0873" width="8.8773" height="31.9113" rx="1.7132"/><rect class="cls-16" x="4871.8489" y="1243.145" width="8.8773" height="18.8519" rx="1.7132"/><rect class="cls-16" x="4854.293" y="1500.8355" width="34.83" height="9.8083" rx="1.8916"/><rect class="cls-16" x="4871.708" y="1505.7396" width="34.83" height="9.8083" rx="1.8916"/><rect class="cls-16" x="4858.4161" y="1507.9544" width="34.83" height="9.8083" rx="1.8916"/><rect class="cls-16" x="4847.8387" y="1512.8585" width="34.83" height="9.8083" rx="1.8916"/><rect class="cls-16" x="4865.2537" y="1513.6349" width="34.83" height="9.8083" rx="1.8916"/><rect class="cls-16" x="4880.2698" y="1513.6349" width="34.83" height="9.8083" rx="1.8916"/><rect class="cls-16" x="4854.293" y="1518.5391" width="34.83" height="9.8083" rx="1.8916"/><rect class="cls-16" x="4874.131" y="1518.5391" width="34.83" height="9.8083" rx="1.8916"/><rect class="cls-11" x="4864.5051" y="1206.0011" width="1.3868" height="10.9044" transform="matrix(0.951, -0.3092, 0.3092, 0.951, -136.1568, 1563.9028)"/><rect class="cls-11" x="4872.0302" y="1208.3599" width="1.3868" height="10.9044" transform="translate(-136.5174 1566.3455) rotate(-18.0135)"/><rect class="cls-11" x="4867.7336" y="1198.8591" width="1.3873" height="7.1815" transform="translate(875.7145 4236.5419) rotate(-51.1053)"/><rect class="cls-11" x="4874.3737" y="1194.7798" width="1.3867" height="9.2272"/><rect class="cls-11" x="4859.8126" y="1213.5127" width="1.0256" height="5.1607" transform="translate(401.3371 3500.6212) rotate(-41.1754)"/><rect class="cls-11" x="4860.0506" y="1205.8736" width="0.5496" height="5.0095" transform="matrix(0.951, -0.3092, 0.3092, 0.951, -135.4448, 1562.2451)"/><rect class="cls-11" x="4895.2702" y="1210.2803" width="10.9044" height="1.3868" transform="translate(2233.5993 5496.9965) rotate(-71.9865)"/><rect class="cls-11" x="4887.7451" y="1212.639" width="10.9044" height="1.3868" transform="translate(2226.1581 5491.4696) rotate(-71.9865)"/><rect class="cls-11" x="4893.9029" y="1201.2766" width="7.1815" height="1.3873" transform="translate(331.0638 3341.5717) rotate(-38.8947)"/><rect class="cls-11" x="4890.1605" y="1194.3002" width="1.3867" height="9.2272" transform="translate(9781.7078 2397.8276) rotate(-180)"/><rect class="cls-11" x="4903.0152" y="1215.1006" width="5.1607" height="1.0256" transform="translate(760.9246 4107.7211) rotate(-48.8246)"/><rect class="cls-11" x="4903.0908" y="1207.6239" width="5.0095" height="0.5496" transform="matrix(0.3092, -0.951, 0.951, 0.3092, 2239.8897, 5499.5067)"/><path class="cls-17" d="M4465.1466,819.3081,4654.113,635.7614a10.6181,10.6181,0,0,1,13.139-.7966l37.33,27.1585c3.8738,2.8183,4.3,7.7886.9476,11.0451,0,0-70.2983,62.2993-95.8691,93.12s-93.0973,90.4271-93.0973,90.4271a10.6178,10.6178,0,0,1-13.139.7966l-37.33-27.1584C4462.22,827.5348,4461.794,822.5645,4465.1466,819.3081Z"/><path class="cls-18" d="M4462.3293,817.2584l188.9663-183.5466a10.6181,10.6181,0,0,1,13.1391-.7967l37.33,27.1585c3.8739,2.8183,4.3,7.7886.9477,11.0451,0,0-70.2984,62.2993-95.8692,93.12s-93.0972,90.4271-93.0972,90.4271a10.6178,10.6178,0,0,1-13.139.7966l-37.33-27.1584C4459.4031,825.4851,4458.9766,820.5149,4462.3293,817.2584Z"/><path class="cls-18" d="M4460.0805,821.8357c3.8752-24.1054,9.2691-84.3862,50.72-124.6481,49.5591-48.1377,114.9754-53.0465,140.4006-64.58,20.8256-9.4472-28.8068,66.27-75.6019,111.7234S4456.9114,841.55,4460.0805,821.8357Z"/><path class="cls-17" d="M4477.3457,742.8082c19.14,2.7145,30.9461,23.405,26.3687,46.2135s-23.8045,39.098-42.945,36.3836"/><path class="cls-17" d="M4554.0246,664.145c6.2448,15.45,32.4275,21.9419,58.4806,14.5s42.1109-25.9989,35.866-41.4488"/><ellipse class="cls-1" cx="4875.3776" cy="699.9518" rx="38.6525" ry="31.8811"/><path class="cls-11" d="M4869.6641,1092.2271c1.3408,1.483,1.5076-7.181,4.9255-9.8059,3.2029-2.46,9.7245,1.2216,9.3294-.7106-.5155-2.5209-6.7053-4.75-11.0152-.809C4869.3609,1084.1408,4868.1625,1090.5663,4869.6641,1092.2271Z"/><path class="cls-16" d="M4523.4841,192.1292a35.0112,35.0112,0,1,0,56.2679-41.678"/><rect class="cls-8" x="4425.9618" y="42.7465" width="89.9763" height="46.8508" transform="translate(950.6403 2823.1978) rotate(-38.9152)"/><rect class="cls-8" x="4447.2803" y="69.1074" width="140.7619" height="116.7001" transform="translate(922.5089 2866.1411) rotate(-38.9152)"/><rect class="cls-8" x="4444.9574" y="1.8109" width="17.9346" height="64.361" transform="translate(8907.8493 67.9828) rotate(-180)"/><path class="cls-16" d="M5197.2614,192.1292a35.0111,35.0111,0,1,1-56.2678-41.678"/><rect class="cls-8" x="5226.3702" y="21.1837" width="46.8508" height="89.9763" transform="matrix(0.6282, -0.7781, 0.7781, 0.6282, 1900.5492, 4109.349)"/><rect class="cls-8" x="5144.7342" y="57.0766" width="116.7001" height="140.7619" transform="translate(1835.4956 4095.7919) rotate(-51.0848)"/><rect class="cls-8" x="5257.8536" y="1.8109" width="17.9346" height="64.361"/><polygon class="cls-19" points="4508.543 1554 5232.273 1554 5195.205 194.014 5140 149 4508.543 1554"/><polygon class="cls-20" points="4325.33 1568.226 3393.084 1568.226 3449 199.459 3508 150.828 4325.33 1568.226"/><polygon class="cls-20" points="5397.33 1551 4465.084 1551 4521 200 4580 152 5397.33 1551"/><rect class="cls-1" x="1.3728" y="-0.5564" width="1080" height="1577"/><rect class="cls-2" x="812.0759" y="529.892" width="63.3055" height="129.987" rx="10.367"/><rect class="cls-2" x="830.7926" y="464.4841" width="25.8722" height="101.5234" rx="2.367"/><rect class="cls-3" x="812.0759" y="569.685" width="63.3055" height="47.4135"/><polygon class="cls-2" points="856.665 514.191 830.793 514.045 814.275 532.954 872.742 532.485 856.665 514.191"/><ellipse class="cls-4" cx="800.7081" cy="623.5382" rx="29.0627" ry="29.0823"/><ellipse class="cls-5" cx="542.1015" cy="177.4136" rx="108.9353" ry="109.0086"/><ellipse class="cls-6" cx="541.1293" cy="177.4136" rx="86.6967" ry="109.0086"/><ellipse class="cls-7" cx="542.1015" cy="177.4136" rx="49.562" ry="109.0086"/><rect class="cls-8" x="539.7171" y="68.405" width="2.8245" height="218.0171"/><rect class="cls-8" x="539.7171" y="-0.5564" width="2.8245" height="218.0171"/><polygon class="cls-8" points="650.984 180.842 650.86 183.669 433.343 183.669 433.218 180.825 650.984 180.842"/><polygon class="cls-8" points="647.276 205.915 646.471 208.741 437.717 208.741 436.927 205.915 647.276 205.915"/><polygon class="cls-8" points="636.995 230.987 635.363 233.813 448.902 233.813 447.208 230.987 636.995 230.987"/><polygon class="cls-8" points="617.535 256.059 614.439 258.885 469.751 258.885 466.668 256.059 617.535 256.059"/><polygon class="cls-8" points="648.89 155.77 649.42 158.597 434.783 158.597 435.313 155.77 648.89 155.77"/><polygon class="cls-8" points="640.566 130.698 641.847 133.524 442.356 133.524 443.701 130.698 640.566 130.698"/><polygon class="cls-8" points="624.013 105.626 626.55 108.452 457.888 108.261 460.087 105.626 624.013 105.626"/><polygon class="cls-8" points="592.102 80.554 597.24 83.38 488.115 82.712 492.031 80.554 592.102 80.554"/><polygon class="cls-9" points="450.859 63.009 469.346 75.444 487.727 62.903 477.22 81.403 487.833 99.797 469.346 88.439 450.964 99.903 462.635 82.241 450.859 63.009"/><polygon class="cls-9" points="612.445 239.078 630.932 251.513 649.314 238.972 638.806 257.472 649.42 275.866 630.932 264.508 612.551 275.972 624.222 258.31 612.445 239.078"/><polygon class="cls-9" points="422.398 105.305 440.157 117.25 457.815 105.203 447.721 122.975 457.917 140.644 440.157 129.733 422.5 140.746 433.711 123.78 422.398 105.305"/><path class="cls-10" d="M697.5737,1539.32c-34.785,17.0123-46.2719,31.7456-138.0458,24.2651-83.7044-6.8228-162.5043-14.65-166.7217-25.0459-5.1992-12.8166,14.0649-10.1272,166.7217-25.0458C559.5279,1513.4929,709.9929,1533.2456,697.5737,1539.32Z"/><path class="cls-11" d="M405.2893,688.7861c3.5485,2.523,16.0188-11.3514,23.1934-19.3337,14.4863-16.1171,36.0662-44.6356,39.0444-53.8506,4.6709-14.4525-35.31,15.1606-53.24,44.5365C406.5141,672.8731,402.2407,686.6186,405.2893,688.7861Z"/><path class="cls-11" d="M725.6888,705.9014c3.465-2.6367-6.05-18.6856-11.5237-27.9191-11.0527-18.6432-31.8185-47.76-39.72-53.3535-12.3922-8.7719,3.93,38.2468,26.6019,64.1342C710.8756,699.9854,722.7122,708.1667,725.6888,705.9014Z"/><path class="cls-11" d="M739.1957,540.8384c-2.1954-3.7614-19.2689,3.7433-29.0919,8.0609-19.8335,8.7178-51.2346,25.8135-57.7407,32.9837-10.204,11.2454,38.4156.7346,66.844-18.6463C731.531,554.8349,741.0817,544.07,739.1957,540.8384Z"/><path class="cls-4" d="M734.2229,946.6315c0,141.1073-22.0936,257.1393-50.3908,270.9067v1.372c-36.5006,3.2552-102.3249,1.0821-104.0844,1.6042-7.2054,2.1382-11.8133.6437-16.0058-1.6042-6.4543,4.0189-7.3076,4.6619-14.7247,2.0414-2.618-.9249-67.4531,3.39-99.7143-2.0414-30.9512,0-56.0421-121.9033-56.0421-272.2787"/><path class="cls-11" d="M563.91,429.7448c-74.2229,0-134.3927,43.2485-134.3927,96.5981V742.1764c0,41.507,60.17,75.1551,134.3927,75.1551s134.3927-33.6481,134.3927-75.1551V526.3429C698.3023,472.9933,638.1327,429.7448,563.91,429.7448Z"/><path class="cls-12" d="M744.6887,1070.0312c0-141.1073-23.3218-257.1393-53.1919-270.9067v-1.3719H443.9307c-32.6717,0-59.1573,121.9032-59.1573,272.2786"/><path class="cls-13" d="M600.7942,820.2277l.2669-.0014-.451-89.3934-72.2091.3648.4509,89.3934.2668-.0014c.0567,11.2377,16.1478,20.2665,35.94,20.1665S600.8509,831.4653,600.7942,820.2277Z"/><path class="cls-4" d="M435.7705,550.5083V630.85c0,76.436,57.238,138.4,127.8447,138.4S691.46,707.2863,691.46,630.85v-80.342Z"/><ellipse class="cls-14" cx="482.7518" cy="659.879" rx="16.1073" ry="16.1181"/><ellipse class="cls-14" cx="634.3297" cy="659.879" rx="16.1073" ry="16.1181"/><path class="cls-13" d="M436.1017,645.8544c-20.1211,0-36.4324-15.2367-36.4324-34.0322S415.9806,577.79,436.1017,577.79"/><path class="cls-13" d="M690.7312,577.79c20.1211,0,36.4324,15.2367,36.4324,34.0321s-16.3113,34.0322-36.4324,34.0322"/><path class="cls-15" d="M496.2057,589.9507h43.036a2.1937,2.1937,0,0,1,2.1937,2.1937v6.1536a2.1908,2.1908,0,0,1-2.1908,2.1908h-43.036a2.1937,2.1937,0,0,1-2.1937-2.1937v-6.1536a2.1908,2.1908,0,0,1,2.1908-2.1908Z" transform="translate(-268.0295 525.109) rotate(-43.8843)"/><path class="cls-15" d="M514.7427,573.8982h7.179a2.5593,2.5593,0,0,1,2.5593,2.5593v38.7938a2.5559,2.5559,0,0,1-2.5559,2.5559h-7.179a2.5593,2.5593,0,0,1-2.5593-2.5593V576.454a2.5559,2.5559,0,0,1,2.5559-2.5559Z" transform="translate(-268.2983 525.7078) rotate(-43.8843)"/><path class="cls-15" d="M579.5415,589.8953h43.0361a2.1937,2.1937,0,0,1,2.1937,2.1937v6.1537a2.1908,2.1908,0,0,1-2.1908,2.1908h-43.036a2.1937,2.1937,0,0,1-2.1937-2.1937V592.086A2.1907,2.1907,0,0,1,579.5415,589.8953Z" transform="translate(-244.7189 582.8626) rotate(-43.8843)"/><path class="cls-15" d="M598.0787,573.8428h7.179a2.5593,2.5593,0,0,1,2.5593,2.5593v38.7938a2.5559,2.5559,0,0,1-2.5559,2.5559h-7.179a2.5594,2.5594,0,0,1-2.5594-2.5594V576.3987a2.5559,2.5559,0,0,1,2.5559-2.5559Z" transform="translate(-244.9876 583.4611) rotate(-43.8843)"/><path class="cls-12" d="M489.0546,868.9609l-12.9805,8.2908A24.3307,24.3307,0,0,1,442.56,869.847L336.1842,703.0757a24.3666,24.3666,0,0,1,7.4-33.537l12.9806-8.2908a24.3305,24.3305,0,0,1,33.5144,7.4047L496.4543,835.4239A24.3665,24.3665,0,0,1,489.0546,868.9609Z"/><path class="cls-12" d="M699.9026,859.5253l-13.9718-6.48A24.3637,24.3637,0,0,1,674.116,820.8l83.1347-179.5076a24.3335,24.3335,0,0,1,32.224-11.8227l13.9718,6.4794a24.3638,24.3638,0,0,1,11.8148,32.2457L732.1266,847.7025A24.3335,24.3335,0,0,1,699.9026,859.5253Z"/><path class="cls-11" d="M478.5412,492.1245c.1628-4.3529-18.27-7.1808-28.8748-8.8078-21.4123-3.285-57.0781-5.7063-66.4122-3.1457-14.6391,4.0159,32.031,21.235,66.4122,20.1322C464.571,499.8251,478.4014,495.8641,478.5412,492.1245Z"/><path class="cls-11" d="M491.9127,489.4184c2.0194-3.8588-13.4015-14.3513-22.2736-20.388-17.9137-12.1886-49.0643-29.7374-58.5908-31.4469-14.9409-2.6812,19.7764,32.9644,51.2836,46.779C475.9905,490.3512,490.1778,492.7336,491.9127,489.4184Z"/><path class="cls-11" d="M502.3273,462.6779c2.0194-3.8589-13.4015-14.3514-22.2736-20.388-17.9138-12.1887-49.0643-29.7375-58.5908-31.4469-14.9409-2.6812,19.7764,32.9644,51.2835,46.7789C486.4051,463.6107,500.5924,465.993,502.3273,462.6779Z"/><path class="cls-11" d="M723.9853,431.0448c-3.1448-3.012-17.4964,8.9033-25.7533,15.7584-16.6716,13.8413-42.1612,38.9217-46.4451,47.6063-6.7187,13.62,37.1353-9.8691,59.1387-36.3281C720.4642,446.6111,726.6869,433.6323,723.9853,431.0448Z"/><path class="cls-11" d="M696.8087,403.3872c-3.8246-2.08-14.5466,13.1876-20.7153,21.9715-12.4552,17.7357-30.47,48.6329-32.3255,58.1383-2.9094,14.9079,33.2433-19.279,47.5328-50.5906C697.4953,419.3325,700.0945,405.1741,696.8087,403.3872Z"/><rect class="cls-4" x="416.0831" y="1115.8632" width="90.5485" height="450.9255" rx="17.4747"/><rect class="cls-4" x="618.2224" y="1115.8632" width="90.5485" height="450.9255" rx="17.4747"/><rect class="cls-11" x="561.1911" y="1186.9989" width="5.1015" height="31.9113" rx="0.9845"/><rect class="cls-16" x="559.3032" y="1223.5721" width="8.8773" height="14.0876" rx="1.7132"/><rect class="cls-16" x="554.8646" y="1271.7853" width="8.8773" height="14.0876" rx="1.7132"/><rect class="cls-16" x="565.7739" y="1255.4833" width="8.8773" height="18.9832" rx="1.7132"/><rect class="cls-16" x="548.4103" y="1288.0873" width="8.8773" height="31.9113" rx="1.7132"/><rect class="cls-16" x="552.8489" y="1242.145" width="8.8773" height="18.8519" rx="1.7132"/><rect class="cls-16" x="535.293" y="1499.8355" width="34.83" height="9.8083" rx="1.8916"/><rect class="cls-16" x="552.708" y="1504.7396" width="34.83" height="9.8083" rx="1.8916"/><rect class="cls-16" x="539.4161" y="1506.9544" width="34.83" height="9.8083" rx="1.8916"/><rect class="cls-16" x="528.8387" y="1511.8585" width="34.83" height="9.8083" rx="1.8916"/><rect class="cls-16" x="546.2537" y="1512.6349" width="34.83" height="9.8083" rx="1.8916"/><rect class="cls-16" x="561.2698" y="1512.6349" width="34.83" height="9.8083" rx="1.8916"/><rect class="cls-16" x="535.293" y="1517.5391" width="34.83" height="9.8083" rx="1.8916"/><rect class="cls-16" x="555.131" y="1517.5391" width="34.83" height="9.8083" rx="1.8916"/><rect class="cls-11" x="545.5051" y="1205.0011" width="1.3868" height="10.9044" transform="matrix(0.951, -0.3092, 0.3092, 0.951, -347.5498, 228.2395)"/><rect class="cls-11" x="553.0302" y="1207.3599" width="1.3868" height="10.9044" transform="translate(-347.9103 230.6822) rotate(-18.0135)"/><rect class="cls-11" x="548.7336" y="1197.8591" width="1.3873" height="7.1815" transform="translate(-730.6428 874.6891) rotate(-51.1053)"/><rect class="cls-11" x="555.3737" y="1193.7798" width="1.3867" height="9.2272"/><rect class="cls-11" x="540.8126" y="1212.5127" width="1.0256" height="5.1607" transform="translate(-666.1058 656.8868) rotate(-41.1754)"/><rect class="cls-11" x="541.0506" y="1204.8736" width="0.5496" height="5.0095" transform="matrix(0.951, -0.3092, 0.3092, 0.951, -346.8377, 226.5818)"/><rect class="cls-11" x="576.2702" y="1209.2803" width="10.9044" height="1.3868" transform="translate(-748.8354 1389.008) rotate(-71.9865)"/><rect class="cls-11" x="568.7451" y="1211.639" width="10.9044" height="1.3868" transform="translate(-756.2766 1383.481) rotate(-71.9865)"/><rect class="cls-11" x="574.9029" y="1200.2766" width="7.1815" height="1.3873" transform="translate(-625.8276 629.4856) rotate(-38.8947)"/><rect class="cls-11" x="571.1605" y="1193.3002" width="1.3867" height="9.2272" transform="translate(1143.7078 2395.8276) rotate(-180)"/><rect class="cls-11" x="584.0152" y="1214.1006" width="5.1607" height="1.0256" transform="translate(-713.8356 856.4808) rotate(-48.8246)"/><rect class="cls-11" x="584.0908" y="1206.6239" width="5.0095" height="0.5496" transform="matrix(0.3092, -0.951, 0.951, 0.3092, -742.545, 1391.5182)"/><path class="cls-17" d="M146.1466,818.3081,335.113,634.7614a10.6181,10.6181,0,0,1,13.139-.7966l37.33,27.1585c3.8738,2.8183,4.3,7.7886.9476,11.0451,0,0-70.2983,62.2993-95.8691,93.12s-93.0973,90.4271-93.0973,90.4271a10.6178,10.6178,0,0,1-13.139.7966l-37.33-27.1584C143.22,826.5348,142.794,821.5645,146.1466,818.3081Z"/><path class="cls-18" d="M143.3293,816.2584,332.2956,632.7118a10.6181,10.6181,0,0,1,13.1391-.7967l37.33,27.1585c3.8739,2.8183,4.3,7.7886.9477,11.0451,0,0-70.2984,62.2993-95.8692,93.12s-93.0972,90.4271-93.0972,90.4271a10.6178,10.6178,0,0,1-13.139.7966l-37.33-27.1584C140.4031,824.4851,139.9766,819.5149,143.3293,816.2584Z"/><path class="cls-18" d="M141.0805,820.8357C144.9557,796.73,150.35,736.45,191.8,696.1876c49.5591-48.1377,114.9754-53.0465,140.4006-64.58,20.8256-9.4472-28.8068,66.27-75.6019,111.7234S137.9114,840.55,141.0805,820.8357Z"/><path class="cls-17" d="M158.3457,741.8082c19.14,2.7145,30.9461,23.405,26.3687,46.2135s-23.8045,39.098-42.945,36.3836"/><path class="cls-17" d="M235.0246,663.145c6.2448,15.45,32.4275,21.9419,58.4806,14.5s42.1109-25.9989,35.866-41.4488"/><ellipse class="cls-1" cx="556.3776" cy="698.9518" rx="38.6525" ry="31.8811"/><path class="cls-11" d="M550.6641,1091.2271c1.3408,1.483,1.5076-7.181,4.9255-9.8059,3.2029-2.46,9.7245,1.2216,9.3294-.7106-.5155-2.5209-6.7053-4.75-11.0152-.809C550.3609,1083.1408,549.1625,1089.5663,550.6641,1091.2271Z"/><path class="cls-16" d="M204.4841,191.1292a35.0112,35.0112,0,1,0,56.2679-41.678"/><rect class="cls-8" x="106.9618" y="41.7465" width="89.9763" height="46.8508" transform="translate(-7.2177 109.9134) rotate(-38.9152)"/><rect class="cls-8" x="128.2803" y="68.1074" width="140.7619" height="116.7001" transform="translate(-35.3492 152.8567) rotate(-38.9152)"/><rect class="cls-8" x="125.9574" y="0.8109" width="17.9346" height="64.361" transform="translate(269.8493 65.9828) rotate(-180)"/><path class="cls-16" d="M878.2614,191.1292a35.0111,35.0111,0,1,1-56.2678-41.678"/><rect class="cls-8" x="907.3702" y="20.1837" width="46.8508" height="89.9763" transform="matrix(0.6282, -0.7781, 0.7781, 0.6282, 295.3898, 748.4634)"/><rect class="cls-8" x="825.7342" y="56.0766" width="116.7001" height="140.7619" transform="translate(230.3362 734.9063) rotate(-51.0848)"/><rect class="cls-8" x="938.8536" y="0.8109" width="17.9346" height="64.361"/></svg>
