<svg id="Layer_1" data-name="Layer 1" xmlns="http://www.w3.org/2000/svg" width="5400" height="1920" viewBox="0 0 5400 1920"><defs><style>.cls-1{fill:#fff;}.cls-2{fill:#2b987f;}.cls-3{fill:#33a88f;}.cls-4{fill:#6b4d2e;}.cls-5{fill:#7d8a8b;stroke:#304457;}.cls-5,.cls-6,.cls-7{stroke-miterlimit:10;}.cls-6{fill:#93a3a3;stroke:#314559;}.cls-7{fill:#bbc1c5;stroke:#32465a;}.cls-8{fill:#33475c;}.cls-9{fill:#ebeff0;}.cls-10{fill:#d0a637;}.cls-11{fill:#38271a;}.cls-12{fill:#814795;}.cls-13{fill:#634528;}.cls-14{fill:#dd9e87;}.cls-15{fill:#2b3d4f;}.cls-16{fill:#e6be33;}.cls-17{fill:#d7d0c8;}.cls-18{fill:#ececec;}.cls-19{fill:#d05242;}.cls-19,.cls-20{opacity:0.3;}.cls-20{fill:#46a869;}</style></defs><title>fatima_sprite2</title><rect class="cls-1" x="-0.0326" y="0.4812" width="1080" height="1920"/><rect class="cls-2" x="855.2722" y="617.9122" width="73.7359" height="151.3022" rx="10.367"/><rect class="cls-2" x="877.0727" y="541.7787" width="30.1349" height="118.1712" rx="2.367"/><rect class="cls-3" x="855.2722" y="664.2304" width="73.7359" height="55.1883"/><polygon class="cls-2" points="907.208 599.636 877.073 599.466 857.833 621.476 925.934 620.93 907.208 599.636"/><circle class="cls-4" cx="842.0314" cy="726.9144" r="33.8512"/><circle class="cls-5" cx="540.8162" cy="207.6345" r="126.8837"/><ellipse class="cls-6" cx="539.6838" cy="207.6345" rx="100.9811" ry="126.8837"/><ellipse class="cls-7" cx="540.8162" cy="207.6345" rx="57.7279" ry="126.8837"/><rect class="cls-8" x="538.0389" y="80.7508" width="3.2899" height="253.7675"/><rect class="cls-8" x="538.0389" y="0.4812" width="3.2899" height="253.7675"/><polygon class="cls-8" points="667.638 211.626 667.494 214.915 414.138 214.915 413.993 211.605 667.638 211.626"/><polygon class="cls-8" points="663.319 240.809 662.382 244.099 419.234 244.099 418.313 240.809 663.319 240.809"/><polygon class="cls-8" points="651.345 269.993 649.444 273.282 432.261 273.282 430.287 269.993 651.345 269.993"/><polygon class="cls-8" points="628.678 299.176 625.072 302.466 456.545 302.466 452.955 299.176 628.678 299.176"/><polygon class="cls-8" points="665.199 182.442 665.816 185.732 415.816 185.732 416.433 182.442 665.199 182.442"/><polygon class="cls-8" points="655.504 153.259 656.996 156.548 424.636 156.548 426.203 153.259 655.504 153.259"/><polygon class="cls-8" points="636.223 124.075 639.179 127.365 442.728 127.142 445.289 124.075 636.223 124.075"/><polygon class="cls-8" points="599.054 94.891 605.039 98.181 477.935 97.403 482.496 94.891 599.054 94.891"/><polygon class="cls-9" points="434.54 74.47 456.073 88.944 477.483 74.347 465.245 95.88 477.607 117.29 456.073 104.07 434.663 117.414 448.257 96.856 434.54 74.47"/><polygon class="cls-9" points="622.75 279.411 644.283 293.884 665.693 279.288 653.454 300.821 665.816 322.231 644.283 309.01 622.873 322.354 636.467 301.796 622.75 279.411"/><polygon class="cls-9" points="401.39 123.702 422.075 137.605 442.642 123.583 430.886 144.269 442.761 164.836 422.075 152.136 401.508 164.954 414.567 145.206 401.39 123.702"/><path class="cls-10" d="M721.9043,1792.8651c-40.5162,19.8019-53.8958,36.9512-160.7905,28.244-97.4957-7.9416-189.2788-17.052-194.1911-29.1529-6.0559-14.9182,16.3822-11.7878,194.1911-29.1528C561.1138,1762.8034,736.37,1785.7952,721.9043,1792.8651Z"/><path class="cls-11" d="M381.4625,802.8616c4.1331,2.9368,18.6581-13.2127,27.0149-22.504,16.873-18.76,42.0084-51.9549,45.4773-62.681,5.4406-16.8224-41.1272,17.6466-62.0119,51.84C382.8891,784.3392,377.9117,800.3387,381.4625,802.8616Z"/><path class="cls-11" d="M754.6518,822.7835c4.0358-3.0691-7.0465-21.75-13.4224-32.4972-12.8738-21.7-37.061-55.5924-46.2644-62.1025-14.434-10.21,4.5771,44.5186,30.9849,74.651C737.3979,815.8974,751.1846,825.42,754.6518,822.7835Z"/><path class="cls-11" d="M770.384,630.6536c-2.5571-4.3782-22.4437,4.3571-33.8851,9.3827-23.1013,10.1473-59.6761,30.0463-67.2542,38.3923-11.8852,13.09,44.7451.8551,77.8573-21.7039C761.4565,646.9451,772.5808,634.4149,770.384,630.6536Z"/><path class="cls-4" d="M764.5919,1102.9884c0,164.246-25.7338,299.3048-58.6933,315.33v1.5969c-42.5145,3.789-119.1842,1.26-121.2335,1.8673-8.3926,2.4888-13.76.7493-18.643-1.8673-7.5178,4.678-8.5116,5.4263-17.1507,2.3762-3.0495-1.0766-78.5669,3.9463-116.1435-2.3762-36.0508,0-65.2757-141.8929-65.2757-316.9268"/><path class="cls-11" d="M566.2175,501.3429c-86.4521,0-156.5356,50.34-156.5356,112.4382V865.0068c0,48.3134,70.0834,87.4791,156.5356,87.4791S722.7529,913.32,722.7529,865.0068V613.7811C722.7529,551.6832,652.67,501.3429,566.2175,501.3429Z"/><path class="cls-12" d="M776.782,1246.6231c0-164.246-27.1643-299.3048-61.9559-315.33v-1.5968H426.4706c-38.0548,0-68.9043,141.8928-68.9043,316.9267"/><path class="cls-13" d="M609.1792,955.8569l.3108-.0016-.5252-104.0521-84.1065.4246.5253,104.0521.3108-.0015c.066,13.08,18.8082,23.59,41.862,23.4733S609.2453,968.9373,609.1792,955.8569Z"/><path class="cls-4" d="M416.9659,641.9091v93.5165c0,88.97,66.6686,161.0941,148.9086,161.0941s148.9087-72.1242,148.9087-161.0941V641.9091Z"/><circle class="cls-14" cx="471.6879" cy="769.2144" r="18.7611"/><circle class="cls-14" cx="648.2401" cy="769.2144" r="18.7611"/><path class="cls-13" d="M417.3516,752.89c-23.4363,0-42.4351-17.7352-42.4351-39.6127s18.9988-39.6127,42.4351-39.6127"/><path class="cls-13" d="M713.9344,673.6646c23.4363,0,42.4351,17.7352,42.4351,39.6127S737.3707,752.89,713.9344,752.89"/><rect class="cls-15" x="506.2884" y="666.3444" width="12.2702" height="55.2157" rx="2.033" transform="translate(657.0844 -156.4716) rotate(46.0965)"/><rect class="cls-15" x="487.5697" y="687.5314" width="51.1257" height="14.3152" rx="2.3719" transform="translate(657.8326 -156.7567) rotate(46.0965)"/><rect class="cls-15" x="603.355" y="666.28" width="12.2702" height="55.2157" rx="2.033" transform="translate(686.7938 -226.4287) rotate(46.0965)"/><rect class="cls-15" x="584.6363" y="687.467" width="51.1257" height="14.3152" rx="2.3719" transform="translate(687.5423 -226.7137) rotate(46.0965)"/><rect class="cls-12" x="357.0739" y="753.1068" width="74.4719" height="286.8258" rx="29" transform="matrix(0.8429, -0.538, 0.538, 0.8429, -420.4155, 352.9661)"/><rect class="cls-12" x="739.5461" y="724.2958" width="74.4719" height="286.8258" rx="29" transform="translate(436.8581 -246.1856) rotate(24.8648)"/><path class="cls-11" d="M466.7835,573.9516c.19-5.0667-21.28-8.3583-33.6322-10.2521-24.94-3.8237-66.4824-6.6421-77.3544-3.6616-17.0511,4.6744,37.3084,24.7172,77.3544,23.4335C450.5116,582.9149,466.6207,578.3044,466.7835,573.9516Z"/><path class="cls-11" d="M482.3582,570.8017c2.3521-4.4916-15.61-16.7046-25.9435-23.7312C435.55,532.8832,399.2665,512.4568,388.17,510.467c-17.4026-3.1209,23.0348,38.37,59.7331,54.45C463.8126,571.8875,480.3374,574.6605,482.3582,570.8017Z"/><path class="cls-11" d="M494.4886,539.6763c2.3522-4.4916-15.61-16.7047-25.9434-23.7312-20.8652-14.1874-57.1482-34.6138-68.2443-36.6036-17.4026-3.1208,23.0348,38.37,59.7331,54.45C475.9431,540.762,492.4679,543.5351,494.4886,539.6763Z"/><path class="cls-11" d="M752.6675,502.856c-3.6629-3.5058-20.3791,10.3633-29.9964,18.3425-19.4184,16.111-49.1078,45.304-54.0975,55.4127-7.8257,15.854,43.2538-11.4873,68.8825-42.2851C748.5663,520.9749,755.8143,505.8678,752.6675,502.856Z"/><path class="cls-11" d="M721.0133,470.6631c-4.4548-2.4211-16.9434,15.35-24.1284,25.5744-14.5074,20.6441-35.4908,56.6077-37.6515,67.6719-3.3888,17.3524,38.7205-22.4405,55.3643-58.8865C721.813,489.2232,724.8405,472.7431,721.0133,470.6631Z"/><rect class="cls-4" x="394.0347" y="1299.9707" width="105.4675" height="524.868" rx="17.4747"/><rect class="cls-4" x="629.4789" y="1299.9707" width="105.4675" height="524.868" rx="17.4747"/><rect class="cls-11" x="563.051" y="1382.7711" width="5.9421" height="37.1441" rx="0.9845"/><rect class="cls-16" x="560.8521" y="1425.3415" width="10.34" height="16.3976" rx="1.7132"/><rect class="cls-16" x="555.6821" y="1481.4608" width="10.34" height="16.3976" rx="1.7132"/><rect class="cls-16" x="568.3889" y="1462.4856" width="10.34" height="22.096" rx="1.7132"/><rect class="cls-16" x="548.1644" y="1500.436" width="10.34" height="37.1441" rx="1.7132"/><rect class="cls-16" x="553.3344" y="1446.9601" width="10.34" height="21.9433" rx="1.7132"/><rect class="cls-16" x="532.8859" y="1746.9065" width="40.5687" height="11.4166" rx="1.8916"/><rect class="cls-16" x="553.1703" y="1752.6148" width="40.5687" height="11.4166" rx="1.8916"/><rect class="cls-16" x="537.6884" y="1755.1927" width="40.5687" height="11.4166" rx="1.8916"/><rect class="cls-16" x="525.3682" y="1760.9011" width="40.5687" height="11.4166" rx="1.8916"/><rect class="cls-16" x="545.6525" y="1761.8048" width="40.5687" height="11.4166" rx="1.8916"/><rect class="cls-16" x="563.1427" y="1761.8048" width="40.5687" height="11.4166" rx="1.8916"/><rect class="cls-16" x="532.8859" y="1767.5131" width="40.5687" height="11.4166" rx="1.8916"/><rect class="cls-16" x="555.9925" y="1767.5131" width="40.5687" height="11.4166" rx="1.8916"/><rect class="cls-11" x="544.7807" y="1403.7249" width="1.6152" height="12.6934" transform="matrix(0.951, -0.3091, 0.3091, 0.951, -409.0783, 237.6466)"/><rect class="cls-11" x="553.5456" y="1406.4704" width="1.6152" height="12.6934" transform="translate(-409.4977 240.4899) rotate(-18.0022)"/><rect class="cls-11" x="548.5414" y="1395.4104" width="1.6152" height="8.3625" transform="translate(-884.7376 947.8872) rotate(-51.0864)"/><rect class="cls-11" x="556.2751" y="1390.664" width="1.6152" height="10.7403"/><rect class="cls-11" x="539.3151" y="1412.4678" width="1.1942" height="6.0087" transform="translate(-798.1417 705.0651) rotate(-41.1564)"/><rect class="cls-11" x="539.5922" y="1403.5768" width="0.6401" height="5.8313" transform="matrix(0.951, -0.3091, 0.3091, 0.951, -408.25, 235.7172)"/><rect class="cls-11" x="586.1575" y="1403.1666" width="1.6152" height="12.6934" transform="translate(709.5799 2931.4271) rotate(-161.9978)"/><rect class="cls-11" x="577.3926" y="1405.9122" width="1.6152" height="12.6934" transform="matrix(-0.951, -0.3091, 0.3091, -0.951, 691.6306, 2934.0749)"/><rect class="cls-11" x="582.3968" y="1394.8522" width="1.6152" height="8.3625" transform="translate(-139.0374 2731.6207) rotate(-128.9136)"/><rect class="cls-11" x="574.663" y="1390.1057" width="1.6152" height="10.7403" transform="translate(1150.9413 2790.9516) rotate(-180)"/><rect class="cls-11" x="592.044" y="1411.9095" width="1.1942" height="6.0087" transform="translate(107.6725 2870.2524) rotate(-138.8436)"/><rect class="cls-11" x="592.3211" y="1403.0185" width="0.6401" height="5.8313" transform="translate(721.7603 2926.1981) rotate(-161.9978)"/><path class="cls-17" d="M79.6229,953.6226,299.7238,739.978a12.3738,12.3738,0,0,1,15.3038-.9272l43.48,31.6119c4.5121,3.2805,5.0088,9.0658,1.1038,12.8563,0,0-81.8809,72.5151-111.6648,108.3892S139.5107,997.1635,139.5107,997.1635a12.3738,12.3738,0,0,1-15.3038.9272l-43.48-31.6119C76.2146,963.1983,75.7179,957.413,79.6229,953.6226Z"/><path class="cls-18" d="M76.3414,951.2368,296.4423,737.5922a12.3738,12.3738,0,0,1,15.3038-.9272l43.48,31.6119c4.5121,3.2805,5.0088,9.0658,1.1038,12.8562,0,0-81.8809,72.5152-111.6648,108.3893S136.2292,994.7777,136.2292,994.7777a12.3738,12.3738,0,0,1-15.3038.9272l-43.48-31.6119C72.9331,960.8125,72.4364,955.0272,76.3414,951.2368Z"/><path class="cls-18" d="M73.7221,956.5647c4.5136-28.0582,10.7963-98.2239,59.0765-145.0878,57.7246-56.0313,133.919-61.7451,163.5333-75.17C320.5887,725.31,262.7788,813.444,208.2736,866.35S70.0308,979.5113,73.7221,956.5647Z"/><path class="cls-17" d="M93.8319,864.5783c22.2941,3.16,36.0448,27.2429,30.7133,53.7916s-27.7266,45.5093-50.0206,42.35"/><path class="cls-17" d="M183.1446,773.0159c7.2738,17.9834,37.77,25.54,68.116,16.878s49.0492-30.2621,41.7754-48.2455"/><ellipse class="cls-1" cx="557.4445" cy="814.6943" rx="45.021" ry="37.109"/><path class="cls-11" d="M550.79,1271.2947c1.5618,1.7261,1.7561-8.3585,5.7371-11.4139,3.7306-2.8631,11.3267,1.422,10.8665-.8271-.6-2.9342-7.81-5.5284-12.83-.9417C550.4365,1261.8825,549.0406,1269.3616,550.79,1271.2947Z"/><path class="cls-16" d="M147.5722,223.5992a40.77,40.77,0,0,0,65.5387-48.5124"/><rect class="cls-8" x="33.9958" y="49.7136" width="104.7732" height="54.5478" transform="translate(201.9539 82.6648) rotate(141.1036)"/><rect class="cls-8" x="58.8347" y="80.3864" width="163.9107" height="135.8725" transform="translate(343.4983 175.3558) rotate(141.1036)"/><rect class="cls-8" x="56.1073" y="2.0726" width="20.8895" height="74.9149" transform="translate(133.104 79.0601) rotate(-180)"/><path class="cls-16" d="M932.3625,223.5992a40.77,40.77,0,0,1-65.5386-48.5124"/><rect class="cls-8" x="941.1657" y="49.7136" width="104.7732" height="54.5478" transform="translate(268.6288 -606.7955) rotate(38.8964)"/><rect class="cls-8" x="857.1894" y="80.3864" width="163.9107" height="135.8725" transform="translate(301.358 -556.816) rotate(38.8964)"/><rect class="cls-8" x="1002.938" y="2.0726" width="20.8895" height="74.9149"/><rect class="cls-1" x="1080" y="-0.1788" width="1080" height="1920"/><rect class="cls-1" x="2160" y="0.0094" width="1080" height="1920"/><rect class="cls-1" x="3240" width="1080" height="1920"/><rect class="cls-1" x="4320" width="1080" height="1920"/><path class="cls-10" d="M1798.9789,1791.0682c-40.5162,19.802-53.8957,36.9512-160.7905,28.2441-97.4957-7.9417-189.2788-17.052-194.1911-29.1529-6.0559-14.9182,16.3822-11.7879,194.1911-29.1528C1638.1884,1761.0066,1813.4444,1783.9984,1798.9789,1791.0682Z"/><rect class="cls-2" x="2008.6656" y="681.5516" width="73.7359" height="151.3022" rx="10.367" transform="translate(-70.2707 1287.2367) rotate(-34.3771)"/><rect class="cls-2" x="1978.1249" y="621.609" width="30.1349" height="118.1712" rx="2.367" transform="translate(-36.2133 1244.3199) rotate(-34.3771)"/><rect class="cls-3" x="2007.6839" y="728.1736" width="73.7359" height="55.1883" transform="translate(-69.6319 1286.4317) rotate(-34.3771)"/><polygon class="cls-2" points="2004.935 671.173 1979.967 688.048 1976.515 717.077 2032.414 678.175 2004.935 671.173"/><circle class="cls-4" cx="2017.6941" cy="802.5534" r="33.8512"/><circle class="cls-5" cx="1620.8162" cy="206.9746" r="126.8837"/><ellipse class="cls-6" cx="1619.6838" cy="206.9746" rx="100.9811" ry="126.8837"/><ellipse class="cls-7" cx="1620.8162" cy="206.9746" rx="57.7279" ry="126.8837"/><rect class="cls-8" x="1618.0389" y="80.0909" width="3.2899" height="253.7675"/><rect class="cls-8" x="1618.0389" y="-0.1788" width="3.2899" height="253.7675"/><polygon class="cls-8" points="1747.638 210.966 1747.494 214.255 1494.138 214.255 1493.993 210.945 1747.638 210.966"/><polygon class="cls-8" points="1743.319 240.149 1742.382 243.439 1499.234 243.439 1498.313 240.149 1743.319 240.149"/><polygon class="cls-8" points="1731.345 269.333 1729.444 272.623 1512.261 272.623 1510.287 269.333 1731.345 269.333"/><polygon class="cls-8" points="1708.678 298.516 1705.072 301.806 1536.545 301.806 1532.955 298.516 1708.678 298.516"/><polygon class="cls-8" points="1745.199 181.782 1745.816 185.072 1495.816 185.072 1496.433 181.782 1745.199 181.782"/><polygon class="cls-8" points="1735.504 152.599 1736.996 155.888 1504.636 155.888 1506.203 152.599 1735.504 152.599"/><polygon class="cls-8" points="1716.223 123.415 1719.179 126.705 1522.728 126.482 1525.289 123.415 1716.223 123.415"/><polygon class="cls-8" points="1679.054 94.232 1685.039 97.521 1557.935 96.743 1562.496 94.232 1679.054 94.232"/><polygon class="cls-9" points="1514.54 73.81 1536.073 88.284 1557.483 73.687 1545.245 95.22 1557.607 116.63 1536.073 103.41 1514.663 116.754 1528.257 96.196 1514.54 73.81"/><polygon class="cls-9" points="1678.544 74.466 1700.077 88.94 1721.487 74.343 1709.249 95.877 1721.611 117.287 1700.077 104.066 1678.667 117.41 1692.261 96.852 1678.544 74.466"/><polygon class="cls-9" points="1489.602 272.741 1510.287 286.645 1530.854 272.623 1519.098 293.308 1530.973 313.875 1510.287 301.175 1489.72 313.993 1502.779 294.245 1489.602 272.741"/><polygon class="cls-9" points="1532.955 313.291 1553.64 327.195 1574.207 313.173 1562.45 333.858 1574.325 354.425 1553.64 341.725 1533.073 354.544 1546.131 334.795 1532.955 313.291"/><path class="cls-11" d="M1461.4625,802.2017c4.1331,2.9367,18.6581-13.2127,27.0149-22.504,16.873-18.76,42.0084-51.9549,45.4773-62.6811,5.4406-16.8223-41.1272,17.6467-62.0119,51.84C1462.8891,783.6793,1457.9117,799.6788,1461.4625,802.2017Z"/><path class="cls-11" d="M1834.6518,822.1236c4.0358-3.0691-7.0465-21.75-13.4224-32.4973-12.8738-21.7-37.061-55.5923-46.2644-62.1024-14.434-10.21,4.5771,44.5185,30.9849,74.651C1817.3979,815.2375,1831.1846,824.76,1834.6518,822.1236Z"/><path class="cls-11" d="M1850.384,629.9936c-2.5571-4.3782-22.4437,4.3571-33.8851,9.3828-23.1013,10.1473-59.6761,30.0463-67.2542,38.3923-11.8852,13.0894,44.7451.855,77.8573-21.7039C1841.4565,646.2852,1852.5808,633.7549,1850.384,629.9936Z"/><path class="cls-4" d="M1844.5919,1102.3285c0,164.2459-25.7338,299.3048-58.6933,315.33v1.597c-42.5145,3.7889-119.1842,1.2595-121.2335,1.8673-8.3926,2.4887-13.76.7492-18.643-1.8673-7.5178,4.6779-8.5116,5.4263-17.1507,2.3762-3.05-1.0767-78.5669,3.9462-116.1435-2.3762-36.0508,0-65.2757-141.893-65.2757-316.9268"/><path class="cls-11" d="M1646.2175,500.683c-86.4521,0-156.5356,50.34-156.5356,112.4382V864.3469c0,48.3133,70.0834,87.479,156.5356,87.479s156.5354-39.1657,156.5354-87.479V613.1212C1802.7529,551.0233,1732.67,500.683,1646.2175,500.683Z"/><path class="cls-12" d="M1856.782,1245.9632c0-164.246-27.1643-299.3049-61.9559-315.33v-1.5969H1506.4706c-38.0548,0-68.9043,141.8929-68.9043,316.9268"/><path class="cls-13" d="M1689.1792,955.197l.3108-.0016-.5252-104.0521-84.1065.4246.5253,104.0521.3108-.0016c.066,13.08,18.8082,23.59,41.862,23.4734S1689.2453,968.2773,1689.1792,955.197Z"/><path class="cls-4" d="M1496.9659,641.2491v93.5166c0,88.97,66.6686,161.0941,148.9086,161.0941s148.9087-72.1243,148.9087-161.0941V641.2491Z"/><circle class="cls-14" cx="1551.6879" cy="768.5545" r="18.7611"/><circle class="cls-14" cx="1728.2401" cy="768.5545" r="18.7611"/><path class="cls-13" d="M1497.3516,752.23c-23.4363,0-42.4351-17.7352-42.4351-39.6127s18.9988-39.6127,42.4351-39.6127"/><path class="cls-13" d="M1793.9344,673.0046c23.4363,0,42.4351,17.7352,42.4351,39.6127s-18.9988,39.6127-42.4351,39.6127"/><rect class="cls-15" x="1586.2884" y="665.6845" width="12.2702" height="55.2157" rx="2.033" transform="translate(987.6875 -934.8235) rotate(46.0965)"/><rect class="cls-15" x="1567.5697" y="686.8715" width="51.1257" height="14.3152" rx="2.3719" transform="translate(988.4357 -935.1085) rotate(46.0965)"/><rect class="cls-15" x="1683.355" y="665.6201" width="12.2702" height="55.2157" rx="2.033" transform="translate(1017.3967 -1004.7803) rotate(46.0965)"/><rect class="cls-15" x="1664.6363" y="686.807" width="51.1257" height="14.3152" rx="2.3719" transform="translate(1018.1454 -1005.0656) rotate(46.0965)"/><rect class="cls-12" x="1437.0739" y="752.4469" width="74.4719" height="286.8258" rx="29" transform="translate(-250.4235 933.9297) rotate(-32.5493)"/><rect class="cls-12" x="1806.4257" y="893.3661" width="74.4719" height="155.0091" rx="29" transform="translate(2972.8755 -780.2873) rotate(95.0442)"/><rect class="cls-12" x="1905.4253" y="790.9562" width="74.4719" height="228.1863" rx="29" transform="translate(909.7427 -972.7489) rotate(36.2062)"/><path class="cls-11" d="M1546.7835,573.2917c.19-5.0667-21.28-8.3583-33.6322-10.2522-24.94-3.8237-66.4824-6.642-77.3544-3.6615-17.0511,4.6744,37.3084,24.7172,77.3544,23.4335C1530.5116,582.2549,1546.6207,577.6445,1546.7835,573.2917Z"/><path class="cls-11" d="M1562.3582,570.1418c2.3521-4.4916-15.61-16.7047-25.9435-23.7312-20.8652-14.1873-57.1482-34.6137-68.2443-36.6036-17.4026-3.1208,23.0348,38.37,59.7331,54.45C1543.8126,571.2276,1560.3374,574.0006,1562.3582,570.1418Z"/><path class="cls-11" d="M1574.4886,539.0164c2.3522-4.4917-15.6095-16.7047-25.9434-23.7313-20.8652-14.1873-57.1482-34.6137-68.2443-36.6035-17.4026-3.1209,23.0348,38.37,59.7331,54.45C1555.9431,540.1021,1572.4679,542.8751,1574.4886,539.0164Z"/><path class="cls-11" d="M1832.6675,502.1961c-3.6629-3.5058-20.3791,10.3632-29.9964,18.3425-19.4184,16.111-49.1078,45.304-54.0975,55.4127-7.8257,15.854,43.2538-11.4874,68.8825-42.2852C1828.5663,520.315,1835.8143,505.2079,1832.6675,502.1961Z"/><path class="cls-11" d="M1801.0133,470.0032c-4.4548-2.4212-16.9434,15.35-24.1284,25.5744-14.5074,20.644-35.4908,56.6077-37.6515,67.6718-3.3888,17.3525,38.72-22.44,55.3643-58.8864C1801.813,488.5633,1804.8405,472.0832,1801.0133,470.0032Z"/><rect class="cls-4" x="1474.0347" y="1299.3107" width="105.4675" height="524.868" rx="17.4747"/><rect class="cls-4" x="1709.4789" y="1299.3107" width="105.4675" height="524.868" rx="17.4747"/><rect class="cls-11" x="1643.051" y="1382.1112" width="5.9421" height="37.1441" rx="0.9845"/><rect class="cls-16" x="1640.8521" y="1424.6816" width="10.34" height="16.3976" rx="1.7132"/><rect class="cls-16" x="1635.6821" y="1480.8008" width="10.34" height="16.3976" rx="1.7132"/><rect class="cls-16" x="1648.3889" y="1461.8257" width="10.34" height="22.096" rx="1.7132"/><rect class="cls-16" x="1628.1644" y="1499.776" width="10.34" height="37.1441" rx="1.7132"/><rect class="cls-16" x="1645.6546" y="1536.9201" width="10.34" height="21.9433" rx="1.7132"/><rect class="cls-16" x="1633.3344" y="1446.3002" width="10.34" height="21.9433" rx="1.7132"/><rect class="cls-16" x="1641.0798" y="1568.4527" width="10.34" height="16.3976" rx="1.7132"/><rect class="cls-16" x="1635.9098" y="1624.572" width="10.34" height="16.3976" rx="1.7132"/><rect class="cls-16" x="1648.6166" y="1605.5968" width="10.34" height="22.096" rx="1.7132"/><rect class="cls-16" x="1628.3921" y="1643.5472" width="10.34" height="37.1441" rx="1.7132"/><rect class="cls-16" x="1645.8822" y="1680.6912" width="10.34" height="21.9433" rx="1.7132"/><rect class="cls-16" x="1633.562" y="1590.0713" width="10.34" height="21.9433" rx="1.7132"/><rect class="cls-16" x="1612.8859" y="1746.2465" width="40.5687" height="11.4166" rx="1.8916"/><rect class="cls-16" x="1633.1703" y="1751.9549" width="40.5687" height="11.4166" rx="1.8916"/><rect class="cls-16" x="1617.6884" y="1754.5328" width="40.5687" height="11.4166" rx="1.8916"/><rect class="cls-16" x="1605.3682" y="1760.2411" width="40.5687" height="11.4166" rx="1.8916"/><rect class="cls-16" x="1625.6525" y="1761.1448" width="40.5687" height="11.4166" rx="1.8916"/><rect class="cls-16" x="1643.1427" y="1761.1448" width="40.5687" height="11.4166" rx="1.8916"/><rect class="cls-16" x="1612.8859" y="1766.8531" width="40.5687" height="11.4166" rx="1.8916"/><rect class="cls-16" x="1635.9925" y="1766.8531" width="40.5687" height="11.4166" rx="1.8916"/><rect class="cls-11" x="1624.7807" y="1403.065" width="1.6152" height="12.6934" transform="translate(-356.0025 571.3923) rotate(-18.0022)"/><rect class="cls-11" x="1633.5456" y="1405.8105" width="1.6152" height="12.6934" transform="translate(-356.4219 574.2355) rotate(-18.0022)"/><rect class="cls-11" x="1628.5414" y="1394.7505" width="1.6152" height="8.3625" transform="translate(-482.6233 1787.9838) rotate(-51.0864)"/><rect class="cls-11" x="1636.2751" y="1390.004" width="1.6152" height="10.7403"/><rect class="cls-11" x="1619.3151" y="1411.8078" width="1.1942" height="6.0087" transform="translate(-530.857 1415.6676) rotate(-41.1564)"/><rect class="cls-11" x="1619.5922" y="1402.9168" width="0.6401" height="5.8313" transform="translate(-355.1742 569.4628) rotate(-18.0022)"/><rect class="cls-11" x="1666.1575" y="1402.5067" width="1.6152" height="12.6934" transform="translate(2816.912 3263.9174) rotate(-161.9978)"/><rect class="cls-11" x="1657.3926" y="1405.2522" width="1.6152" height="12.6934" transform="translate(2798.9627 3266.5652) rotate(-161.9978)"/><rect class="cls-11" x="1662.3968" y="1394.1922" width="1.6152" height="8.3625" transform="translate(1619.8753 3570.8881) rotate(-128.9136)"/><rect class="cls-11" x="1654.663" y="1389.4458" width="1.6152" height="10.7403" transform="translate(3310.9413 2789.6318) rotate(-180)"/><rect class="cls-11" x="1672.044" y="1411.2496" width="1.1942" height="6.0087" transform="translate(2001.2565 3579.8611) rotate(-138.8436)"/><rect class="cls-11" x="1672.3211" y="1402.3585" width="0.6401" height="5.8313" transform="translate(2829.0924 3258.6884) rotate(-161.9978)"/><path class="cls-17" d="M1159.6229,952.9626l220.1009-213.6445a12.3737,12.3737,0,0,1,15.3038-.9272l43.48,31.6119c4.5121,3.28,5.0088,9.0658,1.1038,12.8562,0,0-81.8809,72.5152-111.6648,108.3893s-108.4361,105.2552-108.4361,105.2552a12.3737,12.3737,0,0,1-15.3038.9273l-43.48-31.6119C1156.2146,962.5384,1155.7179,956.7531,1159.6229,952.9626Z"/><path class="cls-18" d="M1156.3414,950.5768l220.1009-213.6445a12.3737,12.3737,0,0,1,15.3038-.9272l43.48,31.6119c4.5121,3.28,5.0088,9.0657,1.1038,12.8562,0,0-81.8809,72.5152-111.6648,108.3893s-108.4361,105.2552-108.4361,105.2552a12.3737,12.3737,0,0,1-15.3038.9273l-43.48-31.6119C1152.9331,960.1526,1152.4364,954.3673,1156.3414,950.5768Z"/><path class="cls-18" d="M1153.7221,955.9048c4.5136-28.0583,10.7963-98.2239,59.0765-145.0879,57.7246-56.0313,133.919-61.7451,163.5333-75.17,24.2568-10.9965-33.5531,77.1374-88.0583,130.0437S1150.0308,978.8513,1153.7221,955.9048Z"/><path class="cls-17" d="M1173.8319,863.9184c22.2941,3.1595,36.0448,27.2429,30.7133,53.7915s-27.7266,45.5093-50.0206,42.35"/><path class="cls-17" d="M1263.1446,772.356c7.2738,17.9833,37.77,25.54,68.116,16.878s49.0492-30.2622,41.7754-48.2456"/><ellipse class="cls-1" cx="1637.4445" cy="814.0343" rx="45.021" ry="37.109"/><path class="cls-11" d="M1630.79,1270.6348c1.5618,1.7261,1.7561-8.3586,5.7371-11.4139,3.7306-2.8632,11.3267,1.4219,10.8665-.8272-.6-2.9342-7.81-5.5283-12.83-.9416C1630.4365,1261.2225,1629.0406,1268.7017,1630.79,1270.6348Z"/><path class="cls-16" d="M1227.5722,222.9392a40.77,40.77,0,1,0,65.5387-48.5123"/><rect class="cls-8" x="1113.9958" y="49.0536" width="104.7732" height="54.5478" transform="translate(2122.0853 -596.6553) rotate(141.1036)"/><rect class="cls-8" x="1138.8347" y="79.7265" width="163.9107" height="135.8725" transform="translate(2263.6297 -503.9643) rotate(141.1036)"/><rect class="cls-8" x="1136.1073" y="1.4127" width="20.8895" height="74.9149" transform="translate(2293.104 77.7402) rotate(-180)"/><path class="cls-16" d="M2012.3625,222.9392a40.77,40.77,0,1,1-65.5386-48.5123"/><rect class="cls-8" x="2021.1657" y="49.0536" width="104.7732" height="54.5478" transform="translate(507.6686 -1285.0884) rotate(38.8964)"/><rect class="cls-8" x="1937.1894" y="79.7265" width="163.9107" height="135.8725" transform="translate(540.3979 -1235.1089) rotate(38.8964)"/><rect class="cls-8" x="2082.938" y="1.4127" width="20.8895" height="74.9149"/><rect class="cls-2" x="3015.3048" y="617.4404" width="73.7359" height="151.3022" rx="10.367"/><rect class="cls-2" x="3037.1053" y="541.307" width="30.1349" height="118.1712" rx="2.367"/><rect class="cls-3" x="3015.3048" y="663.7587" width="73.7359" height="55.1883"/><polygon class="cls-2" points="3067.24 599.164 3037.105 598.995 3017.866 621.004 3085.967 620.459 3067.24 599.164"/><circle class="cls-4" cx="3002.064" cy="726.4426" r="33.8512"/><circle class="cls-5" cx="2700.8488" cy="207.1628" r="126.8837"/><ellipse class="cls-6" cx="2699.7164" cy="207.1628" rx="100.9811" ry="126.8837"/><ellipse class="cls-7" cx="2700.8488" cy="207.1628" rx="57.7279" ry="126.8837"/><rect class="cls-8" x="2698.0715" y="80.2791" width="3.2899" height="253.7675"/><rect class="cls-8" x="2698.0715" y="0.0094" width="3.2899" height="253.7675"/><polygon class="cls-8" points="2827.671 211.154 2827.527 214.444 2574.17 214.444 2574.026 211.134 2827.671 211.154"/><polygon class="cls-8" points="2823.352 240.337 2822.415 243.627 2579.266 243.627 2578.346 240.337 2823.352 240.337"/><polygon class="cls-8" points="2811.378 269.521 2809.476 272.811 2592.294 272.811 2590.32 269.521 2811.378 269.521"/><polygon class="cls-8" points="2788.71 298.704 2785.104 301.994 2616.578 301.994 2612.987 298.704 2788.71 298.704"/><polygon class="cls-8" points="2825.232 181.97 2825.849 185.26 2575.848 185.26 2576.466 181.97 2825.232 181.97"/><polygon class="cls-8" points="2815.537 152.787 2817.029 156.077 2584.669 156.077 2586.235 152.787 2815.537 152.787"/><polygon class="cls-8" points="2796.256 123.603 2799.212 126.893 2602.76 126.67 2605.322 123.603 2796.256 123.603"/><polygon class="cls-8" points="2759.087 94.42 2765.072 97.71 2637.968 96.932 2642.529 94.42 2759.087 94.42"/><polygon class="cls-9" points="2594.573 73.999 2616.106 88.472 2637.516 73.875 2625.277 95.409 2637.639 116.819 2616.106 103.598 2594.696 116.942 2608.29 96.384 2594.573 73.999"/><polygon class="cls-9" points="2782.782 278.939 2804.316 293.413 2825.726 278.816 2813.487 300.349 2825.849 321.759 2804.316 308.539 2782.906 321.883 2796.499 301.325 2782.782 278.939"/><polygon class="cls-9" points="2561.423 123.23 2582.108 137.134 2602.675 123.111 2590.918 143.797 2602.793 164.364 2582.108 151.664 2561.541 164.482 2574.599 144.734 2561.423 123.23"/><path class="cls-10" d="M3103.4931,1792.2355c-65.7433,32.1315-87.4535,59.9586-260.9055,45.83-158.2007-12.8865-307.132-27.6693-315.1028-47.3048-9.8266-24.2069,26.5825-19.1274,315.1028-47.3045C2842.5876,1743.4562,3126.9654,1780.7636,3103.4931,1792.2355Z"/><path class="cls-11" d="M2541.4951,802.39c4.1331,2.9367,18.6582-13.2128,27.0149-22.504,16.873-18.76,42.0085-51.9549,45.4773-62.6811,5.4406-16.8223-41.1272,17.6467-62.0119,51.84C2542.9217,783.8674,2537.9443,799.867,2541.4951,802.39Z"/><path class="cls-11" d="M2914.6844,822.3118c4.0358-3.0691-7.0465-21.75-13.4224-32.4973-12.8738-21.7-37.061-55.5923-46.2644-62.1024-14.434-10.21,4.5771,44.5185,30.9849,74.6509C2897.4305,815.4257,2911.2172,824.9485,2914.6844,822.3118Z"/><path class="cls-11" d="M2930.4166,630.1818c-2.5571-4.3782-22.4437,4.3571-33.885,9.3827-23.1013,10.1474-59.6762,30.0464-67.2543,38.3924-11.8852,13.0894,44.7451.855,77.8574-21.7039C2921.4891,646.4734,2932.6135,633.9431,2930.4166,630.1818Z"/><path class="cls-4" d="M2924.6246,1102.5167c0,164.2459-25.7338,299.3048-58.6934,315.33v1.597c-42.5145,3.7889-119.1842,1.2595-121.2335,1.8673-8.3926,2.4887-13.76.7492-18.643-1.8673-7.5177,4.6779-8.5116,5.4263-17.1507,2.3762-3.05-1.0767-78.5668,3.9462-116.1435-2.3762-36.0507,0-65.2757-141.893-65.2757-316.9268"/><path class="cls-11" d="M2726.25,500.8712c-86.4521,0-156.5355,50.34-156.5355,112.4382V864.5351c0,48.3133,70.0833,87.479,156.5355,87.479s156.5354-39.1657,156.5354-87.479V613.3094C2882.7855,551.2115,2812.7023,500.8712,2726.25,500.8712Z"/><path class="cls-12" d="M2936.8146,1246.1514c0-164.246-27.1642-299.3049-61.9559-315.33v-1.5969H2586.5032c-38.0548,0-68.9043,141.8929-68.9043,316.9268"/><path class="cls-13" d="M2769.2119,955.3852l.3108-.0016-.5253-104.0521-84.1065.4246.5253,104.0521.3108-.0016c.066,13.08,18.8082,23.59,41.862,23.4734S2769.2779,968.4655,2769.2119,955.3852Z"/><path class="cls-4" d="M2576.9985,641.4373v93.5166c0,88.97,66.6687,161.0941,148.9086,161.0941s148.9087-72.1243,148.9087-161.0941V641.4373Z"/><circle class="cls-14" cx="2631.7205" cy="768.7427" r="18.7611"/><circle class="cls-14" cx="2808.2727" cy="768.7427" r="18.7611"/><path class="cls-13" d="M2577.3842,752.4182c-23.4362,0-42.4351-17.7352-42.4351-39.6127s18.9989-39.6127,42.4351-39.6127"/><path class="cls-13" d="M2873.9671,673.1928c23.4362,0,42.4351,17.7352,42.4351,39.6127s-18.9989,39.6127-42.4351,39.6127"/><rect class="cls-15" x="2666.321" y="665.8727" width="12.2702" height="55.2157" rx="2.033" transform="translate(1318.9117 -1712.9388) rotate(46.0965)"/><rect class="cls-15" x="2647.6023" y="687.0597" width="51.1257" height="14.3152" rx="2.3719" transform="translate(1319.6599 -1713.2239) rotate(46.0965)"/><rect class="cls-15" x="2763.3876" y="665.8082" width="12.2702" height="55.2157" rx="2.033" transform="translate(1348.6206 -1782.8955) rotate(46.0965)"/><rect class="cls-15" x="2744.6689" y="686.9952" width="51.1257" height="14.3152" rx="2.3719" transform="translate(1349.3696 -1783.181) rotate(46.0965)"/><rect class="cls-12" x="2517.1065" y="752.6351" width="74.4719" height="286.8258" rx="29" transform="translate(-80.8826 1515.0441) rotate(-32.5493)"/><rect class="cls-12" x="2899.5787" y="723.824" width="74.4719" height="286.8258" rx="29" transform="translate(636.8889 -1154.4756) rotate(24.8648)"/><path class="cls-11" d="M2626.8162,573.48c.1895-5.0668-21.28-8.3584-33.6323-10.2522-24.94-3.8237-66.4824-6.642-77.3544-3.6615-17.0511,4.6744,37.3084,24.7171,77.3544,23.4335C2610.5442,582.4431,2626.6533,577.8327,2626.8162,573.48Z"/><path class="cls-11" d="M2642.3908,570.33c2.3522-4.4916-15.61-16.7047-25.9435-23.7312-20.8652-14.1873-57.1482-34.6138-68.2443-36.6036-17.4026-3.1208,23.0348,38.37,59.7332,54.45C2623.8452,571.4158,2640.37,574.1888,2642.3908,570.33Z"/><path class="cls-11" d="M2654.5213,539.2045c2.3521-4.4916-15.61-16.7046-25.9435-23.7312-20.8652-14.1873-57.1482-34.6137-68.2443-36.6035-17.4026-3.1209,23.0348,38.37,59.7331,54.45C2635.9757,540.29,2652.5005,543.0633,2654.5213,539.2045Z"/><path class="cls-11" d="M2912.7,502.3843c-3.6629-3.5059-20.3791,10.3632-29.9964,18.3425-19.4184,16.111-49.1078,45.304-54.0975,55.4127-7.8257,15.854,43.2538-11.4874,68.8825-42.2852C2908.5989,520.5032,2915.8469,505.3961,2912.7,502.3843Z"/><path class="cls-11" d="M2881.0459,470.1914c-4.4548-2.4212-16.9434,15.35-24.1284,25.5744-14.5074,20.644-35.4908,56.6077-37.6515,67.6718-3.3888,17.3524,38.72-22.44,55.3644-58.8864C2881.8456,488.7515,2884.8731,472.2714,2881.0459,470.1914Z"/><rect class="cls-4" x="2554.0673" y="1299.4989" width="105.4675" height="524.868" rx="17.4747"/><rect class="cls-4" x="2789.5115" y="1299.4989" width="105.4675" height="524.868" rx="17.4747"/><rect class="cls-11" x="2723.0837" y="1382.2994" width="5.9421" height="37.1441" rx="0.9845"/><rect class="cls-16" x="2720.8847" y="1424.8698" width="10.34" height="16.3976" rx="1.7132"/><rect class="cls-16" x="2715.7147" y="1480.989" width="10.34" height="16.3976" rx="1.7132"/><rect class="cls-16" x="2728.4216" y="1462.0138" width="10.34" height="22.096" rx="1.7132"/><rect class="cls-16" x="2708.197" y="1499.9642" width="10.34" height="37.1441" rx="1.7132"/><rect class="cls-16" x="2725.6872" y="1537.1083" width="10.34" height="21.9433" rx="1.7132"/><rect class="cls-16" x="2713.367" y="1446.4883" width="10.34" height="21.9433" rx="1.7132"/><rect class="cls-16" x="2721.1124" y="1568.6409" width="10.34" height="16.3976" rx="1.7132"/><rect class="cls-16" x="2715.9424" y="1624.7602" width="10.34" height="16.3976" rx="1.7132"/><rect class="cls-16" x="2728.6492" y="1605.785" width="10.34" height="22.096" rx="1.7132"/><rect class="cls-16" x="2708.4247" y="1643.7353" width="10.34" height="37.1441" rx="1.7132"/><rect class="cls-16" x="2725.9148" y="1680.8794" width="10.34" height="21.9433" rx="1.7132"/><rect class="cls-16" x="2713.5946" y="1590.2595" width="10.34" height="21.9433" rx="1.7132"/><rect class="cls-16" x="2692.9185" y="1746.4347" width="40.5687" height="11.4166" rx="1.8916"/><rect class="cls-16" x="2713.2029" y="1752.1431" width="40.5687" height="11.4166" rx="1.8916"/><rect class="cls-16" x="2697.721" y="1754.721" width="40.5687" height="11.4166" rx="1.8916"/><rect class="cls-16" x="2685.4008" y="1760.4293" width="40.5687" height="11.4166" rx="1.8916"/><rect class="cls-16" x="2705.6852" y="1761.333" width="40.5687" height="11.4166" rx="1.8916"/><rect class="cls-16" x="2723.1753" y="1761.333" width="40.5687" height="11.4166" rx="1.8916"/><rect class="cls-16" x="2692.9185" y="1767.0413" width="40.5687" height="11.4166" rx="1.8916"/><rect class="cls-16" x="2716.0251" y="1767.0413" width="40.5687" height="11.4166" rx="1.8916"/><rect class="cls-11" x="2704.8133" y="1403.2532" width="1.6152" height="12.6934" transform="translate(-303.1872 905.1895) rotate(-18.0022)"/><rect class="cls-11" x="2713.5782" y="1405.9987" width="1.6152" height="12.6934" transform="translate(-303.6067 908.0327) rotate(-18.0022)"/><rect class="cls-11" x="2708.574" y="1394.9387" width="1.6152" height="8.3625" transform="translate(-81.1567 2628.4211) rotate(-51.0864)"/><rect class="cls-11" x="2716.3078" y="1390.1922" width="1.6152" height="10.7403"/><rect class="cls-11" x="2699.3477" y="1411.996" width="1.1942" height="6.0087" transform="translate(-264.1225 2126.5011) rotate(-41.1564)"/><rect class="cls-11" x="2699.6248" y="1403.105" width="0.6401" height="5.8313" transform="translate(-302.3589 903.2601) rotate(-18.0022)"/><rect class="cls-11" x="2746.1901" y="1402.6949" width="1.6152" height="12.6934" transform="translate(4924.0457 3598.0726) rotate(-161.9978)"/><rect class="cls-11" x="2737.4252" y="1405.4404" width="1.6152" height="12.6934" transform="translate(4906.0963 3600.7204) rotate(-161.9978)"/><rect class="cls-11" x="2742.4294" y="1394.3804" width="1.6152" height="8.3625" transform="translate(3378.1811 4411.5619) rotate(-128.9136)"/><rect class="cls-11" x="2734.6956" y="1389.6339" width="1.6152" height="10.7403" transform="translate(5471.0065 2790.0082) rotate(-180)"/><rect class="cls-11" x="2752.0766" y="1411.4377" width="1.1942" height="6.0087" transform="translate(3894.3394 4290.978) rotate(-138.8436)"/><rect class="cls-11" x="2752.3537" y="1402.5467" width="0.6401" height="5.8313" transform="translate(4936.226 3592.8436) rotate(-161.9978)"/><path class="cls-17" d="M2239.6555,953.1508l220.1009-213.6445a12.3737,12.3737,0,0,1,15.3038-.9272l43.48,31.6118c4.5121,3.28,5.0088,9.0658,1.1038,12.8563,0,0-81.8809,72.5152-111.6648,108.3892s-108.4361,105.2553-108.4361,105.2553a12.3737,12.3737,0,0,1-15.3038.9273l-43.48-31.6119C2236.2472,962.7266,2235.7505,956.9413,2239.6555,953.1508Z"/><path class="cls-18" d="M2236.374,950.765l220.1009-213.6445a12.3737,12.3737,0,0,1,15.3038-.9272l43.48,31.6118c4.5121,3.28,5.0088,9.0658,1.1038,12.8563,0,0-81.8809,72.5152-111.6648,108.3892s-108.4361,105.2553-108.4361,105.2553a12.3738,12.3738,0,0,1-15.3038.9273l-43.48-31.6119C2232.9657,960.3408,2232.469,954.5555,2236.374,950.765Z"/><path class="cls-18" d="M2233.7548,956.093c4.5136-28.0583,10.7962-98.2239,59.0764-145.0879,57.7246-56.0313,133.919-61.7451,163.5333-75.17,24.2569-10.9965-33.5531,77.1373-88.0583,130.0437S2230.0634,979.04,2233.7548,956.093Z"/><path class="cls-17" d="M2253.8645,864.1066c22.2941,3.16,36.0449,27.2428,30.7133,53.7915s-27.7266,45.5093-50.0206,42.35"/><path class="cls-17" d="M2343.1772,772.5441c7.2738,17.9834,37.77,25.54,68.116,16.8781s49.0492-30.2622,41.7755-48.2456"/><ellipse class="cls-1" cx="2717.4771" cy="814.2225" rx="45.021" ry="37.109"/><path class="cls-11" d="M2710.8221,1270.823c1.5618,1.7261,1.7561-8.3586,5.7371-11.4139,3.7306-2.8632,11.3267,1.4219,10.8665-.8272-.6-2.9342-7.81-5.5283-12.83-.9416C2710.4691,1261.4107,2709.0732,1268.89,2710.8221,1270.823Z"/><path class="cls-16" d="M2307.6048,223.1274a40.77,40.77,0,1,0,65.5387-48.5123"/><rect class="cls-8" x="2194.0284" y="49.2418" width="104.7732" height="54.5478" transform="translate(4042.8072 -1274.4877) rotate(141.1036)"/><rect class="cls-8" x="2218.8673" y="79.9147" width="163.9107" height="135.8725" transform="translate(4184.3516 -1181.7967) rotate(141.1036)"/><rect class="cls-8" x="2216.1399" y="1.6009" width="20.8895" height="74.9149" transform="translate(4453.1693 78.1166) rotate(-180)"/><path class="cls-16" d="M3092.3952,223.1274a40.77,40.77,0,1,1-65.5387-48.5123"/><rect class="cls-8" x="3101.1984" y="49.2418" width="104.7732" height="54.5478" transform="translate(747.2482 -1963.2137) rotate(38.8964)"/><rect class="cls-8" x="3017.2221" y="79.9147" width="163.9107" height="135.8725" transform="translate(779.9775 -1913.2343) rotate(38.8964)"/><rect class="cls-8" x="3162.9706" y="1.6009" width="20.8895" height="74.9149"/><polygon class="cls-19" points="2206.027 1841.112 3138.273 1841.112 3090.526 227.634 3023.082 173.48 2206.027 1841.112"/><circle class="cls-5" cx="3780.8488" cy="207.1534" r="126.8837"/><ellipse class="cls-6" cx="3779.7164" cy="207.1534" rx="100.9811" ry="126.8837"/><ellipse class="cls-7" cx="3780.8488" cy="207.1534" rx="57.7279" ry="126.8837"/><rect class="cls-8" x="3778.0715" y="80.2696" width="3.2899" height="253.7675"/><rect class="cls-8" x="3778.0715" width="3.2899" height="253.7675"/><polygon class="cls-8" points="3907.671 211.144 3907.527 214.434 3654.17 214.434 3654.026 211.124 3907.671 211.144"/><polygon class="cls-8" points="3903.352 240.328 3902.415 243.618 3659.266 243.618 3658.346 240.328 3903.352 240.328"/><polygon class="cls-8" points="3891.378 269.511 3889.476 272.801 3672.294 272.801 3670.32 269.511 3891.378 269.511"/><polygon class="cls-8" points="3868.71 298.695 3865.104 301.985 3696.578 301.985 3692.987 298.695 3868.71 298.695"/><polygon class="cls-8" points="3905.232 181.961 3905.849 185.251 3655.848 185.251 3656.466 181.961 3905.232 181.961"/><polygon class="cls-8" points="3895.537 152.777 3897.029 156.067 3664.669 156.067 3666.235 152.777 3895.537 152.777"/><polygon class="cls-8" points="3876.256 123.594 3879.212 126.884 3682.76 126.661 3685.322 123.594 3876.256 123.594"/><polygon class="cls-8" points="3839.087 94.41 3845.072 97.7 3717.968 96.922 3722.529 94.41 3839.087 94.41"/><polygon class="cls-9" points="3648.787 278.93 3670.32 293.403 3691.73 278.807 3679.491 300.34 3691.853 321.75 3670.32 308.529 3648.91 321.873 3662.504 301.315 3648.787 278.93"/><polygon class="cls-9" points="3862.782 278.93 3884.316 293.403 3905.726 278.807 3893.487 300.34 3905.849 321.75 3884.316 308.529 3862.906 321.873 3876.499 301.315 3862.782 278.93"/><polygon class="cls-9" points="3886.266 124.73 3907.8 139.203 3929.21 124.606 3916.971 146.14 3929.333 167.55 3907.8 154.329 3886.39 167.673 3899.984 147.115 3886.266 124.73"/><polygon class="cls-9" points="3847.177 67.375 3868.71 81.849 3890.12 67.252 3877.882 88.785 3890.244 110.195 3868.71 96.975 3847.3 110.319 3860.894 89.761 3847.177 67.375"/><polygon class="cls-9" points="3641.423 123.22 3662.108 137.124 3682.675 123.102 3670.918 143.788 3682.793 164.355 3662.108 151.654 3641.541 164.473 3654.599 144.725 3641.423 123.22"/><path class="cls-10" d="M4183.4931,1792.226c-65.7433,32.1315-87.4535,59.9587-260.9055,45.83-158.2007-12.8864-307.132-27.6693-315.1028-47.3047-9.8266-24.207,26.5825-19.1275,315.1028-47.3046C3922.5876,1743.4467,4206.9654,1780.7542,4183.4931,1792.226Z"/><path class="cls-11" d="M3621.4951,802.3805c4.1331,2.9367,18.6582-13.2128,27.0149-22.504,16.873-18.76,42.0085-51.9549,45.4773-62.6811,5.4406-16.8223-41.1272,17.6467-62.0119,51.84C3622.9217,783.858,3617.9443,799.8575,3621.4951,802.3805Z"/><path class="cls-11" d="M3994.6844,822.3024c4.0358-3.0692-7.0465-21.75-13.4224-32.4973-12.8738-21.7-37.061-55.5923-46.2644-62.1025-14.434-10.21,4.5771,44.5186,30.9849,74.651C3977.4305,815.4163,3991.2172,824.9391,3994.6844,822.3024Z"/><path class="cls-11" d="M4010.4166,630.1724c-2.5571-4.3782-22.4437,4.3571-33.885,9.3827-23.1013,10.1474-59.6762,30.0464-67.2543,38.3924-11.8852,13.0894,44.7451.855,77.8574-21.704C4001.4891,646.464,4012.6135,633.9337,4010.4166,630.1724Z"/><path class="cls-4" d="M4004.6246,1102.5073c0,164.2459-25.7338,299.3048-58.6934,315.33v1.5969c-42.5145,3.789-119.1842,1.26-121.2335,1.8673-8.3926,2.4888-13.76.7493-18.643-1.8673-7.5177,4.678-8.5116,5.4264-17.1507,2.3763-3.05-1.0767-78.5668,3.9462-116.1435-2.3763-36.0507,0-65.2757-141.8929-65.2757-316.9267"/><path class="cls-11" d="M3806.25,500.8617c-86.4521,0-156.5355,50.34-156.5355,112.4383V864.5257c0,48.3133,70.0833,87.479,156.5355,87.479s156.5354-39.1657,156.5354-87.479V613.3C3962.7855,551.2021,3892.7023,500.8617,3806.25,500.8617Z"/><path class="cls-12" d="M4016.8146,1246.1419c0-164.2459-27.1642-299.3048-61.9559-315.33v-1.5969H3666.5032c-38.0548,0-68.9043,141.8929-68.9043,316.9267"/><path class="cls-13" d="M3849.2119,955.3757l.3108-.0015-.5253-104.0521-84.1065.4246.5253,104.0521.3108-.0016c.066,13.08,18.8082,23.59,41.862,23.4734S3849.2779,968.4561,3849.2119,955.3757Z"/><path class="cls-4" d="M3656.9985,641.4279v93.5165c0,88.97,66.6687,161.0942,148.9086,161.0942s148.9087-72.1243,148.9087-161.0942V641.4279Z"/><circle class="cls-14" cx="3711.7205" cy="768.7332" r="18.7611"/><circle class="cls-14" cx="3888.2727" cy="768.7332" r="18.7611"/><path class="cls-13" d="M3657.3842,752.4088c-23.4362,0-42.4351-17.7352-42.4351-39.6127s18.9989-39.6127,42.4351-39.6127"/><path class="cls-13" d="M3953.9671,673.1834c23.4362,0,42.4351,17.7352,42.4351,39.6127s-18.9989,39.6127-42.4351,39.6127"/><rect class="cls-15" x="3746.321" y="665.8633" width="12.2702" height="55.2157" rx="2.033" transform="translate(1649.9835 -2491.0913) rotate(46.0965)"/><rect class="cls-15" x="3727.6023" y="687.0503" width="51.1257" height="14.3152" rx="2.3719" transform="translate(1650.7317 -2491.3763) rotate(46.0965)"/><rect class="cls-15" x="3843.3876" y="665.7988" width="12.2702" height="55.2157" rx="2.033" transform="translate(1679.6922 -2561.0477) rotate(46.0965)"/><rect class="cls-15" x="3824.6689" y="686.9858" width="51.1257" height="14.3152" rx="2.3719" transform="translate(1680.4414 -2561.3334) rotate(46.0965)"/><rect class="cls-12" x="3597.1065" y="752.6257" width="74.4719" height="286.8258" rx="29" transform="translate(88.7594 2096.1099) rotate(-32.5493)"/><path class="cls-11" d="M3706.8162,573.47c.1895-5.0667-21.28-8.3583-33.6323-10.2521-24.94-3.8237-66.4824-6.642-77.3544-3.6615-17.0511,4.6744,37.3084,24.7171,77.3544,23.4334C3690.5442,582.4337,3706.6533,577.8232,3706.8162,573.47Z"/><path class="cls-11" d="M3722.3908,570.3206c2.3522-4.4916-15.61-16.7047-25.9435-23.7312-20.8652-14.1874-57.1482-34.6138-68.2443-36.6036-17.4026-3.1208,23.0348,38.37,59.7332,54.45C3703.8452,571.4063,3720.37,574.1793,3722.3908,570.3206Z"/><path class="cls-11" d="M3734.5213,539.1951c2.3521-4.4916-15.61-16.7046-25.9435-23.7312-20.8652-14.1873-57.1482-34.6137-68.2443-36.6036-17.4026-3.1208,23.0348,38.37,59.7331,54.45C3715.9757,540.2809,3732.5005,543.0539,3734.5213,539.1951Z"/><path class="cls-11" d="M3992.7,502.3748c-3.6629-3.5058-20.3791,10.3633-29.9964,18.3425-19.4184,16.1111-49.1078,45.304-54.0975,55.4128-7.8257,15.854,43.2538-11.4874,68.8825-42.2852C3988.5989,520.4938,3995.8469,505.3867,3992.7,502.3748Z"/><path class="cls-11" d="M3961.0459,470.182c-4.4548-2.4212-16.9434,15.35-24.1284,25.5744-14.5074,20.644-35.4908,56.6077-37.6515,67.6718-3.3888,17.3524,38.72-22.44,55.3644-58.8865C3961.8456,488.742,3964.8731,472.2619,3961.0459,470.182Z"/><rect class="cls-4" x="3634.0673" y="1299.4895" width="105.4675" height="524.868" rx="17.4747"/><rect class="cls-4" x="3869.5115" y="1299.4895" width="105.4675" height="524.868" rx="17.4747"/><rect class="cls-11" x="3803.0837" y="1382.2899" width="5.9421" height="37.1441" rx="0.9845"/><rect class="cls-16" x="3800.8847" y="1424.8604" width="10.34" height="16.3976" rx="1.7132"/><rect class="cls-16" x="3795.7147" y="1480.9796" width="10.34" height="16.3976" rx="1.7132"/><rect class="cls-16" x="3808.4216" y="1462.0044" width="10.34" height="22.096" rx="1.7132"/><rect class="cls-16" x="3788.197" y="1499.9548" width="10.34" height="37.1441" rx="1.7132"/><rect class="cls-16" x="3805.6872" y="1537.0989" width="10.34" height="21.9433" rx="1.7132"/><rect class="cls-16" x="3793.367" y="1446.4789" width="10.34" height="21.9433" rx="1.7132"/><rect class="cls-16" x="3772.9185" y="1746.4253" width="40.5687" height="11.4166" rx="1.8916"/><rect class="cls-16" x="3793.2029" y="1752.1336" width="40.5687" height="11.4166" rx="1.8916"/><rect class="cls-16" x="3777.721" y="1754.7116" width="40.5687" height="11.4166" rx="1.8916"/><rect class="cls-16" x="3765.4008" y="1760.4199" width="40.5687" height="11.4166" rx="1.8916"/><rect class="cls-16" x="3785.6852" y="1761.3236" width="40.5687" height="11.4166" rx="1.8916"/><rect class="cls-16" x="3803.1753" y="1761.3236" width="40.5687" height="11.4166" rx="1.8916"/><rect class="cls-16" x="3772.9185" y="1767.0319" width="40.5687" height="11.4166" rx="1.8916"/><rect class="cls-16" x="3796.0251" y="1767.0319" width="40.5687" height="11.4166" rx="1.8916"/><rect class="cls-11" x="3784.8133" y="1403.2438" width="1.6152" height="12.6934" transform="translate(-250.3125 1238.9669) rotate(-18.0022)"/><rect class="cls-11" x="3793.5782" y="1405.9893" width="1.6152" height="12.6934" transform="translate(-250.7319 1241.8102) rotate(-18.0022)"/><rect class="cls-11" x="3788.574" y="1394.9293" width="1.6152" height="8.3625" transform="translate(320.4515 3468.7595) rotate(-51.0864)"/><rect class="cls-11" x="3796.3078" y="1390.1828" width="1.6152" height="10.7403"/><rect class="cls-11" x="3779.3477" y="1411.9866" width="1.1942" height="6.0087" transform="translate(2.7341 2837.2643) rotate(-41.1564)"/><rect class="cls-11" x="3779.6248" y="1403.0956" width="0.6401" height="5.8313" transform="translate(-249.4842 1237.0375) rotate(-18.0022)"/><rect class="cls-11" x="3826.1901" y="1402.6855" width="1.6152" height="12.6934" transform="translate(7031.1768 3931.8322) rotate(-161.9978)"/><rect class="cls-11" x="3817.4252" y="1405.431" width="1.6152" height="12.6934" transform="translate(7013.2274 3934.4799) rotate(-161.9978)"/><rect class="cls-11" x="3822.4294" y="1394.371" width="1.6152" height="8.3625" transform="translate(5136.5876 5251.8885) rotate(-128.9136)"/><rect class="cls-11" x="3814.6956" y="1389.6245" width="1.6152" height="10.7403" transform="translate(7631.0065 2789.9893) rotate(-180)"/><rect class="cls-11" x="3832.0766" y="1411.4283" width="1.1942" height="6.0087" transform="translate(5787.4953 5001.7271) rotate(-138.8436)"/><rect class="cls-11" x="3832.3537" y="1402.5373" width="0.6401" height="5.8313" transform="translate(7043.3571 3926.6032) rotate(-161.9978)"/><path class="cls-17" d="M3319.6555,953.1414l220.1009-213.6445a12.3739,12.3739,0,0,1,15.3038-.9273l43.48,31.6119c4.5121,3.28,5.0088,9.0658,1.1038,12.8563,0,0-81.8809,72.5152-111.6648,108.3892s-108.4361,105.2553-108.4361,105.2553a12.3738,12.3738,0,0,1-15.3038.9273l-43.48-31.6119C3316.2472,962.7172,3315.7505,956.9319,3319.6555,953.1414Z"/><path class="cls-18" d="M3316.374,950.7556l220.1009-213.6445a12.3738,12.3738,0,0,1,15.3038-.9273l43.48,31.6119c4.5121,3.28,5.0088,9.0658,1.1038,12.8563,0,0-81.8809,72.5152-111.6648,108.3892s-108.4361,105.2553-108.4361,105.2553a12.3738,12.3738,0,0,1-15.3038.9273l-43.48-31.6119C3312.9657,960.3314,3312.469,954.5461,3316.374,950.7556Z"/><path class="cls-18" d="M3313.7548,956.0836c4.5136-28.0583,10.7962-98.2239,59.0764-145.0879,57.7246-56.0313,133.919-61.7451,163.5333-75.17,24.2569-10.9965-33.5531,77.1373-88.0583,130.0437S3310.0634,979.03,3313.7548,956.0836Z"/><path class="cls-17" d="M3333.8645,864.0971c22.2941,3.16,36.0449,27.2429,30.7133,53.7916s-27.7266,45.5093-50.0206,42.35"/><path class="cls-17" d="M3423.1772,772.5347c7.2738,17.9834,37.77,25.54,68.116,16.8781s49.0492-30.2622,41.7755-48.2456"/><ellipse class="cls-1" cx="3797.4771" cy="814.2131" rx="45.021" ry="37.109"/><path class="cls-11" d="M3790.8221,1270.8136c1.5618,1.7261,1.7561-8.3586,5.7371-11.4139,3.7306-2.8632,11.3267,1.4219,10.8665-.8272-.6-2.9342-7.81-5.5283-12.83-.9417C3790.4691,1261.4013,3789.0732,1268.88,3790.8221,1270.8136Z"/><path class="cls-16" d="M3387.6048,223.118a40.77,40.77,0,0,0,65.5387-48.5123"/><rect class="cls-8" x="3274.0284" y="49.2324" width="104.7732" height="54.5478" transform="translate(5963.3471 -1952.651) rotate(141.1036)"/><rect class="cls-8" x="3298.8673" y="79.9053" width="163.9107" height="135.8725" transform="matrix(-0.7783, 0.6279, -0.6279, -0.7783, 6104.8915, -1859.96)"/><rect class="cls-8" x="3296.1399" y="1.5914" width="20.8895" height="74.9149" transform="translate(6613.1693 78.0977) rotate(-180)"/><path class="cls-16" d="M4172.3952,223.118a40.77,40.77,0,1,1-65.5387-48.5123"/><rect class="cls-8" x="4181.1984" y="49.2324" width="104.7732" height="54.5478" transform="translate(986.6965 -2641.3624) rotate(38.8964)"/><rect class="cls-8" x="4097.2221" y="79.9053" width="163.9107" height="135.8725" transform="translate(1019.4258 -2591.3829) rotate(38.8964)"/><rect class="cls-8" x="4242.9706" y="1.5914" width="20.8895" height="74.9149"/><rect class="cls-2" x="4159.4568" y="679.8877" width="73.7359" height="151.3022" rx="10.367" transform="translate(306.3269 2501.3616) rotate(-34.3771)"/><rect class="cls-2" x="4128.916" y="619.9451" width="30.1349" height="118.1712" rx="2.367" transform="translate(340.3843 2458.4449) rotate(-34.3771)"/><rect class="cls-3" x="4158.4751" y="726.5096" width="73.7359" height="55.1883" transform="translate(306.9657 2500.5567) rotate(-34.3771)"/><polygon class="cls-2" points="4155.726 669.509 4130.758 686.384 4127.307 715.413 4183.205 676.511 4155.726 669.509"/><circle class="cls-4" cx="4168.4852" cy="800.8895" r="33.8512"/><rect class="cls-12" x="3957.2169" y="891.7022" width="74.4719" height="155.0091" rx="29" transform="translate(5311.1167 -2924.559) rotate(95.0442)"/><rect class="cls-12" x="4056.2165" y="789.2923" width="74.4719" height="228.1863" rx="29" transform="translate(1324.0863 -2243.5288) rotate(36.2062)"/><polygon class="cls-20" points="4273.33 1841.102 3341.084 1841.102 3388.831 227.625 3456.275 173.471 4273.33 1841.102"/><rect class="cls-2" x="5175.3048" y="617.431" width="73.7359" height="151.3022" rx="10.367"/><rect class="cls-2" x="5197.1053" y="541.2976" width="30.1349" height="118.1712" rx="2.367"/><rect class="cls-3" x="5175.3048" y="663.7493" width="73.7359" height="55.1883"/><polygon class="cls-2" points="5227.24 599.155 5197.105 598.985 5177.866 620.995 5245.967 620.449 5227.24 599.155"/><circle class="cls-4" cx="5162.064" cy="726.4332" r="33.8512"/><circle class="cls-5" cx="4860.8488" cy="207.1534" r="126.8837"/><ellipse class="cls-6" cx="4859.7164" cy="207.1534" rx="100.9811" ry="126.8837"/><ellipse class="cls-7" cx="4860.8488" cy="207.1534" rx="57.7279" ry="126.8837"/><rect class="cls-8" x="4858.0715" y="80.2696" width="3.2899" height="253.7675"/><rect class="cls-8" x="4858.0715" width="3.2899" height="253.7675"/><polygon class="cls-8" points="4987.671 211.144 4987.527 214.434 4734.17 214.434 4734.026 211.124 4987.671 211.144"/><polygon class="cls-8" points="4983.352 240.328 4982.415 243.618 4739.266 243.618 4738.346 240.328 4983.352 240.328"/><polygon class="cls-8" points="4971.378 269.511 4969.476 272.801 4752.294 272.801 4750.32 269.511 4971.378 269.511"/><polygon class="cls-8" points="4948.71 298.695 4945.104 301.985 4776.578 301.985 4772.987 298.695 4948.71 298.695"/><polygon class="cls-8" points="4985.232 181.961 4985.849 185.251 4735.848 185.251 4736.466 181.961 4985.232 181.961"/><polygon class="cls-8" points="4975.537 152.777 4977.029 156.067 4744.669 156.067 4746.235 152.777 4975.537 152.777"/><polygon class="cls-8" points="4956.256 123.594 4959.212 126.884 4762.76 126.661 4765.322 123.594 4956.256 123.594"/><polygon class="cls-8" points="4919.087 94.41 4925.072 97.7 4797.968 96.922 4802.529 94.41 4919.087 94.41"/><polygon class="cls-9" points="4754.573 73.989 4776.106 88.463 4797.516 73.866 4785.277 95.399 4797.639 116.809 4776.106 103.588 4754.696 116.932 4768.29 96.375 4754.573 73.989"/><polygon class="cls-9" points="4942.782 278.93 4964.316 293.403 4985.726 278.807 4973.487 300.34 4985.849 321.75 4964.316 308.529 4942.906 321.873 4956.499 301.315 4942.782 278.93"/><polygon class="cls-9" points="4721.423 123.22 4742.108 137.124 4762.675 123.102 4750.918 143.788 4762.793 164.355 4742.108 151.654 4721.541 164.473 4734.599 144.725 4721.423 123.22"/><path class="cls-10" d="M5263.4931,1792.226c-65.7433,32.1315-87.4535,59.9587-260.9055,45.83-158.2007-12.8864-307.132-27.6693-315.1028-47.3047-9.8266-24.207,26.5825-19.1275,315.1028-47.3046C5002.5876,1743.4467,5286.9654,1780.7542,5263.4931,1792.226Z"/><path class="cls-11" d="M4701.4951,802.3805c4.1331,2.9367,18.6582-13.2128,27.0149-22.504,16.873-18.76,42.0085-51.9549,45.4773-62.6811,5.4406-16.8223-41.1272,17.6467-62.0119,51.84C4702.9217,783.858,4697.9443,799.8575,4701.4951,802.3805Z"/><path class="cls-11" d="M5074.6844,822.3024c4.0358-3.0692-7.0465-21.75-13.4224-32.4973-12.8738-21.7-37.061-55.5923-46.2644-62.1025-14.434-10.21,4.5771,44.5186,30.9849,74.651C5057.4305,815.4163,5071.2172,824.9391,5074.6844,822.3024Z"/><path class="cls-11" d="M5090.4166,630.1724c-2.5571-4.3782-22.4437,4.3571-33.885,9.3827-23.1013,10.1474-59.6762,30.0464-67.2543,38.3924-11.8852,13.0894,44.7451.855,77.8574-21.704C5081.4891,646.464,5092.6135,633.9337,5090.4166,630.1724Z"/><path class="cls-4" d="M5084.6246,1102.5073c0,164.2459-25.7338,299.3048-58.6934,315.33v1.5969c-42.5145,3.789-119.1842,1.26-121.2335,1.8673-8.3926,2.4888-13.76.7493-18.643-1.8673-7.5177,4.678-8.5116,5.4264-17.1507,2.3763-3.05-1.0767-78.5668,3.9462-116.1435-2.3763-36.0507,0-65.2757-141.8929-65.2757-316.9267"/><path class="cls-11" d="M4886.25,500.8617c-86.4521,0-156.5355,50.34-156.5355,112.4383V864.5257c0,48.3133,70.0833,87.479,156.5355,87.479s156.5354-39.1657,156.5354-87.479V613.3C5042.7855,551.2021,4972.7023,500.8617,4886.25,500.8617Z"/><path class="cls-12" d="M5096.8146,1246.1419c0-164.2459-27.1642-299.3048-61.9559-315.33v-1.5969H4746.5032c-38.0548,0-68.9043,141.8929-68.9043,316.9267"/><path class="cls-13" d="M4929.2119,955.3757l.3108-.0015-.5253-104.0521-84.1065.4246.5253,104.0521.3108-.0016c.066,13.08,18.8082,23.59,41.862,23.4734S4929.2779,968.4561,4929.2119,955.3757Z"/><path class="cls-4" d="M4736.9985,641.4279v93.5165c0,88.97,66.6687,161.0942,148.9086,161.0942s148.9087-72.1243,148.9087-161.0942V641.4279Z"/><circle class="cls-14" cx="4791.7205" cy="768.7332" r="18.7611"/><circle class="cls-14" cx="4968.2727" cy="768.7332" r="18.7611"/><path class="cls-13" d="M4737.3842,752.4088c-23.4362,0-42.4351-17.7352-42.4351-39.6127s18.9989-39.6127,42.4351-39.6127"/><path class="cls-13" d="M5033.9671,673.1834c23.4362,0,42.4351,17.7352,42.4351,39.6127s-18.9989,39.6127-42.4351,39.6127"/><rect class="cls-15" x="4826.321" y="665.8633" width="12.2702" height="55.2157" rx="2.033" transform="translate(1981.0621 -3269.2408) rotate(46.0965)"/><rect class="cls-15" x="4807.6023" y="687.0503" width="51.1257" height="14.3152" rx="2.3719" transform="translate(1981.8103 -3269.5259) rotate(46.0965)"/><rect class="cls-15" x="4923.3876" y="665.7988" width="12.2702" height="55.2157" rx="2.033" transform="translate(2010.7706 -3339.197) rotate(46.0965)"/><rect class="cls-15" x="4904.6689" y="686.9858" width="51.1257" height="14.3152" rx="2.3719" transform="translate(2011.52 -3339.483) rotate(46.0965)"/><rect class="cls-12" x="4677.1065" y="752.6257" width="74.4719" height="286.8258" rx="29" transform="translate(258.3964 2677.1771) rotate(-32.5493)"/><rect class="cls-12" x="5059.5787" y="723.8146" width="74.4719" height="286.8258" rx="29" transform="translate(837.1111 -2062.7091) rotate(24.8648)"/><path class="cls-11" d="M4786.8162,573.47c.1895-5.0667-21.28-8.3583-33.6323-10.2521-24.94-3.8237-66.4824-6.642-77.3544-3.6615-17.0511,4.6744,37.3084,24.7171,77.3544,23.4334C4770.5442,582.4337,4786.6533,577.8232,4786.8162,573.47Z"/><path class="cls-11" d="M4802.3908,570.3206c2.3522-4.4916-15.61-16.7047-25.9435-23.7312-20.8652-14.1874-57.1482-34.6138-68.2443-36.6036-17.4026-3.1208,23.0348,38.37,59.7332,54.45C4783.8452,571.4063,4800.37,574.1793,4802.3908,570.3206Z"/><path class="cls-11" d="M4814.5213,539.1951c2.3521-4.4916-15.61-16.7046-25.9435-23.7312-20.8652-14.1873-57.1482-34.6137-68.2443-36.6036-17.4026-3.1208,23.0348,38.37,59.7331,54.45C4795.9757,540.2809,4812.5005,543.0539,4814.5213,539.1951Z"/><path class="cls-11" d="M5072.7,502.3748c-3.6629-3.5058-20.3791,10.3633-29.9964,18.3425-19.4184,16.1111-49.1078,45.304-54.0975,55.4128-7.8257,15.854,43.2538-11.4874,68.8825-42.2852C5068.5989,520.4938,5075.8469,505.3867,5072.7,502.3748Z"/><path class="cls-11" d="M5041.0459,470.182c-4.4548-2.4212-16.9434,15.35-24.1284,25.5744-14.5074,20.644-35.4908,56.6077-37.6515,67.6718-3.3888,17.3524,38.7205-22.44,55.3644-58.8865C5041.8456,488.742,5044.8731,472.2619,5041.0459,470.182Z"/><rect class="cls-4" x="4714.0673" y="1299.4895" width="105.4675" height="524.868" rx="17.4747"/><rect class="cls-4" x="4949.5115" y="1299.4895" width="105.4675" height="524.868" rx="17.4747"/><rect class="cls-11" x="4883.0837" y="1382.2899" width="5.9421" height="37.1441" rx="0.9845"/><rect class="cls-16" x="4880.8847" y="1424.8604" width="10.34" height="16.3976" rx="1.7132"/><rect class="cls-16" x="4875.7147" y="1480.9796" width="10.34" height="16.3976" rx="1.7132"/><rect class="cls-16" x="4888.4216" y="1462.0044" width="10.34" height="22.096" rx="1.7132"/><rect class="cls-16" x="4868.197" y="1499.9548" width="10.34" height="37.1441" rx="1.7132"/><rect class="cls-16" x="4885.6872" y="1537.0989" width="10.34" height="21.9433" rx="1.7132"/><rect class="cls-16" x="4873.367" y="1446.4789" width="10.34" height="21.9433" rx="1.7132"/><rect class="cls-16" x="4881.1124" y="1568.6315" width="10.34" height="16.3976" rx="1.7132"/><rect class="cls-16" x="4875.9424" y="1624.7507" width="10.34" height="16.3976" rx="1.7132"/><rect class="cls-16" x="4888.6492" y="1605.7755" width="10.34" height="22.096" rx="1.7132"/><rect class="cls-16" x="4868.4247" y="1643.7259" width="10.34" height="37.1441" rx="1.7132"/><rect class="cls-16" x="4885.9148" y="1680.87" width="10.34" height="21.9433" rx="1.7132"/><rect class="cls-16" x="4873.5946" y="1590.25" width="10.34" height="21.9433" rx="1.7132"/><rect class="cls-16" x="4852.9185" y="1746.4253" width="40.5687" height="11.4166" rx="1.8916"/><rect class="cls-16" x="4873.2029" y="1752.1336" width="40.5687" height="11.4166" rx="1.8916"/><rect class="cls-16" x="4857.721" y="1754.7116" width="40.5687" height="11.4166" rx="1.8916"/><rect class="cls-16" x="4845.4008" y="1760.4199" width="40.5687" height="11.4166" rx="1.8916"/><rect class="cls-16" x="4865.6852" y="1761.3236" width="40.5687" height="11.4166" rx="1.8916"/><rect class="cls-16" x="4883.1753" y="1761.3236" width="40.5687" height="11.4166" rx="1.8916"/><rect class="cls-16" x="4852.9185" y="1767.0319" width="40.5687" height="11.4166" rx="1.8916"/><rect class="cls-16" x="4876.0251" y="1767.0319" width="40.5687" height="11.4166" rx="1.8916"/><rect class="cls-11" x="4864.8133" y="1403.2438" width="1.6152" height="12.6934" transform="translate(-197.4407 1572.7449) rotate(-18.0022)"/><rect class="cls-11" x="4873.5782" y="1405.9893" width="1.6152" height="12.6934" transform="translate(-197.8601 1575.5881) rotate(-18.0022)"/><rect class="cls-11" x="4868.574" y="1394.9293" width="1.6152" height="8.3625" transform="translate(722.0523 4309.1015) rotate(-51.0864)"/><rect class="cls-11" x="4876.3078" y="1390.1828" width="1.6152" height="10.7403"/><rect class="cls-11" x="4859.3477" y="1411.9866" width="1.1942" height="6.0087" transform="translate(269.5845 3548.0299) rotate(-41.1564)"/><rect class="cls-11" x="4859.6248" y="1403.0956" width="0.6401" height="5.8313" transform="translate(-196.6124 1570.8154) rotate(-18.0022)"/><rect class="cls-11" x="4906.1901" y="1402.6855" width="1.6152" height="12.6934" transform="translate(9138.305 4265.6101) rotate(-161.9978)"/><rect class="cls-11" x="4897.4252" y="1405.431" width="1.6152" height="12.6934" transform="translate(9120.3556 4268.2579) rotate(-161.9978)"/><rect class="cls-11" x="4902.4294" y="1394.371" width="1.6152" height="8.3625" transform="translate(6894.9867 6092.2304) rotate(-128.9136)"/><rect class="cls-11" x="4894.6956" y="1389.6245" width="1.6152" height="10.7403" transform="translate(9791.0065 2789.9893) rotate(-180)"/><rect class="cls-11" x="4912.0766" y="1411.4283" width="1.1942" height="6.0087" transform="translate(7680.6449 5712.4926) rotate(-138.8436)"/><rect class="cls-11" x="4912.3537" y="1402.5373" width="0.6401" height="5.8313" transform="translate(9150.4853 4260.3811) rotate(-161.9978)"/><path class="cls-17" d="M4399.6555,953.1414l220.1009-213.6445a12.3739,12.3739,0,0,1,15.3038-.9273l43.48,31.6119c4.5121,3.28,5.0088,9.0658,1.1038,12.8563,0,0-81.8809,72.5152-111.6648,108.3892s-108.4361,105.2553-108.4361,105.2553a12.3738,12.3738,0,0,1-15.3038.9273l-43.48-31.6119C4396.2472,962.7172,4395.7505,956.9319,4399.6555,953.1414Z"/><path class="cls-18" d="M4396.374,950.7556l220.1009-213.6445a12.3738,12.3738,0,0,1,15.3038-.9273l43.48,31.6119c4.5121,3.28,5.0088,9.0658,1.1038,12.8563,0,0-81.8809,72.5152-111.6648,108.3892s-108.4361,105.2553-108.4361,105.2553a12.3738,12.3738,0,0,1-15.3038.9273l-43.48-31.6119C4392.9657,960.3314,4392.469,954.5461,4396.374,950.7556Z"/><path class="cls-18" d="M4393.7548,956.0836c4.5136-28.0583,10.7962-98.2239,59.0764-145.0879,57.7246-56.0313,133.919-61.7451,163.5333-75.17,24.2569-10.9965-33.5531,77.1373-88.0583,130.0437S4390.0634,979.03,4393.7548,956.0836Z"/><path class="cls-17" d="M4413.8645,864.0971c22.2941,3.16,36.0449,27.2429,30.7133,53.7916s-27.7266,45.5093-50.0206,42.35"/><path class="cls-17" d="M4503.1772,772.5347c7.2738,17.9834,37.77,25.54,68.116,16.8781s49.0492-30.2622,41.7755-48.2456"/><ellipse class="cls-1" cx="4877.4771" cy="814.2131" rx="45.021" ry="37.109"/><path class="cls-11" d="M4870.8221,1270.8136c1.5618,1.7261,1.7561-8.3586,5.7371-11.4139,3.7306-2.8632,11.3267,1.4219,10.8665-.8272-.6-2.9342-7.81-5.5283-12.83-.9417C4870.4691,1261.4013,4869.0732,1268.88,4870.8221,1270.8136Z"/><path class="cls-16" d="M4467.6048,223.118a40.77,40.77,0,0,0,65.5387-48.5123"/><rect class="cls-8" x="4354.0284" y="49.2324" width="104.7732" height="54.5478" transform="translate(7883.8929 -2630.7976) rotate(141.1036)"/><rect class="cls-8" x="4378.8673" y="79.9053" width="163.9107" height="135.8725" transform="matrix(-0.7783, 0.6279, -0.6279, -0.7783, 8025.4373, -2538.1066)"/><rect class="cls-8" x="4376.1399" y="1.5914" width="20.8895" height="74.9149" transform="translate(8773.1693 78.0977) rotate(-180)"/><path class="cls-16" d="M5252.3952,223.118a40.77,40.77,0,0,1-65.5387-48.5123"/><rect class="cls-8" x="5261.1984" y="49.2324" width="104.7732" height="54.5478" transform="translate(1226.1507 -3319.509) rotate(38.8964)"/><rect class="cls-8" x="5177.2221" y="79.9053" width="163.9107" height="135.8725" transform="translate(1258.88 -3269.5295) rotate(38.8964)"/><rect class="cls-8" x="5322.9706" y="1.5914" width="20.8895" height="74.9149"/><polygon class="cls-20" points="5353.33 1841.102 4421.084 1841.102 4468.831 227.625 4536.275 173.471 5353.33 1841.102"/><polygon class="cls-19" points="4366.027 1841.102 5298.273 1841.102 5250.526 227.625 5183.082 173.471 4366.027 1841.102"/></svg>
