<svg id="Layer_1" data-name="Layer 1" xmlns="http://www.w3.org/2000/svg" width="1080" height="1920" viewBox="0 0 1080 1920"><defs><style>.cls-1{fill:#dcdfe6;}.cls-2{fill:#fff;}.cls-3{fill:#999;}.cls-4{fill:#bcc0cc;}.cls-5{fill:#343740;}.cls-6{fill:#a1a5b3;}.cls-7{fill:gray;}.cls-8{fill:#fefefe;}.cls-9{fill:#3b2314;}.cls-10{fill:#7f3f97;}.cls-11{fill:#6d4422;}.cls-12{fill:#754c28;}.cls-13{fill:#f2a087;}</style></defs><title>fatima</title><rect class="cls-1" x="1063.48" y="362.16" width="21.52" height="125.16"/><rect class="cls-1" width="1078.85" height="1920" rx="44.6" ry="44.6"/><rect class="cls-2" x="36.88" y="202.39" width="998.94" height="1517.89"/><rect class="cls-3" x="467.2" y="87.88" width="144.46" height="10.65" rx="2" ry="2"/><path class="cls-4" d="M543.6,1751c-42.2,0-76.4,31.27-76.4,69.85s34.2,69.86,76.4,69.86,76.4-31.28,76.4-69.86S585.79,1751,543.6,1751Zm0,130.6c-34.86,0-63.12-26.52-63.12-59.23s28.26-59.22,63.12-59.22,63.11,26.51,63.11,59.22S578.46,1881.6,543.6,1881.6Z"/><ellipse class="cls-3" cx="390.35" cy="93.2" rx="15.37" ry="13.31"/><rect class="cls-5" x="37" y="258.31" width="1001.9" height="1461.97"/><ellipse class="cls-1" cx="545.57" cy="35.95" rx="10.76" ry="9.32"/><ellipse class="cls-6" cx="539.5" cy="35.95" rx="10.76" ry="9.32"/><rect class="cls-5" x="37" y="202.39" width="1001.9" height="76.61"/><rect class="cls-3" x="1023.53" y="223.69" width="3.07" height="10.65"/><rect class="cls-7" x="971.27" y="218.36" width="52.25" height="21.3"/><rect class="cls-8" x="974.35" y="221.03" width="46.1" height="15.98"/><rect class="cls-8" x="1023.53" y="226.35" width="3.07" height="5.33"/><path class="cls-2" d="M103.88,238v-5.47H94.06v-2.75l10.25-14.22h2.38v14.52H110v2.45h-3.29V238Zm0-7.92V220l-7.17,10.14Z"/><path class="cls-2" d="M129,215.73a8.17,8.17,0,0,1,4.19,6.3h-3.08a5.57,5.57,0,0,0-2.33-3.66,8,8,0,0,0-4.45-1.15,7,7,0,0,0-5.37,2.39c-1.45,1.59-2.18,4-2.18,7.12a11.38,11.38,0,0,0,1.8,6.67q1.8,2.57,5.86,2.57a7.46,7.46,0,0,0,5.15-1.81q2-1.8,2.08-5.83h-7.19v-2.58h10.08V238h-2l-.75-2.95a11.7,11.7,0,0,1-2.79,2.4,10.52,10.52,0,0,1-5.21,1.16,10.11,10.11,0,0,1-7-2.64q-3.21-3.31-3.21-9.09c0-3.85,1-6.9,3.13-9.18a10,10,0,0,1,7.69-3.25A11.82,11.82,0,0,1,129,215.73Z"/><rect class="cls-8" x="57" y="221" width="7" height="18" rx="0.75" ry="0.75"/><rect class="cls-8" x="47" y="226" width="7" height="13" rx="0.75" ry="0.75"/><rect class="cls-8" x="66" y="217" width="7" height="22" rx="0.75" ry="0.75"/><rect class="cls-8" x="76" y="214" width="7" height="25" rx="0.75" ry="0.75"/><path class="cls-2" d="M915,226.38V225a7.66,7.66,0,0,0,2.79-.65,3.23,3.23,0,0,0,1.18-2.16h1.45v14.62h-2v-10.4Z"/><path class="cls-2" d="M934.48,224.45a10.43,10.43,0,0,1,1,5,11.87,11.87,0,0,1-.9,5,4.37,4.37,0,0,1-4.22,2.81,4.22,4.22,0,0,1-3.94-2.3,10.56,10.56,0,0,1-1.07-5.14,12.77,12.77,0,0,1,.64-4.3q1.21-3.34,4.38-3.34A4.33,4.33,0,0,1,934.48,224.45Zm-1.85,9.78c.56-.85.85-2.43.85-4.74a11.72,11.72,0,0,0-.62-4.12,2.34,2.34,0,0,0-2.39-1.61,2.5,2.5,0,0,0-2.38,1.53,10.64,10.64,0,0,0-.75,4.52,11.13,11.13,0,0,0,.48,3.61,2.62,2.62,0,0,0,4.81.81Z"/><path class="cls-2" d="M946.16,224.45a10.43,10.43,0,0,1,1,5,11.87,11.87,0,0,1-.9,5,4.37,4.37,0,0,1-4.22,2.81,4.22,4.22,0,0,1-3.94-2.3,10.56,10.56,0,0,1-1.07-5.14,12.77,12.77,0,0,1,.64-4.3q1.22-3.34,4.38-3.34A4.33,4.33,0,0,1,946.16,224.45Zm-1.85,9.78c.56-.85.85-2.43.85-4.74a11.72,11.72,0,0,0-.62-4.12,2.35,2.35,0,0,0-2.39-1.61,2.5,2.5,0,0,0-2.38,1.53,10.64,10.64,0,0,0-.75,4.52,11.13,11.13,0,0,0,.48,3.61,2.62,2.62,0,0,0,4.81.81Z"/><path class="cls-2" d="M954.82,223.59a3.58,3.58,0,0,1-2.54,6.1,3.58,3.58,0,1,1,2.54-6.1Zm-1,4a2,2,0,0,0,.62-1.49,2.12,2.12,0,0,0-2.13-2.12,2.12,2.12,0,0,0,0,4.23A2.08,2.08,0,0,0,953.79,227.61Zm7.08-5.45H962l-8.21,15h-1.14Zm4,8.53a3.57,3.57,0,0,1-5.06,5,3.57,3.57,0,0,1,0-5,3.57,3.57,0,0,1,5.06,0Zm-1,4a2.1,2.1,0,0,0,0-3,2.12,2.12,0,0,0-3,0,2.11,2.11,0,0,0,3,3Z"/><path class="cls-9" d="M534.65,482.28c-157,0-284.25,100.85-284.25,225.24V1210.8c0,96.78,127.26,175.24,284.25,175.24s284.24-78.46,284.24-175.24V707.52C818.89,583.13,691.63,482.28,534.65,482.28Z"/><path class="cls-10" d="M917,1548c0-107.59-49.33-196.07-112.5-206.57v-1H280.89c-69.11,0-125.12,92.95-125.12,207.61"/><path class="cls-11" d="M612.66,1392.79h.56l-1-208.44-152.73.85,1,208.44h.56c.12,26.2,34.15,47.25,76,47S612.78,1419,612.66,1392.79Z"/><path class="cls-12" d="M263.63,763.87V951.21c0,178.23,121.06,322.72,270.39,322.72s270.4-144.49,270.4-322.72V763.87Z"/><ellipse cx="421.82" cy="897.26" rx="33.45" ry="36.9"/><ellipse cx="641.45" cy="897.26" rx="33.45" ry="36.9"/><path class="cls-2" d="M616.69,1030.65c0,69.35-41.68,125.58-93.09,125.58s-93.09-56.23-93.09-125.58"/><ellipse class="cls-13" cx="362.99" cy="1018.9" rx="34.07" ry="37.58"/><ellipse class="cls-13" cx="683.59" cy="1018.9" rx="34.07" ry="37.58"/><path class="cls-11" d="M264.33,986.2c-42.56,0-77.06-35.53-77.06-79.36s34.5-79.35,77.06-79.35"/><path class="cls-11" d="M802.88,827.49c42.55,0,77,35.53,77,79.35s-34.5,79.36-77,79.36"/></svg>
