<svg id="Layer_1" data-name="Layer 1" xmlns="http://www.w3.org/2000/svg" width="957.28" height="787" viewBox="0 0 957.28 787"><defs><style>.cls-1{fill:#15222f;}.cls-2{fill:#fff;}.cls-3{fill:#f4912b;}</style></defs><title>GameOver</title><rect class="cls-1" width="957.28" height="787" rx="112" ry="112"/><path class="cls-2" d="M74.39,85.9a44.18,44.18,0,0,1,7.47-.64c5,0,8.64,1.34,11,3.89s3.83,6.18,3.83,11.24-1.37,9.28-3.91,12.16-6.74,4.5-12,4.5a49.89,49.89,0,0,1-6.38-.37Zm3.52,27.67a18.91,18.91,0,0,0,3.55.23C89,113.8,93,109,93,100.53c0-7.38-3.59-12.07-11-12.07a16.92,16.92,0,0,0-4.11.42Z"/><path class="cls-2" d="M103.29,106.28c.08,5.53,3.15,7.8,6.7,7.8a11.45,11.45,0,0,0,5.41-1.16l.6,2.92a14,14,0,0,1-6.5,1.4c-6,0-9.6-4.55-9.6-11.33s3.47-12.11,9.16-12.11c6.38,0,8.07,6.45,8.07,10.58a17.91,17.91,0,0,1-.12,1.9Zm10.41-2.92c0-2.6-.93-6.64-4.92-6.64-3.59,0-5.17,3.81-5.45,6.64Z"/><path class="cls-2" d="M125.81,87.85v6.46h5.08v3.11h-5.08v12.11c0,2.79.68,4.36,2.66,4.36a6.94,6.94,0,0,0,2.06-.27l.16,3.06a7.78,7.78,0,0,1-3.15.56,4.63,4.63,0,0,1-3.83-1.72c-1-1.21-1.37-3.2-1.37-5.85V97.42h-3V94.31h3V88.92Z"/><path class="cls-2" d="M145.42,106.28c.08,5.53,3.15,7.8,6.7,7.8a11.45,11.45,0,0,0,5.41-1.16l.6,2.92a14,14,0,0,1-6.5,1.4c-6,0-9.6-4.55-9.6-11.33s3.47-12.11,9.16-12.11c6.38,0,8.07,6.45,8.07,10.58a17.91,17.91,0,0,1-.12,1.9Zm10.41-2.92c0-2.6-.93-6.64-4.92-6.64-3.59,0-5.17,3.81-5.45,6.64Z"/><path class="cls-2" d="M163.66,101.32c0-2.65,0-4.92-.16-7h3.11l.12,4.41h.16c.89-3,3-4.92,5.41-4.92a3.2,3.2,0,0,1,1,.14v3.85a4.45,4.45,0,0,0-1.22-.14c-2.5,0-4.27,2.18-4.76,5.24a13.38,13.38,0,0,0-.16,1.91v12h-3.51Z"/><path class="cls-2" d="M185.77,116.77V97.42H183V94.31h2.74V93.24c0-3.16.61-6,2.26-7.85a6.35,6.35,0,0,1,4.77-2.08,7.17,7.17,0,0,1,3,.65l-.48,3.15a4.72,4.72,0,0,0-2.26-.51c-3,0-3.79,3.07-3.79,6.5v1.21H194v3.11h-4.72v19.35Z"/><path class="cls-2" d="M208,116.77l-.28-2.83h-.12a7,7,0,0,1-6,3.34c-3.95,0-6-3.2-6-6.45,0-5.43,4.2-8.4,11.75-8.35V102c0-1.85-.45-5.2-4.44-5.2a8.83,8.83,0,0,0-5.09,1.67l-.81-2.69a11,11,0,0,1,6.42-2c6,0,7.43,4.68,7.43,9.19v8.4a36.54,36.54,0,0,0,.32,5.38Zm-.52-11.46c-3.88-.1-8.28.69-8.28,5.06,0,2.64,1.54,3.9,3.35,3.9a5,5,0,0,0,4.72-3.76,4.58,4.58,0,0,0,.21-1.3Z"/><path class="cls-2" d="M220.16,104.61h.08c.48-.79,1.17-1.76,1.73-2.55l5.73-7.75H232l-7.54,9.23L233,116.77h-4.32L222,106l-1.81,2.32v8.45h-3.51V83.82h3.51Z"/><path class="cls-2" d="M239.85,87.85v6.46h5.09v3.11h-5.09v12.11c0,2.79.69,4.36,2.66,4.36a6.94,6.94,0,0,0,2.06-.27l.16,3.06a7.69,7.69,0,0,1-3.14.56,4.63,4.63,0,0,1-3.84-1.72c-1-1.21-1.37-3.2-1.37-5.85V97.42h-3V94.31h3V88.92Z"/><path class="cls-2" d="M252.88,88a2.25,2.25,0,0,1-2.26,2.51A2.29,2.29,0,0,1,248.49,88a2.34,2.34,0,0,1,2.22-2.55A2.28,2.28,0,0,1,252.88,88Zm-3.95,28.78V94.31h3.55v22.46Z"/><path class="cls-2" d="M257.89,112.59a8.45,8.45,0,0,0,4.68,1.63c2.58,0,3.79-1.49,3.79-3.34s-1-3-3.63-4.13c-3.51-1.44-5.16-3.67-5.16-6.36a6.39,6.39,0,0,1,6.74-6.59,8.81,8.81,0,0,1,4.8,1.39l-.89,3a6.9,6.9,0,0,0-4-1.3A3,3,0,0,0,261,99.92c0,1.86,1.17,2.7,3.71,3.81,3.39,1.48,5.12,3.43,5.12,6.78,0,3.94-2.66,6.73-7.3,6.73a10.07,10.07,0,0,1-5.49-1.53Z"/><path class="cls-2" d="M277.86,104.61H278c.48-.79,1.17-1.76,1.73-2.55l5.73-7.75h4.28l-7.55,9.23,8.6,13.23h-4.32L279.68,106l-1.82,2.32v8.45h-3.51V83.82h3.51Z"/><path class="cls-3" d="M318.18,110.65c0,2.32,0,4.36.16,6.12h-3.15l-.2-3.66h-.08a7.26,7.26,0,0,1-6.46,4.17c-3.06,0-6.74-2-6.74-9.84V94.31h3.56v12.44c0,4.27,1.13,7.14,4.36,7.14a5.23,5.23,0,0,0,4.68-3.71,6.84,6.84,0,0,0,.32-2.09V94.31h3.55Z"/><path class="cls-3" d="M324.07,83.82h3.55v33h-3.55Z"/><path class="cls-3" d="M351.27,105.35c0,8.31-5,11.93-9.72,11.93-5.29,0-9.37-4.45-9.37-11.55,0-7.52,4.28-11.93,9.69-11.93C347.48,93.8,351.27,98.48,351.27,105.35Zm-15.5.24c0,4.92,2.47,8.63,5.94,8.63s5.93-3.67,5.93-8.73c0-3.8-1.66-8.63-5.85-8.63S335.77,101.32,335.77,105.59Z"/><path class="cls-3" d="M356.84,94.31l3.83,12.62c.65,2,1.18,3.9,1.58,5.76h.12c.44-1.86,1-3.72,1.65-5.76l3.8-12.62h3.71l-7.67,22.46h-3.39l-7.42-22.46Z"/><path class="cls-3" d="M374.88,83.82h3.55v33h-3.55Z"/><path class="cls-3" d="M388.36,88a2.27,2.27,0,0,1-2.26,2.51A2.29,2.29,0,0,1,384,88a2.34,2.34,0,0,1,2.22-2.55A2.29,2.29,0,0,1,388.36,88Zm-4,28.78V94.31H388v22.46Z"/><path class="cls-3" d="M410.68,94.31c-.09,1.62-.17,3.43-.17,6.17v13c0,5.16-.88,8.31-2.78,10.26a9.52,9.52,0,0,1-7.1,2.69,11.36,11.36,0,0,1-6.5-1.85l.89-3.11a9.94,9.94,0,0,0,5.73,1.76c3.63,0,6.29-2.18,6.29-7.84v-2.51H407a6.81,6.81,0,0,1-6.21,3.76c-4.85,0-8.32-4.73-8.32-11,0-7.62,4.32-11.93,8.8-11.93a6.44,6.44,0,0,1,6.1,3.89h.08l.16-3.38ZM407,103.17a6.65,6.65,0,0,0-.2-1.85c-.65-2.37-2.38-4.32-5-4.32-3.39,0-5.82,3.29-5.82,8.49,0,4.41,1.94,8.08,5.78,8.08,2.18,0,4.15-1.58,4.92-4.18a8.1,8.1,0,0,0,.28-2.18Z"/><path class="cls-3" d="M420.68,87.85v6.46h5.09v3.11h-5.09v12.11c0,2.79.69,4.36,2.67,4.36a6.92,6.92,0,0,0,2-.27l.17,3.06a7.78,7.78,0,0,1-3.15.56,4.63,4.63,0,0,1-3.84-1.72c-1-1.21-1.37-3.2-1.37-5.85V97.42h-3V94.31h3V88.92Z"/><path class="cls-2" d="M428.79,114.36c0-1.72,1-2.93,2.42-2.93s2.39,1.21,2.39,2.93-.93,2.92-2.43,2.92S428.79,116,428.79,114.36Z"/><path class="cls-2" d="M77.91,196.9V210H91.06V196.9h3.55v31.28H91.06V213.52H77.91v14.66H74.39V196.9Z"/><path class="cls-2" d="M102.32,205.72l3.83,12.62c.65,2,1.17,3.9,1.58,5.76h.12c.44-1.86,1-3.72,1.65-5.76l3.8-12.62H117l-7.67,22.46H106l-7.42-22.46Z"/><path class="cls-2" d="M124.31,199.4a2.26,2.26,0,0,1-2.26,2.51,2.29,2.29,0,0,1-2.14-2.51,2.35,2.35,0,0,1,2.22-2.55A2.29,2.29,0,0,1,124.31,199.4Zm-4,28.78V205.72h3.55v22.46Z"/><path class="cls-2" d="M129.32,224a8.53,8.53,0,0,0,4.68,1.62c2.58,0,3.79-1.48,3.79-3.34s-1-3-3.63-4.13c-3.51-1.44-5.17-3.67-5.17-6.36a6.4,6.4,0,0,1,6.74-6.59,8.82,8.82,0,0,1,4.81,1.39l-.89,3a6.9,6.9,0,0,0-4-1.3,3,3,0,0,0-3.27,3.06c0,1.86,1.17,2.7,3.72,3.81,3.39,1.49,5.12,3.43,5.12,6.78,0,3.94-2.66,6.73-7.3,6.73a10.07,10.07,0,0,1-5.49-1.53Z"/><path class="cls-2" d="M171.35,195.23v27.15c0,2,0,4.27.16,5.8h-3.19l-.16-3.9h-.08a7.14,7.14,0,0,1-6.66,4.41c-4.72,0-8.35-4.59-8.35-11.42,0-7.47,4-12.06,8.75-12.06a6.37,6.37,0,0,1,5.9,3.43h.08V195.23Zm-3.55,19.63a8.35,8.35,0,0,0-.16-1.72c-.53-2.6-2.47-4.73-5.13-4.73-3.67,0-5.85,3.71-5.85,8.68,0,4.55,1.94,8.31,5.77,8.31,2.38,0,4.56-1.81,5.21-4.88a8.11,8.11,0,0,0,.16-1.76Z"/><path class="cls-2" d="M193.59,222.06c0,2.32,0,4.36.16,6.12H190.6l-.2-3.66h-.08a7.27,7.27,0,0,1-6.46,4.17c-3.07,0-6.74-1.95-6.74-9.84V205.72h3.55v12.44c0,4.27,1.13,7.15,4.36,7.15a5.24,5.24,0,0,0,4.68-3.72,6.79,6.79,0,0,0,.32-2.09V205.72h3.56Z"/><path class="cls-2" d="M210.15,217.69c.08,5.53,3.15,7.8,6.7,7.8a11.42,11.42,0,0,0,5.41-1.16l.6,2.92a14,14,0,0,1-6.49,1.4c-6,0-9.61-4.55-9.61-11.33s3.47-12.11,9.16-12.11c6.38,0,8.07,6.45,8.07,10.58a17.72,17.72,0,0,1-.12,1.9Zm10.41-2.92c0-2.6-.93-6.64-4.92-6.64-3.59,0-5.17,3.81-5.45,6.64Z"/><path class="cls-2" d="M228.39,212.73c0-2.65,0-4.92-.16-7h3.11l.12,4.41h.16c.89-3,3-4.92,5.41-4.92a3.2,3.2,0,0,1,1,.14v3.85a4.85,4.85,0,0,0-1.21-.14c-2.51,0-4.28,2.18-4.77,5.24a13.38,13.38,0,0,0-.16,1.91v12h-3.51Z"/><path class="cls-3" d="M266.63,222.06c0,2.32,0,4.36.16,6.12h-3.15l-.2-3.66h-.08a7.27,7.27,0,0,1-6.46,4.17c-3.06,0-6.74-1.95-6.74-9.84V205.72h3.55v12.44c0,4.27,1.13,7.15,4.36,7.15a5.23,5.23,0,0,0,4.68-3.72,6.5,6.5,0,0,0,.33-2.09V205.72h3.55Z"/><path class="cls-3" d="M272.52,211.8c0-2.32,0-4.23-.16-6.08h3.15l.2,3.71h.08a7.11,7.11,0,0,1,6.46-4.22c2.7,0,6.9,1.85,6.9,9.56v13.41H285.6v-13c0-3.62-1.17-6.63-4.52-6.63a5.22,5.22,0,0,0-4.77,4.17,6.78,6.78,0,0,0-.24,1.91v13.5h-3.55Z"/><path class="cls-3" d="M311.79,195.23v27.15c0,2,0,4.27.16,5.8h-3.19l-.16-3.9h-.08a7.14,7.14,0,0,1-6.66,4.41c-4.72,0-8.36-4.59-8.36-11.42,0-7.47,4-12.06,8.76-12.06a6.34,6.34,0,0,1,5.89,3.43h.08V195.23Zm-3.56,19.63a8.35,8.35,0,0,0-.16-1.72c-.52-2.6-2.46-4.73-5.12-4.73-3.67,0-5.85,3.71-5.85,8.68,0,4.55,1.93,8.31,5.77,8.31,2.38,0,4.56-1.81,5.2-4.88a8.11,8.11,0,0,0,.16-1.76Z"/><path class="cls-3" d="M319.65,217.69c.08,5.53,3.15,7.8,6.7,7.8a11.39,11.39,0,0,0,5.41-1.16l.61,2.92a14,14,0,0,1-6.5,1.4c-6,0-9.61-4.55-9.61-11.33s3.47-12.11,9.17-12.11c6.37,0,8.07,6.45,8.07,10.58a17.72,17.72,0,0,1-.12,1.9Zm10.42-2.92c0-2.6-.93-6.64-4.93-6.64-3.59,0-5.16,3.81-5.45,6.64Z"/><path class="cls-3" d="M337.89,212.73c0-2.65,0-4.92-.16-7h3.11l.12,4.41h.16c.89-3,3-4.92,5.41-4.92a3.12,3.12,0,0,1,1,.14v3.85a4.79,4.79,0,0,0-1.21-.14c-2.5,0-4.28,2.18-4.76,5.24a13.38,13.38,0,0,0-.16,1.91v12h-3.52Z"/><path class="cls-3" d="M366.37,201.82h-.08l-4.56,2.83-.69-3.11,5.73-3.53h3v30.17h-3.43Z"/><path class="cls-3" d="M395,201.45H385l-1,7.75a12.5,12.5,0,0,1,2.14-.19,9.91,9.91,0,0,1,5.65,1.63c2.06,1.34,3.75,3.94,3.75,7.75,0,5.89-4.07,10.3-9.76,10.3a11.55,11.55,0,0,1-6.54-1.85l.89-3.11a10.63,10.63,0,0,0,5.61,1.67,6.18,6.18,0,0,0,6.21-6.55c0-3.9-2.3-6.68-7.55-6.68a23.69,23.69,0,0,0-3.63.32l1.7-14.48H395Z"/><path class="cls-3" d="M420.71,228.18l-.29-2.83h-.12a7,7,0,0,1-6,3.34c-4,0-6-3.2-6-6.45,0-5.43,4.19-8.4,11.74-8.35v-.47c0-1.85-.44-5.2-4.44-5.2a8.85,8.85,0,0,0-5.09,1.67l-.8-2.69a11,11,0,0,1,6.41-2c6,0,7.43,4.68,7.43,9.19v8.4a36.54,36.54,0,0,0,.32,5.38Zm-.53-11.46c-3.87-.09-8.27.69-8.27,5.06,0,2.64,1.53,3.9,3.35,3.9a5.2,5.2,0,0,0,4.92-5.06ZM412.55,199a4.1,4.1,0,0,1,4.12-4.41c2.42,0,4,1.91,4,4.37a4.06,4.06,0,1,1-8.12,0Zm6.14-.09a2.28,2.28,0,0,0-2.1-2.55c-1.25,0-2,1.2-2,2.64,0,1.21.81,2.51,2,2.51S418.69,200.33,418.69,198.94Z"/><path class="cls-3" d="M429.34,212.73c0-2.65,0-4.92-.16-7h3.11l.12,4.41h.16c.89-3,3-4.92,5.41-4.92a3.1,3.1,0,0,1,1,.14v3.85a4.73,4.73,0,0,0-1.21-.14c-2.5,0-4.27,2.18-4.76,5.24a13.38,13.38,0,0,0-.16,1.91v12h-3.51Z"/><path class="cls-2" d="M438.1,233.89a76.88,76.88,0,0,0,2.42-11.09l4-.47a61.87,61.87,0,0,1-3.83,11.28Z"/><path class="cls-2" d="M457.45,211.8c0-2.32,0-4.23-.16-6.08h3.1l.16,3.62h.13c1.09-2.14,2.9-4.13,6.13-4.13,2.66,0,4.68,1.85,5.53,4.5h.08a9.15,9.15,0,0,1,2.18-2.93,6.11,6.11,0,0,1,4.32-1.57c2.58,0,6.42,1.95,6.42,9.74v13.23h-3.48V215.46c0-4.31-1.37-6.91-4.23-6.91-2,0-3.59,1.72-4.2,3.71a7.73,7.73,0,0,0-.28,2v13.88h-3.47V214.72c0-3.57-1.38-6.17-4.08-6.17-2.22,0-3.83,2-4.4,4.08a6.49,6.49,0,0,0-.28,2v13.55h-3.47Z"/><path class="cls-2" d="M501.92,228.18l-.28-2.83h-.12a7,7,0,0,1-6,3.34c-4,0-6-3.2-6-6.45,0-5.43,4.2-8.4,11.74-8.35v-.47c0-1.85-.44-5.2-4.43-5.2a8.83,8.83,0,0,0-5.09,1.67L491,207.2a11,11,0,0,1,6.42-2c6,0,7.43,4.68,7.43,9.19v8.4a36.54,36.54,0,0,0,.32,5.38Zm-.52-11.46c-3.88-.09-8.28.69-8.28,5.06,0,2.64,1.54,3.9,3.35,3.9a5.25,5.25,0,0,0,4.93-5.06ZM493.77,199a4.09,4.09,0,0,1,4.11-4.41c2.43,0,4,1.91,4,4.37a4.06,4.06,0,1,1-8.11,0Zm6.13-.09a2.28,2.28,0,0,0-2.1-2.55c-1.25,0-2,1.2-2,2.64,0,1.21.8,2.51,2,2.51S499.9,200.33,499.9,198.94Z"/><path class="cls-2" d="M536.12,195.23v27.15c0,2,0,4.27.16,5.8h-3.19l-.16-3.9h-.08a7.14,7.14,0,0,1-6.66,4.41c-4.72,0-8.35-4.59-8.35-11.42,0-7.47,4-12.06,8.76-12.06a6.36,6.36,0,0,1,5.89,3.43h.08V195.23Zm-3.55,19.63a8.35,8.35,0,0,0-.16-1.72c-.53-2.6-2.46-4.73-5.13-4.73-3.67,0-5.85,3.71-5.85,8.68,0,4.55,1.94,8.31,5.77,8.31,2.38,0,4.56-1.81,5.21-4.88a8.11,8.11,0,0,0,.16-1.76Z"/><path class="cls-2" d="M558.36,222.06c0,2.32,0,4.36.16,6.12h-3.15l-.2-3.66h-.08a7.27,7.27,0,0,1-6.46,4.17c-3.07,0-6.74-1.95-6.74-9.84V205.72h3.55v12.44c0,4.27,1.13,7.15,4.36,7.15a5.23,5.23,0,0,0,4.68-3.72,6.78,6.78,0,0,0,.33-2.09V205.72h3.55Z"/><path class="cls-2" d="M576.9,199.4a2.27,2.27,0,0,1-2.26,2.51,2.29,2.29,0,0,1-2.14-2.51,2.35,2.35,0,0,1,2.22-2.55A2.29,2.29,0,0,1,576.9,199.4Zm-4,28.78V205.72h3.56v22.46Z"/><path class="cls-2" d="M585.9,216H586c.48-.79,1.17-1.76,1.73-2.55l5.74-7.75h4.27L590.18,215l8.59,13.23h-4.31l-6.75-10.77-1.81,2.33v8.44h-3.51v-33h3.51Z"/><path class="cls-2" d="M605.51,216h.08c.49-.79,1.17-1.76,1.74-2.55l5.73-7.75h4.28L609.79,215l8.6,13.23h-4.32l-6.74-10.77-1.82,2.33v8.44H602v-33h3.51Z"/><path class="cls-2" d="M622.91,217.69c.08,5.53,3.14,7.8,6.69,7.8a11.39,11.39,0,0,0,5.41-1.16l.61,2.92a14,14,0,0,1-6.5,1.4c-6,0-9.61-4.55-9.61-11.33s3.48-12.11,9.17-12.11c6.37,0,8.07,6.45,8.07,10.58a17.72,17.72,0,0,1-.12,1.9Zm10.41-2.92c0-2.6-.93-6.64-4.93-6.64-3.59,0-5.16,3.81-5.44,6.64Z"/><path class="cls-2" d="M649.36,224a8.53,8.53,0,0,0,4.68,1.62c2.58,0,3.79-1.48,3.79-3.34s-1-3-3.63-4.13c-3.51-1.44-5.17-3.67-5.17-6.36a6.4,6.4,0,0,1,6.74-6.59,8.82,8.82,0,0,1,4.81,1.39l-.89,3a6.9,6.9,0,0,0-4-1.3,3,3,0,0,0-3.27,3.06c0,1.86,1.17,2.7,3.72,3.81,3.39,1.49,5.12,3.43,5.12,6.78,0,3.94-2.66,6.73-7.3,6.73a10.07,10.07,0,0,1-5.49-1.53Z"/><path class="cls-2" d="M667.8,217.69c.08,5.53,3.15,7.8,6.7,7.8a11.42,11.42,0,0,0,5.41-1.16l.6,2.92a14,14,0,0,1-6.49,1.4c-6,0-9.61-4.55-9.61-11.33s3.47-12.11,9.16-12.11c6.38,0,8.07,6.45,8.07,10.58a17.72,17.72,0,0,1-.12,1.9Zm10.41-2.92c0-2.6-.93-6.64-4.92-6.64-3.59,0-5.17,3.81-5.45,6.64Z"/><path class="cls-2" d="M686,211.8c0-2.32,0-4.23-.16-6.08H689l.2,3.71h.08a7.11,7.11,0,0,1,6.46-4.22c2.7,0,6.9,1.85,6.9,9.56v13.41h-3.55v-13c0-3.62-1.17-6.63-4.52-6.63a5.22,5.22,0,0,0-4.77,4.17,6.78,6.78,0,0,0-.24,1.91v13.5H686Z"/><path class="cls-2" d="M725.31,195.23v27.15c0,2,0,4.27.16,5.8h-3.19l-.16-3.9H722a7.14,7.14,0,0,1-6.66,4.41c-4.72,0-8.36-4.59-8.36-11.42,0-7.47,4-12.06,8.76-12.06a6.37,6.37,0,0,1,5.9,3.43h.08V195.23Zm-3.55,19.63a7.72,7.72,0,0,0-.17-1.72c-.52-2.6-2.46-4.73-5.12-4.73-3.67,0-5.85,3.71-5.85,8.68,0,4.55,1.93,8.31,5.77,8.31,2.38,0,4.56-1.81,5.2-4.88a7.51,7.51,0,0,0,.17-1.76Z"/><path class="cls-2" d="M733.18,217.69c.08,5.53,3.14,7.8,6.7,7.8a11.37,11.37,0,0,0,5.4-1.16l.61,2.92a14,14,0,0,1-6.5,1.4c-6,0-9.6-4.55-9.6-11.33s3.47-12.11,9.16-12.11c6.37,0,8.07,6.45,8.07,10.58a17.72,17.72,0,0,1-.12,1.9Zm10.41-2.92c0-2.6-.93-6.64-4.92-6.64-3.6,0-5.17,3.81-5.45,6.64Z"/><path class="cls-2" d="M760,228.18c.08-1.53.16-3.8.16-5.8V195.23h3.51v14.11h.09a7.11,7.11,0,0,1,6.65-4.13c4.85,0,8.28,4.64,8.24,11.46,0,8-4.4,12-8.76,12a6.82,6.82,0,0,1-6.54-4.22h-.12l-.16,3.71Zm3.67-9a8.7,8.7,0,0,0,.17,1.48c.68,2.84,2.74,4.78,5.32,4.78,3.72,0,5.94-3.48,5.94-8.63,0-4.5-2-8.35-5.82-8.35-2.42,0-4.68,1.9-5.4,5a9.12,9.12,0,0,0-.21,1.67Z"/><path class="cls-2" d="M787,199.4a2.27,2.27,0,0,1-2.26,2.51,2.29,2.29,0,0,1-2.14-2.51,2.35,2.35,0,0,1,2.22-2.55A2.29,2.29,0,0,1,787,199.4Zm-3.95,28.78V205.72h3.55v22.46Z"/><path class="cls-2" d="M792.52,195.23h3.55v33h-3.55Z"/><path class="cls-2" d="M802,195.23h3.55v33H802Z"/><path class="cls-2" d="M813.54,217.69c.08,5.53,3.15,7.8,6.7,7.8a11.39,11.39,0,0,0,5.41-1.16l.61,2.92a14.07,14.07,0,0,1-6.5,1.4c-6,0-9.61-4.55-9.61-11.33s3.47-12.11,9.16-12.11c6.38,0,8.08,6.45,8.08,10.58a17.72,17.72,0,0,1-.12,1.9ZM824,214.77c0-2.6-.93-6.64-4.93-6.64-3.59,0-5.16,3.81-5.45,6.64Z"/><path class="cls-2" d="M848.65,195.23v27.15c0,2,0,4.27.16,5.8h-3.18l-.17-3.9h-.08a7.14,7.14,0,0,1-6.66,4.41c-4.72,0-8.35-4.59-8.35-11.42,0-7.47,4-12.06,8.76-12.06a6.35,6.35,0,0,1,5.89,3.43h.08V195.23Zm-3.55,19.63a8.35,8.35,0,0,0-.16-1.72c-.52-2.6-2.46-4.73-5.13-4.73-3.67,0-5.85,3.71-5.85,8.68,0,4.55,1.94,8.31,5.77,8.31,2.39,0,4.56-1.81,5.21-4.88a8.11,8.11,0,0,0,.16-1.76Z"/><path class="cls-2" d="M856.52,217.69c.08,5.53,3.15,7.8,6.7,7.8a11.42,11.42,0,0,0,5.41-1.16l.6,2.92a14,14,0,0,1-6.49,1.4c-6,0-9.61-4.55-9.61-11.33s3.47-12.11,9.16-12.11c6.38,0,8.08,6.45,8.08,10.58a17.17,17.17,0,0,1-.13,1.9Zm10.41-2.92c0-2.6-.92-6.64-4.92-6.64-3.59,0-5.17,3.81-5.45,6.64Z"/><path class="cls-2" d="M874.76,212.73c0-2.65,0-4.92-.16-7h3.11l.12,4.41H878c.89-3,3-4.92,5.41-4.92a3.16,3.16,0,0,1,1,.14v3.85a4.85,4.85,0,0,0-1.21-.14c-2.51,0-4.28,2.18-4.77,5.24a13.38,13.38,0,0,0-.16,1.91v12h-3.51Z"/><path class="cls-2" d="M85.09,283.89l-.28-2.83h-.12a7,7,0,0,1-6,3.34c-3.95,0-6-3.2-6-6.45,0-5.43,4.2-8.4,11.74-8.36v-.46c0-1.86-.44-5.2-4.44-5.2A8.82,8.82,0,0,0,75,265.6l-.81-2.69a11,11,0,0,1,6.42-2c6,0,7.43,4.69,7.43,9.19v8.4a36.68,36.68,0,0,0,.32,5.39Zm-.52-11.47c-3.88-.09-8.28.7-8.28,5.06,0,2.65,1.54,3.9,3.35,3.9a5,5,0,0,0,4.72-3.76,4.84,4.84,0,0,0,.21-1.3Z"/><path class="cls-2" d="M94.09,283.89V264.53H91.34v-3.11h2.75v-1.06c0-3.16.6-6,2.26-7.85a6.34,6.34,0,0,1,4.76-2.09,7.42,7.42,0,0,1,3,.65l-.49,3.16a4.68,4.68,0,0,0-2.26-.51c-3,0-3.79,3.06-3.79,6.5v1.2h4.72v3.11H97.6v19.36Z"/><path class="cls-2" d="M131,250.93v27.16c0,2,0,4.27.17,5.8H128l-.16-3.9h-.09a7.13,7.13,0,0,1-6.65,4.41c-4.73,0-8.36-4.6-8.36-11.42,0-7.47,4-12.07,8.76-12.07a6.36,6.36,0,0,1,5.89,3.44h.08V250.93Zm-3.55,19.64a8.35,8.35,0,0,0-.16-1.72c-.52-2.6-2.46-4.73-5.12-4.73-3.68,0-5.86,3.71-5.86,8.67,0,4.55,1.94,8.31,5.77,8.31,2.39,0,4.57-1.81,5.21-4.87a8.17,8.17,0,0,0,.16-1.76Z"/><path class="cls-2" d="M140.87,255.11a2.27,2.27,0,0,1-2.26,2.51,2.3,2.3,0,0,1-2.14-2.51,2.34,2.34,0,0,1,2.22-2.55A2.29,2.29,0,0,1,140.87,255.11Zm-4,28.78V261.42h3.56v22.47Z"/><path class="cls-2" d="M163.19,261.42c-.08,1.63-.16,3.44-.16,6.18v13c0,5.15-.89,8.31-2.79,10.26a9.52,9.52,0,0,1-7.1,2.69,11.32,11.32,0,0,1-6.5-1.86l.89-3.11a9.94,9.94,0,0,0,5.73,1.77c3.63,0,6.29-2.18,6.29-7.85V280h-.08a6.8,6.8,0,0,1-6.21,3.76c-4.84,0-8.32-4.74-8.32-11,0-7.61,4.32-11.93,8.8-11.93a6.43,6.43,0,0,1,6.1,3.9h.08l.16-3.39Zm-3.68,8.87a6.72,6.72,0,0,0-.2-1.86c-.64-2.37-2.38-4.31-5-4.31-3.39,0-5.81,3.29-5.81,8.49,0,4.41,1.93,8.08,5.77,8.08,2.18,0,4.15-1.58,4.92-4.18a8.21,8.21,0,0,0,.28-2.18Z"/><path class="cls-2" d="M177.08,279.71a8.45,8.45,0,0,0,4.68,1.63c2.58,0,3.79-1.49,3.79-3.35s-1-3-3.63-4.13c-3.51-1.44-5.17-3.66-5.17-6.36a6.4,6.4,0,0,1,6.74-6.59,8.82,8.82,0,0,1,4.81,1.39l-.89,3a6.9,6.9,0,0,0-4-1.3,3,3,0,0,0-3.27,3.06c0,1.86,1.17,2.69,3.72,3.81,3.39,1.48,5.12,3.43,5.12,6.77,0,3.95-2.66,6.73-7.3,6.73a10,10,0,0,1-5.49-1.53Z"/><path class="cls-2" d="M195.52,273.4c.08,5.52,3.15,7.8,6.7,7.8a11.42,11.42,0,0,0,5.41-1.16l.6,2.92a14.06,14.06,0,0,1-6.5,1.39c-6,0-9.6-4.55-9.6-11.32s3.47-12.12,9.16-12.12c6.38,0,8.07,6.45,8.07,10.59a17.91,17.91,0,0,1-.12,1.9Zm10.41-2.93c0-2.59-.93-6.63-4.92-6.63-3.59,0-5.17,3.8-5.45,6.63Z"/><path class="cls-2" d="M213.76,250.93h3.55v33h-3.55Z"/><path class="cls-2" d="M224.66,261.42l3.83,12.63c.65,2,1.17,3.9,1.57,5.75h.12c.45-1.85,1-3.71,1.66-5.75l3.79-12.63h3.72l-7.67,22.47h-3.39l-7.43-22.47Z"/><path class="cls-2" d="M238.82,289.6a74.43,74.43,0,0,0,2.42-11.1l4-.46a61.8,61.8,0,0,1-3.84,11.28Z"/><path class="cls-2" d="M258.12,250.93h3.55v14h.08a7.21,7.21,0,0,1,2.54-2.88,6.66,6.66,0,0,1,3.64-1.16c2.62,0,6.82,1.86,6.82,9.61v13.37H271.2V271c0-3.62-1.17-6.68-4.52-6.68-2.3,0-4.12,1.86-4.77,4.09a5.63,5.63,0,0,0-.24,1.94v13.56h-3.55Z"/><path class="cls-2" d="M281.36,261.42l3.84,12.63c.64,2,1.17,3.9,1.57,5.75h.12c.45-1.85,1-3.71,1.66-5.75l3.79-12.63h3.72l-7.67,22.47H285l-7.43-22.47Z"/><path class="cls-2" d="M316.68,272.47c0,8.31-5,11.93-9.73,11.93-5.29,0-9.36-4.46-9.36-11.56,0-7.52,4.28-11.93,9.68-11.93C312.88,260.91,316.68,265.6,316.68,272.47Zm-15.5.23c0,4.92,2.46,8.64,5.93,8.64s5.93-3.67,5.93-8.73c0-3.81-1.65-8.63-5.85-8.63S301.18,268.43,301.18,272.7Z"/><path class="cls-2" d="M321.15,268.43c0-2.64,0-4.92-.16-7h3.11l.12,4.41h.16c.89-3,3-4.92,5.41-4.92a3.42,3.42,0,0,1,1,.14v3.85a4.79,4.79,0,0,0-1.21-.14c-2.5,0-4.28,2.19-4.76,5.25a13.36,13.36,0,0,0-.16,1.9v12h-3.52Z"/><path class="cls-2" d="M359.87,250.93v27.16c0,2,0,4.27.16,5.8h-3.19l-.16-3.9h-.08a7.14,7.14,0,0,1-6.66,4.41c-4.72,0-8.36-4.6-8.36-11.42,0-7.47,4-12.07,8.76-12.07a6.35,6.35,0,0,1,5.89,3.44h.09V250.93Zm-3.55,19.64a7.72,7.72,0,0,0-.17-1.72c-.52-2.6-2.46-4.73-5.12-4.73-3.67,0-5.85,3.71-5.85,8.67,0,4.55,1.93,8.31,5.77,8.31,2.38,0,4.56-1.81,5.2-4.87a7.57,7.57,0,0,0,.17-1.76Z"/><path class="cls-2" d="M382.1,277.76c0,2.32,0,4.37.16,6.13h-3.14l-.21-3.67h-.08a7.25,7.25,0,0,1-6.45,4.18c-3.07,0-6.74-1.95-6.74-9.84V261.42h3.55v12.44c0,4.27,1.13,7.15,4.36,7.15a5.23,5.23,0,0,0,4.68-3.71,6.89,6.89,0,0,0,.32-2.09V261.42h3.55Z"/><path class="cls-2" d="M398.62,273.4c.08,5.52,3.14,7.8,6.7,7.8a11.37,11.37,0,0,0,5.4-1.16l.61,2.92a14.06,14.06,0,0,1-6.5,1.39c-6,0-9.6-4.55-9.6-11.32s3.47-12.12,9.16-12.12c6.37,0,8.07,6.45,8.07,10.59a17.91,17.91,0,0,1-.12,1.9ZM409,270.47c0-2.59-.93-6.63-4.92-6.63-3.6,0-5.17,3.8-5.45,6.63Z"/><path class="cls-2" d="M416.86,268.43c0-2.64,0-4.92-.17-7h3.11l.12,4.41h.17c.88-3,3-4.92,5.4-4.92a3.42,3.42,0,0,1,1,.14v3.85a4.73,4.73,0,0,0-1.21-.14c-2.5,0-4.28,2.19-4.76,5.25a13.36,13.36,0,0,0-.16,1.9v12h-3.51Z"/><path class="cls-3" d="M438.7,267.5c0-2.32,0-4.22-.16-6.08h3.14l.2,3.72H442a7.08,7.08,0,0,1,6.45-4.23c2.71,0,6.9,1.86,6.9,9.56v13.42h-3.55V270.94c0-3.62-1.17-6.64-4.52-6.64-2.34,0-4.15,1.9-4.76,4.18a6.7,6.7,0,0,0-.24,1.9v13.51H438.7Z"/><path class="cls-3" d="M474.25,262.54l1.7-2.79,1.57,1.25-1.69,2.88a12.66,12.66,0,0,1,2.94,8.59c0,8.26-5,11.93-9.52,11.93a8.26,8.26,0,0,1-5-1.58l-1.73,2.83-1.5-1.39,1.7-2.79a12.46,12.46,0,0,1-3-8.68c0-7.47,4.28-11.88,9.61-11.88A8.35,8.35,0,0,1,474.25,262.54Zm-1.61,2.78a4.87,4.87,0,0,0-3.43-1.34c-4.36,0-6.1,4.64-6.1,8.72a10.91,10.91,0,0,0,1.45,5.62l.09.05ZM465.86,280a4.45,4.45,0,0,0,3.27,1.3c3.71,0,6.17-3.67,6.17-8.73a11.21,11.21,0,0,0-1.37-5.48h-.08Z"/><path class="cls-3" d="M500.08,261.42c-.08,1.63-.16,3.44-.16,6.18v13c0,5.15-.89,8.31-2.79,10.26a9.5,9.5,0,0,1-7.1,2.69,11.34,11.34,0,0,1-6.5-1.86l.89-3.11a9.94,9.94,0,0,0,5.73,1.77c3.63,0,6.3-2.18,6.3-7.85V280h-.08a6.81,6.81,0,0,1-6.22,3.76c-4.84,0-8.31-4.74-8.31-11,0-7.61,4.32-11.93,8.79-11.93a6.42,6.42,0,0,1,6.1,3.9h.08l.16-3.39Zm-3.67,8.87a6.35,6.35,0,0,0-.21-1.86c-.64-2.37-2.38-4.31-5-4.31-3.39,0-5.81,3.29-5.81,8.49,0,4.41,1.94,8.08,5.77,8.08,2.18,0,4.16-1.58,4.92-4.18a7.83,7.83,0,0,0,.29-2.18Z"/><path class="cls-3" d="M507.79,273.4c.08,5.52,3.14,7.8,6.7,7.8a11.37,11.37,0,0,0,5.4-1.16l.61,2.92a14.06,14.06,0,0,1-6.5,1.39c-6,0-9.61-4.55-9.61-11.32s3.48-12.12,9.17-12.12c6.37,0,8.07,6.45,8.07,10.59a17.91,17.91,0,0,1-.12,1.9Zm10.41-2.93c0-2.59-.93-6.63-4.93-6.63-3.59,0-5.16,3.8-5.44,6.63Z"/><path class="cls-3" d="M526,267.5c0-2.32,0-4.22-.17-6.08H529l.2,3.72h.08a7.1,7.1,0,0,1,6.46-4.23c2.71,0,6.9,1.86,6.9,9.56v13.42H539.1V270.94c0-3.62-1.17-6.64-4.52-6.64a5.21,5.21,0,0,0-4.76,4.18,6.7,6.7,0,0,0-.24,1.9v13.51H526Z"/><path class="cls-2" d="M546.12,289.6a74.43,74.43,0,0,0,2.42-11.1l4-.46a62.65,62.65,0,0,1-3.83,11.28Z"/><path class="cls-2" d="M566.79,261.42l3.84,12.63c.64,2,1.17,3.9,1.57,5.75h.12c.45-1.85,1-3.71,1.66-5.75l3.79-12.63h3.72l-7.67,22.47h-3.39L563,261.42Z"/><path class="cls-2" d="M588.79,255.11a2.27,2.27,0,0,1-2.26,2.51,2.3,2.3,0,0,1-2.14-2.51,2.34,2.34,0,0,1,2.22-2.55A2.29,2.29,0,0,1,588.79,255.11Zm-4,28.78V261.42h3.55v22.47Z"/><path class="cls-2" d="M593.79,279.71a8.48,8.48,0,0,0,4.68,1.63c2.59,0,3.8-1.49,3.8-3.35s-1-3-3.64-4.13c-3.51-1.44-5.16-3.66-5.16-6.36a6.39,6.39,0,0,1,6.74-6.59,8.79,8.79,0,0,1,4.8,1.39l-.89,3a6.86,6.86,0,0,0-4-1.3,3,3,0,0,0-3.27,3.06c0,1.86,1.17,2.69,3.71,3.81,3.39,1.48,5.13,3.43,5.13,6.77,0,3.95-2.67,6.73-7.31,6.73a10,10,0,0,1-5.49-1.53Z"/><path class="cls-2" d="M612.23,273.4c.08,5.52,3.15,7.8,6.7,7.8a11.39,11.39,0,0,0,5.41-1.16L625,283a14.06,14.06,0,0,1-6.5,1.39c-6,0-9.61-4.55-9.61-11.32s3.47-12.12,9.16-12.12c6.38,0,8.08,6.45,8.08,10.59a17.91,17.91,0,0,1-.12,1.9Zm10.42-2.93c0-2.59-.93-6.63-4.93-6.63-3.59,0-5.16,3.8-5.45,6.63Z"/><path class="cls-2" d="M630.47,268.43c0-2.64,0-4.92-.16-7h3.11l.12,4.41h.16c.89-3,3-4.92,5.41-4.92a3.47,3.47,0,0,1,1,.14v3.85a4.79,4.79,0,0,0-1.21-.14c-2.5,0-4.28,2.19-4.76,5.25a13.36,13.36,0,0,0-.16,1.9v12h-3.52Z"/><path class="cls-2" d="M669.19,250.93v27.16c0,2,0,4.27.16,5.8h-3.19L666,280h-.08a7.14,7.14,0,0,1-6.66,4.41c-4.72,0-8.36-4.6-8.36-11.42,0-7.47,4-12.07,8.76-12.07a6.35,6.35,0,0,1,5.89,3.44h.08V250.93Zm-3.56,19.64a8.35,8.35,0,0,0-.16-1.72c-.52-2.6-2.46-4.73-5.12-4.73-3.68,0-5.85,3.71-5.85,8.67,0,4.55,1.93,8.31,5.77,8.31,2.38,0,4.56-1.81,5.2-4.87a8.17,8.17,0,0,0,.16-1.76Z"/><path class="cls-2" d="M679,255.11a2.27,2.27,0,0,1-2.26,2.51,2.3,2.3,0,0,1-2.14-2.51,2.34,2.34,0,0,1,2.22-2.55A2.29,2.29,0,0,1,679,255.11Zm-3.95,28.78V261.42h3.55v22.47Z"/><path class="cls-2" d="M684.52,267.5c0-2.32,0-4.22-.16-6.08h3.15l.2,3.72h.08a7.1,7.1,0,0,1,6.46-4.23c2.7,0,6.9,1.86,6.9,9.56v13.42H697.6V270.94c0-3.62-1.17-6.64-4.52-6.64-2.35,0-4.16,1.9-4.77,4.18a6.7,6.7,0,0,0-.24,1.9v13.51h-3.55Z"/><path class="cls-2" d="M708.89,273.4c.09,5.52,3.15,7.8,6.7,7.8A11.39,11.39,0,0,0,721,280l.61,2.92a14.06,14.06,0,0,1-6.5,1.39c-6,0-9.61-4.55-9.61-11.32s3.48-12.12,9.17-12.12c6.37,0,8.07,6.45,8.07,10.59a17.91,17.91,0,0,1-.12,1.9Zm10.42-2.93c0-2.59-.93-6.63-4.93-6.63-3.59,0-5.16,3.8-5.45,6.63Z"/><path class="cls-2" d="M739.29,271.73h.08c.49-.79,1.17-1.77,1.74-2.56l5.73-7.75h4.28l-7.55,9.24,8.6,13.23h-4.32l-6.74-10.77-1.82,2.32v8.45h-3.51v-33h3.51Z"/><path class="cls-2" d="M767.86,262.54l1.7-2.79,1.57,1.25-1.69,2.88a12.66,12.66,0,0,1,2.94,8.59c0,8.26-5,11.93-9.52,11.93a8.28,8.28,0,0,1-5-1.58l-1.73,2.83-1.49-1.39,1.69-2.79a12.46,12.46,0,0,1-3-8.68c0-7.47,4.28-11.88,9.61-11.88A8.35,8.35,0,0,1,767.86,262.54Zm-1.61,2.78a4.87,4.87,0,0,0-3.43-1.34c-4.36,0-6.1,4.64-6.1,8.72a10.82,10.82,0,0,0,1.46,5.62l.08.05ZM759.47,280a4.49,4.49,0,0,0,3.27,1.3c3.71,0,6.17-3.67,6.17-8.73a11.21,11.21,0,0,0-1.37-5.48h-.08Z"/><path class="cls-2" d="M776.86,267.5c0-2.32,0-4.22-.16-6.08h3.15l.2,3.72h.08a7.1,7.1,0,0,1,6.46-4.23c2.7,0,6.9,1.86,6.9,9.56v13.42h-3.55V270.94c0-3.62-1.17-6.64-4.52-6.64a5.21,5.21,0,0,0-4.76,4.18,6.34,6.34,0,0,0-.25,1.9v13.51h-3.55Z"/><path class="cls-2" d="M798.77,279.71a8.49,8.49,0,0,0,4.69,1.63c2.58,0,3.79-1.49,3.79-3.35s-1-3-3.63-4.13c-3.51-1.44-5.17-3.66-5.17-6.36a6.39,6.39,0,0,1,6.74-6.59,8.79,8.79,0,0,1,4.8,1.39l-.88,3a6.9,6.9,0,0,0-4-1.3,3,3,0,0,0-3.27,3.06c0,1.86,1.17,2.69,3.71,3.81,3.4,1.48,5.13,3.43,5.13,6.77,0,3.95-2.66,6.73-7.3,6.73a10,10,0,0,1-5.49-1.53Z"/><path class="cls-2" d="M832.11,250.93v27.16c0,2,0,4.27.16,5.8h-3.19l-.16-3.9h-.08a7.14,7.14,0,0,1-6.66,4.41c-4.72,0-8.35-4.6-8.35-11.42,0-7.47,4-12.07,8.76-12.07a6.37,6.37,0,0,1,5.89,3.44h.08V250.93Zm-3.55,19.64a8.35,8.35,0,0,0-.16-1.72c-.53-2.6-2.47-4.73-5.13-4.73-3.67,0-5.85,3.71-5.85,8.67,0,4.55,1.94,8.31,5.77,8.31,2.38,0,4.56-1.81,5.21-4.87a8.17,8.17,0,0,0,.16-1.76Z"/><path class="cls-2" d="M840,273.4c.08,5.52,3.15,7.8,6.7,7.8a11.45,11.45,0,0,0,5.41-1.16l.6,2.92a14.06,14.06,0,0,1-6.5,1.39c-6,0-9.6-4.55-9.6-11.32s3.47-12.12,9.16-12.12c6.38,0,8.07,6.45,8.07,10.59a17.91,17.91,0,0,1-.12,1.9Zm10.41-2.93c0-2.59-.93-6.63-4.92-6.63-3.6,0-5.17,3.8-5.45,6.63Z"/><path class="cls-2" d="M858.22,250.93h3.55v33h-3.55Z"/><path class="cls-2" d="M869.72,273.4c.08,5.52,3.15,7.8,6.7,7.8a11.42,11.42,0,0,0,5.41-1.16l.6,2.92a14.06,14.06,0,0,1-6.5,1.39c-6,0-9.6-4.55-9.6-11.32s3.47-12.12,9.16-12.12c6.38,0,8.07,6.45,8.07,10.59a17.91,17.91,0,0,1-.12,1.9Zm10.41-2.93c0-2.59-.93-6.63-4.92-6.63-3.59,0-5.17,3.8-5.45,6.63Z"/><path class="cls-2" d="M74.64,339.59V320.24H71.89v-3.11h2.75v-1.07c0-3.16.6-6,2.26-7.84a6.29,6.29,0,0,1,4.76-2.09,7.26,7.26,0,0,1,3,.65l-.49,3.15a4.68,4.68,0,0,0-2.26-.51c-3,0-3.79,3.07-3.79,6.5v1.21h4.72v3.11H78.15v19.35Z"/><path class="cls-2" d="M86.06,324.14c0-2.65,0-4.92-.16-7H89l.12,4.41h.17c.88-3,3-4.92,5.4-4.92a3.12,3.12,0,0,1,1,.14v3.85a4.73,4.73,0,0,0-1.21-.14c-2.5,0-4.28,2.18-4.76,5.24a13.38,13.38,0,0,0-.16,1.91v12H86.06Z"/><path class="cls-2" d="M100.83,329.1c.08,5.53,3.15,7.8,6.7,7.8a11.45,11.45,0,0,0,5.41-1.16l.6,2.93a14.06,14.06,0,0,1-6.5,1.39c-6,0-9.6-4.55-9.6-11.33s3.47-12.11,9.16-12.11c6.38,0,8.07,6.45,8.07,10.58a17.53,17.53,0,0,1-.12,1.9Zm10.41-2.92c0-2.6-.93-6.64-4.92-6.64-3.6,0-5.17,3.81-5.45,6.64Z"/><path class="cls-2" d="M119.07,323.21c0-2.32,0-4.23-.16-6.08H122l.17,3.62h.12c1.09-2.14,2.9-4.13,6.13-4.13,2.66,0,4.68,1.85,5.53,4.5H134a9,9,0,0,1,2.18-2.92,6.07,6.07,0,0,1,4.32-1.58c2.58,0,6.42,1.95,6.42,9.75v13.22h-3.47V326.88c0-4.32-1.38-6.92-4.24-6.92-2,0-3.59,1.72-4.2,3.71a7.73,7.73,0,0,0-.28,2v13.88H131.3V326.13c0-3.57-1.38-6.17-4.08-6.17-2.22,0-3.83,2-4.4,4.08a6.49,6.49,0,0,0-.28,2v13.55h-3.47Z"/><path class="cls-2" d="M162.71,329.1c.08,5.53,3.15,7.8,6.7,7.8a11.39,11.39,0,0,0,5.41-1.16l.61,2.93a14.06,14.06,0,0,1-6.5,1.39c-6,0-9.61-4.55-9.61-11.33s3.47-12.11,9.16-12.11c6.38,0,8.08,6.45,8.08,10.58a17.53,17.53,0,0,1-.12,1.9Zm10.42-2.92c0-2.6-.93-6.64-4.93-6.64-3.59,0-5.16,3.81-5.45,6.64Z"/><path class="cls-2" d="M181,306.64h3.56v32.95H181Z"/><path class="cls-2" d="M190.48,306.64H194v32.95h-3.55Z"/><path class="cls-2" d="M202,329.1c.08,5.53,3.15,7.8,6.7,7.8a11.45,11.45,0,0,0,5.41-1.16l.6,2.93a14.06,14.06,0,0,1-6.5,1.39c-6,0-9.6-4.55-9.6-11.33s3.47-12.11,9.16-12.11c6.38,0,8.07,6.45,8.07,10.58a17.53,17.53,0,0,1-.12,1.9Zm10.41-2.92c0-2.6-.93-6.64-4.92-6.64-3.59,0-5.17,3.81-5.45,6.64Z"/><path class="cls-2" d="M220.22,324.14c0-2.65,0-4.92-.16-7h3.1l.13,4.41h.16c.89-3,3-4.92,5.41-4.92a3.1,3.1,0,0,1,1,.14v3.85a4.73,4.73,0,0,0-1.21-.14c-2.5,0-4.27,2.18-4.76,5.24a13.38,13.38,0,0,0-.16,1.91v12h-3.51Z"/><path class="cls-2" d="M241.43,306.64H245v14h.08a7.07,7.07,0,0,1,2.54-2.88,6.58,6.58,0,0,1,3.63-1.16c2.63,0,6.82,1.85,6.82,9.61v13.36H254.5v-12.9c0-3.62-1.17-6.68-4.52-6.68a5.24,5.24,0,0,0-4.76,4.08,5.69,5.69,0,0,0-.24,2v13.55h-3.55Z"/><path class="cls-2" d="M274.64,339.59l-.28-2.83h-.13a7,7,0,0,1-6,3.34c-3.95,0-6-3.2-6-6.45,0-5.43,4.2-8.4,11.74-8.35v-.47c0-1.85-.44-5.2-4.44-5.2a8.76,8.76,0,0,0-5.08,1.68l-.81-2.7a11,11,0,0,1,6.42-2c6,0,7.42,4.69,7.42,9.19v8.4a36.44,36.44,0,0,0,.33,5.38Zm-.53-11.46c-3.87-.09-8.27.7-8.27,5.06,0,2.64,1.53,3.9,3.35,3.9a5,5,0,0,0,4.72-3.76,4.88,4.88,0,0,0,.2-1.3Z"/><path class="cls-2" d="M283.27,324.14c0-2.65,0-4.92-.16-7h3.11l.12,4.41h.16c.89-3,3-4.92,5.41-4.92a3.16,3.16,0,0,1,1,.14v3.85a4.79,4.79,0,0,0-1.21-.14c-2.5,0-4.28,2.18-4.76,5.24a13.29,13.29,0,0,0-.17,1.91v12h-3.51Z"/><path class="cls-2" d="M304,335.42a8.45,8.45,0,0,0,4.68,1.62c2.58,0,3.79-1.48,3.79-3.34s-1-3-3.63-4.13c-3.51-1.44-5.17-3.67-5.17-6.36a6.4,6.4,0,0,1,6.74-6.59,8.82,8.82,0,0,1,4.81,1.39l-.89,3a6.9,6.9,0,0,0-4-1.3,3,3,0,0,0-3.27,3.06c0,1.86,1.17,2.7,3.72,3.81,3.39,1.49,5.12,3.44,5.12,6.78,0,3.94-2.66,6.73-7.3,6.73a10.07,10.07,0,0,1-5.49-1.53Z"/><path class="cls-2" d="M322.44,329.1c.08,5.53,3.15,7.8,6.7,7.8a11.45,11.45,0,0,0,5.41-1.16l.6,2.93a14.06,14.06,0,0,1-6.5,1.39c-6,0-9.6-4.55-9.6-11.33s3.47-12.11,9.16-12.11c6.38,0,8.07,6.45,8.07,10.58a17.53,17.53,0,0,1-.12,1.9Zm10.41-2.92c0-2.6-.93-6.64-4.92-6.64-3.59,0-5.17,3.81-5.45,6.64Z"/><path class="cls-2" d="M342.21,317.13,345,322c.72,1.25,1.33,2.41,2,3.66h.12c.64-1.34,1.29-2.5,1.93-3.71l2.75-4.78h3.83L349,328l6.86,11.6h-4l-2.87-5.06c-.76-1.3-1.41-2.55-2.1-3.9h-.08c-.64,1.35-1.33,2.56-2.05,3.9l-2.83,5.06h-3.91l6.94-11.46-6.62-11Z"/><path class="cls-2" d="M375.49,325.53v3h-10v-3Z"/><path class="cls-2" d="M405.33,328.17c0,8.31-5,11.93-9.73,11.93-5.28,0-9.36-4.45-9.36-11.55,0-7.52,4.28-11.93,9.69-11.93C401.54,316.62,405.33,321.31,405.33,328.17Zm-15.5.24c0,4.92,2.46,8.63,5.94,8.63s5.93-3.67,5.93-8.73c0-3.8-1.66-8.63-5.85-8.63S389.83,324.14,389.83,328.41Z"/><path class="cls-2" d="M426.64,317.13c-.08,1.62-.16,3.43-.16,6.17v13c0,5.16-.89,8.31-2.79,10.26a9.46,9.46,0,0,1-7.1,2.69,11.33,11.33,0,0,1-6.5-1.85l.89-3.11a9.94,9.94,0,0,0,5.73,1.76c3.63,0,6.3-2.18,6.3-7.84v-2.51h-.08a6.81,6.81,0,0,1-6.22,3.76c-4.84,0-8.31-4.73-8.31-10.95,0-7.62,4.31-11.93,8.79-11.93a6.42,6.42,0,0,1,6.1,3.9h.08l.16-3.39ZM423,326a6.28,6.28,0,0,0-.21-1.85c-.64-2.37-2.38-4.32-5-4.32-3.39,0-5.81,3.3-5.81,8.49,0,4.41,1.94,8.08,5.77,8.08,2.18,0,4.16-1.58,4.92-4.18A7.73,7.73,0,0,0,423,330Z"/><path class="cls-2" d="M457.25,306.64v27.15c0,2,0,4.27.16,5.8h-3.19l-.16-3.9H454a7.14,7.14,0,0,1-6.66,4.41c-4.72,0-8.36-4.59-8.36-11.41,0-7.48,4-12.07,8.76-12.07a6.37,6.37,0,0,1,5.9,3.43h.08V306.64Zm-3.55,19.63a8.41,8.41,0,0,0-.16-1.72c-.53-2.59-2.47-4.73-5.13-4.73-3.67,0-5.85,3.71-5.85,8.68,0,4.55,1.93,8.31,5.77,8.31,2.38,0,4.56-1.81,5.21-4.88a8.11,8.11,0,0,0,.16-1.76Z"/><path class="cls-2" d="M479.48,333.47c0,2.32,0,4.36.17,6.12H476.5l-.2-3.66h-.09a7.24,7.24,0,0,1-6.45,4.17c-3.07,0-6.74-1.94-6.74-9.84V317.13h3.55v12.44c0,4.27,1.13,7.15,4.36,7.15a5.24,5.24,0,0,0,4.68-3.72,6.79,6.79,0,0,0,.32-2.09V317.13h3.55Z"/><path class="cls-2" d="M493.38,323.21c0-2.32,0-4.23-.16-6.08h3.11l.16,3.62h.12c1.09-2.14,2.91-4.13,6.14-4.13,2.66,0,4.68,1.85,5.53,4.5h.08a8.85,8.85,0,0,1,2.18-2.92,6.07,6.07,0,0,1,4.32-1.58c2.58,0,6.41,1.95,6.41,9.75v13.22H517.8V326.88c0-4.32-1.37-6.92-4.24-6.92-2,0-3.59,1.72-4.19,3.71a7.71,7.71,0,0,0-.29,2v13.88h-3.47V326.13c0-3.57-1.37-6.17-4.07-6.17-2.22,0-3.84,2-4.4,4.08a6.49,6.49,0,0,0-.29,2v13.55h-3.47Z"/><path class="cls-2" d="M537.86,339.59l-.29-2.83h-.12a7,7,0,0,1-6,3.34c-4,0-6-3.2-6-6.45,0-5.43,4.19-8.4,11.74-8.35v-.47c0-1.85-.44-5.2-4.44-5.2a8.76,8.76,0,0,0-5.08,1.68l-.81-2.7a11,11,0,0,1,6.42-2c6,0,7.42,4.69,7.42,9.19v8.4a35.13,35.13,0,0,0,.33,5.38Zm-.53-11.46c-3.87-.09-8.27.7-8.27,5.06,0,2.64,1.53,3.9,3.35,3.9a5,5,0,0,0,4.72-3.76,4.88,4.88,0,0,0,.2-1.3Zm-7.63-17.69a4.1,4.1,0,0,1,4.12-4.41c2.42,0,4,1.91,4,4.37a4.06,4.06,0,1,1-8.12,0Zm6.14-.09a2.28,2.28,0,0,0-2.1-2.55c-1.25,0-2,1.2-2,2.64,0,1.21.81,2.51,2,2.51S535.84,311.74,535.84,310.35Z"/><path class="cls-2" d="M554.5,306.64h3.55v14h.08a7.17,7.17,0,0,1,2.55-2.88,6.58,6.58,0,0,1,3.63-1.16c2.62,0,6.82,1.85,6.82,9.61v13.36h-3.55v-12.9c0-3.62-1.17-6.68-4.52-6.68a5.24,5.24,0,0,0-4.76,4.08,5.44,5.44,0,0,0-.25,2v13.55H554.5Z"/><path class="cls-2" d="M578.88,329.1c.08,5.53,3.15,7.8,6.7,7.8a11.37,11.37,0,0,0,5.4-1.16l.61,2.93a14.06,14.06,0,0,1-6.5,1.39c-6,0-9.6-4.55-9.6-11.33s3.47-12.11,9.16-12.11c6.38,0,8.07,6.45,8.07,10.58a17.53,17.53,0,0,1-.12,1.9Zm10.41-2.92c0-2.6-.93-6.64-4.92-6.64-3.6,0-5.17,3.81-5.45,6.64Z"/><path class="cls-2" d="M597.12,306.64h3.55v32.95h-3.55Z"/><path class="cls-2" d="M606.64,306.64h3.55v32.95h-3.55Z"/><path class="cls-2" d="M618.14,329.1c.08,5.53,3.15,7.8,6.7,7.8a11.42,11.42,0,0,0,5.41-1.16l.6,2.93a14,14,0,0,1-6.49,1.39c-6,0-9.61-4.55-9.61-11.33s3.47-12.11,9.16-12.11c6.38,0,8.08,6.45,8.08,10.58a17,17,0,0,1-.13,1.9Zm10.41-2.92c0-2.6-.92-6.64-4.92-6.64-3.59,0-5.17,3.81-5.45,6.64Z"/><path class="cls-2" d="M636.38,324.14c0-2.65,0-4.92-.16-7h3.11l.12,4.41h.16c.89-3,3-4.92,5.41-4.92a3.16,3.16,0,0,1,1,.14v3.85a4.85,4.85,0,0,0-1.21-.14c-2.51,0-4.28,2.18-4.77,5.24a13.38,13.38,0,0,0-.16,1.91v12h-3.51Z"/><path class="cls-2" d="M661.54,310.82a2.26,2.26,0,0,1-2.26,2.5,2.29,2.29,0,0,1-2.14-2.5,2.35,2.35,0,0,1,2.22-2.56A2.29,2.29,0,0,1,661.54,310.82Zm-3.95,28.77V317.13h3.55v22.46Z"/><path class="cls-2" d="M670.54,327.43h.08c.49-.79,1.17-1.76,1.74-2.55l5.73-7.75h4.28l-7.55,9.24,8.6,13.22H679.1l-6.74-10.76-1.82,2.32v8.44H667V306.64h3.51Z"/><path class="cls-2" d="M690.16,327.43h.08c.48-.79,1.17-1.76,1.73-2.55l5.73-7.75H702l-7.55,9.24,8.6,13.22h-4.32L692,328.83l-1.81,2.32v8.44h-3.51V306.64h3.51Z"/><path class="cls-2" d="M707.55,329.1c.08,5.53,3.15,7.8,6.7,7.8a11.42,11.42,0,0,0,5.41-1.16l.6,2.93a14,14,0,0,1-6.49,1.39c-6,0-9.61-4.55-9.61-11.33s3.47-12.11,9.16-12.11c6.38,0,8.07,6.45,8.07,10.58a17.53,17.53,0,0,1-.12,1.9ZM718,326.18c0-2.6-.93-6.64-4.92-6.64-3.59,0-5.17,3.81-5.45,6.64Z"/><path class="cls-3" d="M733.8,323.21c0-2.32,0-4.23-.16-6.08h3.11l.16,3.62H737c1.09-2.14,2.91-4.13,6.13-4.13,2.67,0,4.69,1.85,5.53,4.5h.08A9.13,9.13,0,0,1,751,318.2a6.09,6.09,0,0,1,4.32-1.58c2.59,0,6.42,1.95,6.42,9.75v13.22h-3.47V326.88c0-4.32-1.37-6.92-4.24-6.92-2,0-3.59,1.72-4.2,3.71a7.73,7.73,0,0,0-.28,2v13.88H746V326.13c0-3.57-1.37-6.17-4.08-6.17-2.22,0-3.83,2-4.4,4.08a6.49,6.49,0,0,0-.28,2v13.55H733.8Z"/><path class="cls-3" d="M785.13,328.17c0,8.31-5,11.93-9.72,11.93-5.29,0-9.37-4.45-9.37-11.55,0-7.52,4.28-11.93,9.69-11.93C781.34,316.62,785.13,321.31,785.13,328.17Zm-15.49.24c0,4.92,2.46,8.63,5.93,8.63s5.93-3.67,5.93-8.73c0-3.8-1.65-8.63-5.85-8.63S769.64,324.14,769.64,328.41Z"/><path class="cls-3" d="M806.48,306.64v27.15c0,2,0,4.27.16,5.8h-3.18l-.17-3.9h-.08a7.14,7.14,0,0,1-6.66,4.41c-4.72,0-8.35-4.59-8.35-11.41,0-7.48,4-12.07,8.76-12.07a6.36,6.36,0,0,1,5.89,3.43h.08V306.64Zm-3.55,19.63a8.41,8.41,0,0,0-.16-1.72c-.52-2.59-2.46-4.73-5.13-4.73-3.67,0-5.85,3.71-5.85,8.68,0,4.55,1.94,8.31,5.77,8.31,2.38,0,4.56-1.81,5.21-4.88a8.11,8.11,0,0,0,.16-1.76Z"/><path class="cls-3" d="M816.65,310.68v6.45h5.09v3.11h-5.09v12.11c0,2.79.69,4.37,2.66,4.37a6.88,6.88,0,0,0,2.06-.28l.16,3.06a7.53,7.53,0,0,1-3.14.56,4.63,4.63,0,0,1-3.84-1.72c-1-1.21-1.37-3.2-1.37-5.85V320.24h-3v-3.11h3v-5.39Z"/><path class="cls-3" d="M836.55,339.59l-.29-2.83h-.12a7,7,0,0,1-6,3.34c-4,0-6-3.2-6-6.45,0-5.43,4.19-8.4,11.74-8.35v-.47c0-1.85-.44-5.2-4.44-5.2a8.76,8.76,0,0,0-5.08,1.68l-.81-2.7a11,11,0,0,1,6.42-2c6,0,7.42,4.69,7.42,9.19v8.4a35.13,35.13,0,0,0,.33,5.38ZM836,328.13c-3.87-.09-8.27.7-8.27,5.06,0,2.64,1.53,3.9,3.35,3.9a5,5,0,0,0,4.72-3.76,4.88,4.88,0,0,0,.2-1.3Z"/><path class="cls-3" d="M862,317.13c-.08,1.62-.16,3.43-.16,6.17v13c0,5.16-.89,8.31-2.78,10.26a9.5,9.5,0,0,1-7.11,2.69,11.33,11.33,0,0,1-6.5-1.85l.89-3.11a9.94,9.94,0,0,0,5.73,1.76c3.64,0,6.3-2.18,6.3-7.84v-2.51h-.08a6.81,6.81,0,0,1-6.22,3.76c-4.84,0-8.31-4.73-8.31-10.95,0-7.62,4.32-11.93,8.8-11.93a6.42,6.42,0,0,1,6.09,3.9h.08l.16-3.39ZM858.34,326a6.65,6.65,0,0,0-.2-1.85c-.65-2.37-2.38-4.32-5-4.32-3.39,0-5.81,3.3-5.81,8.49,0,4.41,1.94,8.08,5.77,8.08,2.18,0,4.16-1.58,4.93-4.18a8.1,8.1,0,0,0,.28-2.18Z"/><path class="cls-3" d="M869.72,329.1c.08,5.53,3.15,7.8,6.7,7.8a11.45,11.45,0,0,0,5.41-1.16l.6,2.93a14.06,14.06,0,0,1-6.5,1.39c-6,0-9.6-4.55-9.6-11.33s3.47-12.11,9.16-12.11c6.38,0,8.07,6.45,8.07,10.58a17.53,17.53,0,0,1-.12,1.9Zm10.41-2.92c0-2.6-.93-6.64-4.92-6.64-3.6,0-5.17,3.81-5.45,6.64Z"/><path class="cls-2" d="M91.14,362.34V389.5c0,2,0,4.27.17,5.8H88.12L88,391.4h-.09a7.14,7.14,0,0,1-6.65,4.41c-4.73,0-8.36-4.6-8.36-11.42,0-7.47,4-12.07,8.76-12.07a6.36,6.36,0,0,1,5.89,3.44h.08V362.34ZM87.59,382a8.35,8.35,0,0,0-.16-1.72c-.52-2.6-2.46-4.73-5.13-4.73-3.67,0-5.85,3.71-5.85,8.68,0,4.54,1.94,8.3,5.77,8.3,2.39,0,4.56-1.81,5.21-4.87a8.17,8.17,0,0,0,.16-1.76Z"/><path class="cls-2" d="M99,384.81c.08,5.52,3.15,7.8,6.7,7.8a11.42,11.42,0,0,0,5.41-1.16l.6,2.92a14,14,0,0,1-6.49,1.39c-6,0-9.61-4.55-9.61-11.32s3.47-12.12,9.16-12.12c6.38,0,8.07,6.46,8.07,10.59a17.91,17.91,0,0,1-.12,1.9Zm10.41-2.93c0-2.59-.92-6.63-4.92-6.63-3.59,0-5.17,3.8-5.45,6.63Z"/><path class="cls-2" d="M117.25,378.91c0-2.32,0-4.22-.16-6.08h3.15l.2,3.72h.08a7.1,7.1,0,0,1,6.46-4.23c2.7,0,6.9,1.86,6.9,9.56V395.3h-3.55V382.35c0-3.62-1.17-6.64-4.52-6.64-2.34,0-4.16,1.91-4.76,4.18a6.39,6.39,0,0,0-.25,1.9V395.3h-3.55Z"/><path class="cls-2" d="M147.72,391.12a8.48,8.48,0,0,0,4.68,1.63c2.58,0,3.79-1.49,3.79-3.34s-1-3-3.63-4.14c-3.51-1.44-5.16-3.66-5.16-6.36a6.39,6.39,0,0,1,6.74-6.59,8.73,8.73,0,0,1,4.8,1.4l-.89,3a6.89,6.89,0,0,0-4-1.3,3,3,0,0,0-3.27,3.06c0,1.86,1.17,2.69,3.71,3.81,3.39,1.48,5.13,3.43,5.13,6.77,0,4-2.67,6.73-7.31,6.73a10,10,0,0,1-5.49-1.53Z"/><path class="cls-2" d="M164.18,362.34h3.56v33h-3.56Z"/><path class="cls-2" d="M184.52,395.3l-.28-2.83h-.12a7,7,0,0,1-6,3.34c-4,0-6-3.2-6-6.45,0-5.43,4.2-8.4,11.75-8.36v-.46c0-1.86-.44-5.2-4.44-5.2a8.85,8.85,0,0,0-5.09,1.67l-.8-2.69a10.91,10.91,0,0,1,6.41-2c6,0,7.43,4.69,7.43,9.19v8.41a36.54,36.54,0,0,0,.32,5.38ZM184,383.83c-3.87-.09-8.27.7-8.27,5.06,0,2.65,1.53,3.9,3.35,3.9A5,5,0,0,0,183.8,389a4.82,4.82,0,0,0,.2-1.3Z"/><path class="cls-2" d="M210,372.83c-.08,1.63-.16,3.44-.16,6.18v13c0,5.15-.89,8.31-2.79,10.26a9.5,9.5,0,0,1-7.1,2.69,11.34,11.34,0,0,1-6.5-1.86l.89-3.11a9.94,9.94,0,0,0,5.73,1.77c3.63,0,6.3-2.18,6.3-7.85v-2.5h-.08a6.81,6.81,0,0,1-6.22,3.76c-4.84,0-8.31-4.74-8.31-11,0-7.61,4.32-11.93,8.79-11.93a6.44,6.44,0,0,1,6.1,3.9h.08l.16-3.39Zm-3.67,8.87a6.35,6.35,0,0,0-.21-1.86c-.64-2.36-2.38-4.31-5-4.31-3.39,0-5.81,3.29-5.81,8.49,0,4.41,1.94,8.08,5.77,8.08,2.18,0,4.16-1.58,4.92-4.18a7.83,7.83,0,0,0,.29-2.18Z"/><path class="cls-2" d="M215.23,391.12a8.49,8.49,0,0,0,4.69,1.63c2.58,0,3.79-1.49,3.79-3.34s-1-3-3.63-4.14c-3.51-1.44-5.17-3.66-5.17-6.36a6.39,6.39,0,0,1,6.74-6.59,8.7,8.7,0,0,1,4.8,1.4l-.88,3a6.9,6.9,0,0,0-4-1.3,3,3,0,0,0-3.27,3.06c0,1.86,1.17,2.69,3.71,3.81,3.39,1.48,5.13,3.43,5.13,6.77,0,4-2.66,6.73-7.31,6.73a10,10,0,0,1-5.48-1.53Z"/><path class="cls-2" d="M240.09,395.3c.08-1.53.16-3.81.16-5.8V362.34h3.51v14.11h.09a7.13,7.13,0,0,1,6.65-4.13c4.85,0,8.28,4.64,8.24,11.47,0,8-4.4,12-8.76,12a6.82,6.82,0,0,1-6.54-4.22h-.12l-.16,3.71Zm3.67-9a8.7,8.7,0,0,0,.17,1.49c.68,2.83,2.74,4.78,5.32,4.78,3.72,0,5.94-3.48,5.94-8.63,0-4.51-2-8.36-5.82-8.36-2.42,0-4.68,1.91-5.4,5a9.12,9.12,0,0,0-.21,1.67Z"/><path class="cls-2" d="M267.17,366.52a2.27,2.27,0,0,1-2.26,2.51,2.3,2.3,0,0,1-2.14-2.51A2.34,2.34,0,0,1,265,364,2.29,2.29,0,0,1,267.17,366.52Zm-3.95,28.78V372.83h3.55V395.3Z"/><path class="cls-2" d="M272.66,362.34h3.55v33h-3.55Z"/><path class="cls-2" d="M282.18,362.34h3.55v33h-3.55Z"/><path class="cls-2" d="M293.68,384.81c.08,5.52,3.15,7.8,6.7,7.8a11.42,11.42,0,0,0,5.41-1.16l.61,2.92a14.1,14.1,0,0,1-6.5,1.39c-6,0-9.61-4.55-9.61-11.32s3.47-12.12,9.16-12.12c6.38,0,8.08,6.46,8.08,10.59a15.14,15.14,0,0,1-.13,1.9Zm10.42-2.93c0-2.59-.93-6.63-4.93-6.63-3.59,0-5.16,3.8-5.45,6.63Z"/><path class="cls-2" d="M328.79,362.34V389.5c0,2,0,4.27.16,5.8h-3.18l-.17-3.9h-.08a7.14,7.14,0,0,1-6.66,4.41c-4.72,0-8.35-4.6-8.35-11.42,0-7.47,4-12.07,8.76-12.07a6.37,6.37,0,0,1,5.89,3.44h.08V362.34ZM325.24,382a8.35,8.35,0,0,0-.16-1.72c-.52-2.6-2.46-4.73-5.13-4.73-3.67,0-5.85,3.71-5.85,8.68,0,4.54,1.94,8.3,5.77,8.3,2.38,0,4.56-1.81,5.21-4.87a8.17,8.17,0,0,0,.16-1.76Z"/><path class="cls-2" d="M336.66,384.81c.08,5.52,3.15,7.8,6.7,7.8a11.42,11.42,0,0,0,5.41-1.16l.6,2.92a14,14,0,0,1-6.49,1.39c-6,0-9.61-4.55-9.61-11.32s3.47-12.12,9.16-12.12c6.38,0,8.07,6.46,8.07,10.59a17.91,17.91,0,0,1-.12,1.9Zm10.41-2.93c0-2.59-.92-6.63-4.92-6.63-3.59,0-5.17,3.8-5.45,6.63Z"/><path class="cls-2" d="M354.9,379.84c0-2.64,0-4.92-.16-7h3.11l.12,4.41h.16c.89-3,3-4.92,5.41-4.92a3.52,3.52,0,0,1,1,.14v3.86a4.42,4.42,0,0,0-1.21-.14c-2.51,0-4.28,2.18-4.77,5.24a13.36,13.36,0,0,0-.16,1.9v12H354.9Z"/><path class="cls-2" d="M387.47,395.3l-.28-2.83h-.12a7,7,0,0,1-6,3.34c-3.95,0-6-3.2-6-6.45,0-5.43,4.2-8.4,11.74-8.36v-.46c0-1.86-.44-5.2-4.44-5.2a8.82,8.82,0,0,0-5.08,1.67l-.81-2.69a11,11,0,0,1,6.42-2c6,0,7.42,4.69,7.42,9.19v8.41a36.44,36.44,0,0,0,.33,5.38Zm-.53-11.47c-3.87-.09-8.27.7-8.27,5.06,0,2.65,1.53,3.9,3.35,3.9a5,5,0,0,0,4.72-3.76,4.82,4.82,0,0,0,.2-1.3Z"/><path class="cls-2" d="M396.47,395.3V375.94h-2.75v-3.11h2.75v-1.06c0-3.16.6-6,2.26-7.85a6.32,6.32,0,0,1,4.76-2.09,7.42,7.42,0,0,1,3,.65l-.49,3.16a4.68,4.68,0,0,0-2.26-.51c-3,0-3.79,3.06-3.79,6.5v1.2h4.72v3.11H400V395.3Z"/><path class="cls-2" d="M416.44,378.91c0-2.32,0-4.22-.16-6.08h3.15l.2,3.72h.08a7.1,7.1,0,0,1,6.46-4.23c2.7,0,6.9,1.86,6.9,9.56V395.3h-3.55V382.35c0-3.62-1.17-6.64-4.52-6.64-2.34,0-4.16,1.91-4.76,4.18a6.39,6.39,0,0,0-.25,1.9V395.3h-3.55Z"/><path class="cls-2" d="M456.52,383.88c0,8.31-5,11.93-9.73,11.93-5.29,0-9.36-4.46-9.36-11.56,0-7.52,4.28-11.93,9.68-11.93C452.72,372.32,456.52,377,456.52,383.88Zm-15.5.23c0,4.92,2.46,8.64,5.93,8.64s5.93-3.67,5.93-8.73c0-3.81-1.65-8.63-5.85-8.63S441,379.84,441,384.11Z"/><path class="cls-2" d="M477.83,372.83c-.09,1.63-.17,3.44-.17,6.18v13c0,5.15-.88,8.31-2.78,10.26a9.52,9.52,0,0,1-7.1,2.69,11.29,11.29,0,0,1-6.5-1.86l.89-3.11a9.92,9.92,0,0,0,5.73,1.77c3.63,0,6.29-2.18,6.29-7.85v-2.5h-.08a6.81,6.81,0,0,1-6.21,3.76c-4.85,0-8.32-4.74-8.32-11,0-7.61,4.32-11.93,8.8-11.93a6.45,6.45,0,0,1,6.1,3.9h.08l.16-3.39Zm-3.68,8.87a6.72,6.72,0,0,0-.2-1.86c-.65-2.36-2.38-4.31-5-4.31-3.39,0-5.82,3.29-5.82,8.49,0,4.41,1.94,8.08,5.78,8.08,2.18,0,4.15-1.58,4.92-4.18a8.21,8.21,0,0,0,.28-2.18Z"/><path class="cls-2" d="M485.53,384.81c.08,5.52,3.15,7.8,6.7,7.8a11.42,11.42,0,0,0,5.41-1.16l.6,2.92a14,14,0,0,1-6.49,1.39c-6,0-9.61-4.55-9.61-11.32s3.47-12.12,9.16-12.12c6.38,0,8.08,6.46,8.08,10.59a17.36,17.36,0,0,1-.13,1.9Zm10.41-2.93c0-2.59-.92-6.63-4.92-6.63-3.59,0-5.17,3.8-5.45,6.63Z"/><path class="cls-2" d="M503.77,378.91c0-2.32,0-4.22-.16-6.08h3.15l.2,3.72H507a7.1,7.1,0,0,1,6.46-4.23c2.7,0,6.9,1.86,6.9,9.56V395.3h-3.55V382.35c0-3.62-1.17-6.64-4.52-6.64-2.34,0-4.16,1.91-4.76,4.18a6.39,6.39,0,0,0-.25,1.9V395.3h-3.55Z"/><path class="cls-2" d="M523.87,401a74.57,74.57,0,0,0,2.42-11.09l4-.47a61.8,61.8,0,0,1-3.84,11.28Z"/><path class="cls-2" d="M560,362.34V389.5c0,2,0,4.27.16,5.8h-3.19l-.16-3.9h-.08a7.14,7.14,0,0,1-6.66,4.41c-4.72,0-8.36-4.6-8.36-11.42,0-7.47,4-12.07,8.76-12.07a6.37,6.37,0,0,1,5.9,3.44h.08V362.34ZM556.4,382a7.72,7.72,0,0,0-.17-1.72c-.52-2.6-2.46-4.73-5.12-4.73-3.67,0-5.85,3.71-5.85,8.68,0,4.54,1.93,8.3,5.77,8.3,2.38,0,4.56-1.81,5.2-4.87a7.57,7.57,0,0,0,.17-1.76Z"/><path class="cls-2" d="M567.82,384.81c.08,5.52,3.14,7.8,6.69,7.8a11.39,11.39,0,0,0,5.41-1.16l.61,2.92a14.06,14.06,0,0,1-6.5,1.39c-6,0-9.61-4.55-9.61-11.32s3.48-12.12,9.17-12.12c6.37,0,8.07,6.46,8.07,10.59a17.91,17.91,0,0,1-.12,1.9Zm10.41-2.93c0-2.59-.93-6.63-4.93-6.63-3.59,0-5.16,3.8-5.44,6.63Z"/><path class="cls-2" d="M586.06,379.84c0-2.64,0-4.92-.17-7H589l.12,4.41h.16c.89-3,3-4.92,5.41-4.92a3.42,3.42,0,0,1,1,.14v3.86a4.37,4.37,0,0,0-1.21-.14c-2.5,0-4.28,2.18-4.76,5.24a13.36,13.36,0,0,0-.16,1.9v12h-3.51Z"/><path class="cls-2" d="M609.78,384.81c.09,5.52,3.15,7.8,6.7,7.8a11.39,11.39,0,0,0,5.41-1.16l.61,2.92a14.06,14.06,0,0,1-6.5,1.39c-6,0-9.61-4.55-9.61-11.32s3.48-12.12,9.17-12.12c6.37,0,8.07,6.46,8.07,10.59a17.91,17.91,0,0,1-.12,1.9Zm10.42-2.93c0-2.59-.93-6.63-4.93-6.63-3.59,0-5.16,3.8-5.45,6.63Z"/><path class="cls-2" d="M628,379.84c0-2.64,0-4.92-.16-7H631l.12,4.41h.16c.89-3,3-4.92,5.41-4.92a3.47,3.47,0,0,1,1,.14v3.86a4.37,4.37,0,0,0-1.21-.14c-2.5,0-4.28,2.18-4.76,5.24a13.36,13.36,0,0,0-.16,1.9v12H628Z"/><path class="cls-2" d="M666.12,389.17c0,2.32,0,4.37.16,6.13h-3.15l-.2-3.67h-.08a7.26,7.26,0,0,1-6.46,4.18c-3.06,0-6.74-1.95-6.74-9.84V372.83h3.56v12.44c0,4.27,1.13,7.15,4.35,7.15a5.23,5.23,0,0,0,4.69-3.71,6.84,6.84,0,0,0,.32-2.09V372.83h3.55Z"/><path class="cls-2" d="M672,378.91c0-2.32,0-4.22-.16-6.08H675l.2,3.72h.08a7.1,7.1,0,0,1,6.46-4.23c2.7,0,6.9,1.86,6.9,9.56V395.3h-3.55V382.35c0-3.62-1.17-6.64-4.52-6.64-2.34,0-4.16,1.91-4.77,4.18a6.75,6.75,0,0,0-.24,1.9V395.3H672Z"/><path class="cls-2" d="M711.28,362.34V389.5c0,2,0,4.27.16,5.8h-3.19l-.16-3.9H708a7.14,7.14,0,0,1-6.66,4.41c-4.72,0-8.35-4.6-8.35-11.42,0-7.47,4-12.07,8.75-12.07a6.37,6.37,0,0,1,5.9,3.44h.08V362.34ZM707.73,382a8.35,8.35,0,0,0-.16-1.72c-.53-2.6-2.47-4.73-5.13-4.73-3.67,0-5.85,3.71-5.85,8.68,0,4.54,1.93,8.3,5.77,8.3,2.38,0,4.56-1.81,5.21-4.87a8.17,8.17,0,0,0,.16-1.76Z"/><path class="cls-2" d="M719.15,384.81c.08,5.52,3.14,7.8,6.7,7.8a11.37,11.37,0,0,0,5.4-1.16l.61,2.92a14.06,14.06,0,0,1-6.5,1.39c-6,0-9.6-4.55-9.6-11.32s3.47-12.12,9.16-12.12c6.37,0,8.07,6.46,8.07,10.59a17.91,17.91,0,0,1-.12,1.9Zm10.41-2.93c0-2.59-.93-6.63-4.92-6.63-3.6,0-5.17,3.8-5.45,6.63Z"/><path class="cls-2" d="M737.39,379.84c0-2.64,0-4.92-.16-7h3.1l.12,4.41h.17c.88-3,3-4.92,5.4-4.92a3.42,3.42,0,0,1,1,.14v3.86a4.33,4.33,0,0,0-1.21-.14c-2.5,0-4.28,2.18-4.76,5.24a13.36,13.36,0,0,0-.16,1.9v12h-3.51Z"/><path class="cls-2" d="M765.72,368.93h-.08l-4.56,2.84-.69-3.11,5.73-3.53h3V395.3h-3.43Z"/><path class="cls-2" d="M794.37,368.56h-10l-1,7.76a11.56,11.56,0,0,1,2.14-.19,10,10,0,0,1,5.65,1.62,8.92,8.92,0,0,1,3.75,7.76c0,5.89-4.07,10.3-9.76,10.3a11.54,11.54,0,0,1-6.54-1.86l.89-3.11a10.54,10.54,0,0,0,5.61,1.67A6.17,6.17,0,0,0,791.3,386c0-3.9-2.3-6.68-7.55-6.68a23.69,23.69,0,0,0-3.63.32l1.7-14.48h12.55Z"/><path class="cls-2" d="M819.91,395.3l-.28-2.83h-.12a7,7,0,0,1-6,3.34c-4,0-6-3.2-6-6.45,0-5.43,4.2-8.4,11.75-8.36v-.46c0-1.86-.45-5.2-4.44-5.2a8.85,8.85,0,0,0-5.09,1.67l-.8-2.69a10.91,10.91,0,0,1,6.41-2c6,0,7.43,4.69,7.43,9.19v8.41a36.54,36.54,0,0,0,.32,5.38Zm-.52-11.47c-3.88-.09-8.28.7-8.28,5.06,0,2.65,1.54,3.9,3.35,3.9a5,5,0,0,0,4.73-3.76,4.82,4.82,0,0,0,.2-1.3Zm-7.63-17.68a4.09,4.09,0,0,1,4.12-4.41c2.42,0,4,1.9,4,4.36a4.06,4.06,0,1,1-8.11,0Zm6.13-.09c0-1.4-.8-2.56-2.09-2.56s-2,1.21-2,2.65c0,1.21.81,2.51,2,2.51S817.89,367.45,817.89,366.06Z"/><path class="cls-2" d="M828.55,379.84c0-2.64,0-4.92-.16-7h3.1l.13,4.41h.16c.88-3,3-4.92,5.4-4.92a3.42,3.42,0,0,1,1,.14v3.86a4.33,4.33,0,0,0-1.21-.14c-2.5,0-4.27,2.18-4.76,5.24a13.36,13.36,0,0,0-.16,1.9v12h-3.51Z"/><path class="cls-2" d="M838.76,392.89c0-1.72,1-2.93,2.42-2.93s2.38,1.21,2.38,2.93-.93,2.92-2.42,2.92S838.76,394.56,838.76,392.89Z"/><path class="cls-2" d="M77.91,475.42v13.09H91.06V475.42h3.55v31.29H91.06V492H77.91v14.67H74.39V475.42Z"/><path class="cls-2" d="M102.32,484.24l3.83,12.63c.65,2,1.17,3.9,1.58,5.76h.12c.44-1.86,1-3.72,1.65-5.76l3.8-12.63H117l-7.67,22.47H106l-7.42-22.47Z"/><path class="cls-2" d="M124.31,477.93a2.26,2.26,0,0,1-2.26,2.51,2.3,2.3,0,0,1-2.14-2.51,2.34,2.34,0,0,1,2.22-2.55A2.28,2.28,0,0,1,124.31,477.93Zm-4,28.78V484.24h3.55v22.47Z"/><path class="cls-2" d="M129.32,502.53a8.45,8.45,0,0,0,4.68,1.63c2.58,0,3.79-1.49,3.79-3.34s-1-3-3.63-4.14c-3.51-1.43-5.17-3.66-5.17-6.36a6.4,6.4,0,0,1,6.74-6.59,8.74,8.74,0,0,1,4.81,1.4l-.89,3a6.9,6.9,0,0,0-4-1.3,3,3,0,0,0-3.27,3.06c0,1.86,1.17,2.69,3.72,3.81,3.39,1.48,5.12,3.43,5.12,6.77,0,3.95-2.66,6.73-7.3,6.73a10,10,0,0,1-5.49-1.53Z"/><path class="cls-2" d="M175,473.75v27.16c0,2,0,4.27.16,5.8h-3.18l-.17-3.9h-.08a7.14,7.14,0,0,1-6.66,4.41c-4.72,0-8.35-4.59-8.35-11.42,0-7.47,4-12.07,8.76-12.07a6.37,6.37,0,0,1,5.89,3.44h.08V473.75Zm-3.55,19.64a8.35,8.35,0,0,0-.16-1.72c-.53-2.6-2.46-4.73-5.13-4.73-3.67,0-5.85,3.71-5.85,8.68,0,4.55,1.94,8.3,5.77,8.3,2.38,0,4.56-1.81,5.21-4.87a8.17,8.17,0,0,0,.16-1.76Z"/><path class="cls-2" d="M197.19,500.58c0,2.32,0,4.37.16,6.13H194.2L194,503h-.08a7.28,7.28,0,0,1-6.46,4.18c-3.07,0-6.74-2-6.74-9.84V484.24h3.55v12.44c0,4.27,1.13,7.15,4.36,7.15a5.22,5.22,0,0,0,4.68-3.71,6.54,6.54,0,0,0,.33-2.09V484.24h3.55Z"/><path class="cls-2" d="M217.36,496.22c.08,5.52,3.14,7.8,6.7,7.8a11.37,11.37,0,0,0,5.4-1.16l.61,2.92a14.06,14.06,0,0,1-6.5,1.39c-6,0-9.6-4.54-9.6-11.32s3.47-12.12,9.16-12.12c6.37,0,8.07,6.46,8.07,10.59a17.91,17.91,0,0,1-.12,1.9Zm10.41-2.93c0-2.59-.93-6.63-4.93-6.63-3.59,0-5.16,3.8-5.44,6.63Z"/><path class="cls-2" d="M235.6,491.25c0-2.64,0-4.92-.17-7h3.11l.12,4.41h.16c.89-3,3-4.92,5.41-4.92a3.42,3.42,0,0,1,1,.14v3.86a4.33,4.33,0,0,0-1.21-.14c-2.5,0-4.28,2.18-4.76,5.24a13.36,13.36,0,0,0-.16,1.9v12H235.6Z"/><path class="cls-2" d="M261.09,490.32c0-2.32,0-4.22-.16-6.08H264l.16,3.62h.12c1.09-2.13,2.91-4.13,6.14-4.13,2.66,0,4.68,1.86,5.52,4.51h.09a8.9,8.9,0,0,1,2.18-2.93,6.11,6.11,0,0,1,4.31-1.58c2.59,0,6.42,1.95,6.42,9.75v13.23h-3.47V494c0-4.32-1.37-6.91-4.24-6.91-2,0-3.59,1.71-4.2,3.71a7.73,7.73,0,0,0-.28,2v13.88h-3.47V493.25c0-3.58-1.37-6.17-4.08-6.17-2.22,0-3.83,2-4.39,4.08a6.17,6.17,0,0,0-.29,2v13.55h-3.47Z"/><path class="cls-2" d="M296.73,496.22c.08,5.52,3.14,7.8,6.7,7.8a11.37,11.37,0,0,0,5.4-1.16l.61,2.92a14.06,14.06,0,0,1-6.5,1.39c-6,0-9.6-4.54-9.6-11.32s3.47-12.12,9.16-12.12c6.38,0,8.07,6.46,8.07,10.59a17.91,17.91,0,0,1-.12,1.9Zm10.41-2.93c0-2.59-.93-6.63-4.92-6.63-3.6,0-5.17,3.8-5.45,6.63Z"/><path class="cls-2" d="M315,473.75h3.55v33H315Z"/><path class="cls-2" d="M324.49,473.75H328v33h-3.55Z"/><path class="cls-2" d="M336,496.22c.08,5.52,3.15,7.8,6.7,7.8a11.42,11.42,0,0,0,5.41-1.16l.6,2.92a14,14,0,0,1-6.49,1.39c-6,0-9.61-4.54-9.61-11.32s3.47-12.12,9.16-12.12c6.38,0,8.07,6.46,8.07,10.59a17.91,17.91,0,0,1-.12,1.9Zm10.41-2.93c0-2.59-.92-6.63-4.92-6.63-3.59,0-5.17,3.8-5.45,6.63Z"/><path class="cls-2" d="M354.23,490.32c0-2.32,0-4.22-.16-6.08h3.11l.16,3.62h.12c1.09-2.13,2.91-4.13,6.13-4.13,2.67,0,4.69,1.86,5.53,4.51h.08a9.18,9.18,0,0,1,2.18-2.93,6.13,6.13,0,0,1,4.32-1.58c2.59,0,6.42,1.95,6.42,9.75v13.23h-3.47V494c0-4.32-1.37-6.91-4.24-6.91-2,0-3.59,1.71-4.2,3.71a7.73,7.73,0,0,0-.28,2v13.88h-3.47V493.25c0-3.58-1.37-6.17-4.08-6.17-2.22,0-3.83,2-4.4,4.08a6.45,6.45,0,0,0-.28,2v13.55h-3.47Z"/><path class="cls-3" d="M406.77,480.34h-.08l-4.56,2.84-.69-3.11,5.73-3.53h3v30.17h-3.43Z"/><path class="cls-3" d="M435.42,480h-10l-1,7.76a11.56,11.56,0,0,1,2.14-.19,10,10,0,0,1,5.65,1.62,8.92,8.92,0,0,1,3.75,7.76c0,5.89-4.07,10.3-9.76,10.3a11.54,11.54,0,0,1-6.54-1.86l.89-3.11a10.54,10.54,0,0,0,5.61,1.67,6.17,6.17,0,0,0,6.21-6.54c0-3.9-2.3-6.68-7.55-6.68a23.69,23.69,0,0,0-3.63.32l1.7-14.48h12.55Z"/><path class="cls-3" d="M449.82,492.65v3h-10v-3Z"/><path class="cls-3" d="M460.56,480.34h-.08l-4.56,2.84-.69-3.11,5.73-3.53h3v30.17h-3.43Z"/><path class="cls-3" d="M490.58,476.54v2.69l-11.42,27.48h-3.67L486.87,480v-.09H474v-3.39Z"/><path class="cls-3" d="M518.5,506.71l-.28-2.83h-.12a7,7,0,0,1-6,3.34c-3.95,0-6-3.2-6-6.45,0-5.43,4.2-8.4,11.74-8.36V492c0-1.86-.44-5.2-4.43-5.2a8.83,8.83,0,0,0-5.09,1.67l-.81-2.69a11,11,0,0,1,6.42-2c6,0,7.43,4.69,7.43,9.19v8.41a36.54,36.54,0,0,0,.32,5.38ZM518,495.25c-3.88-.1-8.28.69-8.28,5.05,0,2.65,1.54,3.9,3.35,3.9a5,5,0,0,0,4.72-3.76,4.84,4.84,0,0,0,.21-1.3Zm-7.63-17.69a4.09,4.09,0,0,1,4.11-4.41c2.43,0,4,1.9,4,4.36a4.06,4.06,0,1,1-8.11.05Zm6.13-.09a2.29,2.29,0,0,0-2.1-2.56c-1.25,0-2,1.21-2,2.65,0,1.21.8,2.51,2,2.51S516.48,478.86,516.48,477.47Z"/><path class="cls-3" d="M527.13,491.25c0-2.64,0-4.92-.16-7h3.11l.12,4.41h.16c.89-3,3-4.92,5.41-4.92a3.47,3.47,0,0,1,1,.14v3.86a4.37,4.37,0,0,0-1.21-.14c-2.5,0-4.28,2.18-4.76,5.24a13.36,13.36,0,0,0-.16,1.9v12h-3.52Z"/><path class="cls-2" d="M552.63,490.32c0-2.32,0-4.22-.16-6.08h3.11l.16,3.62h.12c1.09-2.13,2.91-4.13,6.13-4.13,2.67,0,4.69,1.86,5.53,4.51h.08a9.18,9.18,0,0,1,2.18-2.93,6.13,6.13,0,0,1,4.32-1.58c2.59,0,6.42,1.95,6.42,9.75v13.23h-3.47V494c0-4.32-1.37-6.91-4.24-6.91-2,0-3.59,1.71-4.2,3.71a7.73,7.73,0,0,0-.28,2v13.88h-3.47V493.25c0-3.58-1.37-6.17-4.08-6.17-2.22,0-3.83,2-4.4,4.08a6.45,6.45,0,0,0-.28,2v13.55h-3.47Z"/><path class="cls-2" d="M597.1,506.71l-.28-2.83h-.12a7,7,0,0,1-6,3.34c-4,0-6-3.2-6-6.45,0-5.43,4.2-8.4,11.75-8.36V492c0-1.86-.45-5.2-4.44-5.2a8.85,8.85,0,0,0-5.09,1.67l-.8-2.69a10.91,10.91,0,0,1,6.41-2c6,0,7.43,4.69,7.43,9.19v8.41a36.54,36.54,0,0,0,.32,5.38Zm-.52-11.46c-3.88-.1-8.28.69-8.28,5.05,0,2.65,1.54,3.9,3.36,3.9a5,5,0,0,0,4.72-3.76,4.82,4.82,0,0,0,.2-1.3ZM589,477.56a4.09,4.09,0,0,1,4.12-4.41c2.42,0,4,1.9,4,4.36a4.06,4.06,0,1,1-8.11.05Zm6.14-.09a2.29,2.29,0,0,0-2.1-2.56c-1.25,0-2,1.21-2,2.65,0,1.21.81,2.51,2,2.51S595.09,478.86,595.09,477.47Z"/><path class="cls-2" d="M634.91,473.75v27.16c0,2,0,4.27.16,5.8h-3.19l-.16-3.9h-.08a7.14,7.14,0,0,1-6.66,4.41c-4.72,0-8.36-4.59-8.36-11.42,0-7.47,4-12.07,8.76-12.07a6.37,6.37,0,0,1,5.9,3.44h.08V473.75Zm-3.55,19.64a7.72,7.72,0,0,0-.17-1.72c-.52-2.6-2.46-4.73-5.12-4.73-3.67,0-5.85,3.71-5.85,8.68,0,4.55,1.93,8.3,5.77,8.3,2.38,0,4.56-1.81,5.2-4.87a7.57,7.57,0,0,0,.17-1.76Z"/><path class="cls-2" d="M657.14,500.58c0,2.32,0,4.37.16,6.13h-3.14L654,503h-.09a7.25,7.25,0,0,1-6.45,4.18c-3.07,0-6.74-2-6.74-9.84V484.24h3.55v12.44c0,4.27,1.13,7.15,4.36,7.15a5.23,5.23,0,0,0,4.68-3.71,6.84,6.84,0,0,0,.32-2.09V484.24h3.55Z"/><path class="cls-2" d="M692.16,484.24c-.08,1.63-.16,3.44-.16,6.18v13c0,5.15-.89,8.31-2.78,10.26a9.52,9.52,0,0,1-7.11,2.69,11.28,11.28,0,0,1-6.49-1.86l.88-3.11a9.94,9.94,0,0,0,5.73,1.77c3.64,0,6.3-2.18,6.3-7.85v-2.5h-.08a6.81,6.81,0,0,1-6.22,3.76c-4.84,0-8.31-4.74-8.31-11,0-7.61,4.32-11.93,8.8-11.93a6.42,6.42,0,0,1,6.09,3.9h.08l.17-3.39Zm-3.67,8.87a6.72,6.72,0,0,0-.2-1.86c-.65-2.36-2.38-4.31-5-4.31-3.39,0-5.81,3.29-5.81,8.49,0,4.41,1.94,8.08,5.77,8.08,2.18,0,4.16-1.58,4.93-4.18a8.21,8.21,0,0,0,.28-2.18Z"/><path class="cls-2" d="M699.87,496.22c.08,5.52,3.15,7.8,6.7,7.8a11.42,11.42,0,0,0,5.41-1.16l.6,2.92a14,14,0,0,1-6.49,1.39c-6,0-9.61-4.54-9.61-11.32s3.47-12.12,9.16-12.12c6.38,0,8.07,6.46,8.07,10.59a17.91,17.91,0,0,1-.12,1.9Zm10.41-2.93c0-2.59-.93-6.63-4.92-6.63-3.59,0-5.17,3.8-5.45,6.63Z"/><path class="cls-2" d="M718.11,491.25c0-2.64,0-4.92-.16-7h3.11l.12,4.41h.16c.89-3,3-4.92,5.41-4.92a3.4,3.4,0,0,1,1,.14v3.86a4.33,4.33,0,0,0-1.21-.14c-2.5,0-4.27,2.18-4.76,5.24a13.36,13.36,0,0,0-.16,1.9v12h-3.51Z"/><path class="cls-2" d="M731.47,490.32c0-2.32,0-4.22-.16-6.08h3.14l.21,3.72h.08a7.1,7.1,0,0,1,6.45-4.23c2.71,0,6.91,1.86,6.91,9.56v13.42h-3.56V493.76c0-3.62-1.17-6.64-4.52-6.64-2.34,0-4.15,1.91-4.76,4.18a6.75,6.75,0,0,0-.24,1.9v13.51h-3.55Z"/><path class="cls-2" d="M755.84,496.22c.08,5.52,3.15,7.8,6.7,7.8a11.39,11.39,0,0,0,5.41-1.16l.61,2.92a14.1,14.1,0,0,1-6.5,1.39c-6,0-9.61-4.54-9.61-11.32s3.47-12.12,9.16-12.12c6.38,0,8.08,6.46,8.08,10.59a17.91,17.91,0,0,1-.12,1.9Zm10.42-2.93c0-2.59-.93-6.63-4.93-6.63-3.59,0-5.16,3.8-5.45,6.63Z"/><path class="cls-2" d="M785.9,502.53a8.45,8.45,0,0,0,4.68,1.63c2.58,0,3.79-1.49,3.79-3.34s-1-3-3.63-4.14c-3.51-1.43-5.17-3.66-5.17-6.36a6.4,6.4,0,0,1,6.74-6.59,8.74,8.74,0,0,1,4.81,1.4l-.89,3a6.9,6.9,0,0,0-4-1.3,3,3,0,0,0-3.27,3.06c0,1.86,1.17,2.69,3.72,3.81,3.39,1.48,5.12,3.43,5.12,6.77,0,3.95-2.66,6.73-7.3,6.73a10,10,0,0,1-5.49-1.53Z"/><path class="cls-2" d="M804.34,496.22c.08,5.52,3.15,7.8,6.7,7.8a11.42,11.42,0,0,0,5.41-1.16l.6,2.92a14,14,0,0,1-6.49,1.39c-6,0-9.61-4.54-9.61-11.32s3.47-12.12,9.16-12.12c6.38,0,8.07,6.46,8.07,10.59a17.91,17.91,0,0,1-.12,1.9Zm10.41-2.93c0-2.59-.93-6.63-4.92-6.63-3.59,0-5.17,3.8-5.45,6.63Z"/><path class="cls-2" d="M822.58,490.32c0-2.32,0-4.22-.16-6.08h3.15l.2,3.72h.08a7.1,7.1,0,0,1,6.46-4.23c2.7,0,6.9,1.86,6.9,9.56v13.42h-3.55V493.76c0-3.62-1.17-6.64-4.52-6.64-2.35,0-4.16,1.91-4.77,4.18a6.75,6.75,0,0,0-.24,1.9v13.51h-3.55Z"/><path class="cls-2" d="M861.85,473.75v27.16c0,2,0,4.27.16,5.8h-3.19l-.16-3.9h-.08a7.14,7.14,0,0,1-6.66,4.41c-4.72,0-8.36-4.59-8.36-11.42,0-7.47,4-12.07,8.76-12.07a6.37,6.37,0,0,1,5.9,3.44h.08V473.75Zm-3.55,19.64a7.72,7.72,0,0,0-.17-1.72c-.52-2.6-2.46-4.73-5.12-4.73-3.67,0-5.85,3.71-5.85,8.68,0,4.55,1.93,8.3,5.77,8.3,2.38,0,4.56-1.81,5.2-4.87a7.57,7.57,0,0,0,.17-1.76Z"/><path class="cls-2" d="M869.72,496.22c.08,5.52,3.14,7.8,6.7,7.8a11.37,11.37,0,0,0,5.4-1.16l.61,2.92a14.06,14.06,0,0,1-6.5,1.39c-6,0-9.6-4.54-9.6-11.32s3.47-12.12,9.16-12.12c6.37,0,8.07,6.46,8.07,10.59a17.91,17.91,0,0,1-.12,1.9Zm10.41-2.93c0-2.59-.93-6.63-4.92-6.63-3.6,0-5.17,3.8-5.45,6.63Z"/><path class="cls-2" d="M76.25,551.92c.08,5.53,3.15,7.8,6.7,7.8a11.42,11.42,0,0,0,5.41-1.16l.6,2.93a14,14,0,0,1-6.49,1.39c-6,0-9.61-4.55-9.61-11.33s3.47-12.11,9.16-12.11c6.38,0,8.07,6.45,8.07,10.58a17.53,17.53,0,0,1-.12,1.9ZM86.66,549c0-2.6-.92-6.64-4.92-6.64-3.59,0-5.17,3.81-5.45,6.64Z"/><path class="cls-2" d="M94.49,529.46H98v33H94.49Z"/><path class="cls-2" d="M104,529.46h3.56v33H104Z"/><path class="cls-2" d="M115.52,551.92c.08,5.53,3.14,7.8,6.7,7.8a11.37,11.37,0,0,0,5.4-1.16l.61,2.93a14.06,14.06,0,0,1-6.5,1.39c-6,0-9.6-4.55-9.6-11.33s3.47-12.11,9.16-12.11c6.37,0,8.07,6.45,8.07,10.58a17.53,17.53,0,0,1-.12,1.9ZM125.93,549c0-2.6-.93-6.64-4.93-6.64-3.59,0-5.16,3.81-5.44,6.64Z"/><path class="cls-2" d="M133.76,547c0-2.65,0-4.92-.17-7h3.11l.12,4.41H137c.89-3,3-4.92,5.41-4.92a3.42,3.42,0,0,1,1,.14v3.85a4.73,4.73,0,0,0-1.21-.14c-2.5,0-4.28,2.18-4.76,5.25a13.1,13.1,0,0,0-.16,1.9v12h-3.51Z"/><path class="cls-2" d="M158.63,546c0-2.32,0-4.22-.16-6.08h3.11l.16,3.62h.12c1.09-2.14,2.91-4.13,6.14-4.13,2.66,0,4.68,1.85,5.53,4.5h.08a8.85,8.85,0,0,1,2.18-2.92,6.11,6.11,0,0,1,4.31-1.58c2.59,0,6.42,1.95,6.42,9.75v13.23h-3.47V549.7c0-4.32-1.37-6.92-4.24-6.92-2,0-3.59,1.72-4.19,3.71a7.34,7.34,0,0,0-.29,2v13.88h-3.47V549c0-3.57-1.37-6.17-4.07-6.17-2.22,0-3.84,2-4.4,4.09a6.14,6.14,0,0,0-.29,2v13.56h-3.47Z"/><path class="cls-2" d="M210,551c0,8.3-5,11.93-9.73,11.93-5.29,0-9.36-4.46-9.36-11.56,0-7.52,4.28-11.93,9.68-11.93C206.17,539.44,210,544.13,210,551Zm-15.5.23c0,4.92,2.46,8.63,5.93,8.63s5.93-3.66,5.93-8.72c0-3.81-1.65-8.64-5.85-8.64S194.47,547,194.47,551.23Z"/><path class="cls-2" d="M231.32,529.46v27.15c0,2,0,4.27.16,5.81h-3.19l-.16-3.9h-.08a7.16,7.16,0,0,1-6.66,4.41c-4.73,0-8.36-4.6-8.36-11.42,0-7.48,4-12.07,8.76-12.07a6.35,6.35,0,0,1,5.89,3.43h.08V529.46Zm-3.56,19.63a8.25,8.25,0,0,0-.16-1.71c-.52-2.6-2.46-4.74-5.12-4.74-3.68,0-5.86,3.71-5.86,8.68,0,4.55,1.94,8.31,5.78,8.31,2.38,0,4.56-1.81,5.2-4.87a8.26,8.26,0,0,0,.16-1.77Z"/><path class="cls-2" d="M241.48,533.5V540h5.09v3.11h-5.09v12.11c0,2.79.69,4.37,2.67,4.37a6.93,6.93,0,0,0,2.06-.28l.16,3.06a7.61,7.61,0,0,1-3.15.56,4.6,4.6,0,0,1-3.84-1.72c-1-1.2-1.37-3.2-1.37-5.85V543.06h-3V540h3v-5.39Z"/><path class="cls-2" d="M261.38,562.42l-.28-2.84H261a7,7,0,0,1-6,3.35c-3.95,0-6-3.21-6-6.46,0-5.43,4.2-8.4,11.74-8.35v-.47c0-1.85-.44-5.19-4.44-5.19a8.82,8.82,0,0,0-5.08,1.67l-.81-2.7a11,11,0,0,1,6.42-2c6,0,7.42,4.69,7.42,9.19V557a36.67,36.67,0,0,0,.33,5.39ZM260.85,551c-3.87-.09-8.27.7-8.27,5.06,0,2.65,1.53,3.9,3.35,3.9a5,5,0,0,0,4.72-3.76,4.88,4.88,0,0,0,.2-1.3Z"/><path class="cls-2" d="M286.84,540c-.08,1.62-.16,3.43-.16,6.17v13c0,5.15-.89,8.3-2.78,10.25a9.49,9.49,0,0,1-7.11,2.7,11.28,11.28,0,0,1-6.49-1.86l.88-3.11a10,10,0,0,0,5.74,1.76c3.63,0,6.29-2.18,6.29-7.84v-2.51h-.08a6.81,6.81,0,0,1-6.21,3.76c-4.85,0-8.32-4.73-8.32-11,0-7.62,4.32-11.93,8.8-11.93a6.41,6.41,0,0,1,6.09,3.9h.08l.17-3.39Zm-3.67,8.86A6.65,6.65,0,0,0,283,547c-.65-2.37-2.38-4.32-5-4.32-3.39,0-5.81,3.3-5.81,8.5,0,4.4,1.94,8.07,5.77,8.07,2.18,0,4.16-1.58,4.93-4.17a8.23,8.23,0,0,0,.28-2.19Z"/><path class="cls-2" d="M294.55,551.92c.08,5.53,3.15,7.8,6.7,7.8a11.42,11.42,0,0,0,5.41-1.16l.6,2.93a14,14,0,0,1-6.49,1.39c-6,0-9.61-4.55-9.61-11.33s3.47-12.11,9.16-12.11c6.38,0,8.07,6.45,8.07,10.58a17.53,17.53,0,0,1-.12,1.9ZM305,549c0-2.6-.93-6.64-4.92-6.64-3.59,0-5.17,3.81-5.45,6.64Z"/><path class="cls-3" d="M328.43,533.64a2.26,2.26,0,0,1-2.26,2.5,2.28,2.28,0,0,1-2.14-2.5,2.35,2.35,0,0,1,2.22-2.56A2.3,2.3,0,0,1,328.43,533.64Zm-4,28.78V540H328v22.47Z"/><path class="cls-3" d="M333.91,546c0-2.32,0-4.22-.16-6.08h3.15l.2,3.71h.08a7.11,7.11,0,0,1,6.46-4.22c2.7,0,6.9,1.85,6.9,9.56v13.42H347v-13c0-3.62-1.17-6.63-4.52-6.63a5.21,5.21,0,0,0-4.76,4.17,6.78,6.78,0,0,0-.24,1.91v13.51h-3.56Z"/><path class="cls-3" d="M360.43,533.5V540h5.08v3.11h-5.08v12.11c0,2.79.68,4.37,2.66,4.37a6.88,6.88,0,0,0,2.06-.28l.16,3.06a7.55,7.55,0,0,1-3.15.56,4.6,4.6,0,0,1-3.83-1.72c-1-1.2-1.37-3.2-1.37-5.85V543.06h-3V540h3v-5.39Z"/><path class="cls-3" d="M373.46,533.64a2.26,2.26,0,0,1-2.26,2.5,2.29,2.29,0,0,1-2.14-2.5,2.35,2.35,0,0,1,2.22-2.56A2.3,2.3,0,0,1,373.46,533.64Zm-3.95,28.78V540h3.55v22.47Z"/><path class="cls-3" d="M379,546c0-2.32,0-4.22-.16-6.08h3.11l.16,3.62h.12c1.09-2.14,2.9-4.13,6.13-4.13,2.67,0,4.68,1.85,5.53,4.5h.08A9.13,9.13,0,0,1,396.1,541a6.11,6.11,0,0,1,4.32-1.58c2.58,0,6.42,1.95,6.42,9.75v13.23h-3.47V549.7c0-4.32-1.37-6.92-4.24-6.92-2,0-3.59,1.72-4.2,3.71a7.75,7.75,0,0,0-.28,2v13.88h-3.47V549c0-3.57-1.37-6.17-4.08-6.17-2.22,0-3.83,2-4.4,4.09a6.43,6.43,0,0,0-.28,2v13.56H379Z"/><path class="cls-3" d="M414.58,551.92c.08,5.53,3.15,7.8,6.7,7.8a11.39,11.39,0,0,0,5.41-1.16l.61,2.93a14.06,14.06,0,0,1-6.5,1.39c-6,0-9.61-4.55-9.61-11.33s3.47-12.11,9.17-12.11c6.37,0,8.07,6.45,8.07,10.58a17.53,17.53,0,0,1-.12,1.9ZM425,549c0-2.6-.93-6.64-4.93-6.64-3.59,0-5.16,3.81-5.45,6.64Z"/><path class="cls-3" d="M444.34,562.42c.08-1.54.16-3.81.16-5.81V529.46H448v14.11h.09a7.11,7.11,0,0,1,6.65-4.13c4.85,0,8.28,4.64,8.24,11.46,0,8-4.4,12-8.76,12a6.85,6.85,0,0,1-6.54-4.23h-.12l-.16,3.72Zm3.67-9a8.94,8.94,0,0,0,.17,1.49c.68,2.83,2.74,4.78,5.32,4.78,3.72,0,5.94-3.48,5.94-8.64,0-4.5-2-8.35-5.81-8.35-2.43,0-4.69,1.9-5.41,5a9.24,9.24,0,0,0-.21,1.67Z"/><path class="cls-3" d="M471.42,533.64a2.26,2.26,0,0,1-2.26,2.5,2.29,2.29,0,0,1-2.14-2.5,2.35,2.35,0,0,1,2.22-2.56A2.3,2.3,0,0,1,471.42,533.64Zm-3.95,28.78V540H471v22.47Z"/><path class="cls-3" d="M476.91,529.46h3.55v33h-3.55Z"/><path class="cls-3" d="M486.43,529.46H490v33h-3.55Z"/><path class="cls-3" d="M497.93,551.92c.08,5.53,3.15,7.8,6.7,7.8a11.39,11.39,0,0,0,5.41-1.16l.61,2.93a14.06,14.06,0,0,1-6.5,1.39c-6,0-9.61-4.55-9.61-11.33s3.47-12.11,9.17-12.11c6.37,0,8.07,6.45,8.07,10.58a17.53,17.53,0,0,1-.12,1.9ZM508.35,549c0-2.6-.93-6.64-4.93-6.64-3.59,0-5.16,3.81-5.45,6.64Z"/><path class="cls-3" d="M533,529.46v27.15c0,2,0,4.27.17,5.81H530l-.16-3.9h-.08a7.17,7.17,0,0,1-6.66,4.41c-4.73,0-8.36-4.6-8.36-11.42,0-7.48,4-12.07,8.76-12.07a6.35,6.35,0,0,1,5.89,3.43h.08V529.46Zm-3.55,19.63a8.25,8.25,0,0,0-.16-1.71c-.52-2.6-2.46-4.74-5.12-4.74-3.68,0-5.86,3.71-5.86,8.68,0,4.55,1.94,8.31,5.78,8.31,2.38,0,4.56-1.81,5.2-4.87a8.26,8.26,0,0,0,.16-1.77Z"/><path class="cls-3" d="M540.91,551.92c.08,5.53,3.15,7.8,6.7,7.8a11.42,11.42,0,0,0,5.41-1.16l.61,2.93a14.1,14.1,0,0,1-6.5,1.39c-6,0-9.61-4.55-9.61-11.33s3.47-12.11,9.16-12.11c6.38,0,8.08,6.45,8.08,10.58a17,17,0,0,1-.13,1.9ZM551.33,549c0-2.6-.93-6.64-4.93-6.64-3.59,0-5.16,3.81-5.45,6.64Z"/><path class="cls-3" d="M559.15,547c0-2.65,0-4.92-.16-7h3.11l.12,4.41h.16c.89-3,3-4.92,5.41-4.92a3.47,3.47,0,0,1,1,.14v3.85a4.85,4.85,0,0,0-1.21-.14c-2.5,0-4.28,2.18-4.76,5.25a11.76,11.76,0,0,0-.17,1.9v12h-3.51Z"/><path class="cls-2" d="M584,546c0-2.32,0-4.22-.16-6.08H587l.16,3.62h.12c1.09-2.14,2.9-4.13,6.13-4.13,2.67,0,4.68,1.85,5.53,4.5H599a9.13,9.13,0,0,1,2.18-2.92,6.11,6.11,0,0,1,4.32-1.58c2.58,0,6.42,1.95,6.42,9.75v13.23h-3.47V549.7c0-4.32-1.38-6.92-4.24-6.92-2,0-3.59,1.72-4.2,3.71a7.75,7.75,0,0,0-.28,2v13.88h-3.47V549c0-3.57-1.37-6.17-4.08-6.17-2.22,0-3.83,2-4.4,4.09a6.43,6.43,0,0,0-.28,2v13.56H584Z"/><path class="cls-2" d="M619.66,551.92c.08,5.53,3.15,7.8,6.7,7.8a11.39,11.39,0,0,0,5.41-1.16l.61,2.93a14.06,14.06,0,0,1-6.5,1.39c-6,0-9.61-4.55-9.61-11.33s3.47-12.11,9.16-12.11c6.38,0,8.08,6.45,8.08,10.58a17.53,17.53,0,0,1-.12,1.9ZM630.08,549c0-2.6-.93-6.64-4.93-6.64-3.59,0-5.16,3.81-5.45,6.64Z"/><path class="cls-2" d="M637.9,529.46h3.56v33H637.9Z"/><path class="cls-2" d="M647.43,529.46H651v33h-3.55Z"/><path class="cls-2" d="M658.93,551.92c.08,5.53,3.15,7.8,6.7,7.8a11.45,11.45,0,0,0,5.41-1.16l.6,2.93a14.06,14.06,0,0,1-6.5,1.39c-6,0-9.6-4.55-9.6-11.33s3.47-12.11,9.16-12.11c6.38,0,8.07,6.45,8.07,10.58a17.53,17.53,0,0,1-.12,1.9ZM669.34,549c0-2.6-.93-6.64-4.92-6.64-3.6,0-5.17,3.81-5.45,6.64Z"/><path class="cls-2" d="M677.17,546c0-2.32,0-4.22-.16-6.08h3.1l.17,3.62h.12c1.09-2.14,2.9-4.13,6.13-4.13,2.67,0,4.68,1.85,5.53,4.5h.08a9,9,0,0,1,2.18-2.92,6.11,6.11,0,0,1,4.32-1.58c2.58,0,6.42,1.95,6.42,9.75v13.23h-3.47V549.7c0-4.32-1.38-6.92-4.24-6.92-2,0-3.59,1.72-4.2,3.71a7.75,7.75,0,0,0-.28,2v13.88H689.4V549c0-3.57-1.38-6.17-4.08-6.17-2.22,0-3.83,2-4.4,4.09a6.43,6.43,0,0,0-.28,2v13.56h-3.47Z"/><path class="cls-2" d="M739.37,529.46v27.15c0,2,0,4.27.17,5.81h-3.19l-.16-3.9h-.08a7.17,7.17,0,0,1-6.66,4.41c-4.73,0-8.36-4.6-8.36-11.42,0-7.48,4-12.07,8.76-12.07a6.35,6.35,0,0,1,5.89,3.43h.08V529.46Zm-3.55,19.63a8.25,8.25,0,0,0-.16-1.71c-.52-2.6-2.46-4.74-5.12-4.74-3.68,0-5.86,3.71-5.86,8.68,0,4.55,1.94,8.31,5.78,8.31,2.38,0,4.56-1.81,5.2-4.87a8.26,8.26,0,0,0,.16-1.77Z"/><path class="cls-2" d="M749.22,533.64a2.26,2.26,0,0,1-2.26,2.5,2.29,2.29,0,0,1-2.14-2.5,2.35,2.35,0,0,1,2.22-2.56A2.3,2.3,0,0,1,749.22,533.64Zm-4,28.78V540h3.56v22.47Z"/><path class="cls-2" d="M771.54,540c-.08,1.62-.16,3.43-.16,6.17v13c0,5.15-.89,8.3-2.79,10.25a9.49,9.49,0,0,1-7.1,2.7,11.32,11.32,0,0,1-6.5-1.86l.89-3.11a9.94,9.94,0,0,0,5.73,1.76c3.63,0,6.3-2.18,6.3-7.84v-2.51h-.08a6.81,6.81,0,0,1-6.22,3.76c-4.84,0-8.32-4.73-8.32-11,0-7.62,4.32-11.93,8.8-11.93a6.43,6.43,0,0,1,6.1,3.9h.08l.16-3.39Zm-3.67,8.86a6.28,6.28,0,0,0-.21-1.85c-.64-2.37-2.38-4.32-5-4.32-3.39,0-5.81,3.3-5.81,8.5,0,4.4,1.93,8.07,5.77,8.07a5.32,5.32,0,0,0,4.92-4.17,8.24,8.24,0,0,0,.29-2.19Z"/><path class="cls-2" d="M806.63,551c0,8.3-5,11.93-9.73,11.93-5.29,0-9.37-4.46-9.37-11.56,0-7.52,4.28-11.93,9.69-11.93C802.83,539.44,806.63,544.13,806.63,551Zm-15.5.23c0,4.92,2.46,8.63,5.93,8.63s5.93-3.66,5.93-8.72c0-3.81-1.65-8.64-5.85-8.64S791.13,547,791.13,551.23Z"/><path class="cls-2" d="M827.93,540c-.08,1.62-.16,3.43-.16,6.17v13c0,5.15-.89,8.3-2.78,10.25a9.51,9.51,0,0,1-7.11,2.7,11.34,11.34,0,0,1-6.5-1.86l.89-3.11a9.94,9.94,0,0,0,5.73,1.76c3.64,0,6.3-2.18,6.3-7.84v-2.51h-.08a6.81,6.81,0,0,1-6.22,3.76c-4.84,0-8.31-4.73-8.31-11,0-7.62,4.32-11.93,8.8-11.93a6.41,6.41,0,0,1,6.09,3.9h.08l.17-3.39Zm-3.67,8.86a6.65,6.65,0,0,0-.2-1.85c-.65-2.37-2.38-4.32-5-4.32-3.39,0-5.81,3.3-5.81,8.5,0,4.4,1.94,8.07,5.77,8.07,2.18,0,4.16-1.58,4.93-4.17a8.23,8.23,0,0,0,.28-2.19Z"/><path class="cls-2" d="M847.32,551.92c.08,5.53,3.15,7.8,6.7,7.8a11.45,11.45,0,0,0,5.41-1.16l.6,2.93a14.06,14.06,0,0,1-6.5,1.39c-6,0-9.6-4.55-9.6-11.33s3.47-12.11,9.16-12.11c6.38,0,8.07,6.45,8.07,10.58a17.53,17.53,0,0,1-.12,1.9ZM857.73,549c0-2.6-.93-6.64-4.92-6.64-3.6,0-5.17,3.81-5.45,6.64Z"/><path class="cls-2" d="M865.56,546c0-2.32,0-4.22-.16-6.08h3.14l.21,3.71h.08a7.11,7.11,0,0,1,6.46-4.22c2.7,0,6.9,1.85,6.9,9.56v13.42h-3.56v-13c0-3.62-1.17-6.63-4.51-6.63a5.22,5.22,0,0,0-4.77,4.17,6.78,6.78,0,0,0-.24,1.91v13.51h-3.55Z"/><path class="cls-2" d="M85.09,618.12l-.28-2.83h-.12a7,7,0,0,1-6,3.34c-3.95,0-6-3.2-6-6.45,0-5.43,4.2-8.4,11.74-8.36v-.46c0-1.86-.44-5.2-4.44-5.2A8.82,8.82,0,0,0,75,599.83l-.81-2.69a11,11,0,0,1,6.42-2c6,0,7.43,4.69,7.43,9.19v8.41a36.54,36.54,0,0,0,.32,5.38Zm-.52-11.46c-3.88-.1-8.28.69-8.28,5.06,0,2.64,1.54,3.89,3.35,3.89a5,5,0,0,0,4.72-3.76,4.84,4.84,0,0,0,.21-1.3Z"/><path class="cls-2" d="M93.72,601.74c0-2.32,0-4.23-.16-6.08h3.15l.2,3.71H97a7.1,7.1,0,0,1,6.46-4.23c2.71,0,6.9,1.86,6.9,9.57v13.41H106.8v-13c0-3.62-1.17-6.64-4.52-6.64-2.34,0-4.16,1.91-4.76,4.18a6.75,6.75,0,0,0-.24,1.9v13.51H93.72Z"/><path class="cls-2" d="M133,585.17v27.15c0,2,0,4.27.16,5.8H130l-.16-3.9h-.08a7.14,7.14,0,0,1-6.66,4.41c-4.72,0-8.35-4.59-8.35-11.42,0-7.47,4-12.07,8.76-12.07a6.37,6.37,0,0,1,5.89,3.44h.08V585.17Zm-3.55,19.63a8.35,8.35,0,0,0-.16-1.72c-.53-2.6-2.46-4.73-5.13-4.73-3.67,0-5.85,3.71-5.85,8.68,0,4.55,1.94,8.31,5.77,8.31,2.38,0,4.56-1.81,5.21-4.88a8.11,8.11,0,0,0,.16-1.76Z"/><path class="cls-2" d="M140.86,607.63c.08,5.52,3.15,7.8,6.7,7.8a11.42,11.42,0,0,0,5.41-1.16l.6,2.92a14.06,14.06,0,0,1-6.5,1.39c-6,0-9.6-4.54-9.6-11.32s3.47-12.12,9.16-12.12c6.38,0,8.07,6.46,8.07,10.59a17.91,17.91,0,0,1-.12,1.9Zm10.41-2.92c0-2.6-.93-6.64-4.92-6.64-3.59,0-5.17,3.81-5.45,6.64Z"/><path class="cls-2" d="M159.1,601.74c0-2.32,0-4.23-.16-6.08h3.15l.2,3.71h.08a7.1,7.1,0,0,1,6.46-4.23c2.7,0,6.9,1.86,6.9,9.57v13.41h-3.55v-13c0-3.62-1.17-6.64-4.52-6.64-2.34,0-4.16,1.91-4.77,4.18a6.75,6.75,0,0,0-.24,1.9v13.51H159.1Z"/><path class="cls-2" d="M179.2,623.83a76.88,76.88,0,0,0,2.42-11.09l3.95-.47a61.87,61.87,0,0,1-3.83,11.28Z"/><path class="cls-2" d="M198.4,601.74c0-2.32,0-4.23-.16-6.08h3.11l.16,3.62h.12c1.09-2.14,2.91-4.14,6.14-4.14,2.66,0,4.68,1.86,5.53,4.51h.08a8.9,8.9,0,0,1,2.18-2.93,6.11,6.11,0,0,1,4.32-1.58c2.58,0,6.41,2,6.41,9.75v13.23h-3.47V605.4c0-4.31-1.37-6.91-4.24-6.91-2,0-3.59,1.71-4.19,3.71a7.71,7.71,0,0,0-.29,2v13.88h-3.47V604.66c0-3.57-1.37-6.17-4.07-6.17-2.22,0-3.84,2-4.4,4.08a6.45,6.45,0,0,0-.28,2v13.55H198.4Z"/><path class="cls-2" d="M234,607.63c.08,5.52,3.15,7.8,6.7,7.8a11.42,11.42,0,0,0,5.41-1.16l.6,2.92a14.06,14.06,0,0,1-6.5,1.39c-6,0-9.6-4.54-9.6-11.32s3.47-12.12,9.16-12.12c6.38,0,8.07,6.46,8.07,10.59a17.91,17.91,0,0,1-.12,1.9Zm10.41-2.92c0-2.6-.93-6.64-4.92-6.64-3.59,0-5.17,3.81-5.45,6.64Z"/><path class="cls-2" d="M252.28,601.74c0-2.32,0-4.23-.16-6.08h3.15l.2,3.71h.08a7.1,7.1,0,0,1,6.46-4.23c2.7,0,6.9,1.86,6.9,9.57v13.41h-3.55v-13c0-3.62-1.17-6.64-4.52-6.64-2.35,0-4.16,1.91-4.77,4.18a6.75,6.75,0,0,0-.24,1.9v13.51h-3.55Z"/><path class="cls-2" d="M300.1,585.17v27.15c0,2,0,4.27.16,5.8h-3.19l-.16-3.9h-.08a7.14,7.14,0,0,1-6.66,4.41c-4.72,0-8.35-4.59-8.35-11.42,0-7.47,4-12.07,8.76-12.07a6.37,6.37,0,0,1,5.89,3.44h.08V585.17Zm-3.55,19.63a8.35,8.35,0,0,0-.16-1.72c-.53-2.6-2.46-4.73-5.13-4.73-3.67,0-5.85,3.71-5.85,8.68,0,4.55,1.94,8.31,5.77,8.31,2.38,0,4.56-1.81,5.21-4.88a8.11,8.11,0,0,0,.16-1.76Z"/><path class="cls-2" d="M322.34,612c0,2.32,0,4.37.16,6.13h-3.15l-.2-3.67h-.08a7.28,7.28,0,0,1-6.46,4.18c-3.07,0-6.74-2-6.74-9.84V595.66h3.55v12.43c0,4.28,1.13,7.15,4.36,7.15a5.22,5.22,0,0,0,4.68-3.71,6.83,6.83,0,0,0,.33-2.09V595.66h3.55Z"/><path class="cls-2" d="M336.78,601.74c0-2.32,0-4.23-.16-6.08h3.11l.16,3.62H340c1.09-2.14,2.91-4.14,6.14-4.14,2.66,0,4.68,1.86,5.53,4.51h.08a8.9,8.9,0,0,1,2.18-2.93,6.11,6.11,0,0,1,4.31-1.58c2.59,0,6.42,2,6.42,9.75v13.23H361.2V605.4c0-4.31-1.37-6.91-4.24-6.91-2,0-3.59,1.71-4.19,3.71a7.32,7.32,0,0,0-.29,2v13.88H349V604.66c0-3.57-1.37-6.17-4.07-6.17-2.22,0-3.84,2-4.4,4.08a6.17,6.17,0,0,0-.29,2v13.55h-3.47Z"/><path class="cls-2" d="M381.26,618.12l-.29-2.83h-.12a7,7,0,0,1-6,3.34c-4,0-6-3.2-6-6.45,0-5.43,4.19-8.4,11.74-8.36v-.46c0-1.86-.44-5.2-4.44-5.2a8.8,8.8,0,0,0-5.08,1.67l-.81-2.69a10.92,10.92,0,0,1,6.42-2c6,0,7.42,4.69,7.42,9.19v8.41a36.54,36.54,0,0,0,.32,5.38Zm-.53-11.46c-3.87-.1-8.27.69-8.27,5.06,0,2.64,1.53,3.89,3.35,3.89a5,5,0,0,0,4.72-3.76,4.82,4.82,0,0,0,.2-1.3ZM373.1,589a4.1,4.1,0,0,1,4.12-4.41c2.42,0,4,1.9,4,4.36a4.06,4.06,0,1,1-8.12.05Zm6.14-.09a2.28,2.28,0,0,0-2.1-2.55c-1.25,0-2,1.2-2,2.64,0,1.21.81,2.51,2,2.51S379.24,590.27,379.24,588.88Z"/><path class="cls-3" d="M409.26,618.12l-.28-2.83h-.12a7,7,0,0,1-6,3.34c-4,0-6-3.2-6-6.45,0-5.43,4.2-8.4,11.75-8.36v-.46c0-1.86-.45-5.2-4.44-5.2a8.83,8.83,0,0,0-5.09,1.67l-.81-2.69a11,11,0,0,1,6.42-2c6,0,7.43,4.69,7.43,9.19v8.41a36.54,36.54,0,0,0,.32,5.38Zm-.52-11.46c-3.88-.1-8.28.69-8.28,5.06,0,2.64,1.54,3.89,3.35,3.89a5,5,0,0,0,4.73-3.76,4.82,4.82,0,0,0,.2-1.3Z"/><path class="cls-3" d="M417.9,585.17h3.55v33H417.9Z"/><path class="cls-3" d="M444.29,585.17v27.15c0,2,0,4.27.16,5.8h-3.19l-.16-3.9H441a7.14,7.14,0,0,1-6.66,4.41c-4.72,0-8.35-4.59-8.35-11.42,0-7.47,4-12.07,8.76-12.07a6.37,6.37,0,0,1,5.89,3.44h.08V585.17Zm-3.55,19.63a8.35,8.35,0,0,0-.16-1.72c-.53-2.6-2.46-4.73-5.13-4.73-3.67,0-5.85,3.71-5.85,8.68,0,4.55,1.94,8.31,5.77,8.31,2.38,0,4.56-1.81,5.21-4.88a8.11,8.11,0,0,0,.16-1.76Z"/><path class="cls-3" d="M450.18,602.66c0-2.64,0-4.92-.16-7h3.11l.12,4.4h.16c.89-3,3-4.92,5.41-4.92a3.52,3.52,0,0,1,1,.14v3.86a4.42,4.42,0,0,0-1.21-.14c-2.51,0-4.28,2.18-4.77,5.24a13.38,13.38,0,0,0-.16,1.91v12h-3.51Z"/><path class="cls-3" d="M467.49,589.34a2.26,2.26,0,0,1-2.26,2.51,2.29,2.29,0,0,1-2.14-2.51,2.34,2.34,0,0,1,2.22-2.55A2.28,2.28,0,0,1,467.49,589.34Zm-3.95,28.78V595.66h3.55v22.46Z"/><path class="cls-3" d="M489.81,595.66c-.08,1.62-.16,3.43-.16,6.17v13c0,5.15-.89,8.31-2.78,10.26a9.54,9.54,0,0,1-7.11,2.69,11.41,11.41,0,0,1-6.5-1.85l.89-3.11a10,10,0,0,0,5.73,1.76c3.64,0,6.3-2.18,6.3-7.84v-2.51h-.08a6.81,6.81,0,0,1-6.22,3.76c-4.84,0-8.31-4.74-8.31-11,0-7.61,4.32-11.93,8.8-11.93a6.42,6.42,0,0,1,6.09,3.9h.08l.17-3.38Zm-3.67,8.86a6.72,6.72,0,0,0-.2-1.86c-.65-2.36-2.38-4.31-5-4.31-3.39,0-5.81,3.29-5.81,8.49,0,4.41,1.94,8.08,5.77,8.08,2.18,0,4.16-1.58,4.93-4.18a8.15,8.15,0,0,0,.28-2.18Z"/><path class="cls-3" d="M521,585.17v27.15c0,2,0,4.27.16,5.8h-3.19l-.16-3.9h-.08a7.14,7.14,0,0,1-6.66,4.41c-4.72,0-8.36-4.59-8.36-11.42,0-7.47,4-12.07,8.76-12.07a6.35,6.35,0,0,1,5.89,3.44h.08V585.17Zm-3.56,19.63a8.35,8.35,0,0,0-.16-1.72c-.52-2.6-2.46-4.73-5.12-4.73-3.68,0-5.85,3.71-5.85,8.68,0,4.55,1.93,8.31,5.77,8.31,2.38,0,4.56-1.81,5.2-4.88a8.11,8.11,0,0,0,.16-1.76Z"/><path class="cls-3" d="M528.83,607.63c.09,5.52,3.15,7.8,6.7,7.8a11.39,11.39,0,0,0,5.41-1.16l.61,2.92a14.06,14.06,0,0,1-6.5,1.39c-6,0-9.61-4.54-9.61-11.32s3.48-12.12,9.17-12.12c6.37,0,8.07,6.46,8.07,10.59a17.91,17.91,0,0,1-.12,1.9Zm10.42-2.92c0-2.6-.93-6.64-4.93-6.64-3.59,0-5.16,3.81-5.45,6.64Z"/><path class="cls-3" d="M547.07,585.17h3.56v33h-3.56Z"/><path class="cls-3" d="M558.58,607.63c.08,5.52,3.14,7.8,6.69,7.8a11.39,11.39,0,0,0,5.41-1.16l.61,2.92a14.06,14.06,0,0,1-6.5,1.39c-6,0-9.61-4.54-9.61-11.32s3.48-12.12,9.17-12.12c6.37,0,8.07,6.46,8.07,10.59a17.91,17.91,0,0,1-.12,1.9ZM569,604.71c0-2.6-.93-6.64-4.93-6.64-3.59,0-5.16,3.81-5.44,6.64Z"/><path class="cls-2" d="M602.24,585.17v27.15c0,2,0,4.27.16,5.8h-3.19l-.16-3.9H599a7.14,7.14,0,0,1-6.66,4.41c-4.72,0-8.35-4.59-8.35-11.42,0-7.47,4-12.07,8.76-12.07a6.37,6.37,0,0,1,5.89,3.44h.08V585.17Zm-3.55,19.63a8.35,8.35,0,0,0-.16-1.72c-.53-2.6-2.46-4.73-5.13-4.73-3.67,0-5.85,3.71-5.85,8.68,0,4.55,1.94,8.31,5.77,8.31,2.38,0,4.56-1.81,5.21-4.88a8.11,8.11,0,0,0,.16-1.76Z"/><path class="cls-2" d="M610.11,607.63c.08,5.52,3.15,7.8,6.7,7.8a11.45,11.45,0,0,0,5.41-1.16l.6,2.92a14.06,14.06,0,0,1-6.5,1.39c-6,0-9.6-4.54-9.6-11.32s3.47-12.12,9.16-12.12c6.38,0,8.07,6.46,8.07,10.59a17.91,17.91,0,0,1-.12,1.9Zm10.41-2.92c0-2.6-.93-6.64-4.92-6.64-3.6,0-5.17,3.81-5.45,6.64Z"/><path class="cls-2" d="M628.35,601.74c0-2.32,0-4.23-.16-6.08h3.1l.17,3.62h.12c1.09-2.14,2.9-4.14,6.13-4.14,2.67,0,4.68,1.86,5.53,4.51h.08a9,9,0,0,1,2.18-2.93,6.11,6.11,0,0,1,4.32-1.58c2.58,0,6.42,2,6.42,9.75v13.23h-3.47V605.4c0-4.31-1.38-6.91-4.24-6.91-2,0-3.59,1.71-4.2,3.71a7.73,7.73,0,0,0-.28,2v13.88h-3.47V604.66c0-3.57-1.37-6.17-4.08-6.17-2.22,0-3.83,2-4.4,4.08a6.45,6.45,0,0,0-.28,2v13.55h-3.47Z"/><path class="cls-2" d="M670.56,601.74c0-2.32,0-4.23-.16-6.08h3.11l.16,3.62h.12c1.09-2.14,2.9-4.14,6.13-4.14,2.67,0,4.68,1.86,5.53,4.51h.08a9.18,9.18,0,0,1,2.18-2.93,6.11,6.11,0,0,1,4.32-1.58c2.58,0,6.42,2,6.42,9.75v13.23H695V605.4c0-4.31-1.38-6.91-4.24-6.91-2,0-3.59,1.71-4.2,3.71a7.73,7.73,0,0,0-.28,2v13.88h-3.47V604.66c0-3.57-1.37-6.17-4.08-6.17-2.22,0-3.83,2-4.4,4.08a6.45,6.45,0,0,0-.28,2v13.55h-3.47Z"/><path class="cls-2" d="M706.19,607.63c.08,5.52,3.15,7.8,6.7,7.8a11.39,11.39,0,0,0,5.41-1.16l.61,2.92a14.06,14.06,0,0,1-6.5,1.39c-6,0-9.61-4.54-9.61-11.32s3.47-12.12,9.16-12.12c6.38,0,8.08,6.46,8.08,10.59a17.91,17.91,0,0,1-.12,1.9Zm10.42-2.92c0-2.6-.93-6.64-4.93-6.64-3.59,0-5.16,3.81-5.45,6.64Z"/><path class="cls-2" d="M741.3,585.17v27.15c0,2,0,4.27.16,5.8h-3.18l-.16-3.9H738a7.15,7.15,0,0,1-6.66,4.41c-4.73,0-8.36-4.59-8.36-11.42,0-7.47,4-12.07,8.76-12.07a6.36,6.36,0,0,1,5.89,3.44h.08V585.17Zm-3.55,19.63a8.35,8.35,0,0,0-.16-1.72c-.52-2.6-2.46-4.73-5.13-4.73-3.67,0-5.85,3.71-5.85,8.68,0,4.55,1.94,8.31,5.77,8.31,2.39,0,4.57-1.81,5.21-4.88a8.11,8.11,0,0,0,.16-1.76Z"/><path class="cls-2" d="M766.57,618.12l-.29-2.83h-.12a7,7,0,0,1-6,3.34c-4,0-6-3.2-6-6.45,0-5.43,4.2-8.4,11.75-8.36v-.46c0-1.86-.44-5.2-4.44-5.2a8.8,8.8,0,0,0-5.08,1.67l-.81-2.69a10.91,10.91,0,0,1,6.41-2c6,0,7.43,4.69,7.43,9.19v8.41a36.54,36.54,0,0,0,.32,5.38ZM766,606.66c-3.87-.1-8.27.69-8.27,5.06,0,2.64,1.53,3.89,3.35,3.89a5,5,0,0,0,4.72-3.76,4.82,4.82,0,0,0,.2-1.3Z"/><path class="cls-2" d="M775.2,601.74c0-2.32,0-4.23-.16-6.08h3.15l.2,3.71h.08a7.1,7.1,0,0,1,6.46-4.23c2.7,0,6.9,1.86,6.9,9.57v13.41h-3.55v-13c0-3.62-1.17-6.64-4.52-6.64-2.34,0-4.16,1.91-4.77,4.18a6.75,6.75,0,0,0-.24,1.9v13.51H775.2Z"/><path class="cls-2" d="M814.47,585.17v27.15c0,2,0,4.27.16,5.8h-3.19l-.16-3.9h-.08a7.14,7.14,0,0,1-6.66,4.41c-4.72,0-8.36-4.59-8.36-11.42,0-7.47,4-12.07,8.76-12.07a6.37,6.37,0,0,1,5.9,3.44h.08V585.17Zm-3.55,19.63a7.72,7.72,0,0,0-.17-1.72c-.52-2.6-2.46-4.73-5.12-4.73-3.67,0-5.85,3.71-5.85,8.68,0,4.55,1.93,8.31,5.77,8.31,2.38,0,4.56-1.81,5.2-4.88a7.51,7.51,0,0,0,.17-1.76Z"/><path class="cls-2" d="M820.36,602.66c0-2.64,0-4.92-.16-7h3.1l.13,4.4h.16c.88-3,3-4.92,5.41-4.92a3.4,3.4,0,0,1,1,.14v3.86a4.33,4.33,0,0,0-1.21-.14c-2.5,0-4.27,2.18-4.76,5.24a13.38,13.38,0,0,0-.16,1.91v12h-3.51Z"/><path class="cls-2" d="M835.13,607.63c.08,5.52,3.15,7.8,6.7,7.8a11.42,11.42,0,0,0,5.41-1.16l.6,2.92a14.06,14.06,0,0,1-6.5,1.39c-6,0-9.6-4.54-9.6-11.32s3.47-12.12,9.16-12.12c6.38,0,8.07,6.46,8.07,10.59a17.91,17.91,0,0,1-.12,1.9Zm10.41-2.92c0-2.6-.93-6.64-4.92-6.64-3.59,0-5.17,3.81-5.45,6.64Z"/><path class="cls-2" d="M852,615.71c0-1.72,1-2.93,2.42-2.93s2.38,1.21,2.38,2.93-.93,2.92-2.42,2.92S852,617.38,852,615.71Z"/></svg>
