<svg id="Layer_1" data-name="Layer 1" xmlns="http://www.w3.org/2000/svg" width="541.03" height="64.19" viewBox="0 0 541.03 64.19"><defs><style>.cls-1{fill:#3498db;}.cls-2{fill:#fcfcfc;}.cls-3{fill:#f1c40f;}.cls-4{fill:#e67e22;}.cls-5{fill:#ecf0f1;}.cls-6{fill:#2980b9;}</style></defs><title>Artboard 3</title><path class="cls-1" d="M16.56.19H524.47C533.61.19,541,3.89,541,8.44v47.5c0,4.56-7.42,8.25-16.56,8.25H16.56C7.42,64.19,0,60.5,0,55.94V8.44C0,3.89,7.42.19,16.56.19Z"/><path class="cls-2" d="M28.41,10.76V29.3a12.74,12.74,0,0,1-.4,3.42,5.47,5.47,0,0,1-1.28,2.38,5.36,5.36,0,0,1-2.3,1.4,11.12,11.12,0,0,1-3.51.47,7.63,7.63,0,0,1-3.6-.74,5.78,5.78,0,0,1-2.2-1.94A7.67,7.67,0,0,1,14,31.5a18.53,18.53,0,0,1-.28-3.28H16.2c0,.56.06,1.22.11,2a6.86,6.86,0,0,0,.51,2.2,4.12,4.12,0,0,0,1.42,1.78,4.81,4.81,0,0,0,2.9.74,6.39,6.39,0,0,0,2.37-.38A3.12,3.12,0,0,0,25,33.35a5.26,5.26,0,0,0,.75-2.07,17.45,17.45,0,0,0,.22-3V10.76Z"/><path class="cls-2" d="M33.63,20.77a5.24,5.24,0,0,1,1.56-1.94,6.56,6.56,0,0,1,2.33-1.12,11.25,11.25,0,0,1,2.95-.36,12.79,12.79,0,0,1,2.45.24,5.87,5.87,0,0,1,2.19.88,4.81,4.81,0,0,1,1.59,1.82,6.65,6.65,0,0,1,.61,3v9.86a1.19,1.19,0,0,0,1.33,1.37,1.89,1.89,0,0,0,.72-.14v1.9c-.26,0-.5.09-.7.11a5.66,5.66,0,0,1-.78,0,3.35,3.35,0,0,1-1.38-.24,1.77,1.77,0,0,1-.81-.66,2.54,2.54,0,0,1-.38-1,8.7,8.7,0,0,1-.09-1.31h-.07a15.6,15.6,0,0,1-1.24,1.6A6,6,0,0,1,42.5,36a6.49,6.49,0,0,1-1.76.72,10.58,10.58,0,0,1-4.79,0,5.41,5.41,0,0,1-2-1A4.56,4.56,0,0,1,32.64,34a5.52,5.52,0,0,1-.49-2.43,4.78,4.78,0,0,1,.87-3,5.34,5.34,0,0,1,2.28-1.67,12.57,12.57,0,0,1,3.21-.81c1.18-.16,2.39-.31,3.61-.45q.72-.08,1.26-.18a2.31,2.31,0,0,0,.9-.38,1.76,1.76,0,0,0,.56-.74,3.2,3.2,0,0,0,.2-1.22,4.15,4.15,0,0,0-.38-1.89,2.89,2.89,0,0,0-1-1.17,4.25,4.25,0,0,0-1.55-.6,10.32,10.32,0,0,0-1.89-.16,5.69,5.69,0,0,0-3.53,1,4,4,0,0,0-1.44,3.29H32.94A7.59,7.59,0,0,1,33.63,20.77ZM45,26.32a1.32,1.32,0,0,1-.83.57,7.36,7.36,0,0,1-1.08.25q-1.44.25-3,.45a16.46,16.46,0,0,0-2.79.6,5.42,5.42,0,0,0-2.07,1.13,2.71,2.71,0,0,0-.81,2.11A3.31,3.31,0,0,0,34.76,33a3.8,3.8,0,0,0,.92,1.15,4.11,4.11,0,0,0,1.33.74,4.84,4.84,0,0,0,1.55.25A7.63,7.63,0,0,0,41,34.7a5.8,5.8,0,0,0,2.07-1.15A5.43,5.43,0,0,0,45,29.27V26.32Z"/><path class="cls-2" d="M52.53,32.65h3v3.82h-3Zm.29-21.89h2.44v7.67l-.54,11.63H53.36l-.54-11.63Z"/><path class="cls-2" d="M61.2,32.65h3v3.82h-3Zm.29-21.89h2.45v7.67L63.4,30.06H62l-.54-11.63Z"/><path class="cls-2" d="M82.08,10.76V21.92H97.35V10.76H99.8V36.47H97.35V24H82.08V36.47H79.64V10.76Z"/><path class="cls-2" d="M105,20.77a5.36,5.36,0,0,1,1.57-1.94,6.51,6.51,0,0,1,2.32-1.12,11.3,11.3,0,0,1,2.95-.36,12.64,12.64,0,0,1,2.45.24,5.85,5.85,0,0,1,2.2.88,4.7,4.7,0,0,1,1.58,1.82,6.52,6.52,0,0,1,.61,3v9.86A1.2,1.2,0,0,0,120,34.56a1.89,1.89,0,0,0,.72-.14v1.9c-.27,0-.5.09-.7.11a5.75,5.75,0,0,1-.78,0,3.29,3.29,0,0,1-1.38-.24,1.77,1.77,0,0,1-.81-.66,2.4,2.4,0,0,1-.38-1,8.7,8.7,0,0,1-.09-1.31h-.07a15.63,15.63,0,0,1-1.25,1.6,6.18,6.18,0,0,1-1.4,1.17,6.77,6.77,0,0,1-1.76.72,9.65,9.65,0,0,1-2.36.25,9.41,9.41,0,0,1-2.43-.3,5.41,5.41,0,0,1-2-1A4.58,4.58,0,0,1,104,34a5.66,5.66,0,0,1-.48-2.43,4.84,4.84,0,0,1,.86-3,5.44,5.44,0,0,1,2.29-1.67,12.6,12.6,0,0,1,3.2-.81c1.19-.16,2.4-.31,3.62-.45q.72-.08,1.26-.18a2.31,2.31,0,0,0,.9-.38,1.76,1.76,0,0,0,.56-.74,3.2,3.2,0,0,0,.2-1.22,4.15,4.15,0,0,0-.38-1.89A2.89,2.89,0,0,0,115,20a4.25,4.25,0,0,0-1.55-.6,10.32,10.32,0,0,0-1.89-.16,5.69,5.69,0,0,0-3.53,1,4,4,0,0,0-1.44,3.29h-2.27A7.59,7.59,0,0,1,105,20.77Zm11.34,5.55a1.3,1.3,0,0,1-.82.57,7.36,7.36,0,0,1-1.08.25q-1.44.25-3,.45a16.46,16.46,0,0,0-2.79.6,5.42,5.42,0,0,0-2.07,1.13,2.71,2.71,0,0,0-.81,2.11,3.31,3.31,0,0,0,.34,1.53,3.65,3.65,0,0,0,.92,1.15,4,4,0,0,0,1.33.74,4.79,4.79,0,0,0,1.55.25,7.63,7.63,0,0,0,2.48-.4,6,6,0,0,0,2.07-1.15,5.39,5.39,0,0,0,1.4-1.83,5.54,5.54,0,0,0,.53-2.45V26.32Z"/><path class="cls-2" d="M125.32,17.89v4.36h.07a7.14,7.14,0,0,1,2.68-3.49,7,7,0,0,1,4.34-1.12v2.27a6.9,6.9,0,0,0-2.81.41,6.5,6.5,0,0,0-2.18,1.39A6.31,6.31,0,0,0,126,23.85a7.27,7.27,0,0,0-.5,2.72v9.9h-2.27V17.89Z"/><path class="cls-2" d="M159.82,38.66a7.17,7.17,0,0,1-1.42,2.81,6.19,6.19,0,0,1-2.54,1.77,10.72,10.72,0,0,1-3.83.61,11.36,11.36,0,0,1-2.74-.33,7.85,7.85,0,0,1-2.39-1,5.87,5.87,0,0,1-1.76-1.75,5.16,5.16,0,0,1-.81-2.54h2.26a4,4,0,0,0,2,2.88,5.42,5.42,0,0,0,1.63.63,8.71,8.71,0,0,0,1.84.2c2.11,0,3.64-.6,4.57-1.8A8.26,8.26,0,0,0,158,35V32.44h-.08a6.6,6.6,0,0,1-2.32,2.77,6.23,6.23,0,0,1-3.58,1,8.89,8.89,0,0,1-3.82-.74,7.2,7.2,0,0,1-2.61-2,8.31,8.31,0,0,1-1.49-3,14.49,14.49,0,0,1-.47-3.73,11.67,11.67,0,0,1,.56-3.62,8.85,8.85,0,0,1,1.62-3,7.42,7.42,0,0,1,2.63-2,8.33,8.33,0,0,1,3.58-.74,6.54,6.54,0,0,1,2,.29,6.22,6.22,0,0,1,1.68.81A7.4,7.4,0,0,1,157,19.66a5.28,5.28,0,0,1,.91,1.44H158V17.89h2.26V35A14.1,14.1,0,0,1,159.82,38.66Zm-5.2-4.95a5.82,5.82,0,0,0,1.87-1.65,7.19,7.19,0,0,0,1.14-2.36A10.07,10.07,0,0,0,158,27a11.58,11.58,0,0,0-.33-2.73,7.87,7.87,0,0,0-1-2.49,5.71,5.71,0,0,0-1.86-1.8,5.26,5.26,0,0,0-2.75-.68,5.39,5.39,0,0,0-2.77.67,5.8,5.8,0,0,0-1.91,1.74,7.4,7.4,0,0,0-1.1,2.47,11.58,11.58,0,0,0-.34,2.82,10.46,10.46,0,0,0,.36,2.74,7,7,0,0,0,1.12,2.36,5.82,5.82,0,0,0,1.9,1.65,5.63,5.63,0,0,0,2.74.63A5.18,5.18,0,0,0,154.62,33.71Z"/><path class="cls-2" d="M166.27,30.33a6.91,6.91,0,0,0,1.1,2.36,6.44,6.44,0,0,0,1.9,1.73,6.26,6.26,0,0,0,6.66-.62,6.76,6.76,0,0,0,1.95-3.45h2.27a9.07,9.07,0,0,1-2.65,4.89A7.84,7.84,0,0,1,172.05,37a8.73,8.73,0,0,1-3.8-.77,7,7,0,0,1-2.61-2.13,9.37,9.37,0,0,1-1.5-3.13,14.4,14.4,0,0,1-.48-3.76,13.69,13.69,0,0,1,.48-3.6,9.76,9.76,0,0,1,1.5-3.15,7.46,7.46,0,0,1,2.61-2.23,8,8,0,0,1,3.8-.85,7.36,7.36,0,0,1,6.39,3.26A9.8,9.8,0,0,1,179.86,24a14.52,14.52,0,0,1,.36,3.83H165.93A10,10,0,0,0,166.27,30.33ZM177.5,23.4a7.11,7.11,0,0,0-1.17-2.11,5.75,5.75,0,0,0-1.84-1.47,5.25,5.25,0,0,0-2.44-.56,5.37,5.37,0,0,0-2.49.56,5.71,5.71,0,0,0-1.83,1.47,7.29,7.29,0,0,0-1.21,2.13,10,10,0,0,0-.59,2.46h12A7.94,7.94,0,0,0,177.5,23.4Z"/><path class="cls-2" d="M185.37,17.89V21h.1a7.16,7.16,0,0,1,2.36-2.7,6.67,6.67,0,0,1,3.73-1,6.35,6.35,0,0,1,3.33.9,4.44,4.44,0,0,1,2,2.74,5.66,5.66,0,0,1,2.44-2.74,7,7,0,0,1,3.46-.9q6.15,0,6.16,6.52v12.6h-2.27V24a5.52,5.52,0,0,0-1-3.51,4.16,4.16,0,0,0-3.42-1.21,4.88,4.88,0,0,0-2.45.56,4.26,4.26,0,0,0-1.55,1.49,6.61,6.61,0,0,0-.81,2.14,12.88,12.88,0,0,0-.23,2.51V36.47H195V23.87a7.83,7.83,0,0,0-.2-1.78,4.07,4.07,0,0,0-.65-1.48,3.08,3.08,0,0,0-1.2-1,4.28,4.28,0,0,0-1.84-.36,5.58,5.58,0,0,0-2.5.52,4.6,4.6,0,0,0-1.73,1.44,6.5,6.5,0,0,0-1,2.16,10.63,10.63,0,0,0-.32,2.72V36.47h-2.27V17.89Z"/><path class="cls-2" d="M220.64,17.89V19.8h-3.78V32.33a4.11,4.11,0,0,0,.31,1.74c.2.42.72.66,1.53.71a17.88,17.88,0,0,0,1.94-.11v1.91c-.33,0-.67,0-1,0s-.68,0-1,0a4.53,4.53,0,0,1-3.17-.88,4.43,4.43,0,0,1-.86-3.26V19.8h-3.24V17.89h3.24V12.31h2.26v5.58Z"/><path class="cls-2" d="M248.18,36.47V32.94h-.07a5.38,5.38,0,0,1-1.06,1.66,6.79,6.79,0,0,1-1.6,1.27,8,8,0,0,1-1.93.81,7.17,7.17,0,0,1-2,.29,8.3,8.3,0,0,1-3.69-.77,7.34,7.34,0,0,1-2.61-2.13,9.09,9.09,0,0,1-1.55-3.13,14.39,14.39,0,0,1,0-7.52,9.09,9.09,0,0,1,1.55-3.13,7.5,7.5,0,0,1,2.61-2.15,8.16,8.16,0,0,1,3.69-.79,8.61,8.61,0,0,1,2,.25,6.92,6.92,0,0,1,1.86.78,6.68,6.68,0,0,1,1.53,1.28,5.39,5.39,0,0,1,1,1.76H248V10.76h2.27V36.47ZM235.75,30a7.53,7.53,0,0,0,1.08,2.54,6,6,0,0,0,1.89,1.82,5.18,5.18,0,0,0,2.77.7,5.82,5.82,0,0,0,5.06-2.52A7.58,7.58,0,0,0,247.66,30a12.2,12.2,0,0,0,0-5.72,7.58,7.58,0,0,0-1.11-2.54,5.82,5.82,0,0,0-5.06-2.52,5.18,5.18,0,0,0-2.77.7,6,6,0,0,0-1.89,1.82,7.53,7.53,0,0,0-1.08,2.54,11.86,11.86,0,0,0,0,5.72Z"/><path class="cls-2" d="M256.27,30.33a6.89,6.89,0,0,0,1.09,2.36,6.48,6.48,0,0,0,1.91,1.73,5.39,5.39,0,0,0,2.77.68,5.48,5.48,0,0,0,3.89-1.3,6.76,6.76,0,0,0,1.95-3.45h2.26a9.06,9.06,0,0,1-2.64,4.89A7.87,7.87,0,0,1,262,37a8.69,8.69,0,0,1-3.79-.77,7,7,0,0,1-2.61-2.13,9.18,9.18,0,0,1-1.5-3.13,14.4,14.4,0,0,1-.48-3.76,13.69,13.69,0,0,1,.48-3.6,9.56,9.56,0,0,1,1.5-3.15,7.46,7.46,0,0,1,2.61-2.23,7.91,7.91,0,0,1,3.79-.85,7.33,7.33,0,0,1,6.39,3.26A9.82,9.82,0,0,1,269.86,24a15.41,15.41,0,0,1,.36,3.83h-14.3A10,10,0,0,0,256.27,30.33ZM267.5,23.4a7.11,7.11,0,0,0-1.17-2.11,5.86,5.86,0,0,0-1.84-1.47,5.27,5.27,0,0,0-2.45-.56,5.36,5.36,0,0,0-2.48.56,5.86,5.86,0,0,0-1.84,1.47,7.49,7.49,0,0,0-1.2,2.13,10.53,10.53,0,0,0-.6,2.46h12A8.56,8.56,0,0,0,267.5,23.4Z"/><path class="cls-2" d="M280.66,17.89V19.8h-3.78V32.33a4.12,4.12,0,0,0,.3,1.74c.21.42.72.66,1.53.71a18.21,18.21,0,0,0,2-.11v1.91c-.34,0-.68,0-1,0s-.68,0-1,0a4.53,4.53,0,0,1-3.17-.88,4.43,4.43,0,0,1-.86-3.26V19.8h-3.24V17.89h3.24V12.31h2.27v5.58Z"/><path class="cls-2" d="M284.61,32.65h3v3.82h-3Zm.29-21.89h2.45v7.67l-.54,11.63h-1.37l-.54-11.63Z"/><path class="cls-2" d="M293.29,32.65h3v3.82h-3Zm.29-21.89H296v7.67l-.54,11.63h-1.37l-.54-11.63Z"/><circle class="cls-3" cx="331.66" cy="28.19" r="27.5"/><path class="cls-4" d="M350,18.62c-1.12.59-8.4-2.72-7.79-3.52.34-.46,3.47-.35,5.59.73C349.58,16.74,350.59,18.3,350,18.62Z"/><path class="cls-4" d="M314.33,17.62c1.12.59,8.4-2.72,7.79-3.52-.34-.46-3.47-.35-5.59.73C314.74,15.74,313.73,17.3,314.33,17.62Z"/><path class="cls-4" d="M312.92,25.87a7.45,7.45,0,0,1,2.93-3.42,7.92,7.92,0,0,1,8.07.24c1.72,1,3.34,3,2.93,3.67s-3.24-.74-7.82-1A23.24,23.24,0,0,0,312.92,25.87Z"/><path class="cls-4" d="M347.78,25.87a7.45,7.45,0,0,0-2.93-3.42,7.92,7.92,0,0,0-8.07.24c-1.72,1-3.34,3-2.93,3.67s3.24-.74,7.82-1A23.24,23.24,0,0,1,347.78,25.87Z"/><path class="cls-4" d="M312.23,31.49c-.17.16-.5.66.38,2.9a18.27,18.27,0,0,0,3.28,5.41c3.15,3.53,4.72,5.32,6.6,6.36a18,18,0,0,0,11.25,2,18.92,18.92,0,0,0,8.8-3.91,25,25,0,0,0,5.62-6.11c2.26-3.15,3.52-4.91,2.93-5.87-.89-1.47-5,.75-13.2,1.47a71,71,0,0,1-13.2-.24c-4.57-.43-6.86-.64-8.8-1.23S312.74,31,312.23,31.49Z"/><path class="cls-5" d="M312,31.49c-.39.53,1.37,2.66,3.18,4.16a18.49,18.49,0,0,0,8.07,3.66c3.45.76,6,.58,10.51.25,6.5-.48,9.62-1.62,10.51-2a14.43,14.43,0,0,0,5.91-3.87c.89-1,1.73-2,1.46-2.44-.61-1.14-5.95,2.06-14.18,2.93-2.19.23-5.61.07-12.46-.25-4.71-.21-6.25-.43-8.07-1C314.08,32.12,312.32,31,312,31.49Z"/><path class="cls-6" d="M342.29,24.4c-1,.77,1,3.19,1.47,9.53.22,3.37-.24,4.45.73,6.36.25.49,1.93,3.64,5.38,4.16a6,6,0,0,0,7-4.78c0-.2.06-.4.08-.6a7.55,7.55,0,0,0-1-4.89A9.22,9.22,0,0,0,352.78,31C344.74,25.69,343.16,23.69,342.29,24.4Z"/><path class="cls-5" d="M344.89,27.79c-.23.13-.23.39.16,4.42.1.94.15,1.41.5,1.8a2.62,2.62,0,0,0,3.11.32A2.5,2.5,0,0,0,350,32.21c0-.38-.15-.9-1.48-2.13S345.59,27.37,344.89,27.79Z"/><path class="cls-6" d="M319.36,24.4c1,.77-1.05,3.19-1.47,9.53-.22,3.37.25,4.45-.73,6.36a7.72,7.72,0,0,1-5.38,4.16,6.35,6.35,0,0,1-4.89-1.23,6.45,6.45,0,0,1-2.2-4.15,7.63,7.63,0,0,1,1-4.89A9.22,9.22,0,0,1,308.87,31C316.91,25.69,318.46,23.69,319.36,24.4Z"/><path class="cls-5" d="M316.76,27.79c.23.13.23.39-.16,4.42a3,3,0,0,1-.49,1.8,2.62,2.62,0,0,1-3.11.32,2.44,2.44,0,0,1-1.31-2.12c0-.38.15-.9,1.47-2.13S316.07,27.37,316.76,27.79Z"/><circle class="cls-3" cx="389.98" cy="27.5" r="27.5"/><path class="cls-4" d="M408.31,17.93c-1.12.59-8.4-2.72-7.79-3.52.34-.46,3.47-.35,5.59.73C407.9,16.05,408.91,17.61,408.31,17.93Z"/><path class="cls-4" d="M372.65,16.93c1.12.59,8.4-2.72,7.79-3.52-.34-.46-3.47-.35-5.59.73C373.06,15.05,372.05,16.61,372.65,16.93Z"/><path class="cls-4" d="M371.24,25.18a7.4,7.4,0,0,1,2.93-3.42,7.92,7.92,0,0,1,8.07.24c1.72,1,3.34,3,2.93,3.67s-3.24-.74-7.82-1A23.21,23.21,0,0,0,371.24,25.18Z"/><path class="cls-4" d="M406.1,25.18a7.45,7.45,0,0,0-2.93-3.42,7.92,7.92,0,0,0-8.07.24c-1.72,1-3.34,3-2.93,3.67s3.24-.74,7.82-1A23.24,23.24,0,0,1,406.1,25.18Z"/><path class="cls-4" d="M370.55,30.8c-.17.16-.5.66.38,2.9a18.27,18.27,0,0,0,3.28,5.41c3.15,3.53,4.72,5.32,6.6,6.36a18,18,0,0,0,11.25,2,19,19,0,0,0,8.8-3.91,25,25,0,0,0,5.62-6.11c2.26-3.15,3.52-4.91,2.93-5.87-.89-1.47-5,.75-13.2,1.47a71,71,0,0,1-13.2-.24c-4.57-.43-6.86-.64-8.8-1.23S371.06,30.3,370.55,30.8Z"/><path class="cls-5" d="M370.3,30.8c-.39.53,1.37,2.66,3.18,4.16a18.6,18.6,0,0,0,8.07,3.66c3.45.76,6,.58,10.51.25,6.5-.48,9.62-1.62,10.51-2A14.43,14.43,0,0,0,408.48,33c.89-1,1.73-2,1.46-2.44-.61-1.14-5.95,2.06-14.18,2.93-2.19.23-5.61.07-12.46-.25-4.71-.21-6.25-.43-8.07-1C372.4,31.43,370.64,30.34,370.3,30.8Z"/><path class="cls-6" d="M400.61,23.71c-1,.77,1.05,3.19,1.47,9.53.22,3.37-.24,4.45.73,6.36.25.49,1.93,3.64,5.38,4.16a6,6,0,0,0,7-4.78c0-.2.06-.4.08-.6a7.54,7.54,0,0,0-1-4.89,9.13,9.13,0,0,0-3.18-3.18C403.06,25,401.48,23,400.61,23.71Z"/><path class="cls-5" d="M403.21,27.1c-.23.13-.23.39.16,4.42.1.94.15,1.41.5,1.8a2.62,2.62,0,0,0,3.11.32,2.52,2.52,0,0,0,1.31-2.12c0-.38-.15-.9-1.48-2.13S403.91,26.68,403.21,27.1Z"/><path class="cls-6" d="M377.68,23.71c1,.77-1.05,3.19-1.47,9.53-.22,3.37.25,4.45-.73,6.36a7.75,7.75,0,0,1-5.38,4.16,6.39,6.39,0,0,1-4.89-1.23,6.47,6.47,0,0,1-2.2-4.15,7.6,7.6,0,0,1,1-4.89,9.13,9.13,0,0,1,3.18-3.18C375.23,25,376.78,23,377.68,23.71Z"/><path class="cls-5" d="M375.08,27.1c.23.13.23.39-.16,4.42a3,3,0,0,1-.49,1.8,2.62,2.62,0,0,1-3.11.32A2.46,2.46,0,0,1,370,31.52c0-.38.15-.9,1.47-2.13S374.39,26.68,375.08,27.1Z"/><circle class="cls-3" cx="450.61" cy="28.19" r="27.5"/><path class="cls-4" d="M468.94,18.62c-1.12.59-8.4-2.72-7.79-3.52.34-.46,3.47-.35,5.59.73C468.53,16.74,469.54,18.3,468.94,18.62Z"/><path class="cls-4" d="M433.28,17.62c1.12.59,8.4-2.72,7.79-3.52-.34-.46-3.47-.35-5.59.73C433.69,15.74,432.68,17.3,433.28,17.62Z"/><path class="cls-4" d="M431.87,25.87a7.45,7.45,0,0,1,2.93-3.42,7.92,7.92,0,0,1,8.07.24c1.72,1,3.34,3,2.93,3.67s-3.24-.74-7.82-1A23.21,23.21,0,0,0,431.87,25.87Z"/><path class="cls-4" d="M466.73,25.87a7.51,7.51,0,0,0-2.93-3.42,7.92,7.92,0,0,0-8.07.24c-1.72,1-3.34,3-2.93,3.67s3.24-.74,7.82-1A23.24,23.24,0,0,1,466.73,25.87Z"/><path class="cls-4" d="M431.18,31.49c-.17.16-.5.66.38,2.9a18.27,18.27,0,0,0,3.28,5.41c3.15,3.53,4.72,5.32,6.6,6.36a18,18,0,0,0,11.25,2,18.92,18.92,0,0,0,8.8-3.91,25,25,0,0,0,5.62-6.11c2.26-3.15,3.52-4.91,2.93-5.87-.89-1.47-5,.75-13.2,1.47a71,71,0,0,1-13.2-.24c-4.57-.43-6.86-.64-8.8-1.23S431.69,31,431.18,31.49Z"/><path class="cls-5" d="M430.93,31.49c-.39.53,1.37,2.66,3.18,4.16a18.44,18.44,0,0,0,8.07,3.66c3.45.76,6,.58,10.51.25,6.5-.48,9.62-1.62,10.51-2a14.43,14.43,0,0,0,5.91-3.87c.89-1,1.73-2,1.46-2.44-.61-1.14-5.95,2.06-14.18,2.93-2.19.23-5.61.07-12.46-.25-4.71-.21-6.25-.43-8.07-1C433,32.12,431.27,31,430.93,31.49Z"/><path class="cls-6" d="M461.24,24.4c-1,.77,1.05,3.19,1.47,9.53.22,3.37-.24,4.45.73,6.36.25.49,1.93,3.64,5.38,4.16a6,6,0,0,0,7-4.78c0-.2.06-.4.08-.6a7.55,7.55,0,0,0-1-4.89A9.22,9.22,0,0,0,471.73,31C463.69,25.69,462.11,23.69,461.24,24.4Z"/><path class="cls-5" d="M463.84,27.79c-.23.13-.23.39.16,4.42.1.94.15,1.41.5,1.8a2.62,2.62,0,0,0,3.11.32,2.5,2.5,0,0,0,1.31-2.12c0-.38-.15-.9-1.48-2.13S464.54,27.37,463.84,27.79Z"/><path class="cls-6" d="M438.31,24.4c1,.77-1.05,3.19-1.47,9.53-.22,3.37.25,4.45-.73,6.36a7.72,7.72,0,0,1-5.38,4.16,6,6,0,0,1-7.09-5.38,7.63,7.63,0,0,1,1-4.89A9.22,9.22,0,0,1,427.82,31C435.86,25.69,437.41,23.69,438.31,24.4Z"/><path class="cls-5" d="M435.71,27.79c.23.13.23.39-.16,4.42a3,3,0,0,1-.49,1.8,2.62,2.62,0,0,1-3.11.32,2.44,2.44,0,0,1-1.31-2.12c0-.38.15-.9,1.47-2.13S435,27.37,435.71,27.79Z"/></svg>