<svg id="Layer_1" data-name="Layer 1" xmlns="http://www.w3.org/2000/svg" width="220" height="165" viewBox="0 0 220 165"><defs><style>.cls-1{fill:#2c3e50;}.cls-2{opacity:0.5;}.cls-3{fill:#34495e;}</style></defs><title>ja</title><path class="cls-1" d="M103,55.72V91.77a25.37,25.37,0,0,1-.77,6.65A10.83,10.83,0,0,1,99.78,103a10.42,10.42,0,0,1-4.48,2.73,22,22,0,0,1-6.82.91,15.07,15.07,0,0,1-7-1.43,11.24,11.24,0,0,1-4.27-3.78A14.33,14.33,0,0,1,75.11,96a34.87,34.87,0,0,1-.56-6.37h4.76c0,1.08.11,2.36.21,3.85a13.1,13.1,0,0,0,1,4.27,8.21,8.21,0,0,0,2.76,3.47,9.31,9.31,0,0,0,5.64,1.43,12.5,12.5,0,0,0,4.62-.73,6.13,6.13,0,0,0,2.87-2.31,10.34,10.34,0,0,0,1.47-4,35.33,35.33,0,0,0,.42-5.88v-34Z"/><path class="cls-1" d="M133.07,55.72l19.6,50h-5.11l-6.09-15.54H118.72l-6,15.54h-5l20.09-50Zm6.79,30.38L130.2,60.48l-10,25.62Z"/><g class="cls-2"><rect class="cls-3" x="6.16" y="-0.02" width="212.68" height="165.03" rx="82.52"/></g></svg>
