<svg id="Layer_1" data-name="Layer 1" xmlns="http://www.w3.org/2000/svg" width="536.87" height="79.6" viewBox="0 0 536.87 79.6"><defs><style>.cls-1{fill:#3498db;}.cls-2{fill:#f1c40f;}.cls-3{fill:#e67e22;}.cls-4{fill:#ecf0f1;}.cls-5{fill:#2980b9;}.cls-6{fill:#fcfcfc;}</style></defs><title>ja_besked</title><path class="cls-1" d="M13,0H517.68c6.63,0,12,2.05,12,4.58V75.16c0,2.53-5.37,4.58-12,4.58H13c-6.63,0-12-2-12-4.58V4.58C1,2.05,6.37,0,13,0Z"/><polygon class="cls-1" points="513.48 79.6 525.68 66.74 537.87 79.6 513.48 79.6"/><circle class="cls-2" cx="392.73" cy="31.5" r="27.5"/><path class="cls-3" d="M411.06,21.93c-1.12.59-8.4-2.72-7.79-3.52.34-.46,3.47-.35,5.59.73C410.65,20.05,411.66,21.61,411.06,21.93Z"/><path class="cls-3" d="M375.4,20.93c1.12.59,8.4-2.72,7.79-3.52-.34-.46-3.47-.35-5.59.73C375.81,19.05,374.8,20.61,375.4,20.93Z"/><path class="cls-3" d="M374,29.18a7.34,7.34,0,0,1,2.93-3.42A7.92,7.92,0,0,1,385,26c1.72,1,3.34,3,2.93,3.67s-3.24-.74-7.82-1A23.21,23.21,0,0,0,374,29.18Z"/><path class="cls-3" d="M408.85,29.18a7.57,7.57,0,0,0-2.93-3.42,7.91,7.91,0,0,0-8.07.24c-1.72,1-3.34,3-2.93,3.67s3.24-.74,7.82-1A23.24,23.24,0,0,1,408.85,29.18Z"/><path class="cls-3" d="M373.3,34.8c-.17.16-.5.66.38,2.9A18.27,18.27,0,0,0,377,43.11c3.15,3.53,4.72,5.32,6.6,6.36a18,18,0,0,0,11.25,2,19.11,19.11,0,0,0,8.8-3.91,25,25,0,0,0,5.62-6.11c2.26-3.15,3.52-4.91,2.93-5.87-.89-1.47-5,.75-13.2,1.47a71,71,0,0,1-13.2-.24c-4.57-.43-6.86-.64-8.8-1.23S373.81,34.3,373.3,34.8Z"/><path class="cls-4" d="M373.05,34.8c-.39.53,1.37,2.66,3.18,4.16a18.55,18.55,0,0,0,8.07,3.66c3.45.76,6,.58,10.51.25,6.5-.48,9.62-1.62,10.51-2A14.56,14.56,0,0,0,411.23,37c.89-1,1.73-2,1.46-2.44-.61-1.14-5.95,2.06-14.18,2.93-2.19.23-5.61.07-12.46-.25-4.71-.21-6.25-.43-8.07-1C375.15,35.43,373.39,34.34,373.05,34.8Z"/><path class="cls-5" d="M403.36,27.71c-1,.77,1.05,3.19,1.47,9.53.22,3.37-.24,4.45.73,6.36.25.49,1.93,3.64,5.38,4.16a6,6,0,0,0,7-4.78q.06-.3.09-.6a7.6,7.6,0,0,0-1-4.89,9.22,9.22,0,0,0-3.18-3.18C405.81,29,404.23,27,403.36,27.71Z"/><path class="cls-4" d="M406,31.1c-.23.13-.23.39.16,4.42.1.94.15,1.41.5,1.8a2.62,2.62,0,0,0,3.11.32A2.54,2.54,0,0,0,411,35.52c0-.38-.15-.9-1.48-2.13S406.66,30.68,406,31.1Z"/><path class="cls-5" d="M380.43,27.71c1,.77-1.05,3.19-1.47,9.53-.22,3.37.25,4.45-.73,6.36a7.77,7.77,0,0,1-5.38,4.16,6,6,0,0,1-7.09-5.38,7.54,7.54,0,0,1,1-4.89,9.05,9.05,0,0,1,3.18-3.18C378,29,379.53,27,380.43,27.71Z"/><path class="cls-4" d="M377.83,31.1c.23.13.23.39-.16,4.42a3,3,0,0,1-.49,1.8,2.63,2.63,0,0,1-3.11.32,2.46,2.46,0,0,1-1.31-2.12c0-.38.15-.9,1.47-2.13S377.14,30.68,377.83,31.1Z"/><path class="cls-6" d="M16.05,25.66a12.47,12.47,0,0,1,2.27-4.26,11,11,0,0,1,3.8-3,12.14,12.14,0,0,1,5.31-1.09,12,12,0,0,1,5.29,1.09,11.08,11.08,0,0,1,3.78,3,12.82,12.82,0,0,1,2.27,4.26,17.55,17.55,0,0,1,0,10.15,12.68,12.68,0,0,1-2.27,4.25A11.15,11.15,0,0,1,32.72,43a12,12,0,0,1-5.29,1.09A12.14,12.14,0,0,1,22.12,43a11,11,0,0,1-3.8-2.94,12.33,12.33,0,0,1-2.27-4.25,17.32,17.32,0,0,1,0-10.15Zm2.25,9.2A11,11,0,0,0,20,38.5a8.81,8.81,0,0,0,3,2.57,9.28,9.28,0,0,0,4.4,1,9.13,9.13,0,0,0,4.37-1,8.87,8.87,0,0,0,3-2.57,11.23,11.23,0,0,0,1.73-3.64,15.78,15.78,0,0,0,0-8.26A11.23,11.23,0,0,0,34.79,23a8.66,8.66,0,0,0-3-2.57,9.13,9.13,0,0,0-4.37-1,9.28,9.28,0,0,0-4.4,1A8.6,8.6,0,0,0,20,23,11,11,0,0,0,18.3,26.6a15.51,15.51,0,0,0,0,8.26Z"/><path class="cls-6" d="M45,25v3.14h.11a7,7,0,0,1,2.36-2.7,6.56,6.56,0,0,1,3.73-1,6.29,6.29,0,0,1,3.32.9,4.4,4.4,0,0,1,2,2.74A5.72,5.72,0,0,1,59,25.37a7,7,0,0,1,3.46-.9q6.15,0,6.15,6.52v12.6H66.3V31.1a5.46,5.46,0,0,0-1-3.51,4.15,4.15,0,0,0-3.42-1.21,4.91,4.91,0,0,0-2.45.56,4.31,4.31,0,0,0-1.54,1.49,6.16,6.16,0,0,0-.81,2.15,12.7,12.7,0,0,0-.24,2.5V43.59H54.61V31a7.89,7.89,0,0,0-.2-1.78,4.07,4.07,0,0,0-.65-1.48,3,3,0,0,0-1.21-1,4.2,4.2,0,0,0-1.83-.36,5.77,5.77,0,0,0-2.51.52,4.65,4.65,0,0,0-1.72,1.44,6.29,6.29,0,0,0-1,2.16,10.62,10.62,0,0,0-.33,2.72V43.59H42.91V25Z"/><path class="cls-6" d="M88.14,45.79a7.27,7.27,0,0,1-1.42,2.8,6.26,6.26,0,0,1-2.54,1.77,10.56,10.56,0,0,1-3.84.61,11.85,11.85,0,0,1-2.73-.32,8.07,8.07,0,0,1-2.4-1,6.11,6.11,0,0,1-1.76-1.75,5.16,5.16,0,0,1-.81-2.54h2.27a4,4,0,0,0,.7,1.75,4.11,4.11,0,0,0,1.26,1.13,5.48,5.48,0,0,0,1.64.63,8,8,0,0,0,1.83.2c2.12,0,3.64-.6,4.58-1.8a8.32,8.32,0,0,0,1.4-5.18V39.56h-.07a6.67,6.67,0,0,1-2.32,2.77,6.19,6.19,0,0,1-3.59,1,9,9,0,0,1-3.81-.73,7.06,7.06,0,0,1-2.61-2,8.33,8.33,0,0,1-1.5-3A14.44,14.44,0,0,1,72,33.83a11.6,11.6,0,0,1,.55-3.61,9.26,9.26,0,0,1,1.62-3,7.63,7.63,0,0,1,2.63-2,8.36,8.36,0,0,1,3.58-.74,6.66,6.66,0,0,1,2,.29,6,6,0,0,1,1.67.81,7.4,7.4,0,0,1,1.35,1.21,5.32,5.32,0,0,1,.92,1.44h.07V25h2.27V42.08A14.18,14.18,0,0,1,88.14,45.79Zm-5.2-4.95a6.07,6.07,0,0,0,1.87-1.66,7.27,7.27,0,0,0,1.13-2.36,10.05,10.05,0,0,0,.38-2.73A12.13,12.13,0,0,0,86,31.35a8,8,0,0,0-1-2.48,5.58,5.58,0,0,0-1.85-1.8,5.23,5.23,0,0,0-2.76-.69,5.39,5.39,0,0,0-2.77.67,5.9,5.9,0,0,0-1.91,1.74,7.27,7.27,0,0,0-1.09,2.47,11.67,11.67,0,0,0-.35,2.83,10.44,10.44,0,0,0,.36,2.73,7.06,7.06,0,0,0,1.12,2.36,5.79,5.79,0,0,0,1.91,1.66,5.62,5.62,0,0,0,2.73.63A5.21,5.21,0,0,0,82.94,40.84Z"/><path class="cls-6" d="M105.22,25V45.28a11.34,11.34,0,0,1-.16,2,4.4,4.4,0,0,1-.61,1.64A3.25,3.25,0,0,1,103.22,50a4.19,4.19,0,0,1-2,.41,6.51,6.51,0,0,1-.77,0c-.26,0-.51,0-.78,0V48.49l.61,0a2.69,2.69,0,0,0,.58,0c.89,0,1.45-.26,1.69-.77a4.59,4.59,0,0,0,.36-1.93V25Zm0-7.12v3.63H103V17.89Z"/><path class="cls-6" d="M110,27.89A5.36,5.36,0,0,1,111.61,26a6.68,6.68,0,0,1,2.32-1.12,11.3,11.3,0,0,1,2.95-.36,12.64,12.64,0,0,1,2.45.24,5.85,5.85,0,0,1,2.2.88,4.79,4.79,0,0,1,1.58,1.82,6.52,6.52,0,0,1,.61,3v9.86a1.2,1.2,0,0,0,1.34,1.37,1.89,1.89,0,0,0,.72-.14v1.91l-.71.1a5.5,5.5,0,0,1-.77,0,3.56,3.56,0,0,1-1.39-.23,2,2,0,0,1-.81-.67,2.53,2.53,0,0,1-.37-1,8.7,8.7,0,0,1-.09-1.31h-.08a14.31,14.31,0,0,1-1.24,1.6,6.18,6.18,0,0,1-1.4,1.17,6.7,6.7,0,0,1-1.77.72,9.51,9.51,0,0,1-2.35.25,9.41,9.41,0,0,1-2.43-.3,5.55,5.55,0,0,1-2-1,4.7,4.7,0,0,1-1.34-1.7,5.66,5.66,0,0,1-.48-2.43,4.84,4.84,0,0,1,.86-3A5.44,5.44,0,0,1,111.72,34a12.49,12.49,0,0,1,3.2-.81c1.19-.16,2.4-.31,3.62-.45q.72-.07,1.26-.18a2.17,2.17,0,0,0,.9-.38,1.76,1.76,0,0,0,.56-.74,3.2,3.2,0,0,0,.2-1.22,4.15,4.15,0,0,0-.38-1.89,3,3,0,0,0-1-1.17,4.2,4.2,0,0,0-1.54-.6,11.28,11.28,0,0,0-1.89-.16,5.69,5.69,0,0,0-3.53,1,4,4,0,0,0-1.44,3.29h-2.27A7.64,7.64,0,0,1,110,27.89Zm11.34,5.55a1.3,1.3,0,0,1-.82.57,9.17,9.17,0,0,1-1.08.26q-1.44.24-3,.45a16.49,16.49,0,0,0-2.79.59,5.42,5.42,0,0,0-2.07,1.13,2.73,2.73,0,0,0-.81,2.11,3.25,3.25,0,0,0,.34,1.53,3.65,3.65,0,0,0,.92,1.15,3.84,3.84,0,0,0,1.33.74,4.79,4.79,0,0,0,1.55.25,7.9,7.9,0,0,0,2.48-.39,6.17,6.17,0,0,0,2.07-1.16,5.39,5.39,0,0,0,1.4-1.83,5.54,5.54,0,0,0,.53-2.45v-3Z"/><path class="cls-6" d="M132.62,43.59a6.44,6.44,0,0,1-.2,1.57,5.35,5.35,0,0,1-.6,1.44,4.6,4.6,0,0,1-1,1.17,3.64,3.64,0,0,1-1.38.72V46.94a1.64,1.64,0,0,0,.75-.54,3.78,3.78,0,0,0,.54-.88,4.07,4.07,0,0,0,.31-1,3.33,3.33,0,0,0,0-.92h-1.51V39.77h3Z"/><path class="cls-6" d="M150.51,17.89V28.22h.07a5.42,5.42,0,0,1,2.3-2.72,6.84,6.84,0,0,1,3.64-1,9.07,9.07,0,0,1,3.26.51,5.08,5.08,0,0,1,2.1,1.42A5.3,5.3,0,0,1,163,28.65a13,13,0,0,1,.32,3v12h-2.26V32a11.14,11.14,0,0,0-.22-2.22,4.69,4.69,0,0,0-.76-1.78,3.67,3.67,0,0,0-1.46-1.19,5.45,5.45,0,0,0-2.28-.43,5.7,5.7,0,0,0-2.43.49,5.22,5.22,0,0,0-1.8,1.33,6.05,6.05,0,0,0-1.15,2,7.94,7.94,0,0,0-.45,2.53V43.59h-2.27V17.89Z"/><path class="cls-6" d="M168.08,27.89A5.24,5.24,0,0,1,169.64,26,6.77,6.77,0,0,1,172,24.83a11.32,11.32,0,0,1,3-.36,12.61,12.61,0,0,1,2.44.24,5.85,5.85,0,0,1,2.2.88,4.7,4.7,0,0,1,1.58,1.82,6.52,6.52,0,0,1,.61,3v9.86a1.2,1.2,0,0,0,1.34,1.37,1.89,1.89,0,0,0,.72-.14v1.91l-.7.1a5.75,5.75,0,0,1-.78,0,3.47,3.47,0,0,1-1.38-.23,1.86,1.86,0,0,1-.81-.67,2.4,2.4,0,0,1-.38-1,8.7,8.7,0,0,1-.09-1.31h-.07a15.63,15.63,0,0,1-1.25,1.6,6.18,6.18,0,0,1-1.4,1.17,6.77,6.77,0,0,1-1.76.72,9.65,9.65,0,0,1-2.36.25,9.41,9.41,0,0,1-2.43-.3,5.55,5.55,0,0,1-2-1,4.7,4.7,0,0,1-1.34-1.7,5.66,5.66,0,0,1-.48-2.43,4.84,4.84,0,0,1,.86-3A5.44,5.44,0,0,1,169.75,34a12.6,12.6,0,0,1,3.2-.81c1.19-.16,2.4-.31,3.62-.45q.72-.07,1.26-.18a2.17,2.17,0,0,0,.9-.38,1.76,1.76,0,0,0,.56-.74,3.2,3.2,0,0,0,.2-1.22,4.15,4.15,0,0,0-.38-1.89,3,3,0,0,0-1-1.17,4.25,4.25,0,0,0-1.55-.6,11.28,11.28,0,0,0-1.89-.16,5.69,5.69,0,0,0-3.53,1,4,4,0,0,0-1.44,3.29h-2.27A7.44,7.44,0,0,1,168.08,27.89Zm11.34,5.55a1.32,1.32,0,0,1-.83.57,9.17,9.17,0,0,1-1.08.26q-1.44.24-3,.45a16.49,16.49,0,0,0-2.79.59,5.42,5.42,0,0,0-2.07,1.13,2.73,2.73,0,0,0-.81,2.11,3.25,3.25,0,0,0,.34,1.53,3.65,3.65,0,0,0,.92,1.15,3.93,3.93,0,0,0,1.33.74,4.79,4.79,0,0,0,1.55.25,7.9,7.9,0,0,0,2.48-.39,6.17,6.17,0,0,0,2.07-1.16,5.39,5.39,0,0,0,1.4-1.83,5.54,5.54,0,0,0,.53-2.45v-3Z"/><path class="cls-6" d="M188.52,17.89V28.22h.07a5.44,5.44,0,0,1,2.31-2.72,6.79,6.79,0,0,1,3.64-1,9,9,0,0,1,3.25.51,5.11,5.11,0,0,1,2.11,1.42A5.18,5.18,0,0,1,201,28.65a12.44,12.44,0,0,1,.33,3v12h-2.27V32a10.45,10.45,0,0,0-.22-2.22A4.67,4.67,0,0,0,198.1,28a3.75,3.75,0,0,0-1.46-1.19,5.47,5.47,0,0,0-2.29-.43,5.7,5.7,0,0,0-2.43.49,5.41,5.41,0,0,0-1.8,1.33,6.23,6.23,0,0,0-1.15,2,8.54,8.54,0,0,0-.45,2.53V43.59h-2.27V17.89Z"/><path class="cls-6" d="M206.09,27.89A5.26,5.26,0,0,1,207.66,26,6.68,6.68,0,0,1,210,24.83a11.3,11.3,0,0,1,3-.36,12.72,12.72,0,0,1,2.45.24,5.92,5.92,0,0,1,2.2.88,4.87,4.87,0,0,1,1.58,1.82,6.52,6.52,0,0,1,.61,3v9.86c0,.92.44,1.37,1.33,1.37a1.81,1.81,0,0,0,.72-.14v1.91l-.7.1a5.5,5.5,0,0,1-.77,0,3.56,3.56,0,0,1-1.39-.23,1.86,1.86,0,0,1-.81-.67,2.54,2.54,0,0,1-.38-1,8.7,8.7,0,0,1-.09-1.31h-.07a15.6,15.6,0,0,1-1.24,1.6A6,6,0,0,1,215,43.12a6.49,6.49,0,0,1-1.76.72,10.58,10.58,0,0,1-4.79-.05,5.72,5.72,0,0,1-2-1,4.67,4.67,0,0,1-1.33-1.7,5.66,5.66,0,0,1-.48-2.43,4.78,4.78,0,0,1,.86-3A5.41,5.41,0,0,1,207.76,34a12.57,12.57,0,0,1,3.21-.81c1.19-.16,2.39-.31,3.62-.45q.72-.07,1.26-.18a2.17,2.17,0,0,0,.9-.38,1.74,1.74,0,0,0,.55-.74,3,3,0,0,0,.2-1.22,4,4,0,0,0-.38-1.89,3,3,0,0,0-1-1.17,4.18,4.18,0,0,0-1.55-.6,11.28,11.28,0,0,0-1.89-.16,5.66,5.66,0,0,0-3.52,1,4,4,0,0,0-1.45,3.29h-2.26A7.64,7.64,0,0,1,206.09,27.89Zm11.34,5.55a1.3,1.3,0,0,1-.83.57,9.17,9.17,0,0,1-1.08.26q-1.44.24-3,.45a16.49,16.49,0,0,0-2.79.59,5.42,5.42,0,0,0-2.07,1.13,2.73,2.73,0,0,0-.81,2.11,3.38,3.38,0,0,0,.34,1.53,3.8,3.8,0,0,0,.92,1.15,4,4,0,0,0,1.33.74,4.88,4.88,0,0,0,1.55.25,8,8,0,0,0,2.49-.39,6.17,6.17,0,0,0,2.07-1.16,5.46,5.46,0,0,0,1.92-4.28v-3Z"/><path class="cls-6" d="M226.54,17.89V28.22h.07a5.42,5.42,0,0,1,2.3-2.72,6.84,6.84,0,0,1,3.64-1,9.07,9.07,0,0,1,3.26.51,5.08,5.08,0,0,1,2.1,1.42A5.3,5.3,0,0,1,239,28.65a12.46,12.46,0,0,1,.32,3v12h-2.26V32a11.14,11.14,0,0,0-.22-2.22,4.69,4.69,0,0,0-.76-1.78,3.71,3.71,0,0,0-1.45-1.19,5.54,5.54,0,0,0-2.29-.43,5.7,5.7,0,0,0-2.43.49,5.22,5.22,0,0,0-1.8,1.33,6.05,6.05,0,0,0-1.15,2,7.94,7.94,0,0,0-.45,2.53V43.59h-2.27V17.89Z"/><path class="cls-6" d="M244.11,27.89A5.24,5.24,0,0,1,245.67,26,6.77,6.77,0,0,1,248,24.83a11.38,11.38,0,0,1,3-.36,12.61,12.61,0,0,1,2.44.24,5.85,5.85,0,0,1,2.2.88,4.7,4.7,0,0,1,1.58,1.82,6.51,6.51,0,0,1,.62,3v9.86c0,.92.44,1.37,1.33,1.37a1.89,1.89,0,0,0,.72-.14v1.91l-.7.1a5.75,5.75,0,0,1-.78,0,3.51,3.51,0,0,1-1.38-.23,1.86,1.86,0,0,1-.81-.67,2.4,2.4,0,0,1-.38-1,8.7,8.7,0,0,1-.09-1.31h-.07a15.63,15.63,0,0,1-1.25,1.6,6,6,0,0,1-1.4,1.17,6.63,6.63,0,0,1-1.76.72,9.59,9.59,0,0,1-2.36.25,9.41,9.41,0,0,1-2.43-.3,5.55,5.55,0,0,1-2-1,4.57,4.57,0,0,1-1.33-1.7,5.52,5.52,0,0,1-.49-2.43,4.84,4.84,0,0,1,.86-3A5.44,5.44,0,0,1,245.78,34a12.6,12.6,0,0,1,3.2-.81c1.19-.16,2.4-.31,3.62-.45q.72-.07,1.26-.18a2.17,2.17,0,0,0,.9-.38,1.76,1.76,0,0,0,.56-.74,3.2,3.2,0,0,0,.2-1.22,4.15,4.15,0,0,0-.38-1.89,3,3,0,0,0-1-1.17,4.25,4.25,0,0,0-1.55-.6,11.28,11.28,0,0,0-1.89-.16,5.69,5.69,0,0,0-3.53,1,4,4,0,0,0-1.44,3.29h-2.27A7.44,7.44,0,0,1,244.11,27.89Zm11.34,5.55a1.32,1.32,0,0,1-.83.57,9.17,9.17,0,0,1-1.08.26q-1.44.24-3,.45a16.49,16.49,0,0,0-2.79.59,5.42,5.42,0,0,0-2.07,1.13,2.73,2.73,0,0,0-.81,2.11,3.25,3.25,0,0,0,.34,1.53,3.65,3.65,0,0,0,.92,1.15,3.93,3.93,0,0,0,1.33.74,4.79,4.79,0,0,0,1.55.25,7.9,7.9,0,0,0,2.48-.39,6.17,6.17,0,0,0,2.07-1.16A5.54,5.54,0,0,0,255,38.84a5.68,5.68,0,0,0,.52-2.45v-3Z"/><path class="cls-6" d="M264.55,17.89V28.22h.08a5.42,5.42,0,0,1,2.3-2.72,6.81,6.81,0,0,1,3.64-1,9,9,0,0,1,3.25.51,5.11,5.11,0,0,1,2.11,1.42,5.3,5.3,0,0,1,1.12,2.25,13,13,0,0,1,.32,3v12H275.1V32a11.16,11.16,0,0,0-.21-2.22,4.85,4.85,0,0,0-.76-1.78,3.75,3.75,0,0,0-1.46-1.19,5.45,5.45,0,0,0-2.28-.43,5.64,5.64,0,0,0-2.43.49,5.22,5.22,0,0,0-1.8,1.33,6.07,6.07,0,0,0-1.16,2,8.54,8.54,0,0,0-.45,2.53V43.59h-2.26V17.89Z"/><path class="cls-6" d="M282.12,27.89A5.36,5.36,0,0,1,283.69,26,6.68,6.68,0,0,1,286,24.83a11.3,11.3,0,0,1,2.95-.36,12.72,12.72,0,0,1,2.45.24,5.85,5.85,0,0,1,2.2.88,4.87,4.87,0,0,1,1.58,1.82,6.52,6.52,0,0,1,.61,3v9.86a1.19,1.19,0,0,0,1.33,1.37,1.81,1.81,0,0,0,.72-.14v1.91c-.26,0-.49.08-.7.1a5.5,5.5,0,0,1-.77,0,3.56,3.56,0,0,1-1.39-.23,1.86,1.86,0,0,1-.81-.67,2.54,2.54,0,0,1-.38-1,8.7,8.7,0,0,1-.09-1.31h-.07A15.6,15.6,0,0,1,292.4,42a6.18,6.18,0,0,1-1.4,1.17,6.7,6.7,0,0,1-1.77.72,10.58,10.58,0,0,1-4.79-.05,5.72,5.72,0,0,1-2-1,4.78,4.78,0,0,1-1.33-1.7,5.66,5.66,0,0,1-.48-2.43,4.78,4.78,0,0,1,.86-3A5.44,5.44,0,0,1,283.8,34a12.39,12.39,0,0,1,3.2-.81c1.19-.16,2.39-.31,3.62-.45q.72-.07,1.26-.18a2.17,2.17,0,0,0,.9-.38,1.84,1.84,0,0,0,.56-.74,3.22,3.22,0,0,0,.19-1.22,4.16,4.16,0,0,0-.37-1.89,3,3,0,0,0-1.05-1.17,4.18,4.18,0,0,0-1.55-.6,11.1,11.1,0,0,0-1.89-.16,5.66,5.66,0,0,0-3.52,1,4,4,0,0,0-1.44,3.29h-2.27A7.64,7.64,0,0,1,282.12,27.89Zm11.34,5.55a1.3,1.3,0,0,1-.83.57,8.31,8.31,0,0,1-1.08.26q-1.44.24-3,.45a16.49,16.49,0,0,0-2.79.59,5.42,5.42,0,0,0-2.07,1.13,2.73,2.73,0,0,0-.81,2.11,3.26,3.26,0,0,0,.35,1.53,3.62,3.62,0,0,0,.91,1.15,4,4,0,0,0,1.34.74,4.78,4.78,0,0,0,1.54.25,7.91,7.91,0,0,0,2.49-.39,6.17,6.17,0,0,0,2.07-1.16,5.46,5.46,0,0,0,1.92-4.28v-3Z"/><path class="cls-6" d="M302.57,17.89V28.22h.07A5.39,5.39,0,0,1,305,25.5a6.78,6.78,0,0,1,3.63-1,9.07,9.07,0,0,1,3.26.51A5.11,5.11,0,0,1,314,26.4a5.29,5.29,0,0,1,1.11,2.25,12.44,12.44,0,0,1,.33,3v12h-2.27V32a10.45,10.45,0,0,0-.22-2.22,4.67,4.67,0,0,0-.75-1.78,3.75,3.75,0,0,0-1.46-1.19,5.5,5.5,0,0,0-2.29-.43,5.7,5.7,0,0,0-2.43.49,5.22,5.22,0,0,0-1.8,1.33,6.05,6.05,0,0,0-1.15,2,7.94,7.94,0,0,0-.45,2.53V43.59H300.3V17.89Z"/><path class="cls-6" d="M320.14,27.89A5.24,5.24,0,0,1,321.7,26,6.73,6.73,0,0,1,324,24.83a11.25,11.25,0,0,1,3-.36,12.79,12.79,0,0,1,2.45.24,5.87,5.87,0,0,1,2.19.88,4.81,4.81,0,0,1,1.59,1.82,6.65,6.65,0,0,1,.61,3v9.86c0,.92.44,1.37,1.33,1.37a1.89,1.89,0,0,0,.72-.14v1.91l-.7.1a5.66,5.66,0,0,1-.78,0,3.54,3.54,0,0,1-1.38-.23,1.86,1.86,0,0,1-.81-.67,2.54,2.54,0,0,1-.38-1,8.7,8.7,0,0,1-.09-1.31h-.07a17.14,17.14,0,0,1-1.24,1.6A6,6,0,0,1,329,43.12a6.49,6.49,0,0,1-1.76.72,10.58,10.58,0,0,1-4.79-.05,5.55,5.55,0,0,1-2-1,4.67,4.67,0,0,1-1.33-1.7,5.52,5.52,0,0,1-.49-2.43,4.78,4.78,0,0,1,.87-3A5.34,5.34,0,0,1,321.81,34a12.57,12.57,0,0,1,3.21-.81c1.18-.16,2.39-.31,3.61-.45q.72-.07,1.26-.18a2.17,2.17,0,0,0,.9-.38,1.76,1.76,0,0,0,.56-.74,3.2,3.2,0,0,0,.2-1.22,4.15,4.15,0,0,0-.38-1.89,3,3,0,0,0-1-1.17,4.25,4.25,0,0,0-1.55-.6,11.28,11.28,0,0,0-1.89-.16,5.69,5.69,0,0,0-3.53,1,4,4,0,0,0-1.44,3.29h-2.27A7.64,7.64,0,0,1,320.14,27.89Zm11.34,5.55a1.32,1.32,0,0,1-.83.57,9.17,9.17,0,0,1-1.08.26q-1.44.24-3,.45a16.49,16.49,0,0,0-2.79.59,5.42,5.42,0,0,0-2.07,1.13,2.73,2.73,0,0,0-.81,2.11,3.25,3.25,0,0,0,.34,1.53,3.8,3.8,0,0,0,.92,1.15,3.93,3.93,0,0,0,1.33.74,4.84,4.84,0,0,0,1.55.25,7.9,7.9,0,0,0,2.48-.39,6,6,0,0,0,2.07-1.16,5.43,5.43,0,0,0,1.93-4.28v-3Z"/><path class="cls-6" d="M339,39.77h3v3.82h-3Zm.29-21.88h2.44v7.66l-.54,11.63h-1.36l-.54-11.63Z"/><path class="cls-6" d="M347.71,39.77h3v3.82h-3ZM348,17.89h2.45v7.66l-.54,11.63h-1.37L348,25.55Z"/><circle class="cls-2" cx="455.95" cy="31.52" r="27.5"/><path class="cls-3" d="M474.28,22c-1.12.59-8.4-2.72-7.79-3.52.34-.46,3.47-.35,5.59.73C473.87,20.07,474.88,21.63,474.28,22Z"/><path class="cls-3" d="M438.62,21c1.12.59,8.4-2.72,7.79-3.52-.34-.46-3.47-.35-5.59.73C439,19.07,438,20.63,438.62,21Z"/><path class="cls-3" d="M437.21,29.2a7.35,7.35,0,0,1,2.93-3.42,7.89,7.89,0,0,1,8.07.24c1.72,1,3.34,3,2.93,3.67s-3.24-.74-7.82-1A22.83,22.83,0,0,0,437.21,29.2Z"/><path class="cls-3" d="M472.07,29.2a7.4,7.4,0,0,0-2.93-3.42,7.87,7.87,0,0,0-8.07.24c-1.72,1-3.34,3-2.93,3.67s3.24-.74,7.82-1A23.21,23.21,0,0,1,472.07,29.2Z"/><path class="cls-3" d="M436.52,34.82c-.17.16-.5.66.38,2.9a18.27,18.27,0,0,0,3.28,5.41c3.15,3.53,4.72,5.32,6.6,6.36A18.08,18.08,0,0,0,458,51.44a19.12,19.12,0,0,0,8.8-3.91,25.14,25.14,0,0,0,5.62-6.11c2.26-3.15,3.52-4.91,2.93-5.87-.89-1.47-5,.75-13.2,1.47a71,71,0,0,1-13.2-.24c-4.57-.43-6.86-.64-8.8-1.23S437,34.32,436.52,34.82Z"/><path class="cls-4" d="M436.27,34.82c-.39.53,1.37,2.66,3.18,4.16a18.77,18.77,0,0,0,8.07,3.66c3.45.76,6,.58,10.51.25,6.5-.48,9.62-1.62,10.51-2A14.63,14.63,0,0,0,474.45,37c.89-1,1.73-2,1.46-2.44-.61-1.14-6,2.06-14.18,2.93-2.19.23-5.61.07-12.46-.25-4.71-.21-6.25-.43-8.07-1C438.37,35.45,436.61,34.36,436.27,34.82Z"/><path class="cls-5" d="M466.58,27.73c-1,.77,1.05,3.19,1.47,9.53.22,3.37-.24,4.45.73,6.36.25.49,1.93,3.64,5.38,4.16a6,6,0,0,0,7-4.79,3.81,3.81,0,0,0,.08-.59,7.54,7.54,0,0,0-1-4.89,9.13,9.13,0,0,0-3.18-3.18C469,29,467.45,27,466.58,27.73Z"/><path class="cls-4" d="M469.18,31.12c-.23.13-.23.39.16,4.42.1.94.15,1.41.5,1.8a2.66,2.66,0,0,0,3.11.32,2.53,2.53,0,0,0,1.31-2.12c0-.38-.15-.9-1.48-2.13S469.88,30.7,469.18,31.12Z"/><path class="cls-5" d="M443.65,27.73c1,.77-1,3.19-1.47,9.53-.22,3.37.25,4.45-.73,6.36a7.75,7.75,0,0,1-5.38,4.16,6.39,6.39,0,0,1-4.89-1.23A6.47,6.47,0,0,1,429,42.4a7.66,7.66,0,0,1,1-4.89,9.22,9.22,0,0,1,3.18-3.18C441.2,29,442.75,27,443.65,27.73Z"/><path class="cls-4" d="M441.05,31.12c.23.13.23.39-.16,4.42a3,3,0,0,1-.49,1.8,2.65,2.65,0,0,1-3.11.32A2.48,2.48,0,0,1,436,35.54c0-.38.15-.9,1.47-2.13S440.36,30.7,441.05,31.12Z"/><circle class="cls-2" cx="455.95" cy="31.52" r="27.5"/><path class="cls-3" d="M474.28,22c-1.12.59-8.4-2.72-7.79-3.52.34-.46,3.47-.35,5.59.73C473.87,20.07,474.88,21.63,474.28,22Z"/><path class="cls-3" d="M438.62,21c1.12.59,8.4-2.72,7.79-3.52-.34-.46-3.47-.35-5.59.73C439,19.07,438,20.63,438.62,21Z"/><path class="cls-3" d="M437.21,29.2a7.35,7.35,0,0,1,2.93-3.42,7.89,7.89,0,0,1,8.07.24c1.72,1,3.34,3,2.93,3.67s-3.24-.74-7.82-1A22.83,22.83,0,0,0,437.21,29.2Z"/><path class="cls-3" d="M472.07,29.2a7.4,7.4,0,0,0-2.93-3.42,7.87,7.87,0,0,0-8.07.24c-1.72,1-3.34,3-2.93,3.67s3.24-.74,7.82-1A23.21,23.21,0,0,1,472.07,29.2Z"/><path class="cls-3" d="M436.52,34.82c-.17.16-.5.66.38,2.9a18.27,18.27,0,0,0,3.28,5.41c3.15,3.53,4.72,5.32,6.6,6.36A18.08,18.08,0,0,0,458,51.44a19.12,19.12,0,0,0,8.8-3.91,25.14,25.14,0,0,0,5.62-6.11c2.26-3.15,3.52-4.91,2.93-5.87-.89-1.47-5,.75-13.2,1.47a71,71,0,0,1-13.2-.24c-4.57-.43-6.86-.64-8.8-1.23S437,34.32,436.52,34.82Z"/><path class="cls-4" d="M436.27,34.82c-.39.53,1.37,2.66,3.18,4.16a18.77,18.77,0,0,0,8.07,3.66c3.45.76,6,.58,10.51.25,6.5-.48,9.62-1.62,10.51-2A14.63,14.63,0,0,0,474.45,37c.89-1,1.73-2,1.46-2.44-.61-1.14-6,2.06-14.18,2.93-2.19.23-5.61.07-12.46-.25-4.71-.21-6.25-.43-8.07-1C438.37,35.45,436.61,34.36,436.27,34.82Z"/><path class="cls-5" d="M466.58,27.73c-1,.77,1.05,3.19,1.47,9.53.22,3.37-.24,4.45.73,6.36.25.49,1.93,3.64,5.38,4.16a6,6,0,0,0,7-4.79,3.81,3.81,0,0,0,.08-.59,7.54,7.54,0,0,0-1-4.89,9.13,9.13,0,0,0-3.18-3.18C469,29,467.45,27,466.58,27.73Z"/><path class="cls-4" d="M469.18,31.12c-.23.13-.23.39.16,4.42.1.94.15,1.41.5,1.8a2.66,2.66,0,0,0,3.11.32,2.53,2.53,0,0,0,1.31-2.12c0-.38-.15-.9-1.48-2.13S469.88,30.7,469.18,31.12Z"/><path class="cls-5" d="M443.65,27.73c1,.77-1,3.19-1.47,9.53-.22,3.37.25,4.45-.73,6.36a7.75,7.75,0,0,1-5.38,4.16,6.39,6.39,0,0,1-4.89-1.23A6.47,6.47,0,0,1,429,42.4a7.66,7.66,0,0,1,1-4.89,9.22,9.22,0,0,1,3.18-3.18C441.2,29,442.75,27,443.65,27.73Z"/><path class="cls-4" d="M441.05,31.12c.23.13.23.39-.16,4.42a3,3,0,0,1-.49,1.8,2.65,2.65,0,0,1-3.11.32A2.48,2.48,0,0,1,436,35.54c0-.38.15-.9,1.47-2.13S440.36,30.7,441.05,31.12Z"/><circle class="cls-2" cx="455.95" cy="31.52" r="27.5"/><path class="cls-3" d="M474.28,22c-1.12.59-8.4-2.72-7.79-3.52.34-.46,3.47-.35,5.59.73C473.87,20.07,474.88,21.63,474.28,22Z"/><path class="cls-3" d="M438.62,21c1.12.59,8.4-2.72,7.79-3.52-.34-.46-3.47-.35-5.59.73C439,19.07,438,20.63,438.62,21Z"/><path class="cls-3" d="M437.21,29.2a7.35,7.35,0,0,1,2.93-3.42,7.89,7.89,0,0,1,8.07.24c1.72,1,3.34,3,2.93,3.67s-3.24-.74-7.82-1A22.83,22.83,0,0,0,437.21,29.2Z"/><path class="cls-3" d="M472.07,29.2a7.4,7.4,0,0,0-2.93-3.42,7.87,7.87,0,0,0-8.07.24c-1.72,1-3.34,3-2.93,3.67s3.24-.74,7.82-1A23.21,23.21,0,0,1,472.07,29.2Z"/><path class="cls-3" d="M436.52,34.82c-.17.16-.5.66.38,2.9a18.27,18.27,0,0,0,3.28,5.41c3.15,3.53,4.72,5.32,6.6,6.36A18.08,18.08,0,0,0,458,51.44a19.12,19.12,0,0,0,8.8-3.91,25.14,25.14,0,0,0,5.62-6.11c2.26-3.15,3.52-4.91,2.93-5.87-.89-1.47-5,.75-13.2,1.47a71,71,0,0,1-13.2-.24c-4.57-.43-6.86-.64-8.8-1.23S437,34.32,436.52,34.82Z"/><path class="cls-4" d="M436.27,34.82c-.39.53,1.37,2.66,3.18,4.16a18.77,18.77,0,0,0,8.07,3.66c3.45.76,6,.58,10.51.25,6.5-.48,9.62-1.62,10.51-2A14.63,14.63,0,0,0,474.45,37c.89-1,1.73-2,1.46-2.44-.61-1.14-6,2.06-14.18,2.93-2.19.23-5.61.07-12.46-.25-4.71-.21-6.25-.43-8.07-1C438.37,35.45,436.61,34.36,436.27,34.82Z"/><path class="cls-5" d="M466.58,27.73c-1,.77,1.05,3.19,1.47,9.53.22,3.37-.24,4.45.73,6.36.25.49,1.93,3.64,5.38,4.16a6,6,0,0,0,7-4.79,3.81,3.81,0,0,0,.08-.59,7.54,7.54,0,0,0-1-4.89,9.13,9.13,0,0,0-3.18-3.18C469,29,467.45,27,466.58,27.73Z"/><path class="cls-4" d="M469.18,31.12c-.23.13-.23.39.16,4.42.1.94.15,1.41.5,1.8a2.66,2.66,0,0,0,3.11.32,2.53,2.53,0,0,0,1.31-2.12c0-.38-.15-.9-1.48-2.13S469.88,30.7,469.18,31.12Z"/><path class="cls-5" d="M443.65,27.73c1,.77-1,3.19-1.47,9.53-.22,3.37.25,4.45-.73,6.36a7.75,7.75,0,0,1-5.38,4.16,6.39,6.39,0,0,1-4.89-1.23A6.47,6.47,0,0,1,429,42.4a7.66,7.66,0,0,1,1-4.89,9.22,9.22,0,0,1,3.18-3.18C441.2,29,442.75,27,443.65,27.73Z"/><path class="cls-4" d="M441.05,31.12c.23.13.23.39-.16,4.42a3,3,0,0,1-.49,1.8,2.65,2.65,0,0,1-3.11.32A2.48,2.48,0,0,1,436,35.54c0-.38.15-.9,1.47-2.13S440.36,30.7,441.05,31.12Z"/><circle class="cls-2" cx="455.95" cy="31.52" r="27.5"/><path class="cls-3" d="M474.28,22c-1.12.59-8.4-2.72-7.79-3.52.34-.46,3.47-.35,5.59.73C473.87,20.07,474.88,21.63,474.28,22Z"/><path class="cls-3" d="M438.62,21c1.12.59,8.4-2.72,7.79-3.52-.34-.46-3.47-.35-5.59.73C439,19.07,438,20.63,438.62,21Z"/><path class="cls-3" d="M437.21,29.2a7.35,7.35,0,0,1,2.93-3.42,7.89,7.89,0,0,1,8.07.24c1.72,1,3.34,3,2.93,3.67s-3.24-.74-7.82-1A22.83,22.83,0,0,0,437.21,29.2Z"/><path class="cls-3" d="M472.07,29.2a7.4,7.4,0,0,0-2.93-3.42,7.87,7.87,0,0,0-8.07.24c-1.72,1-3.34,3-2.93,3.67s3.24-.74,7.82-1A23.21,23.21,0,0,1,472.07,29.2Z"/><path class="cls-3" d="M436.52,34.82c-.17.16-.5.66.38,2.9a18.27,18.27,0,0,0,3.28,5.41c3.15,3.53,4.72,5.32,6.6,6.36A18.08,18.08,0,0,0,458,51.44a19.12,19.12,0,0,0,8.8-3.91,25.14,25.14,0,0,0,5.62-6.11c2.26-3.15,3.52-4.91,2.93-5.87-.89-1.47-5,.75-13.2,1.47a71,71,0,0,1-13.2-.24c-4.57-.43-6.86-.64-8.8-1.23S437,34.32,436.52,34.82Z"/><path class="cls-4" d="M436.27,34.82c-.39.53,1.37,2.66,3.18,4.16a18.77,18.77,0,0,0,8.07,3.66c3.45.76,6,.58,10.51.25,6.5-.48,9.62-1.62,10.51-2A14.63,14.63,0,0,0,474.45,37c.89-1,1.73-2,1.46-2.44-.61-1.14-6,2.06-14.18,2.93-2.19.23-5.61.07-12.46-.25-4.71-.21-6.25-.43-8.07-1C438.37,35.45,436.61,34.36,436.27,34.82Z"/><path class="cls-5" d="M466.58,27.73c-1,.77,1.05,3.19,1.47,9.53.22,3.37-.24,4.45.73,6.36.25.49,1.93,3.64,5.38,4.16a6,6,0,0,0,7-4.79,3.81,3.81,0,0,0,.08-.59,7.54,7.54,0,0,0-1-4.89,9.13,9.13,0,0,0-3.18-3.18C469,29,467.45,27,466.58,27.73Z"/><path class="cls-4" d="M469.18,31.12c-.23.13-.23.39.16,4.42.1.94.15,1.41.5,1.8a2.66,2.66,0,0,0,3.11.32,2.53,2.53,0,0,0,1.31-2.12c0-.38-.15-.9-1.48-2.13S469.88,30.7,469.18,31.12Z"/><path class="cls-5" d="M443.65,27.73c1,.77-1,3.19-1.47,9.53-.22,3.37.25,4.45-.73,6.36a7.75,7.75,0,0,1-5.38,4.16,6.39,6.39,0,0,1-4.89-1.23A6.47,6.47,0,0,1,429,42.4a7.66,7.66,0,0,1,1-4.89,9.22,9.22,0,0,1,3.18-3.18C441.2,29,442.75,27,443.65,27.73Z"/></svg>