<svg xmlns="http://www.w3.org/2000/svg" width="898" height="156" viewBox="0 0 898 156"><defs><style>.cls-1{fill:#7f8c8d;}.cls-2{fill:#2c3e50;}.cls-3{fill:#e74c3c;}.cls-4{fill:#c0392b;}.cls-5{fill:#d35400;}.cls-6{fill:#f39c12;}.cls-7{fill:#f1c40f;}.cls-8{fill:#262161;}.cls-9{fill:#dca77c;}.cls-10{fill:#e4bb92;}.cls-11{fill:#fff;}.cls-12{fill:#f2a087;}.cls-13{fill:#895d3b;}</style></defs><title>Artboard 2</title><g id="Layer_3" data-name="Layer 3"><path class="cls-1" d="M261.8,98.36l11.37,30.05,11.81-30h4.8v34.28h-3.26V103h-.1l-11.71,29.62h-3.07L260.36,103h-.1v29.62H257V98.36Z"/><path class="cls-1" d="M311.41,108.2a11,11,0,0,1,3.67,2.84,12.14,12.14,0,0,1,2.25,4.15,17,17,0,0,1,0,10.13,12.33,12.33,0,0,1-2.25,4.15,10.77,10.77,0,0,1-3.67,2.81,12.75,12.75,0,0,1-10,0,10.77,10.77,0,0,1-3.67-2.81,12.33,12.33,0,0,1-2.25-4.15,17,17,0,0,1,0-10.13A12.14,12.14,0,0,1,297.7,111a11,11,0,0,1,3.67-2.84,12.53,12.53,0,0,1,10,0Zm-8.81,2.4a8.34,8.34,0,0,0-2.71,2.4,11,11,0,0,0-1.64,3.39,13.86,13.86,0,0,0,0,7.73,11,11,0,0,0,1.64,3.38,8.34,8.34,0,0,0,2.71,2.4,8.35,8.35,0,0,0,7.58,0,8.34,8.34,0,0,0,2.71-2.4,11,11,0,0,0,1.64-3.38,13.86,13.86,0,0,0,0-7.73,11,11,0,0,0-1.64-3.39,8.34,8.34,0,0,0-2.71-2.4,8.35,8.35,0,0,0-7.58,0Z"/><path class="cls-1" d="M341.62,132.64v-4.71h-.09a7.19,7.19,0,0,1-1.42,2.21,9.06,9.06,0,0,1-2.14,1.7,10.53,10.53,0,0,1-2.56,1.08,9.93,9.93,0,0,1-2.72.39,11.14,11.14,0,0,1-4.92-1,9.93,9.93,0,0,1-3.48-2.84,12.33,12.33,0,0,1-2.06-4.17,19.1,19.1,0,0,1,0-10,12.29,12.29,0,0,1,2.06-4.18,10.21,10.21,0,0,1,3.48-2.86,10.87,10.87,0,0,1,4.92-1,11.19,11.19,0,0,1,2.72.33,9.12,9.12,0,0,1,2.47,1,8.55,8.55,0,0,1,2,1.7,7.23,7.23,0,0,1,1.37,2.35h.09V98.36h3v34.28ZM325,124.07a10.37,10.37,0,0,0,1.44,3.38,7.91,7.91,0,0,0,2.52,2.43,7,7,0,0,0,3.69.93,7.73,7.73,0,0,0,6.75-3.36,10,10,0,0,0,1.49-3.38,16.4,16.4,0,0,0,0-7.63,10,10,0,0,0-1.49-3.39,7.79,7.79,0,0,0-6.75-3.36,6.89,6.89,0,0,0-3.69.94,7.78,7.78,0,0,0-2.52,2.42,10.33,10.33,0,0,0-1.44,3.39,16,16,0,0,0,0,7.63Z"/><path class="cls-1" d="M360,107.87v2.54h-5v16.71a5.43,5.43,0,0,0,.4,2.32c.28.56,1,.88,2,.94a25.16,25.16,0,0,0,2.6-.14v2.54c-.45,0-.9,0-1.35.05s-.89,0-1.34,0c-2,0-3.43-.4-4.23-1.18s-1.18-2.23-1.15-4.34v-17h-4.32v-2.54h4.32v-7.44h3v7.44Z"/><path class="cls-1" d="M365,111.71a7,7,0,0,1,2.09-2.59,8.71,8.71,0,0,1,3.09-1.49,15.14,15.14,0,0,1,3.94-.48,17.14,17.14,0,0,1,3.26.31,7.83,7.83,0,0,1,2.93,1.18,6.34,6.34,0,0,1,2.11,2.42,8.67,8.67,0,0,1,.82,4.06v13.15a1.59,1.59,0,0,0,1.77,1.82,2.25,2.25,0,0,0,1-.19v2.54q-.53.1-.93.15a9.55,9.55,0,0,1-1,0,4.52,4.52,0,0,1-1.85-.32,2.37,2.37,0,0,1-1.08-.88,3.31,3.31,0,0,1-.51-1.37,11.74,11.74,0,0,1-.12-1.75h-.09a20.5,20.5,0,0,1-1.66,2.13,7.88,7.88,0,0,1-1.87,1.56,8.4,8.4,0,0,1-2.35,1,13.09,13.09,0,0,1-3.15.34,12.5,12.5,0,0,1-3.24-.41,7.25,7.25,0,0,1-2.64-1.3,6.16,6.16,0,0,1-1.77-2.25,7.52,7.52,0,0,1-.65-3.24,6.41,6.41,0,0,1,1.15-4.06,7.32,7.32,0,0,1,3.05-2.23,17.55,17.55,0,0,1,4.27-1.08c1.59-.21,3.19-.41,4.83-.6a15.37,15.37,0,0,0,1.68-.24,3,3,0,0,0,1.2-.5,2.35,2.35,0,0,0,.74-1,4.15,4.15,0,0,0,.26-1.63,5.49,5.49,0,0,0-.5-2.52,4,4,0,0,0-1.39-1.56,5.59,5.59,0,0,0-2.07-.79,13.36,13.36,0,0,0-2.52-.22,7.64,7.64,0,0,0-4.7,1.37,5.34,5.34,0,0,0-1.92,4.39h-3A9.94,9.94,0,0,1,365,111.71Zm15.12,7.39a1.73,1.73,0,0,1-1.11.77,10.26,10.26,0,0,1-1.44.33q-1.92.35-4,.6a21.32,21.32,0,0,0-3.72.8,7.18,7.18,0,0,0-2.76,1.51,3.6,3.6,0,0,0-1.08,2.81,4.5,4.5,0,0,0,.46,2,4.89,4.89,0,0,0,1.22,1.53,5.63,5.63,0,0,0,1.78,1,6.58,6.58,0,0,0,2.06.33,10.22,10.22,0,0,0,3.32-.53,8.25,8.25,0,0,0,2.76-1.53,7.58,7.58,0,0,0,1.87-2.45,7.46,7.46,0,0,0,.69-3.26V119.1Z"/><path class="cls-1" d="M409.61,135.56a9.76,9.76,0,0,1-1.89,3.75,8.36,8.36,0,0,1-3.39,2.35,14.14,14.14,0,0,1-5.11.82,15.32,15.32,0,0,1-3.65-.44,10.22,10.22,0,0,1-3.19-1.34,8,8,0,0,1-2.35-2.33A7,7,0,0,1,389,135h3a5.45,5.45,0,0,0,.94,2.33,5.64,5.64,0,0,0,1.68,1.51,7.72,7.72,0,0,0,2.18.84,11.78,11.78,0,0,0,2.45.26q4.23,0,6.1-2.4t1.87-6.91v-3.36h-.1A8.8,8.8,0,0,1,404,131a8.32,8.32,0,0,1-4.78,1.39,11.94,11.94,0,0,1-5.09-1,9.53,9.53,0,0,1-3.48-2.71,11.12,11.12,0,0,1-2-4.05,19.45,19.45,0,0,1-.62-5,15.65,15.65,0,0,1,.74-4.83,12.14,12.14,0,0,1,2.16-4,10.08,10.08,0,0,1,3.51-2.69,11.14,11.14,0,0,1,4.77-1,8.92,8.92,0,0,1,2.62.38,8.53,8.53,0,0,1,2.23,1.08,9.87,9.87,0,0,1,1.8,1.61,7.13,7.13,0,0,1,1.22,1.92h.1v-4.27h3v22.75A18.84,18.84,0,0,1,409.61,135.56Zm-6.93-6.6a7.85,7.85,0,0,0,2.49-2.2,9.7,9.7,0,0,0,1.52-3.15,13.51,13.51,0,0,0,.5-3.65,15.6,15.6,0,0,0-.43-3.64,10.66,10.66,0,0,0-1.39-3.32,7.58,7.58,0,0,0-2.48-2.4,7,7,0,0,0-3.67-.91,7.25,7.25,0,0,0-3.69.89,7.8,7.8,0,0,0-2.55,2.33,9.64,9.64,0,0,0-1.46,3.29,15.3,15.3,0,0,0-.46,3.76,13.9,13.9,0,0,0,.48,3.65,9.45,9.45,0,0,0,1.49,3.15,7.72,7.72,0,0,0,2.54,2.2,7.51,7.51,0,0,0,3.65.84A6.93,6.93,0,0,0,402.68,129Z"/><path class="cls-1" d="M418.21,124.45a9.28,9.28,0,0,0,1.46,3.15,8.51,8.51,0,0,0,2.54,2.3,7.12,7.12,0,0,0,3.7.91,7.29,7.29,0,0,0,5.18-1.73,9.05,9.05,0,0,0,2.6-4.6h3a12.07,12.07,0,0,1-3.53,6.52q-2.56,2.31-7.27,2.31a11.62,11.62,0,0,1-5.06-1,9.27,9.27,0,0,1-3.48-2.84,12.41,12.41,0,0,1-2-4.17,19.13,19.13,0,0,1-.64-5,18.09,18.09,0,0,1,.64-4.8,13,13,0,0,1,2-4.2,9.88,9.88,0,0,1,3.48-3,10.59,10.59,0,0,1,5.06-1.13,9.8,9.8,0,0,1,8.52,4.34,13.22,13.22,0,0,1,1.9,4.47,19.92,19.92,0,0,1,.48,5.11H417.75A13.13,13.13,0,0,0,418.21,124.45Zm15-9.24a9.28,9.28,0,0,0-1.56-2.81,7.69,7.69,0,0,0-2.45-2,6.93,6.93,0,0,0-3.26-.75,7.05,7.05,0,0,0-3.31.75,7.69,7.69,0,0,0-2.45,2,9.85,9.85,0,0,0-1.61,2.84,13.89,13.89,0,0,0-.79,3.28h16A10.82,10.82,0,0,0,433.18,115.21Z"/><path class="cls-1" d="M450.73,107.87v2.54h-5v16.71a5.43,5.43,0,0,0,.4,2.32c.28.56,1,.88,2,.94a25.16,25.16,0,0,0,2.6-.14v2.54c-.45,0-.9,0-1.35.05s-.89,0-1.34,0c-2,0-3.43-.4-4.23-1.18s-1.18-2.23-1.15-4.34v-17h-4.32v-2.54h4.32v-7.44h3v7.44Z"/><path class="cls-1" d="M474.22,115.5a2.81,2.81,0,0,1,.84,2,2.65,2.65,0,0,1-.86,1.94,2.77,2.77,0,0,1-2,.84,2.7,2.7,0,0,1-2-.86,2.81,2.81,0,0,1-.84-2,2.6,2.6,0,0,1,.86-1.94,2.75,2.75,0,0,1,2-.84A2.66,2.66,0,0,1,474.22,115.5Z"/><path class="cls-1" d="M500.48,105.3a7.62,7.62,0,0,0,2.78-.79,5.25,5.25,0,0,0,2-1.9A9.49,9.49,0,0,0,506.36,99h2.44v33.6h-3v-25H496.9v-2.16C498.21,105.48,499.4,105.41,500.48,105.3Z"/><path class="cls-1" d="M537.94,107.87V112h.14a9.55,9.55,0,0,1,3.15-3.6,8.8,8.8,0,0,1,5-1.29,8.45,8.45,0,0,1,4.44,1.2A5.9,5.9,0,0,1,553.3,112a7.58,7.58,0,0,1,3.26-3.65,9.36,9.36,0,0,1,4.61-1.2q8.21,0,8.21,8.69v16.8h-3V116a7.33,7.33,0,0,0-1.3-4.68c-.86-1.07-2.39-1.61-4.56-1.61a6.42,6.42,0,0,0-3.26.75,5.65,5.65,0,0,0-2.07,2,8.53,8.53,0,0,0-1.08,2.85,17.44,17.44,0,0,0-.31,3.34v14h-3v-16.8a10.15,10.15,0,0,0-.27-2.38,5.42,5.42,0,0,0-.86-2,4.11,4.11,0,0,0-1.61-1.32,5.66,5.66,0,0,0-2.45-.48,7.36,7.36,0,0,0-3.33.7,6,6,0,0,0-2.31,1.92,8.48,8.48,0,0,0-1.32,2.88,14.2,14.2,0,0,0-.43,3.62v13.83h-3V107.87Z"/><path class="cls-1" d="M578.21,98.36v4.85h-3V98.36Zm0,9.51v24.77h-3V107.87Z"/><path class="cls-1" d="M587,107.87v4.27h.09a7.28,7.28,0,0,1,3.07-3.62,9,9,0,0,1,4.85-1.37,12.1,12.1,0,0,1,4.34.67,6.83,6.83,0,0,1,2.81,1.9,7,7,0,0,1,1.49,3,16.74,16.74,0,0,1,.43,4v15.94h-3V117.18a14.4,14.4,0,0,0-.29-3,6.24,6.24,0,0,0-1-2.38,4.9,4.9,0,0,0-1.94-1.58,7.06,7.06,0,0,0-3.05-.58,7.71,7.71,0,0,0-3.24.65,7,7,0,0,0-2.4,1.78,8.11,8.11,0,0,0-1.54,2.68,11.15,11.15,0,0,0-.59,3.39v14.45h-3V107.87Z"/><path class="cls-1" d="M637.39,112.69A4.87,4.87,0,0,0,636,111a5.87,5.87,0,0,0-2-1,9.73,9.73,0,0,0-2.45-.31,9.57,9.57,0,0,0-2,.22,6.13,6.13,0,0,0-1.9.72,4,4,0,0,0-1.39,1.32,3.62,3.62,0,0,0-.53,2,2.82,2.82,0,0,0,.51,1.71,4.46,4.46,0,0,0,1.27,1.17,8.13,8.13,0,0,0,1.68.8c.61.2,1.17.37,1.68.5l4,.91a11.41,11.41,0,0,1,2.57.7,8,8,0,0,1,2.26,1.32,6.36,6.36,0,0,1,1.6,2,6,6,0,0,1,.63,2.84,6.29,6.29,0,0,1-.91,3.43,7.52,7.52,0,0,1-2.33,2.3,9.87,9.87,0,0,1-3.19,1.27,16.41,16.41,0,0,1-3.51.39,11.36,11.36,0,0,1-7.08-2.07q-2.72-2.06-3.09-6.62h3a6,6,0,0,0,2.23,4.63,8.1,8.1,0,0,0,5.07,1.56,11.48,11.48,0,0,0,2.28-.24,7.42,7.42,0,0,0,2.18-.81,5.48,5.48,0,0,0,1.66-1.47,3.61,3.61,0,0,0,.64-2.18,3.52,3.52,0,0,0-.45-1.85,4,4,0,0,0-1.23-1.25,8.12,8.12,0,0,0-1.75-.84c-.65-.22-1.32-.41-2-.57l-3.89-.87a20.34,20.34,0,0,1-2.73-.89,8.74,8.74,0,0,1-2.19-1.24,5.31,5.31,0,0,1-1.46-1.83,6.06,6.06,0,0,1-.53-2.66,6,6,0,0,1,.84-3.22,6.71,6.71,0,0,1,2.18-2.16,10.47,10.47,0,0,1,3-1.2,14.9,14.9,0,0,1,3.29-.38,12.1,12.1,0,0,1,3.48.48,7.84,7.84,0,0,1,2.83,1.49,7.26,7.26,0,0,1,1.95,2.49,8.89,8.89,0,0,1,.81,3.51h-3A5.58,5.58,0,0,0,637.39,112.69Z"/><path class="cls-1" d="M649.3,98.36v4.85h-3V98.36Zm0,9.51v24.77h-3V107.87Z"/><path class="cls-1" d="M674.11,132.64v-4.71H674a7,7,0,0,1-1.42,2.21,9.21,9.21,0,0,1-2.13,1.7,10.6,10.6,0,0,1-2.57,1.08,9.86,9.86,0,0,1-2.71.39,11.08,11.08,0,0,1-4.92-1,9.76,9.76,0,0,1-3.48-2.84,12.17,12.17,0,0,1-2.07-4.17,19.1,19.1,0,0,1,0-10,12.13,12.13,0,0,1,2.07-4.18,10,10,0,0,1,3.48-2.86,10.81,10.81,0,0,1,4.92-1,11.17,11.17,0,0,1,2.71.33,9.12,9.12,0,0,1,2.47,1,8.55,8.55,0,0,1,2,1.7,7.23,7.23,0,0,1,1.37,2.35h.09V98.36h3v34.28Zm-16.58-8.57a10.37,10.37,0,0,0,1.44,3.38,7.91,7.91,0,0,0,2.52,2.43,7,7,0,0,0,3.7.93,7.73,7.73,0,0,0,6.74-3.36,10,10,0,0,0,1.49-3.38,16.4,16.4,0,0,0,0-7.63,10,10,0,0,0-1.49-3.39,8,8,0,0,0-2.69-2.42,8,8,0,0,0-4-.94,6.92,6.92,0,0,0-3.7.94,7.78,7.78,0,0,0-2.52,2.42,10.33,10.33,0,0,0-1.44,3.39,16,16,0,0,0,0,7.63Z"/><path class="cls-1" d="M684.89,124.45a9.28,9.28,0,0,0,1.46,3.15,8.55,8.55,0,0,0,2.55,2.3,7.06,7.06,0,0,0,3.69.91,7.33,7.33,0,0,0,5.19-1.73,9,9,0,0,0,2.59-4.6h3a12.06,12.06,0,0,1-3.52,6.52c-1.72,1.54-4.14,2.31-7.28,2.31a11.62,11.62,0,0,1-5.06-1,9.42,9.42,0,0,1-3.48-2.84,12.21,12.21,0,0,1-2-4.17,18.72,18.72,0,0,1-.65-5,17.69,17.69,0,0,1,.65-4.8,12.73,12.73,0,0,1,2-4.2,10.06,10.06,0,0,1,3.48-3,10.59,10.59,0,0,1,5.06-1.13,9.8,9.8,0,0,1,8.52,4.34A13.22,13.22,0,0,1,703,116a19.92,19.92,0,0,1,.48,5.11H684.43A13.13,13.13,0,0,0,684.89,124.45Zm15-9.24a9.28,9.28,0,0,0-1.56-2.81,7.8,7.8,0,0,0-2.45-2,7,7,0,0,0-3.27-.75,7.08,7.08,0,0,0-3.31.75,7.69,7.69,0,0,0-2.45,2,9.6,9.6,0,0,0-1.6,2.84,13.91,13.91,0,0,0-.8,3.28h16A11.46,11.46,0,0,0,699.87,115.21Z"/><path class="cls-1" d="M710.55,107.87v4.27h.09a7.28,7.28,0,0,1,3.07-3.62,9,9,0,0,1,4.85-1.37,12.2,12.2,0,0,1,4.35.67,6.86,6.86,0,0,1,2.8,1.9,7,7,0,0,1,1.49,3,16.74,16.74,0,0,1,.43,4v15.94h-3V117.18a14.4,14.4,0,0,0-.29-3,6.24,6.24,0,0,0-1-2.38,4.83,4.83,0,0,0-1.94-1.58,7.06,7.06,0,0,0-3-.58,7.74,7.74,0,0,0-3.24.65,7,7,0,0,0-2.4,1.78,8.09,8.09,0,0,0-1.53,2.68,10.85,10.85,0,0,0-.6,3.39v14.45h-3V107.87Z"/><path class="cls-2" d="M185.76,42.6a10.26,10.26,0,0,1-2.21,3.94,10.76,10.76,0,0,1-4.09,2.77,16.7,16.7,0,0,1-6.33,1q-6.3,0-9.71-3.3T160,37.31V34.54h6v1.89a19.05,19.05,0,0,0,.31,3.59,7.91,7.91,0,0,0,1.1,2.84,5.31,5.31,0,0,0,2.21,1.85,8.45,8.45,0,0,0,3.62.67q4.09,0,5.64-2.21a10.13,10.13,0,0,0,1.54-5.92V4.36h6V38.13A15.51,15.51,0,0,1,185.76,42.6Z"/><path class="cls-2" d="M194.61,26.38a15.28,15.28,0,0,1,3-5.42,14.36,14.36,0,0,1,5-3.62,18.28,18.28,0,0,1,13.64,0A14.43,14.43,0,0,1,221.2,21a15.28,15.28,0,0,1,3,5.42,21.78,21.78,0,0,1,1,6.71,21.45,21.45,0,0,1-1,6.68,15.33,15.33,0,0,1-3,5.39,14.1,14.1,0,0,1-4.95,3.59,18.67,18.67,0,0,1-13.64,0,14,14,0,0,1-5-3.59,15.33,15.33,0,0,1-3-5.39,21.45,21.45,0,0,1-1-6.68A21.78,21.78,0,0,1,194.61,26.38Zm5.45,12a10.83,10.83,0,0,0,2.17,3.84,9.56,9.56,0,0,0,3.25,2.37,9.85,9.85,0,0,0,7.87,0,9.56,9.56,0,0,0,3.25-2.37,10.83,10.83,0,0,0,2.17-3.84,16.3,16.3,0,0,0,.79-5.26,16.34,16.34,0,0,0-.79-5.26A11.34,11.34,0,0,0,216.6,24a9.39,9.39,0,0,0-3.25-2.4,9.85,9.85,0,0,0-7.87,0,9.39,9.39,0,0,0-3.25,2.4,11.34,11.34,0,0,0-2.17,3.87,16.07,16.07,0,0,0-.79,5.26A16,16,0,0,0,200.06,38.35Z"/><path class="cls-2" d="M260.38,49.22a7.61,7.61,0,0,1-3.84.82,4.6,4.6,0,0,1-3.31-1.17A5,5,0,0,1,252,45.06a12.7,12.7,0,0,1-5.13,3.81,17.61,17.61,0,0,1-10.52.66A9.71,9.71,0,0,1,232.91,48a7.64,7.64,0,0,1-2.3-2.8,9.57,9.57,0,0,1-.85-4.19,9.59,9.59,0,0,1,1-4.54,8.26,8.26,0,0,1,2.49-2.87,11.56,11.56,0,0,1,3.52-1.67c1.33-.37,2.68-.69,4.07-.94s2.86-.51,4.19-.66a23.91,23.91,0,0,0,3.49-.63,5.76,5.76,0,0,0,2.4-1.2,2.91,2.91,0,0,0,.88-2.3,5.34,5.34,0,0,0-.66-2.83,4.52,4.52,0,0,0-1.7-1.64,7,7,0,0,0-2.33-.76,18.61,18.61,0,0,0-2.56-.19A11.38,11.38,0,0,0,238.83,22c-1.51.87-2.33,2.49-2.45,4.89H231a11.76,11.76,0,0,1,1.26-5.11,9.74,9.74,0,0,1,3-3.37,12.49,12.49,0,0,1,4.31-1.85,22.7,22.7,0,0,1,5.2-.57,30.51,30.51,0,0,1,4.38.31,11.5,11.5,0,0,1,3.94,1.29A7.51,7.51,0,0,1,256,20.36,8.75,8.75,0,0,1,257,24.94V41.67a12.81,12.81,0,0,0,.22,2.76c.15.59.64.88,1.48.88a6.36,6.36,0,0,0,1.64-.25Zm-8.69-16.7a6.65,6.65,0,0,1-2.65,1.1c-1.09.23-2.24.42-3.43.57s-2.41.31-3.62.5a13.3,13.3,0,0,0-3.28.91,5.87,5.87,0,0,0-2.36,1.78,5,5,0,0,0-.92,3.17,4.25,4.25,0,0,0,.54,2.22,4.56,4.56,0,0,0,1.38,1.48,5.83,5.83,0,0,0,2,.81,10.82,10.82,0,0,0,2.39.25,12.76,12.76,0,0,0,4.54-.72,9.43,9.43,0,0,0,3.09-1.82,7.24,7.24,0,0,0,1.76-2.38,5.94,5.94,0,0,0,.57-2.41Z"/><path class="cls-2" d="M284.82,22.44a8.13,8.13,0,0,0-5.41-1.7,10,10,0,0,0-4.85,1.07,8.56,8.56,0,0,0-3.12,2.84,11.79,11.79,0,0,0-1.67,4.06,22,22,0,0,0-.51,4.76,18,18,0,0,0,.54,4.41,11.74,11.74,0,0,0,1.67,3.81,8.4,8.4,0,0,0,3,2.68,8.91,8.91,0,0,0,4.35,1A8.79,8.79,0,0,0,285,43.3a9.37,9.37,0,0,0,2.74-5.86h5.48q-.88,6-4.5,9.32T278.84,50a16.9,16.9,0,0,1-6.58-1.2,12.71,12.71,0,0,1-4.79-3.4,14.69,14.69,0,0,1-2.9-5.26,22,22,0,0,1-1-6.71,23.91,23.91,0,0,1,1-6.84,15.76,15.76,0,0,1,2.86-5.54,13.58,13.58,0,0,1,4.82-3.72A15.84,15.84,0,0,1,279,16a19.75,19.75,0,0,1,5.2.66,12.54,12.54,0,0,1,4.29,2.05,11.31,11.31,0,0,1,3.05,3.49,12.87,12.87,0,0,1,1.51,5h-5.54A8.15,8.15,0,0,0,284.82,22.44Z"/><path class="cls-2" d="M304.54,4.36v17.2h.13A7.14,7.14,0,0,1,306.43,19a10.23,10.23,0,0,1,2.55-1.7,13.53,13.53,0,0,1,3-1,15,15,0,0,1,3-.31,14.08,14.08,0,0,1,5.35.88,8.82,8.82,0,0,1,3.47,2.46,9.19,9.19,0,0,1,1.86,3.75,20.44,20.44,0,0,1,.53,4.82V49.35H320.8v-22A6.45,6.45,0,0,0,319,22.51a6.53,6.53,0,0,0-4.85-1.77,11,11,0,0,0-4.25.76,7.87,7.87,0,0,0-3,2.14,9.29,9.29,0,0,0-1.8,3.25,13.1,13.1,0,0,0-.6,4.06v18.4h-5.35v-45Z"/><path class="cls-2" d="M334.53,10.92V4.36h5.36v6.56Zm5.36,5.85V49.35h-5.36V16.77Z"/><path class="cls-2" d="M353.24,16.77v4.79h.13a12.69,12.69,0,0,1,16-4.28,7,7,0,0,1,3.46,4.28,11.38,11.38,0,0,1,4.32-4.09A12.12,12.12,0,0,1,383,16a17.33,17.33,0,0,1,4.44.53,9.33,9.33,0,0,1,3.4,1.67,7.66,7.66,0,0,1,2.21,2.93,10.82,10.82,0,0,1,.79,4.32V49.35h-5.36V28a15.09,15.09,0,0,0-.25-2.84,5.78,5.78,0,0,0-.95-2.3,4.71,4.71,0,0,0-1.92-1.54,7.6,7.6,0,0,0-3.18-.57A8.47,8.47,0,0,0,376,23a8.18,8.18,0,0,0-2.26,6V49.35h-5.36V28a13.79,13.79,0,0,0-.28-2.9,6.21,6.21,0,0,0-1-2.3,4.56,4.56,0,0,0-1.86-1.51,7.14,7.14,0,0,0-3-.54,8,8,0,0,0-4,1,9.06,9.06,0,0,0-4.22,5,7.57,7.57,0,0,0-.47,2.36V49.35H348.2V16.77Z"/><rect class="cls-3" x="171.92" y="84.68" width="58.32" height="58.32" rx="14"/><path class="cls-4" d="M819.15,44.19c2.16-1,6.49,3.41,8.83,6.63,5.78,7.93,5.29,16.55,7.07,16.57.93,0,1.16-2.37,2.65-5.75,3.54-8,8.19-8.17,11.71-15.24,3.26-6.55,1.13-10.18,3.53-11.27,4-1.81,13.71,6.67,18.78,17.23,5.63,11.73,3.88,22.54,6.85,23,3.19.47,5.67-11.92,9.94-11.71,4.56.22,7.29,14.63,8,18.11,1.17,6.18,2.29,12.07.88,19.66-.49,2.67-3.23,17.5-16.34,26.51-8,5.46-15.72,6.06-26.07,6.85-7.66.58-15.12,1.15-23.85-2.43a38.64,38.64,0,0,1-16.57-12.59C807,109.63,807,98.72,807,94.56c0-11.82,4.75-21.74,6.18-24.74s1.94-3.41,2.88-6C820,53.15,816.53,45.39,819.15,44.19Z"/><path class="cls-5" d="M824,52.93c1.94-.89,5.79,3,7.88,5.9,5.15,7.07,4.72,14.76,6.3,14.77.83,0,1-2.1,2.36-5.12,3.16-7.16,7.3-7.28,10.44-13.59,2.91-5.84,1-9.07,3.15-10,3.58-1.61,12.22,5.95,16.74,15.36,5,10.46,3.46,20.09,6.1,20.48,2.85.42,5.06-10.62,8.86-10.44,4.07.2,6.5,13,7.09,16.15,1.05,5.51,2,10.75.79,17.53-.44,2.38-2.88,15.59-14.57,23.62-7.08,4.87-14,5.4-23.24,6.11-6.82.52-13.47,1-21.26-2.17a34.3,34.3,0,0,1-14.77-11.22c-6.71-9-6.7-18.73-6.7-22.45,0-10.53,4.24-19.38,5.52-22a49.86,49.86,0,0,0,2.56-5.32C824.73,60.92,821.68,54,824,52.93Z"/><path class="cls-6" d="M825.55,84.84c.69.06.16,2.92,2.21,6.18s6.21,5.89,8,4.86c1.24-.73.56-2.82.88-5.52.79-6.73,6.73-8.58,14.8-17.89,6.13-7.09,6.54-10.46,8.39-10.17,5.69.91,2.33,32.79,10.61,34.91,4.85,1.23,10.22-8.65,13.69-6.85,2.49,1.29,1.78,7.42,1.11,13.25-.58,5-1.1,9.48-4,14.8a32.69,32.69,0,0,1-11.05,11.93,31.69,31.69,0,0,1-13,4.64,28,28,0,0,1-15.46-2c-6.17-2.83-9.35-7.38-12.37-11.71-2.35-3.37-6.63-9.5-7.51-18.33C820.84,93.32,824.35,84.72,825.55,84.84Z"/><path class="cls-7" d="M858.47,77.1c.74.58-1.37,3.22-.67,7.74a13.78,13.78,0,0,0,1.55,4.41c4.23,8.35.24,20,4,21.87,3.07,1.52,7.54-5.5,10.38-4s1.8,9.72-1.11,15.46a20,20,0,0,1-17.45,11.26,21.49,21.49,0,0,1-10.82-1.32c-4.32-1.82-6.76-4.75-9.06-7.51a35.37,35.37,0,0,1-5.3-8.84c-1-2.28-3.81-8.53-2.43-9.5,1.83-1.28,9.2,7.92,11.49,6.41.93-.62.43-2.62.22-4.64-.65-6.3,1.74-11.25,4.2-16.34C848.2,82.27,857.17,76.1,858.47,77.1Z"/><path class="cls-8" d="M108.39,138.09c0-13.91-7.13-25.35-16.26-26.71v-.13H16.47c-10,0-18.08,12-18.08,26.84"/><path class="cls-9" d="M64.41,118h.08l-.13-26.94-22.07.11.13,26.94h.09c0,3.39,4.93,6.11,11,6.08S64.43,121.41,64.41,118Z"/><path class="cls-10" d="M14,36.72V60.94c0,23,17.49,41.72,39.07,41.72S92.12,84,92.12,60.94V36.72Z"/><ellipse cx="36.84" cy="53.97" rx="4.83" ry="4.77"/><ellipse cx="68.57" cy="53.97" rx="4.83" ry="4.77"/><path class="cls-11" d="M65,71.21c0,9-6,16.23-13.45,16.23S38.09,80.17,38.09,71.21"/><ellipse class="cls-12" cx="28.33" cy="69.69" rx="4.92" ry="4.86"/><ellipse class="cls-12" cx="74.66" cy="69.69" rx="4.92" ry="4.86"/><path class="cls-9" d="M14.08,65.46c-6.15,0-11.14-4.59-11.14-10.26S7.93,45,14.08,45"/><path class="cls-9" d="M91.9,45C98.05,45,103,49.54,103,55.2s-5,10.26-11.13,10.26"/><path class="cls-13" d="M.14,8.26H65.39A27.57,27.57,0,0,1,93,35.83v0a3.24,3.24,0,0,1-3.24,3.24H26.36A26.22,26.22,0,0,1,.14,12.89V8.26a0,0,0,0,1,0,0Z"/></g></svg>
