<svg id="Layer_1" data-name="Layer 1" xmlns="http://www.w3.org/2000/svg" width="955" height="785.13" viewBox="0 0 955 785.13"><defs><style>.cls-1{fill:#15222f;}.cls-2{fill:#fff;}.cls-3{fill:#f4912b;}</style></defs><title>Levelcomplete</title><rect class="cls-1" width="955" height="785.13" rx="112" ry="112"/><path class="cls-2" d="M68.22,149.7a43.74,43.74,0,0,1,7.44-.65c5,0,8.62,1.34,11,3.89s3.83,6.16,3.83,11.21-1.37,9.26-3.91,12.13-6.72,4.49-12,4.49a49.44,49.44,0,0,1-6.36-.37Zm3.5,27.6a18.8,18.8,0,0,0,3.54.23c7.49,0,11.55-4.81,11.55-13.24,0-7.37-3.58-12-11-12a17.45,17.45,0,0,0-4.1.41Z"/><path class="cls-2" d="M97,170c.08,5.51,3.14,7.78,6.68,7.78a11.37,11.37,0,0,0,5.4-1.16l.6,2.92a14,14,0,0,1-6.48,1.39c-6,0-9.58-4.54-9.58-11.3s3.46-12.09,9.14-12.09c6.36,0,8,6.44,8,10.56a17.91,17.91,0,0,1-.12,1.9Zm10.39-2.92c0-2.59-.93-6.62-4.91-6.62-3.59,0-5.16,3.8-5.44,6.62Z"/><path class="cls-2" d="M119.51,151.64v6.44h5.07v3.1h-5.07v12.09c0,2.78.68,4.35,2.65,4.35a6.87,6.87,0,0,0,2-.27l.17,3.05a7.6,7.6,0,0,1-3.14.56,4.6,4.6,0,0,1-3.83-1.72c-1-1.2-1.37-3.19-1.37-5.83V161.18h-3v-3.1h3v-5.37Z"/><path class="cls-2" d="M138.47,158.08l3.82,12.6c.65,2,1.17,3.89,1.57,5.74H144c.45-1.85,1-3.7,1.65-5.74l3.79-12.6h3.7l-7.65,22.42h-3.38l-7.41-22.42Z"/><path class="cls-2" d="M167.09,180.5l-.28-2.83h-.12a7,7,0,0,1-6,3.33c-3.94,0-6-3.19-6-6.43,0-5.42,4.19-8.38,11.72-8.34v-.46c0-1.85-.45-5.19-4.43-5.19a8.77,8.77,0,0,0-5.07,1.67l-.81-2.69a11,11,0,0,1,6.4-2c6,0,7.41,4.68,7.41,9.17v8.38a36.54,36.54,0,0,0,.32,5.38Zm-.52-11.44c-3.87-.1-8.26.69-8.26,5,0,2.64,1.53,3.89,3.35,3.89a5,5,0,0,0,4.71-3.75,4.81,4.81,0,0,0,.2-1.29Z"/><path class="cls-2" d="M175.71,165.07c0-2.64,0-4.9-.16-7h3.1l.12,4.4h.16c.88-3,3-4.91,5.39-4.91a3.47,3.47,0,0,1,1,.14v3.84a4.82,4.82,0,0,0-1.21-.13c-2.5,0-4.27,2.17-4.75,5.23a13.1,13.1,0,0,0-.16,1.9V180.5h-3.5Z"/><path class="cls-2" d="M199.38,170c.08,5.51,3.14,7.78,6.68,7.78a11.3,11.3,0,0,0,5.39-1.16l.61,2.92a14,14,0,0,1-6.48,1.39c-6,0-9.58-4.54-9.58-11.3s3.46-12.09,9.13-12.09c6.36,0,8.06,6.44,8.06,10.56a17.36,17.36,0,0,1-.13,1.9Zm10.38-2.92c0-2.59-.92-6.62-4.91-6.62-3.58,0-5.15,3.8-5.43,6.62Z"/><path class="cls-2" d="M217.58,164.15c0-2.32,0-4.22-.16-6.07h3.13l.21,3.71h.08a7.08,7.08,0,0,1,6.44-4.22c2.69,0,6.88,1.85,6.88,9.54V180.5h-3.54V167.57c0-3.61-1.17-6.62-4.51-6.62a5.2,5.2,0,0,0-4.75,4.17,6.7,6.7,0,0,0-.24,1.9V180.5h-3.54Z"/><path class="cls-3" d="M265.24,158.08c-.08,1.62-.16,3.43-.16,6.16v13c0,5.14-.89,8.29-2.78,10.24a9.46,9.46,0,0,1-7.08,2.68,11.25,11.25,0,0,1-6.48-1.85l.88-3.1a9.91,9.91,0,0,0,5.72,1.76c3.62,0,6.28-2.18,6.28-7.83v-2.5h-.08a6.78,6.78,0,0,1-6.2,3.75c-4.83,0-8.29-4.72-8.29-10.93,0-7.59,4.3-11.9,8.77-11.9a6.42,6.42,0,0,1,6.08,3.89H262l.16-3.38Zm-3.66,8.85a6.72,6.72,0,0,0-.2-1.86c-.65-2.36-2.38-4.3-5-4.3-3.38,0-5.79,3.28-5.79,8.47,0,4.4,1.93,8.06,5.75,8.06,2.18,0,4.15-1.57,4.91-4.17a7.71,7.71,0,0,0,.29-2.17Z"/><path class="cls-3" d="M288.59,169.1c0,8.29-5,11.9-9.7,11.9-5.27,0-9.34-4.44-9.34-11.53,0-7.5,4.27-11.9,9.66-11.9C284.81,157.57,288.59,162.25,288.59,169.1Zm-15.46.23c0,4.91,2.46,8.62,5.92,8.62s5.92-3.66,5.92-8.71c0-3.8-1.65-8.61-5.84-8.61S273.13,165.07,273.13,169.33Z"/><path class="cls-3" d="M309.89,147.61v27.1c0,2,0,4.26.16,5.79h-3.18l-.16-3.89h-.08A7.12,7.12,0,0,1,300,181c-4.71,0-8.34-4.58-8.34-11.39,0-7.45,4-12,8.74-12a6.32,6.32,0,0,1,5.87,3.43h.09V147.61Zm-3.54,19.59a7.69,7.69,0,0,0-.17-1.71c-.52-2.59-2.45-4.72-5.11-4.72-3.66,0-5.83,3.7-5.83,8.66,0,4.54,1.93,8.29,5.75,8.29,2.38,0,4.55-1.81,5.19-4.87a7.51,7.51,0,0,0,.17-1.76Z"/><path class="cls-2" d="M324.14,180.5c.08-1.53.16-3.8.16-5.79v-27.1h3.5v14.08h.09a7.09,7.09,0,0,1,6.64-4.12c4.83,0,8.25,4.63,8.21,11.44,0,8-4.39,12-8.74,12a6.82,6.82,0,0,1-6.52-4.21h-.12l-.16,3.71Zm3.66-9A8.7,8.7,0,0,0,328,173c.68,2.83,2.73,4.77,5.31,4.77,3.7,0,5.92-3.47,5.92-8.61,0-4.49-2-8.34-5.8-8.34-2.42,0-4.67,1.9-5.39,5a9,9,0,0,0-.21,1.66Z"/><path class="cls-2" d="M349.18,170c.08,5.51,3.14,7.78,6.68,7.78a11.37,11.37,0,0,0,5.4-1.16l.6,2.92a14,14,0,0,1-6.48,1.39c-6,0-9.58-4.54-9.58-11.3s3.46-12.09,9.14-12.09c6.36,0,8.05,6.44,8.05,10.56a17.91,17.91,0,0,1-.12,1.9Zm10.39-2.92c0-2.59-.93-6.62-4.91-6.62-3.59,0-5.16,3.8-5.44,6.62Z"/><path class="cls-2" d="M366.9,176.33a8.46,8.46,0,0,0,4.67,1.62c2.57,0,3.78-1.48,3.78-3.34s-1-3-3.62-4.12c-3.5-1.43-5.16-3.66-5.16-6.34a6.39,6.39,0,0,1,6.73-6.58,8.78,8.78,0,0,1,4.79,1.39l-.89,3a6.9,6.9,0,0,0-4-1.29,3,3,0,0,0-3.26,3.05c0,1.86,1.16,2.69,3.7,3.8,3.38,1.48,5.11,3.43,5.11,6.76,0,3.94-2.66,6.72-7.28,6.72a10,10,0,0,1-5.48-1.53Z"/><path class="cls-2" d="M383.32,147.61h3.54V180.5h-3.54Z"/><path class="cls-2" d="M409.13,174.38c0,2.32,0,4.36.16,6.12h-3.14l-.2-3.66h-.08a7.26,7.26,0,0,1-6.44,4.16c-3.06,0-6.73-1.94-6.73-9.81V158.08h3.55v12.41c0,4.26,1.12,7.13,4.34,7.13a5.2,5.2,0,0,0,4.67-3.7,6.77,6.77,0,0,0,.32-2.08V158.08h3.55Z"/><path class="cls-2" d="M419.27,151.64v6.44h5.08v3.1h-5.08v12.09c0,2.78.69,4.35,2.66,4.35a6.87,6.87,0,0,0,2.05-.27l.16,3.05A7.53,7.53,0,0,1,421,181a4.58,4.58,0,0,1-3.82-1.72c-1-1.2-1.37-3.19-1.37-5.83V161.18h-3v-3.1h3v-5.37Z"/><path class="cls-2" d="M428.33,164.15c0-2.32,0-4.22-.16-6.07h3.14l.2,3.71h.08a7.09,7.09,0,0,1,6.44-4.22c2.7,0,6.89,1.85,6.89,9.54V180.5h-3.54V167.57c0-3.61-1.17-6.62-4.51-6.62a5.2,5.2,0,0,0-4.75,4.17,6.7,6.7,0,0,0-.24,1.9V180.5h-3.55Z"/><path class="cls-2" d="M454.62,151.78a2.25,2.25,0,0,1-2.25,2.5,2.29,2.29,0,0,1-2.14-2.5,2.34,2.34,0,0,1,2.22-2.54A2.28,2.28,0,0,1,454.62,151.78Zm-3.94,28.72V158.08h3.54V180.5Z"/><path class="cls-2" d="M460.1,164.15c0-2.32,0-4.22-.16-6.07h3.14l.2,3.71h.08a7.08,7.08,0,0,1,6.44-4.22c2.7,0,6.88,1.85,6.88,9.54V180.5h-3.54V167.57c0-3.61-1.17-6.62-4.51-6.62-2.33,0-4.14,1.9-4.75,4.17a6.7,6.7,0,0,0-.24,1.9V180.5H460.1Z"/><path class="cls-2" d="M499.23,158.08c-.08,1.62-.16,3.43-.16,6.16v13c0,5.14-.89,8.29-2.78,10.24a9.47,9.47,0,0,1-7.09,2.68,11.27,11.27,0,0,1-6.48-1.85l.89-3.1a9.9,9.9,0,0,0,5.71,1.76c3.63,0,6.28-2.18,6.28-7.83v-2.5h-.08a6.77,6.77,0,0,1-6.2,3.75c-4.83,0-8.29-4.72-8.29-10.93,0-7.59,4.31-11.9,8.78-11.9a6.42,6.42,0,0,1,6.08,3.89H496l.16-3.38Zm-3.67,8.85a6.72,6.72,0,0,0-.2-1.86c-.64-2.36-2.37-4.3-4.95-4.3-3.38,0-5.79,3.28-5.79,8.47,0,4.4,1.93,8.06,5.75,8.06,2.17,0,4.15-1.57,4.91-4.17a8.08,8.08,0,0,0,.28-2.17Z"/><path class="cls-2" d="M503.5,178.09c0-1.72,1-2.92,2.41-2.92s2.38,1.2,2.38,2.92-.93,2.91-2.42,2.91S503.5,179.75,503.5,178.09Z"/><path class="cls-2" d="M68.22,260.84a43.81,43.81,0,0,1,7.44-.64c5,0,8.62,1.34,11,3.89s3.83,6.16,3.83,11.2-1.37,9.27-3.91,12.14-6.72,4.49-12,4.49a49.44,49.44,0,0,1-6.36-.37Zm3.5,27.61a19.68,19.68,0,0,0,3.54.23c7.49,0,11.55-4.82,11.55-13.25,0-7.36-3.58-12-11-12a17.35,17.35,0,0,0-4.1.42Z"/><path class="cls-2" d="M111.33,285.53c0,2.31,0,4.35.16,6.11h-3.14l-.2-3.66h-.08a7.25,7.25,0,0,1-6.44,4.17c-3.06,0-6.72-1.94-6.72-9.82v-13.1h3.54v12.41c0,4.26,1.13,7.13,4.35,7.13a5.23,5.23,0,0,0,4.67-3.71,6.77,6.77,0,0,0,.32-2.08V269.23h3.54Z"/><path class="cls-2" d="M127.06,275.29c0-2.31,0-4.21-.16-6.06H130l.16,3.61h.12c1.09-2.13,2.9-4.12,6.12-4.12,2.65,0,4.67,1.85,5.51,4.49H142a9.1,9.1,0,0,1,2.18-2.92,6.06,6.06,0,0,1,4.3-1.57c2.58,0,6.4,1.94,6.4,9.72v13.2h-3.46V279c0-4.31-1.37-6.9-4.22-6.9-2,0-3.59,1.71-4.19,3.71a7.6,7.6,0,0,0-.28,2v13.85h-3.47V278.21c0-3.57-1.36-6.16-4.06-6.16-2.21,0-3.82,2-4.39,4.08a6.39,6.39,0,0,0-.28,2v13.52h-3.46Z"/><path class="cls-2" d="M171.42,291.64l-.28-2.82H171a7,7,0,0,1-6,3.33c-3.94,0-5.95-3.2-5.95-6.44,0-5.42,4.18-8.38,11.71-8.33v-.47c0-1.85-.44-5.18-4.43-5.18a8.85,8.85,0,0,0-5.07,1.66l-.81-2.68a10.9,10.9,0,0,1,6.4-2c6,0,7.41,4.67,7.41,9.17v8.38a36.48,36.48,0,0,0,.32,5.37Zm-.52-11.44c-3.86-.09-8.25.7-8.25,5.05,0,2.64,1.53,3.89,3.34,3.89a5,5,0,0,0,4.71-3.75,4.88,4.88,0,0,0,.2-1.3Zm-7.61-17.64a4.08,4.08,0,0,1,4.11-4.4c2.41,0,4,1.9,4,4.35a4,4,0,1,1-8.09.05Zm6.12-.09a2.28,2.28,0,0,0-2.09-2.55c-1.25,0-2,1.2-2,2.64,0,1.2.81,2.5,2,2.5S169.41,263.85,169.41,262.47Z"/><path class="cls-2" d="M189.89,275.29c0-2.31,0-4.21-.16-6.06h3.14l.2,3.7h.08a7.07,7.07,0,0,1,6.44-4.21c2.7,0,6.88,1.85,6.88,9.54v13.38h-3.54V278.72c0-3.61-1.17-6.62-4.51-6.62-2.33,0-4.15,1.9-4.75,4.17a6.68,6.68,0,0,0-.24,1.89v13.48h-3.54Z"/><path class="cls-2" d="M214.2,281.17c.08,5.52,3.14,7.78,6.69,7.78a11.37,11.37,0,0,0,5.39-1.15l.6,2.91a14,14,0,0,1-6.48,1.39c-6,0-9.58-4.53-9.58-11.3s3.46-12.08,9.14-12.08c6.36,0,8,6.43,8,10.56a17.49,17.49,0,0,1-.12,1.89Zm10.39-2.91c0-2.6-.93-6.63-4.91-6.63-3.58,0-5.15,3.8-5.44,6.63Z"/><path class="cls-2" d="M232.4,275.29c0-2.31,0-4.21-.16-6.06h3.1l.16,3.61h.12c1.09-2.13,2.9-4.12,6.12-4.12,2.66,0,4.67,1.85,5.51,4.49h.08a9.1,9.1,0,0,1,2.18-2.92,6.08,6.08,0,0,1,4.31-1.57c2.57,0,6.4,1.94,6.4,9.72v13.2h-3.47V279c0-4.31-1.36-6.9-4.22-6.9-2,0-3.59,1.71-4.19,3.71a7.6,7.6,0,0,0-.28,2v13.85H244.6V278.21c0-3.57-1.37-6.16-4.07-6.16-2.21,0-3.82,2-4.39,4.08a6.39,6.39,0,0,0-.28,2v13.52H232.4Z"/><path class="cls-2" d="M266,258.76h3.54v32.88H266Z"/><path class="cls-2" d="M279.42,262.93a2.25,2.25,0,0,1-2.25,2.5,2.28,2.28,0,0,1-2.13-2.5,2.33,2.33,0,0,1,2.21-2.55A2.28,2.28,0,0,1,279.42,262.93Zm-3.94,28.71V269.23H279v22.41Z"/><path class="cls-2" d="M301.68,269.23c-.08,1.62-.16,3.42-.16,6.16v13c0,5.14-.88,8.29-2.77,10.23a9.49,9.49,0,0,1-7.09,2.69,11.34,11.34,0,0,1-6.48-1.85l.89-3.11a9.88,9.88,0,0,0,5.71,1.76c3.62,0,6.28-2.17,6.28-7.82v-2.5H298a6.8,6.8,0,0,1-6.2,3.75c-4.83,0-8.29-4.73-8.29-10.93,0-7.6,4.31-11.9,8.78-11.9a6.38,6.38,0,0,1,6.07,3.89h.08l.16-3.38ZM298,278.07a6.69,6.69,0,0,0-.2-1.85c-.64-2.36-2.37-4.31-4.95-4.31-3.38,0-5.8,3.29-5.8,8.48,0,4.4,1.93,8.06,5.76,8.06,2.17,0,4.14-1.58,4.91-4.17a8.15,8.15,0,0,0,.28-2.18Z"/><path class="cls-2" d="M321.2,262.93a2.21,2.21,0,1,1-4.39,0,2.33,2.33,0,0,1,2.21-2.55A2.29,2.29,0,0,1,321.2,262.93Zm-3.95,28.71V269.23h3.54v22.41Z"/><path class="cls-2" d="M330.17,279.51h.08c.49-.79,1.17-1.76,1.73-2.55l5.72-7.73H342l-7.53,9.21,8.57,13.2h-4.3L332,280.9l-1.81,2.31v8.43h-3.5V258.76h3.5Z"/><path class="cls-2" d="M349.74,279.51h.08c.48-.79,1.17-1.76,1.73-2.55l5.72-7.73h4.26L354,278.44l8.58,13.2h-4.31l-6.72-10.74-1.81,2.31v8.43h-3.5V258.76h3.5Z"/><path class="cls-2" d="M367.09,281.17c.08,5.52,3.14,7.78,6.68,7.78a11.39,11.39,0,0,0,5.4-1.15l.6,2.91a14,14,0,0,1-6.48,1.39c-6,0-9.58-4.53-9.58-11.3s3.46-12.08,9.14-12.08c6.36,0,8,6.43,8,10.56a17.49,17.49,0,0,1-.12,1.89Zm10.39-2.91c0-2.6-.93-6.63-4.92-6.63-3.58,0-5.15,3.8-5.43,6.63Z"/><path class="cls-3" d="M394.65,287.47a8.44,8.44,0,0,0,4.67,1.62c2.58,0,3.78-1.48,3.78-3.33s-1-3-3.62-4.12c-3.5-1.44-5.15-3.66-5.15-6.35a6.38,6.38,0,0,1,6.72-6.57,8.78,8.78,0,0,1,4.79,1.39l-.88,3a6.89,6.89,0,0,0-4-1.3,3,3,0,0,0-3.26,3.06c0,1.85,1.17,2.69,3.7,3.8,3.39,1.48,5.12,3.42,5.12,6.76,0,3.94-2.66,6.71-7.29,6.71a10,10,0,0,1-5.47-1.52Z"/><path class="cls-3" d="M413.05,281.17c.08,5.52,3.14,7.78,6.68,7.78a11.39,11.39,0,0,0,5.4-1.15l.6,2.91a14,14,0,0,1-6.48,1.39c-6,0-9.58-4.53-9.58-11.3s3.46-12.08,9.14-12.08c6.36,0,8.05,6.43,8.05,10.56a17.49,17.49,0,0,1-.12,1.89Zm10.39-2.91c0-2.6-.93-6.63-4.92-6.63-3.58,0-5.15,3.8-5.43,6.63Z"/><path class="cls-3" d="M431.25,275.29c0-2.31,0-4.21-.16-6.06h3.14l.2,3.7h.08a7.07,7.07,0,0,1,6.44-4.21c2.7,0,6.88,1.85,6.88,9.54v13.38h-3.54V278.72c0-3.61-1.17-6.62-4.51-6.62-2.33,0-4.14,1.9-4.75,4.17a6.68,6.68,0,0,0-.24,1.89v13.48h-3.54Z"/><path class="cls-3" d="M470.42,258.76v27.09c0,2,0,4.26.16,5.79H467.4l-.16-3.89h-.08a7.13,7.13,0,0,1-6.64,4.4c-4.71,0-8.34-4.58-8.34-11.39,0-7.46,4-12,8.74-12a6.33,6.33,0,0,1,5.87,3.42h.09V258.76Zm-3.54,19.59a8.27,8.27,0,0,0-.17-1.71c-.52-2.6-2.45-4.73-5.11-4.73-3.66,0-5.83,3.71-5.83,8.66,0,4.54,1.93,8.29,5.75,8.29,2.38,0,4.55-1.8,5.19-4.86a8.15,8.15,0,0,0,.17-1.76Z"/><path class="cls-3" d="M478.27,281.17c.08,5.52,3.14,7.78,6.68,7.78a11.39,11.39,0,0,0,5.4-1.15l.6,2.91a14,14,0,0,1-6.48,1.39c-6,0-9.58-4.53-9.58-11.3s3.46-12.08,9.14-12.08c6.36,0,8.05,6.43,8.05,10.56a17.49,17.49,0,0,1-.12,1.89Zm10.39-2.91c0-2.6-.93-6.63-4.92-6.63-3.58,0-5.15,3.8-5.43,6.63Z"/><path class="cls-2" d="M508.29,281.17c.08,5.52,3.14,7.78,6.68,7.78a11.31,11.31,0,0,0,5.39-1.15l.61,2.91a14,14,0,0,1-6.48,1.39c-6,0-9.58-4.53-9.58-11.3s3.46-12.08,9.13-12.08c6.36,0,8.05,6.43,8.05,10.56a17.49,17.49,0,0,1-.12,1.89Zm10.38-2.91c0-2.6-.92-6.63-4.91-6.63-3.58,0-5.15,3.8-5.43,6.63Z"/><path class="cls-2" d="M526.49,258.76H530v32.88h-3.54Z"/><path class="cls-2" d="M536,258.76h3.54v32.88H536Z"/><path class="cls-2" d="M547.46,281.17c.08,5.52,3.14,7.78,6.68,7.78a11.39,11.39,0,0,0,5.4-1.15l.6,2.91a14,14,0,0,1-6.48,1.39c-6,0-9.58-4.53-9.58-11.3s3.46-12.08,9.14-12.08c6.36,0,8,6.43,8,10.56a17.49,17.49,0,0,1-.12,1.89Zm10.38-2.91c0-2.6-.92-6.63-4.91-6.63-3.58,0-5.15,3.8-5.43,6.63Z"/><path class="cls-2" d="M565.66,276.22c0-2.64,0-4.91-.16-7h3.1l.12,4.4h.16c.88-3,3-4.91,5.39-4.91a3.16,3.16,0,0,1,1,.14v3.84a4.79,4.79,0,0,0-1.21-.14c-2.5,0-4.27,2.18-4.75,5.23a13.36,13.36,0,0,0-.16,1.9v11.95h-3.5Z"/><path class="cls-3" d="M588.67,275.29c0-2.31,0-4.21-.16-6.06h3.1l.16,3.61h.12c1.08-2.13,2.9-4.12,6.12-4.12,2.65,0,4.67,1.85,5.51,4.49h.08a9.1,9.1,0,0,1,2.18-2.92,6.06,6.06,0,0,1,4.3-1.57c2.58,0,6.4,1.94,6.4,9.72v13.2H613V279c0-4.31-1.37-6.9-4.23-6.9-2,0-3.58,1.71-4.18,3.71a7.6,7.6,0,0,0-.28,2v13.85h-3.47V278.21c0-3.57-1.36-6.16-4.06-6.16-2.22,0-3.83,2-4.39,4.08a6.39,6.39,0,0,0-.28,2v13.52h-3.46Z"/><path class="cls-3" d="M639.88,280.25c0,8.29-5,11.9-9.71,11.9-5.27,0-9.34-4.45-9.34-11.53,0-7.5,4.27-11.9,9.67-11.9C636.09,268.72,639.88,273.39,639.88,280.25Zm-15.46.23c0,4.91,2.45,8.61,5.91,8.61s5.92-3.65,5.92-8.7c0-3.8-1.65-8.62-5.83-8.62S624.42,276.22,624.42,280.48Z"/><path class="cls-3" d="M661.17,258.76v27.09c0,2,0,4.26.16,5.79h-3.18l-.16-3.89h-.08a7.12,7.12,0,0,1-6.64,4.4c-4.71,0-8.33-4.58-8.33-11.39,0-7.46,4-12,8.73-12a6.36,6.36,0,0,1,5.88,3.42h.08V258.76Zm-3.54,19.59a8.25,8.25,0,0,0-.16-1.71c-.52-2.6-2.46-4.73-5.11-4.73-3.67,0-5.84,3.71-5.84,8.66,0,4.54,1.93,8.29,5.76,8.29,2.37,0,4.55-1.8,5.19-4.86a8.17,8.17,0,0,0,.16-1.76Z"/><path class="cls-3" d="M671.32,262.79v6.44h5.07v3.1h-5.07v12.09c0,2.78.68,4.35,2.66,4.35a6.85,6.85,0,0,0,2-.28l.16,3.06a7.72,7.72,0,0,1-3.14.55,4.59,4.59,0,0,1-3.82-1.71c-1-1.2-1.37-3.19-1.37-5.83V272.33h-3v-3.1h3v-5.38Z"/><path class="cls-3" d="M691.17,291.64l-.29-2.82h-.12a7,7,0,0,1-6,3.33c-3.95,0-6-3.2-6-6.44,0-5.42,4.19-8.38,11.71-8.33v-.47c0-1.85-.44-5.18-4.43-5.18a8.85,8.85,0,0,0-5.07,1.66l-.8-2.68a10.87,10.87,0,0,1,6.4-2c6,0,7.4,4.67,7.4,9.17v8.38a36.39,36.39,0,0,0,.33,5.37Zm-.53-11.44c-3.86-.09-8.25.7-8.25,5.05,0,2.64,1.53,3.89,3.34,3.89a5,5,0,0,0,4.71-3.75,4.88,4.88,0,0,0,.2-1.3Z"/><path class="cls-3" d="M716.57,269.23c-.08,1.62-.16,3.42-.16,6.16v13c0,5.14-.89,8.29-2.78,10.23a9.47,9.47,0,0,1-7.08,2.69,11.32,11.32,0,0,1-6.48-1.85l.88-3.11a9.91,9.91,0,0,0,5.72,1.76c3.62,0,6.28-2.17,6.28-7.82v-2.5h-.08a6.8,6.8,0,0,1-6.2,3.75c-4.83,0-8.29-4.73-8.29-10.93,0-7.6,4.3-11.9,8.77-11.9a6.41,6.41,0,0,1,6.08,3.89h.08l.16-3.38Zm-3.66,8.84a6.69,6.69,0,0,0-.2-1.85c-.65-2.36-2.38-4.31-5-4.31-3.38,0-5.79,3.29-5.79,8.48,0,4.4,1.93,8.06,5.75,8.06,2.18,0,4.15-1.58,4.92-4.17a8.15,8.15,0,0,0,.28-2.18Z"/><path class="cls-3" d="M724.26,281.17c.08,5.52,3.14,7.78,6.68,7.78a11.39,11.39,0,0,0,5.4-1.15l.6,2.91a14,14,0,0,1-6.48,1.39c-6,0-9.58-4.53-9.58-11.3s3.46-12.08,9.14-12.08c6.36,0,8.05,6.43,8.05,10.56a17.49,17.49,0,0,1-.12,1.89Zm10.39-2.91c0-2.6-.93-6.63-4.91-6.63-3.59,0-5.16,3.8-5.44,6.63Z"/><path class="cls-2" d="M752.15,291.64c.08-1.53.16-3.8.16-5.79V258.76h3.5v14.08h.08a7.1,7.1,0,0,1,6.64-4.12c4.83,0,8.25,4.63,8.21,11.44,0,8-4.39,12-8.73,12a6.81,6.81,0,0,1-6.52-4.21h-.12l-.16,3.7Zm3.66-9a8.71,8.71,0,0,0,.16,1.48c.68,2.82,2.74,4.77,5.31,4.77,3.71,0,5.92-3.47,5.92-8.62,0-4.49-2-8.33-5.8-8.33-2.41,0-4.67,1.9-5.39,5a9.2,9.2,0,0,0-.2,1.67Z"/><path class="cls-2" d="M779.16,262.93a2.26,2.26,0,0,1-2.26,2.5,2.29,2.29,0,0,1-2.13-2.5,2.34,2.34,0,0,1,2.22-2.55A2.29,2.29,0,0,1,779.16,262.93Zm-3.95,28.71V269.23h3.55v22.41Z"/><path class="cls-2" d="M784.63,258.76h3.55v32.88h-3.55Z"/><path class="cls-2" d="M794.14,258.76h3.54v32.88h-3.54Z"/><path class="cls-2" d="M805.61,281.17c.08,5.52,3.14,7.78,6.68,7.78a11.31,11.31,0,0,0,5.39-1.15l.61,2.91a14,14,0,0,1-6.48,1.39c-6,0-9.58-4.53-9.58-11.3s3.46-12.08,9.14-12.08c6.36,0,8,6.43,8,10.56a17,17,0,0,1-.13,1.89ZM816,278.26c0-2.6-.92-6.63-4.91-6.63-3.58,0-5.15,3.8-5.43,6.63Z"/><path class="cls-2" d="M840.63,258.76v27.09c0,2,0,4.26.16,5.79h-3.18l-.16-3.89h-.08a7.12,7.12,0,0,1-6.64,4.4c-4.71,0-8.33-4.58-8.33-11.39,0-7.46,4-12,8.73-12a6.36,6.36,0,0,1,5.88,3.42h.08V258.76Zm-3.54,19.59a8.25,8.25,0,0,0-.16-1.71c-.52-2.6-2.46-4.73-5.11-4.73-3.67,0-5.84,3.71-5.84,8.66,0,4.54,1.93,8.29,5.76,8.29,2.37,0,4.55-1.8,5.19-4.86a8.17,8.17,0,0,0,.16-1.76Z"/><path class="cls-2" d="M848.49,281.17c.08,5.52,3.14,7.78,6.68,7.78a11.37,11.37,0,0,0,5.39-1.15l.61,2.91a14,14,0,0,1-6.49,1.39c-6,0-9.58-4.53-9.58-11.3s3.47-12.08,9.14-12.08c6.36,0,8,6.43,8,10.56a17.49,17.49,0,0,1-.12,1.89Zm10.38-2.91c0-2.6-.93-6.63-4.91-6.63-3.58,0-5.15,3.8-5.43,6.63Z"/><path class="cls-2" d="M866.68,276.22c0-2.64,0-4.91-.16-7h3.1l.12,4.4h.16c.89-3,3-4.91,5.4-4.91a3.1,3.1,0,0,1,1,.14v3.84a4.71,4.71,0,0,0-1.2-.14c-2.5,0-4.27,2.18-4.75,5.23a12,12,0,0,0-.17,1.9v11.95h-3.5Z"/><path class="cls-2" d="M78.88,347.21l-.28-2.82h-.12a7,7,0,0,1-6,3.33c-3.94,0-6-3.19-6-6.43,0-5.42,4.18-8.39,11.71-8.34v-.46c0-1.86-.44-5.19-4.43-5.19A8.79,8.79,0,0,0,68.78,329L68,326.28a11,11,0,0,1,6.4-2c6,0,7.41,4.68,7.41,9.17v8.38a36.4,36.4,0,0,0,.32,5.37Zm-.52-11.44c-3.86-.09-8.25.7-8.25,5.05,0,2.64,1.53,3.89,3.34,3.89A5,5,0,0,0,78.16,341a4.88,4.88,0,0,0,.2-1.3Z"/><path class="cls-2" d="M87.86,347.21V327.9H85.13v-3.1h2.73v-1.07c0-3.15.61-6,2.26-7.82a6.27,6.27,0,0,1,4.75-2.09,7.41,7.41,0,0,1,3,.65l-.49,3.15a4.67,4.67,0,0,0-2.25-.51c-3,0-3.79,3.06-3.79,6.48v1.21h4.71v3.1H91.36v19.31Z"/><path class="cls-2" d="M116.14,330.87c0-2.32,0-4.22-.16-6.07h3.14l.2,3.7h.08a7.1,7.1,0,0,1,6.45-4.21c2.69,0,6.88,1.85,6.88,9.54v13.38h-3.54V334.29c0-3.61-1.17-6.62-4.51-6.62a5.2,5.2,0,0,0-4.75,4.17,6.7,6.7,0,0,0-.24,1.9v13.47h-3.55Z"/><path class="cls-2" d="M156.12,335.82c0,8.29-5,11.9-9.7,11.9-5.27,0-9.34-4.44-9.34-11.53,0-7.5,4.27-11.9,9.66-11.9C152.33,324.29,156.12,329,156.12,335.82Zm-15.46.23c0,4.91,2.46,8.62,5.92,8.62S152.5,341,152.5,336c0-3.8-1.65-8.61-5.84-8.61S140.66,331.79,140.66,336.05Z"/><path class="cls-2" d="M177.38,324.8c-.08,1.62-.16,3.43-.16,6.16v13c0,5.14-.89,8.29-2.78,10.24a9.51,9.51,0,0,1-7.09,2.68,11.34,11.34,0,0,1-6.48-1.85l.89-3.1a10,10,0,0,0,5.71,1.76c3.63,0,6.28-2.18,6.28-7.83v-2.5h-.08a6.79,6.79,0,0,1-6.2,3.75c-4.83,0-8.29-4.72-8.29-10.93,0-7.59,4.31-11.9,8.78-11.9a6.42,6.42,0,0,1,6.08,3.89h.08l.16-3.38Zm-3.67,8.84a6.69,6.69,0,0,0-.2-1.85c-.64-2.36-2.37-4.31-4.95-4.31-3.38,0-5.8,3.29-5.8,8.48,0,4.4,1.94,8.06,5.76,8.06,2.17,0,4.15-1.58,4.91-4.17a8.1,8.1,0,0,0,.28-2.18Z"/><path class="cls-2" d="M185.07,336.75c.08,5.51,3.14,7.78,6.68,7.78a11.3,11.3,0,0,0,5.39-1.16l.61,2.92a14.13,14.13,0,0,1-6.48,1.39c-6,0-9.58-4.54-9.58-11.3s3.46-12.09,9.13-12.09c6.36,0,8.05,6.44,8.05,10.56a17.91,17.91,0,0,1-.12,1.9Zm10.38-2.92c0-2.59-.92-6.62-4.91-6.62-3.58,0-5.15,3.79-5.43,6.62Z"/><path class="cls-2" d="M203.27,330.87c0-2.32,0-4.22-.17-6.07h3.14l.21,3.7h.08a7.07,7.07,0,0,1,6.44-4.21c2.69,0,6.88,1.85,6.88,9.54v13.38h-3.54V334.29c0-3.61-1.17-6.62-4.51-6.62a5.2,5.2,0,0,0-4.75,4.17,6.7,6.7,0,0,0-.24,1.9v13.47h-3.54Z"/><path class="cls-2" d="M258.8,341.1c0,2.32,0,4.35.16,6.11h-3.14l-.2-3.66h-.08a7.25,7.25,0,0,1-6.44,4.17c-3.06,0-6.72-1.94-6.72-9.82V324.8h3.54v12.41c0,4.26,1.13,7.13,4.35,7.13a5.23,5.23,0,0,0,4.67-3.7,6.84,6.84,0,0,0,.32-2.09V324.8h3.54Z"/><path class="cls-2" d="M281.51,314.33v27.09c0,2,0,4.26.16,5.79h-3.18l-.16-3.89h-.08a7.14,7.14,0,0,1-6.65,4.4c-4.7,0-8.33-4.58-8.33-11.39,0-7.46,4-12,8.74-12a6.32,6.32,0,0,1,5.87,3.43H278V314.33ZM278,333.92a8.25,8.25,0,0,0-.16-1.71c-.52-2.59-2.45-4.73-5.11-4.73-3.66,0-5.83,3.71-5.83,8.66,0,4.54,1.93,8.29,5.75,8.29,2.38,0,4.55-1.8,5.19-4.86a8.11,8.11,0,0,0,.16-1.76Z"/><path class="cls-2" d="M289.36,336.75c.08,5.51,3.14,7.78,6.68,7.78a11.37,11.37,0,0,0,5.4-1.16l.6,2.92a14.13,14.13,0,0,1-6.48,1.39c-6,0-9.58-4.54-9.58-11.3s3.46-12.09,9.14-12.09c6.36,0,8.05,6.44,8.05,10.56a17.91,17.91,0,0,1-.12,1.9Zm10.39-2.92c0-2.59-.93-6.62-4.92-6.62-3.58,0-5.15,3.79-5.43,6.62Z"/><path class="cls-2" d="M307.56,330.87c0-2.32,0-4.22-.16-6.07h3.14l.2,3.7h.08a7.07,7.07,0,0,1,6.44-4.21c2.7,0,6.88,1.85,6.88,9.54v13.38H320.6V334.29c0-3.61-1.17-6.62-4.51-6.62-2.33,0-4.14,1.9-4.75,4.17a6.7,6.7,0,0,0-.24,1.9v13.47h-3.54Z"/><path class="cls-2" d="M351.06,318.36v6.44h5.07v3.1h-5.07V340c0,2.78.68,4.35,2.65,4.35a6.93,6.93,0,0,0,2.06-.28l.16,3.06a7.73,7.73,0,0,1-3.14.56A4.63,4.63,0,0,1,349,346c-1-1.2-1.36-3.19-1.36-5.83V327.9h-3v-3.1h3v-5.37Z"/><path class="cls-2" d="M373,325.91l1.69-2.78,1.57,1.25-1.69,2.87a12.62,12.62,0,0,1,2.94,8.57c0,8.24-4.95,11.9-9.5,11.9a8.25,8.25,0,0,1-5-1.57L361.28,349l-1.49-1.39,1.7-2.78a12.4,12.4,0,0,1-3-8.66c0-7.45,4.26-11.85,9.58-11.85A8.31,8.31,0,0,1,373,325.91Zm-1.61,2.78a4.85,4.85,0,0,0-3.42-1.34c-4.35,0-6.08,4.63-6.08,8.7a10.75,10.75,0,0,0,1.45,5.61l.08,0Zm-6.76,14.68a4.41,4.41,0,0,0,3.26,1.3c3.7,0,6.15-3.66,6.15-8.71a11.2,11.2,0,0,0-1.36-5.46h-.08Z"/><path class="cls-2" d="M377.23,353.7a5.32,5.32,0,0,0,3.86-1.72c1-1.29,1.33-3.05,1.33-8.43V324.8H386v20.33c0,4.35-.6,7.18-2.33,9.21a8.32,8.32,0,0,1-6,2.55Zm9.14-35.2a2.26,2.26,0,0,1-2.22,2.5,2.29,2.29,0,0,1-2.17-2.5,2.34,2.34,0,0,1,2.25-2.55A2.28,2.28,0,0,1,386.37,318.5Z"/><path class="cls-2" d="M408.65,332.12c0-2.88-.08-5.19-.16-7.32h3.18l.16,3.84h.08a7.5,7.5,0,0,1,6.92-4.35c4.71,0,8.26,4.58,8.26,11.39,0,8.06-4.27,12-8.86,12a6.61,6.61,0,0,1-6-3.52h-.08v12.18h-3.5Zm3.5,6a10.64,10.64,0,0,0,.16,1.67c.65,2.82,2.78,4.77,5.32,4.77,3.74,0,5.91-3.52,5.91-8.66,0-4.49-2.05-8.34-5.79-8.34-2.42,0-4.67,2-5.36,5.05a7.56,7.56,0,0,0-.24,1.67Z"/><path class="cls-2" d="M442.35,347.21l-.29-2.82h-.12a7,7,0,0,1-5.95,3.33c-3.95,0-6-3.19-6-6.43,0-5.42,4.18-8.39,11.71-8.34v-.46c0-1.86-.44-5.19-4.43-5.19a8.79,8.79,0,0,0-5.07,1.67l-.8-2.69a10.94,10.94,0,0,1,6.4-2c6,0,7.4,4.68,7.4,9.17v8.38a35,35,0,0,0,.33,5.37Zm-.53-11.44c-3.86-.09-8.25.7-8.25,5.05,0,2.64,1.53,3.89,3.34,3.89a5,5,0,0,0,4.71-3.75,4.88,4.88,0,0,0,.2-1.3Zm-7.61-17.64a4.09,4.09,0,0,1,4.11-4.4c2.42,0,4,1.9,4,4.35a4,4,0,1,1-8.09.05Zm6.12-.09a2.28,2.28,0,0,0-2.09-2.55c-1.25,0-2,1.2-2,2.64,0,1.2.8,2.5,2,2.5S440.33,319.43,440.33,318Z"/><path class="cls-2" d="M448.67,352.91a75.31,75.31,0,0,0,2.41-11.07l3.95-.46a61.74,61.74,0,0,1-3.83,11.25Z"/><path class="cls-2" d="M476.19,314.33h3.54v14h.08a7.09,7.09,0,0,1,2.53-2.87,6.58,6.58,0,0,1,3.63-1.16c2.61,0,6.8,1.85,6.8,9.59v13.33h-3.54V334.34c0-3.61-1.17-6.67-4.51-6.67a5.23,5.23,0,0,0-4.75,4.08,5.59,5.59,0,0,0-.24,1.94v13.52h-3.54Z"/><path class="cls-2" d="M499.37,324.8l3.83,12.6c.64,2,1.17,3.89,1.57,5.74h.12c.44-1.85,1-3.71,1.65-5.74l3.78-12.6H514l-7.65,22.41H503l-7.41-22.41Z"/><path class="cls-2" d="M521.31,318.5a2.25,2.25,0,0,1-2.25,2.5,2.28,2.28,0,0,1-2.13-2.5,2.33,2.33,0,0,1,2.21-2.55A2.28,2.28,0,0,1,521.31,318.5Zm-3.94,28.71V324.8h3.54v22.41Z"/><path class="cls-2" d="M526.31,343.05a8.49,8.49,0,0,0,4.67,1.62c2.57,0,3.78-1.49,3.78-3.34s-1-3-3.62-4.12c-3.5-1.44-5.15-3.66-5.15-6.34a6.37,6.37,0,0,1,6.72-6.58,8.78,8.78,0,0,1,4.79,1.39l-.89,3a6.9,6.9,0,0,0-4-1.29,3,3,0,0,0-3.26,3c0,1.86,1.16,2.69,3.7,3.8,3.38,1.48,5.11,3.43,5.11,6.76,0,3.94-2.65,6.72-7.28,6.72a10,10,0,0,1-5.48-1.53Z"/><path class="cls-2" d="M576.45,314.33v27.09c0,2,0,4.26.16,5.79h-3.18l-.16-3.89h-.08a7.13,7.13,0,0,1-6.64,4.4c-4.71,0-8.34-4.58-8.34-11.39,0-7.46,4-12,8.74-12a6.35,6.35,0,0,1,5.88,3.43h.08V314.33Zm-3.54,19.59a7.63,7.63,0,0,0-.17-1.71c-.52-2.59-2.45-4.73-5.11-4.73-3.66,0-5.83,3.71-5.83,8.66,0,4.54,1.93,8.29,5.75,8.29,2.38,0,4.55-1.8,5.19-4.86a7.51,7.51,0,0,0,.17-1.76Z"/><path class="cls-2" d="M598.63,341.1c0,2.32,0,4.35.16,6.11h-3.14l-.2-3.66h-.08a7.25,7.25,0,0,1-6.44,4.17c-3.06,0-6.72-1.94-6.72-9.82V324.8h3.54v12.41c0,4.26,1.13,7.13,4.35,7.13a5.23,5.23,0,0,0,4.67-3.7,6.84,6.84,0,0,0,.32-2.09V324.8h3.54Z"/><path class="cls-2" d="M623.37,336.75c.08,5.51,3.14,7.78,6.68,7.78a11.37,11.37,0,0,0,5.4-1.16l.6,2.92a14.13,14.13,0,0,1-6.48,1.39c-6,0-9.58-4.54-9.58-11.3s3.46-12.09,9.14-12.09c6.36,0,8,6.44,8,10.56a17.91,17.91,0,0,1-.12,1.9Zm10.39-2.92c0-2.59-.93-6.62-4.91-6.62-3.59,0-5.16,3.79-5.44,6.62Z"/><path class="cls-2" d="M641.57,331.79c0-2.64,0-4.91-.16-7h3.1l.12,4.4h.16c.89-3,3-4.91,5.39-4.91a3.42,3.42,0,0,1,1,.14v3.84a4.73,4.73,0,0,0-1.21-.14c-2.49,0-4.26,2.18-4.75,5.24a13.08,13.08,0,0,0-.16,1.89v11.95h-3.5Z"/><path class="cls-3" d="M687.93,341.1c0,2.32,0,4.35.16,6.11H685l-.2-3.66h-.08a7.25,7.25,0,0,1-6.44,4.17c-3.06,0-6.73-1.94-6.73-9.82V324.8h3.55v12.41c0,4.26,1.12,7.13,4.34,7.13a5.21,5.21,0,0,0,4.67-3.7,6.84,6.84,0,0,0,.32-2.09V324.8h3.55Z"/><path class="cls-3" d="M693.81,330.87c0-2.32,0-4.22-.16-6.07h3.14l.2,3.7h.08a7.07,7.07,0,0,1,6.44-4.21c2.69,0,6.88,1.85,6.88,9.54v13.38h-3.54V334.29c0-3.61-1.17-6.62-4.51-6.62-2.33,0-4.15,1.9-4.75,4.17a6.7,6.7,0,0,0-.24,1.9v13.47h-3.54Z"/><path class="cls-3" d="M733,314.33v27.09c0,2,0,4.26.16,5.79H730l-.16-3.89h-.08a7.15,7.15,0,0,1-6.65,4.4c-4.71,0-8.33-4.58-8.33-11.39,0-7.46,4-12,8.74-12a6.32,6.32,0,0,1,5.87,3.43h.08V314.33Zm-3.55,19.59a8.25,8.25,0,0,0-.16-1.71c-.52-2.59-2.45-4.73-5.11-4.73-3.66,0-5.84,3.71-5.84,8.66,0,4.54,1.94,8.29,5.76,8.29,2.38,0,4.55-1.8,5.19-4.86a8.11,8.11,0,0,0,.16-1.76Z"/><path class="cls-3" d="M740.83,336.75c.08,5.51,3.14,7.78,6.68,7.78a11.3,11.3,0,0,0,5.39-1.16l.61,2.92a14.13,14.13,0,0,1-6.48,1.39c-6,0-9.58-4.54-9.58-11.3s3.46-12.09,9.13-12.09c6.37,0,8.06,6.44,8.06,10.56a17.36,17.36,0,0,1-.13,1.9Zm10.38-2.92c0-2.59-.92-6.62-4.91-6.62-3.58,0-5.15,3.79-5.43,6.62Z"/><path class="cls-3" d="M759,331.79c0-2.64,0-4.91-.16-7H762l.13,4.4h.16c.88-3,3-4.91,5.39-4.91a3.52,3.52,0,0,1,1,.14v3.84a4.85,4.85,0,0,0-1.21-.14c-2.5,0-4.27,2.18-4.75,5.24a13.08,13.08,0,0,0-.16,1.89v11.95H759Z"/><path class="cls-3" d="M795.64,320.91h-.08L791,323.73l-.68-3.1,5.71-3.52h3v30.1h-3.42Z"/><path class="cls-3" d="M824.22,320.54h-10l-1,7.73a12.66,12.66,0,0,1,2.14-.18,9.94,9.94,0,0,1,5.63,1.62,8.86,8.86,0,0,1,3.75,7.73c0,5.88-4.07,10.28-9.74,10.28a11.54,11.54,0,0,1-6.53-1.85l.89-3.1a10.58,10.58,0,0,0,5.59,1.66,6.16,6.16,0,0,0,6.2-6.53c0-3.89-2.29-6.66-7.52-6.66a23.69,23.69,0,0,0-3.63.32l1.7-14.45h12.51Z"/><path class="cls-3" d="M858.06,347.21l-.28-2.82h-.12a7,7,0,0,1-6,3.33c-3.94,0-6-3.19-6-6.43,0-5.42,4.18-8.39,11.71-8.34v-.46c0-1.86-.44-5.19-4.43-5.19A8.79,8.79,0,0,0,848,329l-.81-2.69a11,11,0,0,1,6.4-2c6,0,7.41,4.68,7.41,9.17v8.38a36.4,36.4,0,0,0,.32,5.37Zm-.52-11.44c-3.87-.09-8.25.7-8.25,5.05,0,2.64,1.53,3.89,3.34,3.89a5,5,0,0,0,4.71-3.75,4.88,4.88,0,0,0,.2-1.3Zm-7.61-17.64a4.09,4.09,0,0,1,4.11-4.4c2.41,0,4,1.9,4,4.35a4,4,0,1,1-8.09.05Zm6.12-.09a2.28,2.28,0,0,0-2.09-2.55c-1.25,0-2,1.2-2,2.64,0,1.2.81,2.5,2,2.5S856.05,319.43,856.05,318Z"/><path class="cls-3" d="M866.68,331.79c0-2.64,0-4.91-.16-7h3.1l.12,4.4h.16c.89-3,3-4.91,5.39-4.91a3.42,3.42,0,0,1,1,.14v3.84a4.73,4.73,0,0,0-1.21-.14c-2.49,0-4.26,2.18-4.75,5.24a13.08,13.08,0,0,0-.16,1.89v11.95h-3.5Z"/><path class="cls-2" d="M84.88,380.37c-.08,1.62-.16,3.43-.16,6.16v13c0,5.14-.89,8.29-2.78,10.24a9.47,9.47,0,0,1-7.08,2.69,11.25,11.25,0,0,1-6.48-1.86l.88-3.1A9.91,9.91,0,0,0,75,409.27c3.62,0,6.28-2.18,6.28-7.83v-2.5h-.08a6.78,6.78,0,0,1-6.2,3.75c-4.83,0-8.29-4.72-8.29-10.93,0-7.59,4.3-11.9,8.77-11.9a6.42,6.42,0,0,1,6.08,3.89h.08l.16-3.38Zm-3.66,8.85a6.6,6.6,0,0,0-.2-1.85c-.65-2.37-2.38-4.31-5-4.31-3.39,0-5.8,3.29-5.8,8.47,0,4.4,1.93,8.06,5.75,8.06,2.18,0,4.15-1.57,4.92-4.17a8.08,8.08,0,0,0,.28-2.17Z"/><path class="cls-2" d="M101.39,402.79l-.28-2.83H101a7,7,0,0,1-6,3.34c-4,0-6-3.2-6-6.44,0-5.42,4.19-8.38,11.71-8.34v-.46c0-1.85-.44-5.19-4.42-5.19a8.8,8.8,0,0,0-5.08,1.67l-.8-2.69a10.94,10.94,0,0,1,6.4-2c6,0,7.41,4.68,7.41,9.17v8.38a36.54,36.54,0,0,0,.32,5.38Zm-.53-11.44c-3.86-.09-8.25.69-8.25,5,0,2.64,1.53,3.89,3.34,3.89a5,5,0,0,0,4.71-3.76,4.81,4.81,0,0,0,.2-1.29Z"/><path class="cls-2" d="M110,386.44c0-2.32,0-4.22-.16-6.07h3.1l.16,3.61h.13c1.08-2.13,2.89-4.12,6.11-4.12,2.66,0,4.67,1.86,5.52,4.49h.08a8.92,8.92,0,0,1,2.17-2.91,6.11,6.11,0,0,1,4.31-1.58c2.58,0,6.4,1.95,6.4,9.73v13.2h-3.46V390.1c0-4.31-1.37-6.9-4.23-6.9-2,0-3.58,1.71-4.19,3.7a7.73,7.73,0,0,0-.28,2v13.85H122.2V389.36c0-3.57-1.37-6.16-4.06-6.16-2.22,0-3.83,2-4.39,4.07a6.43,6.43,0,0,0-.28,2v13.53H110Z"/><path class="cls-2" d="M143.58,386.44c0-2.32,0-4.22-.16-6.07h3.1l.16,3.61h.12c1.09-2.13,2.9-4.12,6.12-4.12,2.66,0,4.67,1.86,5.51,4.49h.09a8.79,8.79,0,0,1,2.17-2.91,6.09,6.09,0,0,1,4.31-1.58c2.57,0,6.4,1.95,6.4,9.73v13.2h-3.47V390.1c0-4.31-1.36-6.9-4.22-6.9-2,0-3.58,1.71-4.19,3.7a7.73,7.73,0,0,0-.28,2v13.85h-3.46V389.36c0-3.57-1.37-6.16-4.07-6.16-2.21,0-3.82,2-4.38,4.07a6.14,6.14,0,0,0-.29,2v13.53h-3.46Z"/><path class="cls-2" d="M179.13,392.32c.08,5.51,3.14,7.78,6.68,7.78a11.37,11.37,0,0,0,5.4-1.16l.6,2.92a14,14,0,0,1-6.48,1.39c-6,0-9.58-4.54-9.58-11.3s3.46-12.09,9.14-12.09c6.36,0,8.05,6.44,8.05,10.56a17.72,17.72,0,0,1-.12,1.9Zm10.39-2.92c0-2.59-.93-6.62-4.92-6.62-3.58,0-5.15,3.8-5.43,6.62Z"/><path class="cls-2" d="M197.33,369.91h3.54v32.88h-3.54Z"/><path class="cls-2" d="M217.34,392.32c.08,5.51,3.14,7.78,6.68,7.78a11.36,11.36,0,0,0,5.39-1.16l.61,2.92a14,14,0,0,1-6.48,1.39c-6,0-9.58-4.54-9.58-11.3s3.46-12.09,9.13-12.09c6.36,0,8,6.44,8,10.56a17.72,17.72,0,0,1-.12,1.9Zm10.38-2.92c0-2.59-.92-6.62-4.91-6.62-3.58,0-5.15,3.8-5.43,6.62Z"/><path class="cls-2" d="M235.53,369.91h3.55v32.88h-3.55Z"/><path class="cls-2" d="M245,369.91h3.55v32.88H245Z"/><path class="cls-2" d="M256.51,392.32c.08,5.51,3.14,7.78,6.68,7.78a11.3,11.3,0,0,0,5.39-1.16l.61,2.92a14,14,0,0,1-6.48,1.39c-6,0-9.58-4.54-9.58-11.3s3.46-12.09,9.13-12.09c6.36,0,8.05,6.44,8.05,10.56a17.72,17.72,0,0,1-.12,1.9Zm10.38-2.92c0-2.59-.92-6.62-4.91-6.62-3.58,0-5.15,3.8-5.43,6.62Z"/><path class="cls-2" d="M274.71,387.37c0-2.65,0-4.91-.17-7h3.1l.12,4.4h.17c.88-3,3-4.91,5.39-4.91a3.52,3.52,0,0,1,1,.14v3.84a4.88,4.88,0,0,0-1.21-.13c-2.5,0-4.27,2.17-4.75,5.23a13.23,13.23,0,0,0-.16,1.9v12h-3.5Z"/><path class="cls-2" d="M296.4,369.91H300v14H300a7.16,7.16,0,0,1,2.53-2.87,6.66,6.66,0,0,1,3.63-1.16c2.61,0,6.8,1.86,6.8,9.59v13.34h-3.54V389.91c0-3.61-1.17-6.67-4.51-6.67a5.24,5.24,0,0,0-4.75,4.08,5.63,5.63,0,0,0-.24,1.94v13.53H296.4Z"/><path class="cls-2" d="M319.59,380.37l3.83,12.6c.64,2,1.17,3.89,1.57,5.74h.12c.44-1.85,1-3.7,1.65-5.74l3.78-12.6h3.71l-7.65,22.42h-3.38l-7.41-22.42Z"/><path class="cls-2" d="M341.53,374.07a2.25,2.25,0,0,1-2.25,2.5,2.28,2.28,0,0,1-2.13-2.5,2.33,2.33,0,0,1,2.21-2.54A2.28,2.28,0,0,1,341.53,374.07Zm-3.94,28.72V380.37h3.54v22.42Z"/><path class="cls-2" d="M346.53,398.62a8.41,8.41,0,0,0,4.67,1.62c2.57,0,3.78-1.48,3.78-3.34s-1-3-3.62-4.12c-3.5-1.43-5.15-3.65-5.15-6.34a6.38,6.38,0,0,1,6.72-6.58,8.78,8.78,0,0,1,4.79,1.39l-.89,3a6.83,6.83,0,0,0-4-1.3,3,3,0,0,0-3.26,3.06c0,1.85,1.16,2.68,3.7,3.79,3.38,1.49,5.11,3.43,5.11,6.76,0,3.94-2.65,6.72-7.28,6.72a10,10,0,0,1-5.48-1.53Z"/><path class="cls-2" d="M371.49,387.69c0-2.87-.08-5.19-.16-7.32h3.18l.16,3.85h.08a7.49,7.49,0,0,1,6.92-4.36c4.71,0,8.25,4.59,8.25,11.4,0,8.05-4.26,12-8.85,12a6.63,6.63,0,0,1-6-3.52H375V412h-3.5Zm3.5,6a10.64,10.64,0,0,0,.16,1.67c.64,2.83,2.78,4.77,5.31,4.77,3.75,0,5.92-3.52,5.92-8.66,0-4.49-2.05-8.34-5.8-8.34-2.41,0-4.66,2-5.35,5a7.56,7.56,0,0,0-.24,1.67Z"/><path class="cls-2" d="M396.37,392.32c.08,5.51,3.14,7.78,6.68,7.78a11.33,11.33,0,0,0,5.39-1.16l.61,2.92a14,14,0,0,1-6.48,1.39c-6,0-9.58-4.54-9.58-11.3s3.46-12.09,9.13-12.09c6.36,0,8.05,6.44,8.05,10.56a17.72,17.72,0,0,1-.12,1.9Zm10.38-2.92c0-2.59-.92-6.62-4.91-6.62-3.58,0-5.15,3.8-5.43,6.62Z"/><path class="cls-2" d="M414.57,387.37c0-2.65,0-4.91-.17-7h3.1l.13,4.4h.16c.88-3,3-4.91,5.39-4.91a3.52,3.52,0,0,1,1,.14v3.84a4.88,4.88,0,0,0-1.21-.13c-2.5,0-4.27,2.17-4.75,5.23a13.23,13.23,0,0,0-.16,1.9v12h-3.5Z"/><path class="cls-2" d="M427.25,398.62a8.41,8.41,0,0,0,4.67,1.62c2.57,0,3.78-1.48,3.78-3.34s-1-3-3.62-4.12c-3.5-1.43-5.15-3.65-5.15-6.34a6.38,6.38,0,0,1,6.72-6.58,8.78,8.78,0,0,1,4.79,1.39l-.89,3a6.83,6.83,0,0,0-4-1.3,3,3,0,0,0-3.26,3.06c0,1.85,1.16,2.68,3.7,3.79,3.38,1.49,5.11,3.43,5.11,6.76,0,3.94-2.66,6.72-7.28,6.72a10,10,0,0,1-5.48-1.53Z"/><path class="cls-2" d="M461.3,391.39c0,8.29-5,11.91-9.7,11.91-5.27,0-9.34-4.45-9.34-11.54,0-7.5,4.27-11.9,9.66-11.9C457.52,379.86,461.3,384.54,461.3,391.39Zm-15.45.24c0,4.9,2.45,8.61,5.91,8.61s5.92-3.66,5.92-8.71c0-3.79-1.65-8.61-5.84-8.61S445.85,387.37,445.85,391.63Z"/><path class="cls-2" d="M465.78,386.44c0-2.32,0-4.22-.17-6.07h3.14l.21,3.71H469a7.08,7.08,0,0,1,6.44-4.22c2.69,0,6.88,1.86,6.88,9.54v13.39h-3.54V389.87c0-3.62-1.17-6.63-4.51-6.63a5.2,5.2,0,0,0-4.75,4.17,6.75,6.75,0,0,0-.24,1.9v13.48h-3.54Z"/><path class="cls-2" d="M490.09,392.32c.08,5.51,3.14,7.78,6.68,7.78a11.37,11.37,0,0,0,5.4-1.16l.6,2.92a14,14,0,0,1-6.48,1.39c-6,0-9.58-4.54-9.58-11.3s3.46-12.09,9.14-12.09c6.36,0,8,6.44,8,10.56a17.72,17.72,0,0,1-.12,1.9Zm10.39-2.92c0-2.59-.93-6.62-4.91-6.62-3.59,0-5.16,3.8-5.44,6.62Z"/><path class="cls-2" d="M508.29,386.44c0-2.32,0-4.22-.16-6.07h3.14l.2,3.71h.08a7.09,7.09,0,0,1,6.44-4.22c2.7,0,6.88,1.86,6.88,9.54v13.39h-3.54V389.87c0-3.62-1.17-6.63-4.51-6.63-2.33,0-4.14,1.9-4.75,4.17a6.75,6.75,0,0,0-.24,1.9v13.48h-3.54Z"/><path class="cls-2" d="M539.17,387.69c0-2.87-.08-5.19-.16-7.32h3.18l.16,3.85h.08a7.49,7.49,0,0,1,6.92-4.36c4.71,0,8.25,4.59,8.25,11.4,0,8.05-4.26,12-8.85,12a6.63,6.63,0,0,1-6-3.52h-.08V412h-3.5Zm3.5,6a10.64,10.64,0,0,0,.16,1.67c.64,2.83,2.78,4.77,5.31,4.77,3.75,0,5.92-3.52,5.92-8.66,0-4.49-2-8.34-5.8-8.34-2.41,0-4.66,2-5.35,5a7.56,7.56,0,0,0-.24,1.67Z"/><path class="cls-2" d="M572.86,402.79l-.28-2.83h-.12a7,7,0,0,1-6,3.34c-3.94,0-6-3.2-6-6.44,0-5.42,4.18-8.38,11.71-8.34v-.46c0-1.85-.44-5.19-4.43-5.19a8.79,8.79,0,0,0-5.07,1.67l-.81-2.69a11,11,0,0,1,6.4-2c6,0,7.41,4.68,7.41,9.17v8.38a36.54,36.54,0,0,0,.32,5.38Zm-.52-11.44c-3.86-.09-8.25.69-8.25,5,0,2.64,1.53,3.89,3.34,3.89a5,5,0,0,0,4.71-3.76,4.81,4.81,0,0,0,.2-1.29Zm-7.61-17.65a4.09,4.09,0,0,1,4.11-4.4c2.41,0,4,1.9,4,4.36a4,4,0,1,1-8.09,0Zm6.12-.09a2.28,2.28,0,0,0-2.09-2.55c-1.25,0-2,1.21-2,2.64,0,1.21.8,2.5,2,2.5S570.85,375,570.85,373.61Z"/><path class="cls-2" d="M589.85,402.79c.09-1.53.17-3.8.17-5.79V369.91h3.5V384h.08a7.1,7.1,0,0,1,6.64-4.12c4.83,0,8.25,4.63,8.21,11.44,0,8-4.39,12-8.73,12a6.8,6.8,0,0,1-6.52-4.22h-.12l-.17,3.71Zm3.67-9a8.71,8.71,0,0,0,.16,1.48c.68,2.83,2.74,4.77,5.31,4.77,3.71,0,5.92-3.47,5.92-8.61,0-4.49-2-8.34-5.8-8.34-2.41,0-4.67,1.9-5.39,5a9.2,9.2,0,0,0-.2,1.66Z"/><path class="cls-2" d="M616.87,374.07a2.26,2.26,0,0,1-2.26,2.5,2.29,2.29,0,0,1-2.13-2.5,2.34,2.34,0,0,1,2.21-2.54A2.29,2.29,0,0,1,616.87,374.07Zm-4,28.72V380.37h3.54v22.42Z"/><path class="cls-2" d="M622.34,369.91h3.55v32.88h-3.55Z"/><path class="cls-2" d="M631.84,369.91h3.55v32.88h-3.55Z"/><path class="cls-2" d="M643.32,392.32c.08,5.51,3.14,7.78,6.68,7.78a11.3,11.3,0,0,0,5.39-1.16l.61,2.92a14,14,0,0,1-6.48,1.39c-6,0-9.58-4.54-9.58-11.3s3.46-12.09,9.13-12.09c6.36,0,8.06,6.44,8.06,10.56a17.17,17.17,0,0,1-.13,1.9Zm10.38-2.92c0-2.59-.92-6.62-4.91-6.62-3.58,0-5.15,3.8-5.43,6.62Z"/><path class="cls-2" d="M678.34,369.91V397c0,2,0,4.26.16,5.79h-3.18l-.16-3.89h-.08a7.13,7.13,0,0,1-6.64,4.4c-4.71,0-8.33-4.59-8.33-11.4,0-7.45,4-12,8.73-12a6.35,6.35,0,0,1,5.88,3.43h.08V369.91ZM674.8,389.5a8.35,8.35,0,0,0-.16-1.72c-.53-2.59-2.46-4.72-5.11-4.72-3.67,0-5.84,3.7-5.84,8.66,0,4.54,1.93,8.29,5.76,8.29,2.37,0,4.54-1.81,5.19-4.87a8.11,8.11,0,0,0,.16-1.76Z"/><path class="cls-2" d="M686.19,392.32c.08,5.51,3.14,7.78,6.69,7.78a11.36,11.36,0,0,0,5.39-1.16l.6,2.92a14,14,0,0,1-6.48,1.39c-6,0-9.58-4.54-9.58-11.3s3.46-12.09,9.14-12.09c6.36,0,8,6.44,8,10.56a17.72,17.72,0,0,1-.12,1.9Zm10.39-2.92c0-2.59-.93-6.62-4.91-6.62-3.58,0-5.15,3.8-5.44,6.62Z"/><path class="cls-2" d="M708.66,373.93v6.44h5.07v3.1h-5.07v12.09c0,2.78.68,4.36,2.66,4.36a6.91,6.91,0,0,0,2-.28l.16,3.05a7.56,7.56,0,0,1-3.14.56,4.59,4.59,0,0,1-3.82-1.71c-1-1.21-1.37-3.2-1.37-5.84V383.47h-3v-3.1h3V375Z"/><path class="cls-2" d="M728.22,392.32c.08,5.51,3.14,7.78,6.69,7.78a11.36,11.36,0,0,0,5.39-1.16l.6,2.92a14,14,0,0,1-6.48,1.39c-6,0-9.58-4.54-9.58-11.3s3.46-12.09,9.14-12.09c6.36,0,8,6.44,8,10.56a17.72,17.72,0,0,1-.12,1.9Zm10.39-2.92c0-2.59-.93-6.62-4.91-6.62-3.58,0-5.15,3.8-5.44,6.62Z"/><path class="cls-2" d="M746.42,387.37c0-2.65,0-4.91-.16-7h3.1l.12,4.4h.16c.89-3,3-4.91,5.4-4.91a3.4,3.4,0,0,1,1,.14v3.84a4.77,4.77,0,0,0-1.21-.13c-2.49,0-4.26,2.17-4.75,5.23a13.23,13.23,0,0,0-.16,1.9v12h-3.5Z"/><path class="cls-2" d="M785,369.91V397c0,2,0,4.26.16,5.79h-3.18l-.16-3.89h-.08a7.15,7.15,0,0,1-6.65,4.4c-4.71,0-8.33-4.59-8.33-11.4,0-7.45,4-12,8.74-12a6.32,6.32,0,0,1,5.87,3.43h.08V369.91ZM781.4,389.5a8.35,8.35,0,0,0-.16-1.72c-.52-2.59-2.45-4.72-5.11-4.72-3.66,0-5.84,3.7-5.84,8.66,0,4.54,1.94,8.29,5.76,8.29,2.38,0,4.55-1.81,5.19-4.87a8.11,8.11,0,0,0,.16-1.76Z"/><path class="cls-2" d="M792.8,392.32c.08,5.51,3.14,7.78,6.68,7.78a11.37,11.37,0,0,0,5.4-1.16l.6,2.92a14,14,0,0,1-6.48,1.39c-6,0-9.58-4.54-9.58-11.3s3.46-12.09,9.14-12.09c6.36,0,8.05,6.44,8.05,10.56a17.72,17.72,0,0,1-.12,1.9Zm10.38-2.92c0-2.59-.92-6.62-4.91-6.62-3.58,0-5.15,3.8-5.43,6.62Z"/><path class="cls-2" d="M815.26,373.93v6.44h5.08v3.1h-5.08v12.09c0,2.78.69,4.36,2.66,4.36a6.8,6.8,0,0,0,2.05-.28l.16,3.05a7.51,7.51,0,0,1-3.13.56,4.61,4.61,0,0,1-3.83-1.71c-1-1.21-1.37-3.2-1.37-5.84V383.47h-3v-3.1h3V375Z"/><path class="cls-2" d="M823.36,400.38c0-1.72,1-2.92,2.41-2.92s2.38,1.2,2.38,2.92-.93,2.92-2.42,2.92S823.36,402.05,823.36,400.38Z"/><path class="cls-2" d="M71.74,482.78v13.09H84.89V482.78h3.55v31.28H84.89V499.4H71.74v14.66H68.22V482.78Z"/><path class="cls-2" d="M96.15,491.6,100,504.22c.65,2,1.17,3.9,1.58,5.76h.12c.44-1.86,1-3.71,1.65-5.76l3.8-12.62h3.71l-7.67,22.46H99.78L92.36,491.6Z"/><path class="cls-2" d="M118.14,485.29a2.26,2.26,0,0,1-2.26,2.5,2.29,2.29,0,0,1-2.14-2.5,2.35,2.35,0,0,1,2.22-2.56A2.29,2.29,0,0,1,118.14,485.29Zm-4,28.77V491.6h3.55v22.46Z"/><path class="cls-2" d="M123.15,509.89a8.45,8.45,0,0,0,4.68,1.62c2.58,0,3.79-1.48,3.79-3.34s-1-3-3.63-4.13c-3.51-1.44-5.17-3.67-5.17-6.36a6.4,6.4,0,0,1,6.74-6.59,8.82,8.82,0,0,1,4.81,1.39l-.89,3a6.9,6.9,0,0,0-4-1.3,3,3,0,0,0-3.27,3.07c0,1.85,1.17,2.69,3.72,3.8,3.39,1.49,5.12,3.44,5.12,6.78,0,3.94-2.66,6.73-7.3,6.73a10.07,10.07,0,0,1-5.49-1.53Z"/><path class="cls-2" d="M168.57,481.11v27.15c0,2,0,4.27.16,5.8h-3.19l-.16-3.89h-.08a7.16,7.16,0,0,1-6.66,4.41c-4.72,0-8.36-4.6-8.36-11.42,0-7.48,4-12.07,8.76-12.07a6.34,6.34,0,0,1,5.89,3.43H165V481.11ZM165,500.74a7.63,7.63,0,0,0-.17-1.71c-.52-2.6-2.46-4.74-5.12-4.74-3.67,0-5.85,3.71-5.85,8.68,0,4.55,1.93,8.31,5.77,8.31,2.38,0,4.56-1.81,5.2-4.87a7.65,7.65,0,0,0,.17-1.77Z"/><path class="cls-2" d="M190.8,507.94c0,2.32,0,4.36.16,6.12h-3.14l-.21-3.66h-.08a7.26,7.26,0,0,1-6.45,4.18c-3.07,0-6.74-2-6.74-9.85V491.6h3.55V504c0,4.27,1.13,7.15,4.36,7.15a5.24,5.24,0,0,0,4.68-3.72,6.79,6.79,0,0,0,.32-2.09V491.6h3.55Z"/><path class="cls-2" d="M210.76,503.57c.08,5.53,3.14,7.8,6.7,7.8a11.37,11.37,0,0,0,5.4-1.16l.61,2.93a14.06,14.06,0,0,1-6.5,1.39c-6,0-9.6-4.55-9.6-11.33s3.47-12.11,9.16-12.11c6.37,0,8.07,6.45,8.07,10.58a17.53,17.53,0,0,1-.12,1.9Zm10.41-2.92c0-2.6-.93-6.64-4.93-6.64-3.59,0-5.16,3.81-5.44,6.64Z"/><path class="cls-2" d="M229,498.61c0-2.65,0-4.92-.17-7h3.11l.12,4.41h.16c.89-3,3-4.92,5.41-4.92a3.12,3.12,0,0,1,1,.14v3.85a4.73,4.73,0,0,0-1.21-.14c-2.5,0-4.28,2.18-4.76,5.25a13.1,13.1,0,0,0-.16,1.9v12H229Z"/><path class="cls-2" d="M254.28,497.68c0-2.32,0-4.22-.16-6.08h3.1l.16,3.62h.13c1.09-2.14,2.9-4.13,6.13-4.13,2.66,0,4.68,1.85,5.53,4.5h.08a9,9,0,0,1,2.18-2.92,6.07,6.07,0,0,1,4.32-1.58c2.58,0,6.42,2,6.42,9.75v13.22h-3.48V501.35c0-4.32-1.37-6.92-4.23-6.92-2,0-3.59,1.72-4.2,3.71a7.75,7.75,0,0,0-.28,2.05v13.87h-3.47V500.6c0-3.57-1.38-6.17-4.08-6.17-2.22,0-3.83,2-4.4,4.08a6.49,6.49,0,0,0-.28,2v13.55h-3.47Z"/><path class="cls-2" d="M289.91,503.57c.08,5.53,3.15,7.8,6.7,7.8a11.42,11.42,0,0,0,5.41-1.16l.61,2.93a14.13,14.13,0,0,1-6.5,1.39c-6,0-9.61-4.55-9.61-11.33s3.47-12.11,9.16-12.11c6.38,0,8.07,6.45,8.07,10.58a17.53,17.53,0,0,1-.12,1.9Zm10.41-2.92c0-2.6-.92-6.64-4.92-6.64-3.59,0-5.17,3.81-5.45,6.64Z"/><path class="cls-2" d="M308.15,481.11h3.55v32.95h-3.55Z"/><path class="cls-2" d="M317.68,481.11h3.55v32.95h-3.55Z"/><path class="cls-2" d="M329.18,503.57c.08,5.53,3.14,7.8,6.7,7.8a11.37,11.37,0,0,0,5.4-1.16l.61,2.93a14.06,14.06,0,0,1-6.5,1.39c-6,0-9.6-4.55-9.6-11.33s3.47-12.11,9.16-12.11c6.37,0,8.07,6.45,8.07,10.58a17.53,17.53,0,0,1-.12,1.9Zm10.41-2.92c0-2.6-.93-6.64-4.92-6.64-3.6,0-5.17,3.81-5.45,6.64Z"/><path class="cls-2" d="M347.42,497.68c0-2.32,0-4.22-.17-6.08h3.11l.16,3.62h.13c1.08-2.14,2.9-4.13,6.13-4.13,2.66,0,4.68,1.85,5.53,4.5h.08a9,9,0,0,1,2.18-2.92,6.07,6.07,0,0,1,4.32-1.58c2.58,0,6.41,2,6.41,9.75v13.22h-3.47V501.35c0-4.32-1.37-6.92-4.23-6.92-2,0-3.6,1.72-4.2,3.71a7.75,7.75,0,0,0-.28,2.05v13.87h-3.47V500.6c0-3.57-1.38-6.17-4.08-6.17-2.22,0-3.84,2-4.4,4.08a6.49,6.49,0,0,0-.28,2v13.55h-3.47Z"/><path class="cls-3" d="M399.74,487.7h-.08l-4.56,2.83-.69-3.11,5.73-3.53h3v30.17h-3.43Z"/><path class="cls-3" d="M428.39,487.33h-10l-1,7.75a12.5,12.5,0,0,1,2.14-.19,9.91,9.91,0,0,1,5.65,1.63,8.9,8.9,0,0,1,3.75,7.75c0,5.9-4.07,10.31-9.76,10.31a11.54,11.54,0,0,1-6.54-1.86l.89-3.11a10.63,10.63,0,0,0,5.61,1.67,6.18,6.18,0,0,0,6.21-6.55c0-3.89-2.3-6.68-7.54-6.68a23.55,23.55,0,0,0-3.64.33l1.7-14.49h12.55Z"/><path class="cls-3" d="M442.79,500v3h-10v-3Z"/><path class="cls-3" d="M453.53,487.7h-.08l-4.56,2.83-.69-3.11,5.73-3.53h3v30.17h-3.43Z"/><path class="cls-3" d="M483.55,483.89v2.7l-11.42,27.47h-3.67l11.38-26.68v-.1H467v-3.39Z"/><path class="cls-3" d="M511.25,514.06l-.28-2.83h-.12a7,7,0,0,1-6,3.35c-4,0-6-3.21-6-6.46,0-5.43,4.2-8.4,11.75-8.35v-.47c0-1.85-.44-5.19-4.44-5.19a8.8,8.8,0,0,0-5.08,1.67l-.81-2.7a11,11,0,0,1,6.41-2c6,0,7.43,4.69,7.43,9.19v8.4a36.54,36.54,0,0,0,.32,5.38Zm-.52-11.46c-3.87-.09-8.27.7-8.27,5.06,0,2.64,1.53,3.9,3.35,3.9a5,5,0,0,0,4.72-3.76,4.88,4.88,0,0,0,.2-1.3Zm-7.63-17.69a4.09,4.09,0,0,1,4.12-4.4c2.42,0,4,1.9,4,4.36a4.06,4.06,0,1,1-8.11,0Zm6.14-.09a2.28,2.28,0,0,0-2.1-2.55c-1.25,0-2,1.21-2,2.64,0,1.21.81,2.51,2,2.51S509.24,486.21,509.24,484.82Z"/><path class="cls-3" d="M519.89,498.61c0-2.65,0-4.92-.16-7h3.11L523,496h.16c.89-3,3-4.92,5.41-4.92a3.2,3.2,0,0,1,1,.14v3.85a4.85,4.85,0,0,0-1.21-.14c-2.51,0-4.28,2.18-4.77,5.25a13.1,13.1,0,0,0-.16,1.9v12h-3.51Z"/><path class="cls-2" d="M545.17,497.68c0-2.32,0-4.22-.16-6.08h3.11l.16,3.62h.12c1.09-2.14,2.91-4.13,6.13-4.13,2.67,0,4.69,1.85,5.53,4.5h.08a9.13,9.13,0,0,1,2.18-2.92,6.09,6.09,0,0,1,4.32-1.58c2.59,0,6.42,2,6.42,9.75v13.22h-3.47V501.35c0-4.32-1.37-6.92-4.24-6.92-2,0-3.59,1.72-4.2,3.71a7.75,7.75,0,0,0-.28,2.05v13.87H557.4V500.6c0-3.57-1.37-6.17-4.08-6.17-2.22,0-3.83,2-4.4,4.08a6.49,6.49,0,0,0-.28,2v13.55h-3.47Z"/><path class="cls-2" d="M589.64,514.06l-.28-2.83h-.12a7,7,0,0,1-6,3.35c-4,0-6-3.21-6-6.46,0-5.43,4.2-8.4,11.75-8.35v-.47c0-1.85-.45-5.19-4.44-5.19a8.85,8.85,0,0,0-5.09,1.67l-.8-2.7a11,11,0,0,1,6.41-2c6,0,7.43,4.69,7.43,9.19v8.4a36.54,36.54,0,0,0,.32,5.38Zm-.52-11.46c-3.88-.09-8.28.7-8.28,5.06,0,2.64,1.54,3.9,3.36,3.9a5,5,0,0,0,4.72-3.76,4.88,4.88,0,0,0,.2-1.3Zm-7.63-17.69a4.08,4.08,0,0,1,4.12-4.4c2.42,0,4,1.9,4,4.36a4.06,4.06,0,1,1-8.11,0Zm6.14-.09a2.28,2.28,0,0,0-2.1-2.55c-1.25,0-2,1.21-2,2.64,0,1.21.81,2.51,2,2.51S587.63,486.21,587.63,484.82Z"/><path class="cls-2" d="M627.23,481.11v27.15c0,2,0,4.27.16,5.8h-3.18l-.17-3.89H624a7.16,7.16,0,0,1-6.66,4.41c-4.72,0-8.35-4.6-8.35-11.42,0-7.48,4-12.07,8.76-12.07a6.36,6.36,0,0,1,5.89,3.43h.08V481.11Zm-3.55,19.63a8.25,8.25,0,0,0-.16-1.71c-.52-2.6-2.46-4.74-5.13-4.74-3.67,0-5.85,3.71-5.85,8.68,0,4.55,1.94,8.31,5.77,8.31,2.38,0,4.56-1.81,5.21-4.87a8.26,8.26,0,0,0,.16-1.77Z"/><path class="cls-2" d="M649.47,507.94c0,2.32,0,4.36.16,6.12h-3.15l-.2-3.66h-.08a7.28,7.28,0,0,1-6.46,4.18c-3.07,0-6.74-2-6.74-9.85V491.6h3.55V504c0,4.27,1.13,7.15,4.36,7.15a5.23,5.23,0,0,0,4.68-3.72,6.5,6.5,0,0,0,.33-2.09V491.6h3.55Z"/><path class="cls-2" d="M684.27,491.6c-.08,1.62-.16,3.43-.16,6.17v13.05c0,5.15-.89,8.3-2.78,10.25a9.51,9.51,0,0,1-7.11,2.7,11.34,11.34,0,0,1-6.5-1.86l.89-3.11a9.94,9.94,0,0,0,5.73,1.76c3.64,0,6.3-2.18,6.3-7.84v-2.51h-.08a6.81,6.81,0,0,1-6.22,3.76c-4.84,0-8.31-4.73-8.31-11,0-7.62,4.32-11.93,8.8-11.93a6.41,6.41,0,0,1,6.09,3.9H681l.17-3.39Zm-3.67,8.86a6.65,6.65,0,0,0-.2-1.85c-.65-2.37-2.38-4.32-5-4.32-3.39,0-5.81,3.3-5.81,8.5,0,4.4,1.94,8.07,5.77,8.07,2.18,0,4.16-1.58,4.93-4.18a8.1,8.1,0,0,0,.28-2.18Z"/><path class="cls-2" d="M692,503.57c.08,5.53,3.15,7.8,6.7,7.8a11.45,11.45,0,0,0,5.41-1.16l.6,2.93a14.06,14.06,0,0,1-6.5,1.39c-6,0-9.6-4.55-9.6-11.33s3.47-12.11,9.16-12.11c6.38,0,8.07,6.45,8.07,10.58a17.53,17.53,0,0,1-.12,1.9Zm10.41-2.92c0-2.6-.93-6.64-4.92-6.64-3.59,0-5.17,3.81-5.45,6.64Z"/><path class="cls-2" d="M710.22,498.61c0-2.65,0-4.92-.16-7h3.11l.12,4.41h.16c.88-3,3-4.92,5.41-4.92a3.1,3.1,0,0,1,1,.14v3.85a4.73,4.73,0,0,0-1.21-.14c-2.5,0-4.27,2.18-4.76,5.25a13.1,13.1,0,0,0-.16,1.9v12h-3.51Z"/><path class="cls-2" d="M723.58,497.68c0-2.32,0-4.22-.16-6.08h3.14l.21,3.71h.08a7.1,7.1,0,0,1,6.45-4.22c2.71,0,6.91,1.85,6.91,9.56v13.41h-3.56V501.11c0-3.62-1.17-6.63-4.52-6.63-2.34,0-4.15,1.9-4.76,4.17a6.78,6.78,0,0,0-.24,1.91v13.5h-3.55Z"/><path class="cls-2" d="M748,503.57c.08,5.53,3.15,7.8,6.7,7.8a11.42,11.42,0,0,0,5.41-1.16l.61,2.93a14.1,14.1,0,0,1-6.5,1.39c-6,0-9.61-4.55-9.61-11.33s3.47-12.11,9.16-12.11c6.38,0,8.08,6.45,8.08,10.58a17,17,0,0,1-.13,1.9Zm10.42-2.92c0-2.6-.93-6.64-4.93-6.64-3.59,0-5.16,3.81-5.45,6.64Z"/><path class="cls-2" d="M777.79,509.89a8.48,8.48,0,0,0,4.68,1.62c2.59,0,3.8-1.48,3.8-3.34s-1-3-3.63-4.13c-3.51-1.44-5.17-3.67-5.17-6.36a6.39,6.39,0,0,1,6.74-6.59,8.79,8.79,0,0,1,4.8,1.39l-.88,3a6.9,6.9,0,0,0-4-1.3,3,3,0,0,0-3.27,3.07c0,1.85,1.17,2.69,3.71,3.8,3.39,1.49,5.13,3.44,5.13,6.78,0,3.94-2.66,6.73-7.31,6.73a10,10,0,0,1-5.48-1.53Z"/><path class="cls-2" d="M796.24,503.57c.08,5.53,3.14,7.8,6.7,7.8a11.37,11.37,0,0,0,5.4-1.16l.61,2.93a14.06,14.06,0,0,1-6.5,1.39c-6,0-9.61-4.55-9.61-11.33s3.48-12.11,9.17-12.11c6.37,0,8.07,6.45,8.07,10.58a17.53,17.53,0,0,1-.12,1.9Zm10.41-2.92c0-2.6-.93-6.64-4.93-6.64-3.59,0-5.16,3.81-5.44,6.64Z"/><path class="cls-2" d="M814.48,497.68c0-2.32,0-4.22-.17-6.08h3.15l.2,3.71h.09a7.09,7.09,0,0,1,6.45-4.22c2.71,0,6.9,1.85,6.9,9.56v13.41h-3.55V501.11c0-3.62-1.17-6.63-4.52-6.63-2.34,0-4.15,1.9-4.76,4.17a6.78,6.78,0,0,0-.24,1.91v13.5h-3.55Z"/><path class="cls-2" d="M853.74,481.11v27.15c0,2,0,4.27.16,5.8h-3.18l-.17-3.89h-.08a7.16,7.16,0,0,1-6.66,4.41c-4.72,0-8.35-4.6-8.35-11.42,0-7.48,4-12.07,8.76-12.07a6.35,6.35,0,0,1,5.89,3.43h.08V481.11Zm-3.55,19.63A8.25,8.25,0,0,0,850,499c-.52-2.6-2.46-4.74-5.13-4.74-3.67,0-5.85,3.71-5.85,8.68,0,4.55,1.94,8.31,5.77,8.31,2.39,0,4.56-1.81,5.21-4.87a8.26,8.26,0,0,0,.16-1.77Z"/><path class="cls-2" d="M861.61,503.57c.08,5.53,3.15,7.8,6.7,7.8a11.42,11.42,0,0,0,5.41-1.16l.6,2.93a14,14,0,0,1-6.49,1.39c-6,0-9.61-4.55-9.61-11.33s3.47-12.11,9.16-12.11c6.38,0,8.08,6.45,8.08,10.58a17,17,0,0,1-.13,1.9ZM872,500.65c0-2.6-.92-6.64-4.92-6.64-3.59,0-5.17,3.81-5.45,6.64Z"/><path class="cls-2" d="M70.08,559.28c.08,5.52,3.15,7.8,6.7,7.8a11.42,11.42,0,0,0,5.41-1.16l.6,2.92a14,14,0,0,1-6.49,1.39c-6,0-9.61-4.55-9.61-11.32s3.47-12.12,9.16-12.12c6.38,0,8.07,6.46,8.07,10.59a17.91,17.91,0,0,1-.12,1.9Zm10.41-2.93c0-2.59-.93-6.63-4.92-6.63-3.59,0-5.17,3.8-5.45,6.63Z"/><path class="cls-2" d="M88.32,536.81h3.55v33H88.32Z"/><path class="cls-2" d="M97.84,536.81h3.56v33H97.84Z"/><path class="cls-2" d="M109.35,559.28c.08,5.52,3.14,7.8,6.69,7.8a11.39,11.39,0,0,0,5.41-1.16l.61,2.92a14.06,14.06,0,0,1-6.5,1.39c-6,0-9.6-4.55-9.6-11.32s3.47-12.12,9.16-12.12c6.37,0,8.07,6.46,8.07,10.59a17.91,17.91,0,0,1-.12,1.9Zm10.41-2.93c0-2.59-.93-6.63-4.93-6.63-3.59,0-5.16,3.8-5.44,6.63Z"/><path class="cls-2" d="M127.59,554.31c0-2.64,0-4.92-.17-7h3.11l.12,4.41h.16c.89-3,3-4.92,5.41-4.92a3.42,3.42,0,0,1,1,.14v3.86a4.37,4.37,0,0,0-1.21-.14c-2.5,0-4.28,2.18-4.76,5.24a13.36,13.36,0,0,0-.16,1.9v12h-3.51Z"/><path class="cls-2" d="M152.19,553.38c0-2.32,0-4.22-.17-6.08h3.11l.16,3.62h.12c1.09-2.13,2.91-4.13,6.14-4.13,2.66,0,4.68,1.86,5.53,4.51h.08a8.9,8.9,0,0,1,2.18-2.93,6.11,6.11,0,0,1,4.32-1.58c2.58,0,6.41,2,6.41,9.75v13.23H176.6V557.05c0-4.32-1.37-6.92-4.23-6.92-2,0-3.6,1.72-4.2,3.72a7.73,7.73,0,0,0-.28,2v13.88h-3.47V556.31c0-3.58-1.38-6.18-4.08-6.18-2.22,0-3.84,2-4.4,4.09a6.45,6.45,0,0,0-.28,2v13.55h-3.47Z"/><path class="cls-2" d="M203.52,558.35c0,8.31-5,11.93-9.73,11.93-5.28,0-9.36-4.46-9.36-11.56,0-7.52,4.28-11.93,9.69-11.93C199.73,546.79,203.52,551.48,203.52,558.35Zm-15.5.23c0,4.92,2.46,8.64,5.94,8.64s5.93-3.67,5.93-8.73c0-3.81-1.66-8.63-5.85-8.63S188,554.31,188,558.58Z"/><path class="cls-2" d="M224.87,536.81V564c0,2,0,4.27.16,5.8h-3.19l-.16-3.9h-.08a7.14,7.14,0,0,1-6.66,4.41c-4.72,0-8.35-4.6-8.35-11.42-.05-7.47,4-12.07,8.75-12.07a6.37,6.37,0,0,1,5.9,3.44h.08V536.81Zm-3.55,19.64a8.35,8.35,0,0,0-.16-1.72c-.53-2.6-2.47-4.73-5.13-4.73-3.67,0-5.85,3.71-5.85,8.68,0,4.54,1.93,8.3,5.77,8.3,2.38,0,4.56-1.81,5.21-4.87a8.17,8.17,0,0,0,.16-1.76Z"/><path class="cls-2" d="M235,540.85v6.45h5.08v3.11H235v12.12c0,2.78.68,4.36,2.66,4.36a6.93,6.93,0,0,0,2.06-.28l.16,3.07a7.81,7.81,0,0,1-3.15.55,4.62,4.62,0,0,1-3.83-1.71c-1-1.21-1.37-3.21-1.37-5.85V550.41h-3V547.3h3v-5.38Z"/><path class="cls-2" d="M254.93,569.77l-.28-2.83h-.12a7,7,0,0,1-6,3.34c-4,0-6-3.2-6-6.45,0-5.43,4.2-8.4,11.75-8.36V555c0-1.86-.45-5.2-4.44-5.2a8.83,8.83,0,0,0-5.09,1.67l-.81-2.69a11,11,0,0,1,6.42-2c6,0,7.43,4.69,7.43,9.19v8.4a36.59,36.59,0,0,0,.32,5.39Zm-.52-11.47c-3.88-.09-8.28.7-8.28,5.06,0,2.65,1.54,3.9,3.35,3.9a5,5,0,0,0,4.73-3.76,4.82,4.82,0,0,0,.2-1.3Z"/><path class="cls-2" d="M280.4,547.3c-.08,1.63-.16,3.44-.16,6.18v13c0,5.15-.89,8.31-2.79,10.26a9.52,9.52,0,0,1-7.1,2.69,11.32,11.32,0,0,1-6.5-1.86l.89-3.11a9.94,9.94,0,0,0,5.73,1.77c3.63,0,6.29-2.18,6.29-7.85v-2.5h-.08a6.8,6.8,0,0,1-6.21,3.76c-4.84,0-8.32-4.74-8.32-11,0-7.61,4.32-11.93,8.8-11.93a6.45,6.45,0,0,1,6.1,3.9h.08l.16-3.39Zm-3.68,8.87a6.72,6.72,0,0,0-.2-1.86c-.64-2.36-2.38-4.31-5-4.31-3.39,0-5.81,3.29-5.81,8.49,0,4.41,1.93,8.08,5.77,8.08,2.18,0,4.15-1.58,4.92-4.18a8.21,8.21,0,0,0,.28-2.18Z"/><path class="cls-2" d="M288.1,559.28c.08,5.52,3.15,7.8,6.7,7.8a11.39,11.39,0,0,0,5.41-1.16l.61,2.92a14.1,14.1,0,0,1-6.5,1.39c-6,0-9.61-4.55-9.61-11.32s3.47-12.12,9.16-12.12c6.38,0,8.08,6.46,8.08,10.59a17.91,17.91,0,0,1-.12,1.9Zm10.42-2.93c0-2.59-.93-6.63-4.93-6.63-3.59,0-5.16,3.8-5.45,6.63Z"/><path class="cls-3" d="M321.7,541a2.27,2.27,0,0,1-2.26,2.51A2.3,2.3,0,0,1,317.3,541a2.34,2.34,0,0,1,2.22-2.55A2.29,2.29,0,0,1,321.7,541Zm-3.95,28.78V547.3h3.55v22.47Z"/><path class="cls-3" d="M327.19,553.38c0-2.32,0-4.22-.16-6.08h3.15l.2,3.72h.08a7.1,7.1,0,0,1,6.46-4.23c2.7,0,6.9,1.86,6.9,9.56v13.42h-3.55V556.82c0-3.62-1.17-6.64-4.52-6.64-2.34,0-4.16,1.91-4.77,4.18a6.75,6.75,0,0,0-.24,1.9v13.51h-3.55Z"/><path class="cls-3" d="M353.7,540.85v6.45h5.09v3.11H353.7v12.12c0,2.78.69,4.36,2.67,4.36a6.93,6.93,0,0,0,2.06-.28l.16,3.07a7.81,7.81,0,0,1-3.15.55,4.61,4.61,0,0,1-3.83-1.71c-1-1.21-1.38-3.21-1.38-5.85V550.41h-3V547.3h3v-5.38Z"/><path class="cls-3" d="M366.74,541a2.27,2.27,0,0,1-2.26,2.51,2.3,2.3,0,0,1-2.14-2.51,2.34,2.34,0,0,1,2.22-2.55A2.29,2.29,0,0,1,366.74,541Zm-4,28.78V547.3h3.56v22.47Z"/><path class="cls-3" d="M372.23,553.38c0-2.32,0-4.22-.17-6.08h3.11l.16,3.62h.13c1.08-2.13,2.9-4.13,6.13-4.13,2.66,0,4.68,1.86,5.53,4.51h.08a9,9,0,0,1,2.18-2.93,6.11,6.11,0,0,1,4.32-1.58c2.58,0,6.41,2,6.41,9.75v13.23h-3.47V557.05c0-4.32-1.37-6.92-4.23-6.92-2,0-3.6,1.72-4.2,3.72a7.73,7.73,0,0,0-.28,2v13.88h-3.47V556.31c0-3.58-1.38-6.18-4.08-6.18-2.22,0-3.84,2-4.4,4.09a6.45,6.45,0,0,0-.28,2v13.55h-3.47Z"/><path class="cls-3" d="M407.86,559.28c.08,5.52,3.15,7.8,6.7,7.8a11.42,11.42,0,0,0,5.41-1.16l.6,2.92a14,14,0,0,1-6.49,1.39c-6,0-9.61-4.55-9.61-11.32s3.47-12.12,9.16-12.12c6.38,0,8.07,6.46,8.07,10.59a17.91,17.91,0,0,1-.12,1.9Zm10.41-2.93c0-2.59-.92-6.63-4.92-6.63-3.59,0-5.17,3.8-5.45,6.63Z"/><path class="cls-3" d="M437.34,569.77c.08-1.53.16-3.81.16-5.8V536.81H441v14.11h.08a7.13,7.13,0,0,1,6.66-4.13c4.84,0,8.27,4.64,8.23,11.47,0,8-4.4,12-8.76,12a6.84,6.84,0,0,1-6.54-4.22h-.12l-.16,3.71Zm3.68-9a8.72,8.72,0,0,0,.16,1.49c.68,2.83,2.74,4.78,5.32,4.78,3.72,0,5.94-3.48,5.94-8.63,0-4.51-2-8.36-5.81-8.36-2.43,0-4.69,1.91-5.41,5a9.2,9.2,0,0,0-.2,1.67Z"/><path class="cls-3" d="M464.42,541a2.27,2.27,0,0,1-2.26,2.51A2.3,2.3,0,0,1,460,541a2.34,2.34,0,0,1,2.22-2.55A2.29,2.29,0,0,1,464.42,541Zm-3.95,28.78V547.3H464v22.47Z"/><path class="cls-3" d="M469.91,536.81h3.55v33h-3.55Z"/><path class="cls-3" d="M479.43,536.81H483v33h-3.56Z"/><path class="cls-3" d="M490.93,559.28c.09,5.52,3.15,7.8,6.7,7.8a11.39,11.39,0,0,0,5.41-1.16l.61,2.92a14.06,14.06,0,0,1-6.5,1.39c-6,0-9.61-4.55-9.61-11.32s3.48-12.12,9.17-12.12c6.37,0,8.07,6.46,8.07,10.59a17.91,17.91,0,0,1-.12,1.9Zm10.42-2.93c0-2.59-.93-6.63-4.93-6.63-3.59,0-5.16,3.8-5.45,6.63Z"/><path class="cls-3" d="M526,536.81V564c0,2,0,4.27.17,5.8H523l-.16-3.9h-.08a7.15,7.15,0,0,1-6.66,4.41c-4.73,0-8.36-4.6-8.36-11.42,0-7.47,4-12.07,8.76-12.07a6.36,6.36,0,0,1,5.89,3.44h.08V536.81Zm-3.55,19.64a8.35,8.35,0,0,0-.16-1.72c-.52-2.6-2.46-4.73-5.12-4.73-3.68,0-5.86,3.71-5.86,8.68,0,4.54,1.94,8.3,5.78,8.3,2.38,0,4.56-1.81,5.2-4.87a8.17,8.17,0,0,0,.16-1.76Z"/><path class="cls-3" d="M533.91,559.28c.08,5.52,3.15,7.8,6.7,7.8a11.39,11.39,0,0,0,5.41-1.16l.61,2.92a14.06,14.06,0,0,1-6.5,1.39c-6,0-9.61-4.55-9.61-11.32s3.47-12.12,9.16-12.12c6.38,0,8.08,6.46,8.08,10.59a17.91,17.91,0,0,1-.12,1.9Zm10.42-2.93c0-2.59-.93-6.63-4.93-6.63-3.59,0-5.16,3.8-5.45,6.63Z"/><path class="cls-3" d="M552.15,554.31c0-2.64,0-4.92-.16-7h3.11l.12,4.41h.16c.89-3,3-4.92,5.41-4.92a3.47,3.47,0,0,1,1,.14v3.86a4.37,4.37,0,0,0-1.21-.14c-2.5,0-4.28,2.18-4.76,5.24a13.28,13.28,0,0,0-.17,1.9v12h-3.51Z"/><path class="cls-2" d="M576.75,553.38c0-2.32,0-4.22-.16-6.08h3.11l.16,3.62H580c1.09-2.13,2.91-4.13,6.14-4.13,2.66,0,4.68,1.86,5.53,4.51h.08a8.9,8.9,0,0,1,2.18-2.93,6.11,6.11,0,0,1,4.32-1.58c2.58,0,6.41,2,6.41,9.75v13.23h-3.47V557.05c0-4.32-1.37-6.92-4.24-6.92-2,0-3.59,1.72-4.19,3.72a7.71,7.71,0,0,0-.29,2v13.88H589V556.31c0-3.58-1.37-6.18-4.07-6.18-2.22,0-3.84,2-4.4,4.09a6.45,6.45,0,0,0-.29,2v13.55h-3.47Z"/><path class="cls-2" d="M612.39,559.28c.08,5.52,3.15,7.8,6.7,7.8a11.45,11.45,0,0,0,5.41-1.16l.6,2.92a14.06,14.06,0,0,1-6.5,1.39c-6,0-9.6-4.55-9.6-11.32s3.47-12.12,9.16-12.12c6.38,0,8.07,6.46,8.07,10.59a17.91,17.91,0,0,1-.12,1.9Zm10.41-2.93c0-2.59-.93-6.63-4.92-6.63-3.6,0-5.17,3.8-5.45,6.63Z"/><path class="cls-2" d="M630.63,536.81h3.55v33h-3.55Z"/><path class="cls-2" d="M640.15,536.81h3.55v33h-3.55Z"/><path class="cls-2" d="M651.65,559.28c.08,5.52,3.15,7.8,6.7,7.8a11.42,11.42,0,0,0,5.41-1.16l.61,2.92a14.1,14.1,0,0,1-6.5,1.39c-6,0-9.61-4.55-9.61-11.32s3.47-12.12,9.16-12.12c6.38,0,8.08,6.46,8.08,10.59a17.91,17.91,0,0,1-.12,1.9Zm10.42-2.93c0-2.59-.93-6.63-4.93-6.63-3.59,0-5.16,3.8-5.45,6.63Z"/><path class="cls-2" d="M669.89,553.38c0-2.32,0-4.22-.16-6.08h3.11l.16,3.62h.12c1.09-2.13,2.91-4.13,6.14-4.13,2.66,0,4.68,1.86,5.53,4.51h.08a9,9,0,0,1,2.17-2.93,6.15,6.15,0,0,1,4.32-1.58c2.59,0,6.42,2,6.42,9.75v13.23h-3.47V557.05c0-4.32-1.37-6.92-4.24-6.92-2,0-3.59,1.72-4.19,3.72a7.32,7.32,0,0,0-.29,2v13.88h-3.47V556.31c0-3.58-1.37-6.18-4.08-6.18-2.21,0-3.83,2-4.39,4.09a6.17,6.17,0,0,0-.29,2v13.55h-3.47Z"/><path class="cls-2" d="M731.82,536.81V564c0,2,0,4.27.16,5.8h-3.19l-.16-3.9h-.08a7.14,7.14,0,0,1-6.66,4.41c-4.72,0-8.35-4.6-8.35-11.42,0-7.47,4-12.07,8.76-12.07a6.37,6.37,0,0,1,5.89,3.44h.08V536.81Zm-3.55,19.64a8.35,8.35,0,0,0-.16-1.72c-.53-2.6-2.46-4.73-5.13-4.73-3.67,0-5.85,3.71-5.85,8.68,0,4.54,1.94,8.3,5.77,8.3,2.38,0,4.56-1.81,5.21-4.87a8.17,8.17,0,0,0,.16-1.76Z"/><path class="cls-2" d="M741.67,541a2.27,2.27,0,0,1-2.26,2.51,2.3,2.3,0,0,1-2.14-2.51,2.34,2.34,0,0,1,2.22-2.55A2.29,2.29,0,0,1,741.67,541Zm-4,28.78V547.3h3.55v22.47Z"/><path class="cls-2" d="M764,547.3c-.08,1.63-.17,3.44-.17,6.18v13c0,5.15-.88,8.31-2.78,10.26a9.52,9.52,0,0,1-7.1,2.69,11.32,11.32,0,0,1-6.5-1.86l.89-3.11a9.94,9.94,0,0,0,5.73,1.77c3.63,0,6.29-2.18,6.29-7.85v-2.5h-.08a6.81,6.81,0,0,1-6.21,3.76c-4.85,0-8.32-4.74-8.32-11,0-7.61,4.32-11.93,8.8-11.93a6.45,6.45,0,0,1,6.1,3.9h.08l.16-3.39Zm-3.68,8.87a6.72,6.72,0,0,0-.2-1.86c-.64-2.36-2.38-4.31-5-4.31-3.39,0-5.81,3.29-5.81,8.49,0,4.41,1.93,8.08,5.77,8.08,2.18,0,4.15-1.58,4.92-4.18a8.21,8.21,0,0,0,.28-2.18Z"/><path class="cls-2" d="M798.8,558.35c0,8.31-5,11.93-9.73,11.93-5.29,0-9.36-4.46-9.36-11.56,0-7.52,4.27-11.93,9.68-11.93C795,546.79,798.8,551.48,798.8,558.35Zm-15.5.23c0,4.92,2.46,8.64,5.93,8.64s5.93-3.67,5.93-8.73c0-3.81-1.65-8.63-5.85-8.63S783.3,554.31,783.3,558.58Z"/><path class="cls-2" d="M820.1,547.3c-.08,1.63-.16,3.44-.16,6.18v13c0,5.15-.89,8.31-2.78,10.26a9.52,9.52,0,0,1-7.11,2.69,11.28,11.28,0,0,1-6.49-1.86l.88-3.11a10,10,0,0,0,5.73,1.77c3.64,0,6.3-2.18,6.3-7.85v-2.5h-.08a6.81,6.81,0,0,1-6.22,3.76c-4.84,0-8.31-4.74-8.31-11,0-7.61,4.32-11.93,8.8-11.93a6.42,6.42,0,0,1,6.09,3.9h.08l.17-3.39Zm-3.67,8.87a6.72,6.72,0,0,0-.2-1.86c-.65-2.36-2.38-4.31-5-4.31-3.39,0-5.81,3.29-5.81,8.49,0,4.41,1.94,8.08,5.77,8.08,2.18,0,4.16-1.58,4.93-4.18a8.21,8.21,0,0,0,.28-2.18Z"/><path class="cls-2" d="M839.21,559.28c.08,5.52,3.15,7.8,6.7,7.8a11.39,11.39,0,0,0,5.41-1.16l.61,2.92a14.1,14.1,0,0,1-6.5,1.39c-6,0-9.61-4.55-9.61-11.32s3.47-12.12,9.16-12.12c6.38,0,8.08,6.46,8.08,10.59a17.91,17.91,0,0,1-.12,1.9Zm10.42-2.93c0-2.59-.93-6.63-4.93-6.63-3.59,0-5.16,3.8-5.45,6.63Z"/><path class="cls-2" d="M857.45,553.38c0-2.32,0-4.22-.16-6.08h3.15l.2,3.72h.08a7.1,7.1,0,0,1,6.46-4.23c2.7,0,6.9,1.86,6.9,9.56v13.42h-3.55V556.82c0-3.62-1.17-6.64-4.52-6.64-2.34,0-4.16,1.91-4.76,4.18a6.39,6.39,0,0,0-.25,1.9v13.51h-3.55Z"/><path class="cls-2" d="M78.92,625.47l-.28-2.83h-.12a7,7,0,0,1-6,3.35c-4,0-6-3.21-6-6.46,0-5.43,4.2-8.4,11.74-8.35v-.47c0-1.85-.44-5.19-4.44-5.19a8.82,8.82,0,0,0-5.08,1.67l-.81-2.7a11,11,0,0,1,6.42-2c6,0,7.43,4.69,7.43,9.19v8.4a36.54,36.54,0,0,0,.32,5.38ZM78.39,614c-3.87-.09-8.27.7-8.27,5.06,0,2.65,1.53,3.9,3.35,3.9a5,5,0,0,0,4.72-3.76,4.88,4.88,0,0,0,.2-1.3Z"/><path class="cls-2" d="M87.55,609.09c0-2.32,0-4.22-.16-6.08h3.15l.2,3.71h.08a7.11,7.11,0,0,1,6.46-4.22c2.7,0,6.9,1.85,6.9,9.56v13.41h-3.55v-13c0-3.62-1.17-6.63-4.52-6.63a5.21,5.21,0,0,0-4.76,4.17,6.78,6.78,0,0,0-.24,1.91v13.5H87.55Z"/><path class="cls-2" d="M126.82,592.52v27.15c0,2,0,4.27.16,5.8h-3.19l-.16-3.89h-.08a7.16,7.16,0,0,1-6.66,4.41c-4.72,0-8.35-4.6-8.35-11.42,0-7.48,4-12.07,8.76-12.07a6.36,6.36,0,0,1,5.89,3.43h.08V592.52Zm-3.55,19.63a8.25,8.25,0,0,0-.16-1.71c-.53-2.6-2.46-4.74-5.13-4.74-3.67,0-5.85,3.71-5.85,8.68,0,4.55,1.94,8.31,5.77,8.31,2.38,0,4.56-1.81,5.21-4.87a8.26,8.26,0,0,0,.16-1.77Z"/><path class="cls-2" d="M134.69,615c.08,5.53,3.15,7.8,6.7,7.8a11.45,11.45,0,0,0,5.41-1.16l.6,2.93a14.06,14.06,0,0,1-6.5,1.39c-6,0-9.6-4.55-9.6-11.33s3.47-12.11,9.16-12.11c6.38,0,8.07,6.45,8.07,10.58a17.53,17.53,0,0,1-.12,1.9Zm10.41-2.92c0-2.6-.93-6.64-4.92-6.64-3.59,0-5.17,3.81-5.45,6.64Z"/><path class="cls-2" d="M152.93,609.09c0-2.32,0-4.22-.16-6.08h3.15l.2,3.71h.08a7.11,7.11,0,0,1,6.46-4.22c2.7,0,6.9,1.85,6.9,9.56v13.41H166v-13c0-3.62-1.18-6.63-4.52-6.63a5.22,5.22,0,0,0-4.77,4.17,6.78,6.78,0,0,0-.24,1.91v13.5h-3.55Z"/><path class="cls-2" d="M173,631.18a76.58,76.58,0,0,0,2.42-11.09l4-.46a62.41,62.41,0,0,1-3.83,11.28Z"/><path class="cls-2" d="M192.23,609.09c0-2.32,0-4.22-.16-6.08h3.11l.16,3.62h.12c1.09-2.14,2.91-4.13,6.14-4.13,2.66,0,4.68,1.85,5.53,4.5h.08a8.85,8.85,0,0,1,2.18-2.92,6.07,6.07,0,0,1,4.32-1.58c2.58,0,6.41,2,6.41,9.75v13.22h-3.47V612.76c0-4.32-1.37-6.92-4.24-6.92-2,0-3.59,1.72-4.19,3.71a7.73,7.73,0,0,0-.29,2.05v13.87h-3.47V612c0-3.57-1.37-6.17-4.07-6.17-2.22,0-3.84,2-4.4,4.08a6.49,6.49,0,0,0-.28,2v13.55h-3.48Z"/><path class="cls-2" d="M227.87,615c.08,5.53,3.15,7.8,6.7,7.8a11.45,11.45,0,0,0,5.41-1.16l.6,2.93a14.06,14.06,0,0,1-6.5,1.39c-6,0-9.6-4.55-9.6-11.33s3.47-12.11,9.16-12.11c6.38,0,8.07,6.45,8.07,10.58a17.53,17.53,0,0,1-.12,1.9Zm10.41-2.92c0-2.6-.93-6.64-4.92-6.64-3.59,0-5.17,3.81-5.45,6.64Z"/><path class="cls-2" d="M246.11,609.09c0-2.32,0-4.22-.16-6.08h3.15l.2,3.71h.08a7.11,7.11,0,0,1,6.46-4.22c2.7,0,6.9,1.85,6.9,9.56v13.41h-3.55v-13c0-3.62-1.18-6.63-4.52-6.63a5.22,5.22,0,0,0-4.77,4.17,6.78,6.78,0,0,0-.24,1.91v13.5h-3.55Z"/><path class="cls-2" d="M293.93,592.52v27.15c0,2,0,4.27.16,5.8H290.9l-.16-3.89h-.08A7.16,7.16,0,0,1,284,626c-4.72,0-8.35-4.6-8.35-11.42,0-7.48,4-12.07,8.76-12.07a6.36,6.36,0,0,1,5.89,3.43h.08V592.52Zm-3.55,19.63a8.25,8.25,0,0,0-.16-1.71c-.53-2.6-2.46-4.74-5.13-4.74-3.67,0-5.85,3.71-5.85,8.68,0,4.55,1.94,8.31,5.77,8.31,2.38,0,4.56-1.81,5.21-4.87a8.26,8.26,0,0,0,.16-1.77Z"/><path class="cls-2" d="M316.17,619.35c0,2.32,0,4.36.16,6.12h-3.15l-.2-3.66h-.08a7.28,7.28,0,0,1-6.46,4.18c-3.07,0-6.74-2-6.74-9.85V603h3.55v12.44c0,4.27,1.13,7.15,4.36,7.15a5.23,5.23,0,0,0,4.68-3.72,6.77,6.77,0,0,0,.33-2.08V603h3.55Z"/><path class="cls-2" d="M330.61,609.09c0-2.32,0-4.22-.16-6.08h3.11l.16,3.62h.12c1.09-2.14,2.91-4.13,6.14-4.13,2.66,0,4.68,1.85,5.52,4.5h.09a8.85,8.85,0,0,1,2.18-2.92,6.06,6.06,0,0,1,4.31-1.58c2.59,0,6.42,2,6.42,9.75v13.22H355V612.76c0-4.32-1.37-6.92-4.24-6.92-2,0-3.59,1.72-4.2,3.71a7.75,7.75,0,0,0-.28,2.05v13.87h-3.47V612c0-3.57-1.37-6.17-4.08-6.17-2.22,0-3.83,2-4.39,4.08a6.21,6.21,0,0,0-.29,2v13.55h-3.47Z"/><path class="cls-2" d="M375.09,625.47l-.29-2.83h-.12a7,7,0,0,1-6,3.35c-4,0-6-3.21-6-6.46,0-5.43,4.19-8.4,11.74-8.35v-.47c0-1.85-.44-5.19-4.44-5.19a8.8,8.8,0,0,0-5.08,1.67l-.81-2.7a11,11,0,0,1,6.41-2c6,0,7.43,4.69,7.43,9.19v8.4a36.54,36.54,0,0,0,.32,5.38ZM374.56,614c-3.87-.09-8.27.7-8.27,5.06,0,2.65,1.53,3.9,3.35,3.9a5,5,0,0,0,4.72-3.76,4.88,4.88,0,0,0,.2-1.3Zm-7.63-17.69a4.09,4.09,0,0,1,4.12-4.4c2.42,0,4,1.9,4,4.36a4.06,4.06,0,1,1-8.11,0Zm6.14-.09a2.28,2.28,0,0,0-2.1-2.55c-1.25,0-2,1.21-2,2.64,0,1.21.81,2.51,2,2.51S373.07,597.62,373.07,596.23Z"/><path class="cls-3" d="M403.09,625.47l-.28-2.83h-.12a7,7,0,0,1-6,3.35c-3.95,0-6-3.21-6-6.46,0-5.43,4.2-8.4,11.75-8.35v-.47c0-1.85-.45-5.19-4.44-5.19a8.83,8.83,0,0,0-5.09,1.67l-.81-2.7a11,11,0,0,1,6.42-2c6,0,7.43,4.69,7.43,9.19v8.4a36.54,36.54,0,0,0,.32,5.38ZM402.57,614c-3.88-.09-8.28.7-8.28,5.06,0,2.65,1.54,3.9,3.35,3.9a5,5,0,0,0,4.73-3.76,4.88,4.88,0,0,0,.2-1.3Z"/><path class="cls-3" d="M411.73,592.52h3.55v33h-3.55Z"/><path class="cls-3" d="M438.12,592.52v27.15c0,2,0,4.27.16,5.8h-3.19l-.16-3.89h-.08a7.16,7.16,0,0,1-6.66,4.41c-4.72,0-8.35-4.6-8.35-11.42,0-7.48,4-12.07,8.76-12.07a6.36,6.36,0,0,1,5.89,3.43h.08V592.52Zm-3.55,19.63a8.25,8.25,0,0,0-.16-1.71c-.53-2.6-2.46-4.74-5.13-4.74-3.67,0-5.85,3.71-5.85,8.68,0,4.55,1.94,8.31,5.77,8.31,2.38,0,4.56-1.81,5.21-4.87a8.26,8.26,0,0,0,.16-1.77Z"/><path class="cls-3" d="M444,610c0-2.65,0-4.92-.16-7H447l.12,4.41h.16c.89-3,3-4.92,5.41-4.92a3.52,3.52,0,0,1,1,.14v3.85a4.85,4.85,0,0,0-1.21-.14c-2.51,0-4.28,2.18-4.77,5.25a13.1,13.1,0,0,0-.16,1.9v12H444Z"/><path class="cls-3" d="M461.32,596.7a2.26,2.26,0,0,1-2.26,2.5,2.29,2.29,0,0,1-2.14-2.5,2.35,2.35,0,0,1,2.22-2.56A2.29,2.29,0,0,1,461.32,596.7Zm-3.95,28.77V603h3.55v22.46Z"/><path class="cls-3" d="M483.64,603c-.08,1.62-.16,3.43-.16,6.17v13.05c0,5.15-.89,8.3-2.78,10.25a9.51,9.51,0,0,1-7.11,2.7,11.34,11.34,0,0,1-6.5-1.86l.89-3.11a9.94,9.94,0,0,0,5.73,1.76c3.64,0,6.3-2.18,6.3-7.84v-2.51h-.08a6.81,6.81,0,0,1-6.22,3.76c-4.84,0-8.31-4.73-8.31-11,0-7.62,4.32-11.93,8.8-11.93a6.42,6.42,0,0,1,6.09,3.9h.08l.16-3.39ZM480,611.87a6.65,6.65,0,0,0-.2-1.85c-.65-2.37-2.38-4.32-5-4.32-3.39,0-5.81,3.3-5.81,8.5,0,4.4,1.94,8.07,5.77,8.07,2.18,0,4.16-1.58,4.93-4.18a8.1,8.1,0,0,0,.28-2.18Z"/><path class="cls-3" d="M514.79,592.52v27.15c0,2,0,4.27.17,5.8h-3.19l-.16-3.89h-.08a7.17,7.17,0,0,1-6.66,4.41c-4.73,0-8.36-4.6-8.36-11.42,0-7.48,4-12.07,8.76-12.07a6.35,6.35,0,0,1,5.89,3.43h.08V592.52Zm-3.55,19.63a8.25,8.25,0,0,0-.16-1.71c-.52-2.6-2.46-4.74-5.12-4.74-3.68,0-5.86,3.71-5.86,8.68,0,4.55,1.94,8.31,5.78,8.31,2.38,0,4.56-1.81,5.2-4.87a8.26,8.26,0,0,0,.16-1.77Z"/><path class="cls-3" d="M522.66,615c.08,5.53,3.15,7.8,6.7,7.8a11.39,11.39,0,0,0,5.41-1.16l.61,2.93a14.06,14.06,0,0,1-6.5,1.39c-6,0-9.61-4.55-9.61-11.33s3.47-12.11,9.16-12.11c6.38,0,8.08,6.45,8.08,10.58a17.53,17.53,0,0,1-.12,1.9Zm10.42-2.92c0-2.6-.93-6.64-4.93-6.64-3.59,0-5.16,3.81-5.45,6.64Z"/><path class="cls-3" d="M540.9,592.52h3.56v33H540.9Z"/><path class="cls-3" d="M552.4,615c.09,5.53,3.15,7.8,6.7,7.8a11.39,11.39,0,0,0,5.41-1.16l.61,2.93a14.06,14.06,0,0,1-6.5,1.39c-6,0-9.61-4.55-9.61-11.33s3.48-12.11,9.17-12.11c6.37,0,8.07,6.45,8.07,10.58a17.53,17.53,0,0,1-.12,1.9Zm10.42-2.92c0-2.6-.93-6.64-4.93-6.64-3.59,0-5.16,3.81-5.45,6.64Z"/><path class="cls-2" d="M596.07,592.52v27.15c0,2,0,4.27.16,5.8H593l-.16-3.89h-.08a7.16,7.16,0,0,1-6.66,4.41c-4.72,0-8.35-4.6-8.35-11.42,0-7.48,4-12.07,8.75-12.07a6.37,6.37,0,0,1,5.9,3.43h.08V592.52Zm-3.55,19.63a8.25,8.25,0,0,0-.16-1.71c-.53-2.6-2.47-4.74-5.13-4.74-3.67,0-5.85,3.71-5.85,8.68,0,4.55,1.94,8.31,5.77,8.31,2.38,0,4.56-1.81,5.21-4.87a8.26,8.26,0,0,0,.16-1.77Z"/><path class="cls-2" d="M603.94,615c.08,5.53,3.15,7.8,6.7,7.8a11.37,11.37,0,0,0,5.4-1.16l.61,2.93a14.06,14.06,0,0,1-6.5,1.39c-6,0-9.6-4.55-9.6-11.33s3.47-12.11,9.16-12.11c6.38,0,8.07,6.45,8.07,10.58a17.53,17.53,0,0,1-.12,1.9Zm10.41-2.92c0-2.6-.93-6.64-4.92-6.64-3.6,0-5.17,3.81-5.45,6.64Z"/><path class="cls-2" d="M622.18,609.09c0-2.32,0-4.22-.16-6.08h3.1l.17,3.62h.12c1.09-2.14,2.9-4.13,6.13-4.13,2.67,0,4.68,1.85,5.53,4.5h.08a9,9,0,0,1,2.18-2.92,6.07,6.07,0,0,1,4.32-1.58c2.58,0,6.42,2,6.42,9.75v13.22h-3.48V612.76c0-4.32-1.37-6.92-4.23-6.92-2,0-3.59,1.72-4.2,3.71a7.75,7.75,0,0,0-.28,2.05v13.87h-3.47V612c0-3.57-1.38-6.17-4.08-6.17-2.22,0-3.83,2-4.4,4.08a6.49,6.49,0,0,0-.28,2v13.55h-3.47Z"/><path class="cls-2" d="M664.39,609.09c0-2.32,0-4.22-.16-6.08h3.1l.17,3.62h.12c1.09-2.14,2.9-4.13,6.13-4.13,2.67,0,4.68,1.85,5.53,4.5h.08a9,9,0,0,1,2.18-2.92,6.07,6.07,0,0,1,4.32-1.58c2.58,0,6.42,2,6.42,9.75v13.22h-3.47V612.76c0-4.32-1.38-6.92-4.24-6.92-2,0-3.59,1.72-4.2,3.71a7.75,7.75,0,0,0-.28,2.05v13.87h-3.47V612c0-3.57-1.37-6.17-4.08-6.17-2.22,0-3.83,2-4.4,4.08a6.49,6.49,0,0,0-.28,2v13.55h-3.47Z"/><path class="cls-2" d="M700,615c.08,5.53,3.15,7.8,6.7,7.8a11.42,11.42,0,0,0,5.41-1.16l.61,2.93a14.1,14.1,0,0,1-6.5,1.39c-6,0-9.61-4.55-9.61-11.33s3.47-12.11,9.16-12.11c6.38,0,8.08,6.45,8.08,10.58a17.53,17.53,0,0,1-.12,1.9Zm10.42-2.92c0-2.6-.93-6.64-4.93-6.64-3.59,0-5.16,3.81-5.45,6.64Z"/><path class="cls-2" d="M735.13,592.52v27.15c0,2,0,4.27.16,5.8h-3.18l-.17-3.89h-.08A7.16,7.16,0,0,1,725.2,626c-4.72,0-8.35-4.6-8.35-11.42,0-7.48,4-12.07,8.76-12.07a6.36,6.36,0,0,1,5.89,3.43h.08V592.52Zm-3.55,19.63a8.25,8.25,0,0,0-.16-1.71c-.52-2.6-2.46-4.74-5.13-4.74-3.67,0-5.85,3.71-5.85,8.68,0,4.55,1.94,8.31,5.77,8.31,2.38,0,4.56-1.81,5.21-4.87a8.26,8.26,0,0,0,.16-1.77Z"/><path class="cls-2" d="M760.39,625.47l-.28-2.83H760a7,7,0,0,1-6,3.35c-4,0-6-3.21-6-6.46,0-5.43,4.2-8.4,11.75-8.35v-.47c0-1.85-.45-5.19-4.44-5.19a8.85,8.85,0,0,0-5.09,1.67l-.8-2.7a11,11,0,0,1,6.41-2c6,0,7.43,4.69,7.43,9.19v8.4a36.54,36.54,0,0,0,.32,5.38ZM759.87,614c-3.87-.09-8.27.7-8.27,5.06,0,2.65,1.53,3.9,3.35,3.9a5,5,0,0,0,4.72-3.76,4.88,4.88,0,0,0,.2-1.3Z"/><path class="cls-2" d="M769,609.09c0-2.32,0-4.22-.16-6.08H772l.2,3.71h.08a7.11,7.11,0,0,1,6.46-4.22c2.7,0,6.9,1.85,6.9,9.56v13.41h-3.55v-13c0-3.62-1.17-6.63-4.52-6.63a5.22,5.22,0,0,0-4.77,4.17,6.78,6.78,0,0,0-.24,1.91v13.5H769Z"/><path class="cls-2" d="M808.3,592.52v27.15c0,2,0,4.27.16,5.8h-3.19l-.16-3.89H805a7.16,7.16,0,0,1-6.66,4.41c-4.72,0-8.36-4.6-8.36-11.42,0-7.48,4-12.07,8.76-12.07a6.37,6.37,0,0,1,5.9,3.43h.08V592.52Zm-3.55,19.63a7.63,7.63,0,0,0-.17-1.71c-.52-2.6-2.46-4.74-5.12-4.74-3.67,0-5.85,3.71-5.85,8.68,0,4.55,1.93,8.31,5.77,8.31,2.38,0,4.56-1.81,5.2-4.87a7.65,7.65,0,0,0,.17-1.77Z"/><path class="cls-2" d="M814.19,610c0-2.65,0-4.92-.16-7h3.1l.12,4.41h.17c.88-3,3-4.92,5.4-4.92a3.42,3.42,0,0,1,1,.14v3.85a4.73,4.73,0,0,0-1.21-.14c-2.5,0-4.28,2.18-4.76,5.25a13.1,13.1,0,0,0-.16,1.9v12h-3.51Z"/><path class="cls-2" d="M829,615c.08,5.53,3.15,7.8,6.7,7.8a11.45,11.45,0,0,0,5.41-1.16l.6,2.93a14.06,14.06,0,0,1-6.5,1.39c-6,0-9.6-4.55-9.6-11.33s3.47-12.11,9.16-12.11c6.38,0,8.07,6.45,8.07,10.58a17.53,17.53,0,0,1-.12,1.9Zm10.41-2.92c0-2.6-.93-6.64-4.92-6.64-3.6,0-5.17,3.81-5.45,6.64Z"/><path class="cls-2" d="M845.87,623.06c0-1.72,1-2.92,2.42-2.92s2.38,1.2,2.38,2.92-.93,2.93-2.42,2.93S845.87,624.73,845.87,623.06Z"/></svg>
