<svg id="Layer_1" data-name="Layer 1" xmlns="http://www.w3.org/2000/svg" width="855" height="735" viewBox="0 0 855 735"><defs><style>.cls-1{fill:#f7921e;}.cls-2{fill:#202534;}.cls-3{fill:#fff;}</style></defs><title>logo</title><path class="cls-1" d="M841.5,241.28h-532a12,12,0,0,0-12,12v164a12,12,0,0,0,12,12H654.22l70.43,30.2,72.27,31-7.29-61.19H841.5a12,12,0,0,0,12-12v-164A12,12,0,0,0,841.5,241.28Z"/><path class="cls-2" d="M810.5.28H42.5a12,12,0,0,0-12,12v217a12,12,0,0,0,12,12h97.56l-2,69.44,73.11-39.45,55.57-30H810.5a12,12,0,0,0,12-12v-217A12,12,0,0,0,810.5.28Z"/><path class="cls-2" d="M660.36,424.28H11.64c-5.58,0-10.14,5.4-10.14,12v217c0,6.6,4.56,12,10.14,12H94.05l-1.69,69.44,61.75-39.45,46.94-30H660.36c5.58,0,10.14-5.4,10.14-12v-217C670.5,429.68,665.94,424.28,660.36,424.28Z"/><path class="cls-3" d="M130.38,122.48a30.83,30.83,0,0,0,15.6,4.4c8.9,0,14.1-4.7,14.1-11.5,0-6.3-3.6-9.9-12.7-13.4-11-3.9-17.8-9.61-17.8-19.11,0-10.5,8.7-18.3,21.8-18.3,6.9,0,11.9,1.6,14.9,3.3l-2.4,7.1a26.84,26.84,0,0,0-12.8-3.2c-9.2,0-12.7,5.5-12.7,10.1,0,6.3,4.1,9.4,13.4,13,11.4,4.4,17.2,9.9,17.2,19.8,0,10.4-7.7,19.4-23.6,19.4-6.5,0-13.6-1.9-17.2-4.3Z"/><path class="cls-3" d="M189.58,65.67v28.2h32.6V65.67H231v67.41h-8.81v-31.6h-32.6v31.6h-8.7V65.67Z"/><path class="cls-3" d="M257,111.88l-7,21.2h-9l22.9-67.41h10.5l23,67.41h-9.3l-7.2-21.2Zm22.1-6.8-6.6-19.41c-1.5-4.4-2.5-8.4-3.5-12.3h-.2c-1,4-2.1,8.1-3.4,12.2l-6.6,19.51Z"/><path class="cls-3" d="M307.28,66.57a90.62,90.62,0,0,1,16.7-1.4c9.3,0,15.3,1.7,19.5,5.5a16.79,16.79,0,0,1,5.3,12.8c0,8.9-5.6,14.81-12.7,17.21v.3c5.2,1.8,8.3,6.6,9.9,13.6,2.2,9.4,3.8,15.9,5.2,18.5h-9c-1.1-1.9-2.6-7.7-4.5-16.1-2-9.3-5.6-12.8-13.5-13.1H316v29.2h-8.7ZM316,97.28h8.9c9.3,0,15.2-5.1,15.2-12.81,0-8.7-6.3-12.5-15.5-12.6a35.79,35.79,0,0,0-8.6.8Z"/><path class="cls-3" d="M369.78,65.67v67.41h-8.7V65.67Z"/><path class="cls-3" d="M385,133.08V65.67h9.5l21.6,34.11a190.79,190.79,0,0,1,12.1,21.9l.2-.1c-.8-9-1-17.2-1-27.71V65.67h8.2v67.41h-8.8l-21.4-34.2a215.05,215.05,0,0,1-12.6-22.51l-.3.1c.5,8.5.7,16.61.7,27.81v28.8Z"/><path class="cls-3" d="M502.08,130.08a62.79,62.79,0,0,1-20.7,3.7c-10.2,0-18.6-2.6-25.2-8.9-5.8-5.6-9.4-14.6-9.4-25.1.1-20.11,13.9-34.81,36.5-34.81,7.8,0,13.9,1.7,16.8,3.1l-2.1,7.1a34.94,34.94,0,0,0-14.9-2.9c-16.4,0-27.1,10.2-27.1,27.11,0,17.1,10.3,27.2,26,27.2,5.7,0,9.6-.8,11.6-1.8v-20.1h-13.7v-7h22.2Z"/><path class="cls-3" d="M404.79,286.07v67.4h-8.7v-67.4Z"/><path class="cls-3" d="M418.79,342.87a30.83,30.83,0,0,0,15.6,4.4c8.9,0,14.1-4.7,14.1-11.5,0-6.3-3.6-9.9-12.7-13.4-11-3.9-17.8-9.6-17.8-19.1,0-10.5,8.7-18.3,21.8-18.3,6.9,0,11.9,1.6,14.9,3.3l-2.4,7.1a26.84,26.84,0,0,0-12.8-3.2c-9.2,0-12.7,5.5-12.7,10.1,0,6.3,4.1,9.4,13.4,13,11.4,4.4,17.2,9.9,17.2,19.8,0,10.4-7.7,19.4-23.6,19.4-6.5,0-13.6-1.89-17.2-4.3Z"/><path class="cls-3" d="M490.49,353.47v-67.4H500l21.6,34.1a190.79,190.79,0,0,1,12.1,21.9l.2-.1c-.8-9-1-17.2-1-27.7v-28.2h8.2v67.4h-8.8l-21.4-34.2a213.93,213.93,0,0,1-12.6-22.5l-.3.1c.5,8.5.7,16.6.7,27.8v28.8Z"/><path class="cls-3" d="M613.89,319.07c0,23.2-14.1,35.51-31.3,35.51-17.8,0-30.3-13.81-30.3-34.21,0-21.4,13.3-35.4,31.3-35.4C602,285,613.89,299.07,613.89,319.07Zm-52.3,1.1c0,14.4,7.8,27.3,21.5,27.3s21.6-12.7,21.6-28c0-13.4-7-27.4-21.5-27.4S561.59,305.37,561.59,320.17Z"/><path class="cls-3" d="M635.49,293.47H615v-7.4h49.9v7.4h-20.6v60h-8.8Z"/><path class="cls-3" d="M141.32,567.21c-3.2,1.6-9.6,3.2-17.8,3.2-19,0-33.3-12-33.3-34.1,0-21.1,14.3-35.4,35.2-35.4,8.4,0,13.7,1.8,16,3l-2.1,7.1a31.69,31.69,0,0,0-13.6-2.8c-15.8,0-26.3,10.1-26.3,27.8,0,16.5,9.5,27.1,25.9,27.1a34.82,34.82,0,0,0,14.2-2.8Z"/><path class="cls-3" d="M163.52,548.21l-7,21.2h-9l22.9-67.4h10.5l23,67.4h-9.3l-7.2-21.2Zm22.1-6.8L179,522c-1.5-4.4-2.5-8.4-3.5-12.3h-.2c-1,4-2.1,8.1-3.4,12.2l-6.6,19.5Z"/><path class="cls-3" d="M213.82,502.91a90.62,90.62,0,0,1,16.7-1.4c9.3,0,15.3,1.7,19.5,5.5a16.79,16.79,0,0,1,5.3,12.8c0,8.9-5.6,14.8-12.7,17.2v.3c5.2,1.8,8.3,6.6,9.9,13.6,2.2,9.4,3.8,15.9,5.2,18.5h-9c-1.1-1.9-2.6-7.7-4.5-16.1-2-9.3-5.6-12.8-13.5-13.1h-8.2v29.2h-8.7Zm8.7,30.7h8.9c9.3,0,15.2-5.1,15.2-12.8,0-8.7-6.3-12.5-15.5-12.6a35.79,35.79,0,0,0-8.6.8Z"/><path class="cls-3" d="M276.32,502v67.4h-8.7V502Z"/><path class="cls-3" d="M291.52,569.41V502H301l21.6,34.1a190.79,190.79,0,0,1,12.1,21.9l.2-.1c-.8-9-1-17.2-1-27.7V502h8.2v67.4h-8.8l-21.4-34.2a213.93,213.93,0,0,1-12.6-22.5l-.3.1c.5,8.5.7,16.6.7,27.8v28.8Z"/><path class="cls-3" d="M408.62,566.41a62.74,62.74,0,0,1-20.7,3.71c-10.2,0-18.6-2.61-25.2-8.91-5.8-5.6-9.4-14.6-9.4-25.1.1-20.1,13.9-34.8,36.5-34.8,7.8,0,13.9,1.7,16.8,3.1l-2.1,7.1a34.94,34.94,0,0,0-14.9-2.9c-16.4,0-27.1,10.2-27.1,27.1,0,17.1,10.3,27.2,26,27.2,5.7,0,9.6-.8,11.6-1.8V541h-13.7v-7h22.2Z"/></svg>
