<svg id="Layer_1" data-name="Layer 1" xmlns="http://www.w3.org/2000/svg" width="852" height="734.43" viewBox="0 0 852 734.43"><defs><style>.cls-1{fill:#202534;}.cls-2{fill:#f7921e;}.cls-3{fill:#fff;}</style></defs><title>logo_new</title><path class="cls-1" d="M809,0H41A12,12,0,0,0,29,12V229a12,12,0,0,0,12,12h97.56l-2,69.43L209.67,271l55.57-30H809a12,12,0,0,0,12-12V12A12,12,0,0,0,809,0Z"/><path class="cls-1" d="M658.86,424H10.14C4.56,424,0,429.4,0,436V653c0,6.6,4.56,12,10.14,12H92.55l-1.69,69.43L152.61,695l46.94-30H658.86c5.58,0,10.14-5.4,10.14-12V436C669,429.4,664.44,424,658.86,424Z"/><path class="cls-2" d="M840,241H308a12,12,0,0,0-12,12V417a12,12,0,0,0,12,12H652.72l70.43,30.2,72.27,31L788.13,429H840a12,12,0,0,0,12-12V253A12,12,0,0,0,840,241Z"/><path class="cls-3" d="M178.12,135.57c0-15.56-40.82-18.92-40.82-41.41,0-21.06,23-43.08,62.47-20.71l-9,17.85c-14.64-12.73-31.54-6.18-31.54,2,0,10.75,43.44,13.56,43.44,40.93,0,23.45-33.38,47.13-73.9,18.69l11.19-18.81C153,143.31,178.12,150.21,178.12,135.57Z"/><path class="cls-3" d="M288.49,164.13H266.12V126.29h-26v37.84H217.8V66h22.37v38h26V66h22.37Z"/><path class="cls-3" d="M403,164.13h-24l-7.38-19.63H334.18L327,164.13H303L342.51,66h20.71ZM352.75,96.3,341.8,124.86h22.13Z"/><path class="cls-3" d="M451.34,66c23.66.55,33.46,15.12,33.44,30.22,0,14.89-8.21,22.75-18.09,26.89l27,41.06H469.07l-24-36.63c-2.72.16-5.18.2-7.18.22v36.41H415.52V66Zm9.87,30.94c0-10.83-10.35-13.09-23.32-13.09v26.06C448.78,109.63,461.18,108.42,461.21,96.9Z"/><path class="cls-3" d="M532,164.13H509.59V66H532Z"/><path class="cls-3" d="M549.81,66l61.4,50.57L611.45,66h22.37v98.17l-61.64-50.45v50.45H549.81Z"/><path class="cls-3" d="M743.6,164.13l-11.54-4,.53-7.12c-8.15,9-20.11,12.95-34.33,12.95-26.42,0-47.84-22.73-47.84-50.82s20.23-50.93,47.84-50.93c17.25,0,29.27,6.43,37.84,16.78L721.46,97c-5.71-9.17-13.2-12.62-21.89-12.62-13.81,0-25,13.69-25,30.7,0,16.66,11.18,30.23,25,30.23,10.71,0,21.3-6.9,21.3-18.92H700.64l-4-17.26h47Z"/><path class="cls-3" d="M390.29,384.53H367.91V286.35h22.38Z"/><path class="cls-3" d="M454.84,356c0-15.57-40.81-18.92-40.81-41.41,0-21.07,23-43.08,62.47-20.71l-9,17.85c-14.64-12.73-31.54-6.19-31.54,2,0,10.76,43.44,13.57,43.44,40.94,0,23.44-33.38,47.13-73.9,18.68l11.18-18.8C429.67,363.71,454.84,370.61,454.84,356Z"/><path class="cls-3" d="M514.28,286.35l61.41,50.58.23-50.58H598.3v98.18l-61.65-50.46v50.46H514.28Z"/><path class="cls-3" d="M663.8,284.57c27.61,0,49.39,23.2,49.39,50.81s-21.78,50.94-49.39,50.94S614.3,363,614.3,335.38,636.2,284.57,663.8,284.57Zm0,78.9c15.24,0,27.14-12.85,27.14-28.09s-11.9-28-27.14-28-27.25,12.73-27.25,28S648.57,363.47,663.8,363.47Z"/><path class="cls-3" d="M726.63,286.35h69V306H772.33v78.54H750V306H726.63Z"/><path class="cls-3" d="M127,594.31c-27.73,0-53.2-22.61-53.2-50.69s25.35-51.06,53.2-51.06c21.3,0,28.32,4.76,28.32,4.76l-4.76,22a46,46,0,0,0-20.11-4.76c-22.49,0-32.37,15.71-32.37,28.8s9.88,28.92,32.37,28.92a46,46,0,0,0,20.11-4.76l4.76,22S148.27,594.31,127,594.31Z"/><path class="cls-3" d="M267.56,592.53h-24l-7.38-19.64H198.78l-7.14,19.64h-24l39.51-98.18h20.71Zm-50.21-67.84L206.4,553.26h22.13Z"/><path class="cls-3" d="M315.94,494.35c23.66.55,33.46,15.12,33.44,30.23,0,14.89-8.21,22.74-18.09,26.88l27,41.07H333.67l-24-36.64c-2.72.17-5.18.21-7.18.22v36.42H280.12V494.35Zm9.87,30.94c0-10.83-10.35-13.09-23.32-13.09v26.06C313.38,538,325.77,536.81,325.81,525.29Z"/><path class="cls-3" d="M396.56,592.53H374.18V494.35h22.38Z"/><path class="cls-3" d="M414.41,494.35l61.4,50.58.24-50.58h22.37v98.18l-61.64-50.46v50.46H414.41Z"/><path class="cls-3" d="M608.2,592.53l-11.55-4,.54-7.12c-8.15,9-20.11,12.95-34.33,12.95-26.42,0-47.84-22.73-47.84-50.81s20.23-50.94,47.84-50.94c17.25,0,29.27,6.43,37.84,16.78l-14.64,16.07c-5.71-9.16-13.21-12.62-21.89-12.62-13.81,0-25,13.69-25,30.71,0,16.66,11.18,30.22,25,30.22,10.71,0,21.3-6.9,21.3-18.92H565.24l-4-17.25h47Z"/></svg>
