<svg id="Layer_1" data-name="Layer 1" xmlns="http://www.w3.org/2000/svg" width="345" height="245" viewBox="0 0 345 245"><defs><style>.cls-1{opacity:0.5;}.cls-2{fill:#34495e;}.cls-3{fill:#2c3e50;}</style></defs><title>luksnapchat</title><g class="cls-1"><rect class="cls-2" x="0.5" y="2" width="344" height="241" rx="82.52"/></g><path class="cls-3" d="M40.68,104.89v24.27h14.8v2.15H38.16V104.89Z"/><path class="cls-3" d="M60.29,104.89v16.35a12.77,12.77,0,0,0,.52,3.91,6.44,6.44,0,0,0,1.52,2.62,5.78,5.78,0,0,0,2.44,1.48,10.53,10.53,0,0,0,3.25.47,10.77,10.77,0,0,0,3.3-.47,5.9,5.9,0,0,0,2.44-1.48,6.53,6.53,0,0,0,1.51-2.62,12.77,12.77,0,0,0,.52-3.91V104.89h2.52V121.8a12.92,12.92,0,0,1-.57,3.86,8.53,8.53,0,0,1-1.82,3.2A8.44,8.44,0,0,1,72.74,131a14.38,14.38,0,0,1-9.4,0,8.6,8.6,0,0,1-3.18-2.17,8.38,8.38,0,0,1-1.81-3.2,12.61,12.61,0,0,1-.58-3.86V104.89Z"/><path class="cls-3" d="M85.89,104.89V119.1l15.36-14.21h3.4L92.85,115.8l12.36,15.51H102L91,117.54l-5.07,4.7v9.07H83.38V104.89Z"/><path class="cls-3" d="M119.45,126a5.68,5.68,0,0,0,1.83,2.18,7.64,7.64,0,0,0,2.76,1.16,15.41,15.41,0,0,0,3.4.36,9.51,9.51,0,0,0,2.26-.3,8,8,0,0,0,2.28-.94,5.81,5.81,0,0,0,1.75-1.67,4.22,4.22,0,0,0,.71-2.46,3.61,3.61,0,0,0-.5-1.92,4.59,4.59,0,0,0-1.3-1.37,7.84,7.84,0,0,0-1.75-.91q-1-.34-1.89-.57l-5.88-1.45a15.46,15.46,0,0,1-2.24-.74,6.27,6.27,0,0,1-1.91-1.18,5.62,5.62,0,0,1-1.31-1.81,6.26,6.26,0,0,1-.5-2.63,8.32,8.32,0,0,1,.37-2.26,6.23,6.23,0,0,1,1.39-2.44,8.08,8.08,0,0,1,2.79-1.94,11.18,11.18,0,0,1,4.55-.8,13.52,13.52,0,0,1,3.74.52,9.19,9.19,0,0,1,3.11,1.56,7.52,7.52,0,0,1,2.92,6.14h-2.52a6.24,6.24,0,0,0-.68-2.65,6.08,6.08,0,0,0-1.59-1.89,7.18,7.18,0,0,0-2.26-1.14,9.14,9.14,0,0,0-2.68-.39,10.76,10.76,0,0,0-2.5.28,6.27,6.27,0,0,0-2.11.88,4.72,4.72,0,0,0-1.46,1.61,5.08,5.08,0,0,0-.56,2.48,3.79,3.79,0,0,0,.32,1.61,3.38,3.38,0,0,0,.87,1.17,4.66,4.66,0,0,0,1.27.78,12,12,0,0,0,1.54.48l6.44,1.59a18.17,18.17,0,0,1,2.64.9,8.85,8.85,0,0,1,2.19,1.34,5.58,5.58,0,0,1,1.48,1.94,6.61,6.61,0,0,1,.53,2.77,10.44,10.44,0,0,1-.09,1.19,6.13,6.13,0,0,1-.44,1.57,8.07,8.07,0,0,1-1,1.68,6.35,6.35,0,0,1-1.78,1.54,10,10,0,0,1-2.79,1.11,18.56,18.56,0,0,1-8.33-.11,9.38,9.38,0,0,1-3.4-1.65,7.17,7.17,0,0,1-2.16-2.85,9.19,9.19,0,0,1-.65-4.18h2.51A7.59,7.59,0,0,0,119.45,126Z"/><path class="cls-3" d="M143.72,104.89l15.4,22.35h.07V104.89h2.52v26.42h-2.82L143.5,109h-.07v22.35h-2.52V104.89Z"/><path class="cls-3" d="M177.54,104.89l10.36,26.42h-2.7L182,123.09H170l-3.19,8.22h-2.66l10.62-26.42ZM181.13,121,176,107.4,170.73,121Z"/><path class="cls-3" d="M202,104.89a9.57,9.57,0,0,1,3.21.5,6.53,6.53,0,0,1,4.07,3.86,9.34,9.34,0,0,1,0,6.37,6.47,6.47,0,0,1-1.59,2.38,6.59,6.59,0,0,1-2.48,1.48,9.57,9.57,0,0,1-3.21.5h-9.22v11.33h-2.51V104.89Zm-.56,13a6.58,6.58,0,0,0,4.26-1.33,5.92,5.92,0,0,0,0-8.14,6.52,6.52,0,0,0-4.26-1.34h-8.66v10.81Z"/><path class="cls-3" d="M231.84,110.16a7.62,7.62,0,0,0-1.85-2,8.47,8.47,0,0,0-2.41-1.24,8.94,8.94,0,0,0-2.75-.42,9.51,9.51,0,0,0-4.52,1,8.92,8.92,0,0,0-3.09,2.64,11.42,11.42,0,0,0-1.77,3.72,15.82,15.82,0,0,0,0,8.49,11.33,11.33,0,0,0,1.77,3.74,8.94,8.94,0,0,0,3.09,2.65,9.63,9.63,0,0,0,4.52,1,7.85,7.85,0,0,0,5.88-2.48,9.58,9.58,0,0,0,1.74-2.69,11.11,11.11,0,0,0,.85-3.31h2.52a14.57,14.57,0,0,1-1.15,4.41,11.08,11.08,0,0,1-2.29,3.33,9.78,9.78,0,0,1-3.32,2.1,11.46,11.46,0,0,1-4.23.74,12.5,12.5,0,0,1-5.46-1.12,11.3,11.3,0,0,1-3.9-3,12.77,12.77,0,0,1-2.34-4.37,18,18,0,0,1,0-10.43,13,13,0,0,1,2.34-4.38,11.12,11.12,0,0,1,3.9-3,13.17,13.17,0,0,1,9.14-.57,10.81,10.81,0,0,1,3.25,1.64,9.7,9.7,0,0,1,2.45,2.69,9.18,9.18,0,0,1,1.24,3.66h-2.52A8.53,8.53,0,0,0,231.84,110.16Z"/><path class="cls-3" d="M242.18,104.89v11.47h15.69V104.89h2.51v26.42h-2.51V118.5H242.18v12.81h-2.52V104.89Z"/><path class="cls-3" d="M276.26,104.89l10.36,26.42h-2.7l-3.22-8.22h-12l-3.18,8.22h-2.66l10.61-26.42ZM279.85,121l-5.11-13.55L269.45,121Z"/><path class="cls-3" d="M304.6,104.89V107h-9.21v24.28h-2.52V107h-9.18v-2.14Z"/></svg>
