<svg xmlns="http://www.w3.org/2000/svg" width="1080" height="1920" viewBox="0 0 1080 1920"><defs><style>.cls-1{fill:#dcdfe6;}.cls-2{fill:#fff;}.cls-3{fill:#999;}.cls-4{fill:#bcc0cc;}.cls-5{fill:#343740;}.cls-6{fill:#a1a5b3;}.cls-7{fill:gray;}.cls-8{fill:#fefefe;}.cls-9{fill:#3498db;}.cls-10{fill:#f6f7f9;}.cls-11{fill:#2c3e50;}.cls-12{fill:#a8b9c1;}.cls-13{opacity:0.44;}.cls-14{fill:#f7f7f7;}.cls-15{fill:#e6e7e8;}.cls-16{fill:#94909a;}.cls-17{fill:#858e99;}.cls-18{fill:#0284fe;}.cls-19{fill:#ee4035;}.cls-20{fill:#f3e879;}.cls-21{fill:#d3aa83;}.cls-22{fill:#dab692;}.cls-23{fill:#3f2914;}.cls-24{fill:#f2a087;}.cls-25{fill:#d3ab83;}.cls-26{fill:#bdc3c7;}</style></defs><title>Artboard 1</title><g id="Layer_1" data-name="Layer 1"><rect class="cls-1" x="1063.48" y="362.16" width="21.52" height="125.16"/><rect class="cls-1" width="1078.85" height="1920" rx="44.6"/><rect class="cls-2" x="36.88" y="202.39" width="998.94" height="1517.89"/><rect class="cls-3" x="467.2" y="87.88" width="144.46" height="10.65" rx="2"/><path class="cls-4" d="M543.6,1751c-42.2,0-76.4,31.27-76.4,69.85s34.2,69.86,76.4,69.86,76.4-31.28,76.4-69.86S585.79,1751,543.6,1751Zm0,130.6c-34.86,0-63.12-26.52-63.12-59.23s28.26-59.22,63.12-59.22,63.11,26.51,63.11,59.22S578.46,1881.6,543.6,1881.6Z"/><ellipse class="cls-3" cx="390.35" cy="93.2" rx="15.37" ry="13.31"/><rect class="cls-5" x="37" y="258.31" width="1001.9" height="1461.97"/><ellipse class="cls-1" cx="545.57" cy="35.95" rx="10.76" ry="9.32"/><ellipse class="cls-6" cx="539.5" cy="35.95" rx="10.76" ry="9.32"/><rect class="cls-5" x="37" y="202.39" width="1001.9" height="55.92"/><rect class="cls-3" x="1023.53" y="223.69" width="3.07" height="10.65"/><rect class="cls-7" x="971.27" y="218.36" width="52.25" height="21.3"/><rect class="cls-8" x="974.35" y="221.03" width="46.1" height="15.98"/><rect class="cls-8" x="1023.53" y="226.35" width="3.07" height="5.33"/><path class="cls-2" d="M103.88,238v-5.47H94.06v-2.75l10.25-14.22h2.38v14.52H110v2.45h-3.29V238Zm0-7.92V219.92l-7.17,10.17Z"/><path class="cls-2" d="M128.76,215.71a8.16,8.16,0,0,1,4.13,6.3h-3.08a5.56,5.56,0,0,0-2.28-3.67,7.74,7.74,0,0,0-4.36-1.14,6.74,6.74,0,0,0-5.25,2.39q-2.15,2.39-2.14,7.12a11.62,11.62,0,0,0,1.76,6.67q1.77,2.56,5.74,2.57a7.25,7.25,0,0,0,5.05-1.81q2-1.8,2-5.84h-7.19v-2.57h10.08V238h-2l-.75-3a11.74,11.74,0,0,1-2.76,2.41,10.14,10.14,0,0,1-5.11,1.16,9.9,9.9,0,0,1-6.91-2.64q-3.15-3.31-3.15-9.1t3.08-9.17a9.72,9.72,0,0,1,7.58-3.25A11.49,11.49,0,0,1,128.76,215.71Z"/><rect class="cls-8" x="57" y="221" width="7" height="18" rx="0.75"/><rect class="cls-8" x="47" y="226" width="7" height="13" rx="0.75"/><rect class="cls-8" x="66" y="217" width="7" height="22" rx="0.75"/><rect class="cls-8" x="76" y="214" width="7" height="25" rx="0.75"/><path class="cls-2" d="M915,226.37V225a7.45,7.45,0,0,0,2.79-.65,3.18,3.18,0,0,0,1.18-2.16h1.45v14.63h-2v-10.4Z"/><path class="cls-2" d="M934.48,224.43a10.46,10.46,0,0,1,1,5,11.92,11.92,0,0,1-.9,5,4.37,4.37,0,0,1-4.22,2.81,4.24,4.24,0,0,1-3.94-2.3,10.63,10.63,0,0,1-1.07-5.15,12.77,12.77,0,0,1,.64-4.3c.81-2.22,2.27-3.34,4.38-3.34A4.33,4.33,0,0,1,934.48,224.43Zm-1.86,9.78c.57-.85.86-2.42.86-4.73a11.68,11.68,0,0,0-.62-4.12,2.34,2.34,0,0,0-2.39-1.62,2.49,2.49,0,0,0-2.39,1.54,10.59,10.59,0,0,0-.75,4.51,11.13,11.13,0,0,0,.48,3.61,2.62,2.62,0,0,0,4.81.81Z"/><path class="cls-2" d="M946.16,224.43a10.46,10.46,0,0,1,1,5,11.92,11.92,0,0,1-.9,5,4.37,4.37,0,0,1-4.22,2.81,4.24,4.24,0,0,1-3.94-2.3,10.63,10.63,0,0,1-1.07-5.15,12.77,12.77,0,0,1,.64-4.3c.81-2.22,2.27-3.34,4.38-3.34A4.33,4.33,0,0,1,946.16,224.43Zm-1.86,9.78c.57-.85.86-2.42.86-4.73a11.68,11.68,0,0,0-.62-4.12,2.34,2.34,0,0,0-2.39-1.62,2.49,2.49,0,0,0-2.39,1.54,10.57,10.57,0,0,0-.76,4.51,11.1,11.1,0,0,0,.49,3.61,2.62,2.62,0,0,0,4.81.81Z"/><path class="cls-2" d="M954.82,223.57a3.49,3.49,0,0,1,1,2.53,3.57,3.57,0,0,1-6.1,2.52,3.4,3.4,0,0,1-1-2.52,3.57,3.57,0,0,1,6.1-2.53Zm-1,4a2.1,2.1,0,0,0,0-3,2.08,2.08,0,0,0-1.51-.62,2.11,2.11,0,0,0-1.49,3.6,2,2,0,0,0,1.49.62A2,2,0,0,0,953.79,227.59Zm7.08-5.45H962l-8.21,15h-1.15Zm4,8.53a3.57,3.57,0,1,1-6.1,2.52,3.57,3.57,0,0,1,6.1-2.52Zm-1,4a2.08,2.08,0,0,0,.62-1.5,2.12,2.12,0,0,0-4.24,0,2.12,2.12,0,0,0,3.62,1.5Z"/></g><g id="Layer_2" data-name="Layer 2"><rect class="cls-2" x="36" y="263.31" width="1003" height="1461.97"/><ellipse class="cls-9" cx="102.07" cy="1645.8" rx="46.93" ry="46.8"/><rect class="cls-10" x="36" y="260" width="1004" height="129"/><rect class="cls-5" x="36" y="309" width="3" height="3"/><polygon class="cls-9" points="91 293.99 59.21 323.5 53.91 318.58 85.7 289.07 91 293.99"/><polygon class="cls-9" points="85.7 349 53.91 319.49 59.21 314.58 91 344.08 85.7 349"/><path class="cls-9" d="M109.81,327.41a7.24,7.24,0,0,0,2.37,2.83,9.91,9.91,0,0,0,3.58,1.51,20.12,20.12,0,0,0,4.42.46,12.25,12.25,0,0,0,2.92-.39,10.11,10.11,0,0,0,3-1.22,7.58,7.58,0,0,0,2.28-2.16,5.52,5.52,0,0,0,.91-3.19,4.73,4.73,0,0,0-.65-2.5,5.9,5.9,0,0,0-1.68-1.77,9.84,9.84,0,0,0-2.28-1.18,22.61,22.61,0,0,0-2.45-.74l-7.63-1.88a21,21,0,0,1-2.9-1,8.21,8.21,0,0,1-2.48-1.53,7.39,7.39,0,0,1-1.7-2.35,8.1,8.1,0,0,1-.65-3.41,10.9,10.9,0,0,1,.48-2.93,8.13,8.13,0,0,1,1.8-3.17,10.53,10.53,0,0,1,3.63-2.52,14.45,14.45,0,0,1,5.9-1,17.17,17.17,0,0,1,4.85.67,11.93,11.93,0,0,1,4,2,9.67,9.67,0,0,1,3.79,8h-3.26a8,8,0,0,0-.89-3.44,7.75,7.75,0,0,0-2.06-2.44,8.91,8.91,0,0,0-2.93-1.49,11.82,11.82,0,0,0-3.48-.51,14.36,14.36,0,0,0-3.24.36,8.16,8.16,0,0,0-2.74,1.16,5.93,5.93,0,0,0-1.89,2.08,6.58,6.58,0,0,0-.72,3.22,5,5,0,0,0,.4,2.09,4.57,4.57,0,0,0,1.13,1.51,5.9,5.9,0,0,0,1.66,1,13.21,13.21,0,0,0,2,.62l8.35,2.07a24.22,24.22,0,0,1,3.43,1.17,11.46,11.46,0,0,1,2.84,1.73,7.48,7.48,0,0,1,1.92,2.52,8.5,8.5,0,0,1,.69,3.6,13.14,13.14,0,0,1-.12,1.54,7.87,7.87,0,0,1-.57,2,10.52,10.52,0,0,1-1.3,2.18,8.13,8.13,0,0,1-2.3,2,13.6,13.6,0,0,1-3.63,1.44,21.09,21.09,0,0,1-5.18.55,21.8,21.8,0,0,1-5.62-.69,12.1,12.1,0,0,1-4.41-2.14,9.33,9.33,0,0,1-2.81-3.69,12,12,0,0,1-.84-5.43H109A9.65,9.65,0,0,0,109.81,327.41Z"/><path class="cls-9" d="M147,309.5v2.55h-5v16.7a5.47,5.47,0,0,0,.41,2.33c.27.56.95.87,2,.94a22.49,22.49,0,0,0,2.59-.15v2.55c-.45,0-.9,0-1.34,0s-.9.05-1.35.05c-2,0-3.42-.39-4.22-1.17s-1.19-2.24-1.15-4.35V312.05h-4.32V309.5h4.32v-7.44h3v7.44Z"/><path class="cls-9" d="M152,313.34a7.11,7.11,0,0,1,2.09-2.59,8.88,8.88,0,0,1,3.09-1.49,15.14,15.14,0,0,1,3.94-.48,17.07,17.07,0,0,1,3.26.32,7.81,7.81,0,0,1,2.93,1.17,6.47,6.47,0,0,1,2.12,2.43,8.78,8.78,0,0,1,.81,4.05V329.9a1.59,1.59,0,0,0,1.78,1.83,2.49,2.49,0,0,0,1-.19v2.54c-.36.06-.67.11-.94.14a7.52,7.52,0,0,1-1,0,4.54,4.54,0,0,1-1.85-.31,2.5,2.5,0,0,1-1.08-.89,3.25,3.25,0,0,1-.5-1.37,11.64,11.64,0,0,1-.12-1.75h-.1a20.38,20.38,0,0,1-1.66,2.14,8.39,8.39,0,0,1-1.87,1.56,9,9,0,0,1-2.35,1,13.1,13.1,0,0,1-3.14.33,12.4,12.4,0,0,1-3.24-.4,7.41,7.41,0,0,1-2.64-1.3,6,6,0,0,1-1.78-2.26,7.52,7.52,0,0,1-.65-3.24,6.44,6.44,0,0,1,1.15-4.05,7.24,7.24,0,0,1,3.05-2.23,16.79,16.79,0,0,1,4.27-1.08q2.38-.31,4.83-.6,1-.11,1.68-.24a3,3,0,0,0,1.2-.51,2.3,2.3,0,0,0,.74-1,4.17,4.17,0,0,0,.27-1.63,5.43,5.43,0,0,0-.51-2.52,3.9,3.9,0,0,0-1.39-1.56,5.62,5.62,0,0,0-2.06-.8,14.44,14.44,0,0,0-2.52-.21A7.61,7.61,0,0,0,156,312.7a5.38,5.38,0,0,0-1.92,4.39h-3A10,10,0,0,1,152,313.34Zm15.12,7.4a1.73,1.73,0,0,1-1.1.76,11.14,11.14,0,0,1-1.44.34q-1.92.33-4,.6a22.31,22.31,0,0,0-3.72.79,7.32,7.32,0,0,0-2.76,1.51,3.62,3.62,0,0,0-1.08,2.81,4.44,4.44,0,0,0,.45,2,5,5,0,0,0,1.23,1.54,5.27,5.27,0,0,0,1.77,1,6.33,6.33,0,0,0,2.07.34,10.48,10.48,0,0,0,3.31-.53,8,8,0,0,0,2.76-1.54,7.4,7.4,0,0,0,1.87-2.44,7.48,7.48,0,0,0,.7-3.27v-3.93Z"/><path class="cls-9" d="M179,309.5v5.81h.1a9.52,9.52,0,0,1,3.57-4.65,9.35,9.35,0,0,1,5.79-1.49v3a9.25,9.25,0,0,0-3.75.55,8.57,8.57,0,0,0-2.9,1.85,8.28,8.28,0,0,0-1.9,2.86,9.68,9.68,0,0,0-.67,3.62v13.2h-3V309.5Z"/><path class="cls-9" d="M201.2,309.5v2.55h-5v16.7a5.32,5.32,0,0,0,.41,2.33c.27.56,1,.87,2,.94a22.62,22.62,0,0,0,2.59-.15v2.55c-.45,0-.9,0-1.35,0s-.89.05-1.34.05c-2,0-3.43-.39-4.22-1.17s-1.19-2.24-1.16-4.35V312.05h-4.32V309.5h4.32v-7.44h3v7.44Z"/><path class="cls-9" d="M219.82,314.33a4.91,4.91,0,0,0-1.41-1.71,6.22,6.22,0,0,0-2-1,9.29,9.29,0,0,0-2.45-.31,10.17,10.17,0,0,0-2,.21,6.68,6.68,0,0,0-1.9.72,4.19,4.19,0,0,0-1.39,1.32,3.68,3.68,0,0,0-.53,2,2.85,2.85,0,0,0,.5,1.7,4.39,4.39,0,0,0,1.28,1.18,8.11,8.11,0,0,0,1.68.79q.9.32,1.68.51l4,.91a12.09,12.09,0,0,1,2.57.69,8.49,8.49,0,0,1,2.25,1.32,6.54,6.54,0,0,1,1.61,2,6,6,0,0,1,.63,2.83,6.16,6.16,0,0,1-.92,3.43,7.34,7.34,0,0,1-2.33,2.31,9.92,9.92,0,0,1-3.19,1.27,16.23,16.23,0,0,1-3.5.38,11.36,11.36,0,0,1-7.08-2.06c-1.81-1.38-2.84-3.58-3.1-6.62h3a6,6,0,0,0,2.23,4.63,8.09,8.09,0,0,0,5.06,1.56,11.33,11.33,0,0,0,2.28-.24,7.13,7.13,0,0,0,2.19-.82,5.17,5.17,0,0,0,1.65-1.46,3.62,3.62,0,0,0,.65-2.19,3.48,3.48,0,0,0-.45-1.84,4,4,0,0,0-1.23-1.25,7.47,7.47,0,0,0-1.75-.84,20.47,20.47,0,0,0-2-.58l-3.89-.86a22,22,0,0,1-2.74-.89,8.69,8.69,0,0,1-2.18-1.25,5.33,5.33,0,0,1-1.47-1.82,6.08,6.08,0,0,1-.52-2.67,5.93,5.93,0,0,1,.84-3.21,6.52,6.52,0,0,1,2.18-2.16,9.93,9.93,0,0,1,3-1.2,14.35,14.35,0,0,1,3.29-.39,12.1,12.1,0,0,1,3.48.48,8,8,0,0,1,2.83,1.49,7.27,7.27,0,0,1,1.94,2.5,8.88,8.88,0,0,1,.82,3.5h-3A5.83,5.83,0,0,0,219.82,314.33Z"/><path class="cls-9" d="M231.72,300v4.85h-3V300Zm0,9.5v24.77h-3V309.5Z"/><path class="cls-9" d="M256.54,334.27v-4.7h-.1a7.27,7.27,0,0,1-1.41,2.21,9.27,9.27,0,0,1-2.14,1.7,11.26,11.26,0,0,1-2.57,1.08,9.79,9.79,0,0,1-2.71.38,11,11,0,0,1-4.92-1,9.91,9.91,0,0,1-3.48-2.83,12.11,12.11,0,0,1-2.06-4.18,19.1,19.1,0,0,1,0-10,12.15,12.15,0,0,1,2.06-4.17,10.1,10.1,0,0,1,3.48-2.86,10.81,10.81,0,0,1,4.92-1.06,11.12,11.12,0,0,1,2.71.34,9.16,9.16,0,0,1,2.48,1,9,9,0,0,1,2,1.71,7.11,7.11,0,0,1,1.36,2.35h.1V300h3v34.27ZM240,325.7a10.33,10.33,0,0,0,1.44,3.39,7.78,7.78,0,0,0,2.52,2.42,6.89,6.89,0,0,0,3.69.94,7.79,7.79,0,0,0,6.75-3.36,10,10,0,0,0,1.48-3.39,16,16,0,0,0,0-7.63,10,10,0,0,0-1.48-3.38,7.73,7.73,0,0,0-6.75-3.36,7,7,0,0,0-3.69.93,7.91,7.91,0,0,0-2.52,2.43,10.37,10.37,0,0,0-1.44,3.38,16,16,0,0,0,0,7.63Z"/><path class="cls-9" d="M267.32,326.09a9.23,9.23,0,0,0,1.46,3.14,8.41,8.41,0,0,0,2.54,2.31,7.22,7.22,0,0,0,3.7.91,7.33,7.33,0,0,0,5.18-1.73,9.08,9.08,0,0,0,2.6-4.61h3a12.1,12.1,0,0,1-3.53,6.53c-1.71,1.54-4.13,2.3-7.27,2.3a11.48,11.48,0,0,1-5.06-1,9.24,9.24,0,0,1-3.48-2.83,12.37,12.37,0,0,1-2-4.18,19,19,0,0,1-.64-5,18.09,18.09,0,0,1,.64-4.8,13,13,0,0,1,2-4.2,9.91,9.91,0,0,1,3.48-3,10.7,10.7,0,0,1,5.06-1.13,9.77,9.77,0,0,1,8.52,4.35,13.08,13.08,0,0,1,1.9,4.46,20,20,0,0,1,.48,5.11H266.86A13.21,13.21,0,0,0,267.32,326.09Zm15-9.24a9.16,9.16,0,0,0-1.56-2.81,7.72,7.72,0,0,0-2.45-2,7.05,7.05,0,0,0-3.26-.74,7.17,7.17,0,0,0-3.31.74,7.72,7.72,0,0,0-2.45,2,9.93,9.93,0,0,0-1.61,2.83,14,14,0,0,0-.79,3.29h16A10.77,10.77,0,0,0,282.29,316.85Z"/><path class="cls-11" d="M411.33,300.41a7.26,7.26,0,0,0,2.38,2.83,9.86,9.86,0,0,0,3.57,1.51,20.12,20.12,0,0,0,4.42.46,12.25,12.25,0,0,0,2.92-.39,10,10,0,0,0,3-1.22,7.58,7.58,0,0,0,2.28-2.16,5.52,5.52,0,0,0,.91-3.19,4.73,4.73,0,0,0-.65-2.5,5.9,5.9,0,0,0-1.68-1.77,9.84,9.84,0,0,0-2.28-1.18,22.61,22.61,0,0,0-2.45-.74l-7.63-1.88a21,21,0,0,1-2.9-1,8,8,0,0,1-2.47-1.53,7.27,7.27,0,0,1-1.71-2.35,8.1,8.1,0,0,1-.65-3.41,10.9,10.9,0,0,1,.48-2.93,8.13,8.13,0,0,1,1.8-3.17,10.53,10.53,0,0,1,3.63-2.52,14.45,14.45,0,0,1,5.9-1A17.17,17.17,0,0,1,425,273a11.84,11.84,0,0,1,4,2,9.67,9.67,0,0,1,3.79,8h-3.26a8,8,0,0,0-.89-3.44,7.75,7.75,0,0,0-2.06-2.44,8.91,8.91,0,0,0-2.93-1.49,11.77,11.77,0,0,0-3.48-.51,14.36,14.36,0,0,0-3.24.36,8.16,8.16,0,0,0-2.74,1.16,5.93,5.93,0,0,0-1.89,2.08,6.58,6.58,0,0,0-.72,3.22A4.84,4.84,0,0,0,412,284a4.42,4.42,0,0,0,1.12,1.51,6,6,0,0,0,1.66,1,13.21,13.21,0,0,0,2,.62l8.35,2.07a24.8,24.8,0,0,1,3.44,1.17,11.58,11.58,0,0,1,2.83,1.73,7.48,7.48,0,0,1,1.92,2.52,8.5,8.5,0,0,1,.69,3.6,13.14,13.14,0,0,1-.12,1.54,7.87,7.87,0,0,1-.57,2A10.52,10.52,0,0,1,432,304a8.13,8.13,0,0,1-2.3,2,13.6,13.6,0,0,1-3.63,1.44,21,21,0,0,1-5.18.55,21.8,21.8,0,0,1-5.62-.69,12.18,12.18,0,0,1-4.41-2.14,9.42,9.42,0,0,1-2.81-3.69,12,12,0,0,1-.84-5.43h3.26A9.65,9.65,0,0,0,411.33,300.41Z"/><path class="cls-11" d="M454.12,282.84a10.86,10.86,0,0,1,3.67,2.83,12.35,12.35,0,0,1,2.26,4.15,17,17,0,0,1,0,10.13,12.16,12.16,0,0,1-2.26,4.15,10.56,10.56,0,0,1-3.67,2.81,12.72,12.72,0,0,1-10,0,10.56,10.56,0,0,1-3.67-2.81,12,12,0,0,1-2.26-4.15,17,17,0,0,1,0-10.13,12.18,12.18,0,0,1,2.26-4.15,10.86,10.86,0,0,1,3.67-2.83,12.39,12.39,0,0,1,10,0Zm-8.81,2.4a8.34,8.34,0,0,0-2.71,2.4A10.93,10.93,0,0,0,441,291a13.86,13.86,0,0,0,0,7.73,11,11,0,0,0,1.63,3.39,8.34,8.34,0,0,0,2.71,2.4,8.37,8.37,0,0,0,7.59,0,8.45,8.45,0,0,0,2.71-2.4,11,11,0,0,0,1.63-3.39,13.86,13.86,0,0,0,0-7.73,10.93,10.93,0,0,0-1.63-3.38,8.45,8.45,0,0,0-2.71-2.4,8.37,8.37,0,0,0-7.59,0Z"/><path class="cls-11" d="M470,285.05v22.22h-3V285.05h-4.22V282.5H467v-2.25a16.71,16.71,0,0,1,.24-2.93,5.79,5.79,0,0,1,.91-2.3,4.42,4.42,0,0,1,1.85-1.49,7.43,7.43,0,0,1,3-.53c.45,0,.87,0,1.25.05s.82.08,1.29.14v2.59c-.41-.06-.79-.12-1.15-.16a7.42,7.42,0,0,0-1.05-.08,3.85,3.85,0,0,0-1.92.39,2.34,2.34,0,0,0-1,1,3.9,3.9,0,0,0-.36,1.51c0,.58,0,1.2,0,1.87v2.16h4.89v2.55Z"/><path class="cls-11" d="M480.83,273v4.85h-3V273Zm0,9.5v24.77h-3V282.5Z"/><path class="cls-11" d="M488.87,299.09a9.44,9.44,0,0,0,1.47,3.14,8.41,8.41,0,0,0,2.54,2.31,7.2,7.2,0,0,0,3.7.91,7.35,7.35,0,0,0,5.18-1.73,9.07,9.07,0,0,0,2.59-4.61h3a12.1,12.1,0,0,1-3.53,6.53c-1.71,1.54-4.14,2.3-7.27,2.3a11.53,11.53,0,0,1-5.07-1,9.4,9.4,0,0,1-3.48-2.83,12.36,12.36,0,0,1-2-4.18,19,19,0,0,1-.65-5,18.1,18.1,0,0,1,.65-4.8,12.93,12.93,0,0,1,2-4.2,10.09,10.09,0,0,1,3.48-3,10.75,10.75,0,0,1,5.07-1.13,9.77,9.77,0,0,1,8.52,4.35,12.88,12.88,0,0,1,1.89,4.46,19.1,19.1,0,0,1,.48,5.11H488.42A13.63,13.63,0,0,0,488.87,299.09Zm15-9.24a9.16,9.16,0,0,0-1.56-2.81,7.72,7.72,0,0,0-2.45-2,7.08,7.08,0,0,0-3.26-.74,7.22,7.22,0,0,0-3.32.74,7.68,7.68,0,0,0-2.44,2,9.69,9.69,0,0,0-1.61,2.83,13.49,13.49,0,0,0-.79,3.29h16A10.77,10.77,0,0,0,503.85,289.85Z"/><path class="cls-11" d="M542.56,273v24.72a17.42,17.42,0,0,1-.53,4.56,6.85,6.85,0,0,1-4.77,5,15.38,15.38,0,0,1-4.68.62,10.31,10.31,0,0,1-4.8-1,7.71,7.71,0,0,1-2.93-2.59,9.71,9.71,0,0,1-1.44-3.72,24.08,24.08,0,0,1-.39-4.37h3.27c0,.74.08,1.62.14,2.64a9.4,9.4,0,0,0,.67,2.93,5.62,5.62,0,0,0,1.9,2.37,6.37,6.37,0,0,0,3.86,1,8.45,8.45,0,0,0,3.17-.51,4.16,4.16,0,0,0,2-1.58,7.07,7.07,0,0,0,1-2.76,24.42,24.42,0,0,0,.29-4V273Z"/><path class="cls-11" d="M551.13,299.09a9.23,9.23,0,0,0,1.46,3.14,8.33,8.33,0,0,0,2.55,2.31,7.16,7.16,0,0,0,3.69.91,7.38,7.38,0,0,0,5.19-1.73,9.14,9.14,0,0,0,2.59-4.61h3a12,12,0,0,1-3.53,6.53c-1.71,1.54-4.13,2.3-7.27,2.3a11.48,11.48,0,0,1-5.06-1,9.24,9.24,0,0,1-3.48-2.83,12.17,12.17,0,0,1-2-4.18,18.59,18.59,0,0,1-.65-5,17.69,17.69,0,0,1,.65-4.8,12.73,12.73,0,0,1,2-4.2,9.91,9.91,0,0,1,3.48-3,10.7,10.7,0,0,1,5.06-1.13,9.77,9.77,0,0,1,8.52,4.35,13.08,13.08,0,0,1,1.9,4.46,20,20,0,0,1,.48,5.11H550.67A13.21,13.21,0,0,0,551.13,299.09Zm15-9.24a8.76,8.76,0,0,0-1.56-2.81,7.68,7.68,0,0,0-2.44-2,7.09,7.09,0,0,0-3.27-.74,7.17,7.17,0,0,0-3.31.74,7.72,7.72,0,0,0-2.45,2,9.93,9.93,0,0,0-1.61,2.83,14,14,0,0,0-.79,3.29h16A11.08,11.08,0,0,0,566.1,289.85Z"/><path class="cls-11" d="M576.79,282.5v4.28h.09a7.26,7.26,0,0,1,3.07-3.63,9,9,0,0,1,4.85-1.37,12.09,12.09,0,0,1,4.34.68,6.81,6.81,0,0,1,2.81,1.89,7.07,7.07,0,0,1,1.49,3,16.83,16.83,0,0,1,.43,4v15.93h-3V291.82a14.57,14.57,0,0,0-.29-3,6.19,6.19,0,0,0-1-2.37,5,5,0,0,0-1.94-1.59,7.22,7.22,0,0,0-3.05-.57,7.56,7.56,0,0,0-3.24.65,7.07,7.07,0,0,0-2.4,1.77,8.16,8.16,0,0,0-1.54,2.69,11.14,11.14,0,0,0-.59,3.38v14.45h-3V282.5Z"/><path class="cls-11" d="M613.84,287.33a4.83,4.83,0,0,0-1.42-1.71,6,6,0,0,0-2-1,9.16,9.16,0,0,0-2.44-.31,10.09,10.09,0,0,0-2,.21,6.68,6.68,0,0,0-1.9.72,4.09,4.09,0,0,0-1.39,1.32,3.68,3.68,0,0,0-.53,2,2.85,2.85,0,0,0,.5,1.7,4.39,4.39,0,0,0,1.28,1.18,8.11,8.11,0,0,0,1.68.79q.9.32,1.68.51l4,.91a12.09,12.09,0,0,1,2.57.69,8.49,8.49,0,0,1,2.25,1.32,6.54,6.54,0,0,1,1.61,2,6,6,0,0,1,.62,2.83,6.16,6.16,0,0,1-.91,3.43,7.34,7.34,0,0,1-2.33,2.31,9.92,9.92,0,0,1-3.19,1.27,16.23,16.23,0,0,1-3.5.38,11.36,11.36,0,0,1-7.08-2.06c-1.81-1.38-2.84-3.58-3.1-6.62h3a6,6,0,0,0,2.23,4.63,8.09,8.09,0,0,0,5.06,1.56,11.33,11.33,0,0,0,2.28-.24,7.22,7.22,0,0,0,2.19-.82,5.17,5.17,0,0,0,1.65-1.46,3.62,3.62,0,0,0,.65-2.19,3.4,3.4,0,0,0-.46-1.84,3.83,3.83,0,0,0-1.22-1.25,7.47,7.47,0,0,0-1.75-.84,20.47,20.47,0,0,0-2-.58l-3.89-.86a22,22,0,0,1-2.74-.89,8.69,8.69,0,0,1-2.18-1.25,5.21,5.21,0,0,1-1.47-1.82,6.08,6.08,0,0,1-.52-2.67,5.93,5.93,0,0,1,.84-3.21,6.43,6.43,0,0,1,2.18-2.16,9.93,9.93,0,0,1,3-1.2,14.28,14.28,0,0,1,3.29-.39,12.1,12.1,0,0,1,3.48.48,8.08,8.08,0,0,1,2.83,1.49,7.27,7.27,0,0,1,1.94,2.5,8.88,8.88,0,0,1,.82,3.5h-3A5.83,5.83,0,0,0,613.84,287.33Z"/><path class="cls-11" d="M624.9,299.09a9.44,9.44,0,0,0,1.47,3.14,8.41,8.41,0,0,0,2.54,2.31,7.2,7.2,0,0,0,3.7.91,7.35,7.35,0,0,0,5.18-1.73,9.07,9.07,0,0,0,2.59-4.61h3a12.1,12.1,0,0,1-3.53,6.53c-1.71,1.54-4.14,2.3-7.27,2.3a11.53,11.53,0,0,1-5.07-1,9.4,9.4,0,0,1-3.48-2.83,12.36,12.36,0,0,1-2-4.18,19,19,0,0,1-.65-5,18.1,18.1,0,0,1,.65-4.8,12.93,12.93,0,0,1,2-4.2,10.09,10.09,0,0,1,3.48-3,10.75,10.75,0,0,1,5.07-1.13,9.77,9.77,0,0,1,8.52,4.35,12.88,12.88,0,0,1,1.89,4.46,19.1,19.1,0,0,1,.48,5.11h-19A13.63,13.63,0,0,0,624.9,299.09Zm15-9.24a9.16,9.16,0,0,0-1.56-2.81,7.72,7.72,0,0,0-2.45-2,7.08,7.08,0,0,0-3.26-.74,7.22,7.22,0,0,0-3.32.74,7.68,7.68,0,0,0-2.44,2,9.69,9.69,0,0,0-1.61,2.83,13.49,13.49,0,0,0-.79,3.29h16A10.77,10.77,0,0,0,639.88,289.85Z"/><path class="cls-11" d="M650.56,282.5v4.28h.1a7.16,7.16,0,0,1,3.07-3.63,9,9,0,0,1,4.85-1.37,12.16,12.16,0,0,1,4.34.68,6.88,6.88,0,0,1,2.81,1.89,7.05,7.05,0,0,1,1.48,3,16.8,16.8,0,0,1,.44,4v15.93h-3V291.82a13.89,13.89,0,0,0-.29-3,6.18,6.18,0,0,0-1-2.37,5,5,0,0,0-2-1.59,7.19,7.19,0,0,0-3-.57,7.62,7.62,0,0,0-3.24.65,6.94,6.94,0,0,0-2.39,1.77,8.16,8.16,0,0,0-1.54,2.69,10.84,10.84,0,0,0-.6,3.38v14.45h-3V282.5Z"/><path class="cls-12" d="M486.47,328l10.64,27.13h-2.77L491,346.7H478.68l-3.26,8.43h-2.74L483.58,328Zm3.69,16.49-5.24-13.91-5.44,13.91Z"/><path class="cls-12" d="M501.52,328v17l10.87-9.5h3.19l-8.36,7.26,8.93,12.35h-3l-7.75-10.68-3.88,3.23v7.45h-2.39V328Z"/><path class="cls-12" d="M525.92,335.52v2h-4v13.22a4.19,4.19,0,0,0,.32,1.84c.21.45.75.7,1.61.75a17.79,17.79,0,0,0,2.06-.12v2c-.36,0-.71,0-1.07,0s-.71,0-1.06,0a4.76,4.76,0,0,1-3.35-.93c-.63-.62-.93-1.77-.91-3.44V337.54h-3.42v-2h3.42v-5.89h2.4v5.89Z"/><path class="cls-12" d="M531.81,328v3.84h-2.4V328Zm0,7.52v19.61h-2.4V335.52Z"/><path class="cls-12" d="M536.86,335.52,543,352.74h.07l6.08-17.22h2.47l-7.33,19.61h-2.55l-7.56-19.61Z"/><path class="cls-12" d="M566.92,335.52v3.39H567a5.68,5.68,0,0,1,2.43-2.87,7.06,7.06,0,0,1,3.84-1.09,9.49,9.49,0,0,1,3.43.54,5.36,5.36,0,0,1,2.23,1.5,5.63,5.63,0,0,1,1.18,2.37,13.85,13.85,0,0,1,.34,3.16v12.61h-2.4V342.9a11.48,11.48,0,0,0-.22-2.34,5.07,5.07,0,0,0-.8-1.88,4,4,0,0,0-1.54-1.26,5.73,5.73,0,0,0-2.41-.45,6.14,6.14,0,0,0-2.57.51,5.46,5.46,0,0,0-1.9,1.41,6.58,6.58,0,0,0-1.22,2.12,8.61,8.61,0,0,0-.47,2.68v11.44h-2.39V335.52Z"/><path class="cls-12" d="M598.65,355.13V351.6h-.08a6.79,6.79,0,0,1-2.75,3,7.84,7.84,0,0,1-4,1,8.74,8.74,0,0,1-3.17-.51,5.23,5.23,0,0,1-2.13-1.46,5.89,5.89,0,0,1-1.2-2.32,11.8,11.8,0,0,1-.38-3.12V335.52h2.39v12.77a6.44,6.44,0,0,0,1.24,4c.77.91,2.11,1.37,4,1.37a5,5,0,0,0,2.66-.67,5.66,5.66,0,0,0,1.82-1.76,8.11,8.11,0,0,0,1.07-2.53,12.86,12.86,0,0,0,.34-2.91v-10.3h2.39v19.61Z"/><rect class="cls-2" x="95.67" y="1617" width="10" height="57.72"/><rect class="cls-2" x="72.34" y="1640.77" width="56.66" height="10.19"/><path class="cls-9" d="M972.61,294H911.9a6.91,6.91,0,0,0-6.9,6.9v46.91a6.92,6.92,0,0,0,6.9,6.9h60.71a6.93,6.93,0,0,0,6.9-6.9V300.9A6.92,6.92,0,0,0,972.61,294Zm3.24,48.29a6.91,6.91,0,0,1-6.89,6.9H915.55a6.92,6.92,0,0,1-6.9-6.9V306.42a6.92,6.92,0,0,1,6.9-6.9H969a6.91,6.91,0,0,1,6.89,6.9Z"/><rect class="cls-13" x="535" y="1598.7" width="362" height="102.9" rx="26"/><rect class="cls-14" x="538.68" y="1602.37" width="354.65" height="95.55" rx="26"/><path class="cls-11" d="M581.13,1624.36l14.56,37.13h-3.8l-4.52-11.55h-16.9L566,1661.49h-3.75l14.93-37.13Zm5,22.57-7.17-19-7.44,19Z"/><path class="cls-11" d="M599.12,1638.81a7.61,7.61,0,0,1,2.26-2.8,9.55,9.55,0,0,1,3.36-1.62,16.57,16.57,0,0,1,4.26-.52,19.29,19.29,0,0,1,3.54.34,8.61,8.61,0,0,1,3.17,1.28,7,7,0,0,1,2.29,2.62,9.61,9.61,0,0,1,.88,4.4v14.24a1.72,1.72,0,0,0,1.92,2,2.48,2.48,0,0,0,1-.21v2.76c-.38.07-.72.12-1,.15a8.56,8.56,0,0,1-1.12.06,5,5,0,0,1-2-.34,2.79,2.79,0,0,1-1.17-1,3.64,3.64,0,0,1-.55-1.49,13.58,13.58,0,0,1-.13-1.89h-.1a24.09,24.09,0,0,1-1.79,2.31,9,9,0,0,1-2,1.69,9.41,9.41,0,0,1-2.55,1,14.1,14.1,0,0,1-3.41.36,13.29,13.29,0,0,1-3.51-.44,7.88,7.88,0,0,1-2.86-1.4,6.77,6.77,0,0,1-1.92-2.45,8.05,8.05,0,0,1-.7-3.51,6.89,6.89,0,0,1,1.25-4.39,7.86,7.86,0,0,1,3.3-2.42,19.24,19.24,0,0,1,4.63-1.17c1.71-.22,3.45-.44,5.22-.65a17.64,17.64,0,0,0,1.82-.26,3.08,3.08,0,0,0,1.3-.54,2.52,2.52,0,0,0,.81-1.07,4.62,4.62,0,0,0,.28-1.77,6,6,0,0,0-.54-2.73,4.41,4.41,0,0,0-1.51-1.69,6.27,6.27,0,0,0-2.24-.86,15.7,15.7,0,0,0-2.73-.23,8.24,8.24,0,0,0-5.09,1.48,5.81,5.81,0,0,0-2.08,4.76h-3.28A11.16,11.16,0,0,1,599.12,1638.81Zm16.38,8a1.88,1.88,0,0,1-1.2.83,11.42,11.42,0,0,1-1.56.37c-1.38.24-2.81.46-4.29.65a23.79,23.79,0,0,0-4,.86,7.88,7.88,0,0,0-3,1.63,3.93,3.93,0,0,0-1.17,3,4.77,4.77,0,0,0,.5,2.21,5.45,5.45,0,0,0,1.32,1.66,6,6,0,0,0,1.93,1.07,7.08,7.08,0,0,0,2.23.36,11.29,11.29,0,0,0,3.59-.57,8.73,8.73,0,0,0,3-1.67,8,8,0,0,0,2-2.65,8.06,8.06,0,0,0,.75-3.53v-4.27Z"/><rect class="cls-15" x="304.58" y="1619.92" width="69.93" height="69.93"/><rect class="cls-16" x="298.61" y="1605.03" width="78.38" height="85.97" rx="4.42"/><rect class="cls-2" x="301.14" y="1607.56" width="73.33" height="80.91" rx="4.42"/><polygon class="cls-16" points="311.73 1676 324.77 1650.75 337.8 1676 311.73 1676"/><polygon class="cls-16" points="348.48 1636.64 328.81 1675.27 368.14 1675.27 348.48 1636.64"/><circle class="cls-16" cx="313.63" cy="1622.42" r="5.75"/><rect class="cls-16" x="439.54" y="1609" width="31.68" height="53.12" rx="5.39"/><rect class="cls-16" x="434.56" y="1683.52" width="41.64" height="8.48"/><rect class="cls-16" x="449.49" y="1666.55" width="10.86" height="20.66"/><rect class="cls-16" x="424.15" y="1641.83" width="10.41" height="12.54"/><rect class="cls-16" x="474.84" y="1641.09" width="9.96" height="14.39"/><path class="cls-16" d="M441.35,1664l-1.59-1.52c.27-.07-.72-.68-2-1.43l-1.44-2.15-1.73-3.38v-1.11H424.15l.45,3.32.91,3,2.26,3.32,2.71,3.32,5.44,3.69,5,2.59,5.43,1.1h3.17v-8.11"/><polyline class="cls-16" points="471.89 1660.83 470.02 1662.13 468.27 1663.79 465.64 1664.96 461.49 1666.38 460.13 1666.38 460.16 1674.87 464.23 1674.49 467.85 1673.75 471.92 1671.9 475.98 1669.68 480.5 1665.24 483.65 1661.18 485 1656.75 484.99 1654.17 475.04 1654.18"/><rect class="cls-2" x="444" y="1613" width="23" height="44" rx="5"/><rect class="cls-17" x="172" y="1631.36" width="90" height="16.85" rx="4.5"/><rect class="cls-17" x="172" y="1666.93" width="90" height="16.85" rx="4.5"/><rect class="cls-17" x="174.04" y="1638.85" width="87.96" height="37.44"/><path class="cls-2" d="M217,1638.85c-12.43,0-22.5,9.22-22.5,20.59S204.57,1680,217,1680s22.5-9.22,22.5-20.6S229.43,1638.85,217,1638.85Zm0,35.57c-9,0-16.36-6.71-16.36-15s7.32-15,16.36-15,16.36,6.7,16.36,15S226,1674.42,217,1674.42Z"/><rect class="cls-17" x="196.54" y="1622" width="42.96" height="13.1" rx="3.5"/><rect class="cls-17" x="180.18" y="1625.74" width="8.18" height="3.74"/><path class="cls-9" d="M842,1617a34,34,0,1,0,34,34A34,34,0,0,0,842,1617Zm0,65.94A31.94,31.94,0,1,1,873.94,1651,31.94,31.94,0,0,1,842,1682.94Z"/><ellipse class="cls-9" cx="854.75" cy="1640.31" rx="4.25" ry="4.31"/><ellipse class="cls-9" cx="830.75" cy="1640.31" rx="4.25" ry="4.31"/><path class="cls-9" d="M824.37,1662.16c9,10.41,26.38,8,35.8-.47,1.44-1.3-.69-3.41-2.12-2.12-8.27,7.45-23.67,9.58-31.55.47-1.27-1.46-3.38.67-2.13,2.12Z"/><path class="cls-9" d="M814.2,278.2a95.31,95.31,0,0,1,8.9,10.94c2.77,4,5.29,9.21,2.89,13.42-.81,1.42-2.09,2.52-3,3.9-1.94,3.11-1.43,7.3.43,10.46s4.85,5.48,7.91,7.5c3.62,2.39,7.63,4.55,12,4.6,2.1,0,4.17-.44,6.26-.55a18.88,18.88,0,0,1,19.85,21,10.16,10.16,0,0,1-1.11,3.87c-1.41,2.54-4.22,4-7,4.88a30.55,30.55,0,0,1-14.8,1.36c-12-2.08-20.95-12.13-28.24-21.94-7.61-10.24-14.68-21-19.22-33-1.74-4.56-3.11-9.4-2.68-14.26s3-9.76,7.38-11.88a18.45,18.45,0,0,1,8.69-1.36"/><path class="cls-9" d="M989.14,332.87V317"/><path class="cls-18" d="M990.64,332.87V317a1.5,1.5,0,0,0-3,0v15.87a1.5,1.5,0,0,0,3,0Z"/><path class="cls-9" d="M989,334.17l8.45,2.06c6.17,1.51,12.42,3,17.55,5.25"/><path class="cls-18" d="M988.6,335.61c8.72,2.13,17.67,3.91,26,7.32,1.78.73,2.56-2.17.79-2.9-8.33-3.41-17.28-5.18-26-7.31-1.88-.46-2.68,2.43-.8,2.89Z"/><path class="cls-9" d="M1016.14,341.38l-.2-36.38"/><path class="cls-18" d="M1017.64,341.38l-.2-36.38a1.5,1.5,0,0,0-3,0l.2,36.38a1.5,1.5,0,0,0,3,0Z"/><path class="cls-9" d="M990.42,316.89a154.26,154.26,0,0,1,16.12-7.05c1.36-.48,2.74-.93,4-1.49A30.48,30.48,0,0,0,1016,305"/><path class="cls-18" d="M991.18,318.19c8.39-4.06,18-6.48,25.58-11.89,1.56-1.12.06-3.72-1.52-2.6-7.5,5.35-17.26,7.87-25.58,11.9-1.73.84-.22,3.43,1.52,2.59Z"/><rect class="cls-9" x="916" y="1636.21" width="26.65" height="54.79" rx="11.63"/><path class="cls-9" d="M1001.31,1686.57l-43.48.49c-4.32,0-7.91-2.86-8-6.47h0c-.06-3.6,3.43-6.59,7.76-6.64l43.47-.49c4.33,0,7.92,2.86,8,6.46h0C1009.12,1683.53,1005.63,1686.52,1001.31,1686.57Z"/><rect class="cls-9" x="949.64" y="1660.6" width="59.42" height="14.2" rx="6.93"/><rect class="cls-9" x="951.17" y="1649.68" width="59.42" height="13.11" rx="6.4"/><rect class="cls-9" x="953.58" y="1634.93" width="59.42" height="16.02" rx="7.82"/><rect class="cls-9" x="949.64" y="1639.12" width="15.07" height="47.87"/><path class="cls-9" d="M949.86,1638.57c1.25-1.32,3.18-3.3,5.68-5.64,1.48-1.38,1.52-1.36,5.9-5.28,9.39-8.41,2.49-2.51,7.21-6.91a13.67,13.67,0,0,0,2.4-2.92,6.34,6.34,0,0,0,.88-1.82c.44-1.67-.41-2.19-.22-3.82a5.27,5.27,0,0,1,1.75-3.28,7.67,7.67,0,0,1,3.71-1.63,8.25,8.25,0,0,1,4.15,0,6.71,6.71,0,0,1,3.06,1.82,7.66,7.66,0,0,1,2,4,25.43,25.43,0,0,1,.65,6.55,28.83,28.83,0,0,1-.65,6.19c-.27,1.23-.6,2.34-1.1,4-.42,1.43-.81,2.62-1.09,3.46"/><rect class="cls-9" x="949.86" y="1638.57" width="21.41" height="4.37"/><rect class="cls-9" x="972.58" y="1631.66" width="11.36" height="9.47"/><rect class="cls-9" x="951.17" y="1637.85" width="12.45" height="3.28"/><path class="cls-19" d="M132,601.14c0-7.86-4.3-14.32-9.81-15.09V586H76.52c-6,0-10.91,6.78-10.91,15.16"/><path class="cls-20" d="M98.63,522.68c-13.69,0-24.79,8.76-24.79,19.57V586h49.58V542.25C123.42,531.44,112.32,522.68,98.63,522.68Z"/><path class="cls-21" d="M105.46,589.8h.05l-.09-15.21-13.32.06.09,15.22h0c0,1.91,3,3.45,6.63,3.43S105.47,591.72,105.46,589.8Z"/><path class="cls-22" d="M75,543.89v13.68a23.58,23.58,0,0,0,47.16,0V543.89Z"/><ellipse class="cls-23" cx="88.81" cy="553.63" rx="2.92" ry="2.69"/><ellipse class="cls-23" cx="107.97" cy="553.63" rx="2.92" ry="2.69"/><path class="cls-2" d="M105.81,563.37c0,5.06-3.64,9.16-8.12,9.16s-8.12-4.1-8.12-9.16"/><ellipse class="cls-24" cx="83.68" cy="562.51" rx="2.97" ry="2.74"/><ellipse class="cls-24" cx="111.64" cy="562.51" rx="2.97" ry="2.74"/><path class="cls-25" d="M75.08,560.12c-3.71,0-6.72-2.59-6.72-5.79s3-5.8,6.72-5.8"/><path class="cls-25" d="M122.05,548.53c3.71,0,6.72,2.6,6.72,5.8s-3,5.79-6.72,5.79"/><rect class="cls-26" x="142" y="439" width="539" height="128" rx="16.5"/><path class="cls-11" d="M162.2,482.55a6.56,6.56,0,0,0,2.13,2.54,8.79,8.79,0,0,0,3.21,1.35,17.8,17.8,0,0,0,4,.41,11.09,11.09,0,0,0,2.62-.34,9.23,9.23,0,0,0,2.65-1.1,6.6,6.6,0,0,0,2-1.93,4.87,4.87,0,0,0,.82-2.86,4.27,4.27,0,0,0-.58-2.24,5.32,5.32,0,0,0-1.51-1.59,8.54,8.54,0,0,0-2-1.05,18.71,18.71,0,0,0-2.19-.67l-6.84-1.68a19.31,19.31,0,0,1-2.6-.86,7.34,7.34,0,0,1-2.22-1.37,6.52,6.52,0,0,1-1.52-2.11,7.15,7.15,0,0,1-.58-3.05,9.67,9.67,0,0,1,.43-2.63,7.18,7.18,0,0,1,1.61-2.83,9.42,9.42,0,0,1,3.25-2.26,12.9,12.9,0,0,1,5.29-.93,15.53,15.53,0,0,1,4.34.61,10.73,10.73,0,0,1,3.61,1.8,9,9,0,0,1,2.47,3,8.85,8.85,0,0,1,.93,4.15h-2.93a7,7,0,0,0-.79-3.07,6.94,6.94,0,0,0-1.85-2.2,8.3,8.3,0,0,0-2.62-1.33,10.7,10.7,0,0,0-3.12-.45,13.08,13.08,0,0,0-2.9.32,7.47,7.47,0,0,0-2.46,1,5.44,5.44,0,0,0-1.69,1.87,5.9,5.9,0,0,0-.65,2.88,4.41,4.41,0,0,0,.37,1.88,3.87,3.87,0,0,0,1,1.35,5.38,5.38,0,0,0,1.48.9,10.7,10.7,0,0,0,1.79.56l7.48,1.85a22.57,22.57,0,0,1,3.07,1.05,10.51,10.51,0,0,1,2.54,1.55,6.63,6.63,0,0,1,1.72,2.26,7.64,7.64,0,0,1,.62,3.22,10.12,10.12,0,0,1-.11,1.38,7,7,0,0,1-.51,1.83,8.93,8.93,0,0,1-1.16,2,7.24,7.24,0,0,1-2.07,1.79,11.89,11.89,0,0,1-3.24,1.29,19,19,0,0,1-4.65.49,19.2,19.2,0,0,1-5-.62,10.7,10.7,0,0,1-4-1.91,8.51,8.51,0,0,1-2.52-3.31,10.78,10.78,0,0,1-.75-4.86h2.92A8.69,8.69,0,0,0,162.2,482.55Z"/><path class="cls-11" d="M188.67,481.37a8.29,8.29,0,0,0,1.31,2.82,7.4,7.4,0,0,0,2.28,2.06,6.33,6.33,0,0,0,3.31.82,6.57,6.57,0,0,0,4.64-1.55,8.14,8.14,0,0,0,2.33-4.13h2.71a10.86,10.86,0,0,1-3.17,5.85,9.38,9.38,0,0,1-6.51,2.06,10.31,10.31,0,0,1-4.54-.92,8.34,8.34,0,0,1-3.11-2.54,10.91,10.91,0,0,1-1.79-3.74,17.32,17.32,0,0,1-.58-4.49,16.39,16.39,0,0,1,.58-4.3,11.52,11.52,0,0,1,1.79-3.77,9,9,0,0,1,3.11-2.66,9.65,9.65,0,0,1,4.54-1,9.15,9.15,0,0,1,4.56,1.07,9,9,0,0,1,3.07,2.82,11.52,11.52,0,0,1,1.7,4,17.16,17.16,0,0,1,.43,4.58H188.26A12.17,12.17,0,0,0,188.67,481.37Zm13.41-8.28a8,8,0,0,0-1.39-2.51,7.12,7.12,0,0,0-2.19-1.77,6.92,6.92,0,0,0-5.9,0,7,7,0,0,0-2.19,1.77,8.82,8.82,0,0,0-1.44,2.53,12.69,12.69,0,0,0-.71,2.95h14.36A9.57,9.57,0,0,0,202.08,473.09Z"/><path class="cls-11" d="M211.65,466.51v3.83h.09a6.47,6.47,0,0,1,2.75-3.25,8.15,8.15,0,0,1,4.34-1.22,10.93,10.93,0,0,1,3.89.6,6.14,6.14,0,0,1,2.52,1.7,6.25,6.25,0,0,1,1.33,2.69,15,15,0,0,1,.39,3.57V488.7h-2.71V474.86a12.34,12.34,0,0,0-.26-2.65,5.54,5.54,0,0,0-.9-2.13,4.45,4.45,0,0,0-1.74-1.42,6.46,6.46,0,0,0-2.73-.51,6.83,6.83,0,0,0-2.9.58,6.25,6.25,0,0,0-2.15,1.59,7.31,7.31,0,0,0-1.38,2.41,9.82,9.82,0,0,0-.54,3V488.7h-2.71V466.51Z"/><path class="cls-11" d="M249.11,488.7v-4.21H249a6.61,6.61,0,0,1-1.27,2,8.25,8.25,0,0,1-1.91,1.52,9.93,9.93,0,0,1-2.3,1,9,9,0,0,1-2.43.34,9.81,9.81,0,0,1-4.41-.92,8.79,8.79,0,0,1-3.12-2.54,10.83,10.83,0,0,1-1.85-3.74,17.14,17.14,0,0,1,0-9,11,11,0,0,1,1.85-3.74,9.18,9.18,0,0,1,3.12-2.56,9.68,9.68,0,0,1,4.41-.94,9.86,9.86,0,0,1,2.43.3,8.4,8.4,0,0,1,2.21.92,7.92,7.92,0,0,1,1.83,1.53,6.31,6.31,0,0,1,1.22,2.11h.09V458h2.71v30.7ZM234.25,481a9.37,9.37,0,0,0,1.29,3,7.1,7.1,0,0,0,2.26,2.17,6.21,6.21,0,0,0,3.31.84,7,7,0,0,0,6-3,9,9,0,0,0,1.33-3,14.47,14.47,0,0,0,0-6.84,9,9,0,0,0-1.33-3,7.1,7.1,0,0,0-2.41-2.17,7.27,7.27,0,0,0-3.63-.84,6.21,6.21,0,0,0-3.31.84,7,7,0,0,0-2.26,2.17,9.37,9.37,0,0,0-1.29,3,14.47,14.47,0,0,0,0,6.84Z"/><path class="cls-11" d="M271.42,458v12.73h.09a6.31,6.31,0,0,1,1.22-2.11,7.92,7.92,0,0,1,1.83-1.53,8.19,8.19,0,0,1,2.24-.92,9.88,9.88,0,0,1,2.41-.3,9.61,9.61,0,0,1,4.4.94,9.18,9.18,0,0,1,3.12,2.56,11,11,0,0,1,1.85,3.74,17.14,17.14,0,0,1,0,9,10.83,10.83,0,0,1-1.85,3.74,8.79,8.79,0,0,1-3.12,2.54,9.74,9.74,0,0,1-4.4.92,9.4,9.4,0,0,1-4.84-1.24,7.14,7.14,0,0,1-3.08-3.57h-.08v4.21h-2.5V458Zm14.64,16.19a9.37,9.37,0,0,0-1.29-3,7,7,0,0,0-2.25-2.17,6.24,6.24,0,0,0-3.31-.84,7.29,7.29,0,0,0-3.64.84,7.1,7.1,0,0,0-2.41,2.17,9,9,0,0,0-1.33,3,14.47,14.47,0,0,0,0,6.84,9,9,0,0,0,1.33,3,7.2,7.2,0,0,0,2.41,2.17,7.29,7.29,0,0,0,3.64.84,6.24,6.24,0,0,0,3.31-.84,7.07,7.07,0,0,0,2.25-2.17,9.37,9.37,0,0,0,1.29-3,14.47,14.47,0,0,0,0-6.84Z"/><path class="cls-11" d="M296.15,458v4.34h-2.71V458Zm0,8.51V488.7h-2.71V466.51Z"/><path class="cls-11" d="M304.1,458v30.7h-2.71V458Z"/><path class="cls-11" d="M312.06,458v30.7h-2.71V458Z"/><path class="cls-11" d="M319.26,481.37a8.29,8.29,0,0,0,1.31,2.82,7.4,7.4,0,0,0,2.28,2.06,6.33,6.33,0,0,0,3.31.82,6.57,6.57,0,0,0,4.64-1.55,8.14,8.14,0,0,0,2.33-4.13h2.71a10.86,10.86,0,0,1-3.17,5.85,9.38,9.38,0,0,1-6.51,2.06,10.31,10.31,0,0,1-4.54-.92,8.34,8.34,0,0,1-3.11-2.54,10.91,10.91,0,0,1-1.79-3.74,16.9,16.9,0,0,1-.58-4.49,16,16,0,0,1,.58-4.3,11.52,11.52,0,0,1,1.79-3.77,9,9,0,0,1,3.11-2.66,9.65,9.65,0,0,1,4.54-1,8.73,8.73,0,0,1,7.63,3.89,11.52,11.52,0,0,1,1.7,4,17.16,17.16,0,0,1,.43,4.58H318.85A12.17,12.17,0,0,0,319.26,481.37Zm13.41-8.28a8,8,0,0,0-1.39-2.51,7,7,0,0,0-2.2-1.77,6.31,6.31,0,0,0-2.92-.66,6.43,6.43,0,0,0-3,.66,7,7,0,0,0-2.19,1.77,8.82,8.82,0,0,0-1.44,2.53,12.2,12.2,0,0,0-.71,2.95h14.36A9.87,9.87,0,0,0,332.67,473.09Z"/><path class="cls-11" d="M356.6,488.7v-4.21h-.08a6.61,6.61,0,0,1-1.27,2,8.25,8.25,0,0,1-1.91,1.52,9.93,9.93,0,0,1-2.3,1,9,9,0,0,1-2.43.34,9.79,9.79,0,0,1-4.41-.92,8.79,8.79,0,0,1-3.12-2.54,10.83,10.83,0,0,1-1.85-3.74,17.14,17.14,0,0,1,0-9,11,11,0,0,1,1.85-3.74,9.18,9.18,0,0,1,3.12-2.56,9.65,9.65,0,0,1,4.41-.94,9.86,9.86,0,0,1,2.43.3,8.4,8.4,0,0,1,2.21.92,7.92,7.92,0,0,1,1.83,1.53,6.31,6.31,0,0,1,1.22,2.11h.09V458h2.71v30.7ZM341.75,481a9.37,9.37,0,0,0,1.29,3,7.07,7.07,0,0,0,2.25,2.17,6.27,6.27,0,0,0,3.32.84,7,7,0,0,0,6-3,9,9,0,0,0,1.33-3,14.47,14.47,0,0,0,0-6.84,9,9,0,0,0-1.33-3,7.1,7.1,0,0,0-2.41-2.17,7.27,7.27,0,0,0-3.63-.84,6.27,6.27,0,0,0-3.32.84,7,7,0,0,0-2.25,2.17,9.37,9.37,0,0,0-1.29,3,14.47,14.47,0,0,0,0,6.84Z"/><path class="cls-11" d="M366.26,481.37a8.29,8.29,0,0,0,1.31,2.82,7.4,7.4,0,0,0,2.28,2.06,6.3,6.3,0,0,0,3.31.82,6.59,6.59,0,0,0,4.64-1.55,8.12,8.12,0,0,0,2.32-4.13h2.71a10.79,10.79,0,0,1-3.16,5.85,9.38,9.38,0,0,1-6.51,2.06,10.31,10.31,0,0,1-4.54-.92,8.46,8.46,0,0,1-3.12-2.54,11.08,11.08,0,0,1-1.78-3.74,16.9,16.9,0,0,1-.58-4.49,16,16,0,0,1,.58-4.3,11.7,11.7,0,0,1,1.78-3.77,9.07,9.07,0,0,1,3.12-2.66,9.65,9.65,0,0,1,4.54-1,8.73,8.73,0,0,1,7.63,3.89,11.52,11.52,0,0,1,1.7,4,17.58,17.58,0,0,1,.43,4.58H365.85A11.72,11.72,0,0,0,366.26,481.37Zm13.41-8.28a8.18,8.18,0,0,0-1.39-2.51,7.16,7.16,0,0,0-2.2-1.77,6.31,6.31,0,0,0-2.92-.66,6.43,6.43,0,0,0-3,.66,7,7,0,0,0-2.19,1.77,8.82,8.82,0,0,0-1.44,2.53,12.2,12.2,0,0,0-.71,2.95h14.36A9.87,9.87,0,0,0,379.67,473.09Z"/><path class="cls-11" d="M395.39,466.51v2.28h-4.52v15a4.87,4.87,0,0,0,.37,2.08q.36.75,1.83.84a20,20,0,0,0,2.32-.13v2.28c-.4,0-.8,0-1.2,0s-.81.05-1.21.05c-1.81,0-3.07-.35-3.78-1.06s-1.06-2-1-3.89V468.79h-3.88v-2.28h3.88v-6.66h2.7v6.66Z"/><path class="cls-11" d="M411.81,470a6.4,6.4,0,0,1,1.88-2.32,7.92,7.92,0,0,1,2.77-1.33,13.31,13.31,0,0,1,3.52-.43,15.3,15.3,0,0,1,2.93.28,7,7,0,0,1,2.62,1.05,5.66,5.66,0,0,1,1.89,2.17,7.86,7.86,0,0,1,.73,3.64v11.78a1.42,1.42,0,0,0,1.6,1.63,2,2,0,0,0,.86-.17v2.28c-.32.06-.6.1-.84.13a8.15,8.15,0,0,1-.93,0,4,4,0,0,1-1.65-.28,2.18,2.18,0,0,1-1-.79,3,3,0,0,1-.45-1.23,10.64,10.64,0,0,1-.11-1.57h-.08a18.57,18.57,0,0,1-1.49,1.92,7.38,7.38,0,0,1-3.78,2.25,11.61,11.61,0,0,1-2.82.3,11.24,11.24,0,0,1-2.9-.36,6.73,6.73,0,0,1-2.37-1.16,5.68,5.68,0,0,1-1.59-2,6.86,6.86,0,0,1-.58-2.91,5.78,5.78,0,0,1,1-3.63,6.57,6.57,0,0,1,2.73-2,15.78,15.78,0,0,1,3.83-1l4.32-.53a15.06,15.06,0,0,0,1.51-.22,2.68,2.68,0,0,0,1.07-.45,2.13,2.13,0,0,0,.67-.88,3.74,3.74,0,0,0,.24-1.46,5,5,0,0,0-.46-2.26,3.51,3.51,0,0,0-1.24-1.4,5.14,5.14,0,0,0-1.85-.71,12.45,12.45,0,0,0-2.26-.19,6.87,6.87,0,0,0-4.21,1.22,4.79,4.79,0,0,0-1.72,3.94H411A9.12,9.12,0,0,1,411.81,470Zm13.55,6.63a1.54,1.54,0,0,1-1,.68,8.29,8.29,0,0,1-1.29.3c-1.15.21-2.33.38-3.55.54a20.07,20.07,0,0,0-3.33.71,6.52,6.52,0,0,0-2.47,1.36,3.19,3.19,0,0,0-1,2.51,4,4,0,0,0,.41,1.83,4.45,4.45,0,0,0,1.1,1.38,4.73,4.73,0,0,0,1.59.88,5.83,5.83,0,0,0,1.85.3,9.14,9.14,0,0,0,3-.48,7.3,7.3,0,0,0,2.48-1.37,6.59,6.59,0,0,0,2.3-5.12v-3.52Z"/><path class="cls-11" d="M437.74,468.79V488.7H435V468.79h-3.78v-2.28H435v-2a15.25,15.25,0,0,1,.22-2.62,4.93,4.93,0,0,1,.82-2.06,3.92,3.92,0,0,1,1.65-1.34,6.69,6.69,0,0,1,2.69-.47c.4,0,.77,0,1.12,0s.73.07,1.16.13v2.32l-1-.15a7.57,7.57,0,0,0-1-.06,3.49,3.49,0,0,0-1.72.34,2.08,2.08,0,0,0-.88.93,3.31,3.31,0,0,0-.32,1.35c0,.52-.05,1.08-.05,1.68v1.93h4.39v2.28Z"/><path class="cls-11" d="M472.49,458v22.14a15.36,15.36,0,0,1-.48,4.09,6.58,6.58,0,0,1-1.52,2.84,6.49,6.49,0,0,1-2.75,1.67,13.39,13.39,0,0,1-4.2.56,9.18,9.18,0,0,1-4.3-.88,6.89,6.89,0,0,1-2.62-2.32,8.91,8.91,0,0,1-1.29-3.33,21.82,21.82,0,0,1-.34-3.92h2.92c0,.66.07,1.45.13,2.37a8.27,8.27,0,0,0,.6,2.62,5.11,5.11,0,0,0,1.7,2.13,5.72,5.72,0,0,0,3.46.88,7.68,7.68,0,0,0,2.84-.45A3.74,3.74,0,0,0,468.4,485a6.31,6.31,0,0,0,.9-2.47,20.87,20.87,0,0,0,.26-3.61V458Z"/><path class="cls-11" d="M492,466.81a10,10,0,0,1,3.29,2.54,11,11,0,0,1,2,3.72,15.25,15.25,0,0,1,0,9.07,11,11,0,0,1-2,3.72,9.67,9.67,0,0,1-3.29,2.52,11.44,11.44,0,0,1-9,0,9.67,9.67,0,0,1-3.29-2.52,11.14,11.14,0,0,1-2-3.72,15.25,15.25,0,0,1,0-9.07,11.14,11.14,0,0,1,2-3.72,10,10,0,0,1,3.29-2.54,11.22,11.22,0,0,1,9,0ZM484.14,469a7.73,7.73,0,0,0-2.43,2.15,9.85,9.85,0,0,0-1.46,3,12.22,12.22,0,0,0,0,6.92,9.9,9.9,0,0,0,1.46,3,7.49,7.49,0,0,0,2.43,2.15,7.44,7.44,0,0,0,6.79,0,7.29,7.29,0,0,0,2.43-2.15,9.7,9.7,0,0,0,1.47-3,12.46,12.46,0,0,0,0-6.92,9.65,9.65,0,0,0-1.47-3,7.52,7.52,0,0,0-2.43-2.15,7.52,7.52,0,0,0-6.79,0Z"/><path class="cls-11" d="M502.63,470a6.38,6.38,0,0,1,1.87-2.32,8,8,0,0,1,2.77-1.33,13.39,13.39,0,0,1,3.53-.43,15.2,15.2,0,0,1,2.92.28,7.09,7.09,0,0,1,2.63,1.05,5.83,5.83,0,0,1,1.89,2.17A7.86,7.86,0,0,1,519,473v11.78a1.42,1.42,0,0,0,1.59,1.63,2,2,0,0,0,.86-.17v2.28c-.31.06-.59.1-.84.13a7.86,7.86,0,0,1-.92,0,4.07,4.07,0,0,1-1.66-.28,2.15,2.15,0,0,1-1-.79,3.18,3.18,0,0,1-.46-1.23,10.72,10.72,0,0,1-.1-1.57h-.09a18.54,18.54,0,0,1-1.48,1.92,7.41,7.41,0,0,1-1.68,1.39,7.53,7.53,0,0,1-2.11.86,11.52,11.52,0,0,1-2.81.3,11.32,11.32,0,0,1-2.91-.36,6.6,6.6,0,0,1-2.36-1.16,5.57,5.57,0,0,1-1.59-2,6.72,6.72,0,0,1-.58-2.91,5.72,5.72,0,0,1,1-3.63,6.57,6.57,0,0,1,2.73-2,15.67,15.67,0,0,1,3.83-1l4.32-.53c.57-.06,1.07-.13,1.5-.22a2.8,2.8,0,0,0,1.08-.45,2.11,2.11,0,0,0,.66-.88,3.74,3.74,0,0,0,.24-1.46,5,5,0,0,0-.45-2.26,3.54,3.54,0,0,0-1.25-1.4,5.07,5.07,0,0,0-1.85-.71,12.33,12.33,0,0,0-2.25-.19,6.9,6.9,0,0,0-4.22,1.22,4.82,4.82,0,0,0-1.72,3.94h-2.71A9.12,9.12,0,0,1,502.63,470Zm13.54,6.63a1.54,1.54,0,0,1-1,.68,8.29,8.29,0,0,1-1.29.3c-1.15.21-2.33.38-3.55.54a20.07,20.07,0,0,0-3.33.71,6.57,6.57,0,0,0-2.48,1.36,3.22,3.22,0,0,0-1,2.51,4,4,0,0,0,.4,1.83,4.6,4.6,0,0,0,1.1,1.38,4.93,4.93,0,0,0,1.59.88,5.83,5.83,0,0,0,1.85.3,9.24,9.24,0,0,0,3-.48,7.25,7.25,0,0,0,2.47-1.37,6.51,6.51,0,0,0,2.3-5.12v-3.52Z"/><path class="cls-11" d="M538,469.57a5.9,5.9,0,0,0-4.22-1.42,6.92,6.92,0,0,0-3.4.81,7.58,7.58,0,0,0-2.42,2.15,9.65,9.65,0,0,0-1.47,3,12.46,12.46,0,0,0,0,6.92,9.7,9.7,0,0,0,1.47,3,7.35,7.35,0,0,0,2.42,2.15,6.82,6.82,0,0,0,3.4.82,6,6,0,0,0,2.37-.48,6.23,6.23,0,0,0,2-1.31,6.77,6.77,0,0,0,1.42-2,7.09,7.09,0,0,0,.69-2.53h2.71a10.23,10.23,0,0,1-3,6.3,8.7,8.7,0,0,1-6.19,2.25,10.32,10.32,0,0,1-4.49-.92,9.58,9.58,0,0,1-3.29-2.52,11,11,0,0,1-2-3.72,15.25,15.25,0,0,1,0-9.07,11,11,0,0,1,2-3.72,9.88,9.88,0,0,1,3.29-2.54,10.18,10.18,0,0,1,4.49-.94,9.65,9.65,0,0,1,6,1.89,8.09,8.09,0,0,1,3,5.72H540A7.43,7.43,0,0,0,538,469.57Z"/><path class="cls-11" d="M549.37,458v12.34h.09a6.47,6.47,0,0,1,2.75-3.25,8.13,8.13,0,0,1,4.34-1.22,10.93,10.93,0,0,1,3.89.6,6.14,6.14,0,0,1,2.52,1.7,6.36,6.36,0,0,1,1.33,2.69,15,15,0,0,1,.39,3.57V488.7H562V474.86a13,13,0,0,0-.26-2.65,5.54,5.54,0,0,0-.9-2.13,4.45,4.45,0,0,0-1.74-1.42,6.49,6.49,0,0,0-2.73-.51,6.9,6.9,0,0,0-2.91.58,6.45,6.45,0,0,0-2.15,1.59,7.47,7.47,0,0,0-1.37,2.41,9.82,9.82,0,0,0-.54,3V488.7h-2.71V458Z"/><path class="cls-11" d="M572.55,458v4.34h-2.71V458Zm0,8.51V488.7h-2.71V466.51Z"/><path class="cls-11" d="M580.24,466.51v3.74h.13a8.54,8.54,0,0,1,2.82-3.22,7.89,7.89,0,0,1,4.45-1.16,7.63,7.63,0,0,1,4,1.07,5.27,5.27,0,0,1,2.38,3.27,6.85,6.85,0,0,1,2.93-3.27,8.42,8.42,0,0,1,4.13-1.07q7.35,0,7.35,7.78V488.7H605.7V473.78a6.58,6.58,0,0,0-1.16-4.19c-.78-1-2.14-1.44-4.09-1.44a5.84,5.84,0,0,0-2.92.66,5.2,5.2,0,0,0-1.85,1.79,7.62,7.62,0,0,0-1,2.56,16.13,16.13,0,0,0-.28,3V488.7h-2.71V473.65a9.27,9.27,0,0,0-.23-2.13,5,5,0,0,0-.78-1.76,3.51,3.51,0,0,0-1.44-1.18,5,5,0,0,0-2.19-.43,6.79,6.79,0,0,0-3,.62,5.58,5.58,0,0,0-2.06,1.72,7.46,7.46,0,0,0-1.18,2.58,12.76,12.76,0,0,0-.39,3.25V488.7h-2.71V466.51Z"/><path class="cls-11" d="M162.25,518.11v3.83h.08a6.52,6.52,0,0,1,2.75-3.25,8.16,8.16,0,0,1,4.35-1.22,11,11,0,0,1,3.89.6,6.17,6.17,0,0,1,2.51,1.7,6.38,6.38,0,0,1,1.34,2.69,15.58,15.58,0,0,1,.38,3.57V540.3h-2.71V526.46a13,13,0,0,0-.25-2.65,5.55,5.55,0,0,0-.91-2.13,4.45,4.45,0,0,0-1.74-1.42,6.46,6.46,0,0,0-2.73-.51,6.83,6.83,0,0,0-2.9.58,6.35,6.35,0,0,0-2.15,1.59,7.31,7.31,0,0,0-1.38,2.41,9.53,9.53,0,0,0-.53,3V540.3h-2.71V518.11Z"/><path class="cls-11" d="M198.15,540.3v-4h-.09a7.66,7.66,0,0,1-3.11,3.42,8.91,8.91,0,0,1-4.54,1.18,9.82,9.82,0,0,1-3.59-.58,6,6,0,0,1-2.41-1.65,6.7,6.7,0,0,1-1.35-2.63,13,13,0,0,1-.43-3.52V518.11h2.71v14.45a7.2,7.2,0,0,0,1.39,4.56q1.32,1.54,4.54,1.55a5.72,5.72,0,0,0,3-.75,6.45,6.45,0,0,0,2.06-2,9.07,9.07,0,0,0,1.21-2.86,14,14,0,0,0,.39-3.29V518.11h2.7V540.3Z"/><path class="cls-11" d="M206.58,535.74h3.61v4.56h-3.61Zm.34-26.14h2.93v9.16l-.65,13.89h-1.63l-.65-13.89Z"/><path class="cls-11" d="M216.94,535.74h3.61v4.56h-3.61Zm.35-26.14h2.92v9.16l-.65,13.89h-1.63l-.64-13.89Z"/><path class="cls-11" d="M227.31,535.74h3.61v4.56h-3.61Zm.34-26.14h2.92v9.16l-.64,13.89h-1.64l-.64-13.89Z"/><rect class="cls-2" x="629" y="539" width="81" height="48" rx="24"/><circle class="cls-26" cx="658" cy="563" r="19"/><ellipse class="cls-2" cx="665.59" cy="556.82" rx="2.54" ry="2.5" transform="translate(99.74 1214.74) rotate(-89.22)"/><ellipse class="cls-2" cx="651.47" cy="556.62" rx="2.54" ry="2.5" transform="translate(86.01 1200.44) rotate(-89.22)"/><path class="cls-2" d="M647.12,569.87c5.55,6.41,16,5.11,21.93,0,1.46-1.26-.67-3.38-2.12-2.12-4.75,4.09-13.29,5.1-17.69,0-1.27-1.46-3.38.67-2.12,2.12Z"/><rect class="cls-26" x="689" y="550" width="6" height="27" rx="3"/><rect class="cls-26" x="680" y="560" width="25" height="7" rx="3.5"/></g></svg>
