<svg id="Layer_1" data-name="Layer 1" xmlns="http://www.w3.org/2000/svg" width="1009.68" height="277.42" viewBox="0 0 1009.68 277.42"><defs><style>.cls-1{opacity:0.5;}.cls-2{fill:#fff;}.cls-3{fill:#010101;}.cls-4{fill:#6a6c6c;}.cls-5{fill:#1072ba;}</style></defs><title>messengerbeskedsofie</title><g class="cls-1"><rect class="cls-2" x="24.66" y="37.69" width="952" height="209" rx="11.5"/><path class="cls-3" d="M965.16,38.19a11,11,0,0,1,11,11v186a11,11,0,0,1-11,11h-929a11,11,0,0,1-11-11v-186a11,11,0,0,1,11-11h929m0-1h-929a12,12,0,0,0-12,12v186a12,12,0,0,0,12,12h929a12,12,0,0,0,12-12v-186a12,12,0,0,0-12-12Z"/></g><path class="cls-4" d="M896.1,62.1,905.67,76h0V62.1h1.56V78.52h-1.74L896,64.63h-.05V78.52h-1.56V62.1Z"/><path class="cls-4" d="M918.57,78.52V76.38h-.05a4.07,4.07,0,0,1-1.67,1.83,4.72,4.72,0,0,1-2.42.63,5.22,5.22,0,0,1-1.92-.31,3.25,3.25,0,0,1-1.29-.88,3.78,3.78,0,0,1-.73-1.41,7.17,7.17,0,0,1-.23-1.88V66.65h1.45v7.73a3.85,3.85,0,0,0,.75,2.44,3.71,3.71,0,0,0,4,.42,3.4,3.4,0,0,0,1.1-1.07,4.81,4.81,0,0,0,.65-1.53,7.91,7.91,0,0,0,.2-1.76V66.65h1.45V78.52Z"/><path class="cls-4" d="M144.53,69.19l9.88,25,9.84-25h4V97.75h-2.72V73.07h-.08l-9.76,24.68h-2.56l-9.8-24.68h-.08V97.75h-2.72V69.19Z"/><path class="cls-4" d="M193.65,69.19v2.32h-17V81.83h15.92v2.32H176.65V95.43h17.2v2.32H173.93V69.19Z"/><path class="cls-4" d="M199.61,92a6,6,0,0,0,2,2.36,8.11,8.11,0,0,0,3,1.26,16.56,16.56,0,0,0,3.68.38,10.11,10.11,0,0,0,2.44-.32,8.32,8.32,0,0,0,2.46-1,6.16,6.16,0,0,0,1.9-1.8,4.61,4.61,0,0,0,.76-2.66,3.91,3.91,0,0,0-.54-2.08,5.06,5.06,0,0,0-1.4-1.48,8.74,8.74,0,0,0-1.9-1,20.35,20.35,0,0,0-2-.62l-6.36-1.56a18,18,0,0,1-2.42-.8,6.64,6.64,0,0,1-2.06-1.28,5.93,5.93,0,0,1-1.42-2,6.69,6.69,0,0,1-.54-2.84,9,9,0,0,1,.4-2.44,6.66,6.66,0,0,1,1.5-2.64,8.89,8.89,0,0,1,3-2.1,12.16,12.16,0,0,1,4.92-.86,14.5,14.5,0,0,1,4,.56,10.19,10.19,0,0,1,3.36,1.68,8.51,8.51,0,0,1,2.3,2.78,8.35,8.35,0,0,1,.86,3.86h-2.72a6.75,6.75,0,0,0-.74-2.86,6.55,6.55,0,0,0-1.72-2,7.7,7.7,0,0,0-2.44-1.24,9.92,9.92,0,0,0-2.9-.42,11.89,11.89,0,0,0-2.7.3,6.7,6.7,0,0,0-2.28,1,4.91,4.91,0,0,0-1.58,1.74,5.47,5.47,0,0,0-.6,2.68,4.06,4.06,0,0,0,.34,1.74,3.48,3.48,0,0,0,.94,1.26,4.81,4.81,0,0,0,1.38.84,9.46,9.46,0,0,0,1.66.52l7,1.72a21.83,21.83,0,0,1,2.86,1,9.73,9.73,0,0,1,2.36,1.44,6.25,6.25,0,0,1,1.6,2.1,7.16,7.16,0,0,1,.58,3,12.45,12.45,0,0,1-.1,1.28,6.64,6.64,0,0,1-.48,1.7A9,9,0,0,1,216.87,95,6.74,6.74,0,0,1,215,96.65a10.81,10.81,0,0,1-3,1.2,17.49,17.49,0,0,1-4.32.46,17.86,17.86,0,0,1-4.68-.58A10,10,0,0,1,199.25,96a7.67,7.67,0,0,1-2.34-3.08,10,10,0,0,1-.7-4.52h2.72A8,8,0,0,0,199.61,92Z"/><path class="cls-4" d="M224.81,92a6,6,0,0,0,2,2.36,8.11,8.11,0,0,0,3,1.26,16.56,16.56,0,0,0,3.68.38,10.11,10.11,0,0,0,2.44-.32,8.32,8.32,0,0,0,2.46-1,6.16,6.16,0,0,0,1.9-1.8,4.61,4.61,0,0,0,.76-2.66,3.91,3.91,0,0,0-.54-2.08,5.06,5.06,0,0,0-1.4-1.48,8.74,8.74,0,0,0-1.9-1,20.35,20.35,0,0,0-2-.62l-6.36-1.56a18,18,0,0,1-2.42-.8,6.64,6.64,0,0,1-2.06-1.28,5.93,5.93,0,0,1-1.42-2,6.69,6.69,0,0,1-.54-2.84,9,9,0,0,1,.4-2.44,6.66,6.66,0,0,1,1.5-2.64,8.89,8.89,0,0,1,3-2.1,12.16,12.16,0,0,1,4.92-.86,14.5,14.5,0,0,1,4,.56,10.19,10.19,0,0,1,3.36,1.68,8.51,8.51,0,0,1,2.3,2.78,8.35,8.35,0,0,1,.86,3.86H240a6.75,6.75,0,0,0-.74-2.86,6.55,6.55,0,0,0-1.72-2,7.7,7.7,0,0,0-2.44-1.24,9.92,9.92,0,0,0-2.9-.42,11.89,11.89,0,0,0-2.7.3,6.7,6.7,0,0,0-2.28,1,4.91,4.91,0,0,0-1.58,1.74,5.47,5.47,0,0,0-.6,2.68,4.06,4.06,0,0,0,.34,1.74,3.48,3.48,0,0,0,.94,1.26,4.81,4.81,0,0,0,1.38.84,9.46,9.46,0,0,0,1.66.52l7,1.72a21.83,21.83,0,0,1,2.86,1,9.73,9.73,0,0,1,2.36,1.44,6.25,6.25,0,0,1,1.6,2.1,7.16,7.16,0,0,1,.58,3,12.45,12.45,0,0,1-.1,1.28,6.64,6.64,0,0,1-.48,1.7A9,9,0,0,1,242.07,95a6.74,6.74,0,0,1-1.92,1.66,10.81,10.81,0,0,1-3,1.2,17.49,17.49,0,0,1-4.32.46,17.86,17.86,0,0,1-4.68-.58A10,10,0,0,1,224.45,96a7.67,7.67,0,0,1-2.34-3.08,10,10,0,0,1-.7-4.52h2.72A8,8,0,0,0,224.81,92Z"/><path class="cls-4" d="M267.77,69.19v2.32h-17V81.83h15.92v2.32H250.77V95.43H268v2.32H248.05V69.19Z"/><path class="cls-4" d="M274.77,69.19l16.64,24.16h.08V69.19h2.72V97.75h-3L274.53,73.59h-.08V97.75h-2.72V69.19Z"/><path class="cls-4" d="M322.37,97.75l-.36-5.2h-.08a9.75,9.75,0,0,1-1.78,2.62,9.51,9.51,0,0,1-2.34,1.8,10.16,10.16,0,0,1-2.74,1,13.7,13.7,0,0,1-3,.32,13.38,13.38,0,0,1-5.9-1.22,12.15,12.15,0,0,1-4.22-3.26,13.83,13.83,0,0,1-2.52-4.72,19.35,19.35,0,0,1,0-11.28,14.21,14.21,0,0,1,2.52-4.74,12.2,12.2,0,0,1,4.22-3.28,13.52,13.52,0,0,1,5.9-1.22,14.73,14.73,0,0,1,4.24.6,10.69,10.69,0,0,1,6.2,4.76A11.59,11.59,0,0,1,324,78.07h-2.72a6.56,6.56,0,0,0-.82-2.5,9,9,0,0,0-1.88-2.3,9.69,9.69,0,0,0-6.5-2.36A10.28,10.28,0,0,0,307.17,72a9.68,9.68,0,0,0-3.34,2.86,12.25,12.25,0,0,0-1.92,4,17.3,17.3,0,0,0,0,9.18,12.07,12.07,0,0,0,1.92,4A9.57,9.57,0,0,0,307.17,95,10.28,10.28,0,0,0,312.05,96a10.84,10.84,0,0,0,4.22-.78,8.77,8.77,0,0,0,3.14-2.18,9.2,9.2,0,0,0,1.92-3.32,12.85,12.85,0,0,0,.6-4.2h-9.72V83.23h12.12V97.75Z"/><path class="cls-4" d="M349.29,69.19v2.32h-17V81.83h15.92v2.32H332.29V95.43h17.2v2.32H329.57V69.19Z"/><path class="cls-4" d="M366.37,69.19a12.59,12.59,0,0,1,3.34.44A8.25,8.25,0,0,1,372.47,71a6.62,6.62,0,0,1,1.88,2.32,7.57,7.57,0,0,1,.7,3.34,8,8,0,0,1-1.4,4.72,6.36,6.36,0,0,1-4.16,2.56V84a6.53,6.53,0,0,1,2.32.74,4.73,4.73,0,0,1,1.5,1.38,6,6,0,0,1,.84,1.94,15.49,15.49,0,0,1,.34,2.38c0,.48.05,1.07.08,1.76s.08,1.4.16,2.1a12,12,0,0,0,.38,2,3.62,3.62,0,0,0,.7,1.46h-3a3.29,3.29,0,0,1-.38-1,7.51,7.51,0,0,1-.2-1.2c0-.41-.08-.82-.1-1.22s-.06-.74-.08-1c-.06-1-.14-2-.26-3a8.46,8.46,0,0,0-.76-2.68,4.81,4.81,0,0,0-1.68-1.9,5.11,5.11,0,0,0-3-.64H356V97.75h-2.72V69.19Zm-.2,13.56a7.16,7.16,0,0,0,2.36-.38,5.89,5.89,0,0,0,2-1.1,5.48,5.48,0,0,0,1.34-1.74,5.3,5.3,0,0,0,.5-2.34A5.65,5.65,0,0,0,370.81,73a6.34,6.34,0,0,0-4.64-1.52H356V82.75Z"/><rect class="cls-2" x="38.16" y="51.19" width="69" height="63" rx="12"/><path class="cls-5" d="M73,54.35a28.18,28.18,0,0,0-21.13,46.83l-3.42,9.48,13.14-2.35A28.18,28.18,0,1,0,73,54.35Z"/><polygon class="cls-2" points="80.09 82.66 80 82.78 66.11 73.09 61.78 79.29 61.8 79.31 59.15 82.91 54.6 89.08 66.04 82.47 66.14 82.33 79.99 91.99 82.56 88.3 82.58 88.3 86.99 82.03 91.4 75.75 80.09 82.66"/><path class="cls-3" d="M48.66,153.49a4.56,4.56,0,0,0,.28,1.65c.56,1.5,2.24,1.82,3.67,1.82,1.26,0,3.19-.42,3.19-2.28,0-1.29-1.09-1.64-5.39-2.87-4-1.12-8.48-2.2-8.48-7.24,0-5.78,4.94-8.26,10.09-8.26,5.42,0,10.22,2.06,10.43,8.15H55.17a1.91,1.91,0,0,0-.91-2,4,4,0,0,0-2.28-.63c-1,0-2.76.28-2.76,1.68.14,1.78,3.71,2.17,7.24,3.15s7,2.62,7,7.21c0,6.51-6,8.61-11.55,8.61-2.84,0-10.92-1-11-9Z"/><path class="cls-3" d="M74.91,162.35c-6.83,0-9.91-4.52-9.91-9.56s3.08-9.52,9.91-9.52,9.9,4.48,9.9,9.52S81.73,162.35,74.91,162.35Zm0-14c-2.63,0-3,2.56-3,4.48s.35,4.52,3,4.52,3-2.59,3-4.52S77.53,148.31,74.91,148.31Z"/><path class="cls-3" d="M89,148H86.14v-4.27H89c-.07-1.79.11-3.78,1.44-5.11,1.51-1.51,3.26-1.72,6.06-1.72,1,0,2.06.11,3.11.14v4.76a13.87,13.87,0,0,0-1.68-.24c-1.68,0-2.24.49-2.13,2.17h3.64V148h-3.5v13.89H89Z"/><path class="cls-3" d="M108.51,141.77h-6.94V136.9h6.94Zm-6.94,2h6.94v18.16h-6.94Z"/><path class="cls-3" d="M118.3,154.37c.18,2.06,1.37,3.53,3.54,3.53a3.47,3.47,0,0,0,2.9-1.29h6.48c-1.4,3.92-5.21,5.74-9.35,5.74-5.81,0-10.18-3.43-10.18-9.49a9.33,9.33,0,0,1,9.59-9.59c7.21,0,10.33,4,10.33,11.1Zm6.66-3.61a3,3,0,0,0-3-3,3.28,3.28,0,0,0-3.57,3Z"/><path class="cls-3" d="M163.74,152.9c0,6.89-3.12,9.59-9.39,9.59s-9.17-3.54-9.17-9v-2.1h6.93v1.44c0,1.92,0,3.71,2.07,3.71S156,154.12,156,153V136.9h7.71Z"/><path class="cls-3" d="M173.43,154.37c.17,2.06,1.36,3.53,3.53,3.53a3.49,3.49,0,0,0,2.91-1.29h6.48c-1.41,3.92-5.22,5.74-9.35,5.74-5.81,0-10.19-3.43-10.19-9.49a9.33,9.33,0,0,1,9.59-9.59c7.21,0,10.33,4,10.33,11.1Zm6.65-3.61a3,3,0,0,0-3.05-3,3.29,3.29,0,0,0-3.57,3Z"/><path class="cls-3" d="M189.63,143.73h6.69V146h.07a6.65,6.65,0,0,1,5.91-2.77c3.26,0,6.23,2,6.23,6.16v12.46H201.6v-9.52c0-2.1-.24-3.57-2.27-3.57-1.19,0-2.77.6-2.77,3.5v9.59h-6.93Z"/><path class="cls-3" d="M222.81,149a1.74,1.74,0,0,0-.8-1.36,2.42,2.42,0,0,0-1.54-.53c-1,0-2.1.21-2.1,1.4,0,.53.42.77.8.95,1.16.49,3.78.63,6.09,1.4s4.34,2.1,4.34,5.07c0,5-4.83,6.41-9.24,6.41s-9-1.72-9.06-6.41h6.61a2.25,2.25,0,0,0,.84,1.61,2.84,2.84,0,0,0,1.86.53c.91,0,2.34-.35,2.34-1.4s-.59-1.37-3.81-1.93c-5.29-.91-7.42-2.59-7.42-5.7,0-4.59,4.93-5.78,8.57-5.78,3.92,0,8.65,1.09,8.82,5.74Z"/><path class="cls-3" d="M238.25,154.37c.17,2.06,1.36,3.53,3.53,3.53a3.49,3.49,0,0,0,2.91-1.29h6.47c-1.4,3.92-5.21,5.74-9.34,5.74-5.81,0-10.19-3.43-10.19-9.49a9.33,9.33,0,0,1,9.59-9.59c7.21,0,10.33,4,10.33,11.1Zm6.65-3.61a3,3,0,0,0-3.05-3,3.29,3.29,0,0,0-3.57,3Z"/><path class="cls-3" d="M254.45,143.73h6.69V146h.07a6.65,6.65,0,0,1,5.91-2.77c3.26,0,6.23,2,6.23,6.16v12.46h-6.93v-9.52c0-2.1-.24-3.57-2.27-3.57-1.19,0-2.77.6-2.77,3.5v9.59h-6.93Z"/><path class="cls-3" d="M48,207.42a5.3,5.3,0,0,0,1.73,2.06,7.16,7.16,0,0,0,2.61,1.11,15,15,0,0,0,3.22.33,9,9,0,0,0,2.14-.28,7.52,7.52,0,0,0,2.15-.89,5.56,5.56,0,0,0,1.66-1.58,4,4,0,0,0,.67-2.33,3.39,3.39,0,0,0-.48-1.82,4.28,4.28,0,0,0-1.22-1.29,7.25,7.25,0,0,0-1.66-.86,17.16,17.16,0,0,0-1.79-.54L51.42,200a15.48,15.48,0,0,1-2.12-.7,5.89,5.89,0,0,1-1.8-1.12,5.19,5.19,0,0,1-1.25-1.71,6,6,0,0,1-.47-2.49,8.09,8.09,0,0,1,.35-2.13,5.86,5.86,0,0,1,1.31-2.31,7.69,7.69,0,0,1,2.65-1.84,10.6,10.6,0,0,1,4.3-.75,12.46,12.46,0,0,1,3.54.49,8.83,8.83,0,0,1,2.94,1.47,7.2,7.2,0,0,1,2,2.43,7.29,7.29,0,0,1,.75,3.38H61.25a5.74,5.74,0,0,0-.65-2.5,5.54,5.54,0,0,0-1.5-1.79A6.44,6.44,0,0,0,57,189.31a8.46,8.46,0,0,0-2.53-.37,10.83,10.83,0,0,0-2.37.26,6.07,6.07,0,0,0-2,.84,4.39,4.39,0,0,0-1.38,1.52,4.8,4.8,0,0,0-.53,2.35,3.58,3.58,0,0,0,.3,1.52,3.21,3.21,0,0,0,.82,1.1,4.23,4.23,0,0,0,1.21.74,8.17,8.17,0,0,0,1.45.45L58,199.23a16.69,16.69,0,0,1,2.5.86,8,8,0,0,1,2.07,1.26,5.39,5.39,0,0,1,1.4,1.83,6.17,6.17,0,0,1,.51,2.63,9.29,9.29,0,0,1-.09,1.12,5.81,5.81,0,0,1-.42,1.49,7.49,7.49,0,0,1-1,1.59,5.91,5.91,0,0,1-1.68,1.45,9.82,9.82,0,0,1-2.64,1,15.37,15.37,0,0,1-3.78.4,16.08,16.08,0,0,1-4.09-.5,8.79,8.79,0,0,1-3.22-1.56,6.84,6.84,0,0,1-2-2.7,8.77,8.77,0,0,1-.61-4h2.38A7,7,0,0,0,48,207.42Z"/><path class="cls-3" d="M69.49,206.46a6.79,6.79,0,0,0,1.07,2.29,6,6,0,0,0,1.86,1.68,5.18,5.18,0,0,0,2.69.66,5.36,5.36,0,0,0,3.78-1.26,6.63,6.63,0,0,0,1.89-3.36H83a8.8,8.8,0,0,1-2.58,4.76,7.66,7.66,0,0,1-5.3,1.68,8.44,8.44,0,0,1-3.69-.75,6.79,6.79,0,0,1-2.54-2.06,9,9,0,0,1-1.45-3,13.6,13.6,0,0,1-.47-3.66,13,13,0,0,1,.47-3.5,9.4,9.4,0,0,1,1.45-3.06,7.26,7.26,0,0,1,2.54-2.17,7.79,7.79,0,0,1,3.69-.82A7.1,7.1,0,0,1,81.32,197a9.52,9.52,0,0,1,1.39,3.25,14.62,14.62,0,0,1,.35,3.73H69.16A9.94,9.94,0,0,0,69.49,206.46Zm10.92-6.74a6.7,6.7,0,0,0-1.13-2.05,5.69,5.69,0,0,0-1.79-1.43,5.12,5.12,0,0,0-2.38-.55,5.19,5.19,0,0,0-2.41.55,5.69,5.69,0,0,0-1.79,1.43,7.22,7.22,0,0,0-1.17,2.07,10,10,0,0,0-.58,2.39H80.85A7.79,7.79,0,0,0,80.41,199.72Z"/><path class="cls-3" d="M88.2,194.36v3.12h.07a5.27,5.27,0,0,1,2.24-2.64,6.53,6.53,0,0,1,3.54-1,8.78,8.78,0,0,1,3.16.49,5.09,5.09,0,0,1,2.05,1.38,5.26,5.26,0,0,1,1.09,2.19,12.28,12.28,0,0,1,.31,2.9v11.62h-2.2V201.15a10.45,10.45,0,0,0-.21-2.15,4.59,4.59,0,0,0-.74-1.73,3.55,3.55,0,0,0-1.42-1.16,5.17,5.17,0,0,0-2.22-.42,5.53,5.53,0,0,0-2.36.48,5,5,0,0,0-1.75,1.29,6,6,0,0,0-1.12,2,7.85,7.85,0,0,0-.44,2.47v10.53H86V194.36Z"/><path class="cls-3" d="M118.68,212.42V209h-.07a5,5,0,0,1-1,1.61,6.55,6.55,0,0,1-1.56,1.25,7.94,7.94,0,0,1-1.87.78,7.12,7.12,0,0,1-2,.28,8,8,0,0,1-3.58-.75,7.2,7.2,0,0,1-2.54-2.06,8.9,8.9,0,0,1-1.51-3,13.88,13.88,0,0,1,0-7.31,8.9,8.9,0,0,1,1.51-3.05,7.37,7.37,0,0,1,2.54-2.08,7.87,7.87,0,0,1,3.58-.77,8.13,8.13,0,0,1,2,.24,6.81,6.81,0,0,1,1.8.76,6.11,6.11,0,0,1,1.49,1.24,5.21,5.21,0,0,1,1,1.71h.07V187.43h2.21v25Zm-12.09-6.24a7.56,7.56,0,0,0,1,2.46,5.66,5.66,0,0,0,1.84,1.77,5,5,0,0,0,2.69.68,5.87,5.87,0,0,0,3-.68,5.67,5.67,0,0,0,2-1.77,7.22,7.22,0,0,0,1.09-2.46,11.92,11.92,0,0,0,0-5.57,7.36,7.36,0,0,0-1.09-2.47,5.74,5.74,0,0,0-2-1.76,5.87,5.87,0,0,0-3-.69,5,5,0,0,0-2.69.69,5.73,5.73,0,0,0-1.84,1.76,7.71,7.71,0,0,0-1,2.47,11.92,11.92,0,0,0,0,5.57Z"/><path class="cls-3" d="M136.85,187.43v10.36h.07a5.21,5.21,0,0,1,1-1.71,6.07,6.07,0,0,1,1.48-1.24,6.8,6.8,0,0,1,1.82-.76,8.28,8.28,0,0,1,2-.24,7.89,7.89,0,0,1,3.59.77,7.37,7.37,0,0,1,2.54,2.08,8.7,8.7,0,0,1,1.5,3.05,13.88,13.88,0,0,1,0,7.31,8.7,8.7,0,0,1-1.5,3,7.2,7.2,0,0,1-2.54,2.06,8,8,0,0,1-3.59.75,7.57,7.57,0,0,1-3.93-1,5.86,5.86,0,0,1-2.51-2.91h-.07v3.43h-2v-25Zm11.92,13.18a7.94,7.94,0,0,0-1.05-2.47,5.73,5.73,0,0,0-1.84-1.76,5.07,5.07,0,0,0-2.7-.69,5.85,5.85,0,0,0-3,.69,5.74,5.74,0,0,0-2,1.76,7.36,7.36,0,0,0-1.09,2.47,11.92,11.92,0,0,0,0,5.57,7.22,7.22,0,0,0,1.09,2.46,5.67,5.67,0,0,0,2,1.77,5.85,5.85,0,0,0,3,.68,5.06,5.06,0,0,0,2.7-.68,5.66,5.66,0,0,0,1.84-1.77,7.78,7.78,0,0,0,1.05-2.46,11.92,11.92,0,0,0,0-5.57Z"/><path class="cls-3" d="M157,187.43V191h-2.2v-3.54Zm0,6.93v18.06h-2.2V194.36Z"/><path class="cls-3" d="M163.45,187.43v25h-2.21v-25Z"/><path class="cls-3" d="M169.92,187.43v25h-2.2v-25Z"/><path class="cls-3" d="M175.79,206.46a6.77,6.77,0,0,0,1.06,2.29,6,6,0,0,0,1.86,1.68,5.21,5.21,0,0,0,2.69.66,5.36,5.36,0,0,0,3.78-1.26,6.63,6.63,0,0,0,1.89-3.36h2.21a8.79,8.79,0,0,1-2.57,4.76,7.69,7.69,0,0,1-5.31,1.68,8.44,8.44,0,0,1-3.69-.75,6.87,6.87,0,0,1-2.54-2.06,9.16,9.16,0,0,1-1.45-3,14,14,0,0,1-.47-3.66,13.36,13.36,0,0,1,.47-3.5,9.6,9.6,0,0,1,1.45-3.06,7.35,7.35,0,0,1,2.54-2.17,7.79,7.79,0,0,1,3.69-.82,7.13,7.13,0,0,1,6.22,3.17,9.5,9.5,0,0,1,1.38,3.25,14.18,14.18,0,0,1,.35,3.73h-13.9A10,10,0,0,0,175.79,206.46Zm10.92-6.74a6.72,6.72,0,0,0-1.14-2.05,5.69,5.69,0,0,0-1.79-1.43,5.12,5.12,0,0,0-2.38-.55,5.19,5.19,0,0,0-2.41.55,5.69,5.69,0,0,0-1.79,1.43,7.22,7.22,0,0,0-1.17,2.07,10.55,10.55,0,0,0-.58,2.39h11.69A7.78,7.78,0,0,0,186.71,199.72Z"/><path class="cls-3" d="M206.18,212.42V209h-.07a5,5,0,0,1-1,1.61,6.55,6.55,0,0,1-1.56,1.25,7.94,7.94,0,0,1-1.87.78,7.12,7.12,0,0,1-2,.28,8,8,0,0,1-3.58-.75,7.2,7.2,0,0,1-2.54-2.06,8.9,8.9,0,0,1-1.51-3,13.88,13.88,0,0,1,0-7.31,8.9,8.9,0,0,1,1.51-3.05,7.37,7.37,0,0,1,2.54-2.08,7.87,7.87,0,0,1,3.58-.77,8.13,8.13,0,0,1,2,.24,6.81,6.81,0,0,1,1.8.76,6.11,6.11,0,0,1,1.49,1.24,5.21,5.21,0,0,1,1,1.71H206V187.43h2.21v25Zm-12.09-6.24a7.56,7.56,0,0,0,1,2.46,5.66,5.66,0,0,0,1.84,1.77,5,5,0,0,0,2.69.68,5.87,5.87,0,0,0,3-.68,5.67,5.67,0,0,0,2-1.77,7.22,7.22,0,0,0,1.09-2.46,11.92,11.92,0,0,0,0-5.57,7.36,7.36,0,0,0-1.09-2.47,5.74,5.74,0,0,0-2-1.76,5.87,5.87,0,0,0-3-.69,5,5,0,0,0-2.69.69,5.73,5.73,0,0,0-1.84,1.76,7.71,7.71,0,0,0-1,2.47,11.92,11.92,0,0,0,0,5.57Z"/><path class="cls-3" d="M214,206.46a6.79,6.79,0,0,0,1.07,2.29,6.09,6.09,0,0,0,1.85,1.68,5.25,5.25,0,0,0,2.7.66,5.36,5.36,0,0,0,3.78-1.26,6.63,6.63,0,0,0,1.89-3.36h2.2a8.73,8.73,0,0,1-2.57,4.76,7.66,7.66,0,0,1-5.3,1.68,8.44,8.44,0,0,1-3.69-.75,6.79,6.79,0,0,1-2.54-2.06,9,9,0,0,1-1.45-3,13.6,13.6,0,0,1-.48-3.66,13,13,0,0,1,.48-3.5,9.4,9.4,0,0,1,1.45-3.06,7.26,7.26,0,0,1,2.54-2.17,7.79,7.79,0,0,1,3.69-.82,7.1,7.1,0,0,1,6.21,3.17,9.5,9.5,0,0,1,1.38,3.25,14.18,14.18,0,0,1,.35,3.73H213.71A9.94,9.94,0,0,0,214,206.46ZM225,199.72a6.72,6.72,0,0,0-1.14-2.05,5.65,5.65,0,0,0-1.78-1.43,5.12,5.12,0,0,0-2.38-.55,5.23,5.23,0,0,0-2.42.55,5.65,5.65,0,0,0-1.78,1.43,7.22,7.22,0,0,0-1.17,2.07,10,10,0,0,0-.58,2.39H225.4A7.79,7.79,0,0,0,225,199.72Z"/><path class="cls-3" d="M237.75,194.36v1.86h-3.67V208.4a4,4,0,0,0,.3,1.7c.2.41.69.63,1.48.68a17.11,17.11,0,0,0,1.89-.11v1.86l-1,0c-.32,0-.65,0-1,0a3.26,3.26,0,0,1-3.92-4V196.22h-3.15v-1.86h3.15v-5.42h2.21v5.42Z"/><path class="cls-3" d="M251.12,197.16a5.28,5.28,0,0,1,1.53-1.89,6.36,6.36,0,0,1,2.25-1.08,11.17,11.17,0,0,1,2.87-.35,12.71,12.71,0,0,1,2.38.23,5.69,5.69,0,0,1,2.14.85,4.69,4.69,0,0,1,1.54,1.77,6.36,6.36,0,0,1,.59,3v9.59a1.16,1.16,0,0,0,1.3,1.33,1.75,1.75,0,0,0,.7-.14v1.85c-.26.05-.49.09-.68.11s-.45,0-.76,0a3.31,3.31,0,0,1-1.34-.22,1.82,1.82,0,0,1-.79-.65,2.39,2.39,0,0,1-.37-1,8.29,8.29,0,0,1-.09-1.28h-.07a12.76,12.76,0,0,1-1.2,1.56,5.9,5.9,0,0,1-1.37,1.14,6.26,6.26,0,0,1-1.71.7,9.61,9.61,0,0,1-2.3.24,9.42,9.42,0,0,1-2.36-.29,5.4,5.4,0,0,1-1.92-1,4.58,4.58,0,0,1-1.3-1.64,5.6,5.6,0,0,1-.47-2.37,4.64,4.64,0,0,1,.84-2.95,5.28,5.28,0,0,1,2.22-1.63,12.72,12.72,0,0,1,3.12-.79l3.51-.44a11.09,11.09,0,0,0,1.23-.17,2,2,0,0,0,.87-.37,1.62,1.62,0,0,0,.55-.72,3.25,3.25,0,0,0,.19-1.19,4,4,0,0,0-.37-1.83,2.86,2.86,0,0,0-1-1.14,4.28,4.28,0,0,0-1.51-.58,10.59,10.59,0,0,0-1.84-.16,5.6,5.6,0,0,0-3.43,1,3.94,3.94,0,0,0-1.4,3.2h-2.2A7.4,7.4,0,0,1,251.12,197.16Zm11,5.39a1.23,1.23,0,0,1-.81.56,7.81,7.81,0,0,1-1,.25c-.93.16-1.89.31-2.88.44a15.89,15.89,0,0,0-2.72.57,5.41,5.41,0,0,0-2,1.11,2.64,2.64,0,0,0-.79,2,3.24,3.24,0,0,0,.34,1.49,3.59,3.59,0,0,0,.89,1.12,3.71,3.71,0,0,0,1.29.72,4.87,4.87,0,0,0,1.51.24,7.46,7.46,0,0,0,2.41-.38,6,6,0,0,0,2-1.12,5.49,5.49,0,0,0,1.36-1.79,5.37,5.37,0,0,0,.51-2.38v-2.87Z"/><path class="cls-3" d="M272.23,196.22v16.2H270v-16.2h-3.08v-1.86H270v-1.64a12,12,0,0,1,.18-2.14,4.35,4.35,0,0,1,.66-1.68,3.31,3.31,0,0,1,1.35-1.08,5.3,5.3,0,0,1,2.19-.39c.33,0,.63,0,.91,0l.94.1v1.89l-.84-.12a6.49,6.49,0,0,0-.77-.05,2.85,2.85,0,0,0-1.4.28,1.76,1.76,0,0,0-.71.75,3.07,3.07,0,0,0-.27,1.1c0,.42,0,.88,0,1.37v1.57h3.57v1.86Z"/><path class="cls-3" d="M300.51,187.43v18a12.45,12.45,0,0,1-.39,3.32,5,5,0,0,1-3.48,3.68,11.14,11.14,0,0,1-3.41.45,7.62,7.62,0,0,1-3.5-.71,5.71,5.71,0,0,1-2.14-1.89,7.43,7.43,0,0,1-1-2.72,18.26,18.26,0,0,1-.28-3.18h2.38c0,.54.06,1.18.11,1.92a6.74,6.74,0,0,0,.49,2.14,4.09,4.09,0,0,0,1.38,1.73,4.66,4.66,0,0,0,2.82.72,6.14,6.14,0,0,0,2.31-.37,3,3,0,0,0,1.43-1.15,5.23,5.23,0,0,0,.74-2,17.58,17.58,0,0,0,.21-2.94v-17Z"/><path class="cls-3" d="M316.42,194.61a7.91,7.91,0,0,1,2.67,2.06,8.9,8.9,0,0,1,1.65,3,12.47,12.47,0,0,1,0,7.39,8.76,8.76,0,0,1-1.65,3,7.64,7.64,0,0,1-2.67,2,9.31,9.31,0,0,1-7.32,0,7.77,7.77,0,0,1-2.68-2,8.91,8.91,0,0,1-1.64-3,12.47,12.47,0,0,1,0-7.39,9.05,9.05,0,0,1,1.64-3,8,8,0,0,1,2.68-2.06,9.08,9.08,0,0,1,7.32,0ZM310,196.36a6,6,0,0,0-2,1.75,7.65,7.65,0,0,0-1.19,2.47,9.87,9.87,0,0,0,0,5.63,7.65,7.65,0,0,0,1.19,2.47,6,6,0,0,0,2,1.75,5.65,5.65,0,0,0,2.77.66,5.58,5.58,0,0,0,2.76-.66,6,6,0,0,0,2-1.75,7.86,7.86,0,0,0,1.19-2.47,10.11,10.11,0,0,0,0-5.63,7.86,7.86,0,0,0-1.19-2.47,6,6,0,0,0-2-1.75,5.58,5.58,0,0,0-2.76-.67A5.65,5.65,0,0,0,310,196.36Z"/><path class="cls-3" d="M325,197.16a5.18,5.18,0,0,1,1.53-1.89,6.36,6.36,0,0,1,2.25-1.08,11.17,11.17,0,0,1,2.87-.35,12.71,12.71,0,0,1,2.38.23,5.69,5.69,0,0,1,2.14.85,4.69,4.69,0,0,1,1.54,1.77,6.36,6.36,0,0,1,.59,3v9.59a1.16,1.16,0,0,0,1.3,1.33,1.75,1.75,0,0,0,.7-.14v1.85c-.26.05-.49.09-.68.11s-.45,0-.76,0a3.31,3.31,0,0,1-1.34-.22,1.82,1.82,0,0,1-.79-.65,2.39,2.39,0,0,1-.37-1,8.29,8.29,0,0,1-.09-1.28h-.07a13.84,13.84,0,0,1-1.2,1.56,5.9,5.9,0,0,1-1.37,1.14,6.26,6.26,0,0,1-1.71.7,9.67,9.67,0,0,1-2.3.24,9.42,9.42,0,0,1-2.36-.29,5.32,5.32,0,0,1-1.92-1,4.58,4.58,0,0,1-1.3-1.64,5.6,5.6,0,0,1-.47-2.37,4.64,4.64,0,0,1,.84-2.95,5.28,5.28,0,0,1,2.22-1.63,12.72,12.72,0,0,1,3.12-.79l3.51-.44a11.09,11.09,0,0,0,1.23-.17,2,2,0,0,0,.87-.37,1.62,1.62,0,0,0,.55-.72,3.25,3.25,0,0,0,.19-1.19,4,4,0,0,0-.37-1.83,2.86,2.86,0,0,0-1-1.14,4.28,4.28,0,0,0-1.51-.58,10.59,10.59,0,0,0-1.84-.16,5.6,5.6,0,0,0-3.43,1,3.94,3.94,0,0,0-1.4,3.2h-2.2A7.4,7.4,0,0,1,325,197.16Zm11,5.39a1.23,1.23,0,0,1-.81.56,7.81,7.81,0,0,1-1.05.25c-.93.16-1.89.31-2.88.44a15.69,15.69,0,0,0-2.72.57,5.41,5.41,0,0,0-2,1.11,2.64,2.64,0,0,0-.79,2,3.12,3.12,0,0,0,.34,1.49,3.59,3.59,0,0,0,.89,1.12,3.71,3.71,0,0,0,1.29.72,4.87,4.87,0,0,0,1.51.24,7.46,7.46,0,0,0,2.41-.38,6.12,6.12,0,0,0,2-1.12,5.49,5.49,0,0,0,1.36-1.79,5.37,5.37,0,0,0,.51-2.38v-2.87Z"/><path class="cls-3" d="M353.81,196.85a4.79,4.79,0,0,0-3.43-1.16,5.58,5.58,0,0,0-2.76.67,6.17,6.17,0,0,0-2,1.75,8.09,8.09,0,0,0-1.19,2.47,10.11,10.11,0,0,0,0,5.63,8.09,8.09,0,0,0,1.19,2.47,6.17,6.17,0,0,0,2,1.75,5.58,5.58,0,0,0,2.76.66,4.85,4.85,0,0,0,1.93-.38,5.15,5.15,0,0,0,1.61-1.07,5.51,5.51,0,0,0,1.15-1.63,5.82,5.82,0,0,0,.56-2.06h2.21a8.33,8.33,0,0,1-2.42,5.13,7.07,7.07,0,0,1-5,1.83,8.47,8.47,0,0,1-3.65-.75,7.59,7.59,0,0,1-2.68-2,9.1,9.1,0,0,1-1.65-3,12.47,12.47,0,0,1,0-7.39,9.25,9.25,0,0,1,1.65-3,7.85,7.85,0,0,1,2.68-2.06,8.33,8.33,0,0,1,3.65-.77,7.83,7.83,0,0,1,4.92,1.54,6.6,6.6,0,0,1,2.4,4.65h-2.21A6,6,0,0,0,353.81,196.85Z"/><path class="cls-3" d="M363.09,187.43v10h.07a5.27,5.27,0,0,1,2.24-2.64,6.52,6.52,0,0,1,3.53-1,8.84,8.84,0,0,1,3.17.49,5.09,5.09,0,0,1,2,1.38,5.24,5.24,0,0,1,1.08,2.19,12.26,12.26,0,0,1,.32,2.9v11.62h-2.21V201.15a10.45,10.45,0,0,0-.21-2.15,4.57,4.57,0,0,0-.73-1.73,3.55,3.55,0,0,0-1.42-1.16,5.17,5.17,0,0,0-2.22-.42,5.5,5.5,0,0,0-2.36.48,4.93,4.93,0,0,0-1.75,1.29,5.81,5.81,0,0,0-1.12,2,7.85,7.85,0,0,0-.44,2.47v10.53h-2.21v-25Z"/><path class="cls-3" d="M382,187.43V191h-2.2v-3.54Zm0,6.93v18.06h-2.2V194.36Z"/><path class="cls-3" d="M388.22,194.36v3h.1a7,7,0,0,1,2.3-2.63,6.38,6.38,0,0,1,3.62-.94,6.19,6.19,0,0,1,3.24.87,4.35,4.35,0,0,1,1.94,2.66,5.59,5.59,0,0,1,2.38-2.66,6.84,6.84,0,0,1,3.36-.87q6,0,6,6.33v12.25h-2.2V200.28a5.33,5.33,0,0,0-.95-3.41,4,4,0,0,0-3.32-1.18,4.73,4.73,0,0,0-2.38.55,4.2,4.2,0,0,0-1.51,1.45,6.24,6.24,0,0,0-.78,2.08,12.07,12.07,0,0,0-.23,2.43v10.22h-2.21V200.17a7.52,7.52,0,0,0-.19-1.73,4,4,0,0,0-.63-1.43,3,3,0,0,0-1.17-1,4.2,4.2,0,0,0-1.79-.35,5.44,5.44,0,0,0-2.43.51,4.51,4.51,0,0,0-1.68,1.4,6.32,6.32,0,0,0-1,2.1,10.49,10.49,0,0,0-.32,2.64v10.08h-2.2V194.36Z"/><path class="cls-3" d="M427.24,194.36v3.12h.07a5.27,5.27,0,0,1,2.24-2.64,6.56,6.56,0,0,1,3.54-1,8.87,8.87,0,0,1,3.17.49,5,5,0,0,1,2,1.38,5.14,5.14,0,0,1,1.09,2.19,12.28,12.28,0,0,1,.31,2.9v11.62h-2.2V201.15a10.45,10.45,0,0,0-.21-2.15,4.59,4.59,0,0,0-.74-1.73,3.59,3.59,0,0,0-1.41-1.16,5.25,5.25,0,0,0-2.23-.42,5.56,5.56,0,0,0-2.36.48,5,5,0,0,0-1.75,1.29,6,6,0,0,0-1.12,2,8.14,8.14,0,0,0-.44,2.47v10.53H425V194.36Z"/><path class="cls-3" d="M456.47,212.42v-3.25h-.07a6.29,6.29,0,0,1-2.54,2.78,7.25,7.25,0,0,1-3.69,1,7.87,7.87,0,0,1-2.92-.47,4.72,4.72,0,0,1-2-1.35,5.41,5.41,0,0,1-1.11-2.13,10.9,10.9,0,0,1-.35-2.87V194.36H446v11.76a5.78,5.78,0,0,0,1.14,3.71,4.62,4.62,0,0,0,3.69,1.26,4.66,4.66,0,0,0,2.45-.61,5.33,5.33,0,0,0,1.68-1.63,7.35,7.35,0,0,0,1-2.32,11.48,11.48,0,0,0,.31-2.68v-9.49h2.21v18.06Z"/><path class="cls-3" d="M463.33,208.71h2.94v3.71h-2.94Zm.28-21.28H466v7.46l-.53,11.3h-1.33l-.52-11.3Z"/><path class="cls-3" d="M471.76,208.71h2.94v3.71h-2.94Zm.28-21.28h2.38v7.46l-.52,11.3h-1.33l-.53-11.3Z"/><path class="cls-3" d="M480.2,208.71h2.94v3.71H480.2Zm.28-21.28h2.38v7.46l-.53,11.3H481l-.52-11.3Z"/></svg>
