<svg id="Layer_1" data-name="Layer 1" xmlns="http://www.w3.org/2000/svg" width="1080" height="1920" viewBox="0 0 1080 1920"><defs><style>.cls-1{fill:#dcdfe6;}.cls-11,.cls-12,.cls-2{fill:#fff;}.cls-3{fill:#999;}.cls-4{fill:#bcc0cc;}.cls-10,.cls-5,.cls-9{fill:#343740;}.cls-6{fill:#a1a5b3;}.cls-7{fill:gray;}.cls-8{fill:#fefefe;}.cls-10,.cls-11,.cls-9{stroke:#fff;stroke-miterlimit:10;stroke-width:3px;}.cls-10{opacity:0.64;}.cls-12{opacity:0.75;}</style></defs><title>mobillås2</title><rect class="cls-1" x="1063.48" y="362.16" width="21.52" height="125.16"/><rect class="cls-1" width="1078.85" height="1920" rx="44.6" ry="44.6"/><rect class="cls-2" x="36.88" y="202.39" width="998.94" height="1517.89"/><rect class="cls-3" x="467.2" y="87.88" width="144.46" height="10.65" rx="2" ry="2"/><path class="cls-4" d="M543.6,1751c-42.2,0-76.4,31.27-76.4,69.85s34.2,69.86,76.4,69.86,76.4-31.28,76.4-69.86S585.79,1751,543.6,1751Zm0,130.6c-34.86,0-63.12-26.52-63.12-59.23s28.26-59.22,63.12-59.22,63.11,26.51,63.11,59.22S578.46,1881.6,543.6,1881.6Z"/><ellipse class="cls-3" cx="390.35" cy="93.2" rx="15.37" ry="13.31"/><rect class="cls-5" x="37" y="258.31" width="1001.9" height="1461.97"/><ellipse class="cls-1" cx="545.57" cy="35.95" rx="10.76" ry="9.32"/><ellipse class="cls-6" cx="539.5" cy="35.95" rx="10.76" ry="9.32"/><rect class="cls-5" x="37" y="202.39" width="1001.9" height="55.92"/><rect class="cls-3" x="1023.53" y="223.69" width="3.07" height="10.65"/><rect class="cls-7" x="971.27" y="218.36" width="52.25" height="21.3"/><rect class="cls-8" x="974.35" y="221.03" width="46.1" height="15.98"/><rect class="cls-8" x="1023.53" y="226.35" width="3.07" height="5.33"/><path class="cls-2" d="M103.88,238v-5.47H94.06v-2.75l10.25-14.22h2.38v14.52H110v2.45h-3.29V238Zm0-7.92V220l-7.17,10.14Z"/><path class="cls-2" d="M129,215.73a8.17,8.17,0,0,1,4.19,6.3h-3.08a5.57,5.57,0,0,0-2.33-3.66,8,8,0,0,0-4.45-1.15,7,7,0,0,0-5.37,2.39c-1.45,1.59-2.18,4-2.18,7.12a11.38,11.38,0,0,0,1.8,6.67q1.8,2.57,5.86,2.57a7.46,7.46,0,0,0,5.15-1.81q2-1.8,2.08-5.83h-7.19v-2.58h10.08V238h-2l-.75-2.95a11.7,11.7,0,0,1-2.79,2.4,10.52,10.52,0,0,1-5.21,1.16,10.11,10.11,0,0,1-7-2.64q-3.21-3.31-3.21-9.09c0-3.85,1-6.9,3.13-9.18a10,10,0,0,1,7.69-3.25A11.82,11.82,0,0,1,129,215.73Z"/><rect class="cls-8" x="57" y="221" width="7" height="18" rx="0.75" ry="0.75"/><rect class="cls-8" x="47" y="226" width="7" height="13" rx="0.75" ry="0.75"/><rect class="cls-8" x="66" y="217" width="7" height="22" rx="0.75" ry="0.75"/><rect class="cls-8" x="76" y="214" width="7" height="25" rx="0.75" ry="0.75"/><path class="cls-2" d="M915,226.38V225a7.66,7.66,0,0,0,2.79-.65,3.23,3.23,0,0,0,1.18-2.16h1.45v14.62h-2v-10.4Z"/><path class="cls-2" d="M934.48,224.45a10.43,10.43,0,0,1,1,5,11.87,11.87,0,0,1-.9,5,4.37,4.37,0,0,1-4.22,2.81,4.22,4.22,0,0,1-3.94-2.3,10.56,10.56,0,0,1-1.07-5.14,12.77,12.77,0,0,1,.64-4.3q1.21-3.34,4.38-3.34A4.33,4.33,0,0,1,934.48,224.45Zm-1.85,9.78c.56-.85.85-2.43.85-4.74a11.72,11.72,0,0,0-.62-4.12,2.34,2.34,0,0,0-2.39-1.61,2.5,2.5,0,0,0-2.38,1.53,10.64,10.64,0,0,0-.75,4.52,11.13,11.13,0,0,0,.48,3.61,2.62,2.62,0,0,0,4.81.81Z"/><path class="cls-2" d="M946.16,224.45a10.43,10.43,0,0,1,1,5,11.87,11.87,0,0,1-.9,5,4.37,4.37,0,0,1-4.22,2.81,4.22,4.22,0,0,1-3.94-2.3,10.56,10.56,0,0,1-1.07-5.14,12.77,12.77,0,0,1,.64-4.3q1.22-3.34,4.38-3.34A4.33,4.33,0,0,1,946.16,224.45Zm-1.85,9.78c.56-.85.85-2.43.85-4.74a11.72,11.72,0,0,0-.62-4.12,2.35,2.35,0,0,0-2.39-1.61,2.5,2.5,0,0,0-2.38,1.53,10.64,10.64,0,0,0-.75,4.52,11.13,11.13,0,0,0,.48,3.61,2.62,2.62,0,0,0,4.81.81Z"/><path class="cls-2" d="M954.82,223.59a3.58,3.58,0,0,1-2.54,6.1,3.58,3.58,0,1,1,2.54-6.1Zm-1,4a2,2,0,0,0,.62-1.49,2.12,2.12,0,0,0-2.13-2.12,2.12,2.12,0,0,0,0,4.23A2.08,2.08,0,0,0,953.79,227.61Zm7.08-5.45H962l-8.21,15h-1.14Zm4,8.53a3.57,3.57,0,0,1-5.06,5,3.57,3.57,0,0,1,0-5,3.57,3.57,0,0,1,5.06,0Zm-1,4a2.1,2.1,0,0,0,0-3,2.12,2.12,0,0,0-3,0,2.11,2.11,0,0,0,3,3Z"/><ellipse class="cls-9" cx="534.84" cy="1547.61" rx="115.55" ry="115.39"/><ellipse class="cls-10" cx="534.84" cy="1250.33" rx="115.55" ry="115.39"/><ellipse class="cls-10" cx="534.84" cy="953.05" rx="115.55" ry="115.39"/><ellipse class="cls-10" cx="881.84" cy="1251.33" rx="115.55" ry="115.39"/><ellipse class="cls-10" cx="881.84" cy="954.05" rx="115.55" ry="115.39"/><ellipse class="cls-10" cx="194.84" cy="1246.33" rx="115.55" ry="115.39"/><path class="cls-2" d="M281.48,305.43a11.72,11.72,0,0,0,1.73,5.95q2.9,4.28,10.22,4.28a18,18,0,0,0,6-.94q5.22-1.82,5.22-6.5c0-2.35-.74-4-2.2-5a22.11,22.11,0,0,0-7-2.55l-5.83-1.32q-5.72-1.29-8.09-2.84a9,9,0,0,1-4.1-8.06,12.43,12.43,0,0,1,4-9.52q4-3.72,11.37-3.72a19.75,19.75,0,0,1,11.5,3.27q4.73,3.27,4.73,10.44h-5.48a10.83,10.83,0,0,0-1.87-5.3q-2.67-3.37-9.06-3.37c-3.43,0-5.91.72-7.41,2.17a6.79,6.79,0,0,0-2.26,5,4.92,4.92,0,0,0,2.64,4.63,39.26,39.26,0,0,0,7.82,2.34l6,1.38a18.46,18.46,0,0,1,6.74,2.72q4.1,3,4.1,8.76,0,7.16-5.2,10.22A23.23,23.23,0,0,1,293,320.58q-8,0-12.56-4.1T276,305.43Z"/><path class="cls-2" d="M316.87,276.28h5.07v25l13.53-13.33h6.74l-12,11.75,12.69,19.63h-6.74l-9.79-15.82-4.42,4v11.78h-5.07Z"/><path class="cls-2" d="M347.13,287.94h5v5.42a12.12,12.12,0,0,1,3-3.85,7.84,7.84,0,0,1,5.54-2.27l.5,0,1.2.12V293c-.31-.05-.6-.09-.87-.11s-.55,0-.86,0a7.5,7.5,0,0,0-6.12,2.56,8.93,8.93,0,0,0-2.14,5.9v18.05h-5.28Z"/><path class="cls-2" d="M367,276.28h5.36v6H367Zm0,11.81h5.36v31.23H367Z"/><path class="cls-2" d="M382.88,287.94l8.38,25.55L400,287.94h5.77L394,319.32h-5.62l-11.58-31.38Z"/><path class="cls-2" d="M443.79,300.31a2.87,2.87,0,0,0,2.43-1.53,4.67,4.67,0,0,0,.35-2,4.29,4.29,0,0,0-1.92-3.91,10.3,10.3,0,0,0-5.49-1.21q-4.14,0-5.86,2.22a7.22,7.22,0,0,0-1.26,3.66h-4.92c.09-3.86,1.35-6.55,3.76-8.07a15.48,15.48,0,0,1,8.39-2.27,17.18,17.18,0,0,1,9,2.11,7.18,7.18,0,0,1,3.43,6.56v18.08a2.35,2.35,0,0,0,.33,1.32,1.64,1.64,0,0,0,1.42.5,7.79,7.79,0,0,0,.79-.05c.3,0,.61-.07.94-.13v3.9a15.74,15.74,0,0,1-1.87.44,13.45,13.45,0,0,1-1.76.09,4.34,4.34,0,0,1-4-1.94,7.35,7.35,0,0,1-.9-2.9,13.39,13.39,0,0,1-4.63,3.66,14.29,14.29,0,0,1-6.65,1.56,9.91,9.91,0,0,1-7.14-2.66,8.8,8.8,0,0,1-2.77-6.63,8.54,8.54,0,0,1,2.73-6.77,13,13,0,0,1,7.15-3Zm-11.11,14.27a6.23,6.23,0,0,0,4,1.31A12,12,0,0,0,442,314.6a7.24,7.24,0,0,0,4.39-7v-4.25a8.81,8.81,0,0,1-2.49,1,21.92,21.92,0,0,1-3,.59l-3.19.41a12.13,12.13,0,0,0-4.31,1.2A4.68,4.68,0,0,0,431,311,4.36,4.36,0,0,0,432.68,314.58Z"/><path class="cls-2" d="M477.65,288.91a14.32,14.32,0,0,1,3.2,3.08V276.14h5.06v43.18h-4.74V315a11.45,11.45,0,0,1-4.37,4.19,12.6,12.6,0,0,1-5.77,1.28A11.68,11.68,0,0,1,462,316q-3.84-4.41-3.84-11.74a20.28,20.28,0,0,1,3.5-11.88,11.47,11.47,0,0,1,10-5A11.2,11.2,0,0,1,477.65,288.91Zm-11.83,23.53c1.42,2.26,3.71,3.39,6.85,3.39a7.21,7.21,0,0,0,6-3.14c1.57-2.1,2.36-5.12,2.36-9s-.81-6.9-2.43-8.81a7.59,7.59,0,0,0-6-2.85,7.93,7.93,0,0,0-6.46,3c-1.65,2-2.47,5-2.47,9A15.53,15.53,0,0,0,465.82,312.44Z"/><path class="cls-2" d="M511.23,289.2a14.62,14.62,0,0,1,3,3v-3.95h4.87v28.53a21.09,21.09,0,0,1-1.76,9.44q-3.28,6.38-12.39,6.38a15.18,15.18,0,0,1-8.53-2.27,8.88,8.88,0,0,1-3.87-7.1H498a6,6,0,0,0,1.52,3.25q1.78,1.75,5.62,1.76,6.07,0,7.94-4.28,1.13-2.52,1-9a10.41,10.41,0,0,1-3.81,3.57,12.68,12.68,0,0,1-5.89,1.17,12.54,12.54,0,0,1-8.92-3.62q-3.82-3.61-3.82-12,0-7.89,3.85-12.31a11.91,11.91,0,0,1,9.3-4.42A11.47,11.47,0,0,1,511.23,289.2Zm.64,5.66a7.67,7.67,0,0,0-6.12-2.81,7.56,7.56,0,0,0-7.62,5.21,20.56,20.56,0,0,0-1.08,7.3c0,3.53.71,6.22,2.15,8.07A7,7,0,0,0,505,315.4a8.11,8.11,0,0,0,8-5.13,16.55,16.55,0,0,0,1.29-6.77Q514.27,297.67,511.87,294.86Z"/><path class="cls-2" d="M543.89,300.31a2.87,2.87,0,0,0,2.43-1.53,4.5,4.5,0,0,0,.36-2,4.29,4.29,0,0,0-1.92-3.91,10.32,10.32,0,0,0-5.5-1.21q-4.12,0-5.86,2.22a7.41,7.41,0,0,0-1.26,3.66h-4.92q.15-5.79,3.77-8.07a15.48,15.48,0,0,1,8.39-2.27,17.18,17.18,0,0,1,9,2.11,7.17,7.17,0,0,1,3.42,6.56v18.08a2.35,2.35,0,0,0,.34,1.32,1.63,1.63,0,0,0,1.42.5c.23,0,.5,0,.79-.05s.61-.07.94-.13v3.9a15.8,15.8,0,0,1-1.88.44,13.28,13.28,0,0,1-1.75.09,4.34,4.34,0,0,1-4-1.94,7.5,7.5,0,0,1-.91-2.9,13.2,13.2,0,0,1-4.63,3.66,14.23,14.23,0,0,1-6.65,1.56,9.88,9.88,0,0,1-7.13-2.66,8.76,8.76,0,0,1-2.77-6.63,8.54,8.54,0,0,1,2.73-6.77,13,13,0,0,1,7.14-3Zm-11.1,14.27a6.22,6.22,0,0,0,4,1.31,12,12,0,0,0,5.39-1.29,7.25,7.25,0,0,0,4.4-7v-4.25a9.06,9.06,0,0,1-2.49,1,22.23,22.23,0,0,1-3,.59l-3.19.41a12.07,12.07,0,0,0-4.31,1.2,4.68,4.68,0,0,0-2.43,4.39A4.36,4.36,0,0,0,532.79,314.58Z"/><path class="cls-2" d="M560.45,287.94h5v4.46a14,14,0,0,1,4.71-4,12.6,12.6,0,0,1,5.54-1.2q6.67,0,9,4.66a16.52,16.52,0,0,1,1.29,7.29v20.13h-5.36V299.55a10.64,10.64,0,0,0-.85-4.63,5.15,5.15,0,0,0-5.1-2.93,10.14,10.14,0,0,0-3.07.38,7.89,7.89,0,0,0-3.81,2.58,7.8,7.8,0,0,0-1.72,3.2,22,22,0,0,0-.39,4.74v16.43h-5.27Z"/><path class="cls-2" d="M611.33,289.2a14.41,14.41,0,0,1,3,3v-3.95h4.86v28.53c0,4-.58,7.13-1.75,9.44q-3.29,6.38-12.4,6.38a15.12,15.12,0,0,1-8.52-2.27,8.82,8.82,0,0,1-3.87-7.1h5.36a6,6,0,0,0,1.53,3.25q1.78,1.75,5.62,1.76,6.06,0,7.94-4.28,1.11-2.52,1-9a10.41,10.41,0,0,1-3.81,3.57,12.71,12.71,0,0,1-5.89,1.17,12.54,12.54,0,0,1-8.92-3.62q-3.82-3.61-3.83-12,0-7.89,3.86-12.31a11.91,11.91,0,0,1,9.3-4.42A11.41,11.41,0,0,1,611.33,289.2Zm.65,5.66a7.67,7.67,0,0,0-6.12-2.81,7.55,7.55,0,0,0-7.62,5.21,20.53,20.53,0,0,0-1.09,7.3q0,5.29,2.16,8.07a7,7,0,0,0,5.78,2.77,8.12,8.12,0,0,0,8-5.13,16.55,16.55,0,0,0,1.29-6.77Q614.38,297.67,612,294.86Z"/><path class="cls-2" d="M630.32,309.48a7.54,7.54,0,0,0,1.32,4c1.32,1.7,3.63,2.55,6.91,2.55a10.23,10.23,0,0,0,5.16-1.28,4.22,4.22,0,0,0,2.22-3.94,3.36,3.36,0,0,0-1.78-3.07,21.57,21.57,0,0,0-4.52-1.5l-4.18-1a20.29,20.29,0,0,1-5.92-2.23,6.64,6.64,0,0,1-3.4-5.92,9,9,0,0,1,3.21-7.2,12.77,12.77,0,0,1,8.62-2.76q7.1,0,10.23,4.16a9,9,0,0,1,1.9,5.69h-5a6,6,0,0,0-1.26-3.25q-1.82-2.09-6.3-2.08a7.51,7.51,0,0,0-4.52,1.14,3.57,3.57,0,0,0-1.54,3,3.71,3.71,0,0,0,2,3.28,12.11,12.11,0,0,0,3.46,1.29l3.49.85q5.67,1.36,7.61,2.66,3.07,2,3.08,6.36a9.71,9.71,0,0,1-3.18,7.24q-3.18,3-9.68,3-7,0-9.92-3.18a12.05,12.05,0,0,1-3.12-7.86Z"/><path class="cls-2" d="M657.07,276.28h5.06v25l13.54-13.33h6.74l-12,11.75,12.68,19.63h-6.74l-9.78-15.82-4.43,4v11.78h-5.06Z"/><path class="cls-2" d="M710.09,291.08q4.2,4,4.19,11.89,0,7.59-3.69,12.54t-11.45,4.95a12.94,12.94,0,0,1-10.29-4.38Q685,311.7,685,304.32q0-7.9,4-12.6A13.47,13.47,0,0,1,699.84,287,14.18,14.18,0,0,1,710.09,291.08ZM706.83,312a19.74,19.74,0,0,0,1.95-8.83,15.71,15.71,0,0,0-1.41-7.15c-1.49-2.89-4-4.33-7.68-4.33q-4.83,0-7,3.69a17.15,17.15,0,0,0-2.2,8.9,14.91,14.91,0,0,0,2.2,8.35q2.21,3.35,7,3.34Q704.88,315.92,706.83,312Z"/><path class="cls-2" d="M737.87,288.91a14.31,14.31,0,0,1,3.19,3.08V276.14h5.07v43.18h-4.75V315a11.43,11.43,0,0,1-4.36,4.19,12.63,12.63,0,0,1-5.77,1.28,11.69,11.69,0,0,1-9.09-4.4q-3.82-4.41-3.83-11.74a20.21,20.21,0,0,1,3.5-11.88,11.45,11.45,0,0,1,10-5A11.23,11.23,0,0,1,737.87,288.91ZM726,312.44c1.43,2.26,3.71,3.39,6.86,3.39a7.22,7.22,0,0,0,6-3.14c1.57-2.1,2.36-5.12,2.36-9s-.81-6.9-2.44-8.81a7.58,7.58,0,0,0-6-2.85,7.92,7.92,0,0,0-6.46,3c-1.65,2-2.48,5-2.48,9A15.62,15.62,0,0,0,726,312.44Z"/><path class="cls-2" d="M773.46,288.81a12,12,0,0,1,4.78,4.06,14,14,0,0,1,2.11,5.53,36.48,36.48,0,0,1,.47,6.92h-23a13.48,13.48,0,0,0,2.25,7.66q2.11,2.88,6.54,2.88a8.43,8.43,0,0,0,6.59-2.72,9.21,9.21,0,0,0,2-3.66h5.19a10.88,10.88,0,0,1-1.37,3.85,13.54,13.54,0,0,1-2.59,3.47,12.32,12.32,0,0,1-5.95,3.17,18.11,18.11,0,0,1-4.3.46,13.2,13.2,0,0,1-9.93-4.26q-4.08-4.26-4.08-11.94T756.27,292A13.5,13.5,0,0,1,767,287.24,14.25,14.25,0,0,1,773.46,288.81Zm1.94,12.32a13.76,13.76,0,0,0-1.5-5.48c-1.44-2.54-3.86-3.81-7.23-3.81a8,8,0,0,0-6.1,2.62,9.93,9.93,0,0,0-2.61,6.67Z"/><ellipse class="cls-11" cx="364.85" cy="402" rx="40.56" ry="40.5"/><ellipse class="cls-9" cx="487.85" cy="402" rx="40.56" ry="40.5"/><ellipse class="cls-9" cx="611.85" cy="402" rx="40.56" ry="40.5"/><ellipse class="cls-9" cx="725.85" cy="402" rx="40.56" ry="40.5"/><path class="cls-2" d="M514.61,925.67q1,9,8.38,12.48a20.24,20.24,0,0,0,8.67,1.75q9.38,0,13.88-6a21.48,21.48,0,0,0,4.52-13.25q0-8.77-5.36-13.59a18.65,18.65,0,0,0-12.87-4.8,19.32,19.32,0,0,0-9.34,2.11,20,20,0,0,0-6.65,5.85l-9.14-.52,6.38-45.18h43.6v10.2H521l-3.57,23.32a25.77,25.77,0,0,1,5.57-3.34,28.19,28.19,0,0,1,10.84-1.94,27.72,27.72,0,0,1,19.57,7.45,24.6,24.6,0,0,1,8,18.86,32.4,32.4,0,0,1-7.35,21q-7.35,9.07-23.47,9.08a29.86,29.86,0,0,1-18.13-5.77q-7.89-5.77-8.82-17.72Z"/><path class="cls-2" d="M900.48,870.09q5.53,7.29,5.54,15H895.59a19.22,19.22,0,0,0-3-7.79q-3.81-5.28-11.54-5.28-8.85,0-14.07,8.18t-5.8,23.4a23,23,0,0,1,9.14-8,26.25,26.25,0,0,1,11.25-2.35,27.36,27.36,0,0,1,18.4,6.74q7.86,6.74,7.85,20.1a30.5,30.5,0,0,1-7.44,20.24q-7.44,8.82-21.21,8.82a27.19,27.19,0,0,1-20.33-8.94q-8.55-8.92-8.56-30.08,0-15.65,3.81-26.55,7.33-20.85,26.78-20.86Q895,862.79,900.48,870.09Zm-7.91,64.16A21.67,21.67,0,0,0,896.7,921,22.61,22.61,0,0,0,893,908.76q-3.69-5.84-13.42-5.83a17.53,17.53,0,0,0-11.92,4.51q-5.13,4.51-5.13,13.6a19.78,19.78,0,0,0,4.66,13.38q4.65,5.43,12.92,5.42T892.57,934.25Z"/><path class="cls-2" d="M224.54,1160.55v9.2q-4,3.93-10.75,13.65a138.34,138.34,0,0,0-11.87,21,142.64,142.64,0,0,0-7.73,20q-1.71,5.81-4.4,18.69H178.13q4-24,17.58-47.81a151.73,151.73,0,0,1,16.87-24.08h-46.4v-10.61Z"/><path class="cls-2" d="M511.21,1193q-4.63-4.68-4.63-12.19a21.89,21.89,0,0,1,6.8-16.11q6.79-6.74,19.27-6.74,12.08,0,18.93,6.36t6.86,14.85q0,7.86-4,12.72a24,24,0,0,1-6.91,5.39,26.85,26.85,0,0,1,8.2,5.51q5.57,5.85,5.57,15.23a26,26,0,0,1-7.44,18.78q-7.46,7.71-21,7.7-12.24,0-20.71-6.65t-8.47-19.3a21.45,21.45,0,0,1,14.41-21.16A20.76,20.76,0,0,1,511.21,1193Zm34,37.94q4.85-4,4.84-11.81,0-8.14-5-12.36t-12.78-4.22q-7.56,0-12.33,4.31t-4.78,11.92a16.23,16.23,0,0,0,4.37,11.34q4.37,4.77,13.5,4.77A18.54,18.54,0,0,0,545.22,1230.89Zm-1.9-41.48a12.63,12.63,0,0,0,3.92-9.29,12.25,12.25,0,0,0-3.75-8.62q-3.75-3.91-11.42-3.92t-11,3.92a13.66,13.66,0,0,0-3.4,9.2,11,11,0,0,0,4.4,9.26,16.64,16.64,0,0,0,10.37,3.34Q539.4,1193.3,543.32,1189.41Z"/><path class="cls-2" d="M869.72,1222.78q.46,8.73,6.74,12.07a14.94,14.94,0,0,0,7.26,1.76q7.56,0,12.9-6.3t7.55-25.58a19.48,19.48,0,0,1-8.7,7.82,27.56,27.56,0,0,1-11.16,2.26q-12.13,0-19.19-7.56t-7.06-19.45a31.13,31.13,0,0,1,7-20.1q7-8.67,20.57-8.67,18.35,0,25.31,16.52,3.87,9.09,3.87,22.74,0,15.4-4.63,27.3-7.68,19.8-26,19.81-12.3,0-18.69-6.45a22.07,22.07,0,0,1-6.38-16.17Zm27.45-21.36q5.19-4.12,5.19-14.44,0-9.26-4.66-13.8a16.29,16.29,0,0,0-11.87-4.54q-7.73,0-12.27,5.18T869,1187.68q0,8.21,4,13t12.72,4.83A18,18,0,0,0,897.17,1201.42Z"/><path class="cls-2" d="M554.8,1471.56q5.63,10.38,5.62,28.42,0,17.12-5.09,28.3-7.4,16.07-24.14,16.06-15.12,0-22.5-13.13-6.17-10.95-6.16-29.41,0-14.29,3.69-24.55,6.91-19.11,25-19.1Q547.53,1458.15,554.8,1471.56Zm-10.61,55.9q4.88-7.26,4.87-27.07,0-14.3-3.52-23.52t-13.65-9.23q-9.32,0-13.62,8.76T514,1502.21q0,12.82,2.75,20.62,4.23,11.89,14.42,11.9Q539.34,1534.73,544.19,1527.46Z"/><path class="cls-12" d="M813.93,1267.12l6.49,28,7.78-28h5.07l7.78,28,6.49-28h5.11l-9,34.43h-4.9L830.76,1273l-8,28.55h-4.9l-9-34.43Z"/><path class="cls-12" d="M859.91,1301.55h-5.62l12.33-17.65-11.56-16.78h5.84l8.79,13.17,8.72-13.17H884l-11.55,16.78,12.11,17.65h-5.79l-9.28-14.16Z"/><path class="cls-12" d="M886.3,1267.12h5.44l9.89,16.54,9.89-16.54H917l-13,20.55v13.88h-4.67v-13.88Z"/><path class="cls-12" d="M918.44,1297.68l21.11-26.46H920v-4.1h25.57v4l-21.23,26.32h21.23v4.1H918.44Z"/><path class="cls-12" d="M514.71,1275.12v4.1h-11.6v30.33h-4.73v-30.33H486.77v-4.1Z"/><path class="cls-12" d="M524,1275.12v21.28a12.46,12.46,0,0,0,1.41,6.23q2.09,3.75,7,3.75,5.92,0,8.06-4.05a13,13,0,0,0,1.15-5.93v-21.28h4.73v19.33q0,6.36-1.71,9.78-3.13,6.23-11.86,6.23T521,1304.23c-1.14-2.28-1.72-5.54-1.72-9.78v-19.33Z"/><path class="cls-12" d="M556.36,1275.12l9.89,29.32,9.77-29.32h5.23l-12.56,34.43h-5l-12.54-34.43Z"/><path class="cls-12" d="M125.1,1267.12h15.49a10.48,10.48,0,0,1,7.41,2.59,9.36,9.36,0,0,1,2.81,7.27,10.53,10.53,0,0,1-2.51,7c-1.67,2-4.24,3-7.71,3H129.77v14.56H125.1Zm18.19,4.73a10.24,10.24,0,0,0-4.24-.72h-9.28v11.92h9.28a8.85,8.85,0,0,0,5.09-1.33q2-1.34,2-4.71Q146.1,1273.22,143.29,1271.85Z"/><path class="cls-12" d="M157.23,1267.12h15.94a15.78,15.78,0,0,1,6.49,1.15c3.24,1.46,4.86,4.18,4.86,8.13a8.48,8.48,0,0,1-4.86,8.23,7,7,0,0,1,3,2.15,7.77,7.77,0,0,1,1.14,4.34l.16,4.61a14.45,14.45,0,0,0,.33,2.93,2.86,2.86,0,0,0,1.5,2.11v.78h-5.72a4.42,4.42,0,0,1-.38-1.15,22.73,22.73,0,0,1-.23-2.72l-.28-5.74q-.16-3.37-2.51-4.53a10.4,10.4,0,0,0-4.19-.63H161.9v14.77h-4.67Zm15.45,15.77a9.06,9.06,0,0,0,5.19-1.31c1.27-.88,1.91-2.45,1.91-4.74q0-3.67-2.67-5a8.72,8.72,0,0,0-3.82-.7H161.9v11.76Z"/><path class="cls-12" d="M222.84,1301.45l-2.35,2.84-5.32-4.06a19.39,19.39,0,0,1-4.16,1.69,18,18,0,0,1-4.88.63q-8,0-12.57-5.25a20.09,20.09,0,0,1-4-12.79,20.4,20.4,0,0,1,3.47-12q4.46-6.37,13.18-6.37,9.11,0,13.5,5.86,3.42,4.57,3.42,11.69a25,25,0,0,1-.82,6.4,16.53,16.53,0,0,1-4.2,7.64Zm-13.43-3.27a5.81,5.81,0,0,0,2.2-.78l-3.77-3,2.34-2.89,4.5,3.49a12.9,12.9,0,0,0,2.89-5.46,23.55,23.55,0,0,0,.77-5.79q0-6.06-3.18-9.77a10.83,10.83,0,0,0-8.68-3.7,11.39,11.39,0,0,0-8.84,3.55q-3.25,3.55-3.26,10.93,0,6.21,3.13,9.89t9.18,3.68A16.72,16.72,0,0,0,209.41,1298.18Z"/><path class="cls-12" d="M231.72,1290.44a9.46,9.46,0,0,0,1.38,4.76q2.33,3.42,8.18,3.42a14.44,14.44,0,0,0,4.78-.75q4.17-1.45,4.17-5.21a4.48,4.48,0,0,0-1.75-4,17.88,17.88,0,0,0-5.58-2l-4.67-1.06a20.83,20.83,0,0,1-6.46-2.27,7.21,7.21,0,0,1-3.29-6.45,9.88,9.88,0,0,1,3.22-7.61q3.21-3,9.09-3a15.82,15.82,0,0,1,9.2,2.61q3.78,2.63,3.78,8.36h-4.38a8.53,8.53,0,0,0-1.5-4.24c-1.42-1.8-3.84-2.7-7.24-2.7q-4.12,0-5.93,1.74a5.43,5.43,0,0,0-1.81,4,4,4,0,0,0,2.11,3.7,31.07,31.07,0,0,0,6.26,1.88l4.83,1.1a14.65,14.65,0,0,1,5.39,2.18,8.14,8.14,0,0,1,3.28,7q0,5.73-4.16,8.18a18.61,18.61,0,0,1-9.67,2.46q-6.42,0-10-3.28a11,11,0,0,1-3.56-8.83Z"/><path class="cls-12" d="M832.54,985.12h6.68l9.89,29.11,9.82-29.11h6.61v34.43h-4.43V999.23c0-.71,0-1.87,0-3.5s0-3.36,0-5.22l-9.82,29h-4.61l-9.89-29v1c0,.85,0,2.13,0,3.86s.06,3,.06,3.81v20.32h-4.45Z"/><path class="cls-12" d="M872.64,985.12h5.51L895.54,1013V985.12H900v34.43h-5.23l-17.65-27.87v27.87h-4.45Z"/><path class="cls-12" d="M935.66,990q3.44,4.58,3.43,11.69,0,7.72-3.92,12.82-4.59,6-13.1,6-8,0-12.49-5.25-4.05-5.06-4.06-12.79a20.4,20.4,0,0,1,3.47-12q4.46-6.37,13.17-6.37Q931.28,984.18,935.66,990ZM931.55,1012a18.75,18.75,0,0,0,2.75-10.16q0-6.06-3.17-9.77a10.83,10.83,0,0,0-8.68-3.7,11.29,11.29,0,0,0-8.72,3.67q-3.37,3.66-3.38,10.81a15.81,15.81,0,0,0,2.9,9.65q2.89,3.91,9.38,3.92Q928.8,1016.38,931.55,1012Z"/><path class="cls-12" d="M510.55,1000.28a14.53,14.53,0,0,1-1.28,6.77q-2.4,4.41-9.1,4.41a10.55,10.55,0,0,1-6.61-2.1c-1.83-1.4-2.74-3.88-2.74-7.46v-2.46h4.38v2.46a6.21,6.21,0,0,0,1.26,4.23,5,5,0,0,0,3.9,1.42c2.48,0,4.11-.85,4.87-2.56q.7-1.56.71-5.93V976.12h4.61Z"/><path class="cls-12" d="M517.66,976.12h4.54V992.9L539,976.12h6.45L531.11,990l14.72,20.56h-6.07l-12-17.28-5.51,5.28v12h-4.54Z"/><path class="cls-12" d="M549.67,976.12h4.67v30.33h17.43v4.1h-22.1Z"/></svg>