<svg id="Layer_1" data-name="Layer 1" xmlns="http://www.w3.org/2000/svg" width="220" height="165" viewBox="0 0 220 165"><defs><style>.cls-1{fill:#2c3e50;}.cls-2{opacity:0.5;}.cls-3{fill:#34495e;}</style></defs><title>nej</title><path class="cls-1" d="M57,54,86.14,96.25h.14V54H91v50H85.72L56.6,61.67h-.14V104H51.7V54Z"/><path class="cls-1" d="M135.56,54V58H105.81V76.09h27.86v4.06H105.81V99.89h30.1V104H101.05V54Z"/><path class="cls-1" d="M167.48,54V90a25.42,25.42,0,0,1-.77,6.65,10,10,0,0,1-7,7.35,22,22,0,0,1-6.83.91,15.07,15.07,0,0,1-7-1.43,11.32,11.32,0,0,1-4.27-3.78,14.46,14.46,0,0,1-2.1-5.43,35.86,35.86,0,0,1-.56-6.37h4.76c.05,1.07.12,2.36.21,3.85a13.16,13.16,0,0,0,1,4.27,8.22,8.22,0,0,0,2.77,3.47,9.37,9.37,0,0,0,5.63,1.43,12.43,12.43,0,0,0,4.62-.73,6.13,6.13,0,0,0,2.87-2.31,10.4,10.4,0,0,0,1.47-4,35.33,35.33,0,0,0,.42-5.88V54Z"/><g class="cls-2"><rect class="cls-3" x="3.66" y="-0.02" width="212.68" height="165.03" rx="82.52"/></g></svg>
