<svg id="Layer_1" data-name="Layer 1" xmlns="http://www.w3.org/2000/svg" width="5400" height="1577" viewBox="0 0 5400 1577"><defs><style>.cls-1{fill:#fff;}.cls-2{fill:#2b987f;}.cls-3{fill:#33a88f;}.cls-4{fill:#6b4d2e;}.cls-5{fill:#7d8a8b;stroke:#304457;}.cls-5,.cls-6,.cls-7{stroke-miterlimit:10;}.cls-6{fill:#93a3a3;stroke:#314559;}.cls-7{fill:#bbc1c5;stroke:#32465a;}.cls-8{fill:#33475c;}.cls-9{fill:#ebeff0;}.cls-10{fill:#d0a637;}.cls-11{fill:#38271a;}.cls-12{fill:#814795;}.cls-13{fill:#634528;}.cls-14{fill:#dd9e87;}.cls-15{fill:#2b3d4f;}.cls-16{fill:#e6be33;}.cls-17{fill:#d7d0c8;}.cls-18{fill:#ececec;}.cls-19{fill:#d05242;}.cls-19,.cls-20{opacity:0.3;}.cls-20{fill:#46a869;}</style></defs><title>nynyspritefatima</title><rect class="cls-1" x="2162.3728" y="0.4436" width="1080" height="1577"/><rect class="cls-2" x="2973.0759" y="530.892" width="63.3055" height="129.987" rx="10.367"/><rect class="cls-2" x="2991.7926" y="465.4841" width="25.8722" height="101.5234" rx="2.367"/><rect class="cls-3" x="2973.0759" y="570.685" width="63.3055" height="47.4135"/><polygon class="cls-2" points="3017.665 515.191 2991.793 515.045 2975.275 533.954 3033.742 533.485 3017.665 515.191"/><ellipse class="cls-4" cx="2961.7081" cy="624.5382" rx="29.0627" ry="29.0823"/><ellipse class="cls-5" cx="2703.1015" cy="178.4136" rx="108.9353" ry="109.0086"/><ellipse class="cls-6" cx="2702.1293" cy="178.4136" rx="86.6967" ry="109.0086"/><ellipse class="cls-7" cx="2703.1015" cy="178.4136" rx="49.562" ry="109.0086"/><rect class="cls-8" x="2700.7171" y="69.405" width="2.8245" height="218.0171"/><rect class="cls-8" x="2700.7171" y="0.4436" width="2.8245" height="218.0171"/><polygon class="cls-8" points="2811.984 181.842 2811.86 184.669 2594.343 184.669 2594.218 181.825 2811.984 181.842"/><polygon class="cls-8" points="2808.276 206.915 2807.471 209.741 2598.717 209.741 2597.927 206.915 2808.276 206.915"/><polygon class="cls-8" points="2797.995 231.987 2796.363 234.813 2609.902 234.813 2608.208 231.987 2797.995 231.987"/><polygon class="cls-8" points="2778.535 257.059 2775.439 259.885 2630.751 259.885 2627.668 257.059 2778.535 257.059"/><polygon class="cls-8" points="2809.89 156.77 2810.42 159.597 2595.783 159.597 2596.313 156.77 2809.89 156.77"/><polygon class="cls-8" points="2801.566 131.698 2802.847 134.524 2603.356 134.524 2604.701 131.698 2801.566 131.698"/><polygon class="cls-8" points="2785.013 106.626 2787.55 109.452 2618.888 109.261 2621.087 106.626 2785.013 106.626"/><polygon class="cls-8" points="2753.102 81.554 2758.24 84.38 2649.115 83.712 2653.031 81.554 2753.102 81.554"/><polygon class="cls-9" points="2611.859 64.009 2630.346 76.444 2648.727 63.903 2638.22 82.403 2648.833 100.797 2630.346 89.439 2611.964 100.903 2623.635 83.241 2611.859 64.009"/><polygon class="cls-9" points="2773.445 240.078 2791.932 252.513 2810.314 239.972 2799.806 258.472 2810.42 276.866 2791.932 265.508 2773.551 276.972 2785.222 259.31 2773.445 240.078"/><polygon class="cls-9" points="2583.398 106.305 2601.157 118.25 2618.815 106.203 2608.721 123.975 2618.917 141.644 2601.157 130.733 2583.5 141.746 2594.711 124.78 2583.398 106.305"/><path class="cls-10" d="M2858.5737,1540.32c-34.785,17.0123-46.2719,31.7456-138.0458,24.2651-83.7044-6.8228-162.5043-14.65-166.7217-25.0459-5.1992-12.8166,14.0649-10.1272,166.7217-25.0458C2720.5279,1514.4929,2870.9929,1534.2456,2858.5737,1540.32Z"/><path class="cls-11" d="M2566.2893,689.7861c3.5485,2.523,16.0188-11.3514,23.1934-19.3337,14.4863-16.1171,36.0662-44.6356,39.0444-53.8506,4.6709-14.4525-35.31,15.1606-53.24,44.5365C2567.5141,673.8731,2563.2407,687.6186,2566.2893,689.7861Z"/><path class="cls-11" d="M2886.6888,706.9014c3.465-2.6367-6.05-18.6856-11.5237-27.9191-11.0527-18.6432-31.8185-47.76-39.72-53.3535-12.3922-8.7719,3.93,38.2468,26.6019,64.1342C2871.8756,700.9854,2883.7122,709.1667,2886.6888,706.9014Z"/><path class="cls-11" d="M2900.1957,541.8384c-2.1954-3.7614-19.2689,3.7433-29.0919,8.0609-19.8335,8.7178-51.2346,25.8135-57.7407,32.9837-10.204,11.2454,38.4156.7346,66.844-18.6463C2892.531,555.8349,2902.0817,545.07,2900.1957,541.8384Z"/><path class="cls-4" d="M2895.2229,947.6315c0,141.1073-22.0936,257.1393-50.3908,270.9067v1.372c-36.5006,3.2552-102.3249,1.0821-104.0844,1.6042-7.2054,2.1382-11.8133.6437-16.0058-1.6042-6.4543,4.0189-7.3076,4.6619-14.7247,2.0414-2.618-.9249-67.4531,3.39-99.7143-2.0414-30.9512,0-56.0421-121.9033-56.0421-272.2787"/><path class="cls-11" d="M2724.91,430.7448c-74.2229,0-134.3927,43.2485-134.3927,96.5981V743.1764c0,41.507,60.17,75.1551,134.3927,75.1551s134.3927-33.6481,134.3927-75.1551V527.3429C2859.3023,473.9933,2799.1327,430.7448,2724.91,430.7448Z"/><path class="cls-12" d="M2905.6887,1071.0312c0-141.1073-23.3218-257.1393-53.1919-270.9067v-1.3719H2604.9307c-32.6717,0-59.1573,121.9032-59.1573,272.2786"/><path class="cls-13" d="M2761.7942,821.2277l.2669-.0014-.451-89.3934-72.2091.3648.4509,89.3934.2668-.0014c.0567,11.2377,16.1478,20.2665,35.94,20.1665S2761.8509,832.4653,2761.7942,821.2277Z"/><path class="cls-4" d="M2596.7705,551.5083V631.85c0,76.436,57.238,138.4,127.8447,138.4S2852.46,708.2863,2852.46,631.85v-80.342Z"/><ellipse class="cls-14" cx="2643.7518" cy="660.879" rx="16.1073" ry="16.1181"/><ellipse class="cls-14" cx="2795.3297" cy="660.879" rx="16.1073" ry="16.1181"/><path class="cls-13" d="M2597.1017,646.8544c-20.1211,0-36.4324-15.2367-36.4324-34.0322s16.3113-34.0321,36.4324-34.0321"/><path class="cls-13" d="M2851.7312,578.79c20.1211,0,36.4324,15.2367,36.4324,34.0321s-16.3113,34.0322-36.4324,34.0322"/><path class="cls-15" d="M2657.2056,590.9507h43.036a2.1937,2.1937,0,0,1,2.1937,2.1937v6.1537a2.1907,2.1907,0,0,1-2.1907,2.1907h-43.036a2.1937,2.1937,0,0,1-2.1937-2.1937v-6.1537a2.1907,2.1907,0,0,1,2.1907-2.1907Z" transform="translate(334.7545 2023.4016) rotate(-43.8843)"/><path class="cls-15" d="M2675.7427,574.8982h7.179a2.5593,2.5593,0,0,1,2.5593,2.5593v38.7938a2.5559,2.5559,0,0,1-2.5559,2.5559h-7.1789a2.5594,2.5594,0,0,1-2.5594-2.5594V577.454A2.5559,2.5559,0,0,1,2675.7427,574.8982Z" transform="translate(334.4858 2024.0003) rotate(-43.8843)"/><path class="cls-15" d="M2740.5416,590.8953h43.0359a2.1937,2.1937,0,0,1,2.1937,2.1937v6.1536a2.1908,2.1908,0,0,1-2.1908,2.1908h-43.036a2.1937,2.1937,0,0,1-2.1937-2.1937v-6.1537A2.1908,2.1908,0,0,1,2740.5416,590.8953Z" transform="translate(358.0656 2081.1556) rotate(-43.8843)"/><path class="cls-15" d="M2759.0786,574.8428h7.179a2.5593,2.5593,0,0,1,2.5593,2.5593v38.7938a2.5559,2.5559,0,0,1-2.5559,2.5559h-7.179a2.5593,2.5593,0,0,1-2.5593-2.5593V577.3987A2.5559,2.5559,0,0,1,2759.0786,574.8428Z" transform="translate(357.7964 2081.7536) rotate(-43.8843)"/><path class="cls-12" d="M2650.0546,869.9609l-12.9805,8.2908a24.3307,24.3307,0,0,1-33.5145-7.4047L2497.1842,704.0757a24.3666,24.3666,0,0,1,7.4-33.537l12.9806-8.2908a24.3305,24.3305,0,0,1,33.5144,7.4047l106.3754,166.7713A24.3665,24.3665,0,0,1,2650.0546,869.9609Z"/><path class="cls-12" d="M2860.9026,860.5253l-13.9718-6.48A24.3637,24.3637,0,0,1,2835.116,821.8l83.1347-179.5076a24.3335,24.3335,0,0,1,32.224-11.8227l13.9718,6.4794a24.3638,24.3638,0,0,1,11.8148,32.2457l-83.1347,179.5075A24.3335,24.3335,0,0,1,2860.9026,860.5253Z"/><path class="cls-11" d="M2639.5412,493.1245c.1628-4.3529-18.27-7.1808-28.8748-8.8078-21.4123-3.285-57.0781-5.7063-66.4122-3.1457-14.6391,4.0159,32.031,21.235,66.4122,20.1322C2625.571,500.8251,2639.4014,496.8641,2639.5412,493.1245Z"/><path class="cls-11" d="M2652.9127,490.4184c2.0194-3.8588-13.4015-14.3513-22.2736-20.388-17.9137-12.1886-49.0643-29.7374-58.5908-31.4469-14.9409-2.6812,19.7764,32.9644,51.2836,46.779C2636.9905,491.3512,2651.1778,493.7336,2652.9127,490.4184Z"/><path class="cls-11" d="M2663.3273,463.6779c2.0194-3.8589-13.4015-14.3514-22.2736-20.388-17.9138-12.1887-49.0643-29.7375-58.5908-31.4469-14.9409-2.6812,19.7764,32.9644,51.2835,46.7789C2647.4051,464.6107,2661.5924,466.993,2663.3273,463.6779Z"/><path class="cls-11" d="M2884.9853,432.0448c-3.1448-3.012-17.4964,8.9033-25.7533,15.7584-16.6716,13.8413-42.1612,38.9217-46.4451,47.6063-6.7187,13.62,37.1353-9.8691,59.1387-36.3281C2881.4642,447.6111,2887.6869,434.6323,2884.9853,432.0448Z"/><path class="cls-11" d="M2857.8087,404.3872c-3.8246-2.08-14.5466,13.1876-20.7153,21.9715-12.4552,17.7357-30.47,48.6329-32.3255,58.1383-2.9094,14.9079,33.2433-19.279,47.5328-50.5906C2858.4953,420.3325,2861.0945,406.1741,2857.8087,404.3872Z"/><rect class="cls-4" x="2577.0831" y="1116.8632" width="90.5485" height="450.9255" rx="17.4747"/><rect class="cls-4" x="2779.2224" y="1116.8632" width="90.5485" height="450.9255" rx="17.4747"/><rect class="cls-11" x="2722.1911" y="1187.9989" width="5.1015" height="31.9113" rx="0.9845"/><rect class="cls-16" x="2720.3032" y="1224.5721" width="8.8773" height="14.0876" rx="1.7132"/><rect class="cls-16" x="2715.8646" y="1272.7853" width="8.8773" height="14.0876" rx="1.7132"/><rect class="cls-16" x="2726.7739" y="1256.4833" width="8.8773" height="18.9832" rx="1.7132"/><rect class="cls-16" x="2709.4103" y="1289.0873" width="8.8773" height="31.9113" rx="1.7132"/><rect class="cls-16" x="2713.8489" y="1243.145" width="8.8773" height="18.8519" rx="1.7132"/><rect class="cls-16" x="2696.293" y="1500.8355" width="34.83" height="9.8083" rx="1.8916"/><rect class="cls-16" x="2713.708" y="1505.7396" width="34.83" height="9.8083" rx="1.8916"/><rect class="cls-16" x="2700.4161" y="1507.9544" width="34.83" height="9.8083" rx="1.8916"/><rect class="cls-16" x="2689.8387" y="1512.8585" width="34.83" height="9.8083" rx="1.8916"/><rect class="cls-16" x="2707.2537" y="1513.6349" width="34.83" height="9.8083" rx="1.8916"/><rect class="cls-16" x="2722.2698" y="1513.6349" width="34.83" height="9.8083" rx="1.8916"/><rect class="cls-16" x="2696.293" y="1518.5391" width="34.83" height="9.8083" rx="1.8916"/><rect class="cls-16" x="2716.131" y="1518.5391" width="34.83" height="9.8083" rx="1.8916"/><rect class="cls-11" x="2706.5051" y="1206.0011" width="1.3868" height="10.9044" transform="matrix(0.951, -0.3092, 0.3092, 0.951, -241.9344, 896.5595)"/><rect class="cls-11" x="2714.0302" y="1208.3599" width="1.3868" height="10.9044" transform="translate(-242.2949 899.0022) rotate(-18.0135)"/><rect class="cls-11" x="2709.7336" y="1198.8591" width="1.3873" height="7.1815" transform="translate(72.7049 2556.969) rotate(-51.1053)"/><rect class="cls-11" x="2716.3737" y="1194.7798" width="1.3867" height="9.2272"/><rect class="cls-11" x="2701.8126" y="1213.5127" width="1.0256" height="5.1607" transform="translate(-132.3426 2079.8652) rotate(-41.1754)"/><rect class="cls-11" x="2702.0506" y="1205.8736" width="0.5496" height="5.0095" transform="matrix(0.951, -0.3092, 0.3092, 0.951, -241.2223, 894.9018)"/><rect class="cls-11" x="2737.2702" y="1210.2803" width="10.9044" height="1.3868" transform="translate(742.9426 3444.7741) rotate(-71.9865)"/><rect class="cls-11" x="2729.7451" y="1212.639" width="10.9044" height="1.3868" transform="translate(735.5014 3439.2472) rotate(-71.9865)"/><rect class="cls-11" x="2735.9029" y="1201.2766" width="7.1815" height="1.3873" transform="translate(-147.3633 1986.5813) rotate(-38.8947)"/><rect class="cls-11" x="2732.1605" y="1194.3002" width="1.3867" height="9.2272" transform="translate(5465.7078 2397.8276) rotate(-180)"/><rect class="cls-11" x="2745.0152" y="1215.1006" width="5.1607" height="1.0256" transform="translate(23.6806 2483.4008) rotate(-48.8246)"/><rect class="cls-11" x="2745.0908" y="1207.6239" width="5.0095" height="0.5496" transform="matrix(0.3092, -0.951, 0.951, 0.3092, 749.233, 3447.2843)"/><path class="cls-17" d="M2307.1466,819.3081,2496.113,635.7614a10.6181,10.6181,0,0,1,13.139-.7966l37.33,27.1585c3.8738,2.8183,4.3,7.7886.9476,11.0451,0,0-70.2983,62.2993-95.8691,93.12s-93.0973,90.4271-93.0973,90.4271a10.6178,10.6178,0,0,1-13.139.7966l-37.33-27.1584C2304.22,827.5348,2303.794,822.5645,2307.1466,819.3081Z"/><path class="cls-18" d="M2304.3293,817.2584l188.9663-183.5466a10.6181,10.6181,0,0,1,13.1391-.7967l37.33,27.1585c3.8739,2.8183,4.3,7.7886.9477,11.0451,0,0-70.2984,62.2993-95.8692,93.12s-93.0972,90.4271-93.0972,90.4271a10.6178,10.6178,0,0,1-13.139.7966l-37.33-27.1584C2301.4031,825.4851,2300.9766,820.5149,2304.3293,817.2584Z"/><path class="cls-18" d="M2302.0805,821.8357c3.8752-24.1054,9.2691-84.3862,50.72-124.6481,49.5591-48.1377,114.9754-53.0465,140.4006-64.58,20.8256-9.4472-28.8068,66.27-75.6019,111.7234S2298.9114,841.55,2302.0805,821.8357Z"/><path class="cls-17" d="M2319.3457,742.8082c19.14,2.7145,30.9461,23.405,26.3687,46.2135s-23.8045,39.098-42.945,36.3836"/><path class="cls-17" d="M2396.0246,664.145c6.2448,15.45,32.4275,21.9419,58.4806,14.5s42.1109-25.9989,35.866-41.4488"/><ellipse class="cls-1" cx="2717.3776" cy="699.9518" rx="38.6525" ry="31.8811"/><path class="cls-11" d="M2711.6641,1092.2271c1.3408,1.483,1.5076-7.181,4.9255-9.8059,3.2029-2.46,9.7245,1.2216,9.3294-.7106-.5155-2.5209-6.7053-4.75-11.0152-.809C2711.3609,1084.1408,2710.1625,1090.5663,2711.6641,1092.2271Z"/><path class="cls-16" d="M2365.4841,192.1292a35.0112,35.0112,0,1,0,56.2679-41.678"/><rect class="cls-8" x="2267.9618" y="42.7465" width="89.9763" height="46.8508" transform="translate(471.7301 1467.6088) rotate(-38.9152)"/><rect class="cls-8" x="2289.2803" y="69.1074" width="140.7619" height="116.7001" transform="translate(443.5987 1510.5521) rotate(-38.9152)"/><rect class="cls-8" x="2286.9574" y="1.8109" width="17.9346" height="64.361" transform="translate(4591.8493 67.9828) rotate(-180)"/><path class="cls-16" d="M3039.2614,192.1292a35.0111,35.0111,0,1,1-56.2678-41.678"/><rect class="cls-8" x="3068.3702" y="21.1837" width="46.8508" height="89.9763" transform="matrix(0.6282, -0.7781, 0.7781, 0.6282, 1098.1382, 2430.2592)"/><rect class="cls-8" x="2986.7342" y="57.0766" width="116.7001" height="140.7619" transform="translate(1033.0846 2416.7021) rotate(-51.0848)"/><rect class="cls-8" x="3099.8536" y="1.8109" width="17.9346" height="64.361"/><rect class="cls-1" x="1081.0583" width="1080" height="1577"/><path class="cls-10" d="M1772.8231,1518.6079c-34.3494,16.7879-45.6925,31.327-136.3172,23.9451-82.6562-6.7329-160.4693-14.4566-164.6339-24.7157-5.1342-12.6475,13.8887-9.9936,164.634-24.7155C1636.506,1493.1218,1785.0868,1512.6141,1772.8231,1518.6079Z"/><rect class="cls-2" x="1950.5942" y="577.9667" width="62.5128" height="128.2731" rx="10.367" transform="translate(-16.4042 1231.1756) rotate(-34.3771)"/><rect class="cls-2" x="1924.7019" y="527.1478" width="25.5482" height="100.1848" rx="2.367" transform="translate(12.4694 1194.791) rotate(-34.3771)"/><rect class="cls-3" x="1949.7619" y="617.4925" width="62.5128" height="46.7883" transform="translate(-15.8626 1230.4931) rotate(-34.3771)"/><polygon class="cls-2" points="1947.431 569.168 1926.264 583.475 1923.337 608.085 1970.728 575.104 1947.431 569.168"/><circle class="cls-4" cx="1958.2484" cy="680.5513" r="28.6988"/><circle class="cls-5" cx="1621.7779" cy="175.6233" r="107.5712"/><ellipse class="cls-6" cx="1620.8179" cy="175.6233" rx="85.6111" ry="107.5712"/><ellipse class="cls-7" cx="1621.7779" cy="175.6233" rx="48.9414" ry="107.5712"/><rect class="cls-8" x="1619.4233" y="68.0521" width="2.7891" height="215.1425"/><rect class="cls-8" x="1619.4233" width="2.7891" height="215.1425"/><polygon class="cls-8" points="1729.297 179.007 1729.175 181.796 1514.381 181.796 1514.258 178.99 1729.297 179.007"/><polygon class="cls-8" points="1725.635 203.748 1724.841 206.538 1518.701 206.538 1517.921 203.748 1725.635 203.748"/><polygon class="cls-8" points="1715.483 228.49 1713.872 231.279 1529.746 231.279 1528.072 228.49 1715.483 228.49"/><polygon class="cls-8" points="1696.266 253.232 1693.209 256.021 1550.333 256.021 1547.289 253.232 1696.266 253.232"/><polygon class="cls-8" points="1727.229 154.265 1727.752 157.054 1515.803 157.054 1516.327 154.265 1727.229 154.265"/><polygon class="cls-8" points="1719.01 129.524 1720.275 132.313 1523.281 132.313 1524.609 129.524 1719.01 129.524"/><polygon class="cls-8" points="1702.663 104.782 1705.169 107.571 1538.619 107.382 1540.791 104.782 1702.663 104.782"/><polygon class="cls-8" points="1671.152 80.04 1676.226 82.83 1568.468 82.17 1572.335 80.04 1671.152 80.04"/><polygon class="cls-9" points="1531.678 62.728 1549.933 74.998 1568.085 62.623 1557.709 80.879 1568.189 99.03 1549.933 87.822 1531.782 99.135 1543.307 81.706 1531.678 62.728"/><polygon class="cls-9" points="1670.719 63.284 1688.975 75.554 1707.126 63.179 1696.75 81.435 1707.231 99.586 1688.975 88.378 1670.824 99.691 1682.348 82.262 1670.719 63.284"/><polygon class="cls-9" points="1510.535 231.38 1528.072 243.167 1545.509 231.279 1535.541 248.816 1545.609 266.253 1528.072 255.486 1510.636 266.353 1521.707 249.611 1510.535 231.38"/><polygon class="cls-9" points="1547.289 265.758 1564.826 277.545 1582.263 265.658 1572.295 283.195 1582.363 300.631 1564.826 289.864 1547.39 300.732 1558.461 283.989 1547.289 265.758"/><path class="cls-11" d="M1486.6788,680.2531c3.5041,2.49,15.8183-11.2017,22.9031-19.0788,14.3048-15.9046,35.6145-44.047,38.5554-53.1406,4.6124-14.2619-34.8674,14.9608-52.5733,43.9493C1487.8883,664.55,1483.6685,678.1141,1486.6788,680.2531Z"/><path class="cls-11" d="M1803.0663,697.1428c3.4216-2.602-5.9739-18.4393-11.3794-27.551-10.9143-18.3974-31.42-47.1309-39.2226-52.65-12.2371-8.6562,3.88,37.7426,26.2687,63.2886C1788.4386,691.3048,1800.1269,699.3781,1803.0663,697.1428Z"/><path class="cls-11" d="M1816.404,534.2562c-2.1679-3.7118-19.0276,3.6939-28.7275,7.9546-19.5852,8.6028-50.5931,25.4731-57.0178,32.5488-10.0761,11.0971,37.9346.7249,66.007-18.4C1808.8353,548.0681,1818.2665,537.445,1816.404,534.2562Z"/><path class="cls-4" d="M1811.4936,934.6987c0,139.2467-21.817,253.7487-49.76,267.3346v1.3539c-36.0435,3.2122-101.0436,1.0679-102.781,1.5831-7.1152,2.11-11.6654.6352-15.8054-1.5831-6.3735,3.9659-7.2161,4.6-14.54,2.0145-2.5853-.9127-66.6084,3.3456-98.4657-2.0145-30.5636,0-55.34-120.2959-55.34-268.6885"/><path class="cls-11" d="M1643.3129,424.6274c-73.2935,0-132.71,42.6782-132.71,95.3244V732.9394c0,40.96,59.4162,74.1642,132.71,74.1642s132.71-33.2045,132.71-74.1642V519.9518C1776.0227,467.3056,1716.6066,424.6274,1643.3129,424.6274Z"/><path class="cls-12" d="M1821.8282,1056.4712c0-139.2467-23.03-253.7487-52.5258-267.3346v-1.3538h-244.466c-32.2626,0-58.4166,120.2958-58.4166,268.6884"/><path class="cls-13" d="M1679.7357,809.9615l.2634-.0013-.4453-88.2147-71.3049.36.4453,88.2147.2635-.0013c.056,11.09,15.9455,19.9993,35.49,19.9006S1679.7916,821.0509,1679.7357,809.9615Z"/><path class="cls-4" d="M1516.7784,543.7985v79.2827c0,75.4281,56.5212,136.5746,126.2438,136.5746s126.2438-61.1465,126.2438-136.5746V543.7985Z"/><circle class="cls-14" cx="1563.1713" cy="651.7272" r="15.9056"/><circle class="cls-14" cx="1712.8512" cy="651.7272" r="15.9056"/><path class="cls-13" d="M1517.1054,637.8874c-19.8691,0-35.9762-15.0358-35.9762-33.5834s16.1071-33.5834,35.9762-33.5834"/><path class="cls-13" d="M1768.5464,570.7206c19.8692,0,35.9763,15.0358,35.9763,33.5834s-16.1071,33.5834-35.9763,33.5834"/><rect class="cls-15" x="1592.5055" y="564.5147" width="10.4026" height="46.8116" rx="2.033" transform="translate(913.3857 -970.9323) rotate(46.0965)"/><rect class="cls-15" x="1576.6359" y="582.4769" width="43.344" height="12.1363" rx="2.3719" transform="translate(914.02 -971.174) rotate(46.0965)"/><rect class="cls-15" x="1674.7979" y="564.46" width="10.4026" height="46.8116" rx="2.033" transform="translate(938.5729 -1030.2412) rotate(46.0965)"/><rect class="cls-15" x="1658.9283" y="582.4222" width="43.344" height="12.1363" rx="2.3719" transform="translate(939.2077 -1030.4831) rotate(46.0965)"/><rect class="cls-12" x="1466.0023" y="638.0713" width="63.1368" height="243.1691" rx="29" transform="translate(-173.4887 925.0509) rotate(-32.5493)"/><rect class="cls-12" x="1779.1365" y="757.5417" width="63.1368" height="131.4157" rx="29" transform="translate(2789.9716 -908.0588) rotate(95.0442)"/><rect class="cls-12" x="1863.0677" y="670.7192" width="63.1368" height="193.4549" rx="29" transform="translate(819.1878 -970.9524) rotate(36.2062)"/><path class="cls-11" d="M1559.0135,486.1846c.1607-4.2955-18.0412-7.0861-28.5132-8.6917-21.1442-3.2417-56.3634-5.6311-65.5806-3.1042-14.4558,3.9629,31.63,20.955,65.5806,19.8667C1545.2182,493.7836,1558.8754,489.8749,1559.0135,486.1846Z"/><path class="cls-11" d="M1572.2175,483.5142c1.9942-3.808-13.2336-14.1621-21.9946-20.1192-17.6895-12.0279-48.45-29.3453-57.8572-31.0323-14.7538-2.6458,19.5288,32.53,50.6414,46.1622C1556.4947,484.4347,1570.5044,486.7856,1572.2175,483.5142Z"/><path class="cls-11" d="M1582.5017,457.1262c1.9942-3.808-13.2337-14.1621-21.9947-20.1192-17.6894-12.0279-48.45-29.3453-57.8571-31.0322-14.7538-2.6459,19.5288,32.53,50.6414,46.1622C1566.7789,458.0467,1580.7885,460.3976,1582.5017,457.1262Z"/><path class="cls-11" d="M1801.3841,425.91c-3.1054-2.9722-17.2773,8.7859-25.4308,15.5507-16.4628,13.6588-41.6333,38.4084-45.8635,46.9785-6.6346,13.441,36.67-9.7389,58.3981-35.8491C1797.9071,441.2713,1804.0519,428.4636,1801.3841,425.91Z"/><path class="cls-11" d="M1774.5479,398.6173c-3.7768-2.0527-14.3645,13.0137-20.456,21.6818-12.2992,17.5019-30.0889,47.9917-31.9207,57.3718-2.873,14.7112,32.8271-19.0249,46.9376-49.9236C1775.2258,414.3524,1777.7925,400.3807,1774.5479,398.6173Z"/><rect class="cls-4" x="1497.3375" y="1101.699" width="89.4147" height="444.9798" rx="17.4747"/><rect class="cls-4" x="1696.9456" y="1101.699" width="89.4147" height="444.9798" rx="17.4747"/><rect class="cls-11" x="1640.6285" y="1171.8966" width="5.0376" height="31.4905" rx="0.9845"/><rect class="cls-16" x="1638.7642" y="1207.9876" width="8.7661" height="13.9018" rx="1.7132"/><rect class="cls-16" x="1634.3811" y="1255.5651" width="8.7661" height="13.9018" rx="1.7132"/><rect class="cls-16" x="1645.1539" y="1239.4781" width="8.7661" height="18.7329" rx="1.7132"/><rect class="cls-16" x="1628.0077" y="1271.6522" width="8.7661" height="31.4905" rx="1.7132"/><rect class="cls-16" x="1642.8357" y="1303.1427" width="8.7661" height="18.6034" rx="1.7132"/><rect class="cls-16" x="1632.3907" y="1226.3157" width="8.7661" height="18.6034" rx="1.7132"/><rect class="cls-16" x="1638.9572" y="1329.8758" width="8.7661" height="13.9018" rx="1.7132"/><rect class="cls-16" x="1634.5741" y="1377.4534" width="8.7661" height="13.9018" rx="1.7132"/><rect class="cls-16" x="1645.3469" y="1361.3663" width="8.7661" height="18.7329" rx="1.7132"/><rect class="cls-16" x="1628.2007" y="1393.5404" width="8.7661" height="31.4905" rx="1.7132"/><rect class="cls-16" x="1643.0287" y="1425.0309" width="8.7661" height="18.6034" rx="1.7132"/><rect class="cls-16" x="1632.5837" y="1348.2039" width="8.7661" height="18.6034" rx="1.7132"/><rect class="cls-16" x="1615.0547" y="1480.6083" width="34.3939" height="9.679" rx="1.8916"/><rect class="cls-16" x="1632.2516" y="1485.4478" width="34.3939" height="9.679" rx="1.8916"/><rect class="cls-16" x="1619.1262" y="1487.6334" width="34.3939" height="9.679" rx="1.8916"/><rect class="cls-16" x="1608.6812" y="1492.4728" width="34.3939" height="9.679" rx="1.8916"/><rect class="cls-16" x="1625.8781" y="1493.239" width="34.3939" height="9.679" rx="1.8916"/><rect class="cls-16" x="1640.7062" y="1493.239" width="34.3939" height="9.679" rx="1.8916"/><rect class="cls-16" x="1615.0547" y="1498.0785" width="34.3939" height="9.679" rx="1.8916"/><rect class="cls-16" x="1634.6442" y="1498.0785" width="34.3939" height="9.679" rx="1.8916"/><rect class="cls-11" x="1625.1389" y="1189.6612" width="1.3694" height="10.7613" transform="translate(-289.7392 560.9704) rotate(-18.0022)"/><rect class="cls-11" x="1632.5698" y="1191.9888" width="1.3694" height="10.7613" transform="translate(-290.0948 563.3809) rotate(-18.0022)"/><rect class="cls-11" x="1628.3272" y="1182.6122" width="1.3694" height="7.0897" transform="translate(-317.1898 1708.6007) rotate(-51.0864)"/><rect class="cls-11" x="1634.8839" y="1178.5882" width="1.3694" height="9.1055"/><rect class="cls-11" x="1620.5053" y="1197.0733" width="1.0125" height="5.0942" transform="translate(-388.9642 1363.2206) rotate(-41.1564)"/><rect class="cls-11" x="1620.7402" y="1189.5356" width="0.5427" height="4.9437" transform="translate(-289.037 559.3347) rotate(-18.0022)"/><rect class="cls-11" x="1660.218" y="1189.1879" width="1.3694" height="10.7613" transform="translate(2871.3094 2843.9645) rotate(-161.9978)"/><rect class="cls-11" x="1652.7871" y="1191.5155" width="1.3694" height="10.7613" transform="translate(2856.0921 2846.2093) rotate(-161.9978)"/><rect class="cls-11" x="1657.0297" y="1182.1389" width="1.3694" height="7.0897" transform="translate(1776.4294 3220.3261) rotate(-128.9136)"/><rect class="cls-11" x="1650.473" y="1178.1149" width="1.3694" height="9.1055" transform="translate(3302.3154 2365.3353) rotate(-180)"/><rect class="cls-11" x="1665.2085" y="1196.6" width="1.0125" height="5.0942" transform="translate(2130.6804 3198.2384) rotate(-138.8436)"/><rect class="cls-11" x="1665.4434" y="1189.0623" width="0.5427" height="4.9437" transform="translate(2881.6358 2839.5314) rotate(-161.9978)"/><path class="cls-17" d="M1230.7812,808.0672l186.6-181.1264a10.49,10.49,0,0,1,12.9745-.7861l36.8622,26.8c3.8253,2.7812,4.2464,7.6859.9358,10.8995,0,0-69.4181,61.4779-94.6687,91.8917s-91.9314,89.2347-91.9314,89.2347a10.49,10.49,0,0,1-12.9745.7862l-36.8623-26.8C1227.8916,816.1855,1227.4705,811.2808,1230.7812,808.0672Z"/><path class="cls-18" d="M1227.9991,806.0446l186.6-181.1265a10.49,10.49,0,0,1,12.9745-.7861l36.8622,26.8c3.8254,2.7811,4.2465,7.6859.9358,10.8994,0,0-69.4181,61.4779-94.6687,91.8917s-91.9314,89.2348-91.9314,89.2348a10.49,10.49,0,0,1-12.9745.7861l-36.8622-26.8C1225.11,814.1629,1224.6885,809.2581,1227.9991,806.0446Z"/><path class="cls-18" d="M1225.7785,810.5616c3.8266-23.7876,9.153-83.2736,50.0846-123.0046,48.9386-47.503,113.5358-52.3471,138.6425-63.7288,20.5649-9.3228-28.446,65.3965-74.6552,110.25S1222.649,830.0155,1225.7785,810.5616Z"/><path class="cls-17" d="M1242.8275,732.5761c18.9007,2.6787,30.5585,23.0963,26.0385,45.6041s-23.5065,38.5825-42.4072,35.9038"/><path class="cls-17" d="M1318.5462,654.95c6.1666,15.2463,32.0214,21.6527,57.7483,14.3092s41.5836-25.6561,35.4169-40.9023"/><ellipse class="cls-1" cx="1635.8752" cy="690.2847" rx="38.1685" ry="31.4608"/><path class="cls-11" d="M1630.2332,1077.3877c1.324,1.4634,1.4888-7.0863,4.8639-9.6766,3.1627-2.4274,9.6027,1.2055,9.2125-.7013-.509-2.4876-6.6213-4.6869-10.8772-.7983C1629.9339,1069.408,1628.7505,1075.7488,1630.2332,1077.3877Z"/><path class="cls-16" d="M1288.3881,189.158a34.5645,34.5645,0,0,0,55.5633-41.1284"/><rect class="cls-8" x="1192.0988" y="41.7389" width="88.8261" height="46.2453" transform="translate(2239.5956 -661.0802) rotate(141.1036)"/><rect class="cls-8" x="1213.157" y="67.7432" width="138.9624" height="115.1919" transform="translate(2359.596 -582.4974) rotate(141.1036)"/><rect class="cls-8" x="1210.8447" y="1.3492" width="17.71" height="63.5124" transform="translate(2439.3995 66.2108) rotate(-180)"/><path class="cls-16" d="M1953.7284,189.158a34.5645,34.5645,0,0,1-55.5633-41.1284"/><rect class="cls-8" x="1961.1917" y="41.7389" width="88.8261" height="46.2453" transform="translate(485.4038 -1244.9654) rotate(38.8964)"/><rect class="cls-8" x="1889.9971" y="67.7432" width="138.9624" height="115.1919" transform="matrix(0.7783, 0.6279, -0.6279, 0.7783, 513.1515, -1202.5931)"/><rect class="cls-8" x="2013.5618" y="1.3492" width="17.71" height="63.5124"/><rect class="cls-1" x="3243.0583" width="1080" height="1577"/><path class="cls-10" d="M3934.8231,1518.6079c-34.3494,16.7879-45.6925,31.327-136.3172,23.9451-82.6562-6.7329-160.4693-14.4566-164.6339-24.7157-5.1342-12.6475,13.8887-9.9936,164.634-24.7155C3798.506,1493.1218,3947.0868,1512.6141,3934.8231,1518.6079Z"/><rect class="cls-2" x="4112.5942" y="577.9667" width="62.5128" height="128.2731" rx="10.367" transform="translate(361.2117 2451.9201) rotate(-34.3771)"/><rect class="cls-2" x="4086.7019" y="527.1478" width="25.5482" height="100.1848" rx="2.367" transform="translate(390.0853 2415.5356) rotate(-34.3771)"/><rect class="cls-3" x="4111.7619" y="617.4925" width="62.5128" height="46.7883" transform="translate(361.7532 2451.2377) rotate(-34.3771)"/><polygon class="cls-2" points="4109.431 569.168 4088.264 583.475 4085.337 608.085 4132.728 575.104 4109.431 569.168"/><circle class="cls-4" cx="4120.2484" cy="680.5513" r="28.6988"/><circle class="cls-5" cx="3783.7779" cy="175.6233" r="107.5712"/><ellipse class="cls-6" cx="3782.8179" cy="175.6233" rx="85.6111" ry="107.5712"/><ellipse class="cls-7" cx="3783.7779" cy="175.6233" rx="48.9414" ry="107.5712"/><rect class="cls-8" x="3781.4233" y="68.0521" width="2.7891" height="215.1425"/><rect class="cls-8" x="3781.4233" width="2.7891" height="215.1425"/><polygon class="cls-8" points="3891.297 179.007 3891.175 181.796 3676.381 181.796 3676.258 178.99 3891.297 179.007"/><polygon class="cls-8" points="3887.635 203.748 3886.841 206.538 3680.701 206.538 3679.921 203.748 3887.635 203.748"/><polygon class="cls-8" points="3877.483 228.49 3875.872 231.279 3691.746 231.279 3690.072 228.49 3877.483 228.49"/><polygon class="cls-8" points="3858.266 253.232 3855.209 256.021 3712.333 256.021 3709.289 253.232 3858.266 253.232"/><polygon class="cls-8" points="3889.229 154.265 3889.752 157.054 3677.803 157.054 3678.327 154.265 3889.229 154.265"/><polygon class="cls-8" points="3881.01 129.524 3882.275 132.313 3685.281 132.313 3686.609 129.524 3881.01 129.524"/><polygon class="cls-8" points="3864.663 104.782 3867.169 107.571 3700.619 107.382 3702.791 104.782 3864.663 104.782"/><polygon class="cls-8" points="3833.152 80.04 3838.226 82.83 3730.468 82.17 3734.335 80.04 3833.152 80.04"/><polygon class="cls-9" points="3693.678 62.728 3711.933 74.998 3730.085 62.623 3719.709 80.879 3730.189 99.03 3711.933 87.822 3693.782 99.135 3705.307 81.706 3693.678 62.728"/><polygon class="cls-9" points="3832.719 63.284 3850.975 75.554 3869.126 63.179 3858.75 81.435 3869.231 99.586 3850.975 88.378 3832.824 99.691 3844.348 82.262 3832.719 63.284"/><polygon class="cls-9" points="3672.535 231.38 3690.072 243.167 3707.509 231.279 3697.541 248.816 3707.609 266.253 3690.072 255.486 3672.636 266.353 3683.707 249.611 3672.535 231.38"/><polygon class="cls-9" points="3709.289 265.758 3726.826 277.545 3744.263 265.658 3734.295 283.195 3744.363 300.631 3726.826 289.864 3709.39 300.732 3720.461 283.989 3709.289 265.758"/><path class="cls-11" d="M3648.6788,680.2531c3.5041,2.49,15.8183-11.2017,22.9031-19.0788,14.3048-15.9046,35.6145-44.047,38.5554-53.1406,4.6124-14.2619-34.8674,14.9608-52.5733,43.9493C3649.8883,664.55,3645.6685,678.1141,3648.6788,680.2531Z"/><path class="cls-11" d="M3965.0663,697.1428c3.4216-2.602-5.9739-18.4393-11.3794-27.551-10.9143-18.3974-31.42-47.1309-39.2226-52.65-12.2371-8.6562,3.88,37.7426,26.2687,63.2886C3950.4386,691.3048,3962.1269,699.3781,3965.0663,697.1428Z"/><path class="cls-11" d="M3978.404,534.2562c-2.1679-3.7118-19.0276,3.6939-28.7275,7.9546-19.5852,8.6028-50.5931,25.4731-57.0178,32.5488-10.0761,11.0971,37.9346.7249,66.007-18.4C3970.8353,548.0681,3980.2665,537.445,3978.404,534.2562Z"/><path class="cls-4" d="M3973.4936,934.6987c0,139.2467-21.817,253.7487-49.76,267.3346v1.3539c-36.0435,3.2122-101.0436,1.0679-102.781,1.5831-7.1152,2.11-11.6654.6352-15.8054-1.5831-6.3735,3.9659-7.2161,4.6-14.54,2.0145-2.5853-.9127-66.6084,3.3456-98.4657-2.0145-30.5636,0-55.34-120.2959-55.34-268.6885"/><path class="cls-11" d="M3805.3129,424.6274c-73.2935,0-132.71,42.6782-132.71,95.3244V732.9394c0,40.96,59.4162,74.1642,132.71,74.1642s132.71-33.2045,132.71-74.1642V519.9518C3938.0227,467.3056,3878.6066,424.6274,3805.3129,424.6274Z"/><path class="cls-12" d="M3983.8282,1056.4712c0-139.2467-23.03-253.7487-52.5258-267.3346v-1.3538h-244.466c-32.2626,0-58.4166,120.2958-58.4166,268.6884"/><path class="cls-13" d="M3841.7357,809.9615l.2634-.0013-.4453-88.2147-71.3049.36.4453,88.2147.2635-.0013c.056,11.09,15.9455,19.9993,35.49,19.9006S3841.7916,821.0509,3841.7357,809.9615Z"/><path class="cls-4" d="M3678.7784,543.7985v79.2827c0,75.4281,56.5212,136.5746,126.2438,136.5746s126.2438-61.1465,126.2438-136.5746V543.7985Z"/><circle class="cls-14" cx="3725.1713" cy="651.7272" r="15.9056"/><circle class="cls-14" cx="3874.8512" cy="651.7272" r="15.9056"/><path class="cls-13" d="M3679.1054,637.8874c-19.8691,0-35.9762-15.0358-35.9762-33.5834s16.1071-33.5834,35.9762-33.5834"/><path class="cls-13" d="M3930.5464,570.7206c19.8692,0,35.9763,15.0358,35.9763,33.5834s-16.1071,33.5834-35.9763,33.5834"/><rect class="cls-15" x="3754.5055" y="564.5147" width="10.4026" height="46.8116" rx="2.033" transform="translate(1576.156 -2528.6724) rotate(46.0965)"/><rect class="cls-15" x="3738.6359" y="582.4769" width="43.344" height="12.1363" rx="2.3719" transform="translate(1576.7903 -2528.9141) rotate(46.0965)"/><rect class="cls-15" x="3836.7979" y="564.46" width="10.4026" height="46.8116" rx="2.033" transform="translate(1601.3427 -2587.9809) rotate(46.0965)"/><rect class="cls-15" x="3820.9283" y="582.4222" width="43.344" height="12.1363" rx="2.3719" transform="translate(1601.978 -2588.2233) rotate(46.0965)"/><rect class="cls-12" x="3628.0023" y="638.0713" width="63.1368" height="243.1691" rx="29" transform="translate(166.0994 2088.2615) rotate(-32.5493)"/><rect class="cls-12" x="3941.1365" y="757.5417" width="63.1368" height="131.4157" rx="29" transform="translate(5142.0647 -3061.6857) rotate(95.0442)"/><rect class="cls-12" x="4025.0677" y="670.7192" width="63.1368" height="193.4549" rx="29" transform="translate(1236.6788 -2248.032) rotate(36.2062)"/><path class="cls-11" d="M3721.0135,486.1846c.1607-4.2955-18.0412-7.0861-28.5132-8.6917-21.1442-3.2417-56.3634-5.6311-65.5806-3.1042-14.4558,3.9629,31.63,20.955,65.5806,19.8667C3707.2182,493.7836,3720.8754,489.8749,3721.0135,486.1846Z"/><path class="cls-11" d="M3734.2175,483.5142c1.9942-3.808-13.2336-14.1621-21.9946-20.1192-17.69-12.0279-48.45-29.3453-57.8572-31.0323-14.7538-2.6458,19.5288,32.53,50.6414,46.1622C3718.4947,484.4347,3732.5044,486.7856,3734.2175,483.5142Z"/><path class="cls-11" d="M3744.5017,457.1262c1.9942-3.808-13.2337-14.1621-21.9947-20.1192-17.6894-12.0279-48.45-29.3453-57.8571-31.0322-14.7538-2.6459,19.5288,32.53,50.6414,46.1622C3728.7789,458.0467,3742.7885,460.3976,3744.5017,457.1262Z"/><path class="cls-11" d="M3963.3841,425.91c-3.1054-2.9722-17.2773,8.7859-25.4308,15.5507-16.4628,13.6588-41.6333,38.4084-45.8635,46.9785-6.6346,13.441,36.67-9.7389,58.3981-35.8491C3959.9071,441.2713,3966.0519,428.4636,3963.3841,425.91Z"/><path class="cls-11" d="M3936.5479,398.6173c-3.7768-2.0527-14.3645,13.0137-20.456,21.6818-12.2992,17.5019-30.0889,47.9917-31.9207,57.3718-2.873,14.7112,32.8271-19.0249,46.9376-49.9236C3937.2258,414.3524,3939.7925,400.3807,3936.5479,398.6173Z"/><rect class="cls-4" x="3659.3375" y="1101.699" width="89.4147" height="444.9798" rx="17.4747"/><rect class="cls-4" x="3858.9456" y="1101.699" width="89.4147" height="444.9798" rx="17.4747"/><rect class="cls-11" x="3802.6285" y="1171.8966" width="5.0376" height="31.4905" rx="0.9845"/><rect class="cls-16" x="3800.7642" y="1207.9876" width="8.7661" height="13.9018" rx="1.7132"/><rect class="cls-16" x="3796.3811" y="1255.5651" width="8.7661" height="13.9018" rx="1.7132"/><rect class="cls-16" x="3807.1539" y="1239.4781" width="8.7661" height="18.7329" rx="1.7132"/><rect class="cls-16" x="3790.0077" y="1271.6522" width="8.7661" height="31.4905" rx="1.7132"/><rect class="cls-16" x="3804.8357" y="1303.1427" width="8.7661" height="18.6034" rx="1.7132"/><rect class="cls-16" x="3794.3907" y="1226.3157" width="8.7661" height="18.6034" rx="1.7132"/><rect class="cls-16" x="3800.9572" y="1329.8758" width="8.7661" height="13.9018" rx="1.7132"/><rect class="cls-16" x="3796.5741" y="1377.4534" width="8.7661" height="13.9018" rx="1.7132"/><rect class="cls-16" x="3807.3469" y="1361.3663" width="8.7661" height="18.7329" rx="1.7132"/><rect class="cls-16" x="3790.2007" y="1393.5404" width="8.7661" height="31.4905" rx="1.7132"/><rect class="cls-16" x="3805.0287" y="1425.0309" width="8.7661" height="18.6034" rx="1.7132"/><rect class="cls-16" x="3794.5837" y="1348.2039" width="8.7661" height="18.6034" rx="1.7132"/><rect class="cls-16" x="3777.0547" y="1480.6083" width="34.3939" height="9.679" rx="1.8916"/><rect class="cls-16" x="3794.2516" y="1485.4478" width="34.3939" height="9.679" rx="1.8916"/><rect class="cls-16" x="3781.1262" y="1487.6334" width="34.3939" height="9.679" rx="1.8916"/><rect class="cls-16" x="3770.6812" y="1492.4728" width="34.3939" height="9.679" rx="1.8916"/><rect class="cls-16" x="3787.8781" y="1493.239" width="34.3939" height="9.679" rx="1.8916"/><rect class="cls-16" x="3802.7062" y="1493.239" width="34.3939" height="9.679" rx="1.8916"/><rect class="cls-16" x="3777.0547" y="1498.0785" width="34.3939" height="9.679" rx="1.8916"/><rect class="cls-16" x="3796.6442" y="1498.0785" width="34.3939" height="9.679" rx="1.8916"/><rect class="cls-11" x="3787.1389" y="1189.6612" width="1.3694" height="10.7613" transform="translate(-183.8976 1229.1444) rotate(-18.0022)"/><rect class="cls-11" x="3794.5698" y="1191.9888" width="1.3694" height="10.7613" transform="translate(-184.2532 1231.5549) rotate(-18.0022)"/><rect class="cls-11" x="3790.3272" y="1182.6122" width="1.3694" height="7.0897" transform="translate(486.7556 3390.8408) rotate(-51.0864)"/><rect class="cls-11" x="3796.8839" y="1178.5882" width="1.3694" height="9.1055"/><rect class="cls-11" x="3782.5053" y="1197.0733" width="1.0125" height="5.0942" transform="translate(145.2307 2786.068) rotate(-41.1564)"/><rect class="cls-11" x="3782.7402" y="1189.5356" width="0.5427" height="4.9437" transform="translate(-183.1954 1227.5086) rotate(-18.0022)"/><rect class="cls-11" x="3822.218" y="1189.1879" width="1.3694" height="10.7613" transform="translate(7089.4679 3512.1385) rotate(-161.9978)"/><rect class="cls-11" x="3814.7871" y="1191.5155" width="1.3694" height="10.7613" transform="translate(7074.2505 3514.3833) rotate(-161.9978)"/><rect class="cls-11" x="3819.0297" y="1182.1389" width="1.3694" height="7.0897" transform="translate(5296.4839 4902.5662) rotate(-128.9136)"/><rect class="cls-11" x="3812.473" y="1178.1149" width="1.3694" height="9.1055" transform="translate(7626.3154 2365.3353) rotate(-180)"/><rect class="cls-11" x="3827.2085" y="1196.6" width="1.0125" height="5.0942" transform="translate(5920.4855 4621.0858) rotate(-138.8436)"/><rect class="cls-11" x="3827.4434" y="1189.0623" width="0.5427" height="4.9437" transform="translate(7099.7943 3507.7054) rotate(-161.9978)"/><path class="cls-17" d="M3392.7812,808.0672l186.6-181.1264a10.49,10.49,0,0,1,12.9745-.7861l36.8622,26.8c3.8253,2.7812,4.2464,7.6859.9358,10.8995,0,0-69.4181,61.4779-94.6687,91.8917s-91.9314,89.2347-91.9314,89.2347a10.49,10.49,0,0,1-12.9745.7862l-36.8623-26.8C3389.8916,816.1855,3389.4705,811.2808,3392.7812,808.0672Z"/><path class="cls-18" d="M3389.9991,806.0446l186.6-181.1265a10.49,10.49,0,0,1,12.9745-.7861l36.8622,26.8c3.8254,2.7811,4.2465,7.6859.9358,10.8994,0,0-69.4181,61.4779-94.6687,91.8917s-91.9314,89.2348-91.9314,89.2348a10.49,10.49,0,0,1-12.9745.7861l-36.8622-26.8C3387.11,814.1629,3386.6885,809.2581,3389.9991,806.0446Z"/><path class="cls-18" d="M3387.7785,810.5616c3.8266-23.7876,9.153-83.2736,50.0846-123.0046,48.9386-47.503,113.5358-52.3471,138.6425-63.7288,20.5649-9.3228-28.446,65.3965-74.6552,110.25S3384.649,830.0155,3387.7785,810.5616Z"/><path class="cls-17" d="M3404.8275,732.5761c18.9007,2.6787,30.5585,23.0963,26.0385,45.6041s-23.5065,38.5825-42.4072,35.9038"/><path class="cls-17" d="M3480.5462,654.95c6.1666,15.2463,32.0214,21.6527,57.7483,14.3092s41.5836-25.6561,35.4169-40.9023"/><ellipse class="cls-1" cx="3797.8752" cy="690.2847" rx="38.1685" ry="31.4608"/><path class="cls-11" d="M3792.2332,1077.3877c1.324,1.4634,1.4888-7.0863,4.8639-9.6766,3.1627-2.4274,9.6027,1.2055,9.2125-.7013-.509-2.4876-6.6213-4.6869-10.8772-.7983C3791.9339,1069.408,3790.7505,1075.7488,3792.2332,1077.3877Z"/><path class="cls-16" d="M3450.3881,189.158a34.5645,34.5645,0,0,0,55.5633-41.1284"/><rect class="cls-8" x="3354.0988" y="41.7389" width="88.8261" height="46.2453" transform="translate(6084.2437 -2018.6292) rotate(141.1036)"/><rect class="cls-8" x="3375.157" y="67.7432" width="138.9624" height="115.1919" transform="translate(6204.2442 -1940.0464) rotate(141.1036)"/><rect class="cls-8" x="3372.8447" y="1.3492" width="17.71" height="63.5124" transform="translate(6763.3995 66.2108) rotate(-180)"/><path class="cls-16" d="M4115.7284,189.158a34.5645,34.5645,0,0,1-55.5633-41.1284"/><rect class="cls-8" x="4123.1917" y="41.7389" width="88.8261" height="46.2453" transform="translate(964.7557 -2602.5144) rotate(38.8964)"/><rect class="cls-8" x="4051.9971" y="67.7432" width="138.9624" height="115.1919" transform="translate(992.5034 -2560.1421) rotate(38.8964)"/><rect class="cls-8" x="4175.5618" y="1.3492" width="17.71" height="63.5124"/><polygon class="cls-19" points="2350.543 1556 3074.273 1556 3037.205 196.014 2982 151 2350.543 1556"/><rect class="cls-1" x="4320.3728" y="0.4436" width="1080" height="1577"/><rect class="cls-2" x="5131.0759" y="530.892" width="63.3055" height="129.987" rx="10.367"/><rect class="cls-2" x="5149.7926" y="465.4841" width="25.8722" height="101.5234" rx="2.367"/><rect class="cls-3" x="5131.0759" y="570.685" width="63.3055" height="47.4135"/><polygon class="cls-2" points="5175.665 515.191 5149.793 515.045 5133.275 533.954 5191.742 533.485 5175.665 515.191"/><ellipse class="cls-4" cx="5119.7081" cy="624.5382" rx="29.0627" ry="29.0823"/><ellipse class="cls-5" cx="4861.1015" cy="178.4136" rx="108.9353" ry="109.0086"/><ellipse class="cls-6" cx="4860.1293" cy="178.4136" rx="86.6967" ry="109.0086"/><ellipse class="cls-7" cx="4861.1015" cy="178.4136" rx="49.562" ry="109.0086"/><rect class="cls-8" x="4858.7171" y="69.405" width="2.8245" height="218.0171"/><rect class="cls-8" x="4858.7171" y="0.4436" width="2.8245" height="218.0171"/><polygon class="cls-8" points="4969.984 181.842 4969.86 184.669 4752.343 184.669 4752.218 181.825 4969.984 181.842"/><polygon class="cls-8" points="4966.276 206.915 4965.471 209.741 4756.717 209.741 4755.927 206.915 4966.276 206.915"/><polygon class="cls-8" points="4955.995 231.987 4954.363 234.813 4767.902 234.813 4766.208 231.987 4955.995 231.987"/><polygon class="cls-8" points="4936.535 257.059 4933.439 259.885 4788.751 259.885 4785.668 257.059 4936.535 257.059"/><polygon class="cls-8" points="4967.89 156.77 4968.42 159.597 4753.783 159.597 4754.313 156.77 4967.89 156.77"/><polygon class="cls-8" points="4959.566 131.698 4960.847 134.524 4761.356 134.524 4762.701 131.698 4959.566 131.698"/><polygon class="cls-8" points="4943.013 106.626 4945.55 109.452 4776.888 109.261 4779.087 106.626 4943.013 106.626"/><polygon class="cls-8" points="4911.102 81.554 4916.24 84.38 4807.115 83.712 4811.031 81.554 4911.102 81.554"/><polygon class="cls-9" points="4769.859 64.009 4788.346 76.444 4806.727 63.903 4796.22 82.403 4806.833 100.797 4788.346 89.439 4769.964 100.903 4781.635 83.241 4769.859 64.009"/><polygon class="cls-9" points="4931.445 240.078 4949.932 252.513 4968.314 239.972 4957.806 258.472 4968.42 276.866 4949.932 265.508 4931.551 276.972 4943.222 259.31 4931.445 240.078"/><polygon class="cls-9" points="4741.398 106.305 4759.157 118.25 4776.815 106.203 4766.721 123.975 4776.917 141.644 4759.157 130.733 4741.5 141.746 4752.711 124.78 4741.398 106.305"/><path class="cls-10" d="M5016.5737,1540.32c-34.785,17.0123-46.2719,31.7456-138.0458,24.2651-83.7044-6.8228-162.5043-14.65-166.7217-25.0459-5.1992-12.8166,14.0649-10.1272,166.7217-25.0458C4878.5279,1514.4929,5028.9929,1534.2456,5016.5737,1540.32Z"/><path class="cls-11" d="M4724.2893,689.7861c3.5485,2.523,16.0188-11.3514,23.1934-19.3337,14.4863-16.1171,36.0662-44.6356,39.0444-53.8506,4.6709-14.4525-35.31,15.1606-53.24,44.5365C4725.5141,673.8731,4721.2407,687.6186,4724.2893,689.7861Z"/><path class="cls-11" d="M5044.6888,706.9014c3.465-2.6367-6.05-18.6856-11.5237-27.9191-11.0527-18.6432-31.8185-47.76-39.72-53.3535-12.3922-8.7719,3.93,38.2468,26.6019,64.1342C5029.8756,700.9854,5041.7122,709.1667,5044.6888,706.9014Z"/><path class="cls-11" d="M5058.1957,541.8384c-2.1954-3.7614-19.2689,3.7433-29.0919,8.0609-19.8335,8.7178-51.2346,25.8135-57.7407,32.9837-10.204,11.2454,38.4156.7346,66.844-18.6463C5050.531,555.8349,5060.0817,545.07,5058.1957,541.8384Z"/><path class="cls-4" d="M5053.2229,947.6315c0,141.1073-22.0936,257.1393-50.3908,270.9067v1.372c-36.5006,3.2552-102.3249,1.0821-104.0844,1.6042-7.2054,2.1382-11.8133.6437-16.0058-1.6042-6.4543,4.0189-7.3076,4.6619-14.7247,2.0414-2.618-.9249-67.4531,3.39-99.7143-2.0414-30.9512,0-56.0421-121.9033-56.0421-272.2787"/><path class="cls-11" d="M4882.91,430.7448c-74.2229,0-134.3927,43.2485-134.3927,96.5981V743.1764c0,41.507,60.17,75.1551,134.3927,75.1551s134.3927-33.6481,134.3927-75.1551V527.3429C5017.3023,473.9933,4957.1327,430.7448,4882.91,430.7448Z"/><path class="cls-12" d="M5063.6887,1071.0312c0-141.1073-23.3218-257.1393-53.1919-270.9067v-1.3719H4762.9307c-32.6717,0-59.1573,121.9032-59.1573,272.2786"/><path class="cls-13" d="M4919.7942,821.2277l.2669-.0014-.451-89.3934-72.2091.3648.4509,89.3934.2668-.0014c.0567,11.2377,16.1478,20.2665,35.94,20.1665S4919.8509,832.4653,4919.7942,821.2277Z"/><path class="cls-4" d="M4754.7705,551.5083V631.85c0,76.436,57.238,138.4,127.8447,138.4S5010.46,708.2863,5010.46,631.85v-80.342Z"/><ellipse class="cls-14" cx="4801.7518" cy="660.879" rx="16.1073" ry="16.1181"/><ellipse class="cls-14" cx="4953.3297" cy="660.879" rx="16.1073" ry="16.1181"/><path class="cls-13" d="M4755.1017,646.8544c-20.1211,0-36.4324-15.2367-36.4324-34.0322s16.3113-34.0321,36.4324-34.0321"/><path class="cls-13" d="M5009.7312,578.79c20.1211,0,36.4324,15.2367,36.4324,34.0321s-16.3113,34.0322-36.4324,34.0322"/><path class="cls-15" d="M4815.2056,590.9507h43.036a2.1937,2.1937,0,0,1,2.1937,2.1937v6.1536a2.1908,2.1908,0,0,1-2.1908,2.1908h-43.036a2.1937,2.1937,0,0,1-2.1937-2.1937v-6.1537a2.1907,2.1907,0,0,1,2.1907-2.1907Z" transform="translate(937.3939 3519.3353) rotate(-43.8843)"/><path class="cls-15" d="M4833.7427,574.8982h7.179a2.5594,2.5594,0,0,1,2.5594,2.5594v38.7938a2.5559,2.5559,0,0,1-2.5559,2.5559h-7.179a2.5594,2.5594,0,0,1-2.5594-2.5594V577.454A2.5559,2.5559,0,0,1,4833.7427,574.8982Z" transform="translate(937.1252 3519.934) rotate(-43.8843)"/><path class="cls-15" d="M4898.5416,590.8953h43.0359a2.1937,2.1937,0,0,1,2.1937,2.1937v6.1536a2.1908,2.1908,0,0,1-2.1908,2.1908h-43.036a2.1937,2.1937,0,0,1-2.1937-2.1937v-6.1537A2.1908,2.1908,0,0,1,4898.5416,590.8953Z" transform="translate(960.7055 3577.0898) rotate(-43.8843)"/><path class="cls-15" d="M4917.0787,574.8428h7.1789a2.5594,2.5594,0,0,1,2.5594,2.5594v38.7938a2.5559,2.5559,0,0,1-2.5559,2.5559h-7.179a2.5594,2.5594,0,0,1-2.5594-2.5594V577.3987A2.5559,2.5559,0,0,1,4917.0787,574.8428Z" transform="translate(960.4358 3577.6873) rotate(-43.8843)"/><path class="cls-12" d="M4808.0546,869.9609l-12.9805,8.2908a24.3307,24.3307,0,0,1-33.5145-7.4047L4655.1842,704.0757a24.3666,24.3666,0,0,1,7.4-33.537l12.9806-8.2908a24.3305,24.3305,0,0,1,33.5144,7.4047l106.3754,166.7713A24.3665,24.3665,0,0,1,4808.0546,869.9609Z"/><path class="cls-12" d="M5018.9026,860.5253l-13.9718-6.48A24.3637,24.3637,0,0,1,4993.116,821.8l83.1347-179.5076a24.3335,24.3335,0,0,1,32.224-11.8227l13.9718,6.4794a24.3638,24.3638,0,0,1,11.8148,32.2457l-83.1347,179.5075A24.3335,24.3335,0,0,1,5018.9026,860.5253Z"/><path class="cls-11" d="M4797.5412,493.1245c.1628-4.3529-18.27-7.1808-28.8748-8.8078-21.4123-3.285-57.0781-5.7063-66.4122-3.1457-14.6391,4.0159,32.031,21.235,66.4122,20.1322C4783.571,500.8251,4797.4014,496.8641,4797.5412,493.1245Z"/><path class="cls-11" d="M4810.9127,490.4184c2.0194-3.8588-13.4015-14.3513-22.2736-20.388-17.9137-12.1886-49.0643-29.7374-58.5908-31.4469-14.9409-2.6812,19.7764,32.9644,51.2836,46.779C4794.9905,491.3512,4809.1778,493.7336,4810.9127,490.4184Z"/><path class="cls-11" d="M4821.3273,463.6779c2.0194-3.8589-13.4015-14.3514-22.2736-20.388-17.9138-12.1887-49.0643-29.7375-58.5908-31.4469-14.9409-2.6812,19.7764,32.9644,51.2835,46.7789C4805.4051,464.6107,4819.5924,466.993,4821.3273,463.6779Z"/><path class="cls-11" d="M5042.9853,432.0448c-3.1448-3.012-17.4964,8.9033-25.7533,15.7584-16.6716,13.8413-42.1612,38.9217-46.4451,47.6063-6.7187,13.62,37.1353-9.8691,59.1387-36.3281C5039.4642,447.6111,5045.6869,434.6323,5042.9853,432.0448Z"/><path class="cls-11" d="M5015.8087,404.3872c-3.8246-2.08-14.5466,13.1876-20.7153,21.9715-12.4552,17.7357-30.47,48.6329-32.3255,58.1383-2.9094,14.9079,33.2433-19.279,47.5328-50.5906C5016.4953,420.3325,5019.0945,406.1741,5015.8087,404.3872Z"/><rect class="cls-4" x="4735.0831" y="1116.8632" width="90.5485" height="450.9255" rx="17.4747"/><rect class="cls-4" x="4937.2224" y="1116.8632" width="90.5485" height="450.9255" rx="17.4747"/><rect class="cls-11" x="4880.1911" y="1187.9989" width="5.1015" height="31.9113" rx="0.9845"/><rect class="cls-16" x="4878.3032" y="1224.5721" width="8.8773" height="14.0876" rx="1.7132"/><rect class="cls-16" x="4873.8646" y="1272.7853" width="8.8773" height="14.0876" rx="1.7132"/><rect class="cls-16" x="4884.7739" y="1256.4833" width="8.8773" height="18.9832" rx="1.7132"/><rect class="cls-16" x="4867.4103" y="1289.0873" width="8.8773" height="31.9113" rx="1.7132"/><rect class="cls-16" x="4871.8489" y="1243.145" width="8.8773" height="18.8519" rx="1.7132"/><rect class="cls-16" x="4854.293" y="1500.8355" width="34.83" height="9.8083" rx="1.8916"/><rect class="cls-16" x="4871.708" y="1505.7396" width="34.83" height="9.8083" rx="1.8916"/><rect class="cls-16" x="4858.4161" y="1507.9544" width="34.83" height="9.8083" rx="1.8916"/><rect class="cls-16" x="4847.8387" y="1512.8585" width="34.83" height="9.8083" rx="1.8916"/><rect class="cls-16" x="4865.2537" y="1513.6349" width="34.83" height="9.8083" rx="1.8916"/><rect class="cls-16" x="4880.2698" y="1513.6349" width="34.83" height="9.8083" rx="1.8916"/><rect class="cls-16" x="4854.293" y="1518.5391" width="34.83" height="9.8083" rx="1.8916"/><rect class="cls-16" x="4874.131" y="1518.5391" width="34.83" height="9.8083" rx="1.8916"/><rect class="cls-11" x="4864.5051" y="1206.0011" width="1.3868" height="10.9044" transform="matrix(0.951, -0.3092, 0.3092, 0.951, -136.1568, 1563.9028)"/><rect class="cls-11" x="4872.0302" y="1208.3599" width="1.3868" height="10.9044" transform="translate(-136.5174 1566.3455) rotate(-18.0135)"/><rect class="cls-11" x="4867.7336" y="1198.8591" width="1.3873" height="7.1815" transform="translate(875.7145 4236.5419) rotate(-51.1053)"/><rect class="cls-11" x="4874.3737" y="1194.7798" width="1.3867" height="9.2272"/><rect class="cls-11" x="4859.8126" y="1213.5127" width="1.0256" height="5.1607" transform="translate(401.3371 3500.6212) rotate(-41.1754)"/><rect class="cls-11" x="4860.0506" y="1205.8736" width="0.5496" height="5.0095" transform="matrix(0.951, -0.3092, 0.3092, 0.951, -135.4448, 1562.2451)"/><rect class="cls-11" x="4895.2702" y="1210.2803" width="10.9044" height="1.3868" transform="translate(2233.5993 5496.9965) rotate(-71.9865)"/><rect class="cls-11" x="4887.7451" y="1212.639" width="10.9044" height="1.3868" transform="translate(2226.1581 5491.4696) rotate(-71.9865)"/><rect class="cls-11" x="4893.9029" y="1201.2766" width="7.1815" height="1.3873" transform="translate(331.0638 3341.5717) rotate(-38.8947)"/><rect class="cls-11" x="4890.1605" y="1194.3002" width="1.3867" height="9.2272" transform="translate(9781.7078 2397.8276) rotate(-180)"/><rect class="cls-11" x="4903.0152" y="1215.1006" width="5.1607" height="1.0256" transform="translate(760.9246 4107.7211) rotate(-48.8246)"/><rect class="cls-11" x="4903.0908" y="1207.6239" width="5.0095" height="0.5496" transform="matrix(0.3092, -0.951, 0.951, 0.3092, 2239.8897, 5499.5067)"/><path class="cls-17" d="M4465.1466,819.3081,4654.113,635.7614a10.6181,10.6181,0,0,1,13.139-.7966l37.33,27.1585c3.8738,2.8183,4.3,7.7886.9476,11.0451,0,0-70.2983,62.2993-95.8691,93.12s-93.0973,90.4271-93.0973,90.4271a10.6178,10.6178,0,0,1-13.139.7966l-37.33-27.1584C4462.22,827.5348,4461.794,822.5645,4465.1466,819.3081Z"/><path class="cls-18" d="M4462.3293,817.2584l188.9663-183.5466a10.6181,10.6181,0,0,1,13.1391-.7967l37.33,27.1585c3.8739,2.8183,4.3,7.7886.9477,11.0451,0,0-70.2984,62.2993-95.8692,93.12s-93.0972,90.4271-93.0972,90.4271a10.6178,10.6178,0,0,1-13.139.7966l-37.33-27.1584C4459.4031,825.4851,4458.9766,820.5149,4462.3293,817.2584Z"/><path class="cls-18" d="M4460.0805,821.8357c3.8752-24.1054,9.2691-84.3862,50.72-124.6481,49.5591-48.1377,114.9754-53.0465,140.4006-64.58,20.8256-9.4472-28.8068,66.27-75.6019,111.7234S4456.9114,841.55,4460.0805,821.8357Z"/><path class="cls-17" d="M4477.3457,742.8082c19.14,2.7145,30.9461,23.405,26.3687,46.2135s-23.8045,39.098-42.945,36.3836"/><path class="cls-17" d="M4554.0246,664.145c6.2448,15.45,32.4275,21.9419,58.4806,14.5s42.1109-25.9989,35.866-41.4488"/><ellipse class="cls-1" cx="4875.3776" cy="699.9518" rx="38.6525" ry="31.8811"/><path class="cls-11" d="M4869.6641,1092.2271c1.3408,1.483,1.5076-7.181,4.9255-9.8059,3.2029-2.46,9.7245,1.2216,9.3294-.7106-.5155-2.5209-6.7053-4.75-11.0152-.809C4869.3609,1084.1408,4868.1625,1090.5663,4869.6641,1092.2271Z"/><path class="cls-16" d="M4523.4841,192.1292a35.0112,35.0112,0,1,0,56.2679-41.678"/><rect class="cls-8" x="4425.9618" y="42.7465" width="89.9763" height="46.8508" transform="translate(950.6403 2823.1978) rotate(-38.9152)"/><rect class="cls-8" x="4447.2803" y="69.1074" width="140.7619" height="116.7001" transform="translate(922.5089 2866.1411) rotate(-38.9152)"/><rect class="cls-8" x="4444.9574" y="1.8109" width="17.9346" height="64.361" transform="translate(8907.8493 67.9828) rotate(-180)"/><path class="cls-16" d="M5197.2614,192.1292a35.0111,35.0111,0,1,1-56.2678-41.678"/><rect class="cls-8" x="5226.3702" y="21.1837" width="46.8508" height="89.9763" transform="matrix(0.6282, -0.7781, 0.7781, 0.6282, 1900.5492, 4109.349)"/><rect class="cls-8" x="5144.7342" y="57.0766" width="116.7001" height="140.7619" transform="translate(1835.4956 4095.7919) rotate(-51.0848)"/><rect class="cls-8" x="5257.8536" y="1.8109" width="17.9346" height="64.361"/><polygon class="cls-19" points="4508.543 1554 5232.273 1554 5195.205 194.014 5140 149 4508.543 1554"/><polygon class="cls-20" points="4325.33 1547 3393.084 1547 3449 196 3508 148 4325.33 1547"/><polygon class="cls-20" points="5397.33 1551 4465.084 1551 4521 200 4580 152 5397.33 1551"/><rect class="cls-1" x="1.3728" y="-0.5564" width="1080" height="1577"/><rect class="cls-2" x="812.0759" y="529.892" width="63.3055" height="129.987" rx="10.367"/><rect class="cls-2" x="830.7926" y="464.4841" width="25.8722" height="101.5234" rx="2.367"/><rect class="cls-3" x="812.0759" y="569.685" width="63.3055" height="47.4135"/><polygon class="cls-2" points="856.665 514.191 830.793 514.045 814.275 532.954 872.742 532.485 856.665 514.191"/><ellipse class="cls-4" cx="800.7081" cy="623.5382" rx="29.0627" ry="29.0823"/><ellipse class="cls-5" cx="542.1015" cy="177.4136" rx="108.9353" ry="109.0086"/><ellipse class="cls-6" cx="541.1293" cy="177.4136" rx="86.6967" ry="109.0086"/><ellipse class="cls-7" cx="542.1015" cy="177.4136" rx="49.562" ry="109.0086"/><rect class="cls-8" x="539.7171" y="68.405" width="2.8245" height="218.0171"/><rect class="cls-8" x="539.7171" y="-0.5564" width="2.8245" height="218.0171"/><polygon class="cls-8" points="650.984 180.842 650.86 183.669 433.343 183.669 433.218 180.825 650.984 180.842"/><polygon class="cls-8" points="647.276 205.915 646.471 208.741 437.717 208.741 436.927 205.915 647.276 205.915"/><polygon class="cls-8" points="636.995 230.987 635.363 233.813 448.902 233.813 447.208 230.987 636.995 230.987"/><polygon class="cls-8" points="617.535 256.059 614.439 258.885 469.751 258.885 466.668 256.059 617.535 256.059"/><polygon class="cls-8" points="648.89 155.77 649.42 158.597 434.783 158.597 435.313 155.77 648.89 155.77"/><polygon class="cls-8" points="640.566 130.698 641.847 133.524 442.356 133.524 443.701 130.698 640.566 130.698"/><polygon class="cls-8" points="624.013 105.626 626.55 108.452 457.888 108.261 460.087 105.626 624.013 105.626"/><polygon class="cls-8" points="592.102 80.554 597.24 83.38 488.115 82.712 492.031 80.554 592.102 80.554"/><polygon class="cls-9" points="450.859 63.009 469.346 75.444 487.727 62.903 477.22 81.403 487.833 99.797 469.346 88.439 450.964 99.903 462.635 82.241 450.859 63.009"/><polygon class="cls-9" points="612.445 239.078 630.932 251.513 649.314 238.972 638.806 257.472 649.42 275.866 630.932 264.508 612.551 275.972 624.222 258.31 612.445 239.078"/><polygon class="cls-9" points="422.398 105.305 440.157 117.25 457.815 105.203 447.721 122.975 457.917 140.644 440.157 129.733 422.5 140.746 433.711 123.78 422.398 105.305"/><path class="cls-10" d="M697.5737,1539.32c-34.785,17.0123-46.2719,31.7456-138.0458,24.2651-83.7044-6.8228-162.5043-14.65-166.7217-25.0459-5.1992-12.8166,14.0649-10.1272,166.7217-25.0458C559.5279,1513.4929,709.9929,1533.2456,697.5737,1539.32Z"/><path class="cls-11" d="M405.2893,688.7861c3.5485,2.523,16.0188-11.3514,23.1934-19.3337,14.4863-16.1171,36.0662-44.6356,39.0444-53.8506,4.6709-14.4525-35.31,15.1606-53.24,44.5365C406.5141,672.8731,402.2407,686.6186,405.2893,688.7861Z"/><path class="cls-11" d="M725.6888,705.9014c3.465-2.6367-6.05-18.6856-11.5237-27.9191-11.0527-18.6432-31.8185-47.76-39.72-53.3535-12.3922-8.7719,3.93,38.2468,26.6019,64.1342C710.8756,699.9854,722.7122,708.1667,725.6888,705.9014Z"/><path class="cls-11" d="M739.1957,540.8384c-2.1954-3.7614-19.2689,3.7433-29.0919,8.0609-19.8335,8.7178-51.2346,25.8135-57.7407,32.9837-10.204,11.2454,38.4156.7346,66.844-18.6463C731.531,554.8349,741.0817,544.07,739.1957,540.8384Z"/><path class="cls-4" d="M734.2229,946.6315c0,141.1073-22.0936,257.1393-50.3908,270.9067v1.372c-36.5006,3.2552-102.3249,1.0821-104.0844,1.6042-7.2054,2.1382-11.8133.6437-16.0058-1.6042-6.4543,4.0189-7.3076,4.6619-14.7247,2.0414-2.618-.9249-67.4531,3.39-99.7143-2.0414-30.9512,0-56.0421-121.9033-56.0421-272.2787"/><path class="cls-11" d="M563.91,429.7448c-74.2229,0-134.3927,43.2485-134.3927,96.5981V742.1764c0,41.507,60.17,75.1551,134.3927,75.1551s134.3927-33.6481,134.3927-75.1551V526.3429C698.3023,472.9933,638.1327,429.7448,563.91,429.7448Z"/><path class="cls-12" d="M744.6887,1070.0312c0-141.1073-23.3218-257.1393-53.1919-270.9067v-1.3719H443.9307c-32.6717,0-59.1573,121.9032-59.1573,272.2786"/><path class="cls-13" d="M600.7942,820.2277l.2669-.0014-.451-89.3934-72.2091.3648.4509,89.3934.2668-.0014c.0567,11.2377,16.1478,20.2665,35.94,20.1665S600.8509,831.4653,600.7942,820.2277Z"/><path class="cls-4" d="M435.7705,550.5083V630.85c0,76.436,57.238,138.4,127.8447,138.4S691.46,707.2863,691.46,630.85v-80.342Z"/><ellipse class="cls-14" cx="482.7518" cy="659.879" rx="16.1073" ry="16.1181"/><ellipse class="cls-14" cx="634.3297" cy="659.879" rx="16.1073" ry="16.1181"/><path class="cls-13" d="M436.1017,645.8544c-20.1211,0-36.4324-15.2367-36.4324-34.0322S415.9806,577.79,436.1017,577.79"/><path class="cls-13" d="M690.7312,577.79c20.1211,0,36.4324,15.2367,36.4324,34.0321s-16.3113,34.0322-36.4324,34.0322"/><path class="cls-15" d="M496.2057,589.9507h43.036a2.1937,2.1937,0,0,1,2.1937,2.1937v6.1536a2.1908,2.1908,0,0,1-2.1908,2.1908h-43.036a2.1937,2.1937,0,0,1-2.1937-2.1937v-6.1536a2.1908,2.1908,0,0,1,2.1908-2.1908Z" transform="translate(-268.0295 525.109) rotate(-43.8843)"/><path class="cls-15" d="M514.7427,573.8982h7.179a2.5593,2.5593,0,0,1,2.5593,2.5593v38.7938a2.5559,2.5559,0,0,1-2.5559,2.5559h-7.179a2.5593,2.5593,0,0,1-2.5593-2.5593V576.454a2.5559,2.5559,0,0,1,2.5559-2.5559Z" transform="translate(-268.2983 525.7078) rotate(-43.8843)"/><path class="cls-15" d="M579.5415,589.8953h43.0361a2.1937,2.1937,0,0,1,2.1937,2.1937v6.1537a2.1908,2.1908,0,0,1-2.1908,2.1908h-43.036a2.1937,2.1937,0,0,1-2.1937-2.1937V592.086A2.1907,2.1907,0,0,1,579.5415,589.8953Z" transform="translate(-244.7189 582.8626) rotate(-43.8843)"/><path class="cls-15" d="M598.0787,573.8428h7.179a2.5593,2.5593,0,0,1,2.5593,2.5593v38.7938a2.5559,2.5559,0,0,1-2.5559,2.5559h-7.179a2.5594,2.5594,0,0,1-2.5594-2.5594V576.3987a2.5559,2.5559,0,0,1,2.5559-2.5559Z" transform="translate(-244.9876 583.4611) rotate(-43.8843)"/><path class="cls-12" d="M489.0546,868.9609l-12.9805,8.2908A24.3307,24.3307,0,0,1,442.56,869.847L336.1842,703.0757a24.3666,24.3666,0,0,1,7.4-33.537l12.9806-8.2908a24.3305,24.3305,0,0,1,33.5144,7.4047L496.4543,835.4239A24.3665,24.3665,0,0,1,489.0546,868.9609Z"/><path class="cls-12" d="M699.9026,859.5253l-13.9718-6.48A24.3637,24.3637,0,0,1,674.116,820.8l83.1347-179.5076a24.3335,24.3335,0,0,1,32.224-11.8227l13.9718,6.4794a24.3638,24.3638,0,0,1,11.8148,32.2457L732.1266,847.7025A24.3335,24.3335,0,0,1,699.9026,859.5253Z"/><path class="cls-11" d="M478.5412,492.1245c.1628-4.3529-18.27-7.1808-28.8748-8.8078-21.4123-3.285-57.0781-5.7063-66.4122-3.1457-14.6391,4.0159,32.031,21.235,66.4122,20.1322C464.571,499.8251,478.4014,495.8641,478.5412,492.1245Z"/><path class="cls-11" d="M491.9127,489.4184c2.0194-3.8588-13.4015-14.3513-22.2736-20.388-17.9137-12.1886-49.0643-29.7374-58.5908-31.4469-14.9409-2.6812,19.7764,32.9644,51.2836,46.779C475.9905,490.3512,490.1778,492.7336,491.9127,489.4184Z"/><path class="cls-11" d="M502.3273,462.6779c2.0194-3.8589-13.4015-14.3514-22.2736-20.388-17.9138-12.1887-49.0643-29.7375-58.5908-31.4469-14.9409-2.6812,19.7764,32.9644,51.2835,46.7789C486.4051,463.6107,500.5924,465.993,502.3273,462.6779Z"/><path class="cls-11" d="M723.9853,431.0448c-3.1448-3.012-17.4964,8.9033-25.7533,15.7584-16.6716,13.8413-42.1612,38.9217-46.4451,47.6063-6.7187,13.62,37.1353-9.8691,59.1387-36.3281C720.4642,446.6111,726.6869,433.6323,723.9853,431.0448Z"/><path class="cls-11" d="M696.8087,403.3872c-3.8246-2.08-14.5466,13.1876-20.7153,21.9715-12.4552,17.7357-30.47,48.6329-32.3255,58.1383-2.9094,14.9079,33.2433-19.279,47.5328-50.5906C697.4953,419.3325,700.0945,405.1741,696.8087,403.3872Z"/><rect class="cls-4" x="416.0831" y="1115.8632" width="90.5485" height="450.9255" rx="17.4747"/><rect class="cls-4" x="618.2224" y="1115.8632" width="90.5485" height="450.9255" rx="17.4747"/><rect class="cls-11" x="561.1911" y="1186.9989" width="5.1015" height="31.9113" rx="0.9845"/><rect class="cls-16" x="559.3032" y="1223.5721" width="8.8773" height="14.0876" rx="1.7132"/><rect class="cls-16" x="554.8646" y="1271.7853" width="8.8773" height="14.0876" rx="1.7132"/><rect class="cls-16" x="565.7739" y="1255.4833" width="8.8773" height="18.9832" rx="1.7132"/><rect class="cls-16" x="548.4103" y="1288.0873" width="8.8773" height="31.9113" rx="1.7132"/><rect class="cls-16" x="552.8489" y="1242.145" width="8.8773" height="18.8519" rx="1.7132"/><rect class="cls-16" x="535.293" y="1499.8355" width="34.83" height="9.8083" rx="1.8916"/><rect class="cls-16" x="552.708" y="1504.7396" width="34.83" height="9.8083" rx="1.8916"/><rect class="cls-16" x="539.4161" y="1506.9544" width="34.83" height="9.8083" rx="1.8916"/><rect class="cls-16" x="528.8387" y="1511.8585" width="34.83" height="9.8083" rx="1.8916"/><rect class="cls-16" x="546.2537" y="1512.6349" width="34.83" height="9.8083" rx="1.8916"/><rect class="cls-16" x="561.2698" y="1512.6349" width="34.83" height="9.8083" rx="1.8916"/><rect class="cls-16" x="535.293" y="1517.5391" width="34.83" height="9.8083" rx="1.8916"/><rect class="cls-16" x="555.131" y="1517.5391" width="34.83" height="9.8083" rx="1.8916"/><rect class="cls-11" x="545.5051" y="1205.0011" width="1.3868" height="10.9044" transform="matrix(0.951, -0.3092, 0.3092, 0.951, -347.5498, 228.2395)"/><rect class="cls-11" x="553.0302" y="1207.3599" width="1.3868" height="10.9044" transform="translate(-347.9103 230.6822) rotate(-18.0135)"/><rect class="cls-11" x="548.7336" y="1197.8591" width="1.3873" height="7.1815" transform="translate(-730.6428 874.6891) rotate(-51.1053)"/><rect class="cls-11" x="555.3737" y="1193.7798" width="1.3867" height="9.2272"/><rect class="cls-11" x="540.8126" y="1212.5127" width="1.0256" height="5.1607" transform="translate(-666.1058 656.8868) rotate(-41.1754)"/><rect class="cls-11" x="541.0506" y="1204.8736" width="0.5496" height="5.0095" transform="matrix(0.951, -0.3092, 0.3092, 0.951, -346.8377, 226.5818)"/><rect class="cls-11" x="576.2702" y="1209.2803" width="10.9044" height="1.3868" transform="translate(-748.8354 1389.008) rotate(-71.9865)"/><rect class="cls-11" x="568.7451" y="1211.639" width="10.9044" height="1.3868" transform="translate(-756.2766 1383.481) rotate(-71.9865)"/><rect class="cls-11" x="574.9029" y="1200.2766" width="7.1815" height="1.3873" transform="translate(-625.8276 629.4856) rotate(-38.8947)"/><rect class="cls-11" x="571.1605" y="1193.3002" width="1.3867" height="9.2272" transform="translate(1143.7078 2395.8276) rotate(-180)"/><rect class="cls-11" x="584.0152" y="1214.1006" width="5.1607" height="1.0256" transform="translate(-713.8356 856.4808) rotate(-48.8246)"/><rect class="cls-11" x="584.0908" y="1206.6239" width="5.0095" height="0.5496" transform="matrix(0.3092, -0.951, 0.951, 0.3092, -742.545, 1391.5182)"/><path class="cls-17" d="M146.1466,818.3081,335.113,634.7614a10.6181,10.6181,0,0,1,13.139-.7966l37.33,27.1585c3.8738,2.8183,4.3,7.7886.9476,11.0451,0,0-70.2983,62.2993-95.8691,93.12s-93.0973,90.4271-93.0973,90.4271a10.6178,10.6178,0,0,1-13.139.7966l-37.33-27.1584C143.22,826.5348,142.794,821.5645,146.1466,818.3081Z"/><path class="cls-18" d="M143.3293,816.2584,332.2956,632.7118a10.6181,10.6181,0,0,1,13.1391-.7967l37.33,27.1585c3.8739,2.8183,4.3,7.7886.9477,11.0451,0,0-70.2984,62.2993-95.8692,93.12s-93.0972,90.4271-93.0972,90.4271a10.6178,10.6178,0,0,1-13.139.7966l-37.33-27.1584C140.4031,824.4851,139.9766,819.5149,143.3293,816.2584Z"/><path class="cls-18" d="M141.0805,820.8357C144.9557,796.73,150.35,736.45,191.8,696.1876c49.5591-48.1377,114.9754-53.0465,140.4006-64.58,20.8256-9.4472-28.8068,66.27-75.6019,111.7234S137.9114,840.55,141.0805,820.8357Z"/><path class="cls-17" d="M158.3457,741.8082c19.14,2.7145,30.9461,23.405,26.3687,46.2135s-23.8045,39.098-42.945,36.3836"/><path class="cls-17" d="M235.0246,663.145c6.2448,15.45,32.4275,21.9419,58.4806,14.5s42.1109-25.9989,35.866-41.4488"/><ellipse class="cls-1" cx="556.3776" cy="698.9518" rx="38.6525" ry="31.8811"/><path class="cls-11" d="M550.6641,1091.2271c1.3408,1.483,1.5076-7.181,4.9255-9.8059,3.2029-2.46,9.7245,1.2216,9.3294-.7106-.5155-2.5209-6.7053-4.75-11.0152-.809C550.3609,1083.1408,549.1625,1089.5663,550.6641,1091.2271Z"/><path class="cls-16" d="M204.4841,191.1292a35.0112,35.0112,0,1,0,56.2679-41.678"/><rect class="cls-8" x="106.9618" y="41.7465" width="89.9763" height="46.8508" transform="translate(-7.2177 109.9134) rotate(-38.9152)"/><rect class="cls-8" x="128.2803" y="68.1074" width="140.7619" height="116.7001" transform="translate(-35.3492 152.8567) rotate(-38.9152)"/><rect class="cls-8" x="125.9574" y="0.8109" width="17.9346" height="64.361" transform="translate(269.8493 65.9828) rotate(-180)"/><path class="cls-16" d="M878.2614,191.1292a35.0111,35.0111,0,1,1-56.2678-41.678"/><rect class="cls-8" x="907.3702" y="20.1837" width="46.8508" height="89.9763" transform="matrix(0.6282, -0.7781, 0.7781, 0.6282, 295.3898, 748.4634)"/><rect class="cls-8" x="825.7342" y="56.0766" width="116.7001" height="140.7619" transform="translate(230.3362 734.9063) rotate(-51.0848)"/><rect class="cls-8" x="938.8536" y="0.8109" width="17.9346" height="64.361"/></svg>
