<svg id="Layer_1" data-name="Layer 1" xmlns="http://www.w3.org/2000/svg" width="5400" height="1577" viewBox="0 0 5400 1577"><defs><style>.cls-1{fill:#fff;}.cls-2{fill:#2b987f;}.cls-3{fill:#33a88f;}.cls-4{fill:#6b4d2e;}.cls-5{fill:#7d8a8b;stroke:#304457;}.cls-5,.cls-6,.cls-7{stroke-miterlimit:10;}.cls-6{fill:#93a3a3;stroke:#314559;}.cls-7{fill:#bbc1c5;stroke:#32465a;}.cls-8{fill:#33475c;}.cls-9{fill:#ebeff0;}.cls-10{fill:#d0a637;}.cls-11{fill:#38271a;}.cls-12{fill:#814795;}.cls-13{fill:#634528;}.cls-14{fill:#dd9e87;}.cls-15{fill:#2b3d4f;}.cls-16{fill:#e6be33;}.cls-17{fill:#d7d0c8;}.cls-18{fill:#ececec;}.cls-19{fill:#d05242;}.cls-19,.cls-20{opacity:0.3;}.cls-20{fill:#46a869;}</style></defs><title>nyspritefatima</title><rect class="cls-1" x="2162.37" y="0.44" width="1080" height="1577"/><rect class="cls-2" x="2973.08" y="530.89" width="63.31" height="129.99" rx="10.37"/><rect class="cls-2" x="2991.79" y="465.48" width="25.87" height="101.52" rx="2.37"/><rect class="cls-3" x="2973.08" y="570.69" width="63.31" height="47.41"/><polygon class="cls-2" points="3017.66 515.19 2991.79 515.04 2975.28 533.95 3033.74 533.49 3017.66 515.19"/><ellipse class="cls-4" cx="2961.71" cy="624.54" rx="29.06" ry="29.08"/><ellipse class="cls-5" cx="2703.1" cy="178.41" rx="108.94" ry="109.01"/><ellipse class="cls-6" cx="2702.13" cy="178.41" rx="86.7" ry="109.01"/><ellipse class="cls-7" cx="2703.1" cy="178.41" rx="49.56" ry="109.01"/><rect class="cls-8" x="2700.72" y="69.41" width="2.82" height="218.02"/><rect class="cls-8" x="2700.72" y="0.44" width="2.82" height="218.02"/><polygon class="cls-8" points="2811.98 181.84 2811.86 184.67 2594.34 184.67 2594.22 181.82 2811.98 181.84"/><polygon class="cls-8" points="2808.28 206.91 2807.47 209.74 2598.72 209.74 2597.93 206.91 2808.28 206.91"/><polygon class="cls-8" points="2797.99 231.99 2796.36 234.81 2609.9 234.81 2608.21 231.99 2797.99 231.99"/><polygon class="cls-8" points="2778.53 257.06 2775.44 259.88 2630.75 259.88 2627.67 257.06 2778.53 257.06"/><polygon class="cls-8" points="2809.89 156.77 2810.42 159.6 2595.78 159.6 2596.31 156.77 2809.89 156.77"/><polygon class="cls-8" points="2801.57 131.7 2802.85 134.52 2603.36 134.52 2604.7 131.7 2801.57 131.7"/><polygon class="cls-8" points="2785.01 106.63 2787.55 109.45 2618.89 109.26 2621.09 106.63 2785.01 106.63"/><polygon class="cls-8" points="2753.1 81.55 2758.24 84.38 2649.11 83.71 2653.03 81.55 2753.1 81.55"/><polygon class="cls-9" points="2611.86 64.01 2630.35 76.44 2648.73 63.9 2638.22 82.4 2648.83 100.8 2630.35 89.44 2611.96 100.9 2623.64 83.24 2611.86 64.01"/><polygon class="cls-9" points="2773.45 240.08 2791.93 252.51 2810.31 239.97 2799.81 258.47 2810.42 276.87 2791.93 265.51 2773.55 276.97 2785.22 259.31 2773.45 240.08"/><polygon class="cls-9" points="2583.4 106.31 2601.16 118.25 2618.82 106.2 2608.72 123.97 2618.92 141.64 2601.16 130.73 2583.5 141.75 2594.71 124.78 2583.4 106.31"/><path class="cls-10" d="M2858.57,1540.32c-34.78,17-46.27,31.75-138,24.26-83.71-6.82-162.51-14.65-166.72-25-5.2-12.82,14.06-10.13,166.72-25C2720.53,1514.49,2871,1534.25,2858.57,1540.32Z"/><path class="cls-11" d="M2566.29,689.79c3.55,2.52,16-11.36,23.19-19.34,14.49-16.11,36.07-44.63,39.05-53.85,4.67-14.45-35.31,15.16-53.24,44.54C2567.51,673.87,2563.24,687.62,2566.29,689.79Z"/><path class="cls-11" d="M2886.69,706.9c3.46-2.64-6.05-18.68-11.52-27.92-11.06-18.64-31.82-47.76-39.72-53.35-12.4-8.77,3.92,38.25,26.6,64.13C2871.88,701,2883.71,709.17,2886.69,706.9Z"/><path class="cls-11" d="M2900.2,541.84c-2.2-3.76-19.27,3.74-29.1,8.06-19.83,8.72-51.23,25.81-57.74,33-10.2,11.25,38.42.74,66.85-18.64C2892.53,555.83,2902.08,545.07,2900.2,541.84Z"/><path class="cls-4" d="M2895.22,947.63c0,141.11-22.09,257.14-50.39,270.91v1.37c-36.5,3.26-102.32,1.08-104.08,1.6-7.21,2.14-11.82.65-16-1.6-6.45,4-7.31,4.66-14.72,2-2.62-.92-67.46,3.39-99.72-2-31,0-56-121.9-56-272.28"/><path class="cls-11" d="M2724.91,430.74c-74.22,0-134.39,43.25-134.39,96.6V743.18c0,41.5,60.17,75.15,134.39,75.15s134.39-33.65,134.39-75.15V527.34C2859.3,474,2799.13,430.74,2724.91,430.74Z"/><path class="cls-12" d="M2905.69,1071c0-141.11-23.32-257.14-53.19-270.91v-1.37H2604.93c-32.67,0-59.16,121.91-59.16,272.28"/><path class="cls-13" d="M2761.79,821.23h.27l-.45-89.4-72.21.37.45,89.39h.27c.06,11.24,16.15,20.27,35.94,20.17S2761.85,832.47,2761.79,821.23Z"/><path class="cls-4" d="M2596.77,551.51v80.34c0,76.44,57.24,138.4,127.85,138.4s127.84-62,127.84-138.4V551.51Z"/><ellipse class="cls-14" cx="2643.75" cy="660.88" rx="16.11" ry="16.12"/><ellipse class="cls-14" cx="2795.33" cy="660.88" rx="16.11" ry="16.12"/><path class="cls-13" d="M2597.1,646.85c-20.12,0-36.43-15.23-36.43-34s16.31-34,36.43-34"/><path class="cls-13" d="M2851.73,578.79c20.12,0,36.43,15.24,36.43,34s-16.31,34-36.43,34"/><rect class="cls-15" x="2655.01" y="590.95" width="47.42" height="10.54" rx="2.19" transform="translate(334.75 2023.4) rotate(-43.88)"/><rect class="cls-15" x="2673.19" y="574.9" width="12.29" height="43.91" rx="2.56" transform="translate(334.49 2024) rotate(-43.88)"/><rect class="cls-15" x="2738.35" y="590.9" width="47.42" height="10.54" rx="2.19" transform="translate(358.07 2081.16) rotate(-43.88)"/><rect class="cls-15" x="2756.52" y="574.84" width="12.29" height="43.91" rx="2.56" transform="translate(357.8 2081.75) rotate(-43.88)"/><path class="cls-12" d="M2650.05,870l-13,8.29a24.32,24.32,0,0,1-33.51-7.4L2497.18,704.08a24.37,24.37,0,0,1,7.4-33.54l13-8.29a24.33,24.33,0,0,1,33.52,7.4l106.37,166.77A24.36,24.36,0,0,1,2650.05,870Z"/><path class="cls-12" d="M2860.9,860.53l-14-6.48a24.36,24.36,0,0,1-11.81-32.25l83.13-179.51a24.32,24.32,0,0,1,32.22-11.82l14,6.48a24.36,24.36,0,0,1,11.81,32.24L2893.13,848.7A24.35,24.35,0,0,1,2860.9,860.53Z"/><path class="cls-11" d="M2639.54,493.12c.16-4.35-18.27-7.18-28.87-8.8-21.42-3.29-57.08-5.71-66.42-3.15-14.63,4,32,21.24,66.42,20.13C2625.57,500.83,2639.4,496.86,2639.54,493.12Z"/><path class="cls-11" d="M2652.91,490.42c2-3.86-13.4-14.35-22.27-20.39-17.91-12.19-49.07-29.74-58.59-31.45-14.94-2.68,19.77,33,51.28,46.78C2637,491.35,2651.18,493.73,2652.91,490.42Z"/><path class="cls-11" d="M2663.33,463.68c2-3.86-13.4-14.35-22.28-20.39-17.91-12.19-49.06-29.74-58.59-31.45-14.94-2.68,19.78,33,51.29,46.78C2647.41,464.61,2661.59,467,2663.33,463.68Z"/><path class="cls-11" d="M2885,432c-3.15-3-17.5,8.91-25.76,15.76-16.67,13.84-42.16,38.92-46.44,47.61-6.72,13.62,37.13-9.87,59.14-36.33C2881.46,447.61,2887.69,434.63,2885,432Z"/><path class="cls-11" d="M2857.81,404.39c-3.83-2.08-14.55,13.18-20.72,22-12.45,17.73-30.47,48.63-32.32,58.14-2.91,14.9,33.24-19.28,47.53-50.59C2858.5,420.33,2861.09,406.17,2857.81,404.39Z"/><rect class="cls-4" x="2577.08" y="1116.86" width="90.55" height="450.93" rx="17.47"/><rect class="cls-4" x="2779.22" y="1116.86" width="90.55" height="450.93" rx="17.47"/><rect class="cls-11" x="2722.19" y="1188" width="5.1" height="31.91" rx="0.98"/><rect class="cls-16" x="2720.3" y="1224.57" width="8.88" height="14.09" rx="1.71"/><rect class="cls-16" x="2715.86" y="1272.79" width="8.88" height="14.09" rx="1.71"/><rect class="cls-16" x="2726.77" y="1256.48" width="8.88" height="18.98" rx="1.71"/><rect class="cls-16" x="2709.41" y="1289.09" width="8.88" height="31.91" rx="1.71"/><rect class="cls-16" x="2713.85" y="1243.15" width="8.88" height="18.85" rx="1.71"/><rect class="cls-16" x="2696.29" y="1500.84" width="34.83" height="9.81" rx="1.89"/><rect class="cls-16" x="2713.71" y="1505.74" width="34.83" height="9.81" rx="1.89"/><rect class="cls-16" x="2700.42" y="1507.95" width="34.83" height="9.81" rx="1.89"/><rect class="cls-16" x="2689.84" y="1512.86" width="34.83" height="9.81" rx="1.89"/><rect class="cls-16" x="2707.25" y="1513.63" width="34.83" height="9.81" rx="1.89"/><rect class="cls-16" x="2722.27" y="1513.63" width="34.83" height="9.81" rx="1.89"/><rect class="cls-16" x="2696.29" y="1518.54" width="34.83" height="9.81" rx="1.89"/><rect class="cls-16" x="2716.13" y="1518.54" width="34.83" height="9.81" rx="1.89"/><rect class="cls-11" x="2706.51" y="1206" width="1.39" height="10.9" transform="matrix(0.95, -0.31, 0.31, 0.95, -241.93, 896.56)"/><rect class="cls-11" x="2714.03" y="1208.36" width="1.39" height="10.9" transform="translate(-242.29 899) rotate(-18.01)"/><rect class="cls-11" x="2709.73" y="1198.86" width="1.39" height="7.18" transform="translate(72.7 2556.97) rotate(-51.11)"/><rect class="cls-11" x="2716.37" y="1194.78" width="1.39" height="9.23"/><rect class="cls-11" x="2701.81" y="1213.51" width="1.03" height="5.16" transform="translate(-132.34 2079.87) rotate(-41.18)"/><rect class="cls-11" x="2702.05" y="1205.87" width="0.55" height="5.01" transform="matrix(0.95, -0.31, 0.31, 0.95, -241.22, 894.9)"/><rect class="cls-11" x="2737.27" y="1210.28" width="10.9" height="1.39" transform="translate(742.94 3444.77) rotate(-71.99)"/><rect class="cls-11" x="2729.75" y="1212.64" width="10.9" height="1.39" transform="translate(735.5 3439.25) rotate(-71.99)"/><rect class="cls-11" x="2735.9" y="1201.28" width="7.18" height="1.39" transform="translate(-147.36 1986.58) rotate(-38.89)"/><rect class="cls-11" x="2732.16" y="1194.3" width="1.39" height="9.23" transform="translate(5465.71 2397.83) rotate(-180)"/><rect class="cls-11" x="2745.02" y="1215.1" width="5.16" height="1.03" transform="translate(23.68 2483.4) rotate(-48.82)"/><rect class="cls-11" x="2745.09" y="1207.62" width="5.01" height="0.55" transform="matrix(0.31, -0.95, 0.95, 0.31, 749.23, 3447.28)"/><path class="cls-17" d="M2307.15,819.31l189-183.55a10.63,10.63,0,0,1,13.14-.8l37.33,27.16c3.88,2.82,4.3,7.79,1,11,0,0-70.3,62.3-95.87,93.12s-93.1,90.43-93.1,90.43a10.62,10.62,0,0,1-13.14.79l-37.33-27.16C2304.22,827.53,2303.79,822.56,2307.15,819.31Z"/><path class="cls-18" d="M2304.33,817.26l189-183.55a10.61,10.61,0,0,1,13.13-.79l37.33,27.15c3.88,2.82,4.3,7.79.95,11,0,0-70.3,62.3-95.87,93.12s-93.09,90.43-93.09,90.43a10.63,10.63,0,0,1-13.14.79l-37.33-27.16C2301.4,825.49,2301,820.51,2304.33,817.26Z"/><path class="cls-18" d="M2302.08,821.84c3.88-24.11,9.27-84.39,50.72-124.65,49.56-48.14,115-53.05,140.4-64.58,20.83-9.45-28.81,66.27-75.6,111.72S2298.91,841.55,2302.08,821.84Z"/><path class="cls-17" d="M2319.35,742.81c19.14,2.71,30.94,23.4,26.36,46.21s-23.8,39.1-42.94,36.39"/><path class="cls-17" d="M2396,664.14c6.25,15.45,32.43,22,58.49,14.51s42.11-26,35.86-41.45"/><ellipse class="cls-1" cx="2717.38" cy="699.95" rx="38.65" ry="31.88"/><path class="cls-11" d="M2711.66,1092.23c1.34,1.48,1.51-7.18,4.93-9.81,3.2-2.46,9.72,1.22,9.33-.71-.52-2.52-6.71-4.75-11-.81C2711.36,1084.14,2710.16,1090.57,2711.66,1092.23Z"/><path class="cls-16" d="M2365.48,192.13a35,35,0,1,0,56.27-41.68"/><rect class="cls-8" x="2267.96" y="42.75" width="89.98" height="46.85" transform="translate(471.73 1467.61) rotate(-38.92)"/><rect class="cls-8" x="2289.28" y="69.11" width="140.76" height="116.7" transform="translate(443.6 1510.55) rotate(-38.92)"/><rect class="cls-8" x="2286.96" y="1.81" width="17.93" height="64.36" transform="translate(4591.85 67.98) rotate(-180)"/><path class="cls-16" d="M3039.26,192.13A35,35,0,1,1,2983,150.45"/><rect class="cls-8" x="3068.37" y="21.18" width="46.85" height="89.98" transform="matrix(0.63, -0.78, 0.78, 0.63, 1098.14, 2430.26)"/><rect class="cls-8" x="2986.73" y="57.08" width="116.7" height="140.76" transform="translate(1033.08 2416.7) rotate(-51.08)"/><rect class="cls-8" x="3099.85" y="1.81" width="17.93" height="64.36"/><rect class="cls-1" x="1081.06" width="1080" height="1577"/><path class="cls-10" d="M1772.82,1518.61c-34.35,16.79-45.69,31.32-136.31,23.94-82.66-6.73-160.47-14.45-164.64-24.71-5.13-12.65,13.89-10,164.64-24.72C1636.51,1493.12,1785.09,1512.61,1772.82,1518.61Z"/><rect class="cls-2" x="1950.59" y="577.97" width="62.51" height="128.27" rx="10.37" transform="translate(-16.4 1231.18) rotate(-34.38)"/><rect class="cls-2" x="1924.7" y="527.15" width="25.55" height="100.18" rx="2.37" transform="translate(12.47 1194.79) rotate(-34.38)"/><rect class="cls-3" x="1949.76" y="617.49" width="62.51" height="46.79" transform="translate(-15.86 1230.49) rotate(-34.38)"/><polygon class="cls-2" points="1947.43 569.17 1926.26 583.48 1923.34 608.09 1970.73 575.1 1947.43 569.17"/><circle class="cls-4" cx="1958.25" cy="680.55" r="28.7"/><circle class="cls-5" cx="1621.78" cy="175.62" r="107.57"/><ellipse class="cls-6" cx="1620.82" cy="175.62" rx="85.61" ry="107.57"/><ellipse class="cls-7" cx="1621.78" cy="175.62" rx="48.94" ry="107.57"/><rect class="cls-8" x="1619.42" y="68.05" width="2.79" height="215.14"/><rect class="cls-8" x="1619.42" width="2.79" height="215.14"/><polygon class="cls-8" points="1729.3 179.01 1729.17 181.8 1514.38 181.8 1514.26 178.99 1729.3 179.01"/><polygon class="cls-8" points="1725.63 203.75 1724.84 206.54 1518.7 206.54 1517.92 203.75 1725.63 203.75"/><polygon class="cls-8" points="1715.48 228.49 1713.87 231.28 1529.75 231.28 1528.07 228.49 1715.48 228.49"/><polygon class="cls-8" points="1696.27 253.23 1693.21 256.02 1550.33 256.02 1547.29 253.23 1696.27 253.23"/><polygon class="cls-8" points="1727.23 154.26 1727.75 157.05 1515.8 157.05 1516.33 154.26 1727.23 154.26"/><polygon class="cls-8" points="1719.01 129.52 1720.28 132.31 1523.28 132.31 1524.61 129.52 1719.01 129.52"/><polygon class="cls-8" points="1702.66 104.78 1705.17 107.57 1538.62 107.38 1540.79 104.78 1702.66 104.78"/><polygon class="cls-8" points="1671.15 80.04 1676.23 82.83 1568.47 82.17 1572.34 80.04 1671.15 80.04"/><polygon class="cls-9" points="1531.68 62.73 1549.93 75 1568.09 62.62 1557.71 80.88 1568.19 99.03 1549.93 87.82 1531.78 99.14 1543.31 81.71 1531.68 62.73"/><polygon class="cls-9" points="1670.72 63.28 1688.97 75.55 1707.13 63.18 1696.75 81.44 1707.23 99.59 1688.97 88.38 1670.82 99.69 1682.35 82.26 1670.72 63.28"/><polygon class="cls-9" points="1510.54 231.38 1528.07 243.17 1545.51 231.28 1535.54 248.82 1545.61 266.25 1528.07 255.49 1510.64 266.35 1521.71 249.61 1510.54 231.38"/><polygon class="cls-9" points="1547.29 265.76 1564.83 277.55 1582.26 265.66 1572.3 283.19 1582.36 300.63 1564.83 289.86 1547.39 300.73 1558.46 283.99 1547.29 265.76"/><path class="cls-11" d="M1486.68,680.25c3.5,2.49,15.82-11.2,22.9-19.08,14.31-15.9,35.62-44,38.56-53.14,4.61-14.26-34.87,15-52.58,44C1487.89,664.55,1483.67,678.11,1486.68,680.25Z"/><path class="cls-11" d="M1803.07,697.14c3.42-2.6-6-18.44-11.38-27.55-10.92-18.4-31.42-47.13-39.23-52.65-12.23-8.65,3.88,37.74,26.27,63.29C1788.44,691.3,1800.13,699.38,1803.07,697.14Z"/><path class="cls-11" d="M1816.4,534.26c-2.16-3.72-19,3.69-28.72,8-19.59,8.6-50.6,25.47-57,32.55-10.08,11.1,37.93.72,66-18.4C1808.84,548.07,1818.27,537.44,1816.4,534.26Z"/><path class="cls-4" d="M1811.49,934.7c0,139.25-21.81,253.75-49.76,267.33v1.36c-36,3.21-101,1.07-102.78,1.58-7.11,2.11-11.66.64-15.8-1.58-6.38,4-7.22,4.6-14.54,2-2.59-.91-66.61,3.35-98.47-2-30.56,0-55.34-120.3-55.34-268.69"/><path class="cls-11" d="M1643.31,424.63c-73.29,0-132.71,42.68-132.71,95.32v213c0,41,59.42,74.16,132.71,74.16S1776,773.9,1776,732.94V520C1776,467.31,1716.61,424.63,1643.31,424.63Z"/><path class="cls-12" d="M1821.83,1056.47c0-139.25-23-253.75-52.53-267.33v-1.36H1524.84c-32.27,0-58.42,120.3-58.42,268.69"/><path class="cls-13" d="M1679.74,810h.26l-.45-88.21-71.3.36.44,88.21h.27c0,11.09,15.94,20,35.49,19.9S1679.79,821.05,1679.74,810Z"/><path class="cls-4" d="M1516.78,543.8v79.28c0,75.43,56.52,136.58,126.24,136.58s126.25-61.15,126.25-136.58V543.8Z"/><circle class="cls-14" cx="1563.17" cy="651.73" r="15.91"/><circle class="cls-14" cx="1712.85" cy="651.73" r="15.91"/><path class="cls-13" d="M1517.11,637.89c-19.87,0-36-15-36-33.59s16.11-33.58,36-33.58"/><path class="cls-13" d="M1768.55,570.72c19.87,0,36,15,36,33.58s-16.1,33.59-36,33.59"/><rect class="cls-15" x="1592.51" y="564.51" width="10.4" height="46.81" rx="2.03" transform="translate(913.39 -970.93) rotate(46.1)"/><rect class="cls-15" x="1576.64" y="582.48" width="43.34" height="12.14" rx="2.37" transform="translate(914.02 -971.17) rotate(46.1)"/><rect class="cls-15" x="1674.8" y="564.46" width="10.4" height="46.81" rx="2.03" transform="translate(938.57 -1030.24) rotate(46.1)"/><rect class="cls-15" x="1658.93" y="582.42" width="43.34" height="12.14" rx="2.37" transform="translate(939.21 -1030.48) rotate(46.1)"/><rect class="cls-12" x="1466" y="638.07" width="63.14" height="243.17" rx="29" transform="translate(-173.49 925.05) rotate(-32.55)"/><rect class="cls-12" x="1779.14" y="757.54" width="63.14" height="131.42" rx="29" transform="translate(2789.97 -908.06) rotate(95.04)"/><rect class="cls-12" x="1863.07" y="670.72" width="63.14" height="193.45" rx="29" transform="translate(819.19 -970.95) rotate(36.21)"/><path class="cls-11" d="M1559,486.18c.16-4.29-18-7.08-28.51-8.69-21.14-3.24-56.36-5.63-65.58-3.1-14.46,4,31.63,20.95,65.58,19.87C1545.22,493.78,1558.88,489.87,1559,486.18Z"/><path class="cls-11" d="M1572.22,483.51c2-3.8-13.24-14.16-22-20.12-17.69-12-48.45-29.34-57.85-31-14.76-2.64,19.52,32.53,50.64,46.16C1556.49,484.43,1570.5,486.79,1572.22,483.51Z"/><path class="cls-11" d="M1582.5,457.13c2-3.81-13.23-14.17-22-20.12-17.69-12-48.45-29.35-57.86-31-14.75-2.64,19.53,32.53,50.64,46.17C1566.78,458.05,1580.79,460.4,1582.5,457.13Z"/><path class="cls-11" d="M1801.38,425.91c-3.1-3-17.27,8.79-25.43,15.55-16.46,13.66-41.63,38.41-45.86,47-6.63,13.44,36.67-9.74,58.4-35.85C1797.91,441.27,1804.05,428.46,1801.38,425.91Z"/><path class="cls-11" d="M1774.55,398.62c-3.78-2.06-14.37,13-20.46,21.68-12.3,17.5-30.09,48-31.92,57.37-2.87,14.71,32.83-19,46.94-49.92C1775.23,414.35,1777.79,400.38,1774.55,398.62Z"/><rect class="cls-4" x="1497.34" y="1101.7" width="89.41" height="444.98" rx="17.47"/><rect class="cls-4" x="1696.95" y="1101.7" width="89.41" height="444.98" rx="17.47"/><rect class="cls-11" x="1640.63" y="1171.9" width="5.04" height="31.49" rx="0.98"/><rect class="cls-16" x="1638.76" y="1207.99" width="8.77" height="13.9" rx="1.71"/><rect class="cls-16" x="1634.38" y="1255.57" width="8.77" height="13.9" rx="1.71"/><rect class="cls-16" x="1645.15" y="1239.48" width="8.77" height="18.73" rx="1.71"/><rect class="cls-16" x="1628.01" y="1271.65" width="8.77" height="31.49" rx="1.71"/><rect class="cls-16" x="1642.84" y="1303.14" width="8.77" height="18.6" rx="1.71"/><rect class="cls-16" x="1632.39" y="1226.32" width="8.77" height="18.6" rx="1.71"/><rect class="cls-16" x="1638.96" y="1329.88" width="8.77" height="13.9" rx="1.71"/><rect class="cls-16" x="1634.57" y="1377.45" width="8.77" height="13.9" rx="1.71"/><rect class="cls-16" x="1645.35" y="1361.37" width="8.77" height="18.73" rx="1.71"/><rect class="cls-16" x="1628.2" y="1393.54" width="8.77" height="31.49" rx="1.71"/><rect class="cls-16" x="1643.03" y="1425.03" width="8.77" height="18.6" rx="1.71"/><rect class="cls-16" x="1632.58" y="1348.2" width="8.77" height="18.6" rx="1.71"/><rect class="cls-16" x="1615.05" y="1480.61" width="34.39" height="9.68" rx="1.89"/><rect class="cls-16" x="1632.25" y="1485.45" width="34.39" height="9.68" rx="1.89"/><rect class="cls-16" x="1619.13" y="1487.63" width="34.39" height="9.68" rx="1.89"/><rect class="cls-16" x="1608.68" y="1492.47" width="34.39" height="9.68" rx="1.89"/><rect class="cls-16" x="1625.88" y="1493.24" width="34.39" height="9.68" rx="1.89"/><rect class="cls-16" x="1640.71" y="1493.24" width="34.39" height="9.68" rx="1.89"/><rect class="cls-16" x="1615.05" y="1498.08" width="34.39" height="9.68" rx="1.89"/><rect class="cls-16" x="1634.64" y="1498.08" width="34.39" height="9.68" rx="1.89"/><rect class="cls-11" x="1625.14" y="1189.66" width="1.37" height="10.76" transform="translate(-289.74 560.97) rotate(-18)"/><rect class="cls-11" x="1632.57" y="1191.99" width="1.37" height="10.76" transform="translate(-290.09 563.38) rotate(-18)"/><rect class="cls-11" x="1628.33" y="1182.61" width="1.37" height="7.09" transform="translate(-317.19 1708.6) rotate(-51.09)"/><rect class="cls-11" x="1634.88" y="1178.59" width="1.37" height="9.11"/><rect class="cls-11" x="1620.51" y="1197.07" width="1.01" height="5.09" transform="translate(-388.96 1363.22) rotate(-41.16)"/><rect class="cls-11" x="1620.74" y="1189.54" width="0.54" height="4.94" transform="translate(-289.04 559.33) rotate(-18)"/><rect class="cls-11" x="1660.22" y="1189.19" width="1.37" height="10.76" transform="translate(2871.31 2843.96) rotate(-162)"/><rect class="cls-11" x="1652.79" y="1191.52" width="1.37" height="10.76" transform="translate(2856.09 2846.21) rotate(-162)"/><rect class="cls-11" x="1657.03" y="1182.14" width="1.37" height="7.09" transform="translate(1776.43 3220.33) rotate(-128.91)"/><rect class="cls-11" x="1650.47" y="1178.11" width="1.37" height="9.11" transform="translate(3302.32 2365.34) rotate(-180)"/><rect class="cls-11" x="1665.21" y="1196.6" width="1.01" height="5.09" transform="translate(2130.68 3198.24) rotate(-138.84)"/><rect class="cls-11" x="1665.44" y="1189.06" width="0.54" height="4.94" transform="translate(2881.64 2839.53) rotate(-162)"/><path class="cls-17" d="M1230.78,808.07l186.6-181.13a10.5,10.5,0,0,1,13-.79L1467.22,653c3.82,2.78,4.24,7.68.93,10.89,0,0-69.41,61.48-94.66,91.9S1281.55,845,1281.55,845a10.49,10.49,0,0,1-13,.79L1231.72,819C1227.89,816.19,1227.47,811.28,1230.78,808.07Z"/><path class="cls-18" d="M1228,806l186.6-181.12a10.48,10.48,0,0,1,13-.79l36.87,26.8c3.82,2.78,4.24,7.69.93,10.9,0,0-69.42,61.48-94.67,91.89S1278.77,843,1278.77,843a10.48,10.48,0,0,1-13,.78l-36.87-26.8C1225.11,814.16,1224.69,809.26,1228,806Z"/><path class="cls-18" d="M1225.78,810.56c3.83-23.79,9.15-83.27,50.08-123,48.94-47.51,113.54-52.35,138.65-63.73,20.56-9.32-28.45,65.39-74.66,110.25S1222.65,830,1225.78,810.56Z"/><path class="cls-17" d="M1242.83,732.58c18.9,2.67,30.56,23.09,26,45.6s-23.51,38.58-42.41,35.9"/><path class="cls-17" d="M1318.55,655c6.16,15.25,32,21.65,57.74,14.31s41.59-25.66,35.42-40.9"/><ellipse class="cls-1" cx="1635.88" cy="690.28" rx="38.17" ry="31.46"/><path class="cls-11" d="M1630.23,1077.39c1.33,1.46,1.49-7.09,4.87-9.68,3.16-2.43,9.6,1.21,9.21-.7-.51-2.49-6.62-4.69-10.88-.8C1629.93,1069.41,1628.75,1075.75,1630.23,1077.39Z"/><path class="cls-16" d="M1288.39,189.16A34.56,34.56,0,1,0,1344,148"/><rect class="cls-8" x="1192.1" y="41.74" width="88.83" height="46.25" transform="translate(2239.6 -661.08) rotate(141.1)"/><rect class="cls-8" x="1213.16" y="67.74" width="138.96" height="115.19" transform="translate(2359.6 -582.5) rotate(141.1)"/><rect class="cls-8" x="1210.84" y="1.35" width="17.71" height="63.51" transform="translate(2439.4 66.21) rotate(-180)"/><path class="cls-16" d="M1953.73,189.16A34.56,34.56,0,1,1,1898.17,148"/><rect class="cls-8" x="1961.19" y="41.74" width="88.83" height="46.25" transform="translate(485.4 -1244.97) rotate(38.9)"/><rect class="cls-8" x="1890" y="67.74" width="138.96" height="115.19" transform="matrix(0.78, 0.63, -0.63, 0.78, 513.15, -1202.59)"/><rect class="cls-8" x="2013.56" y="1.35" width="17.71" height="63.51"/><rect class="cls-1" x="3243.06" width="1080" height="1577"/><path class="cls-10" d="M3934.82,1518.61c-34.35,16.79-45.69,31.32-136.31,23.94-82.66-6.73-160.47-14.45-164.64-24.71-5.13-12.65,13.89-10,164.64-24.72C3798.51,1493.12,3947.09,1512.61,3934.82,1518.61Z"/><rect class="cls-2" x="4112.59" y="577.97" width="62.51" height="128.27" rx="10.37" transform="translate(361.21 2451.92) rotate(-34.38)"/><rect class="cls-2" x="4086.7" y="527.15" width="25.55" height="100.18" rx="2.37" transform="translate(390.09 2415.54) rotate(-34.38)"/><rect class="cls-3" x="4111.76" y="617.49" width="62.51" height="46.79" transform="translate(361.75 2451.24) rotate(-34.38)"/><polygon class="cls-2" points="4109.43 569.17 4088.26 583.48 4085.34 608.09 4132.73 575.1 4109.43 569.17"/><circle class="cls-4" cx="4120.25" cy="680.55" r="28.7"/><circle class="cls-5" cx="3783.78" cy="175.62" r="107.57"/><ellipse class="cls-6" cx="3782.82" cy="175.62" rx="85.61" ry="107.57"/><ellipse class="cls-7" cx="3783.78" cy="175.62" rx="48.94" ry="107.57"/><rect class="cls-8" x="3781.42" y="68.05" width="2.79" height="215.14"/><rect class="cls-8" x="3781.42" width="2.79" height="215.14"/><polygon class="cls-8" points="3891.3 179.01 3891.18 181.8 3676.38 181.8 3676.26 178.99 3891.3 179.01"/><polygon class="cls-8" points="3887.64 203.75 3886.84 206.54 3680.7 206.54 3679.92 203.75 3887.64 203.75"/><polygon class="cls-8" points="3877.48 228.49 3875.87 231.28 3691.75 231.28 3690.07 228.49 3877.48 228.49"/><polygon class="cls-8" points="3858.27 253.23 3855.21 256.02 3712.33 256.02 3709.29 253.23 3858.27 253.23"/><polygon class="cls-8" points="3889.23 154.26 3889.75 157.05 3677.8 157.05 3678.33 154.26 3889.23 154.26"/><polygon class="cls-8" points="3881.01 129.52 3882.28 132.31 3685.28 132.31 3686.61 129.52 3881.01 129.52"/><polygon class="cls-8" points="3864.66 104.78 3867.17 107.57 3700.62 107.38 3702.79 104.78 3864.66 104.78"/><polygon class="cls-8" points="3833.15 80.04 3838.23 82.83 3730.47 82.17 3734.34 80.04 3833.15 80.04"/><polygon class="cls-9" points="3693.68 62.73 3711.93 75 3730.09 62.62 3719.71 80.88 3730.19 99.03 3711.93 87.82 3693.78 99.14 3705.31 81.71 3693.68 62.73"/><polygon class="cls-9" points="3832.72 63.28 3850.97 75.55 3869.13 63.18 3858.75 81.44 3869.23 99.59 3850.97 88.38 3832.82 99.69 3844.35 82.26 3832.72 63.28"/><polygon class="cls-9" points="3672.53 231.38 3690.07 243.17 3707.51 231.28 3697.54 248.82 3707.61 266.25 3690.07 255.49 3672.64 266.35 3683.71 249.61 3672.53 231.38"/><polygon class="cls-9" points="3709.29 265.76 3726.83 277.55 3744.26 265.66 3734.3 283.19 3744.36 300.63 3726.83 289.86 3709.39 300.73 3720.46 283.99 3709.29 265.76"/><path class="cls-11" d="M3648.68,680.25c3.5,2.49,15.82-11.2,22.9-19.08,14.31-15.9,35.62-44,38.56-53.14,4.61-14.26-34.87,15-52.58,44C3649.89,664.55,3645.67,678.11,3648.68,680.25Z"/><path class="cls-11" d="M3965.07,697.14c3.42-2.6-6-18.44-11.38-27.55-10.92-18.4-31.42-47.13-39.23-52.65-12.23-8.65,3.88,37.74,26.27,63.29C3950.44,691.3,3962.13,699.38,3965.07,697.14Z"/><path class="cls-11" d="M3978.4,534.26c-2.16-3.72-19,3.69-28.72,8-19.59,8.6-50.6,25.47-57,32.55-10.08,11.1,37.93.72,66-18.4C3970.84,548.07,3980.27,537.44,3978.4,534.26Z"/><path class="cls-4" d="M3973.49,934.7c0,139.25-21.81,253.75-49.76,267.33v1.36c-36,3.21-101,1.07-102.78,1.58-7.11,2.11-11.66.64-15.8-1.58-6.38,4-7.22,4.6-14.54,2-2.59-.91-66.61,3.35-98.47-2-30.56,0-55.34-120.3-55.34-268.69"/><path class="cls-11" d="M3805.31,424.63c-73.29,0-132.71,42.68-132.71,95.32v213c0,41,59.42,74.16,132.71,74.16S3938,773.9,3938,732.94V520C3938,467.31,3878.61,424.63,3805.31,424.63Z"/><path class="cls-12" d="M3983.83,1056.47c0-139.25-23-253.75-52.53-267.33v-1.36H3686.84c-32.27,0-58.42,120.3-58.42,268.69"/><path class="cls-13" d="M3841.74,810h.26l-.45-88.21-71.3.36.44,88.21h.27c.05,11.09,15.94,20,35.49,19.9S3841.79,821.05,3841.74,810Z"/><path class="cls-4" d="M3678.78,543.8v79.28c0,75.43,56.52,136.58,126.24,136.58s126.25-61.15,126.25-136.58V543.8Z"/><circle class="cls-14" cx="3725.17" cy="651.73" r="15.91"/><circle class="cls-14" cx="3874.85" cy="651.73" r="15.91"/><path class="cls-13" d="M3679.11,637.89c-19.87,0-36-15-36-33.59s16.11-33.58,36-33.58"/><path class="cls-13" d="M3930.55,570.72c19.87,0,36,15,36,33.58s-16.1,33.59-36,33.59"/><rect class="cls-15" x="3754.51" y="564.51" width="10.4" height="46.81" rx="2.03" transform="translate(1576.16 -2528.67) rotate(46.1)"/><rect class="cls-15" x="3738.64" y="582.48" width="43.34" height="12.14" rx="2.37" transform="translate(1576.79 -2528.91) rotate(46.1)"/><rect class="cls-15" x="3836.8" y="564.46" width="10.4" height="46.81" rx="2.03" transform="translate(1601.34 -2587.98) rotate(46.1)"/><rect class="cls-15" x="3820.93" y="582.42" width="43.34" height="12.14" rx="2.37" transform="translate(1601.98 -2588.22) rotate(46.1)"/><rect class="cls-12" x="3628" y="638.07" width="63.14" height="243.17" rx="29" transform="translate(166.1 2088.26) rotate(-32.55)"/><rect class="cls-12" x="3941.14" y="757.54" width="63.14" height="131.42" rx="29" transform="translate(5142.06 -3061.69) rotate(95.04)"/><rect class="cls-12" x="4025.07" y="670.72" width="63.14" height="193.45" rx="29" transform="translate(1236.68 -2248.03) rotate(36.21)"/><path class="cls-11" d="M3721,486.18c.16-4.29-18-7.08-28.51-8.69-21.14-3.24-56.36-5.63-65.58-3.1-14.46,4,31.63,20.95,65.58,19.87C3707.22,493.78,3720.88,489.87,3721,486.18Z"/><path class="cls-11" d="M3734.22,483.51c2-3.8-13.24-14.16-22-20.12-17.69-12-48.45-29.34-57.85-31-14.76-2.64,19.52,32.53,50.64,46.16C3718.49,484.43,3732.5,486.79,3734.22,483.51Z"/><path class="cls-11" d="M3744.5,457.13c2-3.81-13.23-14.17-22-20.12-17.69-12-48.45-29.35-57.86-31-14.75-2.64,19.53,32.53,50.64,46.17C3728.78,458.05,3742.79,460.4,3744.5,457.13Z"/><path class="cls-11" d="M3963.38,425.91c-3.1-3-17.27,8.79-25.43,15.55-16.46,13.66-41.63,38.41-45.86,47-6.63,13.44,36.67-9.74,58.4-35.85C3959.91,441.27,3966.05,428.46,3963.38,425.91Z"/><path class="cls-11" d="M3936.55,398.62c-3.78-2.06-14.37,13-20.46,21.68-12.3,17.5-30.09,48-31.92,57.37-2.87,14.71,32.83-19,46.94-49.92C3937.23,414.35,3939.79,400.38,3936.55,398.62Z"/><rect class="cls-4" x="3659.34" y="1101.7" width="89.41" height="444.98" rx="17.47"/><rect class="cls-4" x="3858.95" y="1101.7" width="89.41" height="444.98" rx="17.47"/><rect class="cls-11" x="3802.63" y="1171.9" width="5.04" height="31.49" rx="0.98"/><rect class="cls-16" x="3800.76" y="1207.99" width="8.77" height="13.9" rx="1.71"/><rect class="cls-16" x="3796.38" y="1255.57" width="8.77" height="13.9" rx="1.71"/><rect class="cls-16" x="3807.15" y="1239.48" width="8.77" height="18.73" rx="1.71"/><rect class="cls-16" x="3790.01" y="1271.65" width="8.77" height="31.49" rx="1.71"/><rect class="cls-16" x="3804.84" y="1303.14" width="8.77" height="18.6" rx="1.71"/><rect class="cls-16" x="3794.39" y="1226.32" width="8.77" height="18.6" rx="1.71"/><rect class="cls-16" x="3800.96" y="1329.88" width="8.77" height="13.9" rx="1.71"/><rect class="cls-16" x="3796.57" y="1377.45" width="8.77" height="13.9" rx="1.71"/><rect class="cls-16" x="3807.35" y="1361.37" width="8.77" height="18.73" rx="1.71"/><rect class="cls-16" x="3790.2" y="1393.54" width="8.77" height="31.49" rx="1.71"/><rect class="cls-16" x="3805.03" y="1425.03" width="8.77" height="18.6" rx="1.71"/><rect class="cls-16" x="3794.58" y="1348.2" width="8.77" height="18.6" rx="1.71"/><rect class="cls-16" x="3777.05" y="1480.61" width="34.39" height="9.68" rx="1.89"/><rect class="cls-16" x="3794.25" y="1485.45" width="34.39" height="9.68" rx="1.89"/><rect class="cls-16" x="3781.13" y="1487.63" width="34.39" height="9.68" rx="1.89"/><rect class="cls-16" x="3770.68" y="1492.47" width="34.39" height="9.68" rx="1.89"/><rect class="cls-16" x="3787.88" y="1493.24" width="34.39" height="9.68" rx="1.89"/><rect class="cls-16" x="3802.71" y="1493.24" width="34.39" height="9.68" rx="1.89"/><rect class="cls-16" x="3777.05" y="1498.08" width="34.39" height="9.68" rx="1.89"/><rect class="cls-16" x="3796.64" y="1498.08" width="34.39" height="9.68" rx="1.89"/><rect class="cls-11" x="3787.14" y="1189.66" width="1.37" height="10.76" transform="translate(-183.9 1229.14) rotate(-18)"/><rect class="cls-11" x="3794.57" y="1191.99" width="1.37" height="10.76" transform="translate(-184.25 1231.55) rotate(-18)"/><rect class="cls-11" x="3790.33" y="1182.61" width="1.37" height="7.09" transform="translate(486.76 3390.84) rotate(-51.09)"/><rect class="cls-11" x="3796.88" y="1178.59" width="1.37" height="9.11"/><rect class="cls-11" x="3782.51" y="1197.07" width="1.01" height="5.09" transform="translate(145.23 2786.07) rotate(-41.16)"/><rect class="cls-11" x="3782.74" y="1189.54" width="0.54" height="4.94" transform="translate(-183.2 1227.51) rotate(-18)"/><rect class="cls-11" x="3822.22" y="1189.19" width="1.37" height="10.76" transform="translate(7089.47 3512.14) rotate(-162)"/><rect class="cls-11" x="3814.79" y="1191.52" width="1.37" height="10.76" transform="translate(7074.25 3514.38) rotate(-162)"/><rect class="cls-11" x="3819.03" y="1182.14" width="1.37" height="7.09" transform="translate(5296.48 4902.57) rotate(-128.91)"/><rect class="cls-11" x="3812.47" y="1178.11" width="1.37" height="9.11" transform="translate(7626.32 2365.34) rotate(-180)"/><rect class="cls-11" x="3827.21" y="1196.6" width="1.01" height="5.09" transform="translate(5920.49 4621.09) rotate(-138.84)"/><rect class="cls-11" x="3827.44" y="1189.06" width="0.54" height="4.94" transform="translate(7099.79 3507.71) rotate(-162)"/><path class="cls-17" d="M3392.78,808.07l186.6-181.13a10.5,10.5,0,0,1,13-.79L3629.22,653c3.82,2.78,4.24,7.68.93,10.89,0,0-69.41,61.48-94.66,91.9S3443.55,845,3443.55,845a10.49,10.49,0,0,1-13,.79L3393.72,819C3389.89,816.19,3389.47,811.28,3392.78,808.07Z"/><path class="cls-18" d="M3390,806l186.6-181.12a10.48,10.48,0,0,1,13-.79l36.87,26.8c3.82,2.78,4.24,7.69.93,10.9,0,0-69.42,61.48-94.67,91.89S3440.77,843,3440.77,843a10.48,10.48,0,0,1-13,.78l-36.87-26.8C3387.11,814.16,3386.69,809.26,3390,806Z"/><path class="cls-18" d="M3387.78,810.56c3.83-23.79,9.15-83.27,50.08-123,48.94-47.51,113.54-52.35,138.65-63.73,20.56-9.32-28.45,65.39-74.66,110.25S3384.65,830,3387.78,810.56Z"/><path class="cls-17" d="M3404.83,732.58c18.9,2.67,30.56,23.09,26,45.6s-23.51,38.58-42.41,35.9"/><path class="cls-17" d="M3480.55,655c6.16,15.25,32,21.65,57.74,14.31s41.59-25.66,35.42-40.9"/><ellipse class="cls-1" cx="3797.88" cy="690.28" rx="38.17" ry="31.46"/><path class="cls-11" d="M3792.23,1077.39c1.33,1.46,1.49-7.09,4.87-9.68,3.16-2.43,9.6,1.21,9.21-.7-.51-2.49-6.62-4.69-10.88-.8C3791.93,1069.41,3790.75,1075.75,3792.23,1077.39Z"/><path class="cls-16" d="M3450.39,189.16A34.56,34.56,0,1,0,3506,148"/><rect class="cls-8" x="3354.1" y="41.74" width="88.83" height="46.25" transform="translate(6084.24 -2018.63) rotate(141.1)"/><rect class="cls-8" x="3375.16" y="67.74" width="138.96" height="115.19" transform="translate(6204.24 -1940.05) rotate(141.1)"/><rect class="cls-8" x="3372.84" y="1.35" width="17.71" height="63.51" transform="translate(6763.4 66.21) rotate(-180)"/><path class="cls-16" d="M4115.73,189.16A34.56,34.56,0,1,1,4060.17,148"/><rect class="cls-8" x="4123.19" y="41.74" width="88.83" height="46.25" transform="translate(964.76 -2602.51) rotate(38.9)"/><rect class="cls-8" x="4052" y="67.74" width="138.96" height="115.19" transform="translate(992.5 -2560.14) rotate(38.9)"/><rect class="cls-8" x="4175.56" y="1.35" width="17.71" height="63.51"/><polygon class="cls-19" points="2350.54 1556 3074.27 1556 3037.2 196.01 2982 151 2350.54 1556"/><rect class="cls-1" x="4320.37" y="0.44" width="1080" height="1577"/><rect class="cls-2" x="5131.08" y="530.89" width="63.31" height="129.99" rx="10.37"/><rect class="cls-2" x="5149.79" y="465.48" width="25.87" height="101.52" rx="2.37"/><rect class="cls-3" x="5131.08" y="570.69" width="63.31" height="47.41"/><polygon class="cls-2" points="5175.66 515.19 5149.79 515.04 5133.27 533.95 5191.74 533.49 5175.66 515.19"/><ellipse class="cls-4" cx="5119.71" cy="624.54" rx="29.06" ry="29.08"/><ellipse class="cls-5" cx="4861.1" cy="178.41" rx="108.94" ry="109.01"/><ellipse class="cls-6" cx="4860.13" cy="178.41" rx="86.7" ry="109.01"/><ellipse class="cls-7" cx="4861.1" cy="178.41" rx="49.56" ry="109.01"/><rect class="cls-8" x="4858.72" y="69.41" width="2.82" height="218.02"/><rect class="cls-8" x="4858.72" y="0.44" width="2.82" height="218.02"/><polygon class="cls-8" points="4969.98 181.84 4969.86 184.67 4752.34 184.67 4752.22 181.82 4969.98 181.84"/><polygon class="cls-8" points="4966.28 206.91 4965.47 209.74 4756.72 209.74 4755.93 206.91 4966.28 206.91"/><polygon class="cls-8" points="4955.99 231.99 4954.36 234.81 4767.9 234.81 4766.21 231.99 4955.99 231.99"/><polygon class="cls-8" points="4936.53 257.06 4933.44 259.88 4788.75 259.88 4785.67 257.06 4936.53 257.06"/><polygon class="cls-8" points="4967.89 156.77 4968.42 159.6 4753.78 159.6 4754.31 156.77 4967.89 156.77"/><polygon class="cls-8" points="4959.57 131.7 4960.85 134.52 4761.36 134.52 4762.7 131.7 4959.57 131.7"/><polygon class="cls-8" points="4943.01 106.63 4945.55 109.45 4776.89 109.26 4779.09 106.63 4943.01 106.63"/><polygon class="cls-8" points="4911.1 81.55 4916.24 84.38 4807.11 83.71 4811.03 81.55 4911.1 81.55"/><polygon class="cls-9" points="4769.86 64.01 4788.35 76.44 4806.73 63.9 4796.22 82.4 4806.83 100.8 4788.35 89.44 4769.96 100.9 4781.64 83.24 4769.86 64.01"/><polygon class="cls-9" points="4931.44 240.08 4949.93 252.51 4968.31 239.97 4957.81 258.47 4968.42 276.87 4949.93 265.51 4931.55 276.97 4943.22 259.31 4931.44 240.08"/><polygon class="cls-9" points="4741.4 106.31 4759.16 118.25 4776.81 106.2 4766.72 123.97 4776.92 141.64 4759.16 130.73 4741.5 141.75 4752.71 124.78 4741.4 106.31"/><path class="cls-10" d="M5016.57,1540.32c-34.78,17-46.27,31.75-138,24.26-83.71-6.82-162.51-14.65-166.72-25-5.2-12.82,14.06-10.13,166.72-25C4878.53,1514.49,5029,1534.25,5016.57,1540.32Z"/><path class="cls-11" d="M4724.29,689.79c3.55,2.52,16-11.36,23.19-19.34,14.49-16.11,36.07-44.63,39.05-53.85,4.67-14.45-35.31,15.16-53.24,44.54C4725.51,673.87,4721.24,687.62,4724.29,689.79Z"/><path class="cls-11" d="M5044.69,706.9c3.46-2.64-6-18.68-11.52-27.92-11.06-18.64-31.82-47.76-39.72-53.35-12.4-8.77,3.92,38.25,26.6,64.13C5029.88,701,5041.71,709.17,5044.69,706.9Z"/><path class="cls-11" d="M5058.2,541.84c-2.2-3.76-19.27,3.74-29.1,8.06-19.83,8.72-51.23,25.81-57.74,33-10.2,11.25,38.42.74,66.85-18.64C5050.53,555.83,5060.08,545.07,5058.2,541.84Z"/><path class="cls-4" d="M5053.22,947.63c0,141.11-22.09,257.14-50.39,270.91v1.37c-36.5,3.26-102.32,1.08-104.08,1.6-7.21,2.14-11.82.65-16-1.6-6.45,4-7.31,4.66-14.72,2-2.62-.92-67.46,3.39-99.72-2-30.95,0-56-121.9-56-272.28"/><path class="cls-11" d="M4882.91,430.74c-74.22,0-134.39,43.25-134.39,96.6V743.18c0,41.5,60.17,75.15,134.39,75.15s134.39-33.65,134.39-75.15V527.34C5017.3,474,4957.13,430.74,4882.91,430.74Z"/><path class="cls-12" d="M5063.69,1071c0-141.11-23.32-257.14-53.19-270.91v-1.37H4762.93c-32.67,0-59.16,121.91-59.16,272.28"/><path class="cls-13" d="M4919.79,821.23h.27l-.45-89.4-72.21.37.45,89.39h.27c.06,11.24,16.15,20.27,35.94,20.17S4919.85,832.47,4919.79,821.23Z"/><path class="cls-4" d="M4754.77,551.51v80.34c0,76.44,57.24,138.4,127.85,138.4s127.84-62,127.84-138.4V551.51Z"/><ellipse class="cls-14" cx="4801.75" cy="660.88" rx="16.11" ry="16.12"/><ellipse class="cls-14" cx="4953.33" cy="660.88" rx="16.11" ry="16.12"/><path class="cls-13" d="M4755.1,646.85c-20.12,0-36.43-15.23-36.43-34s16.31-34,36.43-34"/><path class="cls-13" d="M5009.73,578.79c20.12,0,36.43,15.24,36.43,34s-16.31,34-36.43,34"/><rect class="cls-15" x="4813.01" y="590.95" width="47.42" height="10.54" rx="2.19" transform="translate(937.39 3519.34) rotate(-43.88)"/><rect class="cls-15" x="4831.19" y="574.9" width="12.29" height="43.91" rx="2.56" transform="translate(937.13 3519.93) rotate(-43.88)"/><rect class="cls-15" x="4896.35" y="590.9" width="47.42" height="10.54" rx="2.19" transform="translate(960.71 3577.09) rotate(-43.88)"/><rect class="cls-15" x="4914.52" y="574.84" width="12.29" height="43.91" rx="2.56" transform="translate(960.44 3577.69) rotate(-43.88)"/><path class="cls-12" d="M4808.05,870l-13,8.29a24.32,24.32,0,0,1-33.51-7.4L4655.18,704.08a24.37,24.37,0,0,1,7.4-33.54l13-8.29a24.33,24.33,0,0,1,33.52,7.4l106.37,166.77A24.36,24.36,0,0,1,4808.05,870Z"/><path class="cls-12" d="M5018.9,860.53l-14-6.48a24.36,24.36,0,0,1-11.81-32.25l83.13-179.51a24.32,24.32,0,0,1,32.22-11.82l14,6.48a24.36,24.36,0,0,1,11.81,32.24L5051.13,848.7A24.35,24.35,0,0,1,5018.9,860.53Z"/><path class="cls-11" d="M4797.54,493.12c.16-4.35-18.27-7.18-28.87-8.8-21.42-3.29-57.08-5.71-66.42-3.15-14.63,4,32,21.24,66.42,20.13C4783.57,500.83,4797.4,496.86,4797.54,493.12Z"/><path class="cls-11" d="M4810.91,490.42c2-3.86-13.4-14.35-22.27-20.39-17.91-12.19-49.07-29.74-58.59-31.45-14.94-2.68,19.77,33,51.28,46.78C4795,491.35,4809.18,493.73,4810.91,490.42Z"/><path class="cls-11" d="M4821.33,463.68c2-3.86-13.4-14.35-22.28-20.39-17.91-12.19-49.06-29.74-58.59-31.45-14.94-2.68,19.78,33,51.29,46.78C4805.41,464.61,4819.59,467,4821.33,463.68Z"/><path class="cls-11" d="M5043,432c-3.15-3-17.5,8.91-25.76,15.76-16.67,13.84-42.16,38.92-46.44,47.61-6.72,13.62,37.13-9.87,59.14-36.33C5039.46,447.61,5045.69,434.63,5043,432Z"/><path class="cls-11" d="M5015.81,404.39c-3.83-2.08-14.55,13.18-20.72,22-12.45,17.73-30.47,48.63-32.32,58.14-2.91,14.9,33.24-19.28,47.53-50.59C5016.5,420.33,5019.09,406.17,5015.81,404.39Z"/><rect class="cls-4" x="4735.08" y="1116.86" width="90.55" height="450.93" rx="17.47"/><rect class="cls-4" x="4937.22" y="1116.86" width="90.55" height="450.93" rx="17.47"/><rect class="cls-11" x="4880.19" y="1188" width="5.1" height="31.91" rx="0.98"/><rect class="cls-16" x="4878.3" y="1224.57" width="8.88" height="14.09" rx="1.71"/><rect class="cls-16" x="4873.86" y="1272.79" width="8.88" height="14.09" rx="1.71"/><rect class="cls-16" x="4884.77" y="1256.48" width="8.88" height="18.98" rx="1.71"/><rect class="cls-16" x="4867.41" y="1289.09" width="8.88" height="31.91" rx="1.71"/><rect class="cls-16" x="4871.85" y="1243.15" width="8.88" height="18.85" rx="1.71"/><rect class="cls-16" x="4854.29" y="1500.84" width="34.83" height="9.81" rx="1.89"/><rect class="cls-16" x="4871.71" y="1505.74" width="34.83" height="9.81" rx="1.89"/><rect class="cls-16" x="4858.42" y="1507.95" width="34.83" height="9.81" rx="1.89"/><rect class="cls-16" x="4847.84" y="1512.86" width="34.83" height="9.81" rx="1.89"/><rect class="cls-16" x="4865.25" y="1513.63" width="34.83" height="9.81" rx="1.89"/><rect class="cls-16" x="4880.27" y="1513.63" width="34.83" height="9.81" rx="1.89"/><rect class="cls-16" x="4854.29" y="1518.54" width="34.83" height="9.81" rx="1.89"/><rect class="cls-16" x="4874.13" y="1518.54" width="34.83" height="9.81" rx="1.89"/><rect class="cls-11" x="4864.51" y="1206" width="1.39" height="10.9" transform="matrix(0.95, -0.31, 0.31, 0.95, -136.16, 1563.9)"/><rect class="cls-11" x="4872.03" y="1208.36" width="1.39" height="10.9" transform="translate(-136.52 1566.35) rotate(-18.01)"/><rect class="cls-11" x="4867.73" y="1198.86" width="1.39" height="7.18" transform="translate(875.71 4236.54) rotate(-51.11)"/><rect class="cls-11" x="4874.37" y="1194.78" width="1.39" height="9.23"/><rect class="cls-11" x="4859.81" y="1213.51" width="1.03" height="5.16" transform="translate(401.34 3500.62) rotate(-41.18)"/><rect class="cls-11" x="4860.05" y="1205.87" width="0.55" height="5.01" transform="matrix(0.95, -0.31, 0.31, 0.95, -135.44, 1562.25)"/><rect class="cls-11" x="4895.27" y="1210.28" width="10.9" height="1.39" transform="translate(2233.6 5497) rotate(-71.99)"/><rect class="cls-11" x="4887.75" y="1212.64" width="10.9" height="1.39" transform="translate(2226.16 5491.47) rotate(-71.99)"/><rect class="cls-11" x="4893.9" y="1201.28" width="7.18" height="1.39" transform="translate(331.06 3341.57) rotate(-38.89)"/><rect class="cls-11" x="4890.16" y="1194.3" width="1.39" height="9.23" transform="translate(9781.71 2397.83) rotate(-180)"/><rect class="cls-11" x="4903.02" y="1215.1" width="5.16" height="1.03" transform="translate(760.92 4107.72) rotate(-48.82)"/><rect class="cls-11" x="4903.09" y="1207.62" width="5.01" height="0.55" transform="matrix(0.31, -0.95, 0.95, 0.31, 2239.89, 5499.51)"/><path class="cls-17" d="M4465.15,819.31l189-183.55a10.63,10.63,0,0,1,13.14-.8l37.33,27.16c3.88,2.82,4.3,7.79.95,11,0,0-70.3,62.3-95.87,93.12s-93.1,90.43-93.1,90.43a10.62,10.62,0,0,1-13.14.79l-37.33-27.16C4462.22,827.53,4461.79,822.56,4465.15,819.31Z"/><path class="cls-18" d="M4462.33,817.26l189-183.55a10.61,10.61,0,0,1,13.13-.79l37.33,27.15c3.88,2.82,4.3,7.79.95,11,0,0-70.3,62.3-95.87,93.12s-93.09,90.43-93.09,90.43a10.63,10.63,0,0,1-13.14.79l-37.33-27.16C4459.4,825.49,4459,820.51,4462.33,817.26Z"/><path class="cls-18" d="M4460.08,821.84c3.88-24.11,9.27-84.39,50.72-124.65,49.56-48.14,115-53.05,140.4-64.58,20.83-9.45-28.81,66.27-75.6,111.72S4456.91,841.55,4460.08,821.84Z"/><path class="cls-17" d="M4477.35,742.81c19.14,2.71,30.94,23.4,26.36,46.21s-23.8,39.1-42.94,36.39"/><path class="cls-17" d="M4554,664.14c6.25,15.45,32.43,22,58.49,14.51s42.11-26,35.86-41.45"/><ellipse class="cls-1" cx="4875.38" cy="699.95" rx="38.65" ry="31.88"/><path class="cls-11" d="M4869.66,1092.23c1.34,1.48,1.51-7.18,4.93-9.81,3.2-2.46,9.72,1.22,9.33-.71-.52-2.52-6.71-4.75-11-.81C4869.36,1084.14,4868.16,1090.57,4869.66,1092.23Z"/><path class="cls-16" d="M4523.48,192.13a35,35,0,1,0,56.27-41.68"/><rect class="cls-8" x="4425.96" y="42.75" width="89.98" height="46.85" transform="translate(950.64 2823.2) rotate(-38.92)"/><rect class="cls-8" x="4447.28" y="69.11" width="140.76" height="116.7" transform="translate(922.51 2866.14) rotate(-38.92)"/><rect class="cls-8" x="4444.96" y="1.81" width="17.93" height="64.36" transform="translate(8907.85 67.98) rotate(-180)"/><path class="cls-16" d="M5197.26,192.13A35,35,0,1,1,5141,150.45"/><rect class="cls-8" x="5226.37" y="21.18" width="46.85" height="89.98" transform="matrix(0.63, -0.78, 0.78, 0.63, 1900.55, 4109.35)"/><rect class="cls-8" x="5144.73" y="57.08" width="116.7" height="140.76" transform="translate(1835.5 4095.79) rotate(-51.08)"/><rect class="cls-8" x="5257.85" y="1.81" width="17.93" height="64.36"/><polygon class="cls-19" points="4508.54 1554 5232.27 1554 5195.2 194.01 5140 149 4508.54 1554"/><polygon class="cls-20" points="4325.33 1547 3393.08 1547 3449 196 3508 148 4325.33 1547"/><polygon class="cls-20" points="5397.33 1551 4465.08 1551 4521 200 4580 152 5397.33 1551"/><rect class="cls-1" x="1.37" y="-0.56" width="1080" height="1577"/><rect class="cls-2" x="812.08" y="529.89" width="63.31" height="129.99" rx="10.37"/><rect class="cls-2" x="830.79" y="464.48" width="25.87" height="101.52" rx="2.37"/><rect class="cls-3" x="812.08" y="569.69" width="63.31" height="47.41"/><polygon class="cls-2" points="856.66 514.19 830.79 514.04 814.27 532.95 872.74 532.49 856.66 514.19"/><ellipse class="cls-4" cx="800.71" cy="623.54" rx="29.06" ry="29.08"/><ellipse class="cls-5" cx="542.1" cy="177.41" rx="108.94" ry="109.01"/><ellipse class="cls-6" cx="541.13" cy="177.41" rx="86.7" ry="109.01"/><ellipse class="cls-7" cx="542.1" cy="177.41" rx="49.56" ry="109.01"/><rect class="cls-8" x="539.72" y="68.41" width="2.82" height="218.02"/><rect class="cls-8" x="539.72" y="-0.56" width="2.82" height="218.02"/><polygon class="cls-8" points="650.98 180.84 650.86 183.67 433.34 183.67 433.22 180.82 650.98 180.84"/><polygon class="cls-8" points="647.28 205.91 646.47 208.74 437.72 208.74 436.93 205.91 647.28 205.91"/><polygon class="cls-8" points="637 230.99 635.36 233.81 448.9 233.81 447.21 230.99 637 230.99"/><polygon class="cls-8" points="617.53 256.06 614.44 258.88 469.75 258.88 466.67 256.06 617.53 256.06"/><polygon class="cls-8" points="648.89 155.77 649.42 158.6 434.78 158.6 435.31 155.77 648.89 155.77"/><polygon class="cls-8" points="640.57 130.7 641.85 133.52 442.36 133.52 443.7 130.7 640.57 130.7"/><polygon class="cls-8" points="624.01 105.63 626.55 108.45 457.89 108.26 460.09 105.63 624.01 105.63"/><polygon class="cls-8" points="592.1 80.55 597.24 83.38 488.12 82.71 492.03 80.55 592.1 80.55"/><polygon class="cls-9" points="450.86 63.01 469.35 75.44 487.73 62.9 477.22 81.4 487.83 99.8 469.35 88.44 450.96 99.9 462.63 82.24 450.86 63.01"/><polygon class="cls-9" points="612.45 239.08 630.93 251.51 649.31 238.97 638.81 257.47 649.42 275.87 630.93 264.51 612.55 275.97 624.22 258.31 612.45 239.08"/><polygon class="cls-9" points="422.4 105.31 440.16 117.25 457.81 105.2 447.72 122.97 457.92 140.64 440.16 129.73 422.5 140.75 433.71 123.78 422.4 105.31"/><path class="cls-10" d="M697.57,1539.32c-34.78,17-46.27,31.75-138,24.26-83.71-6.82-162.51-14.65-166.72-25-5.2-12.82,14.06-10.13,166.72-25C559.53,1513.49,710,1533.25,697.57,1539.32Z"/><path class="cls-11" d="M405.29,688.79c3.55,2.52,16-11.36,23.19-19.34,14.49-16.11,36.07-44.63,39-53.85,4.67-14.45-35.31,15.16-53.24,44.54C406.51,672.87,402.24,686.62,405.29,688.79Z"/><path class="cls-11" d="M725.69,705.9c3.46-2.64-6.05-18.68-11.52-27.92-11.06-18.64-31.82-47.76-39.72-53.35-12.4-8.77,3.92,38.25,26.6,64.13C710.88,700,722.71,708.17,725.69,705.9Z"/><path class="cls-11" d="M739.2,540.84c-2.2-3.76-19.27,3.74-29.1,8.06-19.83,8.72-51.23,25.81-57.74,33-10.2,11.25,38.42.74,66.85-18.64C731.53,554.83,741.08,544.07,739.2,540.84Z"/><path class="cls-4" d="M734.22,946.63c0,141.11-22.09,257.14-50.39,270.91v1.37c-36.5,3.26-102.32,1.08-104.08,1.6-7.21,2.14-11.82.65-16-1.6-6.45,4-7.31,4.66-14.72,2-2.62-.92-67.46,3.39-99.72-2-30.95,0-56-121.9-56-272.28"/><path class="cls-11" d="M563.91,429.74c-74.22,0-134.39,43.25-134.39,96.6V742.18c0,41.5,60.17,75.15,134.39,75.15S698.3,783.68,698.3,742.18V526.34C698.3,473,638.13,429.74,563.91,429.74Z"/><path class="cls-12" d="M744.69,1070c0-141.11-23.32-257.14-53.19-270.91v-1.37H443.93c-32.67,0-59.16,121.91-59.16,272.28"/><path class="cls-13" d="M600.79,820.23h.27l-.45-89.4-72.21.37.45,89.39h.27c.06,11.24,16.15,20.27,35.94,20.17S600.85,831.47,600.79,820.23Z"/><path class="cls-4" d="M435.77,550.51v80.34c0,76.44,57.24,138.4,127.85,138.4s127.84-62,127.84-138.4V550.51Z"/><ellipse class="cls-14" cx="482.75" cy="659.88" rx="16.11" ry="16.12"/><ellipse class="cls-14" cx="634.33" cy="659.88" rx="16.11" ry="16.12"/><path class="cls-13" d="M436.1,645.85c-20.12,0-36.43-15.23-36.43-34s16.31-34,36.43-34"/><path class="cls-13" d="M690.73,577.79c20.12,0,36.43,15.24,36.43,34s-16.31,34-36.43,34"/><rect class="cls-15" x="494.01" y="589.95" width="47.42" height="10.54" rx="2.19" transform="translate(-268.03 525.11) rotate(-43.88)"/><rect class="cls-15" x="512.19" y="573.9" width="12.29" height="43.91" rx="2.56" transform="translate(-268.3 525.71) rotate(-43.88)"/><rect class="cls-15" x="577.35" y="589.9" width="47.42" height="10.54" rx="2.19" transform="translate(-244.72 582.86) rotate(-43.88)"/><rect class="cls-15" x="595.52" y="573.84" width="12.29" height="43.91" rx="2.56" transform="translate(-244.99 583.46) rotate(-43.88)"/><path class="cls-12" d="M489.05,869l-13,8.29a24.32,24.32,0,0,1-33.51-7.4L336.18,703.08a24.37,24.37,0,0,1,7.4-33.54l13-8.29a24.33,24.33,0,0,1,33.52,7.4L496.45,835.42A24.36,24.36,0,0,1,489.05,869Z"/><path class="cls-12" d="M699.9,859.53l-14-6.48a24.36,24.36,0,0,1-11.81-32.25l83.13-179.51a24.32,24.32,0,0,1,32.22-11.82l14,6.48a24.36,24.36,0,0,1,11.81,32.24L732.13,847.7A24.35,24.35,0,0,1,699.9,859.53Z"/><path class="cls-11" d="M478.54,492.12c.16-4.35-18.27-7.18-28.87-8.8-21.42-3.29-57.08-5.71-66.42-3.15-14.63,4,32,21.24,66.42,20.13C464.57,499.83,478.4,495.86,478.54,492.12Z"/><path class="cls-11" d="M491.91,489.42c2-3.86-13.4-14.35-22.27-20.39-17.91-12.19-49.07-29.74-58.59-31.45-14.94-2.68,19.77,33,51.28,46.78C476,490.35,490.18,492.73,491.91,489.42Z"/><path class="cls-11" d="M502.33,462.68c2-3.86-13.4-14.35-22.28-20.39-17.91-12.19-49.06-29.74-58.59-31.45-14.94-2.68,19.78,33,51.29,46.78C486.41,463.61,500.59,466,502.33,462.68Z"/><path class="cls-11" d="M724,431c-3.15-3-17.5,8.91-25.76,15.76-16.67,13.84-42.16,38.92-46.44,47.61-6.72,13.62,37.13-9.87,59.14-36.33C720.46,446.61,726.69,433.63,724,431Z"/><path class="cls-11" d="M696.81,403.39c-3.83-2.08-14.55,13.18-20.72,22-12.45,17.73-30.47,48.63-32.32,58.14-2.91,14.9,33.24-19.28,47.53-50.59C697.5,419.33,700.09,405.17,696.81,403.39Z"/><rect class="cls-4" x="416.08" y="1115.86" width="90.55" height="450.93" rx="17.47"/><rect class="cls-4" x="618.22" y="1115.86" width="90.55" height="450.93" rx="17.47"/><rect class="cls-11" x="561.19" y="1187" width="5.1" height="31.91" rx="0.98"/><rect class="cls-16" x="559.3" y="1223.57" width="8.88" height="14.09" rx="1.71"/><rect class="cls-16" x="554.86" y="1271.79" width="8.88" height="14.09" rx="1.71"/><rect class="cls-16" x="565.77" y="1255.48" width="8.88" height="18.98" rx="1.71"/><rect class="cls-16" x="548.41" y="1288.09" width="8.88" height="31.91" rx="1.71"/><rect class="cls-16" x="552.85" y="1242.15" width="8.88" height="18.85" rx="1.71"/><rect class="cls-16" x="535.29" y="1499.84" width="34.83" height="9.81" rx="1.89"/><rect class="cls-16" x="552.71" y="1504.74" width="34.83" height="9.81" rx="1.89"/><rect class="cls-16" x="539.42" y="1506.95" width="34.83" height="9.81" rx="1.89"/><rect class="cls-16" x="528.84" y="1511.86" width="34.83" height="9.81" rx="1.89"/><rect class="cls-16" x="546.25" y="1512.63" width="34.83" height="9.81" rx="1.89"/><rect class="cls-16" x="561.27" y="1512.63" width="34.83" height="9.81" rx="1.89"/><rect class="cls-16" x="535.29" y="1517.54" width="34.83" height="9.81" rx="1.89"/><rect class="cls-16" x="555.13" y="1517.54" width="34.83" height="9.81" rx="1.89"/><rect class="cls-11" x="545.51" y="1205" width="1.39" height="10.9" transform="matrix(0.95, -0.31, 0.31, 0.95, -347.55, 228.24)"/><rect class="cls-11" x="553.03" y="1207.36" width="1.39" height="10.9" transform="translate(-347.91 230.68) rotate(-18.01)"/><rect class="cls-11" x="548.73" y="1197.86" width="1.39" height="7.18" transform="translate(-730.64 874.69) rotate(-51.11)"/><rect class="cls-11" x="555.37" y="1193.78" width="1.39" height="9.23"/><rect class="cls-11" x="540.81" y="1212.51" width="1.03" height="5.16" transform="translate(-666.11 656.89) rotate(-41.18)"/><rect class="cls-11" x="541.05" y="1204.87" width="0.55" height="5.01" transform="matrix(0.95, -0.31, 0.31, 0.95, -346.84, 226.58)"/><rect class="cls-11" x="576.27" y="1209.28" width="10.9" height="1.39" transform="translate(-748.84 1389.01) rotate(-71.99)"/><rect class="cls-11" x="568.75" y="1211.64" width="10.9" height="1.39" transform="translate(-756.28 1383.48) rotate(-71.99)"/><rect class="cls-11" x="574.9" y="1200.28" width="7.18" height="1.39" transform="translate(-625.83 629.49) rotate(-38.89)"/><rect class="cls-11" x="571.16" y="1193.3" width="1.39" height="9.23" transform="translate(1143.71 2395.83) rotate(-180)"/><rect class="cls-11" x="584.02" y="1214.1" width="5.16" height="1.03" transform="translate(-713.84 856.48) rotate(-48.82)"/><rect class="cls-11" x="584.09" y="1206.62" width="5.01" height="0.55" transform="matrix(0.31, -0.95, 0.95, 0.31, -742.55, 1391.52)"/><path class="cls-17" d="M146.15,818.31l189-183.55a10.63,10.63,0,0,1,13.14-.8l37.33,27.16c3.88,2.82,4.3,7.79.95,11,0,0-70.3,62.3-95.87,93.12s-93.1,90.43-93.1,90.43a10.62,10.62,0,0,1-13.14.79l-37.33-27.16C143.22,826.53,142.79,821.56,146.15,818.31Z"/><path class="cls-18" d="M143.33,816.26l189-183.55a10.61,10.61,0,0,1,13.13-.79l37.33,27.15c3.88,2.82,4.3,7.79.95,11,0,0-70.3,62.3-95.87,93.12s-93.09,90.43-93.09,90.43a10.63,10.63,0,0,1-13.14.79L144.28,827.3C140.4,824.49,140,819.51,143.33,816.26Z"/><path class="cls-18" d="M141.08,820.84c3.88-24.11,9.27-84.39,50.72-124.65,49.56-48.14,115-53.05,140.4-64.58,20.83-9.45-28.81,66.27-75.6,111.72S137.91,840.55,141.08,820.84Z"/><path class="cls-17" d="M158.35,741.81c19.14,2.71,30.94,23.4,26.36,46.21s-23.8,39.1-42.94,36.39"/><path class="cls-17" d="M235,663.14c6.25,15.45,32.43,22,58.49,14.51s42.11-26,35.86-41.45"/><ellipse class="cls-1" cx="556.38" cy="698.95" rx="38.65" ry="31.88"/><path class="cls-11" d="M550.66,1091.23c1.34,1.48,1.51-7.18,4.93-9.81,3.2-2.46,9.72,1.22,9.33-.71-.52-2.52-6.71-4.75-11-.81C550.36,1083.14,549.16,1089.57,550.66,1091.23Z"/><path class="cls-16" d="M204.48,191.13a35,35,0,1,0,56.27-41.68"/><rect class="cls-8" x="106.96" y="41.75" width="89.98" height="46.85" transform="translate(-7.22 109.91) rotate(-38.92)"/><rect class="cls-8" x="128.28" y="68.11" width="140.76" height="116.7" transform="translate(-35.35 152.86) rotate(-38.92)"/><rect class="cls-8" x="125.96" y="0.81" width="17.93" height="64.36" transform="translate(269.85 65.98) rotate(-180)"/><path class="cls-16" d="M878.26,191.13A35,35,0,1,1,822,149.45"/><rect class="cls-8" x="907.37" y="20.18" width="46.85" height="89.98" transform="matrix(0.63, -0.78, 0.78, 0.63, 295.39, 748.46)"/><rect class="cls-8" x="825.73" y="56.08" width="116.7" height="140.76" transform="translate(230.34 734.91) rotate(-51.08)"/><rect class="cls-8" x="938.85" y="0.81" width="17.93" height="64.36"/></svg>
