<svg id="Layer_1" data-name="Layer 1" xmlns="http://www.w3.org/2000/svg" width="528.34" height="381.18" viewBox="0 0 528.34 381.18"><defs><style>.cls-1{fill:#1f2733;}.cls-2{fill:#da8e38;}.cls-3{fill:#fff;}</style></defs><title>Privatsnak</title><path class="cls-1" d="M76.89,188.14c-2.79,1-4.73,3.14-7,4.84-8,6-15.84,12.09-23.76,18.13-.63.48-1.2,1.41-2.1,1-1.13-.45-.68-1.61-.68-2.47,0-12.26-.12-24.52,0-36.77,0-2.88-.87-3.43-3.52-3.38-7.79.17-15.58.11-23.37,0C7.06,169.47.1,162.31.1,152.85.12,108.08.32,63.3,0,18.53-.08,7.09,8.11,0,18.57,0Q264.95.29,511.32.13c10.12,0,17,6.84,17,17q0,67.8,0,135.58c0,8.5-4.45,14.06-13.45,16.74-1.76,0-3.52.09-5.29.09H216.72q-56.39,0-112.79,0a8.93,8.93,0,0,0-6.28,2c-4,3.34-8.35,6.15-12.33,9.47C82.49,183.31,79,184.9,76.89,188.14Z"/><path class="cls-2" d="M76.89,188.14c2.08-3.24,5.6-4.83,8.43-7.18,4-3.32,8.38-6.13,12.33-9.47a8.93,8.93,0,0,1,6.28-2q56.4.06,112.79,0H509.6c1.77,0,3.53-.06,5.29-.09,1,1.88,3.17,1.67,4.7,2.67,5.18,3.4,7.83,8,7.83,14.23,0,44.88-.17,89.76.13,134.64.06,9.38-6.75,18.09-18.1,18.07q-120.3-.26-240.6-.09c-29,0-58,.07-87-.06a13,13,0,0,0-8.46,2.94q-20.38,15.78-40.83,31.46c-3.11,2.39-6.32,4.67-9.45,7-1.94,1.47-2.65,1-2.65-1.39q0-17.61-.08-35.21c0-4.7-.09-4.77-4.69-4.78-7.06,0-14.13-.22-21.19.06-9.87.4-17.71-7.5-17.67-17.82.18-43.32.08-86.64.08-130C77,190.22,76.91,189.18,76.89,188.14Z"/><path class="cls-3" d="M90.26,128.55H67.48V40.89h36.27q14.76,0,22.61,7.67t7.85,21.63q0,13.95-7.85,21.62t-22.61,7.67H90.26Zm0-47.44h7.56q12.56,0,12.56-10.92T97.82,59.26H90.26Z"/><path class="cls-3" d="M214.74,128.55H186.38L164.64,94.83v33.72H141.85V40.89h35.46A34.93,34.93,0,0,1,190.1,43a24.09,24.09,0,0,1,14.36,14.47A30.07,30.07,0,0,1,206.26,68q0,10-4.83,16.21t-14.24,8.43Zm-50.1-48.48h4.3q6.74,0,10.35-2.79a9.55,9.55,0,0,0,3.6-8,9.56,9.56,0,0,0-3.6-8q-3.61-2.79-10.35-2.79h-4.3Z"/><path class="cls-3" d="M244.49,40.89v87.66H221.7V40.89Z"/><path class="cls-3" d="M275.85,40.89,297,94.25l21.28-53.36h24.76l-37,87.66H287.94L251.09,40.89Z"/><path class="cls-3" d="M392.65,113.94H360.1l-5.24,15.23H330.57l33.36-87.66h24.88l33.37,87.66h-24.3Zm-6-17.32L376.37,67.44,366.14,96.62Z"/><path class="cls-3" d="M455.89,60.81v68.36H433.11V60.81H414.39V41.51h60.22v19.3Z"/><path class="cls-3" d="M192.41,232a28,28,0,0,0-7.42-4.46,19.66,19.66,0,0,0-7.19-1.45,11.66,11.66,0,0,0-7.19,2.08,6.5,6.5,0,0,0-2.78,5.45,5.4,5.4,0,0,0,1.39,3.83,12.3,12.3,0,0,0,3.65,2.61A31.78,31.78,0,0,0,178,242c1.89.54,3.77,1.12,5.62,1.74q11.13,3.71,16.29,9.91T205,269.82A31.42,31.42,0,0,1,202.78,282a25.44,25.44,0,0,1-6.61,9.33,30.4,30.4,0,0,1-10.66,6,44.48,44.48,0,0,1-14.32,2.14,52.63,52.63,0,0,1-30.72-9.85l9.73-18.32a39.49,39.49,0,0,0,10.09,6.73,24.21,24.21,0,0,0,9.86,2.2q5.57,0,8.29-2.55a7.9,7.9,0,0,0,2-9.22,7.38,7.38,0,0,0-2.31-2.66,18.64,18.64,0,0,0-4.24-2.27q-2.61-1-6.31-2.31-4.41-1.39-8.64-3.08a27,27,0,0,1-7.54-4.46,20.68,20.68,0,0,1-5.33-7,24.86,24.86,0,0,1-2-10.73,31,31,0,0,1,2.14-11.77,26.18,26.18,0,0,1,6-9,26.88,26.88,0,0,1,9.51-5.85,35.74,35.74,0,0,1,12.58-2.09,54.9,54.9,0,0,1,13.56,1.8,59.82,59.82,0,0,1,13.57,5.27Z"/><path class="cls-3" d="M213.62,297.06V209.64h22.73l42,53.45V209.64h22.61v87.42H278.31l-42-53.45v53.45Z"/><path class="cls-3" d="M367.35,281.87H334.89l-5.22,15.19H305.44l33.28-87.42h24.81l33.27,87.42H372.57Zm-6-17.27-10.2-29.1-10.2,29.1Z"/><path class="cls-3" d="M423.81,245.7l27.71-36.06h28.06L444.91,251l37.91,46H453.38l-29.57-37.91v37.91H401.09V209.64h22.72Z"/></svg>
