<svg id="Layer_1" data-name="Layer 1" xmlns="http://www.w3.org/2000/svg" width="345" height="245" viewBox="0 0 345 245"><defs><style>.cls-1{opacity:0.5;}.cls-2{fill:#34495e;}.cls-3{fill:#2c3e50;}</style></defs><title>screenshot</title><g class="cls-1"><rect class="cls-2" x="0.5" y="2" width="344" height="241" rx="82.52"/></g><path class="cls-3" d="M49.23,126a5.51,5.51,0,0,0,1.83,2.18,7.57,7.57,0,0,0,2.76,1.16,15.35,15.35,0,0,0,3.4.36,9.57,9.57,0,0,0,2.26-.3,8,8,0,0,0,2.27-.94,5.85,5.85,0,0,0,1.76-1.67,4.22,4.22,0,0,0,.7-2.46,3.52,3.52,0,0,0-.5-1.92,4.44,4.44,0,0,0-1.29-1.37,7.91,7.91,0,0,0-1.76-.91,18.35,18.35,0,0,0-1.89-.57l-5.88-1.45a16.31,16.31,0,0,1-2.24-.74,6.22,6.22,0,0,1-1.9-1.18,5.64,5.64,0,0,1-1.32-1.81,6.26,6.26,0,0,1-.5-2.63,8.73,8.73,0,0,1,.37-2.26,6.36,6.36,0,0,1,1.39-2.44,8.17,8.17,0,0,1,2.79-1.94,11.26,11.26,0,0,1,4.56-.8,13.44,13.44,0,0,1,3.73.52,9.28,9.28,0,0,1,3.11,1.56,7.44,7.44,0,0,1,2.92,6.14H63.29a6.11,6.11,0,0,0-.69-2.65A5.68,5.68,0,0,0,61,108a6.8,6.8,0,0,0-2.26-1.15,9.1,9.1,0,0,0-2.68-.39,10.74,10.74,0,0,0-2.49.28,6,6,0,0,0-2.11.89,4.62,4.62,0,0,0-1.47,1.6,5.08,5.08,0,0,0-.55,2.48,3.79,3.79,0,0,0,.31,1.61,3.38,3.38,0,0,0,.87,1.17,4.72,4.72,0,0,0,1.28.78,11.11,11.11,0,0,0,1.54.48l6.43,1.59a18.73,18.73,0,0,1,2.65.9,8.79,8.79,0,0,1,2.18,1.34,5.58,5.58,0,0,1,1.48,1.94,6.45,6.45,0,0,1,.54,2.77,10.44,10.44,0,0,1-.09,1.19,6.07,6.07,0,0,1-.45,1.57,7.66,7.66,0,0,1-1,1.68,6.3,6.3,0,0,1-1.77,1.54,10.22,10.22,0,0,1-2.8,1.11,18.51,18.51,0,0,1-8.32-.11,9.43,9.43,0,0,1-3.41-1.65,7.35,7.35,0,0,1-2.16-2.85,9.32,9.32,0,0,1-.65-4.18H48.6A7.33,7.33,0,0,0,49.23,126Z"/><path class="cls-3" d="M89,110.16a7.79,7.79,0,0,0-1.85-2,8.2,8.2,0,0,0-2.41-1.23,8.65,8.65,0,0,0-2.75-.43,9.49,9.49,0,0,0-4.52,1,8.92,8.92,0,0,0-3.09,2.64,11.42,11.42,0,0,0-1.77,3.72,15.82,15.82,0,0,0,0,8.49,11.33,11.33,0,0,0,1.77,3.74,8.94,8.94,0,0,0,3.09,2.65,9.61,9.61,0,0,0,4.52,1,8.12,8.12,0,0,0,3.33-.67,8,8,0,0,0,2.55-1.81,9.58,9.58,0,0,0,1.74-2.69,11.42,11.42,0,0,0,.85-3.31h2.51a14.28,14.28,0,0,1-1.14,4.41,10.92,10.92,0,0,1-2.3,3.33,9.64,9.64,0,0,1-3.31,2.1,11.46,11.46,0,0,1-4.23.74,12.47,12.47,0,0,1-5.46-1.12,11.44,11.44,0,0,1-3.91-3,12.93,12.93,0,0,1-2.33-4.37,18,18,0,0,1,0-10.43,13.16,13.16,0,0,1,2.33-4.38,11.25,11.25,0,0,1,3.91-3,13.17,13.17,0,0,1,9.14-.57,10.61,10.61,0,0,1,3.25,1.65,9.35,9.35,0,0,1,2.44,2.68,8.88,8.88,0,0,1,1.24,3.66H90A8.53,8.53,0,0,0,89,110.16Z"/><path class="cls-3" d="M108.87,104.89a11.09,11.09,0,0,1,3.09.41,7.31,7.31,0,0,1,2.55,1.24,5.91,5.91,0,0,1,1.74,2.14,7,7,0,0,1,.65,3.09,7.46,7.46,0,0,1-1.29,4.37,5.91,5.91,0,0,1-3.85,2.36v.08a5.86,5.86,0,0,1,2.14.68,4.38,4.38,0,0,1,1.39,1.28,5.27,5.27,0,0,1,.78,1.79,13.37,13.37,0,0,1,.31,2.21c0,.44.05,1,.08,1.62s.07,1.29.14,2A11.66,11.66,0,0,0,117,130a3.54,3.54,0,0,0,.64,1.35h-2.77a3,3,0,0,1-.35-.91,8,8,0,0,1-.19-1.11c0-.38-.07-.76-.09-1.13s0-.69-.08-1q-.06-1.41-.24-2.79a7.48,7.48,0,0,0-.7-2.48,4.33,4.33,0,0,0-1.55-1.76,4.73,4.73,0,0,0-2.8-.59H99.29v11.73H96.77V104.89Zm-.18,12.54a6.87,6.87,0,0,0,2.18-.35,5.28,5.28,0,0,0,1.81-1,4.93,4.93,0,0,0,1.24-1.61,4.83,4.83,0,0,0,.46-2.16,5.19,5.19,0,0,0-1.4-3.85,5.84,5.84,0,0,0-4.29-1.41h-9.4v10.4Z"/><path class="cls-3" d="M139.69,104.89V107H124v9.55h14.72v2.15H124v10.43h15.91v2.15H121.45V104.89Z"/><path class="cls-3" d="M161.63,104.89V107H145.91v9.55h14.72v2.15H145.91v10.43h15.91v2.15H143.39V104.89Z"/><path class="cls-3" d="M168.11,104.89l15.39,22.35h.07V104.89h2.52v26.42h-2.81L167.88,109h-.07v22.35h-2.52V104.89Z"/><path class="cls-3" d="M193.19,126A5.68,5.68,0,0,0,195,128.2a7.64,7.64,0,0,0,2.76,1.16,15.41,15.41,0,0,0,3.4.36,9.44,9.44,0,0,0,2.26-.3,8,8,0,0,0,2.28-.94,5.81,5.81,0,0,0,1.75-1.67,4.22,4.22,0,0,0,.71-2.46,3.61,3.61,0,0,0-.5-1.92,4.59,4.59,0,0,0-1.3-1.37,7.84,7.84,0,0,0-1.75-.91q-1-.34-1.89-.57l-5.88-1.45a15.46,15.46,0,0,1-2.24-.74,6.27,6.27,0,0,1-1.91-1.18,5.62,5.62,0,0,1-1.31-1.81,6.26,6.26,0,0,1-.5-2.63,8.32,8.32,0,0,1,.37-2.26,6.23,6.23,0,0,1,1.39-2.44,8.08,8.08,0,0,1,2.79-1.94,11.18,11.18,0,0,1,4.55-.8,13.52,13.52,0,0,1,3.74.52,9.38,9.38,0,0,1,3.11,1.56,7.52,7.52,0,0,1,2.92,6.14h-2.52a6.24,6.24,0,0,0-.68-2.65A5.93,5.93,0,0,0,205,108a7,7,0,0,0-2.26-1.15,9.14,9.14,0,0,0-2.68-.39,10.76,10.76,0,0,0-2.5.28,6.17,6.17,0,0,0-2.11.89,4.59,4.59,0,0,0-1.46,1.6,5.08,5.08,0,0,0-.55,2.48,3.79,3.79,0,0,0,.31,1.61,3.38,3.38,0,0,0,.87,1.17,4.57,4.57,0,0,0,1.28.78,11.41,11.41,0,0,0,1.53.48l6.44,1.59a18.17,18.17,0,0,1,2.64.9,8.85,8.85,0,0,1,2.19,1.34,5.58,5.58,0,0,1,1.48,1.94,6.61,6.61,0,0,1,.53,2.77,10.44,10.44,0,0,1-.09,1.19,6,6,0,0,1-.44,1.57,8.07,8.07,0,0,1-1,1.68,6.35,6.35,0,0,1-1.78,1.54,10,10,0,0,1-2.79,1.11,18.56,18.56,0,0,1-8.33-.11,9.38,9.38,0,0,1-3.4-1.65,7.17,7.17,0,0,1-2.16-2.85,9.19,9.19,0,0,1-.65-4.18h2.51A7.59,7.59,0,0,0,193.19,126Z"/><path class="cls-3" d="M217.21,104.89v11.47h15.68V104.89h2.52v26.42h-2.52V118.5H217.21v12.81h-2.52V104.89Z"/><path class="cls-3" d="M240.11,112.88a13,13,0,0,1,2.33-4.38,11.21,11.21,0,0,1,3.9-3,13.71,13.71,0,0,1,10.9,0,11.23,11.23,0,0,1,3.88,3,13,13,0,0,1,2.34,4.38,18,18,0,0,1,0,10.43,12.77,12.77,0,0,1-2.34,4.37,11.42,11.42,0,0,1-3.88,3,13.82,13.82,0,0,1-10.9,0,11.4,11.4,0,0,1-3.9-3,12.75,12.75,0,0,1-2.33-4.37,17.82,17.82,0,0,1,0-10.43Zm2.31,9.45a11.15,11.15,0,0,0,1.78,3.74,8.94,8.94,0,0,0,3.09,2.65,10.65,10.65,0,0,0,9,0,9.15,9.15,0,0,0,3.07-2.65,11.33,11.33,0,0,0,1.77-3.74,15.82,15.82,0,0,0,0-8.49,11.42,11.42,0,0,0-1.77-3.72,9.13,9.13,0,0,0-3.07-2.64,10.65,10.65,0,0,0-9,0,8.92,8.92,0,0,0-3.09,2.64,11.24,11.24,0,0,0-1.78,3.72,16.09,16.09,0,0,0,0,8.49Z"/><path class="cls-3" d="M286.25,104.89V107H277v24.28h-2.51V107h-9.18v-2.14Z"/><path class="cls-3" d="M289,127.38h3.11v3.93H289Zm.3-22.49h2.52v7.88l-.56,12h-1.4l-.56-12Z"/></svg>
