<svg id="Layer_1" data-name="Layer 1" xmlns="http://www.w3.org/2000/svg" width="345" height="245" viewBox="0 0 345 245"><defs><style>.cls-1{opacity:0.5;}.cls-2{fill:#34495e;}.cls-3{fill:#2c3e50;}</style></defs><title>sletbillede</title><g class="cls-1"><rect class="cls-2" x="0.5" y="2" width="344" height="241" rx="82.52"/></g><path class="cls-3" d="M56.1,126a5.68,5.68,0,0,0,1.83,2.18,7.64,7.64,0,0,0,2.76,1.16,15.41,15.41,0,0,0,3.4.36,9.44,9.44,0,0,0,2.26-.3,8,8,0,0,0,2.28-.94,5.81,5.81,0,0,0,1.75-1.67,4.22,4.22,0,0,0,.71-2.46,3.61,3.61,0,0,0-.5-1.92,4.59,4.59,0,0,0-1.3-1.37,7.84,7.84,0,0,0-1.75-.91q-1-.34-1.89-.57l-5.88-1.45a15.46,15.46,0,0,1-2.24-.74,6.27,6.27,0,0,1-1.91-1.18,5.62,5.62,0,0,1-1.31-1.81,6.26,6.26,0,0,1-.5-2.63,8.32,8.32,0,0,1,.37-2.26,6.23,6.23,0,0,1,1.39-2.44,8.08,8.08,0,0,1,2.79-1.94,11.18,11.18,0,0,1,4.55-.8,13.52,13.52,0,0,1,3.74.52,9.19,9.19,0,0,1,3.11,1.56,7.52,7.52,0,0,1,2.92,6.14H70.16a6.24,6.24,0,0,0-.68-2.65A6.08,6.08,0,0,0,67.89,108a7.18,7.18,0,0,0-2.26-1.14,9.14,9.14,0,0,0-2.68-.39,10.76,10.76,0,0,0-2.5.28,6.35,6.35,0,0,0-2.11.88,4.72,4.72,0,0,0-1.46,1.61,5.08,5.08,0,0,0-.55,2.48,3.79,3.79,0,0,0,.31,1.61,3.38,3.38,0,0,0,.87,1.17,4.57,4.57,0,0,0,1.28.78,11.41,11.41,0,0,0,1.53.48l6.44,1.59a18.17,18.17,0,0,1,2.64.9,8.85,8.85,0,0,1,2.19,1.34,5.58,5.58,0,0,1,1.48,1.94,6.61,6.61,0,0,1,.53,2.77,10.44,10.44,0,0,1-.09,1.19,6.13,6.13,0,0,1-.44,1.57,8.07,8.07,0,0,1-1,1.68,6.35,6.35,0,0,1-1.78,1.54,10,10,0,0,1-2.79,1.11,18.56,18.56,0,0,1-8.33-.11,9.38,9.38,0,0,1-3.4-1.65,7.17,7.17,0,0,1-2.16-2.85,9.19,9.19,0,0,1-.65-4.18h2.51A7.59,7.59,0,0,0,56.1,126Z"/><path class="cls-3" d="M80.12,104.89v24.27h14.8v2.15H77.6V104.89Z"/><path class="cls-3" d="M115.71,104.89V107H100v9.55h14.73v2.15H100v10.43h15.91v2.15H97.47V104.89Z"/><path class="cls-3" d="M137.5,104.89V107h-9.21v24.28h-2.52V107H116.6v-2.14Z"/><path class="cls-3" d="M161.44,104.89a15.86,15.86,0,0,1,3.2.31,7.73,7.73,0,0,1,2.7,1.08,5.67,5.67,0,0,1,1.87,2,6.2,6.2,0,0,1,.7,3.09,6.29,6.29,0,0,1-1.27,3.8,6,6,0,0,1-1.45,1.35,5.13,5.13,0,0,1-1.86.77v.08a6.25,6.25,0,0,1,4.07,2.09,6.41,6.41,0,0,1,1.51,4.34,9.59,9.59,0,0,1-.11,1.43,7,7,0,0,1-.44,1.63,7.14,7.14,0,0,1-1,1.64,5.6,5.6,0,0,1-1.69,1.43,9.93,9.93,0,0,1-2.59,1,15.09,15.09,0,0,1-3.68.39H150.27V104.89Zm0,11.58a8.91,8.91,0,0,0,2.63-.35,5.77,5.77,0,0,0,1.85-1,4.11,4.11,0,0,0,1.11-1.43,4.24,4.24,0,0,0,.37-1.74c0-3.3-2-5-6-5h-8.66v9.44Zm0,12.69a14.07,14.07,0,0,0,2.66-.24,6.07,6.07,0,0,0,2.22-.87,4.4,4.4,0,0,0,1.52-1.68,5.68,5.68,0,0,0,.56-2.65,4.39,4.39,0,0,0-1.8-3.83,8.84,8.84,0,0,0-5.16-1.27h-8.66v10.54Z"/><path class="cls-3" d="M177.65,104.89v26.42h-2.52V104.89Z"/><path class="cls-3" d="M185.67,104.89v24.27h14.8v2.15H183.16V104.89Z"/><path class="cls-3" d="M205.54,104.89v24.27h14.8v2.15H203V104.89Z"/><path class="cls-3" d="M241.14,104.89V107H225.41v9.55h14.73v2.15H225.41v10.43h15.91v2.15H222.9V104.89Z"/><path class="cls-3" d="M254,104.89q6,.15,9.08,3.38t3.05,9.83q0,6.59-3.05,9.82T254,131.31h-9.14V104.89Zm-1.26,24.27a17.21,17.21,0,0,0,4.9-.61,7.78,7.78,0,0,0,3.38-1.94,8,8,0,0,0,2-3.44A21,21,0,0,0,263,113a8,8,0,0,0-2-3.44,7.8,7.8,0,0,0-3.38-2,17.57,17.57,0,0,0-4.9-.61h-5.37v22.13Z"/><path class="cls-3" d="M288.42,104.89V107H272.7v9.55h14.72v2.15H272.7v10.43h15.91v2.15H270.18V104.89Z"/></svg>
