<svg xmlns="http://www.w3.org/2000/svg" width="1080" height="1920" viewBox="0 0 1080 1920"><defs><style>.cls-1{fill:#dcdfe6;}.cls-2{fill:#fff;}.cls-3{fill:#999;}.cls-4{fill:#bcc0cc;}.cls-5{fill:#343740;}.cls-6{fill:#a1a5b3;}.cls-7{fill:gray;}.cls-8{fill:#fefefe;}.cls-9{fill:#3498db;}.cls-10{fill:#ecf0f1;}.cls-11{opacity:0.2;}.cls-12{fill:#7f8c8d;}.cls-13{fill:#2c3e50;}.cls-14{fill:#9b59b6;}.cls-15{fill:#e74c3c;}.cls-16{fill:#f1c40f;}.cls-17{fill:#3b2213;}.cls-18{fill:#7f3e97;}.cls-19{fill:#6d4321;}.cls-20{fill:#754c27;}.cls-21{fill:#f2a087;}.cls-22{fill:#a87b4f;}.cls-23{fill:#985e25;}.cls-24{fill:#dca67f;}.cls-25{fill:#e1b28c;}.cls-26{fill:#3f2914;}.cls-27{fill:#895d3b;}.cls-28{fill:#8bc53f;}.cls-29{fill:#b6835a;}.cls-30{fill:#be9066;}.cls-31{fill:#ee4035;}.cls-32{fill:#f3e879;}.cls-33{fill:#d3aa83;}.cls-34{fill:#dab692;}.cls-35{fill:#d3ab83;}</style></defs><title>Artboard 1</title><g id="Layer_2" data-name="Layer 2"><rect class="cls-1" x="1062.48" y="362.16" width="21.52" height="125.16"/><rect class="cls-1" x="-1" width="1078.85" height="1920" rx="44.6"/><rect class="cls-2" x="35.88" y="202.39" width="998.94" height="1517.89"/><rect class="cls-3" x="466.2" y="87.88" width="144.46" height="10.65" rx="2"/><path class="cls-4" d="M536.89,1768.21c-39,0-70.69,27.42-70.69,61.25s31.65,61.25,70.69,61.25,70.69-27.42,70.69-61.25S575.93,1768.21,536.89,1768.21Zm0,114.51c-32.25,0-58.4-23.25-58.4-51.93s26.15-51.93,58.4-51.93,58.4,23.25,58.4,51.93S569.14,1882.72,536.89,1882.72Z"/><ellipse class="cls-3" cx="389.35" cy="93.2" rx="15.37" ry="13.31"/><rect class="cls-5" x="38.96" y="258.31" width="998.94" height="1461.97"/><ellipse class="cls-1" cx="544.57" cy="35.95" rx="10.76" ry="9.32"/><ellipse class="cls-6" cx="538.5" cy="35.95" rx="10.76" ry="9.32"/><rect class="cls-5" x="38.96" y="202.39" width="998.94" height="55.92"/><rect class="cls-7" x="970.27" y="218.36" width="52.25" height="21.3"/><rect class="cls-8" x="973.35" y="221.03" width="46.1" height="15.98"/><rect class="cls-3" x="1022.53" y="223.69" width="3.07" height="10.65"/><rect class="cls-8" x="1022.53" y="226.35" width="3.07" height="5.33"/><ellipse class="cls-8" cx="57.4" cy="229.02" rx="6.15" ry="5.33"/><ellipse class="cls-8" cx="72.77" cy="229.02" rx="6.15" ry="5.33"/><ellipse class="cls-8" cx="91.21" cy="229.02" rx="6.15" ry="5.33"/><ellipse class="cls-8" cx="109.65" cy="229.02" rx="6.15" ry="5.33"/><ellipse class="cls-8" cx="128.09" cy="229.02" rx="6.15" ry="5.33"/><ellipse class="cls-8" cx="158.83" cy="237" rx="3.07" ry="2.66"/><path class="cls-8" d="M168.67,233.56q-9.84-6.26-19.68,0a2.31,2.31,0,0,1-2.45-2.13h0A2.31,2.31,0,0,1,149,229.3a25.26,25.26,0,0,1,19.68,0,2.31,2.31,0,0,1,2.45,2.13h0A2.31,2.31,0,0,1,168.67,233.56Z"/><path class="cls-8" d="M173.89,226.35q-13.53-8.49-27,0c-1.86,0-3.38-1.2-3.38-2.66h0c0-1.47,1.52-2.66,3.38-2.66a37.87,37.87,0,0,1,27,0c1.86,0,3.38,1.19,3.38,2.66h0C177.27,225.15,175.75,226.35,173.89,226.35Z"/></g><g id="Layer_3" data-name="Layer 3"><rect class="cls-9" x="41" y="258" width="996" height="1463"/><rect class="cls-10" x="41" y="384" width="996" height="1337" rx="49"/><g class="cls-11"><rect class="cls-12" x="41" y="661.5" width="996" height="1"/></g><g class="cls-11"><rect class="cls-12" x="41" y="925" width="996" height="1"/></g><g class="cls-11"><rect class="cls-12" x="41" y="1188" width="996" height="1"/></g><g class="cls-11"><rect class="cls-12" x="41" y="1451" width="996" height="1"/></g><path class="cls-9" d="M271.45,862.68a1.23,1.23,0,0,1-1.46-1.85c4.09-6.51,12.31-20.27,12.33-25.76s-8.07-19.18-12.12-25.69a1.23,1.23,0,0,1,1.47-1.83l28.35,13,28.09,12.91a2,2,0,0,1,0,3.64l-28.17,12.71Z"/><path class="cls-12" d="M355.45,844.77a7.09,7.09,0,0,0,2.37,2.83,9.92,9.92,0,0,0,3.58,1.52,20.66,20.66,0,0,0,4.41.45,12.74,12.74,0,0,0,2.93-.38,10.24,10.24,0,0,0,2.95-1.23A7.35,7.35,0,0,0,374,845.8a5.46,5.46,0,0,0,.92-3.19,4.67,4.67,0,0,0-.65-2.49,5.82,5.82,0,0,0-1.68-1.78,10.24,10.24,0,0,0-2.28-1.18,22.61,22.61,0,0,0-2.45-.74l-7.63-1.87a24.77,24.77,0,0,1-2.91-1,8.52,8.52,0,0,1-2.47-1.54,7.28,7.28,0,0,1-1.7-2.35,8.07,8.07,0,0,1-.65-3.41,10.9,10.9,0,0,1,.48-2.93,8.1,8.1,0,0,1,1.8-3.16,10.31,10.31,0,0,1,3.62-2.52,14.52,14.52,0,0,1,5.91-1,17.22,17.22,0,0,1,4.85.68,11.91,11.91,0,0,1,4,2,10.07,10.07,0,0,1,2.76,3.34,9.91,9.91,0,0,1,1,4.63h-3.26a8,8,0,0,0-.89-3.43,7.69,7.69,0,0,0-2.07-2.45,9,9,0,0,0-2.92-1.49,12.15,12.15,0,0,0-3.48-.5,14.3,14.3,0,0,0-3.24.36,8.06,8.06,0,0,0-2.74,1.15,6,6,0,0,0-1.9,2.09,6.51,6.51,0,0,0-.72,3.21,5,5,0,0,0,.41,2.09,4.35,4.35,0,0,0,1.13,1.51,5.68,5.68,0,0,0,1.66,1,11.87,11.87,0,0,0,2,.63l8.35,2.06a23,23,0,0,1,3.43,1.18,11.37,11.37,0,0,1,2.83,1.72,7.23,7.23,0,0,1,1.92,2.52,8.41,8.41,0,0,1,.7,3.6,13,13,0,0,1-.12,1.54,7.54,7.54,0,0,1-.58,2,9.81,9.81,0,0,1-1.29,2.18,8.22,8.22,0,0,1-2.31,2,13.39,13.39,0,0,1-3.62,1.44,23.72,23.72,0,0,1-10.8-.15,12.05,12.05,0,0,1-4.42-2.13,9.43,9.43,0,0,1-2.8-3.7,12,12,0,0,1-.84-5.42h3.26A9.58,9.58,0,0,0,355.45,844.77Z"/><path class="cls-12" d="M385,843.45a9.28,9.28,0,0,0,1.46,3.15,8.43,8.43,0,0,0,2.55,2.3,7.06,7.06,0,0,0,3.69.91,7.33,7.33,0,0,0,5.19-1.73,9.11,9.11,0,0,0,2.59-4.6h3A12,12,0,0,1,400,850q-2.56,2.31-7.27,2.31a11.62,11.62,0,0,1-5.06-1,9.34,9.34,0,0,1-3.48-2.84,12.21,12.21,0,0,1-2-4.17,18.72,18.72,0,0,1-.65-5,17.69,17.69,0,0,1,.65-4.8,12.73,12.73,0,0,1,2-4.2,10,10,0,0,1,3.48-3,10.59,10.59,0,0,1,5.06-1.13,9.8,9.8,0,0,1,8.52,4.34,13.22,13.22,0,0,1,1.9,4.47,19.92,19.92,0,0,1,.48,5.11H384.53A13.13,13.13,0,0,0,385,843.45Zm15-9.24a9,9,0,0,0-1.55-2.81,7.8,7.8,0,0,0-2.45-2,7,7,0,0,0-3.27-.75,7.08,7.08,0,0,0-3.31.75,7.69,7.69,0,0,0-2.45,2,9.6,9.6,0,0,0-1.6,2.84,13.44,13.44,0,0,0-.8,3.28h16A11.14,11.14,0,0,0,400,834.21Z"/><path class="cls-12" d="M410.65,826.87v4.27h.09a7.28,7.28,0,0,1,3.07-3.62,9,9,0,0,1,4.85-1.37,12.1,12.1,0,0,1,4.34.67,6.83,6.83,0,0,1,2.81,1.9,7,7,0,0,1,1.49,3,16.74,16.74,0,0,1,.43,4v15.94h-3V836.18a14.4,14.4,0,0,0-.29-2.95,6.24,6.24,0,0,0-1-2.38,4.83,4.83,0,0,0-1.94-1.58,7.06,7.06,0,0,0-3.05-.58,7.71,7.71,0,0,0-3.24.65,7,7,0,0,0-2.4,1.78,7.92,7.92,0,0,0-1.53,2.68,10.85,10.85,0,0,0-.6,3.39v14.45h-3V826.87Z"/><path class="cls-12" d="M452.45,851.64v-4.71h-.09a7.19,7.19,0,0,1-1.42,2.21,9.06,9.06,0,0,1-2.14,1.7,10.53,10.53,0,0,1-2.56,1.08,9.93,9.93,0,0,1-2.72.39,11.14,11.14,0,0,1-4.92-1,9.93,9.93,0,0,1-3.48-2.84,12.33,12.33,0,0,1-2.06-4.17,19.1,19.1,0,0,1,0-10,12.29,12.29,0,0,1,2.06-4.18,10.21,10.21,0,0,1,3.48-2.86,10.87,10.87,0,0,1,4.92-1.05,11.19,11.19,0,0,1,2.72.33,9.12,9.12,0,0,1,2.47,1,8.55,8.55,0,0,1,2,1.7,7.23,7.23,0,0,1,1.37,2.35h.09V817.36h3v34.28Zm-16.58-8.57a10.37,10.37,0,0,0,1.44,3.38,7.91,7.91,0,0,0,2.52,2.43,7,7,0,0,0,3.69.93,7.73,7.73,0,0,0,6.75-3.36,10,10,0,0,0,1.49-3.38,16.4,16.4,0,0,0,0-7.63,10,10,0,0,0-1.49-3.39,7.79,7.79,0,0,0-6.75-3.36,6.89,6.89,0,0,0-3.69.94,7.78,7.78,0,0,0-2.52,2.42,10.33,10.33,0,0,0-1.44,3.39,16,16,0,0,0,0,7.63Z"/><path class="cls-12" d="M470.84,826.87v2.54h-5v16.71a5.43,5.43,0,0,0,.4,2.32c.28.56,1,.88,2,.94a25.16,25.16,0,0,0,2.6-.14v2.54c-.45,0-.9,0-1.35.05s-.89,0-1.34,0c-2,0-3.43-.4-4.23-1.18s-1.18-2.23-1.15-4.34v-17h-4.32v-2.54h4.32v-7.44h3v7.44Z"/><path class="cls-12" d="M494.33,834.5a2.81,2.81,0,0,1,.84,2,2.65,2.65,0,0,1-.86,1.94,2.75,2.75,0,0,1-2,.84,2.7,2.7,0,0,1-2-.86,2.81,2.81,0,0,1-.84-2,2.64,2.64,0,0,1,.86-1.94,2.75,2.75,0,0,1,2-.84A2.66,2.66,0,0,1,494.33,834.5Z"/><path class="cls-12" d="M520.59,824.3a7.62,7.62,0,0,0,2.78-.79,5.18,5.18,0,0,0,2-1.9,9.49,9.49,0,0,0,1.13-3.57h2.45v33.6h-3v-25H517v-2.16C518.32,824.48,519.51,824.41,520.59,824.3Z"/><path class="cls-12" d="M563.09,818.47v2.78c-1.05,1.09-2.32,2.55-3.79,4.39a45.74,45.74,0,0,0-4.3,6.58,49.58,49.58,0,0,0-3.65,8.69,41.74,41.74,0,0,0-1.84,10.73h-3.27a50.21,50.21,0,0,1,1.18-8.07,39.33,39.33,0,0,1,2.54-7.41,50.84,50.84,0,0,1,4.13-7.28,78,78,0,0,1,6-7.63H541.49v-2.78Z"/><path class="cls-12" d="M584.74,826.87V831h.14a9.55,9.55,0,0,1,3.15-3.6,8.79,8.79,0,0,1,5-1.29,8.4,8.4,0,0,1,4.44,1.2A5.87,5.87,0,0,1,600.1,831a7.53,7.53,0,0,1,3.26-3.65,9.36,9.36,0,0,1,4.61-1.2q8.21,0,8.21,8.69v16.8h-3V835a7.33,7.33,0,0,0-1.29-4.68q-1.3-1.6-4.56-1.61a6.48,6.48,0,0,0-3.27.75,5.7,5.7,0,0,0-2.06,2,8.53,8.53,0,0,0-1.08,2.85,17.44,17.44,0,0,0-.31,3.34v14h-3v-16.8a10.16,10.16,0,0,0-.26-2.38,5.59,5.59,0,0,0-.86-2,4.11,4.11,0,0,0-1.61-1.32,5.66,5.66,0,0,0-2.45-.48,7.44,7.44,0,0,0-3.34.7,6.07,6.07,0,0,0-2.3,1.92,8.48,8.48,0,0,0-1.32,2.88,14.2,14.2,0,0,0-.43,3.62v13.83h-3V826.87Z"/><path class="cls-12" d="M625,817.36v4.85h-3v-4.85Zm0,9.51v24.77h-3V826.87Z"/><path class="cls-12" d="M633.79,826.87v4.27h.1a7.28,7.28,0,0,1,3.07-3.62,9,9,0,0,1,4.85-1.37,12.1,12.1,0,0,1,4.34.67,6.83,6.83,0,0,1,2.81,1.9,7,7,0,0,1,1.49,3,16.74,16.74,0,0,1,.43,4v15.94h-3V836.18a14.4,14.4,0,0,0-.29-2.95,6.24,6.24,0,0,0-1-2.38,4.9,4.9,0,0,0-1.94-1.58,7.06,7.06,0,0,0-3-.58,7.71,7.71,0,0,0-3.24.65,6.79,6.79,0,0,0-2.4,1.78,8.11,8.11,0,0,0-1.54,2.68,11.46,11.46,0,0,0-.6,3.39v14.45h-3V826.87Z"/><path class="cls-12" d="M684.19,831.69a4.87,4.87,0,0,0-1.41-1.7,6.05,6.05,0,0,0-2-1,9.73,9.73,0,0,0-2.45-.31,9.57,9.57,0,0,0-2,.22,6.13,6.13,0,0,0-1.9.72A4,4,0,0,0,673,831a3.62,3.62,0,0,0-.53,2,2.82,2.82,0,0,0,.51,1.71,4.46,4.46,0,0,0,1.27,1.17,8.13,8.13,0,0,0,1.68.8c.61.2,1.17.37,1.68.5l4,.91a11.56,11.56,0,0,1,2.57.7,7.85,7.85,0,0,1,2.25,1.32,6.25,6.25,0,0,1,1.61,2,6,6,0,0,1,.63,2.84,6.29,6.29,0,0,1-.91,3.43,7.52,7.52,0,0,1-2.33,2.3,9.84,9.84,0,0,1-3.2,1.27,16.25,16.25,0,0,1-3.5.39,11.36,11.36,0,0,1-7.08-2.07q-2.71-2.06-3.1-6.62h3a6,6,0,0,0,2.23,4.63,8.09,8.09,0,0,0,5.06,1.56,11.33,11.33,0,0,0,2.28-.24,7.37,7.37,0,0,0,2.19-.81,5.32,5.32,0,0,0,1.65-1.47,4,4,0,0,0,.2-4A4.07,4.07,0,0,0,684,842a8.12,8.12,0,0,0-1.75-.84c-.66-.22-1.32-.41-2-.57l-3.89-.87a21,21,0,0,1-2.74-.89,8.67,8.67,0,0,1-2.18-1.24,5.31,5.31,0,0,1-1.46-1.83,6.74,6.74,0,0,1,.31-5.88,6.71,6.71,0,0,1,2.18-2.16,10.47,10.47,0,0,1,3-1.2,14.9,14.9,0,0,1,3.29-.38,12.1,12.1,0,0,1,3.48.48,7.84,7.84,0,0,1,2.83,1.49,7.26,7.26,0,0,1,2,2.49,8.89,8.89,0,0,1,.81,3.51h-3A5.73,5.73,0,0,0,684.19,831.69Z"/><path class="cls-12" d="M696.1,817.36v4.85h-3v-4.85Zm0,9.51v24.77h-3V826.87Z"/><path class="cls-12" d="M720.91,851.64v-4.71h-.09a7.19,7.19,0,0,1-1.42,2.21,9.06,9.06,0,0,1-2.14,1.7,10.53,10.53,0,0,1-2.56,1.08,9.93,9.93,0,0,1-2.72.39,11.14,11.14,0,0,1-4.92-1,9.93,9.93,0,0,1-3.48-2.84,12.33,12.33,0,0,1-2.06-4.17,19.1,19.1,0,0,1,0-10,12.29,12.29,0,0,1,2.06-4.18,10.21,10.21,0,0,1,3.48-2.86,10.87,10.87,0,0,1,4.92-1.05,11.19,11.19,0,0,1,2.72.33,9.12,9.12,0,0,1,2.47,1,8.55,8.55,0,0,1,2,1.7,7.23,7.23,0,0,1,1.37,2.35h.09V817.36h3v34.28Zm-16.58-8.57a10.37,10.37,0,0,0,1.44,3.38,7.91,7.91,0,0,0,2.52,2.43,7,7,0,0,0,3.69.93,7.73,7.73,0,0,0,6.75-3.36,10,10,0,0,0,1.49-3.38,16.4,16.4,0,0,0,0-7.63,10,10,0,0,0-1.49-3.39,7.79,7.79,0,0,0-6.75-3.36,6.89,6.89,0,0,0-3.69.94,7.78,7.78,0,0,0-2.52,2.42,10.33,10.33,0,0,0-1.44,3.39,16,16,0,0,0,0,7.63Z"/><path class="cls-12" d="M731.69,843.45a9.28,9.28,0,0,0,1.46,3.15,8.43,8.43,0,0,0,2.55,2.3,7.06,7.06,0,0,0,3.69.91,7.33,7.33,0,0,0,5.19-1.73,9.11,9.11,0,0,0,2.59-4.6h3a12,12,0,0,1-3.53,6.52q-2.56,2.31-7.27,2.31a11.62,11.62,0,0,1-5.06-1,9.27,9.27,0,0,1-3.48-2.84,12.21,12.21,0,0,1-2-4.17,18.72,18.72,0,0,1-.65-5,17.69,17.69,0,0,1,.65-4.8,12.73,12.73,0,0,1,2-4.2,9.88,9.88,0,0,1,3.48-3,10.59,10.59,0,0,1,5.06-1.13,9.8,9.8,0,0,1,8.52,4.34,13.22,13.22,0,0,1,1.9,4.47,19.92,19.92,0,0,1,.48,5.11H731.23A13.13,13.13,0,0,0,731.69,843.45Zm15-9.24a8.87,8.87,0,0,0-1.56-2.81,7.65,7.65,0,0,0-2.44-2,7,7,0,0,0-3.27-.75,7.05,7.05,0,0,0-3.31.75,7.69,7.69,0,0,0-2.45,2,9.85,9.85,0,0,0-1.61,2.84,13.89,13.89,0,0,0-.79,3.28h16A10.82,10.82,0,0,0,746.66,834.21Z"/><path class="cls-12" d="M757.34,826.87v4.27h.1a7.28,7.28,0,0,1,3.07-3.62,9,9,0,0,1,4.85-1.37,12.1,12.1,0,0,1,4.34.67,6.83,6.83,0,0,1,2.81,1.9,7,7,0,0,1,1.49,3,16.74,16.74,0,0,1,.43,4v15.94h-3V836.18a14.4,14.4,0,0,0-.29-2.95,6.24,6.24,0,0,0-1-2.38,4.9,4.9,0,0,0-1.94-1.58,7.06,7.06,0,0,0-3-.58,7.71,7.71,0,0,0-3.24.65,7,7,0,0,0-2.4,1.78,8.11,8.11,0,0,0-1.54,2.68,11.46,11.46,0,0,0-.6,3.39v14.45h-3V826.87Z"/><path class="cls-10" d="M249.2,298.36l12.53,34.51h.11l12.42-34.51h3.88l-14.31,38.56h-4.26l-14.26-38.56Z"/><path class="cls-10" d="M280.44,327.71a10.28,10.28,0,0,0,1.65,3.54,9.37,9.37,0,0,0,2.86,2.59,8,8,0,0,0,4.16,1,8.27,8.27,0,0,0,5.83-1.95,10.21,10.21,0,0,0,2.91-5.18h3.41a13.61,13.61,0,0,1-4,7.34q-2.9,2.6-8.18,2.59a12.89,12.89,0,0,1-5.7-1.16,10.48,10.48,0,0,1-3.92-3.18,14.11,14.11,0,0,1-2.24-4.7,21.58,21.58,0,0,1-.73-5.64,20.44,20.44,0,0,1,.73-5.4,14.75,14.75,0,0,1,2.24-4.73,11.42,11.42,0,0,1,3.92-3.35,12.11,12.11,0,0,1,5.7-1.26,11,11,0,0,1,9.58,4.88,14.62,14.62,0,0,1,2.13,5,21.38,21.38,0,0,1,.54,5.75H279.93A15.14,15.14,0,0,0,280.44,327.71Zm16.85-10.39a10.26,10.26,0,0,0-1.76-3.16,8.63,8.63,0,0,0-2.75-2.22,8,8,0,0,0-3.67-.83,8.1,8.1,0,0,0-3.73.83,8.63,8.63,0,0,0-2.75,2.22,11,11,0,0,0-1.81,3.18,15.48,15.48,0,0,0-.89,3.7h18A12.18,12.18,0,0,0,297.29,317.32Z"/><path class="cls-10" d="M309.3,309.06v4.8h.11a8.19,8.19,0,0,1,3.46-4.08,10.17,10.17,0,0,1,5.45-1.53,13.89,13.89,0,0,1,4.89.75,7.39,7.39,0,0,1,4.83,5.51,19.21,19.21,0,0,1,.49,4.48v17.93h-3.41V319.53a15.85,15.85,0,0,0-.32-3.32,7,7,0,0,0-1.13-2.67,5.55,5.55,0,0,0-2.19-1.79,8.08,8.08,0,0,0-3.43-.64,8.57,8.57,0,0,0-3.64.73,7.72,7.72,0,0,0-2.7,2,9.19,9.19,0,0,0-1.73,3,12.27,12.27,0,0,0-.68,3.81v16.25h-3.4V309.06Z"/><path class="cls-10" d="M338.3,309.06v4.8h.11a8.17,8.17,0,0,1,3.45-4.08,10.23,10.23,0,0,1,5.46-1.53,13.79,13.79,0,0,1,4.88.75,7.81,7.81,0,0,1,3.16,2.13,8.09,8.09,0,0,1,1.68,3.38,19.23,19.23,0,0,1,.48,4.48v17.93h-3.4V319.53a16.55,16.55,0,0,0-.32-3.32,7,7,0,0,0-1.14-2.67,5.59,5.59,0,0,0-2.18-1.79,8.08,8.08,0,0,0-3.43-.64,8.62,8.62,0,0,0-3.65.73,7.91,7.91,0,0,0-2.7,2,9.37,9.37,0,0,0-1.73,3,12.27,12.27,0,0,0-.67,3.81v16.25h-3.4V309.06Z"/><path class="cls-10" d="M366.46,327.71a10.28,10.28,0,0,0,1.65,3.54,9.37,9.37,0,0,0,2.86,2.59,8,8,0,0,0,4.16,1,8.27,8.27,0,0,0,5.83-1.95,10.21,10.21,0,0,0,2.91-5.18h3.41a13.61,13.61,0,0,1-4,7.34q-2.9,2.6-8.18,2.59a12.89,12.89,0,0,1-5.7-1.16,10.48,10.48,0,0,1-3.92-3.18,14.11,14.11,0,0,1-2.24-4.7,21.58,21.58,0,0,1-.73-5.64,20.44,20.44,0,0,1,.73-5.4,14.75,14.75,0,0,1,2.24-4.73,11.42,11.42,0,0,1,3.92-3.35,12.11,12.11,0,0,1,5.7-1.26,11,11,0,0,1,9.58,4.88,14.62,14.62,0,0,1,2.13,5,21.38,21.38,0,0,1,.54,5.75H366A15.14,15.14,0,0,0,366.46,327.71Zm16.85-10.39a10.26,10.26,0,0,0-1.76-3.16,8.63,8.63,0,0,0-2.75-2.22,8,8,0,0,0-3.67-.83,8.1,8.1,0,0,0-3.73.83,8.63,8.63,0,0,0-2.75,2.22,11,11,0,0,0-1.81,3.18A15.48,15.48,0,0,0,366,321h18A12.18,12.18,0,0,0,383.31,317.32Z"/><path class="cls-10" d="M395.11,309.06v6.53h.1a10.75,10.75,0,0,1,4-5.24,10.51,10.51,0,0,1,6.5-1.67v3.4a10.25,10.25,0,0,0-4.21.62,9.57,9.57,0,0,0-3.27,2.08,9.44,9.44,0,0,0-2.13,3.21,10.81,10.81,0,0,0-.75,4.08v14.85H392V309.06Z"/><path class="cls-13" d="M283.07,734.51a12.67,12.67,0,0,0-7.65-2.18,18.49,18.49,0,0,0-3.72.38,9.7,9.7,0,0,0-3.24,1.26,6.67,6.67,0,0,0-2.27,2.36,7.3,7.3,0,0,0-.85,3.69,4.69,4.69,0,0,0,1.23,3.37,9.2,9.2,0,0,0,3.27,2.11,26.74,26.74,0,0,0,4.63,1.35q2.59.54,5.26,1.17c1.79.42,3.54.91,5.27,1.48a17.21,17.21,0,0,1,4.62,2.3,10.94,10.94,0,0,1,3.28,3.65,12.8,12.8,0,0,1-.38,11.69,13.2,13.2,0,0,1-4.12,4.16,17.91,17.91,0,0,1-5.64,2.33,27.54,27.54,0,0,1-6.21.72,26.39,26.39,0,0,1-7.15-.94,17.73,17.73,0,0,1-5.92-2.87,13.54,13.54,0,0,1-4-4.91,15.8,15.8,0,0,1-1.48-7.09h5.67a10.08,10.08,0,0,0,1.1,4.88,9.87,9.87,0,0,0,2.9,3.37,12,12,0,0,0,4.19,2,19.16,19.16,0,0,0,4.91.63,22.67,22.67,0,0,0,4.07-.38,11.89,11.89,0,0,0,3.68-1.29,6.89,6.89,0,0,0,3.65-6.52,5.61,5.61,0,0,0-1.22-3.78,9.08,9.08,0,0,0-3.28-2.37,24.93,24.93,0,0,0-4.63-1.48l-5.26-1.16q-2.69-.6-5.26-1.39a18.84,18.84,0,0,1-4.63-2.08,9.32,9.32,0,0,1-4.51-8.47,12,12,0,0,1,1.39-5.89,12.09,12.09,0,0,1,3.68-4.1,16.78,16.78,0,0,1,5.23-2.39,23.35,23.35,0,0,1,6-.79,24.34,24.34,0,0,1,6.43.82,14.7,14.7,0,0,1,5.19,2.58,12.49,12.49,0,0,1,3.53,4.45,15.76,15.76,0,0,1,1.42,6.39h-5.67C286.23,738.3,285.07,736,283.07,734.51Z"/><path class="cls-13" d="M299.74,750.38a15.28,15.28,0,0,1,3-5.42,14.17,14.17,0,0,1,5-3.62,18.28,18.28,0,0,1,13.64,0,14.29,14.29,0,0,1,4.94,3.62,15.31,15.31,0,0,1,3,5.42,21.78,21.78,0,0,1,1,6.71,21.45,21.45,0,0,1-1,6.68,15.35,15.35,0,0,1-3,5.39,14,14,0,0,1-4.94,3.59,18.67,18.67,0,0,1-13.64,0,13.86,13.86,0,0,1-5-3.59,15.33,15.33,0,0,1-3-5.39,21.16,21.16,0,0,1-1-6.68A21.48,21.48,0,0,1,299.74,750.38Zm5.45,12a10.68,10.68,0,0,0,2.17,3.84,9.43,9.43,0,0,0,3.24,2.37,9.88,9.88,0,0,0,7.88,0,9.43,9.43,0,0,0,3.24-2.37,10.84,10.84,0,0,0,2.18-3.84,18.13,18.13,0,0,0,0-10.52,11.35,11.35,0,0,0-2.18-3.87,9.26,9.26,0,0,0-3.24-2.4,9.88,9.88,0,0,0-7.88,0,9.26,9.26,0,0,0-3.24,2.4,11.17,11.17,0,0,0-2.17,3.87,17.91,17.91,0,0,0,0,10.52Z"/><path class="cls-13" d="M333.38,745.5v-4.73h5.48v-4.85a7.6,7.6,0,0,1,2.3-6q2.29-2.05,6.71-2a12.74,12.74,0,0,1,1.73.13,9.51,9.51,0,0,1,1.73.37V733a6.3,6.3,0,0,0-1.51-.35,14.14,14.14,0,0,0-1.51-.1,5.26,5.26,0,0,0-3,.76,3.34,3.34,0,0,0-1.07,2.9v4.53h6.3v4.73h-6.3v27.85h-5.35V745.5Z"/><path class="cls-13" d="M355.62,734.92v-6.56H361v6.56Zm5.35,5.85v32.58h-5.35V740.77Z"/><path class="cls-13" d="M392.34,771.27a14.81,14.81,0,0,1-9.19,2.77,16.74,16.74,0,0,1-6.78-1.26,13.46,13.46,0,0,1-4.82-3.53,15.15,15.15,0,0,1-2.93-5.42,26.4,26.4,0,0,1-1.1-6.86,19.54,19.54,0,0,1,1.14-6.81,16,16,0,0,1,3.18-5.35,14.27,14.27,0,0,1,4.85-3.53,14.79,14.79,0,0,1,6.14-1.26,13.4,13.4,0,0,1,7.21,1.79,14.15,14.15,0,0,1,4.6,4.57,18,18,0,0,1,2.4,6,25.65,25.65,0,0,1,.53,6.24H373.19a12.93,12.93,0,0,0,.51,4.06,9,9,0,0,0,1.82,3.4,8.84,8.84,0,0,0,3.22,2.36,11,11,0,0,0,4.59.89,9.28,9.28,0,0,0,5.58-1.58,7.63,7.63,0,0,0,2.87-4.79h5.29A13,13,0,0,1,392.34,771.27Zm-1.29-20.92a9.14,9.14,0,0,0-8.53-5.61,9.36,9.36,0,0,0-3.75.73,8.57,8.57,0,0,0-2.87,2,9.46,9.46,0,0,0-1.89,2.93,11.42,11.42,0,0,0-.82,3.56H391.9A10.66,10.66,0,0,0,391.05,750.35Z"/><path class="cls-14" d="M253.66,1117a3.35,3.35,0,0,1-2.52-1.15,3.46,3.46,0,0,1-.32-4.12c6.72-10.68,10.89-19.23,10.9-22.3s-4.09-11.59-10.71-22.23a3.43,3.43,0,0,1,.34-4.12,3.31,3.31,0,0,1,3.89-.83l53.32,24.51a3.19,3.19,0,0,1,0,5.81L255,1116.7A3.36,3.36,0,0,1,253.66,1117Zm3.19-49c4.69,7.81,9.45,16.88,9.44,21.43s-4.87,13.68-9.63,21.52l47.26-21.31Z"/><path class="cls-12" d="M336.35,1110.63l13.78-32.83h3.64l13.44,32.83h-3.5l-4-10.17H343.89l-4.08,10.17Zm8.64-13h13.58l-6.76-17Zm1.68-26.79a5.26,5.26,0,0,0,.38,2,5.09,5.09,0,0,0,1.08,1.64,5.31,5.31,0,0,0,1.64,1.1,5,5,0,0,0,4,0,5.26,5.26,0,0,0,1.63-1.1,5.52,5.52,0,0,0,1.11-1.64,5.15,5.15,0,0,0,0-4,5.47,5.47,0,0,0-1.11-1.63,5.29,5.29,0,0,0-1.63-1.11,5.15,5.15,0,0,0-4,0,5.34,5.34,0,0,0-1.64,1.11,5,5,0,0,0-1.08,1.63A5.3,5.3,0,0,0,346.67,1070.89Zm1.82,0a3.21,3.21,0,1,1,.94,2.33A3.19,3.19,0,0,1,348.49,1070.89Z"/><path class="cls-12" d="M372.78,1076.36v14.21h.1a7.06,7.06,0,0,1,1.37-2.35,8.55,8.55,0,0,1,2-1.7,8.86,8.86,0,0,1,2.49-1,11.25,11.25,0,0,1,2.69-.33,10.81,10.81,0,0,1,4.92,1,10.21,10.21,0,0,1,3.48,2.86,12.11,12.11,0,0,1,2.06,4.18,19.1,19.1,0,0,1,0,10,12.15,12.15,0,0,1-2.06,4.17,9.93,9.93,0,0,1-3.48,2.84,11.08,11.08,0,0,1-4.92,1,10.54,10.54,0,0,1-5.4-1.39,8,8,0,0,1-3.43-4h-.1v4.7h-2.78v-34.27Zm16.34,18.08a10.33,10.33,0,0,0-1.44-3.39,7.84,7.84,0,0,0-2.51-2.42,7,7,0,0,0-3.7-.94,7.79,7.79,0,0,0-6.75,3.36,10,10,0,0,0-1.48,3.39,16,16,0,0,0,0,7.63,10,10,0,0,0,1.48,3.38,7.73,7.73,0,0,0,6.75,3.36,7,7,0,0,0,3.7-.93,8,8,0,0,0,2.51-2.43,10.37,10.37,0,0,0,1.44-3.38,16,16,0,0,0,0-7.63Z"/><path class="cls-12" d="M400.29,1085.87v4.27h.09a7.28,7.28,0,0,1,3.07-3.62,9,9,0,0,1,4.85-1.37,12.1,12.1,0,0,1,4.34.67,6.91,6.91,0,0,1,2.81,1.89,7.07,7.07,0,0,1,1.49,3,16.89,16.89,0,0,1,.43,4v15.93h-3v-15.45a14.4,14.4,0,0,0-.29-3,6.24,6.24,0,0,0-1-2.38,4.9,4.9,0,0,0-1.94-1.58,7.06,7.06,0,0,0-3.05-.58,7.71,7.71,0,0,0-3.24.65,7,7,0,0,0-2.4,1.78,8.11,8.11,0,0,0-1.54,2.68,11.15,11.15,0,0,0-.59,3.39v14.44h-3v-24.76Z"/><path class="cls-12" d="M425.32,1102.45a9.28,9.28,0,0,0,1.46,3.15,8.51,8.51,0,0,0,2.54,2.3,7.12,7.12,0,0,0,3.7.91,7.29,7.29,0,0,0,5.18-1.73,9.08,9.08,0,0,0,2.6-4.61h3a12.06,12.06,0,0,1-3.53,6.53q-2.57,2.31-7.27,2.31a11.62,11.62,0,0,1-5.06-1,9.27,9.27,0,0,1-3.48-2.84,12.41,12.41,0,0,1-2-4.17,19.13,19.13,0,0,1-.64-5,18.09,18.09,0,0,1,.64-4.8,13,13,0,0,1,2-4.2,9.88,9.88,0,0,1,3.48-3,10.59,10.59,0,0,1,5.06-1.13,9.8,9.8,0,0,1,8.52,4.34,13.22,13.22,0,0,1,1.9,4.47,19.87,19.87,0,0,1,.48,5.11H424.86A13.13,13.13,0,0,0,425.32,1102.45Zm15-9.24a9.28,9.28,0,0,0-1.56-2.81,7.69,7.69,0,0,0-2.45-2,6.93,6.93,0,0,0-3.26-.75,7.05,7.05,0,0,0-3.31.75,7.69,7.69,0,0,0-2.45,2,9.85,9.85,0,0,0-1.61,2.84,13.89,13.89,0,0,0-.79,3.28h16A10.82,10.82,0,0,0,440.29,1093.21Z"/><path class="cls-12" d="M457.84,1085.87v2.54h-5v16.71a5.43,5.43,0,0,0,.4,2.32c.28.56,1,.88,2,.94a25.16,25.16,0,0,0,2.6-.14v2.54c-.45,0-.9,0-1.35,0s-.89.05-1.34.05c-2,0-3.43-.4-4.23-1.18s-1.18-2.23-1.15-4.34v-16.95h-4.32v-2.54h4.32v-7.44h3v7.44Z"/><path class="cls-12" d="M481.33,1093.5a2.81,2.81,0,0,1,.84,2,2.65,2.65,0,0,1-.86,1.94,2.75,2.75,0,0,1-2,.84,2.7,2.7,0,0,1-2-.86,2.81,2.81,0,0,1-.84-2,2.67,2.67,0,0,1,.86-2,2.79,2.79,0,0,1,2-.84A2.67,2.67,0,0,1,481.33,1093.5Z"/><path class="cls-12" d="M501.08,1110.63a11.82,11.82,0,0,1,.87-4.41,12.75,12.75,0,0,1,2.16-3.46,19.66,19.66,0,0,1,3-2.8c1.12-.85,2.27-1.67,3.46-2.45s2.36-1.59,3.53-2.4a24.08,24.08,0,0,0,3.14-2.62,10.48,10.48,0,0,0,2.09-2.86,8,8,0,0,0,.69-3.47,6.76,6.76,0,0,0-.6-2.91,6.36,6.36,0,0,0-1.63-2.16,7.05,7.05,0,0,0-2.4-1.34,8.94,8.94,0,0,0-2.9-.46,7.54,7.54,0,0,0-3.53.77,6.61,6.61,0,0,0-2.38,2.06,8.86,8.86,0,0,0-1.32,3,13.67,13.67,0,0,0-.36,3.55h-3a15.75,15.75,0,0,1,.6-4.77,10.23,10.23,0,0,1,2-3.77,9.18,9.18,0,0,1,3.39-2.48,11.91,11.91,0,0,1,4.77-.88,13.61,13.61,0,0,1,4.11.6,9.84,9.84,0,0,1,3.31,1.77,8.11,8.11,0,0,1,2.21,3,11,11,0,0,1,.09,8,12,12,0,0,1-1.87,3.17,18.87,18.87,0,0,1-2.69,2.67,35.29,35.29,0,0,1-3.19,2.28c-.8.54-1.74,1.14-2.83,1.8a29,29,0,0,0-3.15,2.18,17.37,17.37,0,0,0-2.66,2.62,6.55,6.55,0,0,0-1.44,3.09h18.67v2.78Z"/><path class="cls-12" d="M531.11,1103.58a7.23,7.23,0,0,0,4.32,4.58,9.45,9.45,0,0,0,3.62.65,10.77,10.77,0,0,0,3.22-.48,8.3,8.3,0,0,0,2.73-1.44,7.2,7.2,0,0,0,1.92-2.35,6.79,6.79,0,0,0,.72-3.17,7.39,7.39,0,0,0-.62-3.14,6.18,6.18,0,0,0-1.73-2.21,7.46,7.46,0,0,0-2.57-1.32,10.93,10.93,0,0,0-3.14-.43H537v-2.55h2.54a8.44,8.44,0,0,0,2.38-.36,6.69,6.69,0,0,0,2.2-1.1,5.85,5.85,0,0,0,1.61-1.9,5.59,5.59,0,0,0,.62-2.73,6.54,6.54,0,0,0-.57-2.86,5.74,5.74,0,0,0-1.58-2,6.69,6.69,0,0,0-2.33-1.15,10.82,10.82,0,0,0-2.86-.36,8.18,8.18,0,0,0-3.31.63,6.59,6.59,0,0,0-2.42,1.75,7.24,7.24,0,0,0-1.47,2.69,10.72,10.72,0,0,0-.43,3.43h-3a12.58,12.58,0,0,1,.75-4.42,10.21,10.21,0,0,1,2.11-3.48,9.72,9.72,0,0,1,3.34-2.3,11.11,11.11,0,0,1,4.41-.84,15,15,0,0,1,3.84.5,10.54,10.54,0,0,1,3.34,1.54A8.26,8.26,0,0,1,548,1090a7.06,7.06,0,0,1-4.21,2.69v.1a7.87,7.87,0,0,1,5.12,2.76,8.54,8.54,0,0,1,1.8,5.54,9.85,9.85,0,0,1-.94,4.39,9.3,9.3,0,0,1-2.52,3.19,10.57,10.57,0,0,1-3.7,2,15,15,0,0,1-4.41.65,14.39,14.39,0,0,1-4.78-.77,10.66,10.66,0,0,1-3.74-2.21,9,9,0,0,1-2.35-3.55,11.37,11.37,0,0,1-.6-4.85h3A9.9,9.9,0,0,0,531.11,1103.58Z"/><path class="cls-12" d="M571.74,1085.87V1090h.14a9.55,9.55,0,0,1,3.15-3.6,8.79,8.79,0,0,1,5-1.29,8.4,8.4,0,0,1,4.44,1.2,5.87,5.87,0,0,1,2.67,3.65,7.53,7.53,0,0,1,3.26-3.65,9.36,9.36,0,0,1,4.61-1.2q8.21,0,8.21,8.69v16.79h-3V1094a7.33,7.33,0,0,0-1.29-4.68q-1.3-1.6-4.56-1.61a6.48,6.48,0,0,0-3.27.75,5.7,5.7,0,0,0-2.06,2,8.53,8.53,0,0,0-1.08,2.85,17.44,17.44,0,0,0-.31,3.34v14h-3v-16.79a10.16,10.16,0,0,0-.26-2.38,5.59,5.59,0,0,0-.86-2,4.11,4.11,0,0,0-1.61-1.32,5.66,5.66,0,0,0-2.45-.48,7.44,7.44,0,0,0-3.34.7,6.07,6.07,0,0,0-2.3,1.92,8.48,8.48,0,0,0-1.32,2.88,14.2,14.2,0,0,0-.43,3.62v13.82h-3v-24.76Z"/><path class="cls-12" d="M612,1076.36v4.85h-3v-4.85Zm0,9.51v24.76h-3v-24.76Z"/><path class="cls-12" d="M620.79,1085.87v4.27h.1a7.28,7.28,0,0,1,3.07-3.62,9,9,0,0,1,4.85-1.37,12.1,12.1,0,0,1,4.34.67,6.91,6.91,0,0,1,2.81,1.89,7.07,7.07,0,0,1,1.49,3,16.89,16.89,0,0,1,.43,4v15.93h-3v-15.45a14.4,14.4,0,0,0-.29-3,6.24,6.24,0,0,0-1-2.38,4.9,4.9,0,0,0-1.94-1.58,7.06,7.06,0,0,0-3-.58,7.71,7.71,0,0,0-3.24.65,6.79,6.79,0,0,0-2.4,1.78,8.11,8.11,0,0,0-1.54,2.68,11.46,11.46,0,0,0-.6,3.39v14.44h-3v-24.76Z"/><path class="cls-12" d="M671.19,1090.69a4.87,4.87,0,0,0-1.41-1.7,6.05,6.05,0,0,0-2-1,9.29,9.29,0,0,0-2.45-.31,9.57,9.57,0,0,0-2,.22,6.13,6.13,0,0,0-1.9.72A4,4,0,0,0,660,1090a3.62,3.62,0,0,0-.53,2,2.84,2.84,0,0,0,.51,1.71,4.46,4.46,0,0,0,1.27,1.17,7.63,7.63,0,0,0,1.68.79q.92.31,1.68.51l4,.91a11.56,11.56,0,0,1,2.57.7,7.85,7.85,0,0,1,2.25,1.32,6.25,6.25,0,0,1,1.61,2,6,6,0,0,1,.63,2.84,6.29,6.29,0,0,1-.91,3.43,7.52,7.52,0,0,1-2.33,2.3,9.84,9.84,0,0,1-3.2,1.27,16.25,16.25,0,0,1-3.5.39,11.36,11.36,0,0,1-7.08-2.07q-2.71-2.06-3.1-6.62h3a6,6,0,0,0,2.23,4.63,8.09,8.09,0,0,0,5.06,1.56,11.33,11.33,0,0,0,2.28-.24,7.37,7.37,0,0,0,2.19-.81,5.32,5.32,0,0,0,1.65-1.47,4,4,0,0,0,.2-4A4.07,4.07,0,0,0,671,1101a8.12,8.12,0,0,0-1.75-.84c-.66-.22-1.32-.41-2-.57l-3.89-.87a21,21,0,0,1-2.74-.89,8.67,8.67,0,0,1-2.18-1.24,5.31,5.31,0,0,1-1.46-1.83,6.74,6.74,0,0,1,.31-5.88,6.71,6.71,0,0,1,2.18-2.16,10.47,10.47,0,0,1,3-1.2,14.9,14.9,0,0,1,3.29-.38,12.1,12.1,0,0,1,3.48.48,7.84,7.84,0,0,1,2.83,1.49,7.26,7.26,0,0,1,2,2.49,8.89,8.89,0,0,1,.81,3.51h-3A5.73,5.73,0,0,0,671.19,1090.69Z"/><path class="cls-12" d="M683.1,1076.36v4.85h-3v-4.85Zm0,9.51v24.76h-3v-24.76Z"/><path class="cls-12" d="M707.91,1110.63v-4.7h-.09a7.19,7.19,0,0,1-1.42,2.21,9.06,9.06,0,0,1-2.14,1.7,10.53,10.53,0,0,1-2.56,1.08,9.93,9.93,0,0,1-2.72.39,11.14,11.14,0,0,1-4.92-1,9.93,9.93,0,0,1-3.48-2.84,12.33,12.33,0,0,1-2.06-4.17,19.1,19.1,0,0,1,0-10,12.29,12.29,0,0,1,2.06-4.18,10.21,10.21,0,0,1,3.48-2.86,10.87,10.87,0,0,1,4.92-1,11.19,11.19,0,0,1,2.72.33,9.12,9.12,0,0,1,2.47,1,8.55,8.55,0,0,1,2,1.7,7.23,7.23,0,0,1,1.37,2.35h.09v-14.21h3v34.27Zm-16.58-8.56a10.37,10.37,0,0,0,1.44,3.38,7.91,7.91,0,0,0,2.52,2.43,7,7,0,0,0,3.69.93,7.73,7.73,0,0,0,6.75-3.36,10,10,0,0,0,1.49-3.38,16.4,16.4,0,0,0,0-7.63,10,10,0,0,0-1.49-3.39,7.79,7.79,0,0,0-6.75-3.36,6.89,6.89,0,0,0-3.69.94,7.78,7.78,0,0,0-2.52,2.42,10.33,10.33,0,0,0-1.44,3.39,16,16,0,0,0,0,7.63Z"/><path class="cls-12" d="M718.69,1102.45a9.28,9.28,0,0,0,1.46,3.15,8.43,8.43,0,0,0,2.55,2.3,7.06,7.06,0,0,0,3.69.91,7.33,7.33,0,0,0,5.19-1.73,9.14,9.14,0,0,0,2.59-4.61h3a12,12,0,0,1-3.53,6.53q-2.56,2.31-7.27,2.31a11.62,11.62,0,0,1-5.06-1,9.27,9.27,0,0,1-3.48-2.84,12.21,12.21,0,0,1-2-4.17,18.72,18.72,0,0,1-.65-5,17.69,17.69,0,0,1,.65-4.8,12.73,12.73,0,0,1,2-4.2,9.88,9.88,0,0,1,3.48-3,10.59,10.59,0,0,1,5.06-1.13,9.8,9.8,0,0,1,8.52,4.34,13.22,13.22,0,0,1,1.9,4.47,19.87,19.87,0,0,1,.48,5.11H718.23A13.13,13.13,0,0,0,718.69,1102.45Zm15-9.24a8.87,8.87,0,0,0-1.56-2.81,7.65,7.65,0,0,0-2.44-2,7,7,0,0,0-3.27-.75,7.05,7.05,0,0,0-3.31.75,7.69,7.69,0,0,0-2.45,2,9.85,9.85,0,0,0-1.61,2.84,13.89,13.89,0,0,0-.79,3.28h16A10.82,10.82,0,0,0,733.66,1093.21Z"/><path class="cls-12" d="M744.34,1085.87v4.27h.1a7.28,7.28,0,0,1,3.07-3.62,9,9,0,0,1,4.85-1.37,12.1,12.1,0,0,1,4.34.67,6.91,6.91,0,0,1,2.81,1.89,7.07,7.07,0,0,1,1.49,3,16.89,16.89,0,0,1,.43,4v15.93h-3v-15.45a14.4,14.4,0,0,0-.29-3,6.24,6.24,0,0,0-1-2.38,4.9,4.9,0,0,0-1.94-1.58,7.06,7.06,0,0,0-3-.58,7.71,7.71,0,0,0-3.24.65,7,7,0,0,0-2.4,1.78,8.11,8.11,0,0,0-1.54,2.68,11.46,11.46,0,0,0-.6,3.39v14.44h-3v-24.76Z"/><path class="cls-13" d="M255.87,987.36l14.17,37.8,14.24-37.8h8.19v45H286.8V994.92h-.13l-14.05,37.43h-5.1l-14-37.43h-.12v37.43h-5.67v-45Z"/><path class="cls-13" d="M301.86,993.92v-6.56h5.35v6.56Zm5.35,5.85v32.58h-5.35V999.77Z"/><path class="cls-13" d="M321.2,987.36V1014l14.86-14.24h7.19l-12.92,11.85,13.86,20.73h-6.8l-11.15-17-5,4.66v12.35h-5.36v-45Z"/><path class="cls-13" d="M353.89,987.36V1014l14.87-14.24h7.18L363,1011.62l13.86,20.73h-6.81l-11.15-17-5,4.66v12.35h-5.35v-45Z"/><path class="cls-13" d="M404,1030.27a14.78,14.78,0,0,1-9.2,2.77,16.73,16.73,0,0,1-6.77-1.26,13.37,13.37,0,0,1-4.82-3.53,15,15,0,0,1-2.93-5.42,26,26,0,0,1-1.1-6.87,19.76,19.76,0,0,1,1.13-6.8,16.35,16.35,0,0,1,3.18-5.35,14.37,14.37,0,0,1,4.85-3.53,14.84,14.84,0,0,1,6.15-1.26,13.43,13.43,0,0,1,7.21,1.79,14.35,14.35,0,0,1,4.6,4.57,18.19,18.19,0,0,1,2.39,6,26.18,26.18,0,0,1,.54,6.24H384.83a12.65,12.65,0,0,0,.5,4.06,9.18,9.18,0,0,0,1.83,3.4,8.89,8.89,0,0,0,3.21,2.36,11.07,11.07,0,0,0,4.6.89,9.23,9.23,0,0,0,5.57-1.58,7.59,7.59,0,0,0,2.87-4.79h5.29A13,13,0,0,1,404,1030.27Zm-1.29-20.92a9.36,9.36,0,0,0-2-2.93,9.09,9.09,0,0,0-2.89-1.95,9.84,9.84,0,0,0-7.44,0,8.52,8.52,0,0,0-2.86,2,9.46,9.46,0,0,0-1.89,2.93,10.89,10.89,0,0,0-.82,3.56h18.71A11.16,11.16,0,0,0,402.69,1009.35Z"/><path class="cls-13" d="M420.42,987.36v45h-5.35v-45Z"/><path class="cls-12" d="M340.8,1335.36l11.37,30.05L364,1335.36h4.8v34.27h-3.26V1340h-.1l-11.71,29.61h-3.07L339.36,1340h-.1v29.61H336v-34.27Z"/><path class="cls-12" d="M390.41,1345.2a11,11,0,0,1,3.67,2.84,12.14,12.14,0,0,1,2.25,4.15,17,17,0,0,1,0,10.13,12.33,12.33,0,0,1-2.25,4.15,10.77,10.77,0,0,1-3.67,2.81,12.75,12.75,0,0,1-10,0,10.77,10.77,0,0,1-3.67-2.81,12.33,12.33,0,0,1-2.25-4.15,17,17,0,0,1,0-10.13,12.14,12.14,0,0,1,2.25-4.15,11,11,0,0,1,3.67-2.84,12.53,12.53,0,0,1,10,0Zm-8.81,2.4a8.34,8.34,0,0,0-2.71,2.4,11,11,0,0,0-1.64,3.39,13.86,13.86,0,0,0,0,7.73,11,11,0,0,0,1.64,3.38,8.34,8.34,0,0,0,2.71,2.4,8.35,8.35,0,0,0,7.58,0,8.34,8.34,0,0,0,2.71-2.4,11,11,0,0,0,1.64-3.38,13.86,13.86,0,0,0,0-7.73,11,11,0,0,0-1.64-3.39,8.34,8.34,0,0,0-2.71-2.4,8.35,8.35,0,0,0-7.58,0Z"/><path class="cls-12" d="M420.62,1369.63v-4.7h-.09a7.19,7.19,0,0,1-1.42,2.21,9.06,9.06,0,0,1-2.14,1.7,10.53,10.53,0,0,1-2.56,1.08,9.93,9.93,0,0,1-2.72.39,11.14,11.14,0,0,1-4.92-1,9.93,9.93,0,0,1-3.48-2.84,12.33,12.33,0,0,1-2.06-4.17,19.1,19.1,0,0,1,0-10,12.29,12.29,0,0,1,2.06-4.18,10.21,10.21,0,0,1,3.48-2.86,10.87,10.87,0,0,1,4.92-1,11.19,11.19,0,0,1,2.72.33,9.12,9.12,0,0,1,2.47,1,8.55,8.55,0,0,1,2,1.7,7.23,7.23,0,0,1,1.37,2.35h.09v-14.21h3v34.27ZM404,1361.07a10.37,10.37,0,0,0,1.44,3.38,7.91,7.91,0,0,0,2.52,2.43,7,7,0,0,0,3.69.93,7.73,7.73,0,0,0,6.75-3.36,10,10,0,0,0,1.49-3.38,16.4,16.4,0,0,0,0-7.63,10,10,0,0,0-1.49-3.39,7.79,7.79,0,0,0-6.75-3.36,6.89,6.89,0,0,0-3.69.94,7.78,7.78,0,0,0-2.52,2.42,10.33,10.33,0,0,0-1.44,3.39,16,16,0,0,0,0,7.63Z"/><path class="cls-12" d="M439,1344.87v2.54h-5v16.71a5.43,5.43,0,0,0,.4,2.32c.28.56,1,.88,2,.94a25.16,25.16,0,0,0,2.6-.14v2.54c-.45,0-.9,0-1.35,0s-.89.05-1.34.05c-2,0-3.43-.4-4.23-1.18s-1.18-2.23-1.15-4.34v-16.95h-4.32v-2.54h4.32v-7.44h3v7.44Z"/><path class="cls-12" d="M444,1348.71a7,7,0,0,1,2.09-2.59,8.71,8.71,0,0,1,3.09-1.49,15.14,15.14,0,0,1,3.94-.48,17.14,17.14,0,0,1,3.26.31,8,8,0,0,1,2.93,1.17,6.45,6.45,0,0,1,2.11,2.43,8.67,8.67,0,0,1,.82,4.06v13.15a1.59,1.59,0,0,0,1.77,1.82,2.25,2.25,0,0,0,1-.19v2.54q-.53.11-.93.15a9.91,9.91,0,0,1-1,0,4.54,4.54,0,0,1-1.85-.31,2.37,2.37,0,0,1-1.08-.88,3.31,3.31,0,0,1-.51-1.37,11.74,11.74,0,0,1-.12-1.75h-.09a20.5,20.5,0,0,1-1.66,2.13,7.88,7.88,0,0,1-1.87,1.56,8.4,8.4,0,0,1-2.35,1,13.82,13.82,0,0,1-6.39-.07,7.25,7.25,0,0,1-2.64-1.3,6.16,6.16,0,0,1-1.77-2.25,7.52,7.52,0,0,1-.65-3.24,6.41,6.41,0,0,1,1.15-4.06,7.32,7.32,0,0,1,3.05-2.23,17.55,17.55,0,0,1,4.27-1.08c1.59-.21,3.19-.41,4.83-.6a15.37,15.37,0,0,0,1.68-.24,3,3,0,0,0,1.2-.51,2.26,2.26,0,0,0,.74-1,4.15,4.15,0,0,0,.26-1.63,5.49,5.49,0,0,0-.5-2.52,4,4,0,0,0-1.39-1.56,5.59,5.59,0,0,0-2.07-.79,13.36,13.36,0,0,0-2.52-.22,7.64,7.64,0,0,0-4.7,1.37,5.34,5.34,0,0,0-1.92,4.39h-3A9.94,9.94,0,0,1,444,1348.71Zm15.12,7.39a1.73,1.73,0,0,1-1.11.77,10.26,10.26,0,0,1-1.44.33q-1.92.35-4,.6a21.32,21.32,0,0,0-3.72.8,7.18,7.18,0,0,0-2.76,1.51,3.6,3.6,0,0,0-1.08,2.81,4.5,4.5,0,0,0,.46,2,4.89,4.89,0,0,0,1.22,1.53,5.42,5.42,0,0,0,1.78,1,6.31,6.31,0,0,0,2.06.34,10.22,10.22,0,0,0,3.32-.53,8.25,8.25,0,0,0,2.76-1.53,7.58,7.58,0,0,0,1.87-2.45,7.46,7.46,0,0,0,.69-3.26v-3.94Z"/><path class="cls-12" d="M488.61,1372.56a9.69,9.69,0,0,1-1.89,3.75,8.27,8.27,0,0,1-3.39,2.35,14.15,14.15,0,0,1-5.11.81,15.32,15.32,0,0,1-3.65-.43,10.22,10.22,0,0,1-3.19-1.34,8,8,0,0,1-2.35-2.33A7,7,0,0,1,468,1372h3a5.45,5.45,0,0,0,.94,2.33,5.64,5.64,0,0,0,1.68,1.51,7.72,7.72,0,0,0,2.18.84,11.78,11.78,0,0,0,2.45.26q4.23,0,6.1-2.4t1.87-6.91v-3.36h-.1A8.86,8.86,0,0,1,483,1368a8.32,8.32,0,0,1-4.78,1.39,11.94,11.94,0,0,1-5.09-1,9.53,9.53,0,0,1-3.48-2.71,11.12,11.12,0,0,1-2-4.05,19.45,19.45,0,0,1-.62-5,15.65,15.65,0,0,1,.74-4.83,12.14,12.14,0,0,1,2.16-4,10.08,10.08,0,0,1,3.51-2.69,11.14,11.14,0,0,1,4.77-1,8.92,8.92,0,0,1,2.62.38,8.53,8.53,0,0,1,2.23,1.08,9.87,9.87,0,0,1,1.8,1.61,7.13,7.13,0,0,1,1.22,1.92h.1v-4.27h3v22.75A18.84,18.84,0,0,1,488.61,1372.56Zm-6.93-6.6a7.85,7.85,0,0,0,2.49-2.2,9.8,9.8,0,0,0,1.52-3.15,13.51,13.51,0,0,0,.5-3.65,15.6,15.6,0,0,0-.43-3.64,10.66,10.66,0,0,0-1.39-3.32,7.58,7.58,0,0,0-2.48-2.4,7,7,0,0,0-3.67-.91,7.25,7.25,0,0,0-3.69.89,7.8,7.8,0,0,0-2.55,2.33,9.64,9.64,0,0,0-1.46,3.29,15.3,15.3,0,0,0-.46,3.76,13.9,13.9,0,0,0,.48,3.65,9.54,9.54,0,0,0,1.49,3.15,7.72,7.72,0,0,0,2.54,2.2,7.51,7.51,0,0,0,3.65.84A6.93,6.93,0,0,0,481.68,1366Z"/><path class="cls-12" d="M497.21,1361.45a9.28,9.28,0,0,0,1.46,3.15,8.51,8.51,0,0,0,2.54,2.3,7.12,7.12,0,0,0,3.7.91,7.29,7.29,0,0,0,5.18-1.73,9.08,9.08,0,0,0,2.6-4.61h3a12.06,12.06,0,0,1-3.53,6.53q-2.56,2.31-7.27,2.31a11.62,11.62,0,0,1-5.06-1,9.27,9.27,0,0,1-3.48-2.84,12.41,12.41,0,0,1-2-4.17,19.13,19.13,0,0,1-.64-5,18.09,18.09,0,0,1,.64-4.8,13,13,0,0,1,2-4.2,9.88,9.88,0,0,1,3.48-3,10.59,10.59,0,0,1,5.06-1.13,9.8,9.8,0,0,1,8.52,4.34,13.22,13.22,0,0,1,1.9,4.47,19.87,19.87,0,0,1,.48,5.11H496.75A13.13,13.13,0,0,0,497.21,1361.45Zm15-9.24a9.28,9.28,0,0,0-1.56-2.81,7.69,7.69,0,0,0-2.45-2,6.93,6.93,0,0,0-3.26-.75,7.05,7.05,0,0,0-3.31.75,7.69,7.69,0,0,0-2.45,2,9.85,9.85,0,0,0-1.61,2.84,13.89,13.89,0,0,0-.79,3.28h16A10.82,10.82,0,0,0,512.18,1352.21Z"/><path class="cls-12" d="M529.73,1344.87v2.54h-5v16.71a5.43,5.43,0,0,0,.4,2.32c.28.56,1,.88,2,.94a25.16,25.16,0,0,0,2.6-.14v2.54c-.45,0-.9,0-1.35,0s-.89.05-1.34.05c-2,0-3.43-.4-4.23-1.18s-1.18-2.23-1.15-4.34v-16.95h-4.32v-2.54h4.32v-7.44h3v7.44Z"/><path class="cls-12" d="M553.22,1352.5a2.81,2.81,0,0,1,.84,2,2.65,2.65,0,0,1-.86,1.94,2.77,2.77,0,0,1-2,.84,2.7,2.7,0,0,1-2-.86,2.81,2.81,0,0,1-.84-2,2.64,2.64,0,0,1,.86-2,2.79,2.79,0,0,1,2-.84A2.67,2.67,0,0,1,553.22,1352.5Z"/><path class="cls-12" d="M579.48,1342.3a7.62,7.62,0,0,0,2.78-.79,5.25,5.25,0,0,0,2-1.9,9.49,9.49,0,0,0,1.13-3.57h2.44v33.59h-3v-25H575.9v-2.16C577.21,1342.48,578.4,1342.41,579.48,1342.3Z"/><path class="cls-12" d="M624,1344.87v2.54h-5v16.71a5.43,5.43,0,0,0,.4,2.32c.27.56,1,.88,2,.94a25.16,25.16,0,0,0,2.6-.14v2.54c-.45,0-.9,0-1.35,0s-.9.05-1.34.05c-2,0-3.43-.4-4.23-1.18s-1.18-2.23-1.15-4.34v-16.95h-4.32v-2.54h4.32v-7.44h3v7.44Z"/><path class="cls-12" d="M631.43,1335.36v4.85h-3v-4.85Zm0,9.51v24.76h-3v-24.76Z"/><path class="cls-12" d="M640,1344.87V1349h.14a9.62,9.62,0,0,1,3.14-3.6,8.84,8.84,0,0,1,5-1.29,8.45,8.45,0,0,1,4.44,1.2,5.87,5.87,0,0,1,2.67,3.65,7.53,7.53,0,0,1,3.26-3.65,9.36,9.36,0,0,1,4.61-1.2q8.21,0,8.21,8.69v16.79h-3V1353a7.33,7.33,0,0,0-1.29-4.68q-1.3-1.6-4.56-1.61a6.46,6.46,0,0,0-3.27.75,5.7,5.7,0,0,0-2.06,2,8.53,8.53,0,0,0-1.08,2.85,17.44,17.44,0,0,0-.31,3.34v14h-3v-16.79a10.72,10.72,0,0,0-.26-2.38,5.61,5.61,0,0,0-.87-2,4.08,4.08,0,0,0-1.6-1.32,5.69,5.69,0,0,0-2.45-.48,7.44,7.44,0,0,0-3.34.7,6.07,6.07,0,0,0-2.3,1.92,8.48,8.48,0,0,0-1.32,2.88,14.2,14.2,0,0,0-.43,3.62v13.82h-3v-24.76Z"/><path class="cls-12" d="M679.46,1361.45a9.28,9.28,0,0,0,1.46,3.15,8.43,8.43,0,0,0,2.55,2.3,7.06,7.06,0,0,0,3.69.91,7.33,7.33,0,0,0,5.19-1.73,9.14,9.14,0,0,0,2.59-4.61h3a12,12,0,0,1-3.53,6.53q-2.56,2.31-7.27,2.31a11.62,11.62,0,0,1-5.06-1,9.27,9.27,0,0,1-3.48-2.84,12.21,12.21,0,0,1-2-4.17,18.72,18.72,0,0,1-.65-5,17.69,17.69,0,0,1,.65-4.8,12.73,12.73,0,0,1,2-4.2,9.88,9.88,0,0,1,3.48-3,10.59,10.59,0,0,1,5.06-1.13,9.8,9.8,0,0,1,8.52,4.34,13.22,13.22,0,0,1,1.9,4.47,19.87,19.87,0,0,1,.48,5.11H679A13.13,13.13,0,0,0,679.46,1361.45Zm15-9.24a8.87,8.87,0,0,0-1.56-2.81,7.65,7.65,0,0,0-2.44-2,7,7,0,0,0-3.27-.75,7.05,7.05,0,0,0-3.31.75,7.69,7.69,0,0,0-2.45,2,9.85,9.85,0,0,0-1.61,2.84,13.89,13.89,0,0,0-.79,3.28h16A10.82,10.82,0,0,0,694.43,1352.21Z"/><path class="cls-12" d="M729.74,1349.69a5,5,0,0,0-1.42-1.7,5.87,5.87,0,0,0-2-1,9.24,9.24,0,0,0-2.45-.31,9.57,9.57,0,0,0-2,.22,6.07,6.07,0,0,0-1.89.72,3.91,3.91,0,0,0-1.39,1.32,3.54,3.54,0,0,0-.53,2,2.9,2.9,0,0,0,.5,1.71,4.6,4.6,0,0,0,1.27,1.17,7.85,7.85,0,0,0,1.68.79q.92.31,1.68.51l4,.91a11.33,11.33,0,0,1,2.56.7,8,8,0,0,1,2.26,1.32,6.53,6.53,0,0,1,1.61,2,6.87,6.87,0,0,1-.29,6.27,7.41,7.41,0,0,1-2.33,2.3,9.78,9.78,0,0,1-3.19,1.27,16.32,16.32,0,0,1-3.5.39,11.32,11.32,0,0,1-7.08-2.07q-2.72-2.06-3.1-6.62h3a6,6,0,0,0,2.24,4.63,8.07,8.07,0,0,0,5.06,1.56,11.33,11.33,0,0,0,2.28-.24,7.42,7.42,0,0,0,2.18-.81,5.25,5.25,0,0,0,1.66-1.47,3.61,3.61,0,0,0,.65-2.18,3.43,3.43,0,0,0-.46-1.85,3.93,3.93,0,0,0-1.22-1.25,8.35,8.35,0,0,0-1.75-.84c-.66-.22-1.32-.41-2-.57l-3.88-.87a20,20,0,0,1-2.74-.89,8.67,8.67,0,0,1-2.18-1.24,5.22,5.22,0,0,1-1.47-1.83,6.06,6.06,0,0,1-.53-2.66,6,6,0,0,1,.84-3.22,6.65,6.65,0,0,1,2.19-2.16,10.24,10.24,0,0,1,3-1.2,14.84,14.84,0,0,1,3.29-.38,12.2,12.2,0,0,1,3.48.48,7.92,7.92,0,0,1,2.83,1.49,7.35,7.35,0,0,1,1.94,2.49,9.07,9.07,0,0,1,.82,3.51h-3A5.72,5.72,0,0,0,729.74,1349.69Z"/><path class="cls-12" d="M741.64,1335.36v4.85h-3v-4.85Zm0,9.51v24.76h-3v-24.76Z"/><path class="cls-12" d="M766.46,1369.63v-4.7h-.1a7.15,7.15,0,0,1-1.41,2.21,9.27,9.27,0,0,1-2.14,1.7,10.6,10.6,0,0,1-2.57,1.08,9.86,9.86,0,0,1-2.71.39,11.08,11.08,0,0,1-4.92-1,9.93,9.93,0,0,1-3.48-2.84,12,12,0,0,1-2.06-4.17,18.83,18.83,0,0,1,0-10,11.94,11.94,0,0,1,2.06-4.18,10.21,10.21,0,0,1,3.48-2.86,10.81,10.81,0,0,1,4.92-1,11.11,11.11,0,0,1,2.71.33,9,9,0,0,1,2.47,1,8.55,8.55,0,0,1,2,1.7,7.23,7.23,0,0,1,1.37,2.35h.1v-14.21h3v34.27Zm-16.59-8.56a10.82,10.82,0,0,0,1.44,3.38,8.12,8.12,0,0,0,2.52,2.43,7,7,0,0,0,3.7.93,7.73,7.73,0,0,0,6.74-3.36,9.85,9.85,0,0,0,1.49-3.38,16,16,0,0,0,0-7.63,9.82,9.82,0,0,0-1.49-3.39,8,8,0,0,0-2.69-2.42,8,8,0,0,0-4.05-.94,7,7,0,0,0-3.7.94,8,8,0,0,0-2.52,2.42,10.78,10.78,0,0,0-1.44,3.39,16.4,16.4,0,0,0,0,7.63Z"/><path class="cls-12" d="M777.23,1361.45a9.5,9.5,0,0,0,1.47,3.15,8.51,8.51,0,0,0,2.54,2.3,7.1,7.1,0,0,0,3.7.91,7.31,7.31,0,0,0,5.18-1.73,9.07,9.07,0,0,0,2.59-4.61h3a12.06,12.06,0,0,1-3.53,6.53c-1.71,1.54-4.14,2.31-7.27,2.31a11.67,11.67,0,0,1-5.07-1,9.42,9.42,0,0,1-3.48-2.84,12.4,12.4,0,0,1-2-4.17,19.13,19.13,0,0,1-.65-5,18.1,18.1,0,0,1,.65-4.8,12.93,12.93,0,0,1,2-4.2,10.06,10.06,0,0,1,3.48-3,10.63,10.63,0,0,1,5.07-1.13,9.8,9.8,0,0,1,8.52,4.34,13,13,0,0,1,1.89,4.47,19,19,0,0,1,.48,5.11H776.78A13.56,13.56,0,0,0,777.23,1361.45Zm15-9.24a9.28,9.28,0,0,0-1.56-2.81,7.69,7.69,0,0,0-2.45-2,7,7,0,0,0-3.26-.75,7.09,7.09,0,0,0-3.32.75,7.77,7.77,0,0,0-2.44,2,9.62,9.62,0,0,0-1.61,2.84,13.42,13.42,0,0,0-.79,3.28h16A10.82,10.82,0,0,0,792.21,1352.21Z"/><path class="cls-12" d="M802.89,1344.87v4.27h.1a7.18,7.18,0,0,1,3.07-3.62,8.94,8.94,0,0,1,4.85-1.37,12.18,12.18,0,0,1,4.34.67,7,7,0,0,1,2.81,1.89,7.05,7.05,0,0,1,1.48,3,16.87,16.87,0,0,1,.44,4v15.93h-3v-15.45a14.42,14.42,0,0,0-.28-3,6.4,6.4,0,0,0-1-2.38,4.86,4.86,0,0,0-1.95-1.58,7,7,0,0,0-3-.58,7.79,7.79,0,0,0-3.25.65,6.84,6.84,0,0,0-2.39,1.78,8.11,8.11,0,0,0-1.54,2.68,10.85,10.85,0,0,0-.6,3.39v14.44h-3v-24.76Z"/><path class="cls-13" d="M249.54,1246.36v19.34h23.68v-19.34h6v45h-6v-20.61H249.54v20.61h-6v-45Z"/><path class="cls-13" d="M317,1291.22a7.66,7.66,0,0,1-3.84.82,4.6,4.6,0,0,1-3.31-1.17,5,5,0,0,1-1.23-3.81,12.66,12.66,0,0,1-5.14,3.81,17.61,17.61,0,0,1-10.52.66,9.74,9.74,0,0,1-3.43-1.57,7.55,7.55,0,0,1-2.3-2.8,9.43,9.43,0,0,1-.85-4.19,9.71,9.71,0,0,1,.94-4.54,8.26,8.26,0,0,1,2.49-2.87,11.62,11.62,0,0,1,3.53-1.67c1.32-.37,2.68-.69,4.07-.94s2.86-.51,4.18-.66a24.06,24.06,0,0,0,3.5-.63,5.88,5.88,0,0,0,2.4-1.2,2.94,2.94,0,0,0,.88-2.3,5.34,5.34,0,0,0-.66-2.83,4.55,4.55,0,0,0-1.71-1.64,6.94,6.94,0,0,0-2.33-.76,18.46,18.46,0,0,0-2.55-.19,11.22,11.22,0,0,0-5.67,1.3c-1.51.86-2.33,2.48-2.46,4.88h-5.35a11.49,11.49,0,0,1,1.26-5.11,9.62,9.62,0,0,1,3-3.37,12.54,12.54,0,0,1,4.32-1.85,22.7,22.7,0,0,1,5.2-.57,30.51,30.51,0,0,1,4.38.31,11.44,11.44,0,0,1,3.93,1.29,7.54,7.54,0,0,1,2.84,2.74,8.75,8.75,0,0,1,1.07,4.58v16.73a12.19,12.19,0,0,0,.22,2.76c.15.59.64.88,1.48.88a6.42,6.42,0,0,0,1.64-.25Zm-8.7-16.7a6.54,6.54,0,0,1-2.64,1.1c-1.09.23-2.24.42-3.44.57s-2.4.31-3.62.5a13.22,13.22,0,0,0-3.27.91,5.9,5.9,0,0,0-2.37,1.78,5,5,0,0,0-.91,3.17,4.25,4.25,0,0,0,.54,2.22,4.45,4.45,0,0,0,1.38,1.48,5.83,5.83,0,0,0,2,.81,10.82,10.82,0,0,0,2.39.25,12.8,12.8,0,0,0,4.54-.72,9.38,9.38,0,0,0,3.08-1.82,7.14,7.14,0,0,0,1.77-2.38,6.09,6.09,0,0,0,.56-2.41Z"/><path class="cls-13" d="M327,1258.77v5.17h.13q3.35-5.93,10.58-5.92a14.1,14.1,0,0,1,5.36.88,8.78,8.78,0,0,1,3.46,2.46,9,9,0,0,1,1.86,3.75,19.91,19.91,0,0,1,.54,4.82v21.42h-5.36v-22.06a6.47,6.47,0,0,0-1.76-4.78,6.54,6.54,0,0,0-4.85-1.77,10.94,10.94,0,0,0-4.25.76,8,8,0,0,0-3,2.14,9.27,9.27,0,0,0-1.79,3.25,13.1,13.1,0,0,0-.6,4.06v18.4H322v-32.58Z"/><path class="cls-13" d="M362.05,1258.77v5.17h.13q3.33-5.93,10.58-5.92a14.14,14.14,0,0,1,5.36.88,8.86,8.86,0,0,1,3.46,2.46,9.19,9.19,0,0,1,1.86,3.75,19.91,19.91,0,0,1,.54,4.82v21.42h-5.36v-22.06a6.47,6.47,0,0,0-1.76-4.78,6.56,6.56,0,0,0-4.85-1.77,11,11,0,0,0-4.26.76,8,8,0,0,0-3,2.14,9.11,9.11,0,0,0-1.79,3.25,13.1,13.1,0,0,0-.6,4.06v18.4H357v-32.58Z"/><path class="cls-13" d="M420.89,1291.22a7.61,7.61,0,0,1-3.84.82,4.62,4.62,0,0,1-3.31-1.17,5,5,0,0,1-1.22-3.81,12.79,12.79,0,0,1-5.14,3.81,17.61,17.61,0,0,1-10.52.66,9.66,9.66,0,0,1-3.43-1.57,7.45,7.45,0,0,1-2.3-2.8,9.43,9.43,0,0,1-.85-4.19,9.59,9.59,0,0,1,.94-4.54,8.26,8.26,0,0,1,2.49-2.87,11.62,11.62,0,0,1,3.53-1.67c1.32-.37,2.68-.69,4.06-.94s2.87-.51,4.19-.66a24.31,24.31,0,0,0,3.5-.63,5.83,5.83,0,0,0,2.39-1.2,2.91,2.91,0,0,0,.88-2.3,5.34,5.34,0,0,0-.66-2.83,4.52,4.52,0,0,0-1.7-1.64,6.94,6.94,0,0,0-2.33-.76,18.46,18.46,0,0,0-2.55-.19,11.22,11.22,0,0,0-5.67,1.3c-1.51.86-2.33,2.48-2.46,4.88h-5.35a11.49,11.49,0,0,1,1.26-5.11,9.53,9.53,0,0,1,3-3.37,12.54,12.54,0,0,1,4.32-1.85,22.62,22.62,0,0,1,5.19-.57,30.51,30.51,0,0,1,4.38.31,11.5,11.5,0,0,1,3.94,1.29,7.44,7.44,0,0,1,2.83,2.74,8.65,8.65,0,0,1,1.08,4.58v16.73a12.19,12.19,0,0,0,.22,2.76c.14.59.64.88,1.48.88a6.35,6.35,0,0,0,1.63-.25Zm-8.69-16.7a6.52,6.52,0,0,1-2.65,1.1c-1.09.23-2.23.42-3.43.57s-2.4.31-3.62.5a13.42,13.42,0,0,0-3.28.91,5.94,5.94,0,0,0-2.36,1.78,5,5,0,0,0-.91,3.17,4.24,4.24,0,0,0,.53,2.22,4.48,4.48,0,0,0,1.39,1.48,5.85,5.85,0,0,0,2,.81,11,11,0,0,0,2.4.25,12.74,12.74,0,0,0,4.53-.72,9.43,9.43,0,0,0,3.09-1.82,7,7,0,0,0,1.76-2.38,5.94,5.94,0,0,0,.57-2.41Z"/><path class="cls-15" d="M249.66,1635a3.35,3.35,0,0,1-2.52-1.15,3.46,3.46,0,0,1-.32-4.12c6.72-10.68,10.89-19.23,10.9-22.3s-4.09-11.59-10.71-22.23a3.43,3.43,0,0,1,.34-4.12,3.31,3.31,0,0,1,3.89-.83l53.32,24.51a3.19,3.19,0,0,1,0,5.81L251,1634.7A3.36,3.36,0,0,1,249.66,1635Zm3.19-49c4.69,7.81,9.45,16.88,9.44,21.43s-4.87,13.68-9.63,21.52l47.26-21.31Z"/><path class="cls-12" d="M332.35,1628.63l13.78-32.83h3.64l13.44,32.83h-3.5l-4-10.17H339.89l-4.08,10.17Zm8.64-13h13.58l-6.76-17Zm1.68-26.79a5.26,5.26,0,0,0,.38,2,5.09,5.09,0,0,0,1.08,1.64,5.31,5.31,0,0,0,1.64,1.1,5,5,0,0,0,4,0,5.26,5.26,0,0,0,1.63-1.1,5.52,5.52,0,0,0,1.11-1.64,5.15,5.15,0,0,0,0-4,5.47,5.47,0,0,0-1.11-1.63,5.29,5.29,0,0,0-1.63-1.11,5.15,5.15,0,0,0-4,0,5.34,5.34,0,0,0-1.64,1.11,5,5,0,0,0-1.08,1.63A5.3,5.3,0,0,0,342.67,1588.89Zm1.82,0a3.21,3.21,0,1,1,.94,2.33A3.19,3.19,0,0,1,344.49,1588.89Z"/><path class="cls-12" d="M368.78,1594.36v14.21h.1a7.06,7.06,0,0,1,1.37-2.35,8.55,8.55,0,0,1,2-1.7,8.86,8.86,0,0,1,2.49-1,11.25,11.25,0,0,1,2.69-.33,10.81,10.81,0,0,1,4.92,1,10.21,10.21,0,0,1,3.48,2.86,12.11,12.11,0,0,1,2.06,4.18,19.1,19.1,0,0,1,0,10,12.15,12.15,0,0,1-2.06,4.17,9.93,9.93,0,0,1-3.48,2.84,11.08,11.08,0,0,1-4.92,1,10.54,10.54,0,0,1-5.4-1.39,8,8,0,0,1-3.43-4h-.1v4.7h-2.78v-34.27Zm16.34,18.08a10.33,10.33,0,0,0-1.44-3.39,7.84,7.84,0,0,0-2.51-2.42,7,7,0,0,0-3.7-.94,7.79,7.79,0,0,0-6.75,3.36,10,10,0,0,0-1.48,3.39,16,16,0,0,0,0,7.63,10,10,0,0,0,1.48,3.38,7.73,7.73,0,0,0,6.75,3.36,7,7,0,0,0,3.7-.93,8,8,0,0,0,2.51-2.43,10.37,10.37,0,0,0,1.44-3.38,16,16,0,0,0,0-7.63Z"/><path class="cls-12" d="M396.29,1603.87v4.27h.09a7.28,7.28,0,0,1,3.07-3.62,9,9,0,0,1,4.85-1.37,12.1,12.1,0,0,1,4.34.67,6.91,6.91,0,0,1,2.81,1.89,7.07,7.07,0,0,1,1.49,3,16.89,16.89,0,0,1,.43,4v15.93h-3v-15.45a14.4,14.4,0,0,0-.29-3,6.24,6.24,0,0,0-1-2.38,4.9,4.9,0,0,0-1.94-1.58,7.06,7.06,0,0,0-3.05-.58,7.71,7.71,0,0,0-3.24.65,7,7,0,0,0-2.4,1.78,8.11,8.11,0,0,0-1.54,2.68,11.15,11.15,0,0,0-.59,3.39v14.44h-3v-24.76Z"/><path class="cls-12" d="M421.32,1620.45a9.28,9.28,0,0,0,1.46,3.15,8.51,8.51,0,0,0,2.54,2.3,7.12,7.12,0,0,0,3.7.91,7.29,7.29,0,0,0,5.18-1.73,9.08,9.08,0,0,0,2.6-4.61h3a12.06,12.06,0,0,1-3.53,6.53q-2.57,2.31-7.27,2.31a11.62,11.62,0,0,1-5.06-1,9.27,9.27,0,0,1-3.48-2.84,12.41,12.41,0,0,1-2-4.17,19.13,19.13,0,0,1-.64-5,18.09,18.09,0,0,1,.64-4.8,13,13,0,0,1,2-4.2,9.88,9.88,0,0,1,3.48-3,10.59,10.59,0,0,1,5.06-1.13,9.8,9.8,0,0,1,8.52,4.34,13.22,13.22,0,0,1,1.9,4.47,19.87,19.87,0,0,1,.48,5.11H420.86A13.13,13.13,0,0,0,421.32,1620.45Zm15-9.24a9.28,9.28,0,0,0-1.56-2.81,7.69,7.69,0,0,0-2.45-2,6.93,6.93,0,0,0-3.26-.75,7.05,7.05,0,0,0-3.31.75,7.69,7.69,0,0,0-2.45,2,9.85,9.85,0,0,0-1.61,2.84,13.89,13.89,0,0,0-.79,3.28h16A10.82,10.82,0,0,0,436.29,1611.21Z"/><path class="cls-12" d="M453.84,1603.87v2.54h-5v16.71a5.43,5.43,0,0,0,.4,2.32c.28.56,1,.88,2,.94a25.16,25.16,0,0,0,2.6-.14v2.54c-.45,0-.9,0-1.35,0s-.89.05-1.34.05c-2,0-3.43-.4-4.23-1.18s-1.18-2.23-1.15-4.34v-16.95h-4.32v-2.54h4.32v-7.44h3v7.44Z"/><path class="cls-12" d="M477.33,1611.5a2.81,2.81,0,0,1,.84,2,2.65,2.65,0,0,1-.86,1.94,2.75,2.75,0,0,1-2,.84,2.7,2.7,0,0,1-2-.86,2.81,2.81,0,0,1-.84-2,2.67,2.67,0,0,1,.86-2,2.79,2.79,0,0,1,2-.84A2.67,2.67,0,0,1,477.33,1611.5Z"/><path class="cls-12" d="M497.08,1628.63a11.82,11.82,0,0,1,.87-4.41,12.75,12.75,0,0,1,2.16-3.46,19.66,19.66,0,0,1,3-2.8c1.12-.85,2.27-1.67,3.46-2.45s2.36-1.59,3.53-2.4a24.08,24.08,0,0,0,3.14-2.62,10.48,10.48,0,0,0,2.09-2.86,8,8,0,0,0,.69-3.47,6.76,6.76,0,0,0-.6-2.91,6.36,6.36,0,0,0-1.63-2.16,7.05,7.05,0,0,0-2.4-1.34,8.94,8.94,0,0,0-2.9-.46,7.54,7.54,0,0,0-3.53.77,6.61,6.61,0,0,0-2.38,2.06,8.86,8.86,0,0,0-1.32,3,13.67,13.67,0,0,0-.36,3.55h-3a15.75,15.75,0,0,1,.6-4.77,10.23,10.23,0,0,1,2-3.77,9.18,9.18,0,0,1,3.39-2.48,11.91,11.91,0,0,1,4.77-.88,13.61,13.61,0,0,1,4.11.6,9.84,9.84,0,0,1,3.31,1.77,8.11,8.11,0,0,1,2.21,3,11,11,0,0,1,.09,8,12,12,0,0,1-1.87,3.17,18.87,18.87,0,0,1-2.69,2.67,35.29,35.29,0,0,1-3.19,2.28c-.8.54-1.74,1.14-2.83,1.8a29,29,0,0,0-3.15,2.18,17.37,17.37,0,0,0-2.66,2.62,6.55,6.55,0,0,0-1.44,3.09h18.67v2.78Z"/><path class="cls-12" d="M548.11,1603.87v2.54h-5v16.71a5.43,5.43,0,0,0,.4,2.32c.28.56,1,.88,2,.94a25.16,25.16,0,0,0,2.6-.14v2.54c-.45,0-.9,0-1.35,0s-.89.05-1.34.05c-2,0-3.43-.4-4.23-1.18s-1.18-2.23-1.15-4.34v-16.95h-4.32v-2.54H540v-7.44h3v7.44Z"/><path class="cls-12" d="M555.55,1594.36v4.85h-3v-4.85Zm0,9.51v24.76h-3v-24.76Z"/><path class="cls-12" d="M564.14,1603.87V1608h.14a9.55,9.55,0,0,1,3.15-3.6,8.79,8.79,0,0,1,5-1.29,8.4,8.4,0,0,1,4.44,1.2,5.87,5.87,0,0,1,2.67,3.65,7.53,7.53,0,0,1,3.26-3.65,9.36,9.36,0,0,1,4.61-1.2q8.21,0,8.21,8.69v16.79h-3V1612a7.33,7.33,0,0,0-1.29-4.68q-1.31-1.6-4.56-1.61a6.46,6.46,0,0,0-3.27.75,5.7,5.7,0,0,0-2.06,2,8.53,8.53,0,0,0-1.08,2.85,17.44,17.44,0,0,0-.31,3.34v14h-3v-16.79a10.16,10.16,0,0,0-.26-2.38,5.59,5.59,0,0,0-.86-2,4.19,4.19,0,0,0-1.61-1.32,5.66,5.66,0,0,0-2.45-.48,7.44,7.44,0,0,0-3.34.7,6.07,6.07,0,0,0-2.3,1.92,8.48,8.48,0,0,0-1.32,2.88,14.2,14.2,0,0,0-.43,3.62v13.82h-3v-24.76Z"/><path class="cls-12" d="M603.57,1620.45a9.28,9.28,0,0,0,1.46,3.15,8.55,8.55,0,0,0,2.55,2.3,7.06,7.06,0,0,0,3.69.91,7.33,7.33,0,0,0,5.19-1.73,9.07,9.07,0,0,0,2.59-4.61h3a12,12,0,0,1-3.53,6.53q-2.56,2.31-7.27,2.31a11.62,11.62,0,0,1-5.06-1,9.34,9.34,0,0,1-3.48-2.84,12.21,12.21,0,0,1-2-4.17,18.72,18.72,0,0,1-.65-5,17.69,17.69,0,0,1,.65-4.8,12.73,12.73,0,0,1,2-4.2,10,10,0,0,1,3.48-3,10.59,10.59,0,0,1,5.06-1.13,9.8,9.8,0,0,1,8.52,4.34,13.22,13.22,0,0,1,1.9,4.47,19.87,19.87,0,0,1,.48,5.11H603.11A13.13,13.13,0,0,0,603.57,1620.45Zm15-9.24a9,9,0,0,0-1.55-2.81,7.8,7.8,0,0,0-2.45-2,7,7,0,0,0-3.27-.75,7.08,7.08,0,0,0-3.31.75,7.69,7.69,0,0,0-2.45,2,9.6,9.6,0,0,0-1.6,2.84,13.44,13.44,0,0,0-.8,3.28h16A11.14,11.14,0,0,0,618.54,1611.21Z"/><path class="cls-12" d="M629,1603.87v5.81h.1a9.5,9.5,0,0,1,3.58-4.66,9.37,9.37,0,0,1,5.78-1.49v3a9.2,9.2,0,0,0-3.74.56,8.26,8.26,0,0,0-4.8,4.7,9.54,9.54,0,0,0-.68,3.63v13.19h-3v-24.76Z"/><path class="cls-12" d="M669,1608.69a4.9,4.9,0,0,0-1.42-1.7,5.87,5.87,0,0,0-2-1,9.24,9.24,0,0,0-2.45-.31,9.57,9.57,0,0,0-2,.22,6.07,6.07,0,0,0-1.89.72,3.91,3.91,0,0,0-1.39,1.32,3.54,3.54,0,0,0-.53,2,2.9,2.9,0,0,0,.5,1.71,4.6,4.6,0,0,0,1.27,1.17,8.08,8.08,0,0,0,1.68.79q.92.31,1.68.51l4,.91a11.33,11.33,0,0,1,2.56.7,8,8,0,0,1,2.26,1.32,6.38,6.38,0,0,1,1.61,2,6.87,6.87,0,0,1-.29,6.27,7.41,7.41,0,0,1-2.33,2.3,9.78,9.78,0,0,1-3.19,1.27,16.25,16.25,0,0,1-3.5.39,11.32,11.32,0,0,1-7.08-2.07q-2.71-2.06-3.1-6.62h3a6,6,0,0,0,2.24,4.63,8.07,8.07,0,0,0,5.06,1.56,11.33,11.33,0,0,0,2.28-.24,7.42,7.42,0,0,0,2.18-.81,5.25,5.25,0,0,0,1.66-1.47,3.61,3.61,0,0,0,.65-2.18,3.43,3.43,0,0,0-.46-1.85,3.93,3.93,0,0,0-1.22-1.25,8.35,8.35,0,0,0-1.75-.84c-.66-.22-1.32-.41-2-.57l-3.88-.87a20,20,0,0,1-2.74-.89,8.67,8.67,0,0,1-2.18-1.24,5.22,5.22,0,0,1-1.47-1.83,6.06,6.06,0,0,1-.53-2.66,6,6,0,0,1,.84-3.22,6.65,6.65,0,0,1,2.19-2.16,10.24,10.24,0,0,1,3-1.2,14.84,14.84,0,0,1,3.29-.38,12.2,12.2,0,0,1,3.48.48,7.92,7.92,0,0,1,2.83,1.49,7.35,7.35,0,0,1,1.94,2.49,9.07,9.07,0,0,1,.82,3.51h-3A5.72,5.72,0,0,0,669,1608.69Z"/><path class="cls-12" d="M680.87,1594.36v4.85h-3v-4.85Zm0,9.51v24.76h-3v-24.76Z"/><path class="cls-12" d="M705.69,1628.63v-4.7h-.1a7.15,7.15,0,0,1-1.41,2.21,9.27,9.27,0,0,1-2.14,1.7,10.6,10.6,0,0,1-2.57,1.08,9.81,9.81,0,0,1-2.71.39,11.08,11.08,0,0,1-4.92-1,9.93,9.93,0,0,1-3.48-2.84,12,12,0,0,1-2.06-4.17,18.83,18.83,0,0,1,0-10,11.94,11.94,0,0,1,2.06-4.18,10.21,10.21,0,0,1,3.48-2.86,10.81,10.81,0,0,1,4.92-1,11.11,11.11,0,0,1,2.71.33,9,9,0,0,1,2.47,1,8.55,8.55,0,0,1,2,1.7,7.06,7.06,0,0,1,1.37,2.35h.1v-14.21h3v34.27Zm-16.59-8.56a10.82,10.82,0,0,0,1.44,3.38,8.12,8.12,0,0,0,2.52,2.43,7,7,0,0,0,3.7.93,8.21,8.21,0,0,0,4.06-.93,8.05,8.05,0,0,0,2.68-2.43,9.85,9.85,0,0,0,1.49-3.38,16,16,0,0,0,0-7.63,9.82,9.82,0,0,0-1.49-3.39,7.92,7.92,0,0,0-2.68-2.42,8.1,8.1,0,0,0-4.06-.94,7,7,0,0,0-3.7.94,8,8,0,0,0-2.52,2.42,10.78,10.78,0,0,0-1.44,3.39,16.4,16.4,0,0,0,0,7.63Z"/><path class="cls-12" d="M716.46,1620.45a9.5,9.5,0,0,0,1.47,3.15,8.51,8.51,0,0,0,2.54,2.3,7.12,7.12,0,0,0,3.7.91,7.31,7.31,0,0,0,5.18-1.73,9.07,9.07,0,0,0,2.59-4.61h3a12.06,12.06,0,0,1-3.53,6.53c-1.71,1.54-4.14,2.31-7.27,2.31a11.67,11.67,0,0,1-5.07-1,9.42,9.42,0,0,1-3.48-2.84,12.4,12.4,0,0,1-2-4.17,19.13,19.13,0,0,1-.65-5,18.1,18.1,0,0,1,.65-4.8,12.93,12.93,0,0,1,2-4.2,10.06,10.06,0,0,1,3.48-3,10.63,10.63,0,0,1,5.07-1.13,9.8,9.8,0,0,1,8.52,4.34,13,13,0,0,1,1.89,4.47,19,19,0,0,1,.48,5.11H716A13.56,13.56,0,0,0,716.46,1620.45Zm15-9.24a9.28,9.28,0,0,0-1.56-2.81,7.69,7.69,0,0,0-2.45-2,7,7,0,0,0-3.26-.75,7.05,7.05,0,0,0-3.31.75,7.69,7.69,0,0,0-2.45,2,9.85,9.85,0,0,0-1.61,2.84,13.42,13.42,0,0,0-.79,3.28h16A10.82,10.82,0,0,0,731.44,1611.21Z"/><path class="cls-12" d="M742.12,1603.87v4.27h.1a7.23,7.23,0,0,1,3.07-3.62,9,9,0,0,1,4.85-1.37,12.18,12.18,0,0,1,4.34.67,7,7,0,0,1,2.81,1.89,7.18,7.18,0,0,1,1.49,3,17.43,17.43,0,0,1,.43,4v15.93h-3v-15.45a14.42,14.42,0,0,0-.28-3,6.4,6.4,0,0,0-1-2.38,4.86,4.86,0,0,0-1.95-1.58,7,7,0,0,0-3-.58,7.71,7.71,0,0,0-3.24.65,6.79,6.79,0,0,0-2.4,1.78,8.11,8.11,0,0,0-1.54,2.68,10.85,10.85,0,0,0-.6,3.39v14.44h-3v-24.76Z"/><path class="cls-13" d="M273.1,1505.36v5H249.54v14.3H270.2v5H249.54v20.61h-6v-45Z"/><path class="cls-13" d="M307.68,1550.22a7.61,7.61,0,0,1-3.84.82,4.62,4.62,0,0,1-3.31-1.17,5,5,0,0,1-1.23-3.81,12.7,12.7,0,0,1-5.13,3.81,17.61,17.61,0,0,1-10.52.66,9.66,9.66,0,0,1-3.43-1.57,7.45,7.45,0,0,1-2.3-2.8,9.43,9.43,0,0,1-.85-4.19,9.59,9.59,0,0,1,.94-4.54,8.26,8.26,0,0,1,2.49-2.87,11.51,11.51,0,0,1,3.53-1.67c1.32-.37,2.68-.69,4.06-.94s2.87-.51,4.19-.66a24.31,24.31,0,0,0,3.5-.63,5.83,5.83,0,0,0,2.39-1.2,2.91,2.91,0,0,0,.88-2.3,5.34,5.34,0,0,0-.66-2.83,4.52,4.52,0,0,0-1.7-1.64,6.94,6.94,0,0,0-2.33-.76,18.46,18.46,0,0,0-2.55-.19,11.22,11.22,0,0,0-5.67,1.3c-1.51.86-2.33,2.48-2.46,4.88h-5.35a11.49,11.49,0,0,1,1.26-5.11,9.53,9.53,0,0,1,3-3.37,12.54,12.54,0,0,1,4.32-1.85,22.55,22.55,0,0,1,5.19-.57,30.51,30.51,0,0,1,4.38.31,11.5,11.5,0,0,1,3.94,1.29,7.51,7.51,0,0,1,2.83,2.74,8.65,8.65,0,0,1,1.07,4.58v16.73a12.05,12.05,0,0,0,.23,2.76c.14.59.64.88,1.48.88a6.35,6.35,0,0,0,1.63-.25Zm-8.69-16.7a6.52,6.52,0,0,1-2.65,1.1c-1.09.23-2.23.42-3.43.57s-2.4.31-3.62.5a13.42,13.42,0,0,0-3.28.91,5.87,5.87,0,0,0-2.36,1.78,5,5,0,0,0-.91,3.17,4.24,4.24,0,0,0,.53,2.22,4.48,4.48,0,0,0,1.39,1.48,5.77,5.77,0,0,0,2,.81,11,11,0,0,0,2.4.25,12.74,12.74,0,0,0,4.53-.72,9.43,9.43,0,0,0,3.09-1.82,7.11,7.11,0,0,0,1.76-2.38A5.94,5.94,0,0,0,299,1539Z"/><path class="cls-13" d="M326.58,1517.77v4.73h-6.49v20.22a6,6,0,0,0,.16,1.51,1.62,1.62,0,0,0,.6.89,2.69,2.69,0,0,0,1.23.41,18.73,18.73,0,0,0,2.05.09h2.45v4.73h-4.09a19.09,19.09,0,0,1-3.56-.29,5.19,5.19,0,0,1-2.4-1,4.39,4.39,0,0,1-1.35-2.14,12.48,12.48,0,0,1-.44-3.65V1522.5H309.2v-4.73h5.54V1508h5.35v9.76Z"/><path class="cls-13" d="M332.82,1511.92v-6.56h5.35v6.56Zm5.35,5.85v32.58h-5.35v-32.58Z"/><path class="cls-13" d="M351.53,1517.77v4.79h.13a12.69,12.69,0,0,1,16-4.28,7.08,7.08,0,0,1,3.46,4.28,11.3,11.3,0,0,1,4.32-4.09,12.12,12.12,0,0,1,5.89-1.45,17.33,17.33,0,0,1,4.44.53,9.33,9.33,0,0,1,3.4,1.67,7.66,7.66,0,0,1,2.21,2.93,10.83,10.83,0,0,1,.78,4.32v23.88h-5.35V1529a16,16,0,0,0-.25-2.84,5.93,5.93,0,0,0-.95-2.3,4.71,4.71,0,0,0-1.92-1.54,7.6,7.6,0,0,0-3.18-.57,8.44,8.44,0,0,0-6.24,2.27,8.18,8.18,0,0,0-2.27,6v20.29h-5.35V1529a14.49,14.49,0,0,0-.28-2.9,6.21,6.21,0,0,0-1-2.3,4.56,4.56,0,0,0-1.86-1.51,7.14,7.14,0,0,0-3-.54,8,8,0,0,0-4,1,8.84,8.84,0,0,0-2.71,2.27,9,9,0,0,0-1.51,2.74,7.63,7.63,0,0,0-.48,2.36v20.29h-5.35v-32.58Z"/><path class="cls-13" d="M429.08,1550.22a7.61,7.61,0,0,1-3.84.82,4.6,4.6,0,0,1-3.31-1.17,5,5,0,0,1-1.23-3.81,12.7,12.7,0,0,1-5.13,3.81,17.61,17.61,0,0,1-10.52.66,9.71,9.71,0,0,1-3.44-1.57,7.64,7.64,0,0,1-2.3-2.8,11,11,0,0,1,.1-8.73,8.26,8.26,0,0,1,2.49-2.87,11.51,11.51,0,0,1,3.53-1.67c1.32-.37,2.67-.69,4.06-.94s2.87-.51,4.19-.66a23.91,23.91,0,0,0,3.49-.63,5.88,5.88,0,0,0,2.4-1.2,2.91,2.91,0,0,0,.88-2.3,5.34,5.34,0,0,0-.66-2.83,4.52,4.52,0,0,0-1.7-1.64,6.94,6.94,0,0,0-2.33-.76,18.46,18.46,0,0,0-2.55-.19,11.22,11.22,0,0,0-5.67,1.3c-1.52.86-2.33,2.48-2.46,4.88h-5.36a11.76,11.76,0,0,1,1.26-5.11,9.65,9.65,0,0,1,3-3.37,12.57,12.57,0,0,1,4.31-1.85,22.7,22.7,0,0,1,5.2-.57,30.51,30.51,0,0,1,4.38.31,11.5,11.5,0,0,1,3.94,1.29,7.51,7.51,0,0,1,2.83,2.74,8.65,8.65,0,0,1,1.07,4.58v16.73a12.81,12.81,0,0,0,.22,2.76c.15.59.64.88,1.48.88a6.36,6.36,0,0,0,1.64-.25Zm-8.69-16.7a6.58,6.58,0,0,1-2.65,1.1c-1.09.23-2.23.42-3.43.57s-2.41.31-3.62.5a13.42,13.42,0,0,0-3.28.91,5.87,5.87,0,0,0-2.36,1.78,5,5,0,0,0-.92,3.17,4.25,4.25,0,0,0,.54,2.22,4.48,4.48,0,0,0,1.39,1.48,5.69,5.69,0,0,0,2,.81,10.88,10.88,0,0,0,2.39.25,12.76,12.76,0,0,0,4.54-.72,9.43,9.43,0,0,0,3.09-1.82,7.24,7.24,0,0,0,1.76-2.38,5.94,5.94,0,0,0,.57-2.41Z"/><path class="cls-15" d="M296.24,1385.5H265.92a16.52,16.52,0,0,1-16.5-16.5v-30.32a16.52,16.52,0,0,1,16.5-16.5h30.32a16.52,16.52,0,0,1,16.5,16.5V1369A16.52,16.52,0,0,1,296.24,1385.5Zm-30.32-58.32a11.51,11.51,0,0,0-11.5,11.5V1369a11.51,11.51,0,0,0,11.5,11.5h30.32a11.51,11.51,0,0,0,11.5-11.5v-30.32a11.51,11.51,0,0,0-11.5-11.5Z"/><path class="cls-16" d="M950.92,840s32.9-24,41.76-41.21l2-3.86A29.75,29.75,0,0,0,997,783.3c0-15.25-11.22-27.62-25.07-27.62-8.83,0-16.93,12.45-21.4,20.05-4.46-7.6-11.86-20.05-20.69-20.05-13.84,0-25.07,12.37-25.07,27.62a29.75,29.75,0,0,0,2.36,11.63l2,3.86C918,816,950.85,840,950.85,840Z"/><polygon class="cls-10" points="1006.52 274.69 1005.36 274.69 1005.36 286.16 993.88 286.16 993.88 287.33 1005.36 287.33 1005.36 298.81 1006.52 298.81 1006.52 287.33 1018 287.33 1018 286.16 1006.52 286.16 1006.52 274.69"/><polygon class="cls-10" points="907.52 274.69 906.36 274.69 906.36 286.16 894.88 286.16 894.88 287.33 906.36 287.33 906.36 298.81 907.52 298.81 907.52 287.33 919 287.33 919 286.16 907.52 286.16 907.52 274.69"/><path class="cls-10" d="M994,313.13a14,14,0,0,0-14-14H963a14,14,0,0,0-14,14v17a14,14,0,0,0,14,14h17.1l12.15,11.69a1,1,0,0,0,1.69-.72l0-12.37,0-10.74a14.26,14.26,0,0,0,.14-1.85Z"/><circle class="cls-10" cx="881.5" cy="310.5" r="11.5"/><path class="cls-10" d="M907,341.81c0,6-13.84,6-26.15,6S856,349.34,856,343.31,870.17,326,882.47,326,907,335.78,907,341.81Z"/><path class="cls-10" d="M200.39,329c-8.76,0-15.89-6.27-15.89-14s7.13-14,15.89-14,15.88,6.27,15.88,14S209.15,329,200.39,329Zm0-26.42c-7.8,0-14.15,5.58-14.15,12.44s6.35,12.44,14.15,12.44,14.14-5.58,14.14-12.44S208.19,302.53,200.39,302.53Z"/><polygon class="cls-10" points="221.23 336.54 209.59 324.65 210.8 323.74 222.44 335.62 221.23 336.54"/><path class="cls-17" d="M143.2,1496.14c-22.68,0-41.07,12.77-41.07,28.53v63.75c0,12.26,18.39,22.2,41.07,22.2s41.08-9.94,41.08-22.2v-63.75C184.28,1508.91,165.89,1496.14,143.2,1496.14Z"/><path class="cls-18" d="M198.45,1631.14c0-13.63-7.12-24.84-16.25-26.17v-.13H106.53c-10,0-18.08,11.78-18.08,26.3"/><path class="cls-19" d="M154.48,1611.48h.08l-.14-26.41-22.07.11.14,26.41h.08c0,3.32,4.94,6,11,6S154.49,1614.8,154.48,1611.48Z"/><path class="cls-20" d="M104,1531.81v23.73c0,22.58,17.49,40.88,39.07,40.88s39.08-18.3,39.08-40.88v-23.73Z"/><ellipse cx="126.9" cy="1548.71" rx="4.83" ry="4.67"/><ellipse cx="158.64" cy="1548.71" rx="4.83" ry="4.67"/><path class="cls-2" d="M155.06,1565.6c0,8.79-6,15.91-13.45,15.91s-13.45-7.12-13.45-15.91"/><ellipse class="cls-21" cx="118.4" cy="1564.12" rx="4.92" ry="4.76"/><ellipse class="cls-21" cx="164.73" cy="1564.12" rx="4.92" ry="4.76"/><path class="cls-19" d="M104.14,1560c-6.15,0-11.13-4.5-11.13-10s5-10.05,11.13-10.05"/><path class="cls-19" d="M182,1539.87c6.15,0,11.14,4.5,11.14,10.05s-5,10-11.14,10"/><path class="cls-22" d="M135,984.42c-22.69,0-41.08,13.54-41.08,30.24V1041h82.15v-26.29C176.06,998,157.67,984.42,135,984.42Z"/><path class="cls-23" d="M190.24,1114.42c0-13.08-7.13-23.84-16.26-25.11v-.13H98.32c-10,0-18.08,11.3-18.08,25.24"/><path class="cls-24" d="M146.26,1095.55h.08l-.14-25.34-22.07.1.14,25.34h.08c0,3.19,4.94,5.75,11,5.72S146.28,1098.74,146.26,1095.55Z"/><path class="cls-25" d="M95.82,1019.08v22.78a39.08,39.08,0,1,0,78.15,0v-22.78Z"/><ellipse class="cls-26" cx="118.68" cy="1035.3" rx="4.83" ry="4.49"/><ellipse class="cls-26" cx="150.42" cy="1035.3" rx="4.83" ry="4.49"/><path class="cls-2" d="M146.84,1051.52c0,8.43-6,15.27-13.45,15.27s-13.45-6.84-13.45-15.27"/><ellipse class="cls-21" cx="110.18" cy="1050.09" rx="4.92" ry="4.57"/><ellipse class="cls-21" cx="156.51" cy="1050.09" rx="4.92" ry="4.57"/><path class="cls-24" d="M95.93,1046.11c-6.15,0-11.14-4.32-11.14-9.65s5-9.64,11.14-9.64"/><path class="cls-24" d="M173.75,1026.82c6.15,0,11.13,4.32,11.13,9.64s-5,9.65-11.13,9.65"/><path class="cls-27" d="M178.48,1288c0-18.31-17.67-33.16-39.46-33.16S99.56,1269.71,99.56,1288"/><rect class="cls-27" x="99.56" y="1288.02" width="78.92" height="28.83"/><ellipse class="cls-27" cx="178.48" cy="1326.89" rx="15.54" ry="15.27"/><ellipse class="cls-27" cx="99.56" cy="1326.89" rx="15.54" ry="15.27"/><path class="cls-28" d="M191.86,1384.86c0-13.31-6.85-24.25-15.62-25.55v-.13H103.55c-9.59,0-17.37,11.5-17.37,25.68"/><path class="cls-29" d="M149.61,1365.66h.08l-.13-25.78-21.21.1.14,25.79h.07c0,3.24,4.75,5.84,10.56,5.81S149.63,1368.9,149.61,1365.66Z"/><path class="cls-30" d="M101.15,1287.87V1311c0,22,16.81,39.92,37.54,39.92s37.54-17.87,37.54-39.92v-23.17Z"/><ellipse class="cls-26" cx="123.12" cy="1304.37" rx="4.64" ry="4.56"/><ellipse class="cls-26" cx="153.61" cy="1304.37" rx="4.64" ry="4.56"/><path class="cls-2" d="M150.17,1320.87c0,8.58-5.79,15.53-12.92,15.53s-12.93-7-12.93-15.53"/><ellipse class="cls-21" cx="114.95" cy="1319.41" rx="4.73" ry="4.65"/><ellipse class="cls-21" cx="159.46" cy="1319.41" rx="4.73" ry="4.65"/><path class="cls-29" d="M101.25,1315.37c-5.91,0-10.7-4.4-10.7-9.82s4.79-9.81,10.7-9.81"/><path class="cls-29" d="M176,1295.74c5.91,0,10.7,4.39,10.7,9.81s-4.79,9.82-10.7,9.82"/><path class="cls-31" d="M198.61,858.68c0-13-7.13-23.72-16.26-25v-.13H106.69c-10,0-18.08,11.25-18.08,25.12"/><path class="cls-32" d="M143.32,728.68c-22.69,0-41.08,14.51-41.08,32.42v72.46h82.15V761.1C184.39,743.19,166,728.68,143.32,728.68Z"/><path class="cls-33" d="M154.63,839.9h.08l-.13-25.21-22.07.1.14,25.21h.08c0,3.17,4.93,5.72,11,5.69S154.65,843.07,154.63,839.9Z"/><path class="cls-34" d="M104.2,763.82v22.67a39.07,39.07,0,0,0,78.14,0V763.82Z"/><ellipse class="cls-26" cx="127.06" cy="779.96" rx="4.83" ry="4.46"/><ellipse class="cls-26" cx="158.79" cy="779.96" rx="4.83" ry="4.46"/><path class="cls-2" d="M155.22,796.09c0,8.39-6,15.2-13.46,15.2s-13.45-6.81-13.45-15.2"/><ellipse class="cls-21" cx="118.56" cy="794.67" rx="4.92" ry="4.55"/><ellipse class="cls-21" cx="164.88" cy="794.67" rx="4.92" ry="4.55"/><path class="cls-35" d="M104.3,790.72c-6.15,0-11.14-4.3-11.14-9.6s5-9.6,11.14-9.6"/><path class="cls-35" d="M182.12,771.52c6.15,0,11.13,4.3,11.13,9.6s-5,9.6-11.13,9.6"/></g></svg>
