<svg xmlns="http://www.w3.org/2000/svg" width="1080" height="1920" viewBox="0 0 1080 1920"><defs><style>.cls-1{fill:#dcdfe6;}.cls-2{fill:#fff;}.cls-3{fill:#999;}.cls-4{fill:#bcc0cc;}.cls-5{fill:#343740;}.cls-6{fill:#a1a5b3;}.cls-7{fill:gray;}.cls-8{fill:#fefefe;}.cls-9{fill:#3498db;}.cls-10{fill:#ecf0f1;}.cls-11{opacity:0.2;}.cls-12{fill:#7f8c8d;}.cls-13{fill:#2c3e50;}.cls-14{fill:#9b59b6;}.cls-15{fill:#e74c3c;}.cls-16{fill:#f1c40f;}.cls-17{fill:#3b2213;}.cls-18{fill:#7f3e97;}.cls-19{fill:#6d4321;}.cls-20{fill:#754c27;}.cls-21{fill:#f2a087;}.cls-22{fill:#a87b4f;}.cls-23{fill:#985e25;}.cls-24{fill:#dca67f;}.cls-25{fill:#e1b28c;}.cls-26{fill:#3f2914;}.cls-27{fill:#895d3b;}.cls-28{fill:#8bc53f;}.cls-29{fill:#b6835a;}.cls-30{fill:#be9066;}.cls-31{fill:#ee4035;}.cls-32{fill:#f3e879;}.cls-33{fill:#d3aa83;}.cls-34{fill:#dab692;}.cls-35{fill:#d3ab83;}</style></defs><title>Artboard 1 copy 2</title><g id="Layer_1" data-name="Layer 1"><rect class="cls-1" x="1063.48" y="362.16" width="21.52" height="125.16"/><rect class="cls-1" width="1078.85" height="1920" rx="44.6"/><rect class="cls-2" x="36.88" y="202.39" width="998.94" height="1517.89"/><rect class="cls-3" x="467.2" y="87.88" width="144.46" height="10.65" rx="2"/><path class="cls-4" d="M543.6,1751c-42.2,0-76.4,31.27-76.4,69.85s34.2,69.86,76.4,69.86,76.4-31.28,76.4-69.86S585.79,1751,543.6,1751Zm0,130.6c-34.86,0-63.12-26.52-63.12-59.23s28.26-59.22,63.12-59.22,63.11,26.51,63.11,59.22S578.46,1881.6,543.6,1881.6Z"/><ellipse class="cls-3" cx="390.35" cy="93.2" rx="15.37" ry="13.31"/><rect class="cls-5" x="37" y="258.31" width="1001.9" height="1461.97"/><ellipse class="cls-1" cx="545.57" cy="35.95" rx="10.76" ry="9.32"/><ellipse class="cls-6" cx="539.5" cy="35.95" rx="10.76" ry="9.32"/><rect class="cls-5" x="37" y="202.39" width="1001.9" height="55.92"/><rect class="cls-3" x="1023.53" y="223.69" width="3.07" height="10.65"/><rect class="cls-7" x="971.27" y="218.36" width="52.25" height="21.3"/><rect class="cls-8" x="974.35" y="221.03" width="46.1" height="15.98"/><rect class="cls-8" x="1023.53" y="226.35" width="3.07" height="5.33"/><path class="cls-2" d="M103.88,238v-5.47H94.06v-2.75l10.25-14.22h2.38v14.52H110v2.45h-3.29V238Zm0-7.92V219.92l-7.17,10.17Z"/><path class="cls-2" d="M128.76,215.71a8.16,8.16,0,0,1,4.13,6.3h-3.08a5.56,5.56,0,0,0-2.28-3.67,7.74,7.74,0,0,0-4.36-1.14,6.74,6.74,0,0,0-5.25,2.39q-2.15,2.39-2.14,7.12a11.62,11.62,0,0,0,1.76,6.67q1.77,2.56,5.74,2.57a7.25,7.25,0,0,0,5.05-1.81q2-1.8,2-5.84h-7.19v-2.57h10.08V238h-2l-.75-3a11.74,11.74,0,0,1-2.76,2.41,10.14,10.14,0,0,1-5.11,1.16,9.9,9.9,0,0,1-6.91-2.64q-3.15-3.31-3.15-9.1t3.08-9.17a9.72,9.72,0,0,1,7.58-3.25A11.49,11.49,0,0,1,128.76,215.71Z"/><rect class="cls-8" x="57" y="221" width="7" height="18" rx="0.75"/><rect class="cls-8" x="47" y="226" width="7" height="13" rx="0.75"/><rect class="cls-8" x="66" y="217" width="7" height="22" rx="0.75"/><rect class="cls-8" x="76" y="214" width="7" height="25" rx="0.75"/><path class="cls-2" d="M915,226.37V225a7.45,7.45,0,0,0,2.79-.65,3.18,3.18,0,0,0,1.18-2.16h1.45v14.63h-2v-10.4Z"/><path class="cls-2" d="M934.48,224.43a10.46,10.46,0,0,1,1,5,11.92,11.92,0,0,1-.9,5,4.37,4.37,0,0,1-4.22,2.81,4.24,4.24,0,0,1-3.94-2.3,10.63,10.63,0,0,1-1.07-5.15,12.77,12.77,0,0,1,.64-4.3c.81-2.22,2.27-3.34,4.38-3.34A4.33,4.33,0,0,1,934.48,224.43Zm-1.86,9.78c.57-.85.86-2.42.86-4.73a11.68,11.68,0,0,0-.62-4.12,2.34,2.34,0,0,0-2.39-1.62,2.49,2.49,0,0,0-2.39,1.54,10.59,10.59,0,0,0-.75,4.51,11.13,11.13,0,0,0,.48,3.61,2.62,2.62,0,0,0,4.81.81Z"/><path class="cls-2" d="M946.16,224.43a10.46,10.46,0,0,1,1,5,11.92,11.92,0,0,1-.9,5,4.37,4.37,0,0,1-4.22,2.81,4.24,4.24,0,0,1-3.94-2.3,10.63,10.63,0,0,1-1.07-5.15,12.77,12.77,0,0,1,.64-4.3c.81-2.22,2.27-3.34,4.38-3.34A4.33,4.33,0,0,1,946.16,224.43Zm-1.86,9.78c.57-.85.86-2.42.86-4.73a11.68,11.68,0,0,0-.62-4.12,2.34,2.34,0,0,0-2.39-1.62,2.49,2.49,0,0,0-2.39,1.54,10.57,10.57,0,0,0-.76,4.51,11.1,11.1,0,0,0,.49,3.61,2.62,2.62,0,0,0,4.81.81Z"/><path class="cls-2" d="M954.82,223.57a3.49,3.49,0,0,1,1,2.53,3.57,3.57,0,0,1-6.1,2.52,3.4,3.4,0,0,1-1-2.52,3.57,3.57,0,0,1,6.1-2.53Zm-1,4a2.1,2.1,0,0,0,0-3,2.08,2.08,0,0,0-1.51-.62,2.11,2.11,0,0,0-1.49,3.6,2,2,0,0,0,1.49.62A2,2,0,0,0,953.79,227.59Zm7.08-5.45H962l-8.21,15h-1.15Zm4,8.53a3.57,3.57,0,1,1-6.1,2.52,3.57,3.57,0,0,1,6.1-2.52Zm-1,4a2.08,2.08,0,0,0,.62-1.5,2.12,2.12,0,0,0-4.24,0,2.12,2.12,0,0,0,3.62,1.5Z"/></g><g id="Layer_2" data-name="Layer 2"><rect class="cls-9" x="37" y="263" width="1002" height="1463"/><rect class="cls-10" x="37" y="389" width="1002" height="1337" rx="49"/><g class="cls-11"><rect class="cls-12" x="37" y="666.5" width="1002" height="1"/></g><g class="cls-11"><rect class="cls-12" x="37" y="930" width="1002" height="1"/></g><g class="cls-11"><rect class="cls-12" x="37" y="1193" width="1002" height="1"/></g><g class="cls-11"><rect class="cls-12" x="37" y="1456" width="1002" height="1"/></g><path class="cls-9" d="M268.84,867.68a1.24,1.24,0,0,1-1.47-1.85c4.12-6.51,12.38-20.27,12.4-25.76s-8.12-19.18-12.19-25.69a1.23,1.23,0,0,1,1.48-1.83l28.52,13,28.26,12.91a2,2,0,0,1,0,3.64l-28.34,12.71Z"/><path class="cls-12" d="M353.34,849.77a7.21,7.21,0,0,0,2.39,2.83,9.94,9.94,0,0,0,3.6,1.52,20.88,20.88,0,0,0,4.44.45,13,13,0,0,0,3-.38,10.48,10.48,0,0,0,3-1.23A7.61,7.61,0,0,0,372,850.8a5.46,5.46,0,0,0,.92-3.19,4.67,4.67,0,0,0-.65-2.49,5.89,5.89,0,0,0-1.7-1.78,10.1,10.1,0,0,0-2.29-1.18,23.46,23.46,0,0,0-2.46-.74l-7.68-1.87a24.32,24.32,0,0,1-2.92-1,8.49,8.49,0,0,1-2.49-1.54A7.16,7.16,0,0,1,351,834.7a7.92,7.92,0,0,1-.65-3.41,10.9,10.9,0,0,1,.48-2.93,8,8,0,0,1,1.81-3.16,10.36,10.36,0,0,1,3.65-2.52,14.61,14.61,0,0,1,5.94-1,17.31,17.31,0,0,1,4.87.68,12,12,0,0,1,4.06,2,10.13,10.13,0,0,1,2.78,3.34,9.91,9.91,0,0,1,1,4.63h-3.28a8,8,0,0,0-.89-3.43,7.72,7.72,0,0,0-2.08-2.45,9.11,9.11,0,0,0-3-1.49,12.19,12.19,0,0,0-3.5-.5,14.61,14.61,0,0,0-3.26.36,8.2,8.2,0,0,0-2.75,1.15,6,6,0,0,0-1.91,2.09,6.51,6.51,0,0,0-.72,3.21,5,5,0,0,0,.41,2.09,4.35,4.35,0,0,0,1.13,1.51,5.87,5.87,0,0,0,1.67,1,12.61,12.61,0,0,0,2,.63l8.41,2.06a23.7,23.7,0,0,1,3.45,1.18,11.5,11.5,0,0,1,2.85,1.72,7.38,7.38,0,0,1,1.93,2.52,8.41,8.41,0,0,1,.7,3.6,13,13,0,0,1-.12,1.54,7.54,7.54,0,0,1-.58,2,10.27,10.27,0,0,1-1.3,2.18,8.41,8.41,0,0,1-2.32,2,13.62,13.62,0,0,1-3.65,1.44,21.79,21.79,0,0,1-5.21.55,22,22,0,0,1-5.65-.7,12.07,12.07,0,0,1-4.44-2.13,9.41,9.41,0,0,1-2.83-3.7,12,12,0,0,1-.84-5.42h3.28A9.58,9.58,0,0,0,353.34,849.77Z"/><path class="cls-12" d="M383.06,848.45a9.5,9.5,0,0,0,1.47,3.15,8.58,8.58,0,0,0,2.56,2.3,7.17,7.17,0,0,0,3.72.91,7.41,7.41,0,0,0,5.22-1.73,9.05,9.05,0,0,0,2.6-4.6h3.05a12.09,12.09,0,0,1-3.55,6.52q-2.58,2.31-7.32,2.31a11.76,11.76,0,0,1-5.09-1,9.41,9.41,0,0,1-3.5-2.84,12.43,12.43,0,0,1-2-4.17,19.13,19.13,0,0,1-.65-5,18.1,18.1,0,0,1,.65-4.8,13,13,0,0,1,2-4.2,10,10,0,0,1,3.5-3,10.71,10.71,0,0,1,5.09-1.13,10.26,10.26,0,0,1,5.12,1.2,10.13,10.13,0,0,1,3.45,3.14,13,13,0,0,1,1.91,4.47,19.07,19.07,0,0,1,.48,5.11H382.6A13.58,13.58,0,0,0,383.06,848.45Zm15.07-9.24a9.3,9.3,0,0,0-1.57-2.81,7.84,7.84,0,0,0-2.46-2,7.06,7.06,0,0,0-3.29-.75,7.16,7.16,0,0,0-3.33.75,7.62,7.62,0,0,0-2.46,2,9.64,9.64,0,0,0-1.62,2.84,13.91,13.91,0,0,0-.8,3.28h16.13A10.82,10.82,0,0,0,398.13,839.21Z"/><path class="cls-12" d="M408.87,831.87v4.27h.1a7.27,7.27,0,0,1,3.09-3.62,9.06,9.06,0,0,1,4.88-1.37,12.36,12.36,0,0,1,4.37.67,6.64,6.64,0,0,1,4.32,4.9,16.74,16.74,0,0,1,.43,4v15.94h-3V841.18a14.4,14.4,0,0,0-.29-2.95,6.24,6.24,0,0,0-1-2.38,5,5,0,0,0-2-1.58,7.13,7.13,0,0,0-3.07-.58,7.76,7.76,0,0,0-3.25.65,7,7,0,0,0-2.42,1.78,7.94,7.94,0,0,0-1.54,2.68,10.57,10.57,0,0,0-.61,3.39v14.45h-3V831.87Z"/><path class="cls-12" d="M450.93,856.64v-4.71h-.1a7,7,0,0,1-1.42,2.21,9.11,9.11,0,0,1-2.15,1.7,10.67,10.67,0,0,1-2.58,1.08,10,10,0,0,1-2.73.39,11.22,11.22,0,0,1-4.95-1,9.91,9.91,0,0,1-3.5-2.84,12,12,0,0,1-2.08-4.17,19.1,19.1,0,0,1,0-10,12,12,0,0,1,2.08-4.18,10.19,10.19,0,0,1,3.5-2.86,10.94,10.94,0,0,1,4.95-1.05,11.33,11.33,0,0,1,2.73.33,9.19,9.19,0,0,1,2.48,1,8.65,8.65,0,0,1,2.06,1.7,7.23,7.23,0,0,1,1.37,2.35h.1V822.36h3v34.28Zm-16.68-8.57a10.39,10.39,0,0,0,1.45,3.38,8,8,0,0,0,2.53,2.43,7.08,7.08,0,0,0,3.72.93,8.26,8.26,0,0,0,4.08-.93,8.12,8.12,0,0,0,2.7-2.43,9.87,9.87,0,0,0,1.5-3.38,16,16,0,0,0,0-7.63,9.83,9.83,0,0,0-1.5-3.39,8,8,0,0,0-2.7-2.42,8.15,8.15,0,0,0-4.08-.94,7,7,0,0,0-3.72.94,7.91,7.91,0,0,0-2.53,2.42,10.35,10.35,0,0,0-1.45,3.39,16,16,0,0,0,0,7.63Z"/><path class="cls-12" d="M469.43,831.87v2.54h-5.07v16.71a5.27,5.27,0,0,0,.41,2.32c.27.56,1,.88,2.05.94a25.36,25.36,0,0,0,2.61-.14v2.54c-.46,0-.91,0-1.36.05s-.9,0-1.35,0c-2,0-3.44-.4-4.25-1.18s-1.19-2.23-1.16-4.34v-17H457v-2.54h4.34v-7.44h3.05v7.44Z"/><path class="cls-12" d="M493.06,839.5a2.78,2.78,0,0,1,.85,2,2.63,2.63,0,0,1-.87,1.94,2.77,2.77,0,0,1-4,0,2.81,2.81,0,0,1-.84-2,2.61,2.61,0,0,1,.87-1.94,2.77,2.77,0,0,1,2-.84A2.68,2.68,0,0,1,493.06,839.5Z"/><path class="cls-12" d="M519.48,829.3a7.73,7.73,0,0,0,2.8-.79,5.21,5.21,0,0,0,2-1.9,9.31,9.31,0,0,0,1.13-3.57h2.47v33.6h-3.05v-25h-8.93v-2.16C517.2,829.48,518.4,829.41,519.48,829.3Z"/><path class="cls-12" d="M562.24,823.47v2.78c-1.06,1.09-2.34,2.55-3.82,4.39a45.75,45.75,0,0,0-4.32,6.58,49.58,49.58,0,0,0-3.67,8.69,41.31,41.31,0,0,0-1.86,10.73h-3.28a50.21,50.21,0,0,1,1.18-8.07,39.4,39.4,0,0,1,2.56-7.41,51,51,0,0,1,4.15-7.28,78.77,78.77,0,0,1,6-7.63H540.51v-2.78Z"/><path class="cls-12" d="M584,831.87V836h.14a9.66,9.66,0,0,1,3.16-3.6,8.93,8.93,0,0,1,5-1.29,8.55,8.55,0,0,1,4.47,1.2,5.89,5.89,0,0,1,2.68,3.65,7.57,7.57,0,0,1,3.28-3.65,9.47,9.47,0,0,1,4.64-1.2q8.25,0,8.26,8.69v16.8h-3V840a7.27,7.27,0,0,0-1.3-4.68q-1.31-1.6-4.59-1.61a6.5,6.5,0,0,0-3.28.75,5.76,5.76,0,0,0-2.08,2,8.32,8.32,0,0,0-1.08,2.85,17.43,17.43,0,0,0-.32,3.34v14h-3v-16.8a10.15,10.15,0,0,0-.27-2.38,5.27,5.27,0,0,0-.87-2,4.11,4.11,0,0,0-1.61-1.32,5.76,5.76,0,0,0-2.47-.48,7.48,7.48,0,0,0-3.35.7,6.13,6.13,0,0,0-2.32,1.92,8.3,8.3,0,0,0-1.33,2.88,14.2,14.2,0,0,0-.43,3.62v13.83h-3V831.87Z"/><path class="cls-12" d="M624.53,822.36v4.85h-3v-4.85Zm0,9.51v24.77h-3V831.87Z"/><path class="cls-12" d="M633.37,831.87v4.27h.09a7.27,7.27,0,0,1,3.09-3.62,9.09,9.09,0,0,1,4.88-1.37,12.28,12.28,0,0,1,4.37.67,6.9,6.9,0,0,1,2.83,1.9,7.07,7.07,0,0,1,1.49,3,16.72,16.72,0,0,1,.44,4v15.94h-3V841.18a14.4,14.4,0,0,0-.29-2.95,6.25,6.25,0,0,0-1-2.38,4.86,4.86,0,0,0-2-1.58,7.16,7.16,0,0,0-3.07-.58,7.84,7.84,0,0,0-3.26.65,6.92,6.92,0,0,0-2.41,1.78A8.13,8.13,0,0,0,634,838.8a10.85,10.85,0,0,0-.6,3.39v14.45h-3V831.87Z"/><path class="cls-12" d="M684.07,836.69a4.9,4.9,0,0,0-1.42-1.7,6,6,0,0,0-2.06-1,9.8,9.8,0,0,0-4.51-.09,6.19,6.19,0,0,0-1.91.72,3.94,3.94,0,0,0-1.4,1.32,3.62,3.62,0,0,0-.53,2,2.82,2.82,0,0,0,.51,1.71,4.5,4.5,0,0,0,1.28,1.17,8.22,8.22,0,0,0,1.69.8c.61.2,1.17.37,1.69.5l4.05.91a11.72,11.72,0,0,1,2.59.7,8.1,8.1,0,0,1,2.27,1.32,6.25,6.25,0,0,1,1.61,2,6,6,0,0,1,.63,2.84,6.13,6.13,0,0,1-.92,3.43,7.45,7.45,0,0,1-2.34,2.3,9.89,9.89,0,0,1-3.21,1.27,16.43,16.43,0,0,1-3.52.39,11.5,11.5,0,0,1-7.13-2.07c-1.82-1.37-2.85-3.58-3.11-6.62h3a6,6,0,0,0,2.25,4.63,8.14,8.14,0,0,0,5.09,1.56,11.43,11.43,0,0,0,2.29-.24,7.44,7.44,0,0,0,2.2-.81,5.4,5.4,0,0,0,1.67-1.47,3.61,3.61,0,0,0,.65-2.18,3.43,3.43,0,0,0-.46-1.85,4.07,4.07,0,0,0-1.23-1.25,8.44,8.44,0,0,0-1.76-.84q-1-.33-2-.57l-3.91-.87a20.65,20.65,0,0,1-2.75-.89,8.8,8.8,0,0,1-2.2-1.24,5.22,5.22,0,0,1-1.47-1.83,6.06,6.06,0,0,1-.53-2.66,6,6,0,0,1,.84-3.22,6.78,6.78,0,0,1,2.2-2.16,10.48,10.48,0,0,1,3-1.2,15,15,0,0,1,3.31-.38,12.29,12.29,0,0,1,3.5.48,7.93,7.93,0,0,1,2.85,1.49,7.26,7.26,0,0,1,2,2.49,8.89,8.89,0,0,1,.82,3.51h-3A5.73,5.73,0,0,0,684.07,836.69Z"/><path class="cls-12" d="M696.05,822.36v4.85h-3v-4.85Zm0,9.51v24.77h-3V831.87Z"/><path class="cls-12" d="M721,856.64v-4.71h-.09a7.22,7.22,0,0,1-1.43,2.21,9.11,9.11,0,0,1-2.15,1.7,10.51,10.51,0,0,1-2.58,1.08,10,10,0,0,1-2.73.39,11.22,11.22,0,0,1-4.95-1,9.91,9.91,0,0,1-3.5-2.84,12.19,12.19,0,0,1-2.08-4.17,19.1,19.1,0,0,1,0-10,12.15,12.15,0,0,1,2.08-4.18,10.19,10.19,0,0,1,3.5-2.86,10.94,10.94,0,0,1,4.95-1.05,11.33,11.33,0,0,1,2.73.33,9.38,9.38,0,0,1,2.49,1,8.8,8.8,0,0,1,2,1.7,7.23,7.23,0,0,1,1.37,2.35h.1V822.36h3v34.28Zm-16.68-8.57a10.39,10.39,0,0,0,1.45,3.38,8,8,0,0,0,2.53,2.43,7.08,7.08,0,0,0,3.72.93,8.26,8.26,0,0,0,4.08-.93,8.12,8.12,0,0,0,2.7-2.43,9.68,9.68,0,0,0,1.5-3.38,16,16,0,0,0,0-7.63,9.65,9.65,0,0,0-1.5-3.39,8,8,0,0,0-2.7-2.42,8.15,8.15,0,0,0-4.08-.94,7,7,0,0,0-3.72.94,7.91,7.91,0,0,0-2.53,2.42,10.35,10.35,0,0,0-1.45,3.39,16,16,0,0,0,0,7.63Z"/><path class="cls-12" d="M731.85,848.45a9.32,9.32,0,0,0,1.48,3.15,8.43,8.43,0,0,0,2.55,2.3,7.2,7.2,0,0,0,3.72.91,7.41,7.41,0,0,0,5.22-1.73,9.14,9.14,0,0,0,2.61-4.6h3a12.09,12.09,0,0,1-3.55,6.52q-2.58,2.31-7.32,2.31a11.76,11.76,0,0,1-5.09-1,9.41,9.41,0,0,1-3.5-2.84,12.43,12.43,0,0,1-2-4.17,19.13,19.13,0,0,1-.65-5,18.1,18.1,0,0,1,.65-4.8,13,13,0,0,1,2-4.2,10,10,0,0,1,3.5-3,10.71,10.71,0,0,1,5.09-1.13,10.26,10.26,0,0,1,5.12,1.2,10.13,10.13,0,0,1,3.45,3.14,12.85,12.85,0,0,1,1.91,4.47,19.07,19.07,0,0,1,.48,5.11H731.39A13.58,13.58,0,0,0,731.85,848.45Zm15.07-9.24a9.09,9.09,0,0,0-1.57-2.81,7.84,7.84,0,0,0-2.46-2,7.06,7.06,0,0,0-3.29-.75,7.16,7.16,0,0,0-3.33.75,7.73,7.73,0,0,0-2.46,2,9.64,9.64,0,0,0-1.62,2.84,13.91,13.91,0,0,0-.8,3.28h16.13A10.82,10.82,0,0,0,746.92,839.21Z"/><path class="cls-12" d="M757.66,831.87v4.27h.1a7.27,7.27,0,0,1,3.09-3.62,9.06,9.06,0,0,1,4.88-1.37,12.32,12.32,0,0,1,4.37.67,6.64,6.64,0,0,1,4.32,4.9,16.74,16.74,0,0,1,.43,4v15.94h-3V841.18a14.4,14.4,0,0,0-.29-2.95,6.24,6.24,0,0,0-1-2.38,5,5,0,0,0-2-1.58,7.11,7.11,0,0,0-3.06-.58,7.77,7.77,0,0,0-3.26.65,7,7,0,0,0-2.42,1.78,8.11,8.11,0,0,0-1.54,2.68,10.85,10.85,0,0,0-.61,3.39v14.45h-3V831.87Z"/><path class="cls-10" d="M246.46,303.36l12.6,34.51h.11l12.49-34.51h3.91l-14.39,38.56h-4.29l-14.35-38.56Z"/><path class="cls-10" d="M277.88,332.71a10.49,10.49,0,0,0,1.66,3.54,9.44,9.44,0,0,0,2.88,2.59,8,8,0,0,0,4.18,1,8.34,8.34,0,0,0,5.87-1.95,10.16,10.16,0,0,0,2.93-5.18h3.43a13.58,13.58,0,0,1-4,7.34q-2.91,2.6-8.23,2.59a13,13,0,0,1-5.73-1.16,10.55,10.55,0,0,1-3.94-3.18,13.94,13.94,0,0,1-2.25-4.7,21.16,21.16,0,0,1-.74-5.64,20,20,0,0,1,.74-5.4,14.57,14.57,0,0,1,2.25-4.73,11.49,11.49,0,0,1,3.94-3.35,12.23,12.23,0,0,1,5.73-1.26,11.63,11.63,0,0,1,5.76,1.34,11.49,11.49,0,0,1,3.88,3.54,14.46,14.46,0,0,1,2.15,5,21.38,21.38,0,0,1,.54,5.75H277.37A15.14,15.14,0,0,0,277.88,332.71Zm16.95-10.39a10.06,10.06,0,0,0-1.76-3.16,8.82,8.82,0,0,0-2.77-2.22,8.09,8.09,0,0,0-3.7-.83,8.21,8.21,0,0,0-3.75.83,8.82,8.82,0,0,0-2.77,2.22,11,11,0,0,0-1.82,3.18,15.48,15.48,0,0,0-.89,3.7h18.14A12.18,12.18,0,0,0,294.83,322.32Z"/><path class="cls-10" d="M306.92,314.06v4.8H307a8.21,8.21,0,0,1,3.47-4.08,10.33,10.33,0,0,1,5.49-1.53,14,14,0,0,1,4.92.75,8,8,0,0,1,3.18,2.13,8.09,8.09,0,0,1,1.68,3.38,18.69,18.69,0,0,1,.49,4.48v17.93h-3.42V324.53a15.84,15.84,0,0,0-.33-3.32,7,7,0,0,0-1.14-2.67,5.58,5.58,0,0,0-2.2-1.79,8.14,8.14,0,0,0-3.45-.64,8.71,8.71,0,0,0-3.67.73,7.85,7.85,0,0,0-2.71,2,9,9,0,0,0-1.74,3,12,12,0,0,0-.68,3.81v16.25H303.5V314.06Z"/><path class="cls-10" d="M336.09,314.06v4.8h.11a8.18,8.18,0,0,1,3.48-4.08,10.27,10.27,0,0,1,5.48-1.53,14,14,0,0,1,4.92.75,7.4,7.4,0,0,1,4.86,5.51,18.69,18.69,0,0,1,.49,4.48v17.93H352V324.53a15.84,15.84,0,0,0-.33-3.32,7,7,0,0,0-1.14-2.67,5.58,5.58,0,0,0-2.2-1.79,8.14,8.14,0,0,0-3.45-.64,8.71,8.71,0,0,0-3.67.73,8,8,0,0,0-2.71,2,9.39,9.39,0,0,0-1.74,3,12.27,12.27,0,0,0-.68,3.81v16.25h-3.42V314.06Z"/><path class="cls-10" d="M364.42,332.71a10.3,10.3,0,0,0,1.66,3.54,9.44,9.44,0,0,0,2.88,2.59,8,8,0,0,0,4.18,1,8.35,8.35,0,0,0,5.87-1.95,10.16,10.16,0,0,0,2.93-5.18h3.42a13.5,13.5,0,0,1-4,7.34q-2.91,2.6-8.23,2.59a13,13,0,0,1-5.73-1.16,10.47,10.47,0,0,1-3.94-3.18,14,14,0,0,1-2.26-4.7,21.58,21.58,0,0,1-.73-5.64,20.44,20.44,0,0,1,.73-5.4,14.59,14.59,0,0,1,2.26-4.73,11.4,11.4,0,0,1,3.94-3.35,12.23,12.23,0,0,1,5.73-1.26,11.68,11.68,0,0,1,5.76,1.34,11.49,11.49,0,0,1,3.88,3.54,14.65,14.65,0,0,1,2.15,5,22.22,22.22,0,0,1,.54,5.75H363.9A15.17,15.17,0,0,0,364.42,332.71Zm16.95-10.39a10.08,10.08,0,0,0-1.77-3.16,8.71,8.71,0,0,0-2.77-2.22,8,8,0,0,0-3.69-.83,8.21,8.21,0,0,0-3.75.83,8.71,8.71,0,0,0-2.77,2.22,11,11,0,0,0-1.82,3.18,16,16,0,0,0-.9,3.7h18.15A12.18,12.18,0,0,0,381.37,322.32Z"/><path class="cls-10" d="M393.24,314.06v6.53h.11a10.28,10.28,0,0,1,10.59-6.91v3.4a10.37,10.37,0,0,0-4.24.62,9.61,9.61,0,0,0-3.28,2.08,9.35,9.35,0,0,0-2.15,3.21,10.62,10.62,0,0,0-.76,4.08v14.85h-3.42V314.06Z"/><path class="cls-13" d="M280.53,739.51a12.8,12.8,0,0,0-7.7-2.18,18.68,18.68,0,0,0-3.74.38,9.89,9.89,0,0,0-3.26,1.26,6.7,6.7,0,0,0-2.28,2.36,7.3,7.3,0,0,0-.86,3.69,4.66,4.66,0,0,0,1.24,3.37,9.2,9.2,0,0,0,3.29,2.11,27.11,27.11,0,0,0,4.66,1.35c1.73.36,3.5.75,5.29,1.17s3.56.91,5.3,1.48a17.4,17.4,0,0,1,4.65,2.3,10.89,10.89,0,0,1,3.3,3.65,12.72,12.72,0,0,1-.38,11.69,13.29,13.29,0,0,1-4.15,4.16,18.08,18.08,0,0,1-5.67,2.33,28,28,0,0,1-6.25.72,26.68,26.68,0,0,1-7.19-.94,17.84,17.84,0,0,1-6-2.87,13.72,13.72,0,0,1-4.06-4.91,15.8,15.8,0,0,1-1.48-7.09H261a9.78,9.78,0,0,0,4,8.25,12.24,12.24,0,0,0,4.22,2,19.39,19.39,0,0,0,4.94.63,22.81,22.81,0,0,0,4.09-.38,12.07,12.07,0,0,0,3.71-1.29,7.39,7.39,0,0,0,2.66-2.49,7.3,7.3,0,0,0,1-4,5.62,5.62,0,0,0-1.23-3.78,9.07,9.07,0,0,0-3.3-2.37,24.79,24.79,0,0,0-4.66-1.48l-5.29-1.16c-1.79-.4-3.56-.86-5.29-1.39a19.06,19.06,0,0,1-4.66-2.08,9.91,9.91,0,0,1-3.29-3.34,9.7,9.7,0,0,1-1.24-5.13,11.85,11.85,0,0,1,1.39-5.89,12.17,12.17,0,0,1,3.71-4.1,16.84,16.84,0,0,1,5.26-2.39,23.58,23.58,0,0,1,6.05-.79,24.59,24.59,0,0,1,6.47.82,14.81,14.81,0,0,1,5.23,2.58,12.54,12.54,0,0,1,3.55,4.45,15.76,15.76,0,0,1,1.42,6.39h-5.7C283.71,743.3,282.54,741,280.53,739.51Z"/><path class="cls-13" d="M297.3,755.38a15.17,15.17,0,0,1,3-5.42,14.34,14.34,0,0,1,5-3.62,18.51,18.51,0,0,1,13.73,0,14.41,14.41,0,0,1,5,3.62,15.17,15.17,0,0,1,3,5.42,21.48,21.48,0,0,1,1,6.71,21.16,21.16,0,0,1-1,6.68,15.21,15.21,0,0,1-3,5.39,14.08,14.08,0,0,1-5,3.59,18.91,18.91,0,0,1-13.73,0,14,14,0,0,1-5-3.59,15.21,15.21,0,0,1-3-5.39,21.16,21.16,0,0,1-1-6.68A21.48,21.48,0,0,1,297.3,755.38Zm5.48,12a11,11,0,0,0,2.18,3.84,9.54,9.54,0,0,0,3.27,2.37,10,10,0,0,0,7.92,0,9.54,9.54,0,0,0,3.27-2.37,11,11,0,0,0,2.18-3.84,17.91,17.91,0,0,0,0-10.52,11.52,11.52,0,0,0-2.18-3.87,9.37,9.37,0,0,0-3.27-2.4,10,10,0,0,0-7.92,0A9.37,9.37,0,0,0,305,753a11.52,11.52,0,0,0-2.18,3.87,17.91,17.91,0,0,0,0,10.52Z"/><path class="cls-13" d="M331.14,750.5v-4.73h5.51v-4.85a7.58,7.58,0,0,1,2.32-6q2.31-2.05,6.75-2a13,13,0,0,1,1.74.13,9.63,9.63,0,0,1,1.74.37V738a6.38,6.38,0,0,0-1.52-.35,14.31,14.31,0,0,0-1.52-.1,5.27,5.27,0,0,0-3,.76,3.32,3.32,0,0,0-1.08,2.9v4.53h6.34v4.73H342v27.85h-5.39V750.5Z"/><path class="cls-13" d="M353.51,739.92v-6.56h5.39v6.56Zm5.39,5.85v32.58h-5.39V745.77Z"/><path class="cls-13" d="M390.46,776.27a15,15,0,0,1-9.25,2.77,17,17,0,0,1-6.82-1.26,13.45,13.45,0,0,1-4.84-3.53,14.88,14.88,0,0,1-2.95-5.42,25.58,25.58,0,0,1-1.11-6.86,19.54,19.54,0,0,1,1.14-6.81,16.22,16.22,0,0,1,3.2-5.35,14.39,14.39,0,0,1,4.88-3.53,15,15,0,0,1,6.18-1.26,13.59,13.59,0,0,1,7.26,1.79,14.31,14.31,0,0,1,4.62,4.57,17.81,17.81,0,0,1,2.41,6,25.19,25.19,0,0,1,.54,6.24H371.19a12.93,12.93,0,0,0,.51,4.06,9.06,9.06,0,0,0,1.84,3.4,8.88,8.88,0,0,0,3.23,2.36,11.18,11.18,0,0,0,4.63.89A9.38,9.38,0,0,0,387,772.8a7.6,7.6,0,0,0,2.88-4.79h5.32A13,13,0,0,1,390.46,776.27Zm-1.3-20.92a9.19,9.19,0,0,0-2-2.93,9.3,9.3,0,0,0-6.63-2.68,9.49,9.49,0,0,0-3.77.73,8.61,8.61,0,0,0-2.88,2,9.49,9.49,0,0,0-1.9,2.93,11.16,11.16,0,0,0-.83,3.56H390A10.91,10.91,0,0,0,389.16,755.35Z"/><path class="cls-14" d="M250.94,1122a3.36,3.36,0,0,1-2.53-1.15,3.42,3.42,0,0,1-.32-4.12c6.75-10.68,11-19.23,11-22.3s-4.12-11.59-10.78-22.23a3.43,3.43,0,0,1,.34-4.12,3.36,3.36,0,0,1,3.92-.83l53.64,24.51a3.18,3.18,0,0,1,0,5.81l-53.83,24.13A3.4,3.4,0,0,1,250.94,1122Zm3.21-49c4.71,7.81,9.51,16.88,9.49,21.43s-4.89,13.68-9.68,21.52l47.55-21.31Z"/><path class="cls-12" d="M334.13,1115.63,348,1082.8h3.67l13.52,32.83h-3.53l-4-10.17H341.71l-4.1,10.17Zm8.69-13h13.67l-6.81-17Zm1.69-26.78a5.12,5.12,0,0,0,.39,2,4.94,4.94,0,0,0,1.08,1.63,5.21,5.21,0,0,0,1.65,1.11,5.08,5.08,0,0,0,4,0,5.21,5.21,0,0,0,1.65-1.11,5.35,5.35,0,0,0,1.11-1.63,5,5,0,0,0,0-4,5.35,5.35,0,0,0-1.11-1.63,5.21,5.21,0,0,0-1.65-1.11,5.08,5.08,0,0,0-4,0,5.21,5.21,0,0,0-1.65,1.11,4.94,4.94,0,0,0-1.08,1.63A5.12,5.12,0,0,0,344.51,1075.89Zm1.84,0a3.15,3.15,0,0,1,.94-2.33,3.41,3.41,0,0,1,4.68,0,3.36,3.36,0,0,1,0,4.66,3.41,3.41,0,0,1-4.68,0A3.15,3.15,0,0,1,346.35,1075.89Z"/><path class="cls-12" d="M370.78,1081.36v14.21h.1a7.13,7.13,0,0,1,1.37-2.35,8.94,8.94,0,0,1,2.06-1.71,9.41,9.41,0,0,1,2.51-1,11.33,11.33,0,0,1,2.7-.33,10.94,10.94,0,0,1,5,1,10.19,10.19,0,0,1,3.5,2.86,12.19,12.19,0,0,1,2.08,4.17,19.14,19.14,0,0,1,0,10,12.19,12.19,0,0,1-2.08,4.17,9.78,9.78,0,0,1-3.5,2.83,11.08,11.08,0,0,1-5,1,10.65,10.65,0,0,1-5.43-1.39,8,8,0,0,1-3.45-4h-.1v4.7h-2.8v-34.27Zm16.44,18.07a10.39,10.39,0,0,0-1.45-3.38,7.91,7.91,0,0,0-2.53-2.42,7,7,0,0,0-3.72-.94,8.15,8.15,0,0,0-4.08.94,8,8,0,0,0-2.7,2.42,9.68,9.68,0,0,0-1.5,3.38,16.09,16.09,0,0,0,0,7.64,9.68,9.68,0,0,0,1.5,3.38,8.12,8.12,0,0,0,2.7,2.43,8.26,8.26,0,0,0,4.08.93,7.08,7.08,0,0,0,3.72-.93,8,8,0,0,0,2.53-2.43,10.39,10.39,0,0,0,1.45-3.38,16.09,16.09,0,0,0,0-7.64Z"/><path class="cls-12" d="M398.45,1090.87v4.27h.1a7.29,7.29,0,0,1,3.09-3.63,9.11,9.11,0,0,1,4.87-1.36,12.28,12.28,0,0,1,4.37.67,7,7,0,0,1,2.83,1.89,7.08,7.08,0,0,1,1.5,3,16.89,16.89,0,0,1,.43,4v15.93h-3v-15.45a14.4,14.4,0,0,0-.29-3,6,6,0,0,0-1-2.38,4.86,4.86,0,0,0-2-1.58,7.13,7.13,0,0,0-3.07-.58,7.84,7.84,0,0,0-3.26.65,6.92,6.92,0,0,0-2.41,1.78,8.13,8.13,0,0,0-1.55,2.68,10.85,10.85,0,0,0-.6,3.39v14.44h-3v-24.76Z"/><path class="cls-12" d="M423.63,1107.45a9.35,9.35,0,0,0,1.47,3.14,8.48,8.48,0,0,0,2.56,2.31,7.17,7.17,0,0,0,3.72.91,7.46,7.46,0,0,0,5.22-1.73,9.17,9.17,0,0,0,2.61-4.61h3a12.08,12.08,0,0,1-3.55,6.53q-2.58,2.31-7.32,2.31a11.62,11.62,0,0,1-5.09-1,9.29,9.29,0,0,1-3.5-2.83,12.43,12.43,0,0,1-2-4.17,19.13,19.13,0,0,1-.65-5,18.1,18.1,0,0,1,.65-4.8,13,13,0,0,1,2-4.2,10.17,10.17,0,0,1,3.5-3,10.83,10.83,0,0,1,5.09-1.12,10.26,10.26,0,0,1,5.12,1.2,10,10,0,0,1,3.45,3.14,13,13,0,0,1,1.91,4.47,19,19,0,0,1,.48,5.11H423.17A13.58,13.58,0,0,0,423.63,1107.45Zm15.07-9.24a9.18,9.18,0,0,0-1.57-2.81,8,8,0,0,0-2.46-2,7.18,7.18,0,0,0-3.29-.74,7.29,7.29,0,0,0-3.33.74,7.79,7.79,0,0,0-2.46,2,9.72,9.72,0,0,0-1.62,2.83,14.11,14.11,0,0,0-.8,3.29H439.3A10.82,10.82,0,0,0,438.7,1098.21Z"/><path class="cls-12" d="M456.35,1090.87v2.54h-5.07v16.71a5.27,5.27,0,0,0,.41,2.32c.27.56.95.88,2.05.94a22.84,22.84,0,0,0,2.61-.15v2.55c-.45,0-.9,0-1.35,0s-.91.05-1.36.05c-2,0-3.44-.4-4.25-1.18s-1.19-2.23-1.16-4.35v-16.94h-4.34v-2.54h4.34v-7.44h3v7.44Z"/><path class="cls-12" d="M480,1098.5a2.78,2.78,0,0,1,.85,2,2.63,2.63,0,0,1-.87,2,2.77,2.77,0,0,1-2,.84,2.69,2.69,0,0,1-2-.87,2.75,2.75,0,0,1-.85-2,2.65,2.65,0,0,1,.87-2,2.82,2.82,0,0,1,2-.84A2.69,2.69,0,0,1,480,1098.5Z"/><path class="cls-12" d="M499.86,1115.63a11.62,11.62,0,0,1,.87-4.41,12.78,12.78,0,0,1,2.17-3.46,19.81,19.81,0,0,1,3-2.8c1.13-.85,2.29-1.67,3.48-2.45s2.37-1.59,3.55-2.4a23.65,23.65,0,0,0,3.16-2.62,10.53,10.53,0,0,0,2.1-2.86,7.91,7.91,0,0,0,.7-3.48,6.74,6.74,0,0,0-.6-2.9,6.52,6.52,0,0,0-1.64-2.16,7.15,7.15,0,0,0-2.42-1.34,9.07,9.07,0,0,0-2.92-.46,7.6,7.6,0,0,0-3.55.77,6.64,6.64,0,0,0-2.39,2.06,8.87,8.87,0,0,0-1.33,3,13.67,13.67,0,0,0-.36,3.55h-3a15.75,15.75,0,0,1,.6-4.77,10.12,10.12,0,0,1,2-3.77,9.22,9.22,0,0,1,3.4-2.48,12.06,12.06,0,0,1,4.8-.88,13.7,13.7,0,0,1,4.13.6,10,10,0,0,1,3.34,1.77,8.14,8.14,0,0,1,2.22,3,11,11,0,0,1,.09,8,12,12,0,0,1-1.88,3.17,19,19,0,0,1-2.7,2.67,33.78,33.78,0,0,1-3.22,2.27c-.8.55-1.75,1.15-2.85,1.81a30.13,30.13,0,0,0-3.16,2.18,17.47,17.47,0,0,0-2.68,2.61,6.74,6.74,0,0,0-1.45,3.1h18.79v2.78Z"/><path class="cls-12" d="M530.06,1108.58a7.57,7.57,0,0,0,1.64,2.78,7.48,7.48,0,0,0,2.71,1.8,9.75,9.75,0,0,0,3.64.65,10.86,10.86,0,0,0,3.24-.48,8.3,8.3,0,0,0,2.75-1.44,7.1,7.1,0,0,0,1.93-2.35,6.7,6.7,0,0,0,.73-3.17,7.24,7.24,0,0,0-.63-3.14,6.2,6.2,0,0,0-1.74-2.21,7.51,7.51,0,0,0-2.58-1.32,11.19,11.19,0,0,0-3.17-.43H536v-2.55h2.55a8.46,8.46,0,0,0,2.39-.36,6.94,6.94,0,0,0,2.23-1.1,5.85,5.85,0,0,0,1.61-1.9,5.62,5.62,0,0,0,.63-2.73,6.4,6.4,0,0,0-.58-2.86,5.65,5.65,0,0,0-1.59-2,6.57,6.57,0,0,0-2.34-1.15,11,11,0,0,0-2.88-.36,8.31,8.31,0,0,0-3.33.63,6.75,6.75,0,0,0-2.44,1.75,7.28,7.28,0,0,0-1.47,2.68,10.51,10.51,0,0,0-.43,3.44h-3a12.58,12.58,0,0,1,.75-4.42,10.26,10.26,0,0,1,2.13-3.48,9.76,9.76,0,0,1,3.35-2.3,11.26,11.26,0,0,1,4.44-.84,15.22,15.22,0,0,1,3.87.5,10.6,10.6,0,0,1,3.35,1.54A8.22,8.22,0,0,1,547,1095a7.09,7.09,0,0,1-4.22,2.69v.1a7.92,7.92,0,0,1,5.14,2.76,8.49,8.49,0,0,1,1.81,5.54,9.85,9.85,0,0,1-.94,4.39,9.48,9.48,0,0,1-2.54,3.19,10.66,10.66,0,0,1-3.72,2,15.14,15.14,0,0,1-4.44.65,14.47,14.47,0,0,1-4.8-.77,10.71,10.71,0,0,1-3.77-2.21,9.13,9.13,0,0,1-2.37-3.55,11.39,11.39,0,0,1-.6-4.85h3A9.92,9.92,0,0,0,530.06,1108.58Z"/><path class="cls-12" d="M570.94,1090.87V1095h.14a9.6,9.6,0,0,1,3.17-3.6,8.89,8.89,0,0,1,5-1.29,8.5,8.5,0,0,1,4.47,1.2,5.85,5.85,0,0,1,2.68,3.65,7.62,7.62,0,0,1,3.28-3.65,9.47,9.47,0,0,1,4.64-1.2q8.27,0,8.26,8.68v16.8h-3V1099a7.27,7.27,0,0,0-1.31-4.68q-1.31-1.6-4.59-1.61a6.6,6.6,0,0,0-3.28.74,5.78,5.78,0,0,0-2.08,2,8.53,8.53,0,0,0-1.08,2.85,17.43,17.43,0,0,0-.32,3.34v14h-3v-16.8a10.69,10.69,0,0,0-.26-2.37,5.61,5.61,0,0,0-.87-2,4.22,4.22,0,0,0-1.62-1.32,5.74,5.74,0,0,0-2.46-.48,7.5,7.5,0,0,0-3.36.7,6.13,6.13,0,0,0-2.32,1.92,8.49,8.49,0,0,0-1.33,2.88,14.2,14.2,0,0,0-.43,3.62v13.82h-3v-24.76Z"/><path class="cls-12" d="M611.45,1081.36v4.85h-3v-4.85Zm0,9.51v24.76h-3v-24.76Z"/><path class="cls-12" d="M620.29,1090.87v4.27h.1a7.29,7.29,0,0,1,3.09-3.63,9.11,9.11,0,0,1,4.87-1.36,12.28,12.28,0,0,1,4.37.67,7,7,0,0,1,2.83,1.89,7.08,7.08,0,0,1,1.5,3,16.89,16.89,0,0,1,.43,4v15.93h-3v-15.45a14.4,14.4,0,0,0-.29-3,6,6,0,0,0-1-2.38,4.86,4.86,0,0,0-2-1.58,7.13,7.13,0,0,0-3.07-.58,7.84,7.84,0,0,0-3.26.65,6.92,6.92,0,0,0-2.41,1.78,8.13,8.13,0,0,0-1.55,2.68,10.85,10.85,0,0,0-.6,3.39v14.44h-3v-24.76Z"/><path class="cls-12" d="M671,1095.69a4.9,4.9,0,0,0-1.42-1.7,6,6,0,0,0-2.05-1,9.45,9.45,0,0,0-2.47-.31,9.66,9.66,0,0,0-2,.22,6.19,6.19,0,0,0-1.91.72,4,4,0,0,0-1.4,1.32,3.62,3.62,0,0,0-.53,2,2.84,2.84,0,0,0,.51,1.71,4.5,4.5,0,0,0,1.28,1.17,7.71,7.71,0,0,0,1.69.79c.61.21,1.17.38,1.69.51l4.06.91a11.64,11.64,0,0,1,2.58.7,8.1,8.1,0,0,1,2.27,1.32,6.41,6.41,0,0,1,1.62,2,6.87,6.87,0,0,1-.29,6.27,7.48,7.48,0,0,1-2.35,2.3,9.89,9.89,0,0,1-3.21,1.27,16.43,16.43,0,0,1-3.52.39,11.45,11.45,0,0,1-7.12-2.07q-2.73-2.06-3.12-6.62h3a6,6,0,0,0,2.25,4.63,8.16,8.16,0,0,0,5.09,1.56,11.6,11.6,0,0,0,2.3-.24,7.22,7.22,0,0,0,2.19-.82,5.14,5.14,0,0,0,1.67-1.46,3.61,3.61,0,0,0,.65-2.18,3.41,3.41,0,0,0-.46-1.85,3.86,3.86,0,0,0-1.23-1.25,7.36,7.36,0,0,0-1.76-.84c-.66-.22-1.33-.42-2-.58l-3.92-.86a22.77,22.77,0,0,1-2.75-.89,8.52,8.52,0,0,1-2.2-1.25,5.21,5.21,0,0,1-1.47-1.82,6.06,6.06,0,0,1-.53-2.66,6,6,0,0,1,.84-3.22,6.78,6.78,0,0,1,2.2-2.16,10.48,10.48,0,0,1,3-1.2,15,15,0,0,1,3.31-.38,12.29,12.29,0,0,1,3.5.48,7.93,7.93,0,0,1,2.85,1.49,7.26,7.26,0,0,1,1.95,2.49,8.89,8.89,0,0,1,.83,3.51h-3A5.58,5.58,0,0,0,671,1095.69Z"/><path class="cls-12" d="M683,1081.36v4.85h-3v-4.85Zm0,9.51v24.76h-3v-24.76Z"/><path class="cls-12" d="M707.93,1115.63v-4.7h-.09a7,7,0,0,1-1.43,2.21,8.91,8.91,0,0,1-2.15,1.7,10.51,10.51,0,0,1-2.58,1.08,10,10,0,0,1-2.73.39,11.08,11.08,0,0,1-5-1,9.78,9.78,0,0,1-3.5-2.83,12.37,12.37,0,0,1-2.08-4.17,19.14,19.14,0,0,1,0-10,12.37,12.37,0,0,1,2.08-4.17,10.19,10.19,0,0,1,3.5-2.86,10.94,10.94,0,0,1,5-1,11.27,11.27,0,0,1,2.73.33,9.55,9.55,0,0,1,2.49,1,9.1,9.1,0,0,1,2.05,1.71,7.15,7.15,0,0,1,1.38,2.35h.09v-14.21h3v34.27Zm-16.68-8.56a10.61,10.61,0,0,0,1.45,3.38,8,8,0,0,0,2.53,2.43,7.08,7.08,0,0,0,3.72.93,7.8,7.8,0,0,0,6.79-3.36,9.85,9.85,0,0,0,1.49-3.38,16.09,16.09,0,0,0,0-7.64,9.85,9.85,0,0,0-1.49-3.38,7.87,7.87,0,0,0-6.79-3.36,7,7,0,0,0-3.72.94,7.91,7.91,0,0,0-2.53,2.42,10.61,10.61,0,0,0-1.45,3.38,16.09,16.09,0,0,0,0,7.64Z"/><path class="cls-12" d="M718.77,1107.45a9.18,9.18,0,0,0,1.48,3.14,8.37,8.37,0,0,0,2.56,2.31,7.17,7.17,0,0,0,3.72.91,7.43,7.43,0,0,0,5.21-1.73,9,9,0,0,0,2.61-4.61h3a12,12,0,0,1-3.55,6.53q-2.58,2.31-7.31,2.31a11.63,11.63,0,0,1-5.1-1,9.29,9.29,0,0,1-3.5-2.83,12.23,12.23,0,0,1-2-4.17,18.72,18.72,0,0,1-.66-5,17.7,17.7,0,0,1,.66-4.8,12.75,12.75,0,0,1,2-4.2,10.17,10.17,0,0,1,3.5-3,10.84,10.84,0,0,1,5.1-1.12,9.9,9.9,0,0,1,8.57,4.34A12.94,12.94,0,0,1,737,1099a19.45,19.45,0,0,1,.49,5.11H718.32A13.56,13.56,0,0,0,718.77,1107.45Zm15.07-9.24a9,9,0,0,0-1.57-2.81,7.9,7.9,0,0,0-2.46-2,7.16,7.16,0,0,0-3.28-.74,7.3,7.3,0,0,0-3.34.74,8,8,0,0,0-2.46,2,9.72,9.72,0,0,0-1.62,2.83,13.6,13.6,0,0,0-.79,3.29h16.12A10.82,10.82,0,0,0,733.84,1098.21Z"/><path class="cls-12" d="M744.58,1090.87v4.27h.1a7.29,7.29,0,0,1,3.09-3.63,9.14,9.14,0,0,1,4.88-1.36,12.32,12.32,0,0,1,4.37.67,6.94,6.94,0,0,1,2.82,1.89,7.08,7.08,0,0,1,1.5,3,16.87,16.87,0,0,1,.44,4v15.93h-3v-15.45a13.73,13.73,0,0,0-.29-3,6.17,6.17,0,0,0-1-2.38,4.89,4.89,0,0,0-2-1.58,7.11,7.11,0,0,0-3.06-.58,7.81,7.81,0,0,0-3.26.65,7,7,0,0,0-2.42,1.78,8.11,8.11,0,0,0-1.54,2.68,11.15,11.15,0,0,0-.61,3.39v14.44h-3v-24.76Z"/><path class="cls-13" d="M253.16,992.36l14.26,37.8,14.33-37.8H290v45h-5.71V999.92h-.12L270,1037.34h-5.13l-14.14-37.42h-.12v37.42h-5.71v-45Z"/><path class="cls-13" d="M299.43,998.92v-6.56h5.39v6.56Zm5.39,5.85v32.57h-5.39v-32.57Z"/><path class="cls-13" d="M318.89,992.36V1019l14.95-14.24h7.23l-13,11.85L342,1037.34h-6.85l-11.21-17-5.07,4.67v12.34H313.5v-45Z"/><path class="cls-13" d="M351.78,992.36V1019l15-14.24H374l-13,11.85,13.94,20.72h-6.84l-11.22-17-5.07,4.67v12.34h-5.39v-45Z"/><path class="cls-13" d="M402.17,1035.27a15,15,0,0,1-9.26,2.77,16.89,16.89,0,0,1-6.81-1.26,13.48,13.48,0,0,1-4.85-3.53,15,15,0,0,1-2.95-5.42,26.41,26.41,0,0,1-1.11-6.87,19.52,19.52,0,0,1,1.14-6.8,16.08,16.08,0,0,1,3.21-5.35,14.39,14.39,0,0,1,4.88-3.53,14.9,14.9,0,0,1,6.17-1.26,13.56,13.56,0,0,1,7.26,1.79,14.34,14.34,0,0,1,4.63,4.57,18.23,18.23,0,0,1,2.41,6,26.18,26.18,0,0,1,.54,6.24H382.9a12.65,12.65,0,0,0,.51,4.06,9.26,9.26,0,0,0,1.83,3.4,9,9,0,0,0,3.24,2.36,11.13,11.13,0,0,0,4.62.89,9.38,9.38,0,0,0,5.61-1.58,7.58,7.58,0,0,0,2.88-4.79h5.33A13,13,0,0,1,402.17,1035.27Zm-1.3-20.92a9.11,9.11,0,0,0-4.88-4.88,9.34,9.34,0,0,0-3.71-.73,9.46,9.46,0,0,0-3.77.73,8.75,8.75,0,0,0-2.89,2,9.67,9.67,0,0,0-1.9,2.93,11.09,11.09,0,0,0-.82,3.56h18.82A10.9,10.9,0,0,0,400.87,1014.35Z"/><path class="cls-13" d="M418.71,992.36v45h-5.39v-45Z"/><path class="cls-12" d="M338.6,1340.36l11.45,30.05,11.88-30.05h4.83v34.27h-3.29V1345h-.09l-11.79,29.61H348.5L337.16,1345h-.1v29.61h-3.29v-34.27Z"/><path class="cls-12" d="M388.51,1350.2a11,11,0,0,1,3.7,2.84,12.16,12.16,0,0,1,2.26,4.15,16.8,16.8,0,0,1,0,10.12,12.3,12.3,0,0,1-2.26,4.16,10.64,10.64,0,0,1-3.7,2.8,12.76,12.76,0,0,1-10.09,0,10.64,10.64,0,0,1-3.7-2.8,12.5,12.5,0,0,1-2.27-4.16,17,17,0,0,1,0-10.12,12.35,12.35,0,0,1,2.27-4.15,11,11,0,0,1,3.7-2.84,12.65,12.65,0,0,1,10.09,0Zm-8.86,2.4a8.41,8.41,0,0,0-2.73,2.4,11,11,0,0,0-1.64,3.39,13.62,13.62,0,0,0,0,7.73,11,11,0,0,0,1.64,3.38,8.41,8.41,0,0,0,2.73,2.4,8.45,8.45,0,0,0,7.63,0,8.52,8.52,0,0,0,2.73-2.4,11,11,0,0,0,1.64-3.38,13.62,13.62,0,0,0,0-7.73A11,11,0,0,0,390,1355a8.52,8.52,0,0,0-2.73-2.4,8.45,8.45,0,0,0-7.63,0Z"/><path class="cls-12" d="M418.91,1374.63v-4.7h-.1a7,7,0,0,1-1.42,2.21,9.32,9.32,0,0,1-2.15,1.7,10.84,10.84,0,0,1-2.58,1.08,10,10,0,0,1-2.73.39,11.08,11.08,0,0,1-4.95-1,9.78,9.78,0,0,1-3.5-2.83,12,12,0,0,1-2.08-4.17,18.87,18.87,0,0,1,0-10,12,12,0,0,1,2.08-4.17,10.19,10.19,0,0,1,3.5-2.86,10.94,10.94,0,0,1,4.95-1,11.33,11.33,0,0,1,2.73.33,9.49,9.49,0,0,1,2.48,1,8.68,8.68,0,0,1,2.05,1.71,7,7,0,0,1,1.38,2.35h.1v-14.21h3v34.27Zm-16.69-8.56a10.61,10.61,0,0,0,1.45,3.38,8.08,8.08,0,0,0,2.54,2.43,7.08,7.08,0,0,0,3.72.93,8.26,8.26,0,0,0,4.08-.93,8.12,8.12,0,0,0,2.7-2.43,10.06,10.06,0,0,0,1.5-3.38,16.09,16.09,0,0,0,0-7.64,10.06,10.06,0,0,0-1.5-3.38,8,8,0,0,0-2.7-2.42,8.15,8.15,0,0,0-4.08-.94,7,7,0,0,0-3.72.94,7.94,7.94,0,0,0-2.54,2.42,10.61,10.61,0,0,0-1.45,3.38,16.44,16.44,0,0,0,0,7.64Z"/><path class="cls-12" d="M437.4,1349.87v2.54h-5.07v16.71a5.42,5.42,0,0,0,.41,2.32c.28.56,1,.88,2.06.94a22.66,22.66,0,0,0,2.6-.15v2.55c-.45,0-.9,0-1.35,0s-.9.05-1.35.05c-2,0-3.45-.4-4.25-1.18s-1.19-2.23-1.16-4.35v-16.94h-4.35v-2.54h4.35v-7.44h3v7.44Z"/><path class="cls-12" d="M442.42,1353.71a7.08,7.08,0,0,1,2.11-2.59,8.72,8.72,0,0,1,3.11-1.49,15.24,15.24,0,0,1,4-.48,17.34,17.34,0,0,1,3.28.31,8.08,8.08,0,0,1,2.95,1.17,6.39,6.39,0,0,1,2.12,2.43,8.67,8.67,0,0,1,.82,4.06v13.15a1.6,1.6,0,0,0,1.79,1.82,2.33,2.33,0,0,0,1-.19v2.54c-.36.07-.67.12-.95.15a9.91,9.91,0,0,1-1,0,4.56,4.56,0,0,1-1.86-.31,2.41,2.41,0,0,1-1.09-.89,3.27,3.27,0,0,1-.51-1.36,11.78,11.78,0,0,1-.12-1.76h-.09a19.68,19.68,0,0,1-1.67,2.14,7.93,7.93,0,0,1-1.88,1.56,8.53,8.53,0,0,1-2.37,1,13.17,13.17,0,0,1-3.16.34,12.6,12.6,0,0,1-3.26-.41,7.27,7.27,0,0,1-2.66-1.3,6.19,6.19,0,0,1-1.78-2.25,7.44,7.44,0,0,1-.66-3.24,6.41,6.41,0,0,1,1.16-4.06,7.39,7.39,0,0,1,3.07-2.23,17.68,17.68,0,0,1,4.3-1.08c1.59-.21,3.21-.41,4.85-.6a15.58,15.58,0,0,0,1.69-.24,3,3,0,0,0,1.21-.51,2.34,2.34,0,0,0,.75-1,4.34,4.34,0,0,0,.26-1.63,5.59,5.59,0,0,0-.5-2.52,4,4,0,0,0-1.4-1.56,5.53,5.53,0,0,0-2.08-.79,13.65,13.65,0,0,0-2.54-.22,7.71,7.71,0,0,0-4.73,1.37,5.33,5.33,0,0,0-1.93,4.39h-3A9.94,9.94,0,0,1,442.42,1353.71Zm15.22,7.39a1.79,1.79,0,0,1-1.11.77,11,11,0,0,1-1.45.33q-1.93.35-4,.6a22.56,22.56,0,0,0-3.74.79,7.42,7.42,0,0,0-2.78,1.52,3.6,3.6,0,0,0-1.08,2.81,4.38,4.38,0,0,0,.46,2,4.78,4.78,0,0,0,1.23,1.53,5.32,5.32,0,0,0,1.78,1,6.43,6.43,0,0,0,2.08.34,10.28,10.28,0,0,0,3.33-.53,8.25,8.25,0,0,0,2.78-1.53,7.31,7.31,0,0,0,2.58-5.71v-3.94Z"/><path class="cls-12" d="M487.31,1377.56a9.65,9.65,0,0,1-1.91,3.75,8.4,8.4,0,0,1-3.4,2.35,14.38,14.38,0,0,1-5.15.81,15.54,15.54,0,0,1-3.67-.43,10.47,10.47,0,0,1-3.21-1.34,7.94,7.94,0,0,1-2.36-2.33,6.91,6.91,0,0,1-1.09-3.38h3a5.41,5.41,0,0,0,.94,2.32,5.69,5.69,0,0,0,1.69,1.52,7.85,7.85,0,0,0,2.2.84,12,12,0,0,0,2.46.26c2.84,0,4.88-.8,6.14-2.4s1.88-3.9,1.88-6.91v-3.36h-.1a8.83,8.83,0,0,1-3.11,3.7,8.42,8.42,0,0,1-4.81,1.39,12,12,0,0,1-5.11-1,9.48,9.48,0,0,1-3.51-2.71,11.11,11.11,0,0,1-2-4.06,18.88,18.88,0,0,1-.63-5,15.36,15.36,0,0,1,.75-4.83,12,12,0,0,1,2.17-4,10.15,10.15,0,0,1,3.53-2.69,11.28,11.28,0,0,1,4.8-1,9,9,0,0,1,2.64.38,8.45,8.45,0,0,1,2.24,1.08,9.61,9.61,0,0,1,1.81,1.61,7.43,7.43,0,0,1,1.23,1.92h.1v-4.27h3v22.75A18.84,18.84,0,0,1,487.31,1377.56Zm-7-6.6a7.73,7.73,0,0,0,2.51-2.21,9.45,9.45,0,0,0,1.52-3.14,13.13,13.13,0,0,0,.51-3.65,15.75,15.75,0,0,0-.43-3.65A10.73,10.73,0,0,0,483,1355a7.71,7.71,0,0,0-2.49-2.4,7.17,7.17,0,0,0-3.7-.91,7.36,7.36,0,0,0-3.71.89,7.84,7.84,0,0,0-2.56,2.33,9.71,9.71,0,0,0-1.48,3.28,15.94,15.94,0,0,0-.46,3.77,13.91,13.91,0,0,0,.49,3.65,9.4,9.4,0,0,0,1.49,3.14,7.7,7.7,0,0,0,2.56,2.21,7.59,7.59,0,0,0,3.67.84A7,7,0,0,0,480.33,1371Z"/><path class="cls-12" d="M496,1366.45a9.35,9.35,0,0,0,1.47,3.14,8.48,8.48,0,0,0,2.56,2.31,7.17,7.17,0,0,0,3.72.91,7.46,7.46,0,0,0,5.22-1.73,9.17,9.17,0,0,0,2.61-4.61h3A12.08,12.08,0,0,1,511,1373q-2.58,2.31-7.32,2.31a11.62,11.62,0,0,1-5.09-1,9.29,9.29,0,0,1-3.5-2.83,12.43,12.43,0,0,1-2-4.17,19.13,19.13,0,0,1-.65-5,18.1,18.1,0,0,1,.65-4.8,13,13,0,0,1,2-4.2,10.17,10.17,0,0,1,3.5-3,10.83,10.83,0,0,1,5.09-1.12,10.26,10.26,0,0,1,5.12,1.2,10,10,0,0,1,3.45,3.14,13,13,0,0,1,1.91,4.47,19,19,0,0,1,.48,5.11H495.49A13.58,13.58,0,0,0,496,1366.45Zm15.07-9.24a9.18,9.18,0,0,0-1.57-2.81,8,8,0,0,0-2.46-2,7.18,7.18,0,0,0-3.29-.74,7.29,7.29,0,0,0-3.33.74,7.9,7.9,0,0,0-2.46,2,9.72,9.72,0,0,0-1.62,2.83,14.11,14.11,0,0,0-.8,3.29h16.13A10.82,10.82,0,0,0,511,1357.21Z"/><path class="cls-12" d="M528.67,1349.87v2.54H523.6v16.71a5.27,5.27,0,0,0,.41,2.32c.27.56,1,.88,2,.94a22.84,22.84,0,0,0,2.61-.15v2.55c-.45,0-.9,0-1.35,0s-.91.05-1.36.05c-2,0-3.44-.4-4.25-1.18s-1.19-2.23-1.16-4.35v-16.94h-4.34v-2.54h4.34v-7.44h3.05v7.44Z"/><path class="cls-12" d="M552.3,1357.5a2.78,2.78,0,0,1,.85,2,2.63,2.63,0,0,1-.87,2,2.77,2.77,0,0,1-2,.84,2.69,2.69,0,0,1-2-.87,2.75,2.75,0,0,1-.85-2,2.65,2.65,0,0,1,.87-2,2.82,2.82,0,0,1,2-.84A2.69,2.69,0,0,1,552.3,1357.5Z"/><path class="cls-12" d="M578.72,1347.3a7.73,7.73,0,0,0,2.8-.79,5.21,5.21,0,0,0,2-1.9,9.48,9.48,0,0,0,1.14-3.57h2.46v33.59h-3v-25h-8.94v-2.16Q577.1,1347.47,578.72,1347.3Z"/><path class="cls-12" d="M623.51,1349.87v2.54h-5.07v16.71a5.42,5.42,0,0,0,.41,2.32c.27.56,1,.88,2,.94a22.84,22.84,0,0,0,2.61-.15v2.55c-.45,0-.9,0-1.35,0s-.91.05-1.36.05c-2,0-3.44-.4-4.25-1.18s-1.19-2.23-1.15-4.35v-16.94h-4.35v-2.54h4.35v-7.44h3v7.44Z"/><path class="cls-12" d="M631,1340.36v4.85h-3v-4.85Zm0,9.51v24.76h-3v-24.76Z"/><path class="cls-12" d="M639.64,1349.87V1354h.14a9.66,9.66,0,0,1,3.16-3.6,8.93,8.93,0,0,1,5-1.29,8.55,8.55,0,0,1,4.47,1.2,5.89,5.89,0,0,1,2.68,3.65,7.57,7.57,0,0,1,3.28-3.65,9.47,9.47,0,0,1,4.64-1.2q8.25,0,8.26,8.68v16.8h-3V1358a7.27,7.27,0,0,0-1.3-4.68q-1.3-1.6-4.59-1.61a6.6,6.6,0,0,0-3.28.74,5.78,5.78,0,0,0-2.08,2,8.32,8.32,0,0,0-1.08,2.85,17.43,17.43,0,0,0-.32,3.34v14h-3v-16.8a10.13,10.13,0,0,0-.27-2.37,5.27,5.27,0,0,0-.87-2,4.11,4.11,0,0,0-1.61-1.32,5.76,5.76,0,0,0-2.47-.48,7.48,7.48,0,0,0-3.35.7,6.13,6.13,0,0,0-2.32,1.92,8.3,8.3,0,0,0-1.33,2.88,14.2,14.2,0,0,0-.43,3.62v13.82h-3v-24.76Z"/><path class="cls-12" d="M679.31,1366.45a9,9,0,0,0,1.47,3.14,8.48,8.48,0,0,0,2.56,2.31,7.17,7.17,0,0,0,3.72.91,7.41,7.41,0,0,0,5.21-1.73,9,9,0,0,0,2.61-4.61h3a12,12,0,0,1-3.55,6.53q-2.58,2.31-7.31,2.31a11.63,11.63,0,0,1-5.1-1,9.29,9.29,0,0,1-3.5-2.83,12.23,12.23,0,0,1-2-4.17,18.72,18.72,0,0,1-.66-5,17.7,17.7,0,0,1,.66-4.8,12.75,12.75,0,0,1,2-4.2,10.17,10.17,0,0,1,3.5-3,10.84,10.84,0,0,1,5.1-1.12,9.9,9.9,0,0,1,8.57,4.34,13.15,13.15,0,0,1,1.91,4.47,19.87,19.87,0,0,1,.48,5.11H678.85A13.13,13.13,0,0,0,679.31,1366.45Zm15.06-9.24a9,9,0,0,0-1.57-2.81,7.79,7.79,0,0,0-2.46-2,7.16,7.16,0,0,0-3.28-.74,7.3,7.3,0,0,0-3.34.74,8,8,0,0,0-2.46,2,10.19,10.19,0,0,0-1.62,2.83,14.09,14.09,0,0,0-.79,3.29H695A11.14,11.14,0,0,0,694.37,1357.21Z"/><path class="cls-12" d="M729.89,1354.69a4.93,4.93,0,0,0-1.43-1.7,5.92,5.92,0,0,0-2.05-1,9.32,9.32,0,0,0-2.46-.31,9.6,9.6,0,0,0-2.05.22,6.09,6.09,0,0,0-1.91.72,3.94,3.94,0,0,0-1.4,1.32,3.54,3.54,0,0,0-.53,2,2.9,2.9,0,0,0,.5,1.71,4.64,4.64,0,0,0,1.28,1.17,7.93,7.93,0,0,0,1.69.79c.62.21,1.18.38,1.69.51l4.06.91a11.5,11.5,0,0,1,2.58.7,8,8,0,0,1,2.27,1.32,6.41,6.41,0,0,1,1.62,2,6,6,0,0,1,.63,2.84,6.21,6.21,0,0,1-.92,3.43,7.45,7.45,0,0,1-2.34,2.3,9.89,9.89,0,0,1-3.21,1.27,16.52,16.52,0,0,1-3.53.39,11.47,11.47,0,0,1-7.12-2.07q-2.73-2.06-3.11-6.62h3a6,6,0,0,0,2.24,4.63,8.19,8.19,0,0,0,5.1,1.56,11.51,11.51,0,0,0,2.29-.24,7.28,7.28,0,0,0,2.2-.82,5.25,5.25,0,0,0,1.67-1.46,3.61,3.61,0,0,0,.65-2.18,3.5,3.5,0,0,0-.46-1.85,4.07,4.07,0,0,0-1.23-1.25,7.62,7.62,0,0,0-1.77-.84c-.66-.22-1.32-.42-2-.58l-3.91-.86a21.68,21.68,0,0,1-2.75-.89,8.52,8.52,0,0,1-2.2-1.25,5.1,5.1,0,0,1-1.47-1.82,6.74,6.74,0,0,1,.31-5.88,6.68,6.68,0,0,1,2.2-2.16,10.37,10.37,0,0,1,3-1.2,15,15,0,0,1,3.3-.38,12.19,12.19,0,0,1,3.5.48,7.93,7.93,0,0,1,2.85,1.49,7.28,7.28,0,0,1,2,2.49,8.89,8.89,0,0,1,.82,3.51h-3A5.73,5.73,0,0,0,729.89,1354.69Z"/><path class="cls-12" d="M741.86,1340.36v4.85h-3v-4.85Zm0,9.51v24.76h-3v-24.76Z"/><path class="cls-12" d="M766.83,1374.63v-4.7h-.1a7,7,0,0,1-1.42,2.21,9.32,9.32,0,0,1-2.15,1.7,10.84,10.84,0,0,1-2.58,1.08,10,10,0,0,1-2.73.39,11.08,11.08,0,0,1-5-1,9.78,9.78,0,0,1-3.5-2.83,12,12,0,0,1-2.08-4.17,18.87,18.87,0,0,1,0-10,12,12,0,0,1,2.08-4.17,10.19,10.19,0,0,1,3.5-2.86,10.94,10.94,0,0,1,5-1,11.33,11.33,0,0,1,2.73.33,9.49,9.49,0,0,1,2.48,1,8.94,8.94,0,0,1,2.06,1.71,7.13,7.13,0,0,1,1.37,2.35h.1v-14.21h3v34.27Zm-16.68-8.56a10.37,10.37,0,0,0,1.44,3.38,8.08,8.08,0,0,0,2.54,2.43,7.08,7.08,0,0,0,3.72.93,8.26,8.26,0,0,0,4.08-.93,8.12,8.12,0,0,0,2.7-2.43,10.06,10.06,0,0,0,1.5-3.38,16.09,16.09,0,0,0,0-7.64,10.06,10.06,0,0,0-1.5-3.38,8,8,0,0,0-2.7-2.42,8.15,8.15,0,0,0-4.08-.94,7,7,0,0,0-3.72.94,7.94,7.94,0,0,0-2.54,2.42,10.37,10.37,0,0,0-1.44,3.38,16.09,16.09,0,0,0,0,7.64Z"/><path class="cls-12" d="M777.67,1366.45a9.35,9.35,0,0,0,1.47,3.14,8.48,8.48,0,0,0,2.56,2.31,7.17,7.17,0,0,0,3.72.91,7.46,7.46,0,0,0,5.22-1.73,9.08,9.08,0,0,0,2.6-4.61h3a12.08,12.08,0,0,1-3.55,6.53c-1.73,1.54-4.16,2.31-7.32,2.31a11.62,11.62,0,0,1-5.09-1,9.22,9.22,0,0,1-3.5-2.83,12.24,12.24,0,0,1-2-4.17,19.13,19.13,0,0,1-.65-5,18.1,18.1,0,0,1,.65-4.8,12.77,12.77,0,0,1,2-4.2,10.08,10.08,0,0,1,3.5-3,10.83,10.83,0,0,1,5.09-1.12,10.26,10.26,0,0,1,5.12,1.2,10,10,0,0,1,3.45,3.14,13,13,0,0,1,1.91,4.47,19,19,0,0,1,.48,5.11H777.21A13.13,13.13,0,0,0,777.67,1366.45Zm15.07-9.24a9.18,9.18,0,0,0-1.57-2.81,7.94,7.94,0,0,0-2.47-2,7.13,7.13,0,0,0-3.28-.74,7.26,7.26,0,0,0-3.33.74,7.79,7.79,0,0,0-2.46,2,9.72,9.72,0,0,0-1.62,2.83,14.11,14.11,0,0,0-.8,3.29h16.13A10.82,10.82,0,0,0,792.74,1357.21Z"/><path class="cls-12" d="M803.48,1349.87v4.27h.1a7.29,7.29,0,0,1,3.09-3.63,9.11,9.11,0,0,1,4.87-1.36,12.38,12.38,0,0,1,4.38.67,6.6,6.6,0,0,1,4.32,4.89,16.89,16.89,0,0,1,.43,4v15.93h-3v-15.45a14.4,14.4,0,0,0-.29-3,6.17,6.17,0,0,0-1-2.38,5,5,0,0,0-2-1.58,7.13,7.13,0,0,0-3.07-.58,7.84,7.84,0,0,0-3.26.65,6.92,6.92,0,0,0-2.41,1.78,8.13,8.13,0,0,0-1.55,2.68,10.85,10.85,0,0,0-.6,3.39v14.44h-3v-24.76Z"/><path class="cls-13" d="M246.79,1251.36v19.34h23.83v-19.34h6v45h-6v-20.6H246.79v20.6h-6v-45Z"/><path class="cls-13" d="M314.67,1296.22a7.73,7.73,0,0,1-3.87.82,4.62,4.62,0,0,1-3.32-1.17,5,5,0,0,1-1.24-3.81,12.78,12.78,0,0,1-5.16,3.81,17.84,17.84,0,0,1-10.59.66A9.76,9.76,0,0,1,287,1295a7.59,7.59,0,0,1-2.32-2.8,9.43,9.43,0,0,1-.85-4.19,9.59,9.59,0,0,1,.95-4.54,8.29,8.29,0,0,1,2.5-2.87,11.73,11.73,0,0,1,3.55-1.67c1.33-.37,2.7-.69,4.09-.94s2.88-.52,4.21-.66a24.12,24.12,0,0,0,3.52-.63,5.86,5.86,0,0,0,2.41-1.2,2.91,2.91,0,0,0,.89-2.3,5.25,5.25,0,0,0-.67-2.83,4.48,4.48,0,0,0-1.71-1.64,7.08,7.08,0,0,0-2.34-.76,18.87,18.87,0,0,0-2.57-.19A11.44,11.44,0,0,0,293,1269c-1.53.87-2.35,2.49-2.48,4.89h-5.38a11.49,11.49,0,0,1,1.26-5.11,9.61,9.61,0,0,1,3.05-3.37,12.76,12.76,0,0,1,4.34-1.86A23.49,23.49,0,0,1,299,1263a30.79,30.79,0,0,1,4.4.31,11.54,11.54,0,0,1,4,1.29,7.49,7.49,0,0,1,2.85,2.74,8.65,8.65,0,0,1,1.08,4.58v16.73a12.25,12.25,0,0,0,.22,2.76c.15.59.65.88,1.49.88a6.43,6.43,0,0,0,1.65-.25Zm-8.75-16.7a6.57,6.57,0,0,1-2.66,1.1q-1.65.35-3.45.57c-1.21.14-2.42.31-3.65.5a13.5,13.5,0,0,0-3.29.91,5.94,5.94,0,0,0-2.38,1.78,5,5,0,0,0-.92,3.17,4.25,4.25,0,0,0,.54,2.22,4.51,4.51,0,0,0,1.4,1.48,5.83,5.83,0,0,0,2,.81,11.06,11.06,0,0,0,2.41.25,12.83,12.83,0,0,0,4.56-.72,9.43,9.43,0,0,0,3.11-1.82,7.14,7.14,0,0,0,1.77-2.38,5.94,5.94,0,0,0,.57-2.41Z"/><path class="cls-13" d="M324.75,1263.77v5.17h.12q3.36-5.93,10.65-5.92a14.27,14.27,0,0,1,5.39.88,8.89,8.89,0,0,1,3.49,2.46,9.07,9.07,0,0,1,1.86,3.75,19.89,19.89,0,0,1,.54,4.81v21.42h-5.38v-22a6.44,6.44,0,0,0-1.78-4.78,6.6,6.6,0,0,0-4.88-1.77,11.13,11.13,0,0,0-4.28.76,8.11,8.11,0,0,0-3,2.14,9.34,9.34,0,0,0-1.8,3.24,12.91,12.91,0,0,0-.61,4.07v18.39h-5.38v-32.57Z"/><path class="cls-13" d="M360,1263.77v5.17h.12q3.36-5.93,10.65-5.92a14.27,14.27,0,0,1,5.39.88,8.86,8.86,0,0,1,3.48,2.46,9.08,9.08,0,0,1,1.87,3.75,19.89,19.89,0,0,1,.54,4.81v21.42h-5.38v-22a6.44,6.44,0,0,0-1.78-4.78,6.6,6.6,0,0,0-4.88-1.77,11.13,11.13,0,0,0-4.28.76,8,8,0,0,0-3,2.14,9.34,9.34,0,0,0-1.8,3.24,12.91,12.91,0,0,0-.61,4.07v18.39h-5.38v-32.57Z"/><path class="cls-13" d="M419.18,1296.22a7.69,7.69,0,0,1-3.86.82,4.63,4.63,0,0,1-3.33-1.17,5,5,0,0,1-1.24-3.81,12.78,12.78,0,0,1-5.16,3.81,17.84,17.84,0,0,1-10.59.66,9.76,9.76,0,0,1-3.45-1.57,7.57,7.57,0,0,1-2.31-2.8,9.43,9.43,0,0,1-.86-4.19,9.59,9.59,0,0,1,.95-4.54,8.31,8.31,0,0,1,2.51-2.87,11.57,11.57,0,0,1,3.54-1.67c1.34-.37,2.7-.69,4.09-.94s2.89-.52,4.22-.66a24.62,24.62,0,0,0,3.52-.63,5.88,5.88,0,0,0,2.4-1.2,2.88,2.88,0,0,0,.89-2.3,5.25,5.25,0,0,0-.67-2.83,4.48,4.48,0,0,0-1.71-1.64,7,7,0,0,0-2.34-.76,18.75,18.75,0,0,0-2.57-.19,11.44,11.44,0,0,0-5.7,1.29c-1.52.87-2.35,2.49-2.47,4.89h-5.39a11.49,11.49,0,0,1,1.27-5.11,9.58,9.58,0,0,1,3-3.37,12.85,12.85,0,0,1,4.34-1.86,23.56,23.56,0,0,1,5.23-.56,30.69,30.69,0,0,1,4.4.31,11.66,11.66,0,0,1,4,1.29,7.56,7.56,0,0,1,2.85,2.74,8.75,8.75,0,0,1,1.07,4.58v16.73a12.11,12.11,0,0,0,.23,2.76c.14.59.64.88,1.49.88a6.42,6.42,0,0,0,1.64-.25Zm-8.74-16.7a6.69,6.69,0,0,1-2.66,1.1c-1.1.23-2.25.42-3.46.57s-2.42.31-3.64.5a13.46,13.46,0,0,0-3.3.91,6,6,0,0,0-2.38,1.78,5,5,0,0,0-.92,3.17,4.25,4.25,0,0,0,.54,2.22,4.51,4.51,0,0,0,1.4,1.48,5.83,5.83,0,0,0,2,.81,11.13,11.13,0,0,0,2.41.25,12.93,12.93,0,0,0,4.57-.72,9.48,9.48,0,0,0,3.1-1.82,7.18,7.18,0,0,0,1.78-2.38,5.94,5.94,0,0,0,.57-2.41Z"/><path class="cls-15" d="M246.91,1640a3.37,3.37,0,0,1-2.53-1.15,3.45,3.45,0,0,1-.32-4.12c6.76-10.68,11-19.23,11-22.3s-4.12-11.59-10.78-22.23a3.43,3.43,0,0,1,.34-4.12,3.36,3.36,0,0,1,3.92-.83l53.64,24.51a3.18,3.18,0,0,1,0,5.81l-53.84,24.13A3.33,3.33,0,0,1,246.91,1640Zm3.21-49c4.72,7.81,9.52,16.88,9.5,21.43s-4.9,13.68-9.68,21.52l47.54-21.31Z"/><path class="cls-12" d="M330.1,1633.63,344,1600.8h3.67l13.52,32.83h-3.52l-4.06-10.17H337.69l-4.11,10.17Zm8.7-13h13.66l-6.81-17Zm1.69-26.78a5.3,5.3,0,0,0,.38,2,4.81,4.81,0,0,0,1.09,1.63,5.17,5.17,0,0,0,1.64,1.11,5.11,5.11,0,0,0,4,0,5.17,5.17,0,0,0,1.64-1.11,5,5,0,0,0,1.11-1.63,5,5,0,0,0,0-4,5,5,0,0,0-1.11-1.63,5.17,5.17,0,0,0-1.64-1.11,5.11,5.11,0,0,0-4,0,5.17,5.17,0,0,0-1.64,1.11,4.81,4.81,0,0,0-1.09,1.63A5.3,5.3,0,0,0,340.49,1593.89Zm1.83,0a3.32,3.32,0,0,1,5.63-2.33,3.36,3.36,0,0,1,0,4.66,3.29,3.29,0,0,1-5.63-2.33Z"/><path class="cls-12" d="M366.76,1599.36v14.21h.09a7,7,0,0,1,1.38-2.35,8.89,8.89,0,0,1,2-1.71,9.41,9.41,0,0,1,2.51-1,11.35,11.35,0,0,1,2.71-.33,10.94,10.94,0,0,1,4.95,1,10.28,10.28,0,0,1,3.5,2.86,12.17,12.17,0,0,1,2.07,4.17,18.87,18.87,0,0,1,0,10,12.17,12.17,0,0,1-2.07,4.17,9.87,9.87,0,0,1-3.5,2.83,11.08,11.08,0,0,1-4.95,1,10.71,10.71,0,0,1-5.44-1.39,8,8,0,0,1-3.45-4h-.1v4.7h-2.8v-34.27Zm16.44,18.07a10.61,10.61,0,0,0-1.45-3.38,7.94,7.94,0,0,0-2.54-2.42,7,7,0,0,0-3.71-.94,8.15,8.15,0,0,0-4.08.94,8,8,0,0,0-2.71,2.42,10.06,10.06,0,0,0-1.5,3.38,16.44,16.44,0,0,0,0,7.64,10.06,10.06,0,0,0,1.5,3.38,8.15,8.15,0,0,0,2.71,2.43,8.26,8.26,0,0,0,4.08.93,7,7,0,0,0,3.71-.93,8.08,8.08,0,0,0,2.54-2.43,10.61,10.61,0,0,0,1.45-3.38,16.09,16.09,0,0,0,0-7.64Z"/><path class="cls-12" d="M394.43,1608.87v4.27h.09a7.29,7.29,0,0,1,3.09-3.63,9.14,9.14,0,0,1,4.88-1.36,12.32,12.32,0,0,1,4.37.67,6.88,6.88,0,0,1,2.82,1.89,7.08,7.08,0,0,1,1.5,3,16.87,16.87,0,0,1,.44,4v15.93h-3.05v-15.45a13.73,13.73,0,0,0-.29-3,6.17,6.17,0,0,0-1-2.38,4.82,4.82,0,0,0-2-1.58,7.11,7.11,0,0,0-3.06-.58,7.81,7.81,0,0,0-3.26.65,7,7,0,0,0-2.42,1.78,8.11,8.11,0,0,0-1.54,2.68,10.85,10.85,0,0,0-.6,3.39v14.44h-3.05v-24.76Z"/><path class="cls-12" d="M419.61,1625.45a9,9,0,0,0,1.47,3.14,8.48,8.48,0,0,0,2.56,2.31,7.17,7.17,0,0,0,3.72.91,7.41,7.41,0,0,0,5.21-1.73,9,9,0,0,0,2.61-4.61h3a12,12,0,0,1-3.55,6.53q-2.58,2.31-7.31,2.31a11.66,11.66,0,0,1-5.1-1,9.29,9.29,0,0,1-3.5-2.83,12.23,12.23,0,0,1-2-4.17,18.72,18.72,0,0,1-.65-5,17.69,17.69,0,0,1,.65-4.8,12.75,12.75,0,0,1,2-4.2,10.17,10.17,0,0,1,3.5-3,10.87,10.87,0,0,1,5.1-1.12,9.87,9.87,0,0,1,8.57,4.34,13.15,13.15,0,0,1,1.91,4.47,19.87,19.87,0,0,1,.48,5.11H419.15A13.13,13.13,0,0,0,419.61,1625.45Zm15.06-9.24a9,9,0,0,0-1.57-2.81,7.79,7.79,0,0,0-2.46-2,7.13,7.13,0,0,0-3.28-.74,7.23,7.23,0,0,0-3.33.74,7.94,7.94,0,0,0-2.47,2,9.93,9.93,0,0,0-1.61,2.83,13.63,13.63,0,0,0-.8,3.29h16.13A10.83,10.83,0,0,0,434.67,1616.21Z"/><path class="cls-12" d="M452.32,1608.87v2.54h-5.07v16.71a5.42,5.42,0,0,0,.41,2.32c.28.56,1,.88,2.06.94a22.8,22.8,0,0,0,2.6-.15v2.55c-.45,0-.9,0-1.35,0s-.9.05-1.35.05c-2,0-3.45-.4-4.25-1.18s-1.19-2.23-1.16-4.35v-16.94h-4.35v-2.54h4.35v-7.44h3v7.44Z"/><path class="cls-12" d="M476,1616.5a2.82,2.82,0,0,1,.85,2,2.63,2.63,0,0,1-.87,2,2.77,2.77,0,0,1-2,.84,2.71,2.71,0,0,1-2-.87,2.78,2.78,0,0,1-.84-2,2.65,2.65,0,0,1,.87-2,2.82,2.82,0,0,1,2-.84A2.69,2.69,0,0,1,476,1616.5Z"/><path class="cls-12" d="M495.83,1633.63a11.62,11.62,0,0,1,.87-4.41,13,13,0,0,1,2.17-3.46,20.36,20.36,0,0,1,3.05-2.8c1.12-.85,2.28-1.67,3.47-2.45s2.38-1.59,3.55-2.4a23.75,23.75,0,0,0,3.17-2.62,10.53,10.53,0,0,0,2.1-2.86,8.06,8.06,0,0,0,.7-3.48,6.6,6.6,0,0,0-.61-2.9,6.39,6.39,0,0,0-1.64-2.16,7.1,7.1,0,0,0-2.41-1.34,9.11,9.11,0,0,0-2.92-.46,7.6,7.6,0,0,0-3.55.77,6.56,6.56,0,0,0-2.39,2.06,8.5,8.5,0,0,0-1.33,3,12.86,12.86,0,0,0-.36,3.55h-3.05a15.44,15.44,0,0,1,.61-4.77,10.1,10.1,0,0,1,2-3.77,9.26,9.26,0,0,1,3.41-2.48,12,12,0,0,1,4.8-.88,13.7,13.7,0,0,1,4.13.6,9.85,9.85,0,0,1,3.33,1.77,8,8,0,0,1,2.22,3,10,10,0,0,1,.8,4.12,10.26,10.26,0,0,1-.7,3.84,12.52,12.52,0,0,1-1.88,3.17,19,19,0,0,1-2.71,2.67,32.41,32.41,0,0,1-3.21,2.27c-.81.55-1.76,1.15-2.85,1.81a29.12,29.12,0,0,0-3.16,2.18,17,17,0,0,0-2.68,2.61,6.64,6.64,0,0,0-1.45,3.1h18.78v2.78Z"/><path class="cls-12" d="M547.16,1608.87v2.54h-5.07v16.71a5.42,5.42,0,0,0,.41,2.32c.28.56,1,.88,2.06.94a22.66,22.66,0,0,0,2.6-.15v2.55c-.45,0-.9,0-1.35,0s-.9.05-1.35.05c-2,0-3.45-.4-4.25-1.18s-1.19-2.23-1.16-4.35v-16.94h-4.34v-2.54h4.34v-7.44h3v7.44Z"/><path class="cls-12" d="M554.65,1599.36v4.85h-3v-4.85Zm0,9.51v24.76h-3v-24.76Z"/><path class="cls-12" d="M563.29,1608.87V1613h.15a9.58,9.58,0,0,1,3.16-3.6,8.9,8.9,0,0,1,5-1.29,8.49,8.49,0,0,1,4.46,1.2,5.85,5.85,0,0,1,2.68,3.65,7.59,7.59,0,0,1,3.29-3.65,9.43,9.43,0,0,1,4.63-1.2q8.26,0,8.26,8.68v16.8h-3V1617a7.33,7.33,0,0,0-1.3-4.68q-1.3-1.6-4.59-1.61a6.65,6.65,0,0,0-3.29.74,5.68,5.68,0,0,0-2.07,2,8.33,8.33,0,0,0-1.09,2.85,17.44,17.44,0,0,0-.31,3.34v14h-3v-16.8a10.13,10.13,0,0,0-.27-2.37,5.61,5.61,0,0,0-.87-2,4.08,4.08,0,0,0-1.62-1.32,5.68,5.68,0,0,0-2.46-.48,7.5,7.5,0,0,0-3.36.7,6,6,0,0,0-2.31,1.92,8.3,8.3,0,0,0-1.33,2.88,14.19,14.19,0,0,0-.44,3.62v13.82h-3v-24.76Z"/><path class="cls-12" d="M603,1625.45a9.35,9.35,0,0,0,1.47,3.14,8.48,8.48,0,0,0,2.56,2.31,7.17,7.17,0,0,0,3.72.91,7.46,7.46,0,0,0,5.22-1.73,9.08,9.08,0,0,0,2.6-4.61h3.05A12.08,12.08,0,0,1,618,1632c-1.73,1.54-4.16,2.31-7.32,2.31a11.62,11.62,0,0,1-5.09-1,9.22,9.22,0,0,1-3.5-2.83,12.24,12.24,0,0,1-2-4.17,19.13,19.13,0,0,1-.65-5,18.1,18.1,0,0,1,.65-4.8,12.77,12.77,0,0,1,2-4.2,10.08,10.08,0,0,1,3.5-3,10.83,10.83,0,0,1,5.09-1.12,10.26,10.26,0,0,1,5.12,1.2,10,10,0,0,1,3.45,3.14,13,13,0,0,1,1.91,4.47,19,19,0,0,1,.48,5.11H602.5A13.58,13.58,0,0,0,603,1625.45Zm15.07-9.24a9.18,9.18,0,0,0-1.57-2.81,8,8,0,0,0-2.46-2,7.21,7.21,0,0,0-3.29-.74,7.29,7.29,0,0,0-3.33.74,7.79,7.79,0,0,0-2.46,2,9.72,9.72,0,0,0-1.62,2.83,14.11,14.11,0,0,0-.8,3.29h16.13A10.82,10.82,0,0,0,618,1616.21Z"/><path class="cls-12" d="M628.58,1608.87v5.8h.09a9.62,9.62,0,0,1,3.6-4.65,9.44,9.44,0,0,1,5.82-1.49v3a9.2,9.2,0,0,0-3.77.56,8.51,8.51,0,0,0-2.92,1.85,8.24,8.24,0,0,0-1.9,2.85,9.33,9.33,0,0,0-.68,3.62v13.2h-3v-24.76Z"/><path class="cls-12" d="M668.75,1613.69a4.8,4.8,0,0,0-1.42-1.7,6,6,0,0,0-2.05-1,9.37,9.37,0,0,0-2.46-.31,9.76,9.76,0,0,0-2.06.22,6,6,0,0,0-1.9.72,3.94,3.94,0,0,0-1.4,1.32,3.55,3.55,0,0,0-.54,2,2.84,2.84,0,0,0,.51,1.71,4.64,4.64,0,0,0,1.28,1.17,7.93,7.93,0,0,0,1.69.79c.61.21,1.18.38,1.69.51l4.06.91a11.5,11.5,0,0,1,2.58.7,8.1,8.1,0,0,1,2.27,1.32,6.41,6.41,0,0,1,1.62,2,6,6,0,0,1,.63,2.84,6.21,6.21,0,0,1-.92,3.43,7.45,7.45,0,0,1-2.34,2.3,9.89,9.89,0,0,1-3.21,1.27,16.59,16.59,0,0,1-3.53.39,11.47,11.47,0,0,1-7.12-2.07q-2.73-2.06-3.12-6.62h3a6,6,0,0,0,2.25,4.63,8.18,8.18,0,0,0,5.09,1.56,11.6,11.6,0,0,0,2.3-.24,7.28,7.28,0,0,0,2.2-.82,5.21,5.21,0,0,0,1.66-1.46,3.55,3.55,0,0,0,.65-2.18,3.5,3.5,0,0,0-.45-1.85,4,4,0,0,0-1.24-1.25,7.36,7.36,0,0,0-1.76-.84c-.66-.22-1.33-.42-2-.58l-3.92-.86a22.77,22.77,0,0,1-2.75-.89,8.46,8.46,0,0,1-2.19-1.25,5.24,5.24,0,0,1-1.48-1.82,6.06,6.06,0,0,1-.53-2.66,5.88,5.88,0,0,1,.85-3.22,6.65,6.65,0,0,1,2.19-2.16,10.6,10.6,0,0,1,3-1.2,15.08,15.08,0,0,1,3.31-.38,12.24,12.24,0,0,1,3.5.48,7.93,7.93,0,0,1,2.85,1.49,7.41,7.41,0,0,1,2,2.49,9.07,9.07,0,0,1,.82,3.51h-3A5.58,5.58,0,0,0,668.75,1613.69Z"/><path class="cls-12" d="M680.73,1599.36v4.85h-3v-4.85Zm0,9.51v24.76h-3v-24.76Z"/><path class="cls-12" d="M705.7,1633.63v-4.7h-.1a7,7,0,0,1-1.43,2.21,9.06,9.06,0,0,1-2.14,1.7,10.74,10.74,0,0,1-2.59,1.08,10,10,0,0,1-2.73.39,11.11,11.11,0,0,1-5-1,9.87,9.87,0,0,1-3.5-2.83,12.17,12.17,0,0,1-2.07-4.17,18.87,18.87,0,0,1,0-10,12.17,12.17,0,0,1,2.07-4.17,10.28,10.28,0,0,1,3.5-2.86,11,11,0,0,1,5-1,11.21,11.21,0,0,1,2.73.33,9.41,9.41,0,0,1,2.49,1,8.89,8.89,0,0,1,2.05,1.71,7,7,0,0,1,1.38,2.35h.09v-14.21h3v34.27ZM689,1625.07a10.61,10.61,0,0,0,1.45,3.38,8,8,0,0,0,2.54,2.43,7.07,7.07,0,0,0,3.71.93,8.26,8.26,0,0,0,4.08-.93,8.06,8.06,0,0,0,2.71-2.43,10.06,10.06,0,0,0,1.5-3.38,16.44,16.44,0,0,0,0-7.64,10.06,10.06,0,0,0-1.5-3.38,7.93,7.93,0,0,0-2.71-2.42,8.15,8.15,0,0,0-4.08-.94,7,7,0,0,0-3.71.94,7.84,7.84,0,0,0-2.54,2.42,10.61,10.61,0,0,0-1.45,3.38,16.09,16.09,0,0,0,0,7.64Z"/><path class="cls-12" d="M716.54,1625.45a9,9,0,0,0,1.47,3.14,8.48,8.48,0,0,0,2.56,2.31,7.17,7.17,0,0,0,3.72.91,7.41,7.41,0,0,0,5.21-1.73,9,9,0,0,0,2.61-4.61h3a12,12,0,0,1-3.55,6.53q-2.58,2.31-7.31,2.31a11.63,11.63,0,0,1-5.1-1,9.29,9.29,0,0,1-3.5-2.83,12.23,12.23,0,0,1-2-4.17,18.72,18.72,0,0,1-.65-5,17.69,17.69,0,0,1,.65-4.8,12.75,12.75,0,0,1,2-4.2,10.17,10.17,0,0,1,3.5-3,10.84,10.84,0,0,1,5.1-1.12,9.87,9.87,0,0,1,8.57,4.34,13.15,13.15,0,0,1,1.91,4.47,19.87,19.87,0,0,1,.48,5.11H716.08A13.13,13.13,0,0,0,716.54,1625.45Zm15.06-9.24a9,9,0,0,0-1.57-2.81,7.79,7.79,0,0,0-2.46-2,7.75,7.75,0,0,0-6.61,0,7.94,7.94,0,0,0-2.47,2,10.19,10.19,0,0,0-1.62,2.83,14.09,14.09,0,0,0-.79,3.29h16.13A11.14,11.14,0,0,0,731.6,1616.21Z"/><path class="cls-12" d="M742.35,1608.87v4.27h.09a7.29,7.29,0,0,1,3.09-3.63,9.14,9.14,0,0,1,4.88-1.36,12.28,12.28,0,0,1,4.37.67,7,7,0,0,1,2.83,1.89,7.18,7.18,0,0,1,1.49,3,16.87,16.87,0,0,1,.44,4v15.93h-3v-15.45a14.4,14.4,0,0,0-.29-3,6.34,6.34,0,0,0-1-2.38,4.86,4.86,0,0,0-2-1.58,7.16,7.16,0,0,0-3.07-.58,7.84,7.84,0,0,0-3.26.65,6.83,6.83,0,0,0-2.41,1.78,8,8,0,0,0-1.55,2.68,10.85,10.85,0,0,0-.6,3.39v14.44H739.3v-24.76Z"/><path class="cls-13" d="M270.5,1510.36v5H246.79v14.3h20.79v5H246.79v20.6h-6v-45Z"/><path class="cls-13" d="M305.29,1555.22a7.73,7.73,0,0,1-3.87.82,4.62,4.62,0,0,1-3.32-1.17,5,5,0,0,1-1.24-3.81,12.78,12.78,0,0,1-5.16,3.81,17.84,17.84,0,0,1-10.59.66,9.76,9.76,0,0,1-3.45-1.57,7.69,7.69,0,0,1-2.32-2.8,9.43,9.43,0,0,1-.85-4.19,9.59,9.59,0,0,1,.95-4.54,8.29,8.29,0,0,1,2.5-2.87,11.73,11.73,0,0,1,3.55-1.67c1.33-.37,2.7-.69,4.09-.94s2.88-.52,4.21-.66a24.12,24.12,0,0,0,3.52-.63,5.86,5.86,0,0,0,2.41-1.2,2.91,2.91,0,0,0,.89-2.3,5.25,5.25,0,0,0-.67-2.83,4.48,4.48,0,0,0-1.71-1.64,7.08,7.08,0,0,0-2.34-.76,18.87,18.87,0,0,0-2.57-.19,11.44,11.44,0,0,0-5.7,1.29c-1.53.87-2.35,2.49-2.48,4.89h-5.38a11.49,11.49,0,0,1,1.26-5.11,9.61,9.61,0,0,1,3.05-3.37,12.76,12.76,0,0,1,4.34-1.86,23.49,23.49,0,0,1,5.23-.56,30.79,30.79,0,0,1,4.4.31,11.54,11.54,0,0,1,4,1.29,7.49,7.49,0,0,1,2.85,2.74,8.65,8.65,0,0,1,1.08,4.58v16.73a12.25,12.25,0,0,0,.22,2.76c.15.59.65.88,1.49.88a6.43,6.43,0,0,0,1.65-.25Zm-8.75-16.7a6.57,6.57,0,0,1-2.66,1.1q-1.65.35-3.45.57c-1.21.14-2.42.31-3.65.5a13.5,13.5,0,0,0-3.29.91,5.94,5.94,0,0,0-2.38,1.78,5,5,0,0,0-.92,3.17,4.25,4.25,0,0,0,.54,2.22,4.51,4.51,0,0,0,1.4,1.48,5.83,5.83,0,0,0,2,.81,11.06,11.06,0,0,0,2.41.25,12.83,12.83,0,0,0,4.56-.72,9.43,9.43,0,0,0,3.11-1.82,7.14,7.14,0,0,0,1.77-2.38,5.94,5.94,0,0,0,.57-2.41Z"/><path class="cls-13" d="M324.3,1522.77v4.73h-6.52v20.22a6.06,6.06,0,0,0,.15,1.51,1.58,1.58,0,0,0,.61.89,2.69,2.69,0,0,0,1.23.41,19.06,19.06,0,0,0,2.06.09h2.47v4.72h-4.12a19.47,19.47,0,0,1-3.58-.28,5.19,5.19,0,0,1-2.4-1,4.42,4.42,0,0,1-1.37-2.14,12.48,12.48,0,0,1-.44-3.65V1527.5h-5.58v-4.73h5.58V1513h5.39v9.76Z"/><path class="cls-13" d="M330.58,1516.92v-6.56H336v6.56Zm5.39,5.85v32.57h-5.39v-32.57Z"/><path class="cls-13" d="M349.4,1522.77v4.79h.13a12.83,12.83,0,0,1,16.1-4.28,7.07,7.07,0,0,1,3.48,4.28,11.43,11.43,0,0,1,4.34-4.09,12.28,12.28,0,0,1,5.93-1.45,17.57,17.57,0,0,1,4.47.53,9.42,9.42,0,0,1,3.42,1.67,7.69,7.69,0,0,1,2.22,2.93,10.65,10.65,0,0,1,.79,4.32v23.87h-5.39V1534a15.09,15.09,0,0,0-.25-2.84,5.86,5.86,0,0,0-.95-2.3,4.81,4.81,0,0,0-1.93-1.54,7.7,7.7,0,0,0-3.2-.57,8.52,8.52,0,0,0-6.28,2.27,8.15,8.15,0,0,0-2.28,6v20.28h-5.39V1534a13.79,13.79,0,0,0-.28-2.9,6.06,6.06,0,0,0-1-2.3,4.53,4.53,0,0,0-1.87-1.51,7.21,7.21,0,0,0-3-.54,8.08,8.08,0,0,0-4,1,9,9,0,0,0-2.73,2.27,9.21,9.21,0,0,0-1.52,2.74,7.87,7.87,0,0,0-.47,2.36v20.28h-5.39v-32.57Z"/><path class="cls-13" d="M427.42,1555.22a7.73,7.73,0,0,1-3.87.82,4.62,4.62,0,0,1-3.32-1.17,5,5,0,0,1-1.24-3.81,12.78,12.78,0,0,1-5.16,3.81,17.84,17.84,0,0,1-10.59.66,9.76,9.76,0,0,1-3.45-1.57,7.59,7.59,0,0,1-2.32-2.8,9.43,9.43,0,0,1-.85-4.19,9.59,9.59,0,0,1,.95-4.54,8.29,8.29,0,0,1,2.5-2.87,11.73,11.73,0,0,1,3.55-1.67c1.33-.37,2.7-.69,4.09-.94s2.88-.52,4.21-.66a24.12,24.12,0,0,0,3.52-.63,5.86,5.86,0,0,0,2.41-1.2,2.91,2.91,0,0,0,.89-2.3,5.25,5.25,0,0,0-.67-2.83,4.48,4.48,0,0,0-1.71-1.64,7.08,7.08,0,0,0-2.34-.76,18.87,18.87,0,0,0-2.57-.19,11.44,11.44,0,0,0-5.7,1.29c-1.53.87-2.35,2.49-2.48,4.89h-5.38a11.49,11.49,0,0,1,1.26-5.11,9.61,9.61,0,0,1,3.05-3.37,12.76,12.76,0,0,1,4.34-1.86,23.49,23.49,0,0,1,5.23-.56,30.79,30.79,0,0,1,4.4.31,11.54,11.54,0,0,1,4,1.29,7.49,7.49,0,0,1,2.85,2.74,8.65,8.65,0,0,1,1.08,4.58v16.73a12.25,12.25,0,0,0,.22,2.76c.15.59.65.88,1.49.88a6.43,6.43,0,0,0,1.65-.25Zm-8.75-16.7a6.57,6.57,0,0,1-2.66,1.1q-1.65.35-3.45.57c-1.21.14-2.42.31-3.65.5a13.5,13.5,0,0,0-3.29.91,5.94,5.94,0,0,0-2.38,1.78,5,5,0,0,0-.92,3.17,4.25,4.25,0,0,0,.54,2.22,4.51,4.51,0,0,0,1.4,1.48,5.83,5.83,0,0,0,2,.81,11.06,11.06,0,0,0,2.41.25,12.83,12.83,0,0,0,4.56-.72,9.43,9.43,0,0,0,3.11-1.82,7.14,7.14,0,0,0,1.77-2.38,5.94,5.94,0,0,0,.57-2.41Z"/><path class="cls-15" d="M293.78,1390.5h-30.5a16.57,16.57,0,0,1-16.6-16.5v-30.32a16.57,16.57,0,0,1,16.6-16.5h30.5a16.57,16.57,0,0,1,16.6,16.5V1374A16.57,16.57,0,0,1,293.78,1390.5Zm-30.5-58.32a11.55,11.55,0,0,0-11.57,11.5V1374a11.55,11.55,0,0,0,11.57,11.5h30.5a11.55,11.55,0,0,0,11.57-11.5v-30.32a11.55,11.55,0,0,0-11.57-11.5Z"/><path class="cls-16" d="M952.4,845s33.1-24,42-41.21l2-3.86a29.75,29.75,0,0,0,2.37-11.63c0-15.25-11.29-27.62-25.22-27.62-8.88,0-17,12.45-21.53,20.05-4.49-7.6-11.93-20.05-20.81-20.05-13.93,0-25.22,12.37-25.22,27.62a29.58,29.58,0,0,0,2.37,11.63l2,3.86c8.91,17.24,42,41.21,42,41.21Z"/><polygon class="cls-10" points="1008.34 279.69 1007.16 279.69 1007.16 291.16 995.62 291.16 995.62 292.33 1007.16 292.33 1007.16 303.81 1008.34 303.81 1008.34 292.33 1019.89 292.33 1019.89 291.16 1008.34 291.16 1008.34 279.69"/><polygon class="cls-10" points="908.74 279.69 907.57 279.69 907.57 291.16 896.02 291.16 896.02 292.33 907.57 292.33 907.57 303.81 908.74 303.81 908.74 292.33 920.29 292.33 920.29 291.16 908.74 291.16 908.74 279.69"/><path class="cls-10" d="M995.74,318.13a14.08,14.08,0,0,0-14.08-14h-17.1a14.08,14.08,0,0,0-14.08,14v17a14.08,14.08,0,0,0,14.08,14h17.21L994,360.8a1,1,0,0,0,1.7-.72l0-12.37L995.6,337a14.26,14.26,0,0,0,.14-1.85Z"/><ellipse class="cls-10" cx="882.56" cy="315.5" rx="11.57" ry="11.5"/><path class="cls-10" d="M908.22,346.81c0,6-13.93,6-26.31,6s-25,1.51-25-4.52S871.16,331,883.54,331,908.22,340.78,908.22,346.81Z"/><path class="cls-10" d="M197.35,334c-8.82,0-16-6.27-16-14s7.17-14,16-14,16,6.27,16,14S206.16,334,197.35,334Zm0-26.42c-7.85,0-14.23,5.58-14.23,12.44s6.38,12.44,14.23,12.44,14.23-5.58,14.23-12.44S205.19,307.53,197.35,307.53Z"/><polygon class="cls-10" points="218.31 341.54 206.6 329.65 207.82 328.74 219.53 340.62 218.31 341.54"/><path class="cls-17" d="M139.82,1501.14c-22.82,0-41.32,12.77-41.32,28.53v63.75c0,12.26,18.5,22.2,41.32,22.2s41.32-9.94,41.32-22.2v-63.75C181.14,1513.91,162.64,1501.14,139.82,1501.14Z"/><path class="cls-18" d="M195.4,1636.14c0-13.63-7.17-24.84-16.35-26.17v-.13H102.93c-10.05,0-18.19,11.78-18.19,26.3"/><path class="cls-19" d="M151.16,1616.48h.08l-.14-26.41-22.2.11.14,26.41h.08c0,3.32,5,6,11,6S151.18,1619.8,151.16,1616.48Z"/><path class="cls-20" d="M100.42,1536.81v23.73c0,22.58,17.6,40.88,39.31,40.88s39.31-18.3,39.31-40.88v-23.73Z"/><ellipse cx="123.42" cy="1553.71" rx="4.86" ry="4.67"/><ellipse cx="155.35" cy="1553.71" rx="4.86" ry="4.67"/><path class="cls-2" d="M151.75,1570.6c0,8.79-6.06,15.91-13.54,15.91s-13.53-7.12-13.53-15.91"/><ellipse class="cls-21" cx="114.87" cy="1569.12" rx="4.95" ry="4.76"/><ellipse class="cls-21" cx="161.47" cy="1569.12" rx="4.95" ry="4.76"/><path class="cls-19" d="M100.52,1565c-6.18,0-11.2-4.5-11.2-10s5-10.05,11.2-10.05"/><path class="cls-19" d="M178.81,1544.87c6.19,0,11.2,4.5,11.2,10.05s-5,10-11.2,10"/><path class="cls-22" d="M131.55,989.42c-22.82,0-41.32,13.54-41.32,30.24V1046h82.64v-26.29C172.87,1003,154.37,989.42,131.55,989.42Z"/><path class="cls-23" d="M187.14,1119.42c0-13.08-7.17-23.84-16.36-25.11v-.13H94.66c-10,0-18.19,11.3-18.19,25.24"/><path class="cls-24" d="M142.89,1100.55H143l-.14-25.34-22.2.1.13,25.34h.09c0,3.19,5,5.75,11,5.72S142.91,1103.74,142.89,1100.55Z"/><path class="cls-25" d="M92.15,1024.08v22.78a39.31,39.31,0,0,0,78.62,0v-22.78Z"/><ellipse class="cls-26" cx="115.15" cy="1040.3" rx="4.86" ry="4.49"/><ellipse class="cls-26" cx="147.08" cy="1040.3" rx="4.86" ry="4.49"/><path class="cls-2" d="M143.48,1056.52c0,8.43-6.06,15.27-13.53,15.27s-13.54-6.84-13.54-15.27"/><ellipse class="cls-21" cx="106.6" cy="1055.09" rx="4.95" ry="4.57"/><ellipse class="cls-21" cx="153.21" cy="1055.09" rx="4.95" ry="4.57"/><path class="cls-24" d="M92.26,1051.11c-6.19,0-11.21-4.32-11.21-9.65s5-9.64,11.21-9.64"/><path class="cls-24" d="M170.55,1031.82c6.18,0,11.2,4.32,11.2,9.64s-5,9.65-11.2,9.65"/><path class="cls-27" d="M175.31,1293c0-18.31-17.77-33.16-39.7-33.16s-39.7,14.85-39.7,33.16"/><rect class="cls-27" x="95.91" y="1293.02" width="79.4" height="28.83"/><ellipse class="cls-27" cx="175.31" cy="1331.89" rx="15.63" ry="15.27"/><ellipse class="cls-27" cx="95.91" cy="1331.89" rx="15.63" ry="15.27"/><path class="cls-28" d="M188.77,1389.86c0-13.31-6.89-24.25-15.71-25.55v-.13H99.93c-9.65,0-17.48,11.5-17.48,25.68"/><path class="cls-29" d="M146.26,1370.66h.08l-.13-25.78-21.33.1.13,25.79h.08c0,3.24,4.77,5.84,10.62,5.81S146.28,1373.9,146.26,1370.66Z"/><path class="cls-30" d="M97.52,1292.87V1316c0,22,16.9,39.92,37.76,39.92s37.77-17.87,37.77-39.92v-23.17Z"/><ellipse class="cls-26" cx="119.61" cy="1309.37" rx="4.67" ry="4.56"/><ellipse class="cls-26" cx="150.29" cy="1309.37" rx="4.67" ry="4.56"/><path class="cls-2" d="M146.83,1325.87c0,8.58-5.82,15.53-13,15.53s-13-7-13-15.53"/><ellipse class="cls-21" cx="111.39" cy="1324.41" rx="4.76" ry="4.65"/><ellipse class="cls-21" cx="156.17" cy="1324.41" rx="4.76" ry="4.65"/><path class="cls-29" d="M97.61,1320.37c-5.94,0-10.76-4.4-10.76-9.82s4.82-9.81,10.76-9.81"/><path class="cls-29" d="M172.83,1300.74c5.95,0,10.76,4.39,10.76,9.81s-4.81,9.82-10.76,9.82"/><path class="cls-31" d="M195.56,863.68c0-13-7.17-23.72-16.35-25v-.13H103.09c-10,0-18.19,11.25-18.19,25.12"/><path class="cls-32" d="M139.94,733.68c-22.83,0-41.33,14.51-41.33,32.42v72.46h82.65V766.1C181.26,748.19,162.76,733.68,139.94,733.68Z"/><path class="cls-33" d="M151.32,844.9h.08l-.14-25.21-22.2.1L129.2,845h.08c0,3.17,5,5.72,11.05,5.69S151.33,848.07,151.32,844.9Z"/><path class="cls-34" d="M100.58,768.82v22.67a39.31,39.31,0,0,0,78.61,0V768.82Z"/><ellipse class="cls-26" cx="123.58" cy="784.96" rx="4.86" ry="4.46"/><ellipse class="cls-26" cx="155.5" cy="784.96" rx="4.86" ry="4.46"/><path class="cls-2" d="M151.9,801.09c0,8.39-6.06,15.2-13.53,15.2s-13.53-6.81-13.53-15.2"/><ellipse class="cls-21" cx="115.02" cy="799.67" rx="4.95" ry="4.55"/><ellipse class="cls-21" cx="161.63" cy="799.67" rx="4.95" ry="4.55"/><path class="cls-35" d="M100.68,795.72c-6.19,0-11.2-4.3-11.2-9.6s5-9.6,11.2-9.6"/><path class="cls-35" d="M179,776.52c6.19,0,11.2,4.3,11.2,9.6s-5,9.6-11.2,9.6"/></g></svg>
