<svg id="Layer_1" data-name="Layer 1" xmlns="http://www.w3.org/2000/svg" width="1001.9" height="1461.97" viewBox="0 0 1001.9 1461.97"><defs><style>.cls-1{fill:#efc211;}.cls-2{fill:#eaeef0;}</style></defs><title>snapchat</title><rect class="cls-1" width="1001.9" height="1461.97"/><rect class="cls-1" x="227" y="433.04" width="564" height="541.27" rx="112" ry="112"/><path class="cls-2" d="M732,834.37c-18.08-7.87-30.76-22.29-56.11-51.14-19.1-21.73-26.22-33.76-28.42-48.3-1.84-12.23,1-18.41,2.13-20.6,4.62-8.78,13.49-12.48,28.42-18.47,20.54-8.25,31.15-8.16,34.09-16.34,1.25-3.47,1-8-1.42-10.65-1.34-1.49-4.58-3.72-16.33-1.43-19,3.72-25.2,7.89-34.81,6.4-3.78-.59-5.39-1.2-11.37-10l-1.45-47.39a140,140,0,0,0,1.45-20.09,138.51,138.51,0,1,0-274,28.83l1.25,37.23c-1.83,8.3-5.19,11.43-7.82,12.79-8.68,4.48-18.21-5.88-43.33-10-11.23-1.81-16.13-.85-18.46,2.13-2.2,2.82-2,7.34-.71,10.66,4.6,11.54,23,8,44,19.89,7.16,4,17.36,9.82,22,19.18,12.67,25.45-16.83,75.08-57.54,100.15-31,19.07-62.51,20.67-62.51,27,0,19.49,51.06,19.65,66.77,26.28,12.76,5.38,1.59,24.87,10.66,30.54,6.93,4.34,13.05-1.18,27.7-3.55,33.72-5.45,65.11,13.47,74.58,19.18,8.15,4.91,8,6.12,19.18,12.79,11.72,7,23.78,14.18,37.65,17.75,24.13,6.22,45.44-.67,54-3.55,13-4.39,12.8-7.18,50.43-28.41,17.3-9.76,26-14.65,29.83-15.63,32.14-8.15,54.57,14.31,66.06,3.55,8.23-7.69-1.28-21,8.53-31.25,6.73-7,14.18-3.8,35.51-8.53,13.32-3,35.11-10.15,34.81-16.33C766.6,842.08,752.43,843.24,732,834.37Z"/></svg>