<svg id="Layer_1" data-name="Layer 1" xmlns="http://www.w3.org/2000/svg" width="356.19mm" height="85.35mm" viewBox="0 0 1009.68 241.94"><defs><style>.cls-1{opacity:0.5;}.cls-2{fill:#fff;}.cls-3{fill:#010101;}.cls-4{fill:#6a6c6c;}.cls-5{fill:#eec21b;}.cls-6{fill:#eaeeef;}</style></defs><title>snapjoakim</title><g class="cls-1"><rect class="cls-2" x="28.84" y="25.47" width="952" height="191" rx="11.5" ry="11.5"/><path class="cls-3" d="M969.34,26a11,11,0,0,1,11,11V205a11,11,0,0,1-11,11h-929a11,11,0,0,1-11-11V37a11,11,0,0,1,11-11h929m0-1h-929a12,12,0,0,0-12,12V205a12,12,0,0,0,12,12h929a12,12,0,0,0,12-12V37a12,12,0,0,0-12-12Z"/></g><path class="cls-3" d="M46.26,177.37v-27h3.8l8.64,13.64a77.69,77.69,0,0,1,4.83,8.76l.08,0c-.32-3.6-.4-6.88-.4-11.08V150.41h3.28v27H63l-8.55-13.68a85.57,85.57,0,0,1-5-9l-.12,0c.2,3.4.28,6.64.28,11.12v11.52Z"/><path class="cls-3" d="M74.1,158l4.24,11.44c.44,1.28.92,2.8,1.24,4h.08c.36-1.16.76-2.64,1.24-4L84.73,158h3.72l-5.28,13.8c-2.51,6.64-4.23,10-6.63,12.12a9.54,9.54,0,0,1-4.32,2.28l-.88-3a9.31,9.31,0,0,0,3.08-1.72,10.67,10.67,0,0,0,3-3.92,2.53,2.53,0,0,0,.28-.84,3.07,3.07,0,0,0-.24-.92L70.26,158Z"/><path class="cls-3" d="M99.66,173.77a9.23,9.23,0,0,0,4.64,1.4c2.55,0,3.75-1.28,3.75-2.88s-1-2.6-3.59-3.56c-3.48-1.24-5.12-3.16-5.12-5.48,0-3.12,2.52-5.68,6.67-5.68a9.66,9.66,0,0,1,4.76,1.2l-.88,2.56a7.52,7.52,0,0,0-4-1.12c-2.08,0-3.24,1.2-3.24,2.64,0,1.6,1.16,2.32,3.68,3.28,3.35,1.28,5.07,3,5.07,5.84,0,3.4-2.64,5.8-7.23,5.8a11,11,0,0,1-5.44-1.32Z"/><path class="cls-3" d="M116,163.25c0-2,0-3.64-.16-5.24h3.12l.2,3.2h.08a7.09,7.09,0,0,1,6.39-3.64c2.68,0,6.84,1.6,6.84,8.24v11.56h-3.52V166.21c0-3.12-1.16-5.72-4.48-5.72a5,5,0,0,0-4.71,3.6,5.06,5.06,0,0,0-.24,1.64v11.64H116Z"/><path class="cls-3" d="M148.89,177.37l-.28-2.44h-.12a7.21,7.21,0,0,1-5.92,2.88,5.51,5.51,0,0,1-5.91-5.56c0-4.68,4.16-7.24,11.63-7.2v-.4c0-1.6-.44-4.48-4.4-4.48a9.61,9.61,0,0,0-5,1.44l-.8-2.32a12,12,0,0,1,6.35-1.72c5.92,0,7.36,4,7.36,7.92v7.24a27.26,27.26,0,0,0,.32,4.64Zm-.52-9.88c-3.84-.08-8.2.6-8.2,4.36a3.11,3.11,0,0,0,3.32,3.36,4.82,4.82,0,0,0,4.68-3.24,3.67,3.67,0,0,0,.2-1.12Z"/><path class="cls-3" d="M157.46,164.33c0-2.48-.08-4.48-.16-6.32h3.15l.16,3.32h.08a7.61,7.61,0,0,1,6.88-3.76c4.68,0,8.2,4,8.2,9.84,0,7-4.24,10.4-8.8,10.4a6.79,6.79,0,0,1-6-3h-.08v10.52h-3.47Zm3.47,5.16a7.93,7.93,0,0,0,.16,1.44,5.43,5.43,0,0,0,5.28,4.12c3.72,0,5.88-3,5.88-7.48,0-3.88-2-7.2-5.76-7.2a5.62,5.62,0,0,0-5.32,4.36,5.71,5.71,0,0,0-.24,1.44Z"/><path class="cls-3" d="M189.05,177.37V160.69h-2.72V158h2.72v-.92c0-2.72.6-5.2,2.24-6.76a6.74,6.74,0,0,1,4.72-1.8,8.16,8.16,0,0,1,3,.56l-.48,2.72a5.26,5.26,0,0,0-2.24-.44c-3,0-3.76,2.64-3.76,5.6v1h4.68v2.68h-4.68v16.68Z"/><path class="cls-3" d="M200.37,164.05c0-2.28,0-4.24-.16-6h3.08l.12,3.8h.16a5.81,5.81,0,0,1,5.36-4.24,3.81,3.81,0,0,1,1,.12V161a5.29,5.29,0,0,0-1.2-.12c-2.48,0-4.24,1.88-4.72,4.52a9.91,9.91,0,0,0-.16,1.64v10.32h-3.48Z"/><path class="cls-3" d="M224,177.37l-.28-2.44h-.12a7.21,7.21,0,0,1-5.92,2.88,5.52,5.52,0,0,1-5.92-5.56c0-4.68,4.16-7.24,11.64-7.2v-.4c0-1.6-.44-4.48-4.4-4.48a9.65,9.65,0,0,0-5,1.44l-.8-2.32a12,12,0,0,1,6.36-1.72c5.92,0,7.36,4,7.36,7.92v7.24a27.26,27.26,0,0,0,.32,4.64Zm-.52-9.88c-3.84-.08-8.2.6-8.2,4.36a3.11,3.11,0,0,0,3.32,3.36,4.82,4.82,0,0,0,4.68-3.24,3.67,3.67,0,0,0,.2-1.12Z"/><path class="cls-3" d="M246.65,150.41h3.48v18c0,7.16-3.52,9.36-8.16,9.36a11.27,11.27,0,0,1-3.72-.64l.52-2.84a8.3,8.3,0,0,0,2.92.52c3.12,0,5-1.4,5-6.68Z"/><path class="cls-3" d="M273.33,167.53c0,7.16-5,10.28-9.64,10.28-5.24,0-9.28-3.84-9.28-10,0-6.48,4.24-10.28,9.6-10.28C269.57,157.57,273.33,161.61,273.33,167.53Zm-15.36.2c0,4.24,2.44,7.44,5.88,7.44s5.88-3.16,5.88-7.52c0-3.28-1.64-7.44-5.8-7.44S258,164.05,258,167.73Z"/><path class="cls-3" d="M288.49,177.37l-.28-2.44h-.12a7.21,7.21,0,0,1-5.92,2.88,5.52,5.52,0,0,1-5.92-5.56c0-4.68,4.16-7.24,11.64-7.2v-.4c0-1.6-.44-4.48-4.4-4.48a9.65,9.65,0,0,0-5,1.44l-.8-2.32a12,12,0,0,1,6.36-1.72c5.92,0,7.36,4,7.36,7.92v7.24a27.26,27.26,0,0,0,.32,4.64Zm-.52-9.88c-3.84-.08-8.2.6-8.2,4.36a3.11,3.11,0,0,0,3.32,3.36,4.82,4.82,0,0,0,4.68-3.24,3.67,3.67,0,0,0,.2-1.12Z"/><path class="cls-3" d="M310.85,176.65a13,13,0,0,1-5.56,1.12c-5.84,0-9.64-4-9.64-9.88s4.08-10.28,10.4-10.28a11.77,11.77,0,0,1,4.88,1l-.8,2.72a8.16,8.16,0,0,0-4.08-.92c-4.44,0-6.84,3.28-6.84,7.32,0,4.48,2.88,7.24,6.72,7.24a10,10,0,0,0,4.32-1Z"/><path class="cls-3" d="M315,149h3.52v12.08h.08a6.53,6.53,0,0,1,2.52-2.48,7.24,7.24,0,0,1,3.6-1c2.6,0,6.76,1.6,6.76,8.28v11.52h-3.52V166.25c0-3.12-1.16-5.76-4.48-5.76a5.06,5.06,0,0,0-4.72,3.52,4.26,4.26,0,0,0-.24,1.68v11.68H315Z"/><path class="cls-3" d="M341.09,152.57a2.18,2.18,0,0,1-4.36,0,2.14,2.14,0,0,1,2.2-2.2A2.09,2.09,0,0,1,341.09,152.57Zm-3.92,24.8V158h3.52v19.36Z"/><path class="cls-3" d="M346.53,163.25c0-2,0-3.64-.16-5.24h3.08l.16,3.12h.12a6.67,6.67,0,0,1,6.08-3.56,5.72,5.72,0,0,1,5.48,3.88h.08a8,8,0,0,1,2.16-2.52,6.61,6.61,0,0,1,4.28-1.36c2.56,0,6.36,1.68,6.36,8.4v11.4h-3.44v-11c0-3.72-1.36-6-4.2-6a4.56,4.56,0,0,0-4.16,3.2,5.8,5.8,0,0,0-.28,1.76v12h-3.44v-11.6c0-3.08-1.36-5.32-4-5.32a5.25,5.25,0,0,0-4.64,5.24v11.68h-3.44Z"/><path class="cls-3" d="M379.21,175.33a2.35,2.35,0,0,1,2.36-2.48,2.48,2.48,0,0,1,0,5A2.34,2.34,0,0,1,379.21,175.33Zm1-5.72-.56-19.2h3.84l-.56,19.2Z"/><path class="cls-4" d="M897.64,73.2V57.7h2.19l5,7.84a44.65,44.65,0,0,1,2.79,5l0,0c-.18-2.07-.23-4-.23-6.37V57.7h1.89V73.2h-2l-4.92-7.86a51.4,51.4,0,0,1-2.9-5.18l-.06,0c.11,2,.16,3.81.16,6.39V73.2Z"/><path class="cls-4" d="M922,70.17c0,1.15,0,2.16.09,3h-1.79l-.12-1.82h0a4.18,4.18,0,0,1-3.68,2.07c-1.75,0-3.84-1-3.84-4.87V62.07h2v6.16c0,2.12.64,3.55,2.48,3.55a2.94,2.94,0,0,0,2.67-1.84,2.87,2.87,0,0,0,.19-1V62.07h2Z"/><path class="cls-4" d="M143.55,79.13a12.33,12.33,0,0,0,6.24,1.76c3.56,0,5.64-1.88,5.64-4.6,0-2.52-1.44-4-5.08-5.36-4.4-1.56-7.12-3.84-7.12-7.64,0-4.2,3.48-7.32,8.72-7.32a12.25,12.25,0,0,1,6,1.32l-1,2.84a10.74,10.74,0,0,0-5.12-1.28c-3.68,0-5.08,2.2-5.08,4,0,2.52,1.64,3.76,5.36,5.2,4.56,1.76,6.88,4,6.88,7.92,0,4.16-3.08,7.76-9.44,7.76a13.93,13.93,0,0,1-6.88-1.72Z"/><path class="cls-4" d="M163.75,83.37v-27h3.8l8.64,13.64A76.32,76.32,0,0,1,181,78.81l.08,0c-.32-3.6-.4-6.88-.4-11.08V56.41H184v27h-3.51l-8.56-13.68a85.57,85.57,0,0,1-5-9l-.12,0c.2,3.4.28,6.64.28,11.12V83.37Z"/><path class="cls-4" d="M194.43,74.89l-2.8,8.48H188l9.16-27h4.2l9.19,27h-3.72L204,74.89Zm8.84-2.72-2.64-7.76c-.6-1.76-1-3.36-1.4-4.92h-.08c-.4,1.6-.84,3.24-1.36,4.88l-2.64,7.8Z"/><path class="cls-4" d="M214.55,56.73a40.33,40.33,0,0,1,6.68-.52c3.44,0,6,.8,7.55,2.24a7.25,7.25,0,0,1,2.36,5.64,8,8,0,0,1-2.07,5.76c-1.84,2-4.84,3-8.24,3a12,12,0,0,1-2.8-.24v10.8h-3.48Zm3.48,13a11.67,11.67,0,0,0,2.88.28c4.2,0,6.76-2,6.76-5.76,0-3.56-2.52-5.28-6.36-5.28a14.6,14.6,0,0,0-3.28.28Z"/><path class="cls-4" d="M254.66,82.49a17.26,17.26,0,0,1-7.11,1.28c-7.6,0-13.32-4.8-13.32-13.64C234.23,61.69,240,56,248.31,56a14.43,14.43,0,0,1,6.39,1.2L253.86,60a12.68,12.68,0,0,0-5.44-1.12c-6.31,0-10.51,4-10.51,11.12,0,6.6,3.8,10.84,10.36,10.84a13.91,13.91,0,0,0,5.67-1.12Z"/><path class="cls-4" d="M262.51,56.41V67.69h13V56.41h3.52v27h-3.52V70.73h-13V83.37H259v-27Z"/><path class="cls-4" d="M289.47,74.89l-2.8,8.48h-3.6l9.15-27h4.2l9.2,27H301.9L299,74.89Zm8.83-2.72-2.64-7.76c-.6-1.76-1-3.36-1.4-4.92h-.08c-.4,1.6-.84,3.24-1.36,4.88l-2.63,7.8Z"/><path class="cls-4" d="M311.63,59.37h-8.2v-3h19.95v3h-8.24v24h-3.51Z"/><rect class="cls-5" x="42.9" y="35.3" width="65.44" height="62.8" rx="13" ry="13"/><path class="cls-6" d="M101.5,81.87C99.4,81,97.93,79.28,95,75.93c-2.22-2.52-3-3.91-3.3-5.6a3.7,3.7,0,0,1,.25-2.39c.53-1,1.56-1.45,3.3-2.14,2.38-1,3.61-1,4-1.9A1.27,1.27,0,0,0,99,62.67c-.16-.18-.54-.44-1.9-.17-2.2.43-2.92.92-4,.74-.44-.07-.62-.14-1.32-1.15l-.17-5.5a15,15,0,0,0,.17-2.33A16.07,16.07,0,1,0,60,57.6l.15,4.32a2,2,0,0,1-.91,1.49c-1,.52-2.11-.68-5-1.16-1.3-.21-1.87-.1-2.14.25A1.32,1.32,0,0,0,52,63.74c.53,1.34,2.67.92,5.11,2.3a5.93,5.93,0,0,1,2.55,2.23c1.47,3-2,8.71-6.67,11.62C49.37,82.1,45.7,82.29,45.7,83c0,2.26,5.93,2.28,7.75,3,1.48.63.19,2.89,1.24,3.54.8.51,1.51-.13,3.21-.41,3.91-.63,7.56,1.57,8.66,2.23.94.57.92.71,2.22,1.48A16.7,16.7,0,0,0,73.15,95a11,11,0,0,0,6.26-.41c1.51-.51,1.49-.83,5.85-3.3a24.6,24.6,0,0,1,3.46-1.81c3.73-1,6.34,1.66,7.67.41,1-.89-.15-2.44,1-3.62.78-.82,1.64-.44,4.12-1,1.54-.35,4.07-1.18,4-1.9S103.86,82.9,101.5,81.87Z"/></svg>
