<svg id="Layer_1" data-name="Layer 1" xmlns="http://www.w3.org/2000/svg" width="200" height="100" viewBox="0 0 200 100"><defs><style>.cls-1,.cls-4{fill:none;}.cls-2,.cls-3{fill:#bdc3c7;}.cls-3{stroke:#7f8c8d;}.cls-3,.cls-4{stroke-miterlimit:10;}.cls-4{stroke:#bdc3c7;stroke-width:2px;}</style></defs><title>soundonoff</title><rect class="cls-1" width="100" height="100"/><rect class="cls-1" x="100" width="100" height="100"/><rect class="cls-1" x="200" width="100" height="100"/><rect class="cls-1" width="100" height="100"/><path class="cls-2" d="M44.75,35.75h-16a3,3,0,0,0-3,3v24a3,3,0,0,0,3,3h16l30,17v-65Z"/><rect class="cls-1" x="0.25" y="0.25" width="100" height="100"/><path class="cls-2" d="M144.75,35.75h-16a3,3,0,0,0-3,3v24a3,3,0,0,0,3,3h16l30,17v-65Z"/><rect class="cls-1" x="100.25" y="0.25" width="100" height="100"/><rect class="cls-3" x="110.54" y="50" width="91.92" height="3" rx="1" transform="translate(82.25 -95.58) rotate(45)"/><path class="cls-4" d="M76.75,34.75a15.5,15.5,0,0,1,0,31"/><path class="cls-4" d="M77.13,41.51a8.75,8.75,0,1,1,0,17.49"/></svg>
