<svg id="Layer_1" data-name="Layer 1" xmlns="http://www.w3.org/2000/svg" width="1200" height="100" viewBox="0 0 1200 100"><defs><style>.cls-1,.cls-4{fill:#1f2533;}.cls-1{opacity:0.5;}.cls-2{fill:#fff;}.cls-3{fill:#ff9207;}</style></defs><title>start_toggle</title><path class="cls-1" d="M190,49.74a20.22,20.22,0,0,0-18.27-19.88v-.12H29.19v0A20.24,20.24,0,0,0,10,49.74,20.24,20.24,0,0,0,29.19,69.69v0H171.73v-.13A20.22,20.22,0,0,0,190,49.74Z"/><circle class="cls-2" cx="29.5" cy="49.74" r="17.5"/><path class="cls-3" d="M68.26,47.85a2,2,0,0,0-.56-.68,2.76,2.76,0,0,0-.81-.39,3.79,3.79,0,0,0-1-.12,3.86,3.86,0,0,0-.81.09,2.42,2.42,0,0,0-.75.28,1.71,1.71,0,0,0-.55.52,1.44,1.44,0,0,0-.21.8,1.11,1.11,0,0,0,.2.67,1.77,1.77,0,0,0,.51.47,2.86,2.86,0,0,0,.66.31,5.47,5.47,0,0,0,.67.2l1.59.36a5.54,5.54,0,0,1,1,.28,3.41,3.41,0,0,1,.89.52,2.66,2.66,0,0,1,.64.8A2.47,2.47,0,0,1,70,53.08a2.39,2.39,0,0,1-.37,1.36,2.86,2.86,0,0,1-.92.91,3.92,3.92,0,0,1-1.26.51,6.64,6.64,0,0,1-1.39.15,4.48,4.48,0,0,1-2.8-.82,3.49,3.49,0,0,1-1.23-2.62h1.2a2.35,2.35,0,0,0,.89,1.83,3.18,3.18,0,0,0,2,.62,4.07,4.07,0,0,0,.9-.1,2.93,2.93,0,0,0,.87-.32,2,2,0,0,0,.65-.58,1.42,1.42,0,0,0,.26-.86,1.36,1.36,0,0,0-.18-.73,1.46,1.46,0,0,0-.49-.5,3.15,3.15,0,0,0-.69-.33c-.26-.09-.52-.16-.79-.23L65.14,51a9.13,9.13,0,0,1-1.08-.35,3.14,3.14,0,0,1-.86-.5,1.85,1.85,0,0,1-.58-.72,2.34,2.34,0,0,1-.21-1.05,2.39,2.39,0,0,1,.33-1.28,2.69,2.69,0,0,1,.86-.85,3.9,3.9,0,0,1,1.19-.47,5.32,5.32,0,0,1,1.3-.16,5,5,0,0,1,1.38.19,3.33,3.33,0,0,1,1.12.59,3,3,0,0,1,.77,1,3.43,3.43,0,0,1,.32,1.39H68.49A2.34,2.34,0,0,0,68.26,47.85Z"/><path class="cls-3" d="M73,42.18V55.74h-1.2V42.18Z"/><path class="cls-3" d="M76.49,42.18v1.91h-1.2V42.18Zm0,3.76v9.8h-1.2v-9.8Z"/><path class="cls-3" d="M86.31,55.74V53.88h0a2.7,2.7,0,0,1-.56.87,3.74,3.74,0,0,1-.85.68,4.8,4.8,0,0,1-1,.43,4,4,0,0,1-1.08.15,4.37,4.37,0,0,1-1.94-.41,4,4,0,0,1-1.38-1.12,4.91,4.91,0,0,1-.82-1.65,7.75,7.75,0,0,1,0-4,4.91,4.91,0,0,1,.82-1.65,4.11,4.11,0,0,1,1.38-1.13,4.23,4.23,0,0,1,1.94-.42,4.32,4.32,0,0,1,1.08.14,3.34,3.34,0,0,1,1.78,1.08,2.7,2.7,0,0,1,.55.93h0V42.18h1.2V55.74Zm-6.57-3.39a4.14,4.14,0,0,0,.57,1.34,3.27,3.27,0,0,0,1,1,2.73,2.73,0,0,0,1.46.37,3.05,3.05,0,0,0,2.67-1.33A3.78,3.78,0,0,0,86,52.35a6.42,6.42,0,0,0,0-3A3.78,3.78,0,0,0,85.44,48a3.05,3.05,0,0,0-2.67-1.33,2.73,2.73,0,0,0-1.46.37,3.27,3.27,0,0,0-1,1,4.14,4.14,0,0,0-.57,1.34,6.42,6.42,0,0,0,0,3Z"/><path class="cls-3" d="M90.57,52.5a3.87,3.87,0,0,0,.58,1.25,3.4,3.4,0,0,0,1,.91,2.82,2.82,0,0,0,1.46.36,3,3,0,0,0,2.06-.68,3.66,3.66,0,0,0,1-1.83h1.2a4.82,4.82,0,0,1-1.4,2.59,4.21,4.21,0,0,1-2.88.91,4.57,4.57,0,0,1-2-.41,3.79,3.79,0,0,1-1.38-1.12,5,5,0,0,1-.79-1.65,7.59,7.59,0,0,1-.25-2,7.13,7.13,0,0,1,.25-1.9,5.2,5.2,0,0,1,.79-1.66,4.06,4.06,0,0,1,1.38-1.18,4.19,4.19,0,0,1,2-.45,4,4,0,0,1,2,.48A4,4,0,0,1,97,47.37a5.53,5.53,0,0,1,.75,1.77,8.05,8.05,0,0,1,.19,2H90.39A5.32,5.32,0,0,0,90.57,52.5Zm5.93-3.66a3.56,3.56,0,0,0-.62-1.11,3.05,3.05,0,0,0-1-.78,3.08,3.08,0,0,0-2.61,0,3.21,3.21,0,0,0-1,.78,4.22,4.22,0,0,0-.63,1.12,5.45,5.45,0,0,0-.32,1.31h6.35A4.17,4.17,0,0,0,96.5,48.84Z"/><path class="cls-3" d="M108.73,45.94v1h-2v6.62a2.1,2.1,0,0,0,.17.92c.1.22.37.34.8.37a8.89,8.89,0,0,0,1-.06v1l-.53,0-.54,0a2.38,2.38,0,0,1-1.67-.47,2.34,2.34,0,0,1-.45-1.72V46.94h-1.71v-1h1.71V43h1.19v2.95Z"/><path class="cls-3" d="M116.58,46.07A4.29,4.29,0,0,1,118,47.19a4.86,4.86,0,0,1,.89,1.65,6.61,6.61,0,0,1,0,4,4.86,4.86,0,0,1-.89,1.65,4.14,4.14,0,0,1-1.46,1.11,4.58,4.58,0,0,1-2,.41,4.65,4.65,0,0,1-2-.41,4.19,4.19,0,0,1-1.45-1.11,4.86,4.86,0,0,1-.89-1.65,6.61,6.61,0,0,1,0-4,4.86,4.86,0,0,1,.89-1.65,4.35,4.35,0,0,1,1.45-1.12,4.51,4.51,0,0,1,2-.42A4.44,4.44,0,0,1,116.58,46.07Zm-3.48,1A3.4,3.4,0,0,0,112,48a4.26,4.26,0,0,0-.64,1.34,5.43,5.43,0,0,0,0,3.06,4.26,4.26,0,0,0,.64,1.34,3.4,3.4,0,0,0,1.08.95,3.31,3.31,0,0,0,3,0,3.26,3.26,0,0,0,1.07-.95,4.28,4.28,0,0,0,.65-1.34,5.43,5.43,0,0,0,0-3.06,4.28,4.28,0,0,0-.65-1.34A3.26,3.26,0,0,0,116.1,47a3.3,3.3,0,0,0-3,0Z"/><path class="cls-3" d="M132,47.85a2,2,0,0,0-.56-.68,2.76,2.76,0,0,0-.81-.39,3.85,3.85,0,0,0-1-.12,3.72,3.72,0,0,0-.81.09,2.42,2.42,0,0,0-.75.28,1.61,1.61,0,0,0-.55.52,1.44,1.44,0,0,0-.21.8,1.11,1.11,0,0,0,.2.67,1.73,1.73,0,0,0,.5.47,3.14,3.14,0,0,0,.67.31,5.93,5.93,0,0,0,.66.2l1.6.36a5.54,5.54,0,0,1,1,.28,3.41,3.41,0,0,1,.89.52,2.66,2.66,0,0,1,.64.8,2.74,2.74,0,0,1-.12,2.48,3,3,0,0,1-.92.91,3.92,3.92,0,0,1-1.26.51,6.64,6.64,0,0,1-1.39.15,4.46,4.46,0,0,1-2.8-.82,3.45,3.45,0,0,1-1.23-2.62H127a2.34,2.34,0,0,0,.88,1.83,3.23,3.23,0,0,0,2,.62,4.07,4.07,0,0,0,.9-.1,2.78,2.78,0,0,0,.86-.32,2,2,0,0,0,.66-.58,1.42,1.42,0,0,0,.26-.86,1.36,1.36,0,0,0-.18-.73,1.56,1.56,0,0,0-.49-.5,3.15,3.15,0,0,0-.69-.33c-.26-.09-.52-.16-.79-.23L128.83,51a9.13,9.13,0,0,1-1.08-.35,3.35,3.35,0,0,1-.87-.5,2.05,2.05,0,0,1-.58-.72,2.34,2.34,0,0,1-.21-1.05,2.39,2.39,0,0,1,.34-1.28,2.69,2.69,0,0,1,.86-.85,3.9,3.9,0,0,1,1.19-.47,5.32,5.32,0,0,1,1.3-.16,5.11,5.11,0,0,1,1.38.19,3.33,3.33,0,0,1,1.12.59,3,3,0,0,1,.77,1,3.43,3.43,0,0,1,.32,1.39h-1.2A2.19,2.19,0,0,0,132,47.85Z"/><path class="cls-3" d="M139.34,45.94v1h-2v6.62a2.27,2.27,0,0,0,.16.92c.11.22.38.34.81.37a8.89,8.89,0,0,0,1-.06v1l-.53,0-.54,0a2.38,2.38,0,0,1-1.67-.47,2.29,2.29,0,0,1-.45-1.72V46.94h-1.71v-1h1.71V43h1.19v2.95Z"/><path class="cls-3" d="M141.31,47.46a2.91,2.91,0,0,1,.83-1,3.7,3.7,0,0,1,1.23-.59,6.15,6.15,0,0,1,1.55-.19,6.44,6.44,0,0,1,1.3.13,3,3,0,0,1,1.15.46,2.55,2.55,0,0,1,.84,1,3.42,3.42,0,0,1,.32,1.61V54a.63.63,0,0,0,.71.72,1,1,0,0,0,.38-.07v1l-.37,0a2.49,2.49,0,0,1-.41,0,1.82,1.82,0,0,1-.73-.12.94.94,0,0,1-.43-.35,1.4,1.4,0,0,1-.2-.54,4.9,4.9,0,0,1,0-.7h0a7.56,7.56,0,0,1-.65.85,3.29,3.29,0,0,1-.74.61,3.19,3.19,0,0,1-.93.38,5.07,5.07,0,0,1-1.25.14,5.28,5.28,0,0,1-1.28-.16,2.87,2.87,0,0,1-1-.52,2.48,2.48,0,0,1-.7-.89,3,3,0,0,1-.26-1.28,2.57,2.57,0,0,1,.46-1.61,2.88,2.88,0,0,1,1.21-.88,6.85,6.85,0,0,1,1.69-.43L145.8,50a5.28,5.28,0,0,0,.66-.09,1.31,1.31,0,0,0,.48-.2,1.05,1.05,0,0,0,.29-.39,1.69,1.69,0,0,0,.11-.65,2.21,2.21,0,0,0-.2-1,1.66,1.66,0,0,0-.55-.62,2.19,2.19,0,0,0-.82-.31,5.24,5.24,0,0,0-1-.09,3,3,0,0,0-1.86.54,2.11,2.11,0,0,0-.76,1.74H141A4.08,4.08,0,0,1,141.31,47.46Zm6,2.92a.72.72,0,0,1-.44.31,3.78,3.78,0,0,1-.57.13c-.51.09-1,.17-1.57.24a8.65,8.65,0,0,0-1.47.31,2.86,2.86,0,0,0-1.09.6,1.41,1.41,0,0,0-.43,1.11,1.76,1.76,0,0,0,.18.81,1.91,1.91,0,0,0,.49.61,2.08,2.08,0,0,0,.7.39,2.56,2.56,0,0,0,.82.13,4.13,4.13,0,0,0,1.31-.21,3.14,3.14,0,0,0,1.09-.61,2.85,2.85,0,0,0,.74-1,3,3,0,0,0,.28-1.29V50.38Z"/><path class="cls-3" d="M152,45.94v2.3h0a3.56,3.56,0,0,1,3.7-2.43V47a3.72,3.72,0,0,0-1.48.22,3.42,3.42,0,0,0-1.15.73,3.49,3.49,0,0,0-.75,1.13,3.77,3.77,0,0,0-.27,1.44v5.22h-1.19v-9.8Z"/><path class="cls-3" d="M160.81,45.94v1h-2v6.62a2.27,2.27,0,0,0,.16.92c.11.22.38.34.81.37a9,9,0,0,0,1-.06v1l-.54,0-.53,0a2.36,2.36,0,0,1-1.67-.47,2.33,2.33,0,0,1-.46-1.72V46.94H155.9v-1h1.71V43h1.2v2.95Z"/><polygon class="cls-4" points="41.5 49.84 32.03 55.26 22.55 60.68 22.6 49.77 22.64 38.86 32.07 44.35 41.5 49.84"/><path class="cls-1" d="M390,49.74a20.22,20.22,0,0,0-18.27-19.88v-.12H229.19v0a20.24,20.24,0,0,0-19.19,20,20.24,20.24,0,0,0,19.19,19.95v0H371.73v-.13A20.22,20.22,0,0,0,390,49.74Z"/><path class="cls-3" d="M268.26,47.85a2,2,0,0,0-.56-.68,2.76,2.76,0,0,0-.81-.39,3.79,3.79,0,0,0-1-.12,3.86,3.86,0,0,0-.81.09,2.42,2.42,0,0,0-.75.28,1.71,1.71,0,0,0-.55.52,1.44,1.44,0,0,0-.21.8,1.11,1.11,0,0,0,.2.67,1.77,1.77,0,0,0,.51.47,2.86,2.86,0,0,0,.66.31,5.47,5.47,0,0,0,.67.2l1.59.36a5.54,5.54,0,0,1,1,.28,3.41,3.41,0,0,1,.89.52,2.66,2.66,0,0,1,.64.8,2.47,2.47,0,0,1,.25,1.12,2.39,2.39,0,0,1-.37,1.36,2.86,2.86,0,0,1-.92.91,3.92,3.92,0,0,1-1.26.51,6.64,6.64,0,0,1-1.39.15,4.48,4.48,0,0,1-2.8-.82,3.49,3.49,0,0,1-1.23-2.62h1.2a2.35,2.35,0,0,0,.89,1.83,3.18,3.18,0,0,0,2,.62,4.07,4.07,0,0,0,.9-.1,2.93,2.93,0,0,0,.87-.32,2,2,0,0,0,.65-.58,1.42,1.42,0,0,0,.26-.86,1.36,1.36,0,0,0-.18-.73,1.46,1.46,0,0,0-.49-.5,3.15,3.15,0,0,0-.69-.33c-.26-.09-.52-.16-.79-.23L265.14,51a9.13,9.13,0,0,1-1.08-.35,3.14,3.14,0,0,1-.86-.5,1.85,1.85,0,0,1-.58-.72,2.34,2.34,0,0,1-.21-1.05,2.39,2.39,0,0,1,.33-1.28,2.69,2.69,0,0,1,.86-.85,3.9,3.9,0,0,1,1.19-.47,5.32,5.32,0,0,1,1.3-.16,5,5,0,0,1,1.38.19,3.33,3.33,0,0,1,1.12.59,3,3,0,0,1,.77,1,3.43,3.43,0,0,1,.32,1.39h-1.19A2.34,2.34,0,0,0,268.26,47.85Z"/><path class="cls-3" d="M273,42.18V55.74h-1.2V42.18Z"/><path class="cls-3" d="M276.49,42.18v1.91h-1.2V42.18Zm0,3.76v9.8h-1.2v-9.8Z"/><path class="cls-3" d="M286.31,55.74V53.88h0a2.7,2.7,0,0,1-.56.87,3.74,3.74,0,0,1-.85.68,4.8,4.8,0,0,1-1,.43,4,4,0,0,1-1.08.15,4.37,4.37,0,0,1-1.94-.41,4,4,0,0,1-1.38-1.12,4.91,4.91,0,0,1-.82-1.65,7.75,7.75,0,0,1,0-4,4.91,4.91,0,0,1,.82-1.65,4.11,4.11,0,0,1,1.38-1.13,4.23,4.23,0,0,1,1.94-.42,4.32,4.32,0,0,1,1.08.14,3.34,3.34,0,0,1,1.78,1.08,2.7,2.7,0,0,1,.55.93h0V42.18h1.2V55.74Zm-6.57-3.39a4.14,4.14,0,0,0,.57,1.34,3.27,3.27,0,0,0,1,1,2.73,2.73,0,0,0,1.46.37,3.05,3.05,0,0,0,2.67-1.33,3.78,3.78,0,0,0,.59-1.34,6.42,6.42,0,0,0,0-3,3.78,3.78,0,0,0-.59-1.34,3.05,3.05,0,0,0-2.67-1.33,2.73,2.73,0,0,0-1.46.37,3.27,3.27,0,0,0-1,1,4.14,4.14,0,0,0-.57,1.34,6.42,6.42,0,0,0,0,3Z"/><path class="cls-3" d="M290.57,52.5a3.87,3.87,0,0,0,.58,1.25,3.4,3.4,0,0,0,1,.91,2.82,2.82,0,0,0,1.46.36,3,3,0,0,0,2.06-.68,3.66,3.66,0,0,0,1-1.83h1.2a4.82,4.82,0,0,1-1.4,2.59,4.21,4.21,0,0,1-2.88.91,4.57,4.57,0,0,1-2-.41,3.79,3.79,0,0,1-1.38-1.12,5,5,0,0,1-.79-1.65,7.59,7.59,0,0,1-.25-2,7.13,7.13,0,0,1,.25-1.9,5.2,5.2,0,0,1,.79-1.66,4.06,4.06,0,0,1,1.38-1.18,4.19,4.19,0,0,1,2-.45,4,4,0,0,1,2,.48A4,4,0,0,1,297,47.37a5.53,5.53,0,0,1,.75,1.77,8.05,8.05,0,0,1,.19,2h-7.55A5.32,5.32,0,0,0,290.57,52.5Zm5.93-3.66a3.56,3.56,0,0,0-.62-1.11,3.05,3.05,0,0,0-1-.78,3.08,3.08,0,0,0-2.61,0,3.21,3.21,0,0,0-1,.78,4.22,4.22,0,0,0-.63,1.12,5.45,5.45,0,0,0-.32,1.31h6.35A4.17,4.17,0,0,0,296.5,48.84Z"/><path class="cls-3" d="M308.73,45.94v1h-2v6.62a2.1,2.1,0,0,0,.17.92c.1.22.37.34.8.37a8.89,8.89,0,0,0,1-.06v1l-.53,0-.54,0a2.38,2.38,0,0,1-1.67-.47,2.34,2.34,0,0,1-.45-1.72V46.94h-1.71v-1h1.71V43h1.19v2.95Z"/><path class="cls-3" d="M316.58,46.07A4.29,4.29,0,0,1,318,47.19a4.86,4.86,0,0,1,.89,1.65,6.61,6.61,0,0,1,0,4,4.86,4.86,0,0,1-.89,1.65,4.14,4.14,0,0,1-1.46,1.11,4.58,4.58,0,0,1-2,.41,4.65,4.65,0,0,1-2-.41,4.19,4.19,0,0,1-1.45-1.11,4.86,4.86,0,0,1-.89-1.65,6.61,6.61,0,0,1,0-4,4.86,4.86,0,0,1,.89-1.65,4.35,4.35,0,0,1,1.45-1.12,4.51,4.51,0,0,1,2-.42A4.44,4.44,0,0,1,316.58,46.07Zm-3.48,1A3.4,3.4,0,0,0,312,48a4.26,4.26,0,0,0-.64,1.34,5.43,5.43,0,0,0,0,3.06,4.26,4.26,0,0,0,.64,1.34,3.4,3.4,0,0,0,1.08.95,3.31,3.31,0,0,0,3,0,3.26,3.26,0,0,0,1.07-.95,4.28,4.28,0,0,0,.65-1.34,5.43,5.43,0,0,0,0-3.06,4.28,4.28,0,0,0-.65-1.34A3.26,3.26,0,0,0,316.1,47a3.3,3.3,0,0,0-3,0Z"/><path class="cls-3" d="M332,47.85a2,2,0,0,0-.56-.68,2.76,2.76,0,0,0-.81-.39,3.85,3.85,0,0,0-1-.12,3.72,3.72,0,0,0-.81.09,2.42,2.42,0,0,0-.75.28,1.61,1.61,0,0,0-.55.52,1.44,1.44,0,0,0-.21.8,1.11,1.11,0,0,0,.2.67,1.73,1.73,0,0,0,.5.47,3.14,3.14,0,0,0,.67.31,5.93,5.93,0,0,0,.66.2l1.6.36a5.54,5.54,0,0,1,1,.28,3.41,3.41,0,0,1,.89.52,2.66,2.66,0,0,1,.64.8,2.74,2.74,0,0,1-.12,2.48,3,3,0,0,1-.92.91,3.92,3.92,0,0,1-1.26.51,6.64,6.64,0,0,1-1.39.15,4.46,4.46,0,0,1-2.8-.82,3.45,3.45,0,0,1-1.23-2.62H327a2.34,2.34,0,0,0,.88,1.83,3.23,3.23,0,0,0,2,.62,4.07,4.07,0,0,0,.9-.1,2.78,2.78,0,0,0,.86-.32,2,2,0,0,0,.66-.58,1.42,1.42,0,0,0,.26-.86,1.36,1.36,0,0,0-.18-.73,1.56,1.56,0,0,0-.49-.5,3.15,3.15,0,0,0-.69-.33c-.26-.09-.52-.16-.79-.23L328.83,51a9.13,9.13,0,0,1-1.08-.35,3.35,3.35,0,0,1-.87-.5,2.05,2.05,0,0,1-.58-.72,2.34,2.34,0,0,1-.21-1.05,2.39,2.39,0,0,1,.34-1.28,2.69,2.69,0,0,1,.86-.85,3.9,3.9,0,0,1,1.19-.47,5.32,5.32,0,0,1,1.3-.16,5.11,5.11,0,0,1,1.38.19,3.33,3.33,0,0,1,1.12.59,3,3,0,0,1,.77,1,3.43,3.43,0,0,1,.32,1.39h-1.2A2.19,2.19,0,0,0,332,47.85Z"/><path class="cls-3" d="M339.34,45.94v1h-2v6.62a2.27,2.27,0,0,0,.16.92c.11.22.38.34.81.37a8.89,8.89,0,0,0,1-.06v1l-.53,0-.54,0a2.38,2.38,0,0,1-1.67-.47,2.29,2.29,0,0,1-.45-1.72V46.94h-1.71v-1h1.71V43h1.19v2.95Z"/><path class="cls-3" d="M341.31,47.46a2.91,2.91,0,0,1,.83-1,3.7,3.7,0,0,1,1.23-.59,6.15,6.15,0,0,1,1.55-.19,6.44,6.44,0,0,1,1.3.13,3,3,0,0,1,1.15.46,2.55,2.55,0,0,1,.84,1,3.42,3.42,0,0,1,.32,1.61V54a.63.63,0,0,0,.71.72,1,1,0,0,0,.38-.07v1l-.37,0a2.49,2.49,0,0,1-.41,0,1.82,1.82,0,0,1-.73-.12.94.94,0,0,1-.43-.35,1.4,1.4,0,0,1-.2-.54,4.9,4.9,0,0,1-.05-.7h0a7.56,7.56,0,0,1-.65.85,3.29,3.29,0,0,1-.74.61,3.19,3.19,0,0,1-.93.38,5.07,5.07,0,0,1-1.25.14,5.28,5.28,0,0,1-1.28-.16,2.87,2.87,0,0,1-1.05-.52,2.48,2.48,0,0,1-.7-.89,3,3,0,0,1-.26-1.28,2.57,2.57,0,0,1,.46-1.61,2.88,2.88,0,0,1,1.21-.88,6.85,6.85,0,0,1,1.69-.43L345.8,50a5.28,5.28,0,0,0,.66-.09,1.31,1.31,0,0,0,.48-.2,1.05,1.05,0,0,0,.29-.39,1.69,1.69,0,0,0,.11-.65,2.21,2.21,0,0,0-.2-1,1.66,1.66,0,0,0-.55-.62,2.19,2.19,0,0,0-.82-.31,5.24,5.24,0,0,0-1-.09,3,3,0,0,0-1.86.54,2.11,2.11,0,0,0-.76,1.74H341A4.08,4.08,0,0,1,341.31,47.46Zm6,2.92a.72.72,0,0,1-.44.31,3.78,3.78,0,0,1-.57.13c-.51.09-1,.17-1.57.24a8.65,8.65,0,0,0-1.47.31,2.86,2.86,0,0,0-1.09.6,1.41,1.41,0,0,0-.43,1.11,1.76,1.76,0,0,0,.18.81,1.91,1.91,0,0,0,.49.61,2.08,2.08,0,0,0,.7.39,2.56,2.56,0,0,0,.82.13,4.13,4.13,0,0,0,1.31-.21,3.14,3.14,0,0,0,1.09-.61,2.85,2.85,0,0,0,.74-1,3,3,0,0,0,.28-1.29V50.38Z"/><path class="cls-3" d="M352,45.94v2.3h0a3.56,3.56,0,0,1,3.7-2.43V47a3.72,3.72,0,0,0-1.48.22,3.42,3.42,0,0,0-1.15.73,3.49,3.49,0,0,0-.75,1.13,3.77,3.77,0,0,0-.27,1.44v5.22h-1.19v-9.8Z"/><path class="cls-3" d="M360.81,45.94v1h-2v6.62a2.27,2.27,0,0,0,.16.92c.11.22.38.34.81.37a9,9,0,0,0,1-.06v1l-.54,0-.53,0a2.36,2.36,0,0,1-1.67-.47,2.33,2.33,0,0,1-.46-1.72V46.94H355.9v-1h1.71V43h1.2v2.95Z"/><circle class="cls-2" cx="250.5" cy="49.74" r="17.5"/><polygon class="cls-4" points="262.5 49.84 253.03 55.26 243.56 60.68 243.6 49.77 243.64 38.86 253.07 44.35 262.5 49.84"/><path class="cls-1" d="M590,49.74a20.22,20.22,0,0,0-18.27-19.88v-.12H429.19v0a20.24,20.24,0,0,0-19.19,20,20.24,20.24,0,0,0,19.19,19.95v0H571.73v-.13A20.22,20.22,0,0,0,590,49.74Z"/><path class="cls-3" d="M468.26,47.85a2,2,0,0,0-.56-.68,2.76,2.76,0,0,0-.81-.39,3.79,3.79,0,0,0-1-.12,3.86,3.86,0,0,0-.81.09,2.42,2.42,0,0,0-.75.28,1.71,1.71,0,0,0-.55.52,1.44,1.44,0,0,0-.21.8,1.11,1.11,0,0,0,.2.67,1.77,1.77,0,0,0,.51.47,2.86,2.86,0,0,0,.66.31,5.47,5.47,0,0,0,.67.2l1.59.36a5.54,5.54,0,0,1,1,.28,3.41,3.41,0,0,1,.89.52,2.66,2.66,0,0,1,.64.8,2.47,2.47,0,0,1,.25,1.12,2.39,2.39,0,0,1-.37,1.36,2.86,2.86,0,0,1-.92.91,3.92,3.92,0,0,1-1.26.51,6.64,6.64,0,0,1-1.39.15,4.48,4.48,0,0,1-2.8-.82,3.49,3.49,0,0,1-1.23-2.62h1.2a2.35,2.35,0,0,0,.89,1.83,3.18,3.18,0,0,0,2,.62,4.07,4.07,0,0,0,.9-.1,2.93,2.93,0,0,0,.87-.32,2,2,0,0,0,.65-.58,1.42,1.42,0,0,0,.26-.86,1.36,1.36,0,0,0-.18-.73,1.46,1.46,0,0,0-.49-.5,3.15,3.15,0,0,0-.69-.33c-.26-.09-.52-.16-.79-.23L465.14,51a9.13,9.13,0,0,1-1.08-.35,3.14,3.14,0,0,1-.86-.5,1.85,1.85,0,0,1-.58-.72,2.34,2.34,0,0,1-.21-1.05,2.39,2.39,0,0,1,.33-1.28,2.69,2.69,0,0,1,.86-.85,3.9,3.9,0,0,1,1.19-.47,5.32,5.32,0,0,1,1.3-.16,5,5,0,0,1,1.38.19,3.33,3.33,0,0,1,1.12.59,3,3,0,0,1,.77,1,3.43,3.43,0,0,1,.32,1.39h-1.19A2.34,2.34,0,0,0,468.26,47.85Z"/><path class="cls-3" d="M473,42.18V55.74h-1.2V42.18Z"/><path class="cls-3" d="M476.49,42.18v1.91h-1.2V42.18Zm0,3.76v9.8h-1.2v-9.8Z"/><path class="cls-3" d="M486.31,55.74V53.88h0a2.7,2.7,0,0,1-.56.87,3.74,3.74,0,0,1-.85.68,4.8,4.8,0,0,1-1,.43,4,4,0,0,1-1.08.15,4.37,4.37,0,0,1-1.94-.41,4,4,0,0,1-1.38-1.12,4.91,4.91,0,0,1-.82-1.65,7.75,7.75,0,0,1,0-4,4.91,4.91,0,0,1,.82-1.65,4.11,4.11,0,0,1,1.38-1.13,4.23,4.23,0,0,1,1.94-.42,4.32,4.32,0,0,1,1.08.14,3.34,3.34,0,0,1,1.78,1.08,2.7,2.7,0,0,1,.55.93h0V42.18h1.2V55.74Zm-6.57-3.39a4.14,4.14,0,0,0,.57,1.34,3.27,3.27,0,0,0,1,1,2.73,2.73,0,0,0,1.46.37,3.05,3.05,0,0,0,2.67-1.33,3.78,3.78,0,0,0,.59-1.34,6.42,6.42,0,0,0,0-3,3.78,3.78,0,0,0-.59-1.34,3.05,3.05,0,0,0-2.67-1.33,2.73,2.73,0,0,0-1.46.37,3.27,3.27,0,0,0-1,1,4.14,4.14,0,0,0-.57,1.34,6.42,6.42,0,0,0,0,3Z"/><path class="cls-3" d="M490.57,52.5a3.87,3.87,0,0,0,.58,1.25,3.4,3.4,0,0,0,1,.91,2.82,2.82,0,0,0,1.46.36,3,3,0,0,0,2.06-.68,3.66,3.66,0,0,0,1-1.83h1.2a4.82,4.82,0,0,1-1.4,2.59,4.21,4.21,0,0,1-2.88.91,4.57,4.57,0,0,1-2-.41,3.79,3.79,0,0,1-1.38-1.12,5,5,0,0,1-.79-1.65,7.59,7.59,0,0,1-.25-2,7.13,7.13,0,0,1,.25-1.9,5.2,5.2,0,0,1,.79-1.66,4.06,4.06,0,0,1,1.38-1.18,4.19,4.19,0,0,1,2-.45,4,4,0,0,1,2,.48A4,4,0,0,1,497,47.37a5.53,5.53,0,0,1,.75,1.77,8.05,8.05,0,0,1,.19,2h-7.55A5.32,5.32,0,0,0,490.57,52.5Zm5.93-3.66a3.56,3.56,0,0,0-.62-1.11,3.05,3.05,0,0,0-1-.78,3.08,3.08,0,0,0-2.61,0,3.21,3.21,0,0,0-1,.78,4.22,4.22,0,0,0-.63,1.12,5.45,5.45,0,0,0-.32,1.31h6.35A4.17,4.17,0,0,0,496.5,48.84Z"/><path class="cls-3" d="M508.73,45.94v1h-2v6.62a2.1,2.1,0,0,0,.17.92c.1.22.37.34.8.37a8.89,8.89,0,0,0,1-.06v1l-.53,0-.54,0a2.38,2.38,0,0,1-1.67-.47,2.34,2.34,0,0,1-.45-1.72V46.94h-1.71v-1h1.71V43h1.19v2.95Z"/><path class="cls-3" d="M516.58,46.07A4.29,4.29,0,0,1,518,47.19a4.86,4.86,0,0,1,.89,1.65,6.61,6.61,0,0,1,0,4,4.86,4.86,0,0,1-.89,1.65,4.14,4.14,0,0,1-1.46,1.11,4.58,4.58,0,0,1-2,.41,4.65,4.65,0,0,1-2-.41,4.19,4.19,0,0,1-1.45-1.11,4.86,4.86,0,0,1-.89-1.65,6.61,6.61,0,0,1,0-4,4.86,4.86,0,0,1,.89-1.65,4.35,4.35,0,0,1,1.45-1.12,4.51,4.51,0,0,1,2-.42A4.44,4.44,0,0,1,516.58,46.07Zm-3.48,1A3.4,3.4,0,0,0,512,48a4.26,4.26,0,0,0-.64,1.34,5.43,5.43,0,0,0,0,3.06,4.26,4.26,0,0,0,.64,1.34,3.4,3.4,0,0,0,1.08.95,3.31,3.31,0,0,0,3,0,3.26,3.26,0,0,0,1.07-.95,4.28,4.28,0,0,0,.65-1.34,5.43,5.43,0,0,0,0-3.06,4.28,4.28,0,0,0-.65-1.34A3.26,3.26,0,0,0,516.1,47a3.3,3.3,0,0,0-3,0Z"/><path class="cls-3" d="M532,47.85a2,2,0,0,0-.56-.68,2.76,2.76,0,0,0-.81-.39,3.85,3.85,0,0,0-1-.12,3.72,3.72,0,0,0-.81.09,2.42,2.42,0,0,0-.75.28,1.61,1.61,0,0,0-.55.52,1.44,1.44,0,0,0-.21.8,1.11,1.11,0,0,0,.2.67,1.73,1.73,0,0,0,.5.47,3.14,3.14,0,0,0,.67.31,5.93,5.93,0,0,0,.66.2l1.6.36a5.54,5.54,0,0,1,1,.28,3.41,3.41,0,0,1,.89.52,2.66,2.66,0,0,1,.64.8,2.74,2.74,0,0,1-.12,2.48,3,3,0,0,1-.92.91,3.92,3.92,0,0,1-1.26.51,6.64,6.64,0,0,1-1.39.15,4.46,4.46,0,0,1-2.8-.82,3.45,3.45,0,0,1-1.23-2.62H527a2.34,2.34,0,0,0,.88,1.83,3.23,3.23,0,0,0,2,.62,4.07,4.07,0,0,0,.9-.1,2.78,2.78,0,0,0,.86-.32,2,2,0,0,0,.66-.58,1.42,1.42,0,0,0,.26-.86,1.36,1.36,0,0,0-.18-.73,1.56,1.56,0,0,0-.49-.5,3.15,3.15,0,0,0-.69-.33c-.26-.09-.52-.16-.79-.23L528.83,51a9.13,9.13,0,0,1-1.08-.35,3.35,3.35,0,0,1-.87-.5,2.05,2.05,0,0,1-.58-.72,2.34,2.34,0,0,1-.21-1.05,2.39,2.39,0,0,1,.34-1.28,2.69,2.69,0,0,1,.86-.85,3.9,3.9,0,0,1,1.19-.47,5.32,5.32,0,0,1,1.3-.16,5.11,5.11,0,0,1,1.38.19,3.33,3.33,0,0,1,1.12.59,3,3,0,0,1,.77,1,3.43,3.43,0,0,1,.32,1.39h-1.2A2.19,2.19,0,0,0,532,47.85Z"/><path class="cls-3" d="M539.34,45.94v1h-2v6.62a2.27,2.27,0,0,0,.16.92c.11.22.38.34.81.37a8.89,8.89,0,0,0,1-.06v1l-.53,0-.54,0a2.38,2.38,0,0,1-1.67-.47,2.29,2.29,0,0,1-.45-1.72V46.94h-1.71v-1h1.71V43h1.19v2.95Z"/><path class="cls-3" d="M541.31,47.46a2.91,2.91,0,0,1,.83-1,3.7,3.7,0,0,1,1.23-.59,6.15,6.15,0,0,1,1.55-.19,6.44,6.44,0,0,1,1.3.13,3,3,0,0,1,1.15.46,2.55,2.55,0,0,1,.84,1,3.42,3.42,0,0,1,.32,1.61V54a.63.63,0,0,0,.71.72,1,1,0,0,0,.38-.07v1l-.37,0a2.49,2.49,0,0,1-.41,0,1.82,1.82,0,0,1-.73-.12.94.94,0,0,1-.43-.35,1.4,1.4,0,0,1-.2-.54,4.9,4.9,0,0,1-.05-.7h0a7.56,7.56,0,0,1-.65.85,3.29,3.29,0,0,1-.74.61,3.19,3.19,0,0,1-.93.38,5.07,5.07,0,0,1-1.25.14,5.28,5.28,0,0,1-1.28-.16,2.87,2.87,0,0,1-1-.52,2.48,2.48,0,0,1-.7-.89,3,3,0,0,1-.26-1.28,2.57,2.57,0,0,1,.46-1.61,2.88,2.88,0,0,1,1.21-.88,6.85,6.85,0,0,1,1.69-.43L545.8,50a5.28,5.28,0,0,0,.66-.09,1.31,1.31,0,0,0,.48-.2,1.05,1.05,0,0,0,.29-.39,1.69,1.69,0,0,0,.11-.65,2.21,2.21,0,0,0-.2-1,1.66,1.66,0,0,0-.55-.62,2.19,2.19,0,0,0-.82-.31,5.24,5.24,0,0,0-1-.09,3,3,0,0,0-1.86.54,2.11,2.11,0,0,0-.76,1.74H541A4.08,4.08,0,0,1,541.31,47.46Zm6,2.92a.72.72,0,0,1-.44.31,3.78,3.78,0,0,1-.57.13c-.51.09-1,.17-1.57.24a8.65,8.65,0,0,0-1.47.31,2.86,2.86,0,0,0-1.09.6,1.41,1.41,0,0,0-.43,1.11,1.76,1.76,0,0,0,.18.81,1.91,1.91,0,0,0,.49.61,2.08,2.08,0,0,0,.7.39,2.56,2.56,0,0,0,.82.13,4.13,4.13,0,0,0,1.31-.21,3.14,3.14,0,0,0,1.09-.61,2.85,2.85,0,0,0,.74-1,3,3,0,0,0,.28-1.29V50.38Z"/><path class="cls-3" d="M552,45.94v2.3h0a3.56,3.56,0,0,1,3.7-2.43V47a3.72,3.72,0,0,0-1.48.22,3.42,3.42,0,0,0-1.15.73,3.49,3.49,0,0,0-.75,1.13,3.77,3.77,0,0,0-.27,1.44v5.22h-1.19v-9.8Z"/><path class="cls-3" d="M560.81,45.94v1h-2v6.62a2.27,2.27,0,0,0,.16.92c.11.22.38.34.81.37a9,9,0,0,0,1-.06v1l-.54,0-.53,0a2.36,2.36,0,0,1-1.67-.47,2.33,2.33,0,0,1-.46-1.72V46.94H555.9v-1h1.71V43h1.2v2.95Z"/><circle class="cls-2" cx="479.5" cy="49.74" r="17.5"/><polygon class="cls-4" points="491.5 49.84 482.03 55.26 472.56 60.68 472.6 49.77 472.64 38.86 482.07 44.35 491.5 49.84"/><path class="cls-1" d="M790,49.74a20.22,20.22,0,0,0-18.27-19.88v-.12H629.19v0a20.24,20.24,0,0,0-19.19,20,20.24,20.24,0,0,0,19.19,19.95v0H771.73v-.13A20.22,20.22,0,0,0,790,49.74Z"/><path class="cls-1" d="M667.78,47.85a1.86,1.86,0,0,0-.56-.68,2.59,2.59,0,0,0-.8-.39,3.85,3.85,0,0,0-1-.12,3.72,3.72,0,0,0-.81.09,2.42,2.42,0,0,0-.75.28,1.61,1.61,0,0,0-.55.52,1.44,1.44,0,0,0-.21.8,1,1,0,0,0,.2.67,1.73,1.73,0,0,0,.5.47,2.93,2.93,0,0,0,.67.31,5.93,5.93,0,0,0,.66.2l1.6.36a5.23,5.23,0,0,1,1,.28,3.31,3.31,0,0,1,.9.52,2.49,2.49,0,0,1,.63.8,2.34,2.34,0,0,1,.25,1.12,2.46,2.46,0,0,1-.36,1.36,3,3,0,0,1-.92.91,4.08,4.08,0,0,1-1.27.51,6.55,6.55,0,0,1-1.38.15,4.49,4.49,0,0,1-2.81-.82,3.48,3.48,0,0,1-1.22-2.62h1.2a2.34,2.34,0,0,0,.88,1.83,3.22,3.22,0,0,0,2,.62,4.09,4.09,0,0,0,.91-.1,2.87,2.87,0,0,0,.86-.32,2,2,0,0,0,.66-.58,1.41,1.41,0,0,0,.25-.86,1.36,1.36,0,0,0-.18-.73,1.53,1.53,0,0,0-.48-.5,3.24,3.24,0,0,0-.7-.33c-.26-.09-.52-.16-.78-.23L664.67,51a8.74,8.74,0,0,1-1.09-.35,3.29,3.29,0,0,1-.86-.5,2,2,0,0,1-.58-.72,2.34,2.34,0,0,1-.21-1.05,2.39,2.39,0,0,1,.33-1.28,2.62,2.62,0,0,1,.87-.85,3.8,3.8,0,0,1,1.19-.47,5.26,5.26,0,0,1,1.3-.16,5,5,0,0,1,1.37.19,3.38,3.38,0,0,1,1.13.59,3,3,0,0,1,.76,1,3.43,3.43,0,0,1,.33,1.39H668A2.19,2.19,0,0,0,667.78,47.85Z"/><path class="cls-1" d="M672.49,42.18V55.74H671.3V42.18Z"/><path class="cls-1" d="M676,42.18v1.91h-1.2V42.18Zm0,3.76v9.8h-1.2v-9.8Z"/><path class="cls-1" d="M685.83,55.74V53.88h0a2.54,2.54,0,0,1-.56.87,3.48,3.48,0,0,1-.84.68,5.12,5.12,0,0,1-1,.43,4,4,0,0,1-1.07.15,4.38,4.38,0,0,1-1.95-.41A4,4,0,0,1,679,54.48a4.89,4.89,0,0,1-.81-1.65,7.47,7.47,0,0,1,0-4A4.89,4.89,0,0,1,679,47.2a4.11,4.11,0,0,1,1.38-1.13,4.52,4.52,0,0,1,3-.28,3.37,3.37,0,0,1,1,.4,3.75,3.75,0,0,1,.81.68,2.84,2.84,0,0,1,.54.93h0V42.18h1.2V55.74Zm-6.56-3.39a4.14,4.14,0,0,0,.57,1.34,3.16,3.16,0,0,0,1,1,2.71,2.71,0,0,0,1.46.37,3.16,3.16,0,0,0,1.6-.37,3.2,3.2,0,0,0,1.07-1,4,4,0,0,0,.59-1.34,6.42,6.42,0,0,0,0-3A4,4,0,0,0,685,48a3.2,3.2,0,0,0-1.07-1,3.16,3.16,0,0,0-1.6-.37,2.71,2.71,0,0,0-1.46.37,3.16,3.16,0,0,0-1,1,4.14,4.14,0,0,0-.57,1.34,6.42,6.42,0,0,0,0,3Z"/><path class="cls-1" d="M690.1,52.5a3.67,3.67,0,0,0,.58,1.25,3.36,3.36,0,0,0,1,.91,2.86,2.86,0,0,0,1.47.36,2.93,2.93,0,0,0,2.05-.68,3.67,3.67,0,0,0,1-1.83h1.19A4.81,4.81,0,0,1,696,55.1a4.21,4.21,0,0,1-2.88.91,4.65,4.65,0,0,1-2-.41,3.68,3.68,0,0,1-1.37-1.12,4.85,4.85,0,0,1-.79-1.65,7.59,7.59,0,0,1-.26-2,7.14,7.14,0,0,1,.26-1.9,5,5,0,0,1,.79-1.66,3.93,3.93,0,0,1,1.37-1.18,4.26,4.26,0,0,1,2-.45,3.91,3.91,0,0,1,3.37,1.72,5.12,5.12,0,0,1,.75,1.77,7.61,7.61,0,0,1,.19,2h-7.54A5.32,5.32,0,0,0,690.1,52.5ZM696,48.84a4,4,0,0,0-.62-1.11,3.21,3.21,0,0,0-1-.78,3.06,3.06,0,0,0-2.6,0,3.09,3.09,0,0,0-1,.78,4,4,0,0,0-.64,1.12,5.43,5.43,0,0,0-.31,1.31h6.34A4.46,4.46,0,0,0,696,48.84Z"/><path class="cls-3" d="M708.25,45.94v1h-2v6.62a2.11,2.11,0,0,0,.16.92c.11.22.38.34.81.37a8.72,8.72,0,0,0,1-.06v1l-.53,0-.53,0a1.78,1.78,0,0,1-2.13-2.19V46.94h-1.71v-1h1.71V43h1.2v2.95Z"/><path class="cls-3" d="M716.11,46.07a4.25,4.25,0,0,1,1.45,1.12,4.88,4.88,0,0,1,.9,1.65,6.82,6.82,0,0,1,0,4,4.88,4.88,0,0,1-.9,1.65,4.1,4.1,0,0,1-1.45,1.11,5,5,0,0,1-4,0,4.23,4.23,0,0,1-1.46-1.11,4.86,4.86,0,0,1-.89-1.65,6.82,6.82,0,0,1,0-4,4.86,4.86,0,0,1,.89-1.65,4.38,4.38,0,0,1,1.46-1.12,4.9,4.9,0,0,1,4,0Zm-3.49,1a3.26,3.26,0,0,0-1.07.95,4.28,4.28,0,0,0-.65,1.34,5.43,5.43,0,0,0,0,3.06,4.28,4.28,0,0,0,.65,1.34,3.26,3.26,0,0,0,1.07.95,3,3,0,0,0,1.5.36,3.09,3.09,0,0,0,1.51-.36,3.37,3.37,0,0,0,1.07-.95,4.26,4.26,0,0,0,.64-1.34,5.43,5.43,0,0,0,0-3.06A4.26,4.26,0,0,0,716.7,48a3.37,3.37,0,0,0-1.07-.95,3.09,3.09,0,0,0-1.51-.36A3,3,0,0,0,712.62,47Z"/><path class="cls-3" d="M731.47,47.85a2,2,0,0,0-.56-.68,2.54,2.54,0,0,0-.81-.39,3.8,3.8,0,0,0-1.77,0,2.24,2.24,0,0,0-.75.28,1.65,1.65,0,0,0-.56.52,1.53,1.53,0,0,0-.2.8,1,1,0,0,0,.2.67,1.73,1.73,0,0,0,.5.47,2.86,2.86,0,0,0,.66.31,6,6,0,0,0,.67.2l1.59.36a5.14,5.14,0,0,1,1,.28,3.26,3.26,0,0,1,.89.52,2.52,2.52,0,0,1,.64.8,2.34,2.34,0,0,1,.25,1.12,2.46,2.46,0,0,1-.36,1.36,3,3,0,0,1-.92.91,4.08,4.08,0,0,1-1.27.51,6.62,6.62,0,0,1-1.38.15,4.49,4.49,0,0,1-2.81-.82,3.48,3.48,0,0,1-1.22-2.62h1.19a2.35,2.35,0,0,0,.89,1.83,3.2,3.2,0,0,0,2,.62,4.07,4.07,0,0,0,.9-.1,2.93,2.93,0,0,0,.87-.32,1.92,1.92,0,0,0,.65-.58,1.56,1.56,0,0,0,.08-1.59,1.53,1.53,0,0,0-.48-.5,3.48,3.48,0,0,0-.7-.33c-.26-.09-.52-.16-.79-.23L728.35,51a9.13,9.13,0,0,1-1.08-.35,3.14,3.14,0,0,1-.86-.5,2,2,0,0,1-.58-.72,2.34,2.34,0,0,1-.21-1.05,2.39,2.39,0,0,1,.33-1.28,2.62,2.62,0,0,1,.87-.85,3.84,3.84,0,0,1,1.18-.47,5.34,5.34,0,0,1,1.31-.16,5,5,0,0,1,1.37.19,3.24,3.24,0,0,1,1.12.59,2.88,2.88,0,0,1,.77,1,3.6,3.6,0,0,1,.33,1.39h-1.2A2.19,2.19,0,0,0,731.47,47.85Z"/><path class="cls-3" d="M738.86,45.94v1h-2v6.62a2.11,2.11,0,0,0,.16.92c.11.22.37.34.81.37a8.72,8.72,0,0,0,1-.06v1l-.53,0-.53,0a1.78,1.78,0,0,1-2.13-2.19V46.94H734v-1h1.71V43h1.2v2.95Z"/><path class="cls-3" d="M740.84,47.46a2.88,2.88,0,0,1,.82-1,3.7,3.7,0,0,1,1.23-.59,6.48,6.48,0,0,1,2.85-.06,3,3,0,0,1,1.16.46,2.52,2.52,0,0,1,.83,1,3.41,3.41,0,0,1,.33,1.61V54a.63.63,0,0,0,.7.72.92.92,0,0,0,.38-.07v1l-.37,0a2.43,2.43,0,0,1-.41,0,1.85,1.85,0,0,1-.73-.12,1,1,0,0,1-.43-.35,1.4,1.4,0,0,1-.2-.54,5,5,0,0,1,0-.7h0a9,9,0,0,1-.66.85,3.29,3.29,0,0,1-.74.61,3,3,0,0,1-.93.38,5,5,0,0,1-1.24.14,5.3,5.3,0,0,1-1.29-.16,2.83,2.83,0,0,1-1-.52,2.5,2.5,0,0,1-.71-.89,3,3,0,0,1-.25-1.28,2.57,2.57,0,0,1,.45-1.61,3,3,0,0,1,1.21-.88,7,7,0,0,1,1.69-.43l1.91-.24a5.46,5.46,0,0,0,.67-.09,1.26,1.26,0,0,0,.47-.2,1,1,0,0,0,.3-.39,1.71,1.71,0,0,0,.1-.65,2.21,2.21,0,0,0-.2-1,1.58,1.58,0,0,0-.55-.62,2.12,2.12,0,0,0-.82-.31,5.21,5.21,0,0,0-1-.09,3.07,3.07,0,0,0-1.87.54,2.14,2.14,0,0,0-.76,1.74h-1.19A3.71,3.71,0,0,1,740.84,47.46Zm6,2.92a.69.69,0,0,1-.43.31,4.41,4.41,0,0,1-.57.13c-.51.09-1,.17-1.57.24a8.44,8.44,0,0,0-1.47.31,2.9,2.9,0,0,0-1.1.6,1.44,1.44,0,0,0-.42,1.11,1.76,1.76,0,0,0,.18.81,2,2,0,0,0,.48.61,2.18,2.18,0,0,0,.7.39,2.56,2.56,0,0,0,.82.13,4.09,4.09,0,0,0,1.31-.21,3.14,3.14,0,0,0,1.09-.61,2.92,2.92,0,0,0,1-2.26V50.38Z"/><path class="cls-3" d="M751.55,45.94v2.3h0A3.81,3.81,0,0,1,753,46.39a3.69,3.69,0,0,1,2.29-.58V47a3.77,3.77,0,0,0-1.49.22,3.34,3.34,0,0,0-1.9,1.86,4,4,0,0,0-.26,1.44v5.22h-1.2v-9.8Z"/><path class="cls-3" d="M760.33,45.94v1h-2v6.62a2.11,2.11,0,0,0,.16.92c.11.22.37.34.81.37a8.72,8.72,0,0,0,1-.06v1l-.53,0-.53,0a1.78,1.78,0,0,1-2.13-2.19V46.94h-1.71v-1h1.71V43h1.2v2.95Z"/><circle class="cls-2" cx="700.5" cy="49.74" r="17.5"/><polygon class="cls-4" points="712.5 49.84 703.03 55.26 693.55 60.68 693.6 49.77 693.64 38.86 703.07 44.35 712.5 49.84"/><path class="cls-1" d="M990,49.74a20.22,20.22,0,0,0-18.27-19.88v-.12H829.19v0a20.24,20.24,0,0,0-19.19,20,20.24,20.24,0,0,0,19.19,19.95v0H971.73v-.13A20.22,20.22,0,0,0,990,49.74Z"/><path class="cls-1" d="M867.78,47.85a1.86,1.86,0,0,0-.56-.68,2.59,2.59,0,0,0-.8-.39,3.85,3.85,0,0,0-1-.12,3.72,3.72,0,0,0-.81.09,2.42,2.42,0,0,0-.75.28,1.61,1.61,0,0,0-.55.52,1.44,1.44,0,0,0-.21.8,1,1,0,0,0,.2.67,1.73,1.73,0,0,0,.5.47,2.93,2.93,0,0,0,.67.31,5.93,5.93,0,0,0,.66.2l1.6.36a5.23,5.23,0,0,1,1,.28,3.31,3.31,0,0,1,.9.52,2.49,2.49,0,0,1,.63.8,2.34,2.34,0,0,1,.25,1.12,2.46,2.46,0,0,1-.36,1.36,3,3,0,0,1-.92.91,4.08,4.08,0,0,1-1.27.51,6.55,6.55,0,0,1-1.38.15,4.49,4.49,0,0,1-2.81-.82,3.48,3.48,0,0,1-1.22-2.62h1.2a2.34,2.34,0,0,0,.88,1.83,3.22,3.22,0,0,0,2,.62,4.16,4.16,0,0,0,.91-.1,2.87,2.87,0,0,0,.86-.32,2,2,0,0,0,.66-.58,1.41,1.41,0,0,0,.25-.86,1.36,1.36,0,0,0-.18-.73,1.53,1.53,0,0,0-.48-.5,3.24,3.24,0,0,0-.7-.33c-.26-.09-.52-.16-.78-.23L864.67,51a8.74,8.74,0,0,1-1.09-.35,3.29,3.29,0,0,1-.86-.5,2,2,0,0,1-.58-.72,2.34,2.34,0,0,1-.21-1.05,2.39,2.39,0,0,1,.33-1.28,2.62,2.62,0,0,1,.87-.85,3.8,3.8,0,0,1,1.19-.47,5.26,5.26,0,0,1,1.3-.16,5,5,0,0,1,1.37.19,3.38,3.38,0,0,1,1.13.59,2.85,2.85,0,0,1,.76,1,3.43,3.43,0,0,1,.33,1.39H868A2.19,2.19,0,0,0,867.78,47.85Z"/><path class="cls-1" d="M872.49,42.18V55.74H871.3V42.18Z"/><path class="cls-1" d="M876,42.18v1.91h-1.2V42.18Zm0,3.76v9.8h-1.2v-9.8Z"/><path class="cls-1" d="M885.83,55.74V53.88h0a2.54,2.54,0,0,1-.56.87,3.48,3.48,0,0,1-.84.68,5.12,5.12,0,0,1-1,.43,4,4,0,0,1-1.07.15,4.38,4.38,0,0,1-1.95-.41A4,4,0,0,1,879,54.48a4.89,4.89,0,0,1-.81-1.65,7.47,7.47,0,0,1,0-4A4.89,4.89,0,0,1,879,47.2a4.11,4.11,0,0,1,1.38-1.13,4.52,4.52,0,0,1,3-.28,3.37,3.37,0,0,1,1,.4,3.75,3.75,0,0,1,.81.68,2.84,2.84,0,0,1,.54.93h0V42.18h1.2V55.74Zm-6.56-3.39a4.14,4.14,0,0,0,.57,1.34,3.16,3.16,0,0,0,1,1,2.71,2.71,0,0,0,1.46.37,3.16,3.16,0,0,0,1.6-.37,3.2,3.2,0,0,0,1.07-1,4,4,0,0,0,.59-1.34,6.42,6.42,0,0,0,0-3A4,4,0,0,0,885,48a3.2,3.2,0,0,0-1.07-1,3.16,3.16,0,0,0-1.6-.37,2.71,2.71,0,0,0-1.46.37,3.16,3.16,0,0,0-1,1,4.14,4.14,0,0,0-.57,1.34,6.42,6.42,0,0,0,0,3Z"/><path class="cls-1" d="M890.1,52.5a3.67,3.67,0,0,0,.58,1.25,3.36,3.36,0,0,0,1,.91,2.86,2.86,0,0,0,1.47.36,2.93,2.93,0,0,0,2.05-.68,3.67,3.67,0,0,0,1-1.83h1.19A4.81,4.81,0,0,1,896,55.1a4.21,4.21,0,0,1-2.88.91,4.65,4.65,0,0,1-2-.41,3.68,3.68,0,0,1-1.37-1.12,4.85,4.85,0,0,1-.79-1.65,7.59,7.59,0,0,1-.26-2,7.14,7.14,0,0,1,.26-1.9,5,5,0,0,1,.79-1.66,3.93,3.93,0,0,1,1.37-1.18,4.26,4.26,0,0,1,2-.45,3.91,3.91,0,0,1,3.37,1.72,5.12,5.12,0,0,1,.75,1.77,7.61,7.61,0,0,1,.19,2h-7.54A5.32,5.32,0,0,0,890.1,52.5ZM896,48.84a4,4,0,0,0-.62-1.11,3.21,3.21,0,0,0-1-.78,3.06,3.06,0,0,0-2.6,0,3.09,3.09,0,0,0-1,.78,4,4,0,0,0-.64,1.12,5.43,5.43,0,0,0-.31,1.31h6.34A4.46,4.46,0,0,0,896,48.84Z"/><path class="cls-1" d="M908.25,45.94v1h-2v6.62a2.11,2.11,0,0,0,.16.92c.11.22.38.34.81.37a8.72,8.72,0,0,0,1-.06v1l-.53,0-.53,0a1.78,1.78,0,0,1-2.13-2.19V46.94h-1.71v-1h1.71V43h1.2v2.95Z"/><path class="cls-1" d="M916.11,46.07a4.25,4.25,0,0,1,1.45,1.12,4.88,4.88,0,0,1,.9,1.65,6.82,6.82,0,0,1,0,4,4.88,4.88,0,0,1-.9,1.65,4.1,4.1,0,0,1-1.45,1.11,5,5,0,0,1-4,0,4.23,4.23,0,0,1-1.46-1.11,4.86,4.86,0,0,1-.89-1.65,6.82,6.82,0,0,1,0-4,4.86,4.86,0,0,1,.89-1.65,4.38,4.38,0,0,1,1.46-1.12,4.9,4.9,0,0,1,4,0Zm-3.49,1a3.26,3.26,0,0,0-1.07.95,4.28,4.28,0,0,0-.65,1.34,5.43,5.43,0,0,0,0,3.06,4.28,4.28,0,0,0,.65,1.34,3.26,3.26,0,0,0,1.07.95,3,3,0,0,0,1.5.36,3.09,3.09,0,0,0,1.51-.36,3.48,3.48,0,0,0,1.07-.95,4.26,4.26,0,0,0,.64-1.34,5.43,5.43,0,0,0,0-3.06A4.26,4.26,0,0,0,916.7,48a3.48,3.48,0,0,0-1.07-.95,3.09,3.09,0,0,0-1.51-.36A3,3,0,0,0,912.62,47Z"/><path class="cls-3" d="M931.47,47.85a2,2,0,0,0-.56-.68,2.54,2.54,0,0,0-.81-.39,3.8,3.8,0,0,0-1.77,0,2.24,2.24,0,0,0-.75.28,1.53,1.53,0,0,0-.55.52,1.37,1.37,0,0,0-.21.8,1,1,0,0,0,.2.67,1.73,1.73,0,0,0,.5.47,2.86,2.86,0,0,0,.66.31,6,6,0,0,0,.67.2l1.6.36a5.23,5.23,0,0,1,1,.28,3.26,3.26,0,0,1,.89.52,2.52,2.52,0,0,1,.64.8,2.34,2.34,0,0,1,.25,1.12,2.46,2.46,0,0,1-.36,1.36,3,3,0,0,1-.92.91,4.08,4.08,0,0,1-1.27.51,6.64,6.64,0,0,1-1.39.15,4.48,4.48,0,0,1-2.8-.82,3.48,3.48,0,0,1-1.22-2.62h1.19a2.35,2.35,0,0,0,.89,1.83,3.2,3.2,0,0,0,2,.62,4.07,4.07,0,0,0,.9-.1,2.93,2.93,0,0,0,.87-.32,2.16,2.16,0,0,0,.66-.58,1.41,1.41,0,0,0,.25-.86,1.36,1.36,0,0,0-.18-.73,1.53,1.53,0,0,0-.48-.5,3.48,3.48,0,0,0-.7-.33c-.26-.09-.52-.16-.79-.23L928.36,51a8.74,8.74,0,0,1-1.09-.35,3.14,3.14,0,0,1-.86-.5,2,2,0,0,1-.58-.72,2.34,2.34,0,0,1-.21-1.05,2.39,2.39,0,0,1,.33-1.28,2.62,2.62,0,0,1,.87-.85,3.84,3.84,0,0,1,1.18-.47,5.32,5.32,0,0,1,1.3-.16,5,5,0,0,1,1.38.19,3.24,3.24,0,0,1,1.12.59,2.88,2.88,0,0,1,.77,1,3.6,3.6,0,0,1,.33,1.39h-1.2A2.19,2.19,0,0,0,931.47,47.85Z"/><path class="cls-3" d="M938.86,45.94v1h-2v6.62a2.11,2.11,0,0,0,.16.92c.11.22.37.34.81.37a8.72,8.72,0,0,0,1-.06v1l-.53,0-.53,0a1.78,1.78,0,0,1-2.13-2.19V46.94H934v-1h1.71V43h1.2v2.95Z"/><path class="cls-3" d="M940.84,47.46a2.88,2.88,0,0,1,.82-1,3.7,3.7,0,0,1,1.23-.59,6.48,6.48,0,0,1,2.85-.06,3,3,0,0,1,1.16.46,2.52,2.52,0,0,1,.83,1,3.41,3.41,0,0,1,.33,1.61V54a.63.63,0,0,0,.7.72.92.92,0,0,0,.38-.07v1l-.37,0a2.43,2.43,0,0,1-.41,0,1.85,1.85,0,0,1-.73-.12,1,1,0,0,1-.43-.35,1.59,1.59,0,0,1-.2-.54,5,5,0,0,1,0-.7h0a9,9,0,0,1-.66.85,3.29,3.29,0,0,1-.74.61,3,3,0,0,1-.93.38,5,5,0,0,1-1.24.14,5.3,5.3,0,0,1-1.29-.16,2.83,2.83,0,0,1-1-.52,2.5,2.5,0,0,1-.71-.89,3,3,0,0,1-.25-1.28,2.57,2.57,0,0,1,.45-1.61,3,3,0,0,1,1.21-.88,7,7,0,0,1,1.69-.43l1.91-.24a5.46,5.46,0,0,0,.67-.09,1.26,1.26,0,0,0,.47-.2,1,1,0,0,0,.3-.39,1.71,1.71,0,0,0,.1-.65,2.21,2.21,0,0,0-.2-1,1.58,1.58,0,0,0-.55-.62,2.12,2.12,0,0,0-.82-.31,5.21,5.21,0,0,0-1-.09,3.07,3.07,0,0,0-1.87.54,2.14,2.14,0,0,0-.76,1.74h-1.19A3.71,3.71,0,0,1,940.84,47.46Zm6,2.92a.69.69,0,0,1-.43.31,4.41,4.41,0,0,1-.57.13c-.51.09-1,.17-1.57.24a8.44,8.44,0,0,0-1.47.31,2.9,2.9,0,0,0-1.1.6,1.44,1.44,0,0,0-.42,1.11,1.76,1.76,0,0,0,.18.81,2,2,0,0,0,.48.61,2.18,2.18,0,0,0,.7.39,2.56,2.56,0,0,0,.82.13,4.09,4.09,0,0,0,1.31-.21,3.14,3.14,0,0,0,1.09-.61,2.92,2.92,0,0,0,1-2.26V50.38Z"/><path class="cls-3" d="M951.55,45.94v2.3h0A3.81,3.81,0,0,1,953,46.39a3.69,3.69,0,0,1,2.29-.58V47a3.77,3.77,0,0,0-1.49.22,3.34,3.34,0,0,0-1.9,1.86,4,4,0,0,0-.26,1.44v5.22h-1.2v-9.8Z"/><path class="cls-3" d="M960.33,45.94v1h-2v6.62a2.11,2.11,0,0,0,.16.92c.11.22.38.34.8.37a8.77,8.77,0,0,0,1-.06v1l-.53,0-.53,0a1.78,1.78,0,0,1-2.13-2.19V46.94h-1.71v-1h1.71V43h1.2v2.95Z"/><circle class="cls-2" cx="928.5" cy="49.74" r="17.5"/><polygon class="cls-4" points="940.5 49.84 931.03 55.26 921.55 60.68 921.6 49.77 921.64 38.86 931.07 44.35 940.5 49.84"/><path class="cls-1" d="M1190,49.74a20.22,20.22,0,0,0-18.27-19.88v-.12H1029.19v0a20.24,20.24,0,0,0-19.19,20,20.24,20.24,0,0,0,19.19,19.95v0h142.54v-.13A20.22,20.22,0,0,0,1190,49.74Z"/><path class="cls-1" d="M1067.78,47.85a1.86,1.86,0,0,0-.56-.68,2.59,2.59,0,0,0-.8-.39,3.85,3.85,0,0,0-1-.12,3.72,3.72,0,0,0-.81.09,2.42,2.42,0,0,0-.75.28,1.61,1.61,0,0,0-.55.52,1.44,1.44,0,0,0-.21.8,1,1,0,0,0,.2.67,1.73,1.73,0,0,0,.5.47,2.93,2.93,0,0,0,.67.31,5.93,5.93,0,0,0,.66.2l1.6.36a5.23,5.23,0,0,1,1,.28,3.31,3.31,0,0,1,.9.52,2.49,2.49,0,0,1,.63.8,2.34,2.34,0,0,1,.25,1.12,2.46,2.46,0,0,1-.36,1.36,3,3,0,0,1-.92.91,4.08,4.08,0,0,1-1.27.51,6.55,6.55,0,0,1-1.38.15,4.49,4.49,0,0,1-2.81-.82,3.48,3.48,0,0,1-1.22-2.62h1.2a2.34,2.34,0,0,0,.88,1.83,3.22,3.22,0,0,0,2,.62,4.16,4.16,0,0,0,.91-.1,2.87,2.87,0,0,0,.86-.32,2,2,0,0,0,.66-.58,1.41,1.41,0,0,0,.25-.86,1.36,1.36,0,0,0-.18-.73,1.53,1.53,0,0,0-.48-.5,3.24,3.24,0,0,0-.7-.33c-.26-.09-.52-.16-.78-.23l-1.54-.34a8.74,8.74,0,0,1-1.09-.35,3.29,3.29,0,0,1-.86-.5,2,2,0,0,1-.58-.72,2.34,2.34,0,0,1-.21-1.05,2.39,2.39,0,0,1,.33-1.28,2.62,2.62,0,0,1,.87-.85,3.8,3.8,0,0,1,1.19-.47,5.26,5.26,0,0,1,1.3-.16,5,5,0,0,1,1.37.19,3.38,3.38,0,0,1,1.13.59,2.85,2.85,0,0,1,.76,1,3.43,3.43,0,0,1,.33,1.39H1068A2.19,2.19,0,0,0,1067.78,47.85Z"/><path class="cls-1" d="M1072.49,42.18V55.74h-1.19V42.18Z"/><path class="cls-1" d="M1076,42.18v1.91h-1.2V42.18Zm0,3.76v9.8h-1.2v-9.8Z"/><path class="cls-1" d="M1085.83,55.74V53.88h0a2.54,2.54,0,0,1-.56.87,3.48,3.48,0,0,1-.84.68,5.12,5.12,0,0,1-1,.43,4,4,0,0,1-1.07.15,4.38,4.38,0,0,1-2-.41,4,4,0,0,1-1.38-1.12,4.89,4.89,0,0,1-.81-1.65,7.47,7.47,0,0,1,0-4,4.89,4.89,0,0,1,.81-1.65,4.11,4.11,0,0,1,1.38-1.13,4.52,4.52,0,0,1,3-.28,3.37,3.37,0,0,1,1,.4,3.75,3.75,0,0,1,.81.68,2.84,2.84,0,0,1,.54.93h0V42.18h1.2V55.74Zm-6.56-3.39a4.14,4.14,0,0,0,.57,1.34,3.16,3.16,0,0,0,1,1,2.71,2.71,0,0,0,1.46.37,3.16,3.16,0,0,0,1.6-.37,3.2,3.2,0,0,0,1.07-1,4,4,0,0,0,.59-1.34,6.42,6.42,0,0,0,0-3A4,4,0,0,0,1085,48a3.2,3.2,0,0,0-1.07-1,3.16,3.16,0,0,0-1.6-.37,2.71,2.71,0,0,0-1.46.37,3.16,3.16,0,0,0-1,1,4.14,4.14,0,0,0-.57,1.34,6.42,6.42,0,0,0,0,3Z"/><path class="cls-1" d="M1090.1,52.5a3.67,3.67,0,0,0,.58,1.25,3.36,3.36,0,0,0,1,.91,2.86,2.86,0,0,0,1.47.36,2.93,2.93,0,0,0,2-.68,3.67,3.67,0,0,0,1-1.83h1.19A4.81,4.81,0,0,1,1096,55.1a4.21,4.21,0,0,1-2.88.91,4.65,4.65,0,0,1-2-.41,3.68,3.68,0,0,1-1.37-1.12,4.85,4.85,0,0,1-.79-1.65,7.59,7.59,0,0,1-.26-2,7.14,7.14,0,0,1,.26-1.9,5,5,0,0,1,.79-1.66,3.93,3.93,0,0,1,1.37-1.18,4.26,4.26,0,0,1,2-.45,3.91,3.91,0,0,1,3.37,1.72,5.12,5.12,0,0,1,.75,1.77,7.61,7.61,0,0,1,.19,2h-7.54A5.32,5.32,0,0,0,1090.1,52.5Zm5.93-3.66a4,4,0,0,0-.62-1.11,3.21,3.21,0,0,0-1-.78,3.06,3.06,0,0,0-2.6,0,3.09,3.09,0,0,0-1,.78,4,4,0,0,0-.64,1.12,5.43,5.43,0,0,0-.31,1.31h6.34A4.46,4.46,0,0,0,1096,48.84Z"/><path class="cls-1" d="M1108.25,45.94v1h-2v6.62a2.11,2.11,0,0,0,.16.92c.11.22.38.34.81.37a8.72,8.72,0,0,0,1-.06v1l-.53,0-.53,0a1.78,1.78,0,0,1-2.13-2.19V46.94h-1.71v-1h1.71V43h1.2v2.95Z"/><path class="cls-1" d="M1116.11,46.07a4.25,4.25,0,0,1,1.45,1.12,4.88,4.88,0,0,1,.9,1.65,6.82,6.82,0,0,1,0,4,4.88,4.88,0,0,1-.9,1.65,4.1,4.1,0,0,1-1.45,1.11,5,5,0,0,1-4,0,4.23,4.23,0,0,1-1.46-1.11,4.86,4.86,0,0,1-.89-1.65,6.82,6.82,0,0,1,0-4,4.86,4.86,0,0,1,.89-1.65,4.38,4.38,0,0,1,1.46-1.12,4.9,4.9,0,0,1,4,0Zm-3.49,1a3.26,3.26,0,0,0-1.07.95,4.28,4.28,0,0,0-.65,1.34,5.43,5.43,0,0,0,0,3.06,4.28,4.28,0,0,0,.65,1.34,3.26,3.26,0,0,0,1.07.95,3,3,0,0,0,1.5.36,3.09,3.09,0,0,0,1.51-.36,3.48,3.48,0,0,0,1.07-.95,4.26,4.26,0,0,0,.64-1.34,5.43,5.43,0,0,0,0-3.06,4.26,4.26,0,0,0-.64-1.34,3.48,3.48,0,0,0-1.07-.95,3.09,3.09,0,0,0-1.51-.36A3,3,0,0,0,1112.62,47Z"/><path class="cls-1" d="M1131.47,47.85a2,2,0,0,0-.56-.68,2.54,2.54,0,0,0-.81-.39,3.8,3.8,0,0,0-1.77,0,2.24,2.24,0,0,0-.75.28,1.53,1.53,0,0,0-.55.52,1.37,1.37,0,0,0-.21.8,1,1,0,0,0,.2.67,1.73,1.73,0,0,0,.5.47,2.86,2.86,0,0,0,.66.31,6,6,0,0,0,.67.2l1.6.36a5.23,5.23,0,0,1,1,.28,3.26,3.26,0,0,1,.89.52,2.52,2.52,0,0,1,.64.8,2.34,2.34,0,0,1,.25,1.12,2.46,2.46,0,0,1-.36,1.36,3,3,0,0,1-.92.91,4.08,4.08,0,0,1-1.27.51,6.64,6.64,0,0,1-1.39.15,4.48,4.48,0,0,1-2.8-.82,3.48,3.48,0,0,1-1.22-2.62h1.19a2.35,2.35,0,0,0,.89,1.83,3.2,3.2,0,0,0,2,.62,4.07,4.07,0,0,0,.9-.1,2.93,2.93,0,0,0,.87-.32,2.16,2.16,0,0,0,.66-.58,1.41,1.41,0,0,0,.25-.86,1.36,1.36,0,0,0-.18-.73,1.53,1.53,0,0,0-.48-.5,3.48,3.48,0,0,0-.7-.33c-.26-.09-.52-.16-.79-.23l-1.53-.34a8.74,8.74,0,0,1-1.09-.35,3.14,3.14,0,0,1-.86-.5,2,2,0,0,1-.58-.72,2.34,2.34,0,0,1-.21-1.05,2.39,2.39,0,0,1,.33-1.28,2.62,2.62,0,0,1,.87-.85,3.84,3.84,0,0,1,1.18-.47,5.32,5.32,0,0,1,1.3-.16,5,5,0,0,1,1.38.19,3.24,3.24,0,0,1,1.12.59,2.88,2.88,0,0,1,.77,1,3.6,3.6,0,0,1,.33,1.39h-1.2A2.19,2.19,0,0,0,1131.47,47.85Z"/><path class="cls-1" d="M1138.86,45.94v1h-2v6.62a2.11,2.11,0,0,0,.16.92c.11.22.37.34.81.37a8.72,8.72,0,0,0,1-.06v1l-.53,0-.53,0a1.78,1.78,0,0,1-2.13-2.19V46.94H1134v-1h1.71V43h1.2v2.95Z"/><path class="cls-1" d="M1140.84,47.46a2.88,2.88,0,0,1,.82-1,3.7,3.7,0,0,1,1.23-.59,6.48,6.48,0,0,1,2.85-.06,3,3,0,0,1,1.16.46,2.52,2.52,0,0,1,.83,1,3.41,3.41,0,0,1,.33,1.61V54a.63.63,0,0,0,.7.72.92.92,0,0,0,.38-.07v1l-.37,0a2.43,2.43,0,0,1-.41,0,1.85,1.85,0,0,1-.73-.12,1,1,0,0,1-.43-.35,1.59,1.59,0,0,1-.2-.54,5,5,0,0,1,0-.7h0a9,9,0,0,1-.66.85,3.29,3.29,0,0,1-.74.61,3,3,0,0,1-.93.38,5,5,0,0,1-1.24.14,5.3,5.3,0,0,1-1.29-.16,2.83,2.83,0,0,1-1-.52,2.5,2.5,0,0,1-.71-.89,3,3,0,0,1-.25-1.28,2.57,2.57,0,0,1,.45-1.61,3,3,0,0,1,1.21-.88,7,7,0,0,1,1.69-.43l1.91-.24a5.46,5.46,0,0,0,.67-.09,1.26,1.26,0,0,0,.47-.2,1,1,0,0,0,.3-.39,1.71,1.71,0,0,0,.1-.65,2.21,2.21,0,0,0-.2-1,1.58,1.58,0,0,0-.55-.62,2.12,2.12,0,0,0-.82-.31,5.21,5.21,0,0,0-1-.09,3.07,3.07,0,0,0-1.87.54,2.14,2.14,0,0,0-.76,1.74h-1.19A3.71,3.71,0,0,1,1140.84,47.46Zm6,2.92a.69.69,0,0,1-.43.31,4.41,4.41,0,0,1-.57.13c-.51.09-1,.17-1.57.24a8.44,8.44,0,0,0-1.47.31,2.9,2.9,0,0,0-1.1.6,1.44,1.44,0,0,0-.42,1.11,1.76,1.76,0,0,0,.18.81,2,2,0,0,0,.48.61,2.18,2.18,0,0,0,.7.39,2.56,2.56,0,0,0,.82.13,4.09,4.09,0,0,0,1.31-.21,3.14,3.14,0,0,0,1.09-.61,2.92,2.92,0,0,0,1-2.26V50.38Z"/><path class="cls-1" d="M1151.55,45.94v2.3h0a3.81,3.81,0,0,1,1.42-1.85,3.69,3.69,0,0,1,2.29-.58V47a3.77,3.77,0,0,0-1.49.22,3.34,3.34,0,0,0-1.9,1.86,4,4,0,0,0-.26,1.44v5.22h-1.2v-9.8Z"/><path class="cls-1" d="M1160.33,45.94v1h-2v6.62a2.11,2.11,0,0,0,.16.92c.11.22.38.34.8.37a8.77,8.77,0,0,0,1-.06v1l-.53,0-.53,0a1.78,1.78,0,0,1-2.13-2.19V46.94h-1.71v-1h1.71V43h1.2v2.95Z"/><circle class="cls-2" cx="1169.5" cy="49.74" r="17.5"/><polygon class="cls-4" points="1181.5 49.84 1172.03 55.26 1162.56 60.68 1162.6 49.77 1162.64 38.86 1172.07 44.35 1181.5 49.84"/></svg>
