<svg id="Layer_1" data-name="Layer 1" xmlns="http://www.w3.org/2000/svg" width="539" height="128" viewBox="0 0 539 128"><defs><style>.cls-1{fill:#3498db;}.cls-2{fill:#fff;}.cls-3{fill:#f1c40f;}.cls-4{fill:#e67e22;}.cls-5{fill:#ecf0f1;}.cls-6{fill:#2980b9;}</style></defs><title>Artboard 2</title><rect class="cls-1" width="539" height="128" rx="16.5"/><path class="cls-2" d="M20.2031,43.5527a6.4828,6.4828,0,0,0,2.128,2.5371,8.868,8.868,0,0,0,3.2041,1.3545,18.2958,18.2958,0,0,0,3.956.4082,11.1864,11.1864,0,0,0,2.6231-.3437,9.1278,9.1278,0,0,0,2.6445-1.0967,6.7392,6.7392,0,0,0,2.042-1.935,4.9037,4.9037,0,0,0,.8174-2.8594,4.1848,4.1848,0,0,0-.5811-2.2359,5.3127,5.3127,0,0,0-1.5049-1.5913,8.8851,8.8851,0,0,0-2.042-1.0532,19.9741,19.9741,0,0,0-2.1933-.6665L24.46,34.3936a20.4689,20.4689,0,0,1-2.6016-.86,7.4052,7.4052,0,0,1-2.2148-1.376,6.5376,6.5376,0,0,1-1.5264-2.1069,7.211,7.211,0,0,1-.58-3.0532,9.7271,9.7271,0,0,1,.43-2.6231,7.2923,7.2923,0,0,1,1.6123-2.8379,9.4034,9.4034,0,0,1,3.2471-2.2573,13.011,13.011,0,0,1,5.289-.9248,15.4557,15.4557,0,0,1,4.3428.602A10.7117,10.7117,0,0,1,36.07,20.7627a8.6894,8.6894,0,0,1,3.3965,7.1382H36.543a7.111,7.111,0,0,0-.7959-3.0747,6.8632,6.8632,0,0,0-1.8487-2.1929,8.092,8.092,0,0,0-2.623-1.333,10.64,10.64,0,0,0-3.1172-.4517,12.8389,12.8389,0,0,0-2.9023.3228,7.2524,7.2524,0,0,0-2.4512,1.0317,5.3349,5.3349,0,0,0-1.6983,1.8706,5.8611,5.8611,0,0,0-.6455,2.8809,4.4512,4.4512,0,0,0,.3653,1.8706A3.94,3.94,0,0,0,21.8369,30.18a5.3242,5.3242,0,0,0,1.4834.9028,11.1752,11.1752,0,0,0,1.7852.5591l7.4814,1.8491a21.5814,21.5814,0,0,1,3.0742,1.0532,10.171,10.171,0,0,1,2.5371,1.5484A6.5406,6.5406,0,0,1,39.9189,38.35a7.58,7.58,0,0,1,.6231,3.2251,11.7467,11.7467,0,0,1-.1074,1.376,6.99,6.99,0,0,1-.5157,1.8276,9.1736,9.1736,0,0,1-1.1611,1.9566,7.308,7.308,0,0,1-2.0644,1.7841,11.9485,11.9485,0,0,1-3.2461,1.29,19,19,0,0,1-4.6446.4946,19.3728,19.3728,0,0,1-5.03-.6235,10.8141,10.8141,0,0,1-3.9561-1.9136,8.4159,8.4159,0,0,1-2.5156-3.311,10.8479,10.8479,0,0,1-.7529-4.8589h2.9238A8.6366,8.6366,0,0,0,20.2031,43.5527Z"/><path class="cls-2" d="M46.6689,42.37a8.3324,8.3324,0,0,0,1.3116,2.8164,7.4893,7.4893,0,0,0,2.2793,2.064,6.3711,6.3711,0,0,0,3.3115.8174A6.5847,6.5847,0,0,0,58.2148,46.52a8.1447,8.1447,0,0,0,2.3223-4.1279h2.709A10.8258,10.8258,0,0,1,60.085,48.24a9.4231,9.4231,0,0,1-6.5137,2.064,10.3412,10.3412,0,0,1-4.5371-.9243,8.3473,8.3473,0,0,1-3.1172-2.5371,11.0326,11.0326,0,0,1-1.7842-3.7412,16.9775,16.9775,0,0,1-.581-4.4937,16.0878,16.0878,0,0,1,.581-4.3,11.5481,11.5481,0,0,1,1.7842-3.7627,8.9614,8.9614,0,0,1,3.1172-2.6655,9.5932,9.5932,0,0,1,4.5371-1.0107A8.7739,8.7739,0,0,1,61.2031,30.76a11.6754,11.6754,0,0,1,1.6983,3.999,17.5455,17.5455,0,0,1,.4306,4.58H46.2607A12.0134,12.0134,0,0,0,46.6689,42.37ZM60.085,34.0928a8.0982,8.0982,0,0,0-1.3975-2.5157,6.9336,6.9336,0,0,0-2.1924-1.7631,6.2833,6.2833,0,0,0-2.9238-.6665,6.382,6.382,0,0,0-2.9678.6665,6.9336,6.9336,0,0,0-2.1924,1.7631,8.7493,8.7493,0,0,0-1.44,2.5372,12.3708,12.3708,0,0,0-.71,2.9453H60.623A9.7921,9.7921,0,0,0,60.085,34.0928Z"/><path class="cls-2" d="M69.6523,27.5137v3.8271h.086A6.493,6.493,0,0,1,72.49,28.0942a8.0875,8.0875,0,0,1,4.3428-1.2255,10.9372,10.9372,0,0,1,3.8916.602A6.1668,6.1668,0,0,1,83.24,29.1689a6.3422,6.3422,0,0,1,1.333,2.6875,15.1422,15.1422,0,0,1,.3868,3.5694V49.7017H82.251V35.8555a12.8509,12.8509,0,0,0-.2578-2.6446,5.5868,5.5868,0,0,0-.9034-2.1284,4.3767,4.3767,0,0,0-1.7412-1.4189,6.403,6.403,0,0,0-2.73-.5161,6.9031,6.9031,0,0,0-2.9024.5805,6.2943,6.2943,0,0,0-2.15,1.5913A7.3367,7.3367,0,0,0,70.19,33.7271a9.7922,9.7922,0,0,0-.5372,3.0317V49.7017H66.9434V27.5137Z"/><path class="cls-2" d="M107.1055,49.7017V45.4878h-.086a6.3883,6.3883,0,0,1-1.2685,1.978,8.2266,8.2266,0,0,1-1.9141,1.5264,9.8843,9.8843,0,0,1-2.3008.9673,8.9474,8.9474,0,0,1-2.4287.3442,9.849,9.849,0,0,1-4.4082-.9243,8.8257,8.8257,0,0,1-3.1172-2.5371,10.8618,10.8618,0,0,1-1.8486-3.7412,17.057,17.057,0,0,1,0-8.9868A10.8614,10.8614,0,0,1,91.582,30.373a9.0433,9.0433,0,0,1,3.1172-2.5585,9.6619,9.6619,0,0,1,4.4082-.9458,9.8255,9.8255,0,0,1,2.4287.3007,8.1636,8.1636,0,0,1,2.2149.9248,7.7842,7.7842,0,0,1,1.8271,1.5264,6.41,6.41,0,0,1,1.2256,2.1069h.0859V19h2.709V49.7017ZM92.249,42.0264a9.4157,9.4157,0,0,0,1.2891,3.0312,7.0954,7.0954,0,0,0,2.2578,2.1714,6.2441,6.2441,0,0,0,3.3115.8389,7.2811,7.2811,0,0,0,3.6328-.8389,7.172,7.172,0,0,0,2.4082-2.1714,8.92,8.92,0,0,0,1.333-3.0312,14.52,14.52,0,0,0,0-6.8374,8.9329,8.9329,0,0,0-1.333-3.0313,7.1772,7.1772,0,0,0-2.4082-2.1714,7.2811,7.2811,0,0,0-3.6328-.8388,6.2441,6.2441,0,0,0-3.3115.8388,7.1007,7.1007,0,0,0-2.2578,2.1714A9.43,9.43,0,0,0,92.249,35.189a14.4855,14.4855,0,0,0,0,6.8374Z"/><path class="cls-2" d="M116.7578,42.37a8.3341,8.3341,0,0,0,1.3115,2.8164,7.4916,7.4916,0,0,0,2.2793,2.064,6.3714,6.3714,0,0,0,3.3116.8174,6.5849,6.5849,0,0,0,4.6435-1.5484,8.1447,8.1447,0,0,0,2.3223-4.1279h2.709a10.8266,10.8266,0,0,1-3.1612,5.8481,9.4228,9.4228,0,0,1-6.5136,2.064,10.3413,10.3413,0,0,1-4.5372-.9243,8.347,8.347,0,0,1-3.1171-2.5371,11.0307,11.0307,0,0,1-1.7842-3.7412,16.9775,16.9775,0,0,1-.5811-4.4937,16.0879,16.0879,0,0,1,.5811-4.3,11.5461,11.5461,0,0,1,1.7842-3.7627,8.961,8.961,0,0,1,3.1171-2.6655,9.5934,9.5934,0,0,1,4.5372-1.0107A8.7739,8.7739,0,0,1,131.292,30.76a11.6733,11.6733,0,0,1,1.6982,3.999,17.5455,17.5455,0,0,1,.4307,4.58H116.35A12.0134,12.0134,0,0,0,116.7578,42.37Zm13.416-8.2773a8.098,8.098,0,0,0-1.3974-2.5157,6.9336,6.9336,0,0,0-2.1924-1.7631,6.2839,6.2839,0,0,0-2.9238-.6665,6.3817,6.3817,0,0,0-2.9678.6665A6.9336,6.9336,0,0,0,118.5,31.5771a8.7493,8.7493,0,0,0-1.44,2.5372,12.3708,12.3708,0,0,0-.71,2.9453h14.3623A9.7921,9.7921,0,0,0,130.1738,34.0928Z"/><path class="cls-2" d="M139.5693,27.5137v5.2031h.086a8.5135,8.5135,0,0,1,3.2031-4.1709,8.384,8.384,0,0,1,5.1816-1.333v2.709a8.1826,8.1826,0,0,0-3.3535.4941,7.5457,7.5457,0,0,0-2.6015,1.6558,7.4654,7.4654,0,0,0-1.6993,2.5586,8.5537,8.5537,0,0,0-.6015,3.2461V49.7017h-2.709V27.5137Z"/><path class="cls-2" d="M165.24,27.5137v3.8271h.086a6.493,6.493,0,0,1,2.7519-3.2466,8.0875,8.0875,0,0,1,4.3428-1.2255,10.9372,10.9372,0,0,1,3.8916.602,6.1668,6.1668,0,0,1,2.5156,1.6982,6.3422,6.3422,0,0,1,1.333,2.6875,15.1475,15.1475,0,0,1,.3868,3.5694V49.7017h-2.709V35.8555a12.8509,12.8509,0,0,0-.2578-2.6446,5.5868,5.5868,0,0,0-.9034-2.1284,4.3774,4.3774,0,0,0-1.7412-1.4189,6.403,6.403,0,0,0-2.73-.5161,6.9031,6.9031,0,0,0-2.9024.5805,6.2943,6.2943,0,0,0-2.15,1.5913,7.3369,7.3369,0,0,0-1.376,2.4078,9.7951,9.7951,0,0,0-.5371,3.0317V49.7017h-2.709V27.5137Z"/><path class="cls-2" d="M201.1445,49.7017V45.7026h-.0859a7.6889,7.6889,0,0,1-3.1172,3.4185,8.8938,8.8938,0,0,1-4.5361,1.1826,9.8621,9.8621,0,0,1-3.5908-.5806,5.98,5.98,0,0,1-2.4083-1.6552,6.7068,6.7068,0,0,1-1.3544-2.6231,13.1763,13.1763,0,0,1-.43-3.5263V27.5137h2.709V41.9614a7.2118,7.2118,0,0,0,1.3974,4.5581q1.311,1.5484,4.5361,1.5484a5.7214,5.7214,0,0,0,3.0108-.753,6.381,6.381,0,0,0,2.0635-2,9.0125,9.0125,0,0,0,1.2041-2.8593,14.0548,14.0548,0,0,0,.3867-3.29V27.5137h2.709v22.188Z"/><path class="cls-2" d="M209.5732,45.1436h3.6114v4.5581h-3.6114ZM209.917,19h2.9238v9.1592l-.6455,13.8892h-1.6338l-.6445-13.8892Z"/><path class="cls-2" d="M242.21,19q7.0092.1728,10.5566,3.9346t3.5479,11.4165q0,7.6545-3.5479,11.4165T242.21,49.7017H231.5889V19Zm-1.462,28.208a20.1318,20.1318,0,0,0,5.6973-.71,9.1109,9.1109,0,0,0,3.9346-2.2573,9.2961,9.2961,0,0,0,2.2793-3.999,20.7857,20.7857,0,0,0,.7314-5.8911,20.79,20.79,0,0,0-.7314-5.8911A9.2971,9.2971,0,0,0,250.38,24.46a9.1179,9.1179,0,0,0-3.9346-2.2573,20.1357,20.1357,0,0,0-5.6973-.7094h-6.2353V47.2075Z"/><path class="cls-2" d="M262.5273,42.37a8.3324,8.3324,0,0,0,1.3116,2.8164,7.4893,7.4893,0,0,0,2.2793,2.064,6.3711,6.3711,0,0,0,3.3115.8174,6.5847,6.5847,0,0,0,4.6435-1.5484,8.1447,8.1447,0,0,0,2.3223-4.1279h2.709a10.8258,10.8258,0,0,1-3.1611,5.8481,9.4231,9.4231,0,0,1-6.5137,2.064,10.3412,10.3412,0,0,1-4.5371-.9243,8.3465,8.3465,0,0,1-3.1172-2.5371,11.0326,11.0326,0,0,1-1.7842-3.7412,16.9775,16.9775,0,0,1-.581-4.4937,16.0878,16.0878,0,0,1,.581-4.3,11.5481,11.5481,0,0,1,1.7842-3.7627,8.96,8.96,0,0,1,3.1172-2.6655,9.5932,9.5932,0,0,1,4.5371-1.0107,8.7739,8.7739,0,0,1,7.6318,3.8916,11.6754,11.6754,0,0,1,1.6983,3.999,17.5455,17.5455,0,0,1,.4306,4.58H262.1191A12.0134,12.0134,0,0,0,262.5273,42.37Zm13.4161-8.2773a8.0982,8.0982,0,0,0-1.3975-2.5157,6.9336,6.9336,0,0,0-2.1924-1.7631,6.2833,6.2833,0,0,0-2.9238-.6665,6.382,6.382,0,0,0-2.9678.6665,6.9336,6.9336,0,0,0-2.1924,1.7631,8.7493,8.7493,0,0,0-1.44,2.5372,12.3708,12.3708,0,0,0-.71,2.9453h14.3623A9.7951,9.7951,0,0,0,275.9434,34.0928Z"/><path class="cls-2" d="M291.6592,27.5137v2.2788h-4.5147V44.7568a4.8661,4.8661,0,0,0,.3653,2.0855q.3647.7529,1.8281.8384a21.0239,21.0239,0,0,0,2.3213-.1289v2.2788q-.6021,0-1.2031.0429-.6036.0426-1.2041.043-2.71,0-3.7842-1.0532t-1.0323-3.8916V29.7925h-3.87V27.5137h3.87V20.8486h2.709v6.6651Z"/><path class="cls-2" d="M309.5254,42.37a8.3341,8.3341,0,0,0,1.3115,2.8164,7.49,7.49,0,0,0,2.2793,2.064,6.3713,6.3713,0,0,0,3.3115.8174,6.585,6.585,0,0,0,4.6436-1.5484,8.1447,8.1447,0,0,0,2.3223-4.1279h2.7089a10.8258,10.8258,0,0,1-3.1611,5.8481,9.4231,9.4231,0,0,1-6.5137,2.064,10.3412,10.3412,0,0,1-4.5371-.9243,8.3473,8.3473,0,0,1-3.1172-2.5371,11.0324,11.0324,0,0,1-1.7841-3.7412,16.9775,16.9775,0,0,1-.5811-4.4937,16.0879,16.0879,0,0,1,.5811-4.3,11.5479,11.5479,0,0,1,1.7841-3.7627,8.9614,8.9614,0,0,1,3.1172-2.6655,9.5932,9.5932,0,0,1,4.5371-1.0107A8.7739,8.7739,0,0,1,324.06,30.76a11.6733,11.6733,0,0,1,1.6982,3.999,17.55,17.55,0,0,1,.4307,4.58H309.1172A12.0089,12.0089,0,0,0,309.5254,42.37Zm13.416-8.2773a8.0962,8.0962,0,0,0-1.3975-2.5157,6.9332,6.9332,0,0,0-2.1923-1.7631,6.284,6.284,0,0,0-2.9239-.6665,6.3816,6.3816,0,0,0-2.9677.6665,6.9324,6.9324,0,0,0-2.1924,1.7631,8.75,8.75,0,0,0-1.4405,2.5372,12.3705,12.3705,0,0,0-.71,2.9453H323.48A9.7921,9.7921,0,0,0,322.9414,34.0928Z"/><path class="cls-2" d="M332.3369,27.5137v5.2031h.086a8.5135,8.5135,0,0,1,3.2031-4.1709,8.3838,8.3838,0,0,1,5.1816-1.333v2.709a8.1824,8.1824,0,0,0-3.3535.4941,7.5471,7.5471,0,0,0-2.6016,1.6558,7.4666,7.4666,0,0,0-1.6992,2.5586,8.5537,8.5537,0,0,0-.6015,3.2461V49.7017h-2.709V27.5137Z"/><path class="cls-2" d="M357.8359,27.5137v3.7412h.1289a8.4827,8.4827,0,0,1,2.8164-3.2251,7.87,7.87,0,0,1,4.45-1.1611,7.5625,7.5625,0,0,1,3.9776,1.0751,5.2719,5.2719,0,0,1,2.3867,3.2676,6.8058,6.8058,0,0,1,2.9238-3.2676,8.3735,8.3735,0,0,1,4.128-1.0751q7.3535,0,7.3535,7.7832v15.05h-2.709V34.7808a6.5561,6.5561,0,0,0-1.1611-4.1924q-1.1617-1.4408-4.085-1.4409a5.808,5.808,0,0,0-2.9238.6665,5.1342,5.1342,0,0,0-1.85,1.7846,7.5766,7.5766,0,0,0-.9668,2.5586,15.57,15.57,0,0,0-.28,2.9883V49.7017h-2.709v-15.05a9.3509,9.3509,0,0,0-.2363-2.129,4.96,4.96,0,0,0-.7735-1.7626,3.6789,3.6789,0,0,0-1.4414-1.1827,5.073,5.073,0,0,0-2.1923-.43,6.7061,6.7061,0,0,0-2.9883.6235,5.4983,5.4983,0,0,0-2.0645,1.72,7.6155,7.6155,0,0,0-1.1826,2.58,12.8516,12.8516,0,0,0-.3867,3.2466V49.7017h-2.709V27.5137Z"/><path class="cls-2" d="M393.1592,42.37a8.33,8.33,0,0,0,1.3115,2.8164,7.4893,7.4893,0,0,0,2.2793,2.064,6.3713,6.3713,0,0,0,3.3115.8174,6.585,6.585,0,0,0,4.6436-1.5484,8.1445,8.1445,0,0,0,2.3222-4.1279h2.709a10.8258,10.8258,0,0,1-3.1611,5.8481,9.4231,9.4231,0,0,1-6.5137,2.064,10.3412,10.3412,0,0,1-4.5371-.9243,8.3473,8.3473,0,0,1-3.1172-2.5371,11.0345,11.0345,0,0,1-1.7842-3.7412,16.9816,16.9816,0,0,1-.581-4.4937,16.0918,16.0918,0,0,1,.581-4.3,11.55,11.55,0,0,1,1.7842-3.7627,8.9614,8.9614,0,0,1,3.1172-2.6655,9.5932,9.5932,0,0,1,4.5371-1.0107,8.7742,8.7742,0,0,1,7.6319,3.8916,11.6752,11.6752,0,0,1,1.6982,3.999,17.55,17.55,0,0,1,.4307,4.58H392.751A12.0089,12.0089,0,0,0,393.1592,42.37Zm13.416-8.2773a8.0962,8.0962,0,0,0-1.3975-2.5157,6.9332,6.9332,0,0,0-2.1923-1.7631,6.284,6.284,0,0,0-2.9239-.6665,6.3816,6.3816,0,0,0-2.9677.6665,6.9324,6.9324,0,0,0-2.1924,1.7631,8.75,8.75,0,0,0-1.4405,2.5372,12.3705,12.3705,0,0,0-.71,2.9453h14.3623A9.7921,9.7921,0,0,0,406.5752,34.0928Z"/><path class="cls-2" d="M431.6865,52.3247a8.6284,8.6284,0,0,1-1.6982,3.354,7.4044,7.4044,0,0,1-3.0313,2.1069,12.6242,12.6242,0,0,1-4.5791.731,13.79,13.79,0,0,1-3.2685-.3867,9.3077,9.3077,0,0,1-2.8594-1.2041,7.1423,7.1423,0,0,1-2.1074-2.0855,6.2268,6.2268,0,0,1-.9668-3.0317h2.709a4.7939,4.7939,0,0,0,.8379,2.0854,5.0182,5.0182,0,0,0,1.5048,1.3545,6.6873,6.6873,0,0,0,1.9571.7525,10.1975,10.1975,0,0,0,2.1933.2368q3.7823,0,5.461-2.15a9.9017,9.9017,0,0,0,1.6767-6.1924v-3.01H429.43a7.9246,7.9246,0,0,1-2.7735,3.3111,7.4051,7.4051,0,0,1-4.2783,1.247,10.7257,10.7257,0,0,1-4.5586-.8818,8.45,8.45,0,0,1-3.1172-2.4292,9.8907,9.8907,0,0,1-1.7841-3.6338,17.1076,17.1076,0,0,1-.56-4.45,13.819,13.819,0,0,1,.667-4.3217,10.7121,10.7121,0,0,1,1.9346-3.5689,9.0292,9.0292,0,0,1,3.1386-2.4082,9.9359,9.9359,0,0,1,4.2793-.8813,7.7754,7.7754,0,0,1,2.3428.3442,7.4117,7.4117,0,0,1,2,.9673,8.6267,8.6267,0,0,1,1.6123,1.44,6.5826,6.5826,0,0,1,1.0967,1.72h.0859V27.5137h2.709V47.8955A16.8886,16.8886,0,0,1,431.6865,52.3247Zm-6.2129-5.9126a7.0628,7.0628,0,0,0,2.2364-1.978,8.7276,8.7276,0,0,0,1.3545-2.8164,11.92,11.92,0,0,0,.4511-3.2681,14.1546,14.1546,0,0,0-.3867-3.2681,9.462,9.462,0,0,0-1.2471-2.9668,6.7692,6.7692,0,0,0-2.2148-2.15,6.2586,6.2586,0,0,0-3.2891-.8173,6.51,6.51,0,0,0-3.3115.7959,7.06,7.06,0,0,0-2.2793,2.0854,8.7419,8.7419,0,0,0-1.3115,2.9453,14.0354,14.0354,0,0,0-.4082,3.3755,12.4859,12.4859,0,0,0,.43,3.2681,8.3955,8.3955,0,0,0,1.333,2.8164,6.9,6.9,0,0,0,2.2793,1.978,6.7063,6.7063,0,0,0,3.2685.7525A6.1874,6.1874,0,0,0,425.4736,46.4121Z"/><path class="cls-2" d="M437.9434,30.9536a6.3565,6.3565,0,0,1,1.8711-2.3218,7.9067,7.9067,0,0,1,2.7734-1.333,13.4946,13.4946,0,0,1,3.5254-.43,15.5829,15.5829,0,0,1,2.9248.2792,7.0853,7.0853,0,0,1,2.623,1.0538,5.7533,5.7533,0,0,1,1.8916,2.1713,7.8389,7.8389,0,0,1,.7305,3.6338V45.7886a1.4258,1.4258,0,0,0,1.5918,1.6343,2.0853,2.0853,0,0,0,.8594-.1724V49.53q-.4732.0864-.8379.1289a8.1515,8.1515,0,0,1-.9248.043,4.0921,4.0921,0,0,1-1.6553-.2793,2.2226,2.2226,0,0,1-.9678-.7959,2.9763,2.9763,0,0,1-.4511-1.2251,10.4406,10.4406,0,0,1-.1075-1.57h-.0859a18.1866,18.1866,0,0,1-1.4844,1.9136,7.3427,7.3427,0,0,1-1.6767,1.3975,7.7183,7.7183,0,0,1-2.1065.86,11.56,11.56,0,0,1-2.8164.3013,11.13,11.13,0,0,1-2.9033-.3657,6.5006,6.5006,0,0,1-2.3643-1.1607,5.56,5.56,0,0,1-1.5918-2.021,6.7283,6.7283,0,0,1-.58-2.9028,5.7336,5.7336,0,0,1,1.0322-3.6333,6.4929,6.4929,0,0,1,2.7305-1.9995,15.6084,15.6084,0,0,1,3.8271-.9678q2.1285-.279,4.3213-.5371.86-.0857,1.5049-.2153a2.6284,2.6284,0,0,0,1.0752-.4512,2.0918,2.0918,0,0,0,.666-.8818,3.8067,3.8067,0,0,0,.2363-1.4619,4.9462,4.9462,0,0,0-.4512-2.2574,3.5681,3.5681,0,0,0-1.247-1.3974,5.02,5.02,0,0,0-1.8487-.7095,12.5137,12.5137,0,0,0-2.2578-.1938,6.8371,6.8371,0,0,0-4.2138,1.2255,4.7983,4.7983,0,0,0-1.72,3.9346H437.127A9.008,9.008,0,0,1,437.9434,30.9536Zm13.5449,6.6221a1.55,1.55,0,0,1-.9883.688,10.1011,10.1011,0,0,1-1.29.3008q-1.7212.3016-3.5479.5376a19.525,19.525,0,0,0-3.332.7094,6.52,6.52,0,0,0-2.4727,1.3545,3.23,3.23,0,0,0-.9678,2.5156,3.9435,3.9435,0,0,0,.4083,1.8277,4.43,4.43,0,0,0,1.0966,1.376,4.78,4.78,0,0,0,1.5909.8813,5.8,5.8,0,0,0,1.85.3013,9.3082,9.3082,0,0,0,2.9668-.4732,7.2979,7.2979,0,0,0,2.4726-1.3759,6.5453,6.5453,0,0,0,2.3-5.1172V37.5757Z"/><path class="cls-2" d="M30.3506,83.4351a4.4034,4.4034,0,0,0-1.2686-1.5264,5.287,5.287,0,0,0-1.8271-.8814,8.3693,8.3693,0,0,0-2.1934-.28,8.9089,8.9089,0,0,0-1.8271.1938,5.627,5.627,0,0,0-1.6983.645,3.65,3.65,0,0,0-1.247,1.1822,3.2579,3.2579,0,0,0-.4727,1.8061,2.5325,2.5325,0,0,0,.4512,1.5264,3.9973,3.9973,0,0,0,1.14,1.0537,7.2329,7.2329,0,0,0,1.5049.71q.816.2805,1.5049.4516l3.6123.8169a10.3491,10.3491,0,0,1,2.3.6235,7.4234,7.4234,0,0,1,2.0215,1.1827,5.7988,5.7988,0,0,1,1.44,1.8056,5.4384,5.4384,0,0,1,.5586,2.5371,5.5638,5.5638,0,0,1-.8164,3.0747,6.6686,6.6686,0,0,1-2.0859,2.064,8.85,8.85,0,0,1-2.8594,1.1392,14.8077,14.8077,0,0,1-3.1387.3442,10.19,10.19,0,0,1-6.3428-1.8491q-2.43-1.8478-2.7734-5.9341h2.709A5.3433,5.3433,0,0,0,21.041,98.27a7.25,7.25,0,0,0,4.5371,1.398,10.1465,10.1465,0,0,0,2.042-.2154,6.554,6.554,0,0,0,1.957-.7309A4.68,4.68,0,0,0,31.0605,97.41a3.23,3.23,0,0,0,.58-1.9566,3.1148,3.1148,0,0,0-.4082-1.6553A3.5556,3.5556,0,0,0,30.1357,92.68a6.9549,6.9549,0,0,0-1.5693-.7525q-.8818-.3-1.7842-.5161l-3.4834-.7739a19.66,19.66,0,0,1-2.4511-.7954,7.8253,7.8253,0,0,1-1.9561-1.1182A4.6829,4.6829,0,0,1,17.58,87.09a5.4035,5.4035,0,0,1-.4727-2.3867,5.3231,5.3231,0,0,1,.752-2.8808,5.8665,5.8665,0,0,1,1.957-1.9351,9.1054,9.1054,0,0,1,2.6875-1.0747,12.9834,12.9834,0,0,1,2.9453-.3442,10.8562,10.8562,0,0,1,3.1172.43,7.1725,7.1725,0,0,1,2.5371,1.333,6.5447,6.5447,0,0,1,1.7412,2.2359,8.0222,8.0222,0,0,1,.7315,3.1391h-2.709A5.1174,5.1174,0,0,0,30.3506,83.4351Z"/><path class="cls-2" d="M41.0146,79.1138v24.209a13.8831,13.8831,0,0,1-.1933,2.3652,5.2331,5.2331,0,0,1-.7315,1.956,3.8645,3.8645,0,0,1-1.4619,1.3331,4.94,4.94,0,0,1-2.3437.4946q-.4731,0-.9238-.043t-.9249-.043V107.15c.23.0278.4727.05.7315.0645a3.5646,3.5646,0,0,0,.6875-.0215q1.5907,0,2.0215-.9248a5.4575,5.4575,0,0,0,.43-2.3V79.1138Zm0-8.5142v4.3433H38.3057V70.6Z"/><path class="cls-2" d="M60.085,79.4146a9.8062,9.8062,0,0,1,3.29,2.5371,11.0061,11.0061,0,0,1,2.02,3.72,15.2887,15.2887,0,0,1,0,9.0727,11.0028,11.0028,0,0,1-2.02,3.72,9.5623,9.5623,0,0,1-3.29,2.5156,11.3833,11.3833,0,0,1-8.9864,0,9.5445,9.5445,0,0,1-3.29-2.5156,10.9684,10.9684,0,0,1-2.02-3.72,15.2887,15.2887,0,0,1,0-9.0727,10.9716,10.9716,0,0,1,2.02-3.72,9.7875,9.7875,0,0,1,3.29-2.5371,11.1458,11.1458,0,0,1,8.9864,0Zm-7.8907,2.15a7.4621,7.4621,0,0,0-2.4287,2.15,9.76,9.76,0,0,0-1.4629,3.0313,12.3732,12.3732,0,0,0,0,6.9233,9.7437,9.7437,0,0,0,1.4629,3.0313,7.4392,7.4392,0,0,0,2.4287,2.15,7.4674,7.4674,0,0,0,6.794,0,7.4427,7.4427,0,0,0,2.43-2.15A9.72,9.72,0,0,0,62.88,93.6694a12.3492,12.3492,0,0,0,0-6.9233,9.7358,9.7358,0,0,0-1.4619-3.0313,7.4655,7.4655,0,0,0-2.43-2.15,7.4682,7.4682,0,0,0-6.794,0Z"/><path class="cls-2" d="M70.6416,79.1138l6.9658,19.479h.0869l6.88-19.479h2.7949L79.07,101.3018H76.1885l-8.5567-22.188Z"/><path class="cls-2" d="M98.85,79.1138v2.2788H94.335V96.3569A4.8662,4.8662,0,0,0,94.7,98.4424q.3648.7528,1.8281.8384a21.0212,21.0212,0,0,0,2.3213-.1289v2.2788q-.6021,0-1.2031.0429-.6036.0426-1.2041.043-2.71,0-3.7842-1.0532T91.626,96.5718V81.3926h-3.87V79.1138h3.87V72.4487h2.709v6.6651Z"/><path class="cls-2" d="M103.58,96.7437h3.6113v4.5581H103.58ZM103.9238,70.6h2.9239v9.1592l-.6456,13.8891h-1.6337l-.6446-13.8891Z"/><path class="cls-2" d="M113.9434,96.7437h3.6113v4.5581h-3.6113ZM114.2871,70.6h2.9238v9.1592l-.6455,13.8891h-1.6338l-.6445-13.8891Z"/><path class="cls-2" d="M124.3066,96.7437h3.6114v4.5581h-3.6114ZM124.65,70.6h2.9238v9.1592l-.6455,13.8891h-1.6338L124.65,79.7588Z"/><path class="cls-2" d="M134.67,96.7437h3.6113v4.5581H134.67ZM135.0137,70.6h2.9238v9.1592l-.6455,13.8891h-1.6338l-.6445-13.8891Z"/><circle class="cls-3" cx="175.5" cy="88.5" r="27.5"/><path class="cls-4" d="M193.8255,78.9305c-1.1114.5882-8.3986-2.7232-7.7893-3.5209.3486-.4564,3.4765-.3449,5.5923.7284C193.417,77.0453,194.4273,78.6119,193.8255,78.9305Z"/><path class="cls-4" d="M158.1744,77.9305c1.1114.5882,8.3986-2.7232,7.7893-3.5209-.3486-.4564-3.4765-.3449-5.5923.7284C158.5829,76.0453,157.5726,77.6119,158.1744,77.9305Z"/><path class="cls-4" d="M156.7556,86.1778a7.4932,7.4932,0,0,1,2.9333-3.4222A7.9167,7.9167,0,0,1,167.7556,83c1.7225,1.0524,3.3445,2.9791,2.9333,3.6667-.4737.7919-3.2407-.737-7.8222-.9778A23.4466,23.4466,0,0,0,156.7556,86.1778Z"/><path class="cls-4" d="M191.62,86.1778a7.4945,7.4945,0,0,0-2.9333-3.4222A7.9167,7.9167,0,0,0,180.62,83c-1.7225,1.0524-3.3446,2.9791-2.9333,3.6667.4737.7919,3.2407-.737,7.8222-.9778A23.447,23.447,0,0,1,191.62,86.1778Z"/><path class="cls-4" d="M156.0667,91.8c-.1621.158-.4939.6577.38,2.8955a18.4408,18.4408,0,0,0,3.2865,5.4156c3.1468,3.5327,4.7119,5.3139,6.6,6.3556a18.0319,18.0319,0,0,0,11.2445,1.9555,19.07,19.07,0,0,0,8.8-3.9111A24.8522,24.8522,0,0,0,192,98.4c2.2574-3.1507,3.5158-4.9071,2.9333-5.8667-.8934-1.4718-5.0125.751-13.2,1.4667a70.6148,70.6148,0,0,1-13.2-.2444c-4.5778-.4212-6.8667-.6318-8.8-1.2223C157.6665,91.9021,156.58,91.3,156.0667,91.8Z"/><path class="cls-5" d="M155.8222,91.8c-.3893.5251,1.3708,2.661,3.1778,4.1556a18.6049,18.6049,0,0,0,8.0667,3.6666c3.4492.7591,5.9675.5756,10.5111.2445,6.5057-.4742,9.623-1.6154,10.5111-1.9556A14.6549,14.6549,0,0,0,193.9556,94c.8989-1.01,1.7356-1.9507,1.4666-2.4444-.6161-1.1309-5.95,2.0684-14.1778,2.9333-2.1935.2306-5.6179.0722-12.4666-.2445-4.7053-.2175-6.2506-.4362-8.0667-.9777C157.9214,92.4349,156.1635,91.34,155.8222,91.8Z"/><path class="cls-6" d="M186.1333,84.7111c-1.0229.7691,1.0458,3.1844,1.4667,9.5333.2233,3.3687-.2427,4.4427.7333,6.3556.2481.4861,1.9221,3.6385,5.3778,4.1556A5.9805,5.9805,0,0,0,200.8,99.3778a7.572,7.572,0,0,0-.9778-4.8889,9.1583,9.1583,0,0,0-3.1778-3.1778C188.5844,85.9762,187.0384,84.0307,186.1333,84.7111Z"/><path class="cls-5" d="M188.7311,88.0965c-.229.1379-.23.3917.1637,4.42.0917.94.1447,1.4172.491,1.8006a2.6315,2.6315,0,0,0,3.11.3273,2.4936,2.4936,0,0,0,1.3095-2.1279c-.0152-.3714-.15-.8949-1.4732-2.128C190.9422,89.0925,189.4251,87.6785,188.7311,88.0965Z"/><path class="cls-6" d="M163.2,84.7111c1.023.7691-1.0457,3.1844-1.4666,9.5333-.2234,3.3687.2427,4.4427-.7334,6.3556a7.7392,7.7392,0,0,1-5.3777,4.1556,5.9805,5.9805,0,0,1-7.0889-5.3778,7.5713,7.5713,0,0,1,.9778-4.8889,9.1582,9.1582,0,0,1,3.1777-3.1778C160.7491,85.9762,162.2951,84.0307,163.2,84.7111Z"/><path class="cls-5" d="M160.6024,88.0965c.229.1379.23.3917-.1637,4.42-.0918.94-.1447,1.4172-.491,1.8006a2.6315,2.6315,0,0,1-3.11.3273,2.4939,2.4939,0,0,1-1.31-2.1279c.0153-.3714.15-.8949,1.4732-2.128C158.3913,89.0925,159.9084,87.6785,160.6024,88.0965Z"/><circle class="cls-3" cx="235.5" cy="88.5" r="27.5"/><path class="cls-4" d="M253.8255,78.9305c-1.1114.5882-8.3986-2.7232-7.7893-3.5209.3486-.4564,3.4765-.3449,5.5923.7284C253.417,77.0453,254.4273,78.6119,253.8255,78.9305Z"/><path class="cls-4" d="M218.1744,77.9305c1.1114.5882,8.3986-2.7232,7.7893-3.5209-.3486-.4564-3.4765-.3449-5.5923.7284C218.5829,76.0453,217.5726,77.6119,218.1744,77.9305Z"/><path class="cls-4" d="M216.7556,86.1778a7.4932,7.4932,0,0,1,2.9333-3.4222A7.9167,7.9167,0,0,1,227.7556,83c1.7225,1.0524,3.3445,2.9791,2.9333,3.6667-.4737.7919-3.2407-.737-7.8222-.9778A23.4466,23.4466,0,0,0,216.7556,86.1778Z"/><path class="cls-4" d="M251.62,86.1778a7.4945,7.4945,0,0,0-2.9333-3.4222A7.9167,7.9167,0,0,0,240.62,83c-1.7225,1.0524-3.3446,2.9791-2.9333,3.6667.4737.7919,3.2407-.737,7.8222-.9778A23.447,23.447,0,0,1,251.62,86.1778Z"/><path class="cls-4" d="M216.0667,91.8c-.1621.158-.4939.6577.38,2.8955a18.4408,18.4408,0,0,0,3.2865,5.4156c3.1468,3.5327,4.7119,5.3139,6.6,6.3556a18.0319,18.0319,0,0,0,11.2445,1.9555,19.07,19.07,0,0,0,8.8-3.9111A24.8522,24.8522,0,0,0,252,98.4c2.2574-3.1507,3.5158-4.9071,2.9333-5.8667-.8934-1.4718-5.0125.751-13.2,1.4667a70.6148,70.6148,0,0,1-13.2-.2444c-4.5778-.4212-6.8667-.6318-8.8-1.2223C217.6665,91.9021,216.58,91.3,216.0667,91.8Z"/><path class="cls-5" d="M215.8222,91.8c-.3893.5251,1.3708,2.661,3.1778,4.1556a18.6049,18.6049,0,0,0,8.0667,3.6666c3.4492.7591,5.9675.5756,10.5111.2445,6.5057-.4742,9.623-1.6154,10.5111-1.9556A14.6549,14.6549,0,0,0,253.9556,94c.8989-1.01,1.7356-1.9507,1.4666-2.4444-.6161-1.1309-5.95,2.0684-14.1778,2.9333-2.1935.2306-5.6179.0722-12.4666-.2445-4.7053-.2175-6.2506-.4362-8.0667-.9777C217.9214,92.4349,216.1635,91.34,215.8222,91.8Z"/><path class="cls-6" d="M246.1333,84.7111c-1.0229.7691,1.0458,3.1844,1.4667,9.5333.2233,3.3687-.2427,4.4427.7333,6.3556.2481.4861,1.9221,3.6385,5.3778,4.1556A5.9805,5.9805,0,0,0,260.8,99.3778a7.572,7.572,0,0,0-.9778-4.8889,9.1583,9.1583,0,0,0-3.1778-3.1778C248.5844,85.9762,247.0384,84.0307,246.1333,84.7111Z"/><path class="cls-5" d="M248.7311,88.0965c-.229.1379-.23.3917.1637,4.42.0917.94.1447,1.4172.491,1.8006a2.6315,2.6315,0,0,0,3.11.3273,2.4936,2.4936,0,0,0,1.3095-2.1279c-.0152-.3714-.15-.8949-1.4732-2.128C250.9422,89.0925,249.4251,87.6785,248.7311,88.0965Z"/><path class="cls-6" d="M223.2,84.7111c1.023.7691-1.0457,3.1844-1.4666,9.5333-.2234,3.3687.2427,4.4427-.7334,6.3556a7.7392,7.7392,0,0,1-5.3777,4.1556,5.9805,5.9805,0,0,1-7.0889-5.3778,7.5713,7.5713,0,0,1,.9778-4.8889,9.1582,9.1582,0,0,1,3.1777-3.1778C220.7491,85.9762,222.2951,84.0307,223.2,84.7111Z"/><path class="cls-5" d="M220.6024,88.0965c.229.1379.23.3917-.1637,4.42-.0918.94-.1447,1.4172-.491,1.8006a2.6315,2.6315,0,0,1-3.11.3273,2.4939,2.4939,0,0,1-1.31-2.1279c.0153-.3714.15-.8949,1.4732-2.128C218.3913,89.0925,219.9084,87.6785,220.6024,88.0965Z"/><circle class="cls-3" cx="297.5" cy="88.5" r="27.5"/><path class="cls-4" d="M315.8255,78.9305c-1.1114.5882-8.3986-2.7232-7.7893-3.5209.3486-.4564,3.4765-.3449,5.5923.7284C315.417,77.0453,316.4273,78.6119,315.8255,78.9305Z"/><path class="cls-4" d="M280.1744,77.9305c1.1114.5882,8.3986-2.7232,7.7893-3.5209-.3486-.4564-3.4765-.3449-5.5923.7284C280.5829,76.0453,279.5726,77.6119,280.1744,77.9305Z"/><path class="cls-4" d="M278.7556,86.1778a7.4932,7.4932,0,0,1,2.9333-3.4222A7.9167,7.9167,0,0,1,289.7556,83c1.7225,1.0524,3.3445,2.9791,2.9333,3.6667-.4737.7919-3.2407-.737-7.8222-.9778A23.4466,23.4466,0,0,0,278.7556,86.1778Z"/><path class="cls-4" d="M313.62,86.1778a7.4945,7.4945,0,0,0-2.9333-3.4222A7.9167,7.9167,0,0,0,302.62,83c-1.7225,1.0524-3.3446,2.9791-2.9333,3.6667.4737.7919,3.2407-.737,7.8222-.9778A23.447,23.447,0,0,1,313.62,86.1778Z"/><path class="cls-4" d="M278.0667,91.8c-.1621.158-.4939.6577.38,2.8955a18.4408,18.4408,0,0,0,3.2865,5.4156c3.1468,3.5327,4.7119,5.3139,6.6,6.3556a18.0319,18.0319,0,0,0,11.2445,1.9555,19.07,19.07,0,0,0,8.8-3.9111A24.8522,24.8522,0,0,0,314,98.4c2.2574-3.1507,3.5158-4.9071,2.9333-5.8667-.8934-1.4718-5.0125.751-13.2,1.4667a70.6148,70.6148,0,0,1-13.2-.2444c-4.5778-.4212-6.8667-.6318-8.8-1.2223C279.6665,91.9021,278.58,91.3,278.0667,91.8Z"/><path class="cls-5" d="M277.8222,91.8c-.3893.5251,1.3708,2.661,3.1778,4.1556a18.6049,18.6049,0,0,0,8.0667,3.6666c3.4492.7591,5.9675.5756,10.5111.2445,6.5057-.4742,9.623-1.6154,10.5111-1.9556A14.6549,14.6549,0,0,0,315.9556,94c.8989-1.01,1.7356-1.9507,1.4666-2.4444-.6161-1.1309-5.95,2.0684-14.1778,2.9333-2.1935.2306-5.6179.0722-12.4666-.2445-4.7053-.2175-6.2506-.4362-8.0667-.9777C279.9214,92.4349,278.1635,91.34,277.8222,91.8Z"/><path class="cls-6" d="M308.1333,84.7111c-1.0229.7691,1.0458,3.1844,1.4667,9.5333.2233,3.3687-.2427,4.4427.7333,6.3556.2481.4861,1.9221,3.6385,5.3778,4.1556A5.9805,5.9805,0,0,0,322.8,99.3778a7.572,7.572,0,0,0-.9778-4.8889,9.1583,9.1583,0,0,0-3.1778-3.1778C310.5844,85.9762,309.0384,84.0307,308.1333,84.7111Z"/><path class="cls-5" d="M310.7311,88.0965c-.229.1379-.23.3917.1637,4.42.0917.94.1447,1.4172.491,1.8006a2.6315,2.6315,0,0,0,3.11.3273,2.4936,2.4936,0,0,0,1.31-2.1279c-.0152-.3714-.15-.8949-1.4732-2.128C312.9422,89.0925,311.4251,87.6785,310.7311,88.0965Z"/><path class="cls-6" d="M285.2,84.7111c1.023.7691-1.0457,3.1844-1.4666,9.5333-.2234,3.3687.2427,4.4427-.7334,6.3556a7.7392,7.7392,0,0,1-5.3777,4.1556,5.9805,5.9805,0,0,1-7.0889-5.3778,7.5713,7.5713,0,0,1,.9778-4.8889,9.1582,9.1582,0,0,1,3.1777-3.1778C282.7491,85.9762,284.2951,84.0307,285.2,84.7111Z"/><path class="cls-5" d="M282.6024,88.0965c.229.1379.23.3917-.1637,4.42-.0918.94-.1447,1.4172-.491,1.8006a2.6315,2.6315,0,0,1-3.11.3273,2.4939,2.4939,0,0,1-1.31-2.1279c.0153-.3714.15-.8949,1.4732-2.128C280.3913,89.0925,281.9084,87.6785,282.6024,88.0965Z"/></svg>
