<svg id="Layer_1" data-name="Layer 1" xmlns="http://www.w3.org/2000/svg" width="945" height="1434" viewBox="0 0 945 1434"><defs><style>.cls-1{fill:#999;}.cls-2{fill:#ccc;}.cls-3{fill:#8c6239;stroke:#402a14;stroke-miterlimit:10;stroke-width:2px;}.cls-4{fill:#402a14;}.cls-5{fill:#c7b299;}.cls-6{fill:#b29372;}.cls-7{fill:#ad8561;}.cls-8{fill:#754c24;}.cls-9{fill:#7f5336;}.cls-10{fill:#82552f;}.cls-11{fill:#d1d3d4;}</style></defs><title>tissemand</title><rect class="cls-1" width="945.48" height="1434"/><rect class="cls-2" x="84.11" y="0.07" width="858.93" height="1226.32"/><path class="cls-3" d="M978.29,1433.7H852.55l29.73-207.08H996.61Q987.45,1330.17,978.29,1433.7Z"/><path class="cls-4" d="M949.78,1234.25c-14.34,5-21.1,11.27-18.43,17.22,1.39,3,4.8,5.87,7.59,8.87a38.66,38.66,0,0,1,6.35,9.1,23.71,23.71,0,0,1,2.36,9.26A21.52,21.52,0,0,1,946,1288a32.48,32.48,0,0,1-5.75,9.2,60.37,60.37,0,0,1-10,9,59.52,59.52,0,0,0,7.42-9.07l1.39-2.28c.44-.92.67-1.38,1.11-2.29a24.43,24.43,0,0,0,.93-2.29l.43-1.15c.13-.38.2-.76.3-1.15a22.93,22.93,0,0,0,.52-2.29c.13-.92.2-1.38.33-2.29a23.47,23.47,0,0,0-.07-4.59,24.91,24.91,0,0,0-2.59-9.11,38.32,38.32,0,0,0-5.93-9c-2.45-3-5.83-5.93-6.79-9.07C926.19,1240.82,943.27,1236.74,949.78,1234.25Z"/><path class="cls-4" d="M902.53,1311.63c-3.34,4.61-3.06,9.24-1.27,13.81a45.78,45.78,0,0,0,3.53,6.83c1.63,2.75,2.46,4.12,4.11,6.86a29.81,29.81,0,0,1,2.87,6.95,13.22,13.22,0,0,1-.12,7,15.09,15.09,0,0,1-4.88,7,40.2,40.2,0,0,1-11.57,6.45c8.2-4.25,11.51-8.87,12.11-13.45a16,16,0,0,0-.79-6.88,34,34,0,0,0-3.11-6.84c-1.22-2.29-2.62-4.57-3.79-6.87a28.51,28.51,0,0,1-2.63-6.94C896,1320.91,897,1316.12,902.53,1311.63Z"/><path class="cls-4" d="M916.82,1375.52c6.76,3.37,11.13,7.07,13.23,10.87a10.3,10.3,0,0,1,1.42,5.76,12.22,12.22,0,0,1-2.12,5.78,27.61,27.61,0,0,1-5.53,5.66c-2.35,1.84-4.88,3.66-7.5,5.46-5.13,3.61-10.05,7.22-11.94,11-.3-1.91.61-3.83,2-5.73a38.71,38.71,0,0,1,5.68-5.6c2.14-1.85,4.55-3.67,6.57-5.5a27.31,27.31,0,0,0,5.1-5.51,13.51,13.51,0,0,0,2.37-5.59,11.21,11.21,0,0,0-.44-5.61C924.44,1382.81,921.4,1379.12,916.82,1375.52Z"/><path class="cls-4" d="M907.66,1265.83a23.74,23.74,0,0,1,7.85,5.21,8.2,8.2,0,0,1,2.47,5.65,8.58,8.58,0,0,1-2.71,5.68,25.6,25.6,0,0,1-8.15,5.33,27.59,27.59,0,0,0,4-5.5,12.52,12.52,0,0,0,1.49-5.47,12,12,0,0,0-1.23-5.46A25.11,25.11,0,0,0,907.66,1265.83Z"/><path class="cls-4" d="M944.85,1318.49a50.44,50.44,0,0,0-2.15,7.92c-.06.66-.13,1.31-.25,2l-.1,2c0,.65,0,1.31,0,2s.13,1.17.21,2l.3,2c.17.66.37,1.31.51,2s.36,1.18.61,2,.54,1.3.76,2a64,64,0,0,0,4.24,7.82,31.49,31.49,0,0,1-8.52-7.63c-.47-.66-.91-1.31-1.31-2l-1-2-.68-2-.42-2c0-.8,0-1.2-.08-2s.07-1.34.17-2l.5-2c.22-.67.5-1.33.79-2A22.73,22.73,0,0,1,944.85,1318.49Z"/><path class="cls-4" d="M881.38,1382.4a39.7,39.7,0,0,1,6,4.4,43.24,43.24,0,0,1,4.42,4.49c1.3,1.5,2.45,3.11,1.94,4.74a4.51,4.51,0,0,1-2.48,2.42,21.7,21.7,0,0,1-6.67,1.81c4.22-1.25,5-2.75,4.68-4.21s-1.72-2.91-3-4.43a30,30,0,0,1-3.22-4.56A12,12,0,0,1,881.38,1382.4Z"/><path class="cls-3" d="M852.55,1433.7H726.82L768,1226.62H882.28Z"/><path class="cls-4" d="M835,1234.25c-8.1,3.59-19.57,6.54-19.38,17.22,1.23,3,4.48,5.87,7.1,8.87a35.68,35.68,0,0,1,5.85,9.1,22.76,22.76,0,0,1,1.85,9.26,22.06,22.06,0,0,1-2.18,9.3,35,35,0,0,1-6.26,9.2,65.66,65.66,0,0,1-10.53,9,63.81,63.81,0,0,0,7.92-9.07l1.51-2.28,1.24-2.29c.44-.76.71-1.53,1.06-2.29l.49-1.15c.15-.38.24-.76.37-1.15a23.65,23.65,0,0,0,.64-2.29c.18-.92.28-1.38.46-2.29a24.33,24.33,0,0,0,.18-4.59,24,24,0,0,0-2.09-9.11,35.7,35.7,0,0,0-5.44-9c-2.28-3-5.5-5.93-6.29-9.07C811.15,1240.75,828.25,1236.79,835,1234.25Z"/><path class="cls-4" d="M783.52,1311.63c-3.6,4.61-3.57,9.24-2,13.81a43.89,43.89,0,0,0,3.16,6.83c1.48,2.75,2.23,4.12,3.73,6.86a28.31,28.31,0,0,1,2.49,6.95,13.32,13.32,0,0,1-.5,7,16.43,16.43,0,0,1-5.27,7,43,43,0,0,1-11.93,6.45c8.43-4.25,12-8.87,12.85-13.45a15.44,15.44,0,0,0-.41-6.88,31.59,31.59,0,0,0-2.73-6.84c-1.09-2.29-2.37-4.57-3.41-6.87a27.16,27.16,0,0,1-2.25-6.94C776.45,1320.91,777.7,1316.12,783.52,1311.63Z"/><path class="cls-4" d="M794.29,1375.52c6.57,3.37,10.74,7.07,12.63,10.87a9.89,9.89,0,0,1,1.1,5.76,13,13,0,0,1-2.43,5.78,30.42,30.42,0,0,1-5.84,5.66c-2.46,1.84-5.09,3.66-7.81,5.46-5.33,3.61-10.45,7.22-12.55,11-.19-1.91.82-3.83,2.33-5.73a41.9,41.9,0,0,1,6-5.6c2.24-1.85,4.75-3.67,6.87-5.5a29.35,29.35,0,0,0,5.41-5.51,14.32,14.32,0,0,0,2.67-5.59,11.23,11.23,0,0,0-.12-5.61C801.51,1382.81,798.67,1379.12,794.29,1375.52Z"/><path class="cls-4" d="M791.17,1265.83a21.91,21.91,0,0,1,7.56,5.21,7.75,7.75,0,0,1,2.16,5.65,9.07,9.07,0,0,1-3,5.68,27.5,27.5,0,0,1-8.45,5.33,29.56,29.56,0,0,0,4.29-5.5,13.1,13.1,0,0,0,1.79-5.47,11.54,11.54,0,0,0-.93-5.46A23.25,23.25,0,0,0,791.17,1265.83Z"/><path class="cls-4" d="M825.46,1318.49a54.16,54.16,0,0,0-2.59,7.92,19.37,19.37,0,0,1-.35,2c-.09.79-.13,1.18-.21,2s-.07,1.31-.1,2l.1,2,.2,2c.13.66.29,1.31.39,2l.5,2a20.52,20.52,0,0,1,.66,2,59.72,59.72,0,0,0,3.81,7.82,29,29,0,0,1-8.1-7.63c-.43-.66-.84-1.31-1.2-2l-.9-2-.57-2c-.13-.8-.19-1.2-.32-2s0-1.2,0-2,.15-1.34.28-2,.37-1.2.61-2,.58-1.33.91-2A24.67,24.67,0,0,1,825.46,1318.49Z"/><path class="cls-4" d="M758.47,1382.4a37.31,37.31,0,0,1,5.73,4.4,40.9,40.9,0,0,1,4.17,4.49c1.22,1.5,2.28,3.11,1.68,4.74a4.89,4.89,0,0,1-2.61,2.42,22.71,22.71,0,0,1-6.77,1.81c4.28-1.25,5.17-2.75,4.9-4.21s-1.55-2.91-2.77-4.43a27.17,27.17,0,0,1-3-4.56A11.33,11.33,0,0,1,758.47,1382.4Z"/><path class="cls-3" d="M726.82,1433.7H601.08q26.26-103.54,52.54-207.08H768Z"/><path class="cls-4" d="M720.28,1234.25c-8.34,3.61-19.85,6.48-20.32,17.22,1.06,3,4.15,5.87,6.61,8.87a33.22,33.22,0,0,1,5.34,9.1,22.35,22.35,0,0,1,1.35,9.26,23.11,23.11,0,0,1-2.7,9.3,37.7,37.7,0,0,1-6.77,9.2,70.89,70.89,0,0,1-11,9,69.85,69.85,0,0,0,8.42-9.07c.65-.92,1-1.37,1.64-2.28s.82-1.38,1.36-2.29a24.9,24.9,0,0,0,1.18-2.29l.56-1.15c.17-.38.28-.76.43-1.15.25-.76.6-1.52.77-2.29.23-.92.35-1.38.58-2.29a23,23,0,0,0,.43-4.59,23.27,23.27,0,0,0-1.58-9.11,33.09,33.09,0,0,0-4.95-9c-2.11-3-5.17-5.93-5.79-9.07C696.11,1240.7,713.22,1236.84,720.28,1234.25Z"/><path class="cls-4" d="M664.5,1311.63c-3.84,4.61-4.08,9.24-2.79,13.81a40.5,40.5,0,0,0,2.78,6.83c1.33,2.75,2,4.12,3.35,6.86a26.67,26.67,0,0,1,2.11,6.95,13.54,13.54,0,0,1-.89,7,17.57,17.57,0,0,1-5.66,7,46,46,0,0,1-12.28,6.45c8.67-4.25,12.5-8.87,13.59-13.45a15.37,15.37,0,0,0,0-6.88,30.48,30.48,0,0,0-2.35-6.84c-1-2.29-2.12-4.57-3-6.87a26.42,26.42,0,0,1-1.87-6.94C656.93,1320.91,658.44,1316.12,664.5,1311.63Z"/><path class="cls-4" d="M671.76,1375.52c6.38,3.37,10.35,7.07,12,10.87a9.66,9.66,0,0,1,.78,5.76,13.66,13.66,0,0,1-2.75,5.78,32.89,32.89,0,0,1-6.15,5.66c-2.56,1.84-5.29,3.66-8.11,5.46-5.53,3.61-10.85,7.22-13.15,11-.09-1.91,1-3.83,2.64-5.73a45.81,45.81,0,0,1,6.29-5.6c2.34-1.85,5-3.67,7.18-5.5a31.79,31.79,0,0,0,5.71-5.51,15.27,15.27,0,0,0,3-5.59,11.13,11.13,0,0,0,.19-5.61C678.57,1382.81,675.94,1379.12,671.76,1375.52Z"/><path class="cls-4" d="M674.68,1265.83A20.2,20.2,0,0,1,682,1271a7.36,7.36,0,0,1,1.85,5.65,9.67,9.67,0,0,1-3.33,5.68,29.83,29.83,0,0,1-8.74,5.33,32.55,32.55,0,0,0,4.59-5.5,13.79,13.79,0,0,0,2.09-5.47,11.41,11.41,0,0,0-.63-5.46A21.6,21.6,0,0,0,674.68,1265.83Z"/><path class="cls-4" d="M706.07,1318.49a56,56,0,0,0-3,7.92,20.09,20.09,0,0,1-.47,2c-.13.79-.19,1.18-.32,2s-.14,1.31-.2,2,0,1.17,0,2,.05,1.18.09,2,.22,1.31.28,2l.4,2c.22.65.39,1.3.55,2a54.82,54.82,0,0,0,3.38,7.82,26.76,26.76,0,0,1-7.69-7.63c-.39-.66-.76-1.31-1.09-2s-.47-1.19-.79-2-.27-1.2-.46-2l-.2-2c.05-.8.08-1.2.14-2s.22-1.34.39-2l.72-2c.3-.67.65-1.33,1-2A26.84,26.84,0,0,1,706.07,1318.49Z"/><path class="cls-4" d="M635.55,1382.4a34.14,34.14,0,0,1,5.49,4.4,37,37,0,0,1,3.93,4.49c1.13,1.5,2.11,3.11,1.41,4.74a5.23,5.23,0,0,1-2.74,2.42,23.58,23.58,0,0,1-6.87,1.81c4.35-1.25,5.32-2.75,5.14-4.21s-1.4-2.91-2.53-4.43a25.31,25.31,0,0,1-2.71-4.56A10.92,10.92,0,0,1,635.55,1382.4Z"/><path class="cls-3" d="M601.08,1433.7H475.34q32-103.54,63.95-207.08H653.62Q627.34,1330.17,601.08,1433.7Z"/><path class="cls-4" d="M605.53,1234.25c-8.6,3.64-20.13,6.43-21.27,17.22.9,3,3.83,5.87,6.12,8.87a30.85,30.85,0,0,1,4.84,9.1,21.79,21.79,0,0,1,.83,9.26,24.18,24.18,0,0,1-3.2,9.3,41,41,0,0,1-7.27,9.2,77.65,77.65,0,0,1-11.52,9,74.85,74.85,0,0,0,8.91-9.07l1.77-2.28c.6-.92.89-1.38,1.49-2.29.53-.76.88-1.53,1.31-2.29l.62-1.15c.19-.38.32-.76.49-1.15.29-.76.68-1.52.9-2.29.28-.92.42-1.38.71-2.29a25.07,25.07,0,0,0,.68-4.59,22.59,22.59,0,0,0-1.08-9.11,31.26,31.26,0,0,0-4.45-9c-1.95-3-4.85-5.93-5.29-9.07C581.05,1240.66,598.18,1236.9,605.53,1234.25Z"/><path class="cls-4" d="M545.49,1311.63a14.55,14.55,0,0,0-3.56,13.81,40,40,0,0,0,2.4,6.83c1.19,2.75,1.78,4.12,3,6.86a26,26,0,0,1,1.73,6.95,13.89,13.89,0,0,1-1.28,7,19.07,19.07,0,0,1-6,7,49.11,49.11,0,0,1-12.64,6.45c8.9-4.25,13-8.87,14.33-13.45a15.43,15.43,0,0,0,.35-6.88,28.68,28.68,0,0,0-2-6.84c-.84-2.29-1.86-4.57-2.65-6.87a25.15,25.15,0,0,1-1.49-6.94C537.4,1320.91,539.18,1316.12,545.49,1311.63Z"/><path class="cls-4" d="M549.22,1375.52c6.2,3.37,10,7.07,11.44,10.87a9.59,9.59,0,0,1,.46,5.76,14.57,14.57,0,0,1-3.07,5.78,35.54,35.54,0,0,1-6.46,5.66c-2.67,1.84-5.49,3.66-8.41,5.46-5.73,3.61-11.25,7.22-13.76,11,0-1.91,1.24-3.83,3-5.73a48.92,48.92,0,0,1,6.6-5.6c2.44-1.85,5.16-3.67,7.48-5.5a34.81,34.81,0,0,0,6-5.51,16.2,16.2,0,0,0,3.29-5.59,11.23,11.23,0,0,0,.49-5.61C555.64,1382.81,553.21,1379.12,549.22,1375.52Z"/><path class="cls-4" d="M558.19,1265.83a18.7,18.7,0,0,1,7,5.21,7.08,7.08,0,0,1,1.54,5.65,10.41,10.41,0,0,1-3.64,5.68,32,32,0,0,1-9,5.33,35.46,35.46,0,0,0,4.9-5.5,14.76,14.76,0,0,0,2.39-5.47,11.26,11.26,0,0,0-.33-5.46A20.14,20.14,0,0,0,558.19,1265.83Z"/><path class="cls-4" d="M586.68,1318.49a58.26,58.26,0,0,0-3.46,7.92c-.17.66-.35,1.31-.58,2l-.42,2c-.07.65-.21,1.31-.32,2s-.07,1.17-.11,2,0,1.18,0,2,.15,1.31.17,2,.18,1.18.29,2a16.78,16.78,0,0,1,.44,2,52.74,52.74,0,0,0,3,7.82,24.72,24.72,0,0,1-7.26-7.63c-.36-.66-.7-1.31-1-2s-.41-1.19-.69-2-.21-1.2-.34-2l-.1-2,.25-2c.17-.67.3-1.34.5-2s.5-1.2.83-2,.73-1.33,1.13-2A29,29,0,0,1,586.68,1318.49Z"/><path class="cls-4" d="M512.64,1382.4a31.63,31.63,0,0,1,5.25,4.4,34.24,34.24,0,0,1,3.68,4.49c1,1.5,1.93,3.11,1.15,4.74a5.71,5.71,0,0,1-2.88,2.42,24.47,24.47,0,0,1-7,1.81c4.43-1.25,5.48-2.75,5.37-4.21s-1.23-2.91-2.29-4.43a23.59,23.59,0,0,1-2.45-4.56A10.6,10.6,0,0,1,512.64,1382.4Z"/><path class="cls-3" d="M475.34,1433.7H349.6L425,1226.62H539.29Q507.31,1330.17,475.34,1433.7Z"/><path class="cls-4" d="M490.78,1234.25c-8.87,3.67-20.42,6.4-22.22,17.22.73,3,3.5,5.87,5.63,8.87a29.21,29.21,0,0,1,4.34,9.1,21.76,21.76,0,0,1,.33,9.26,25.68,25.68,0,0,1-3.72,9.3,44.33,44.33,0,0,1-7.78,9.2,83.29,83.29,0,0,1-12,9,81.28,81.28,0,0,0,9.42-9.07l1.89-2.28,1.62-2.29c.57-.76,1-1.53,1.43-2.29l.69-1.15c.21-.38.36-.76.55-1.15a24.29,24.29,0,0,0,1-2.29c.34-.92.51-1.38.84-2.29a25.81,25.81,0,0,0,.94-4.59,22.47,22.47,0,0,0-.58-9.11,29.21,29.21,0,0,0-4-9c-1.79-3-4.52-5.93-4.79-9.07C466,1240.63,483.12,1237,490.78,1234.25Z"/><path class="cls-4" d="M426.48,1311.63c-4.36,4.61-5.1,9.24-4.32,13.81a37.36,37.36,0,0,0,2,6.83l2.6,6.86a24.87,24.87,0,0,1,1.35,6.95,14.35,14.35,0,0,1-1.67,7,20.71,20.71,0,0,1-6.42,7,52.6,52.6,0,0,1-13,6.45c9.14-4.25,13.48-8.87,15.08-13.45a15.63,15.63,0,0,0,.72-6.88,27.59,27.59,0,0,0-1.6-6.84c-.71-2.29-1.61-4.57-2.28-6.87a24.82,24.82,0,0,1-1.1-6.94C417.88,1320.91,419.92,1316.12,426.48,1311.63Z"/><path class="cls-4" d="M426.69,1375.52c6,3.37,9.57,7.07,10.83,10.87a9.37,9.37,0,0,1,.15,5.76,15.73,15.73,0,0,1-3.39,5.78,38.76,38.76,0,0,1-6.77,5.66c-2.77,1.84-5.69,3.66-8.72,5.46-5.92,3.61-11.64,7.22-14.36,11,.12-1.91,1.45-3.83,3.27-5.73a54.26,54.26,0,0,1,6.91-5.6c2.55-1.85,5.37-3.67,7.79-5.5a38.2,38.2,0,0,0,6.32-5.51,17.71,17.71,0,0,0,3.59-5.59,11.44,11.44,0,0,0,.8-5.61C432.7,1382.81,430.48,1379.12,426.69,1375.52Z"/><path class="cls-4" d="M441.7,1265.83a17.42,17.42,0,0,1,6.7,5.21,6.8,6.8,0,0,1,1.22,5.65,11.14,11.14,0,0,1-4,5.68,34.37,34.37,0,0,1-9.32,5.33,37.89,37.89,0,0,0,5.19-5.5,15.57,15.57,0,0,0,2.7-5.47,11.21,11.21,0,0,0,0-5.46A18.85,18.85,0,0,0,441.7,1265.83Z"/><path class="cls-4" d="M467.29,1318.49a62.3,62.3,0,0,0-3.9,7.92c-.2.66-.42,1.31-.68,2s-.32,1.18-.54,2-.28,1.31-.42,2-.13,1.17-.22,2-.08,1.18-.13,2,.08,1.31.07,2,.1,1.18.18,2a18.64,18.64,0,0,1,.33,2,50,50,0,0,0,2.52,7.82,22.82,22.82,0,0,1-6.85-7.63c-.32-.66-.62-1.31-.87-2l-.57-2c-.1-.8-.15-1.2-.24-2s0-1.2,0-2,.22-1.2.37-2,.36-1.34.61-2,.56-1.2.94-2,.8-1.33,1.23-2A31.44,31.44,0,0,1,467.29,1318.49Z"/><path class="cls-4" d="M389.73,1382.4a28.82,28.82,0,0,1,5,4.4,31,31,0,0,1,3.43,4.49c1,1.5,1.77,3.11.9,4.74a6.15,6.15,0,0,1-3,2.42,25.67,25.67,0,0,1-7.07,1.81c4.49-1.25,5.62-2.75,5.6-4.21s-1.08-2.91-2.05-4.43a22.67,22.67,0,0,1-2.2-4.56A10.23,10.23,0,0,1,389.73,1382.4Z"/><path class="cls-3" d="M349.6,1433.7H223.87l86.76-207.08H425Z"/><path class="cls-4" d="M376,1234.25c-6.84,2.77-22.67,6.88-23.17,17.22.57,3,3.18,5.87,5.14,8.87a27.15,27.15,0,0,1,3.84,9.1,21.45,21.45,0,0,1-.18,9.26,27,27,0,0,1-4.23,9.3,48,48,0,0,1-8.29,9.2,90.32,90.32,0,0,1-12.51,9,89,89,0,0,0,9.92-9.07l2-2.28c.7-.92,1-1.38,1.74-2.29.61-.76,1-1.53,1.56-2.29l.75-1.15c.23-.38.41-.76.62-1.15.37-.76.85-1.52,1.14-2.29.39-.92.58-1.38,1-2.29a26.75,26.75,0,0,0,1.19-4.59,22.36,22.36,0,0,0-.08-9.11,27.41,27.41,0,0,0-3.46-9c-1.63-3-4.2-5.93-4.3-9.07C350.49,1240.25,367.41,1237,376,1234.25Z"/><path class="cls-4" d="M307.47,1311.63c-4.61,4.61-5.61,9.24-5.08,13.81a36.66,36.66,0,0,0,1.64,6.83c.89,2.75,1.33,4.12,2.23,6.86a24.64,24.64,0,0,1,1,6.95,15,15,0,0,1-2.06,7,22.51,22.51,0,0,1-6.8,7,56.37,56.37,0,0,1-13.35,6.45c9.37-4.25,14-8.87,15.81-13.45a16.13,16.13,0,0,0,1.11-6.88,26.77,26.77,0,0,0-1.23-6.84c-.58-2.29-1.35-4.57-1.9-6.87a24,24,0,0,1-.71-6.94C298.35,1320.91,300.66,1316.12,307.47,1311.63Z"/><path class="cls-4" d="M304.16,1375.52c5.83,3.37,9.18,7.07,10.23,10.87a9.38,9.38,0,0,1-.17,5.76,16.86,16.86,0,0,1-3.7,5.78,42,42,0,0,1-7.09,5.66c-2.87,1.84-5.89,3.66-9,5.46-6.12,3.61-12,7.22-15,11,.23-1.91,1.66-3.83,3.59-5.73a58.61,58.61,0,0,1,7.22-5.6c2.65-1.85,5.57-3.67,8.09-5.5a40.91,40.91,0,0,0,6.62-5.51,18.89,18.89,0,0,0,3.9-5.59,11.76,11.76,0,0,0,1.12-5.61C309.77,1382.81,307.75,1379.12,304.16,1375.52Z"/><path class="cls-4" d="M325.22,1265.83a16.06,16.06,0,0,1,6.4,5.21,6.64,6.64,0,0,1,.92,5.65,12.08,12.08,0,0,1-4.28,5.68,36.75,36.75,0,0,1-9.62,5.33,40.73,40.73,0,0,0,5.5-5.5,16.64,16.64,0,0,0,3-5.47,11.26,11.26,0,0,0,.28-5.46A18.25,18.25,0,0,0,325.22,1265.83Z"/><path class="cls-4" d="M347.9,1318.49a68.4,68.4,0,0,0-4.34,7.92c-.24.66-.48,1.31-.79,2s-.38,1.18-.64,2-.36,1.31-.53,2-.2,1.17-.33,2-.15,1.18-.24,2,0,1.31,0,2,0,1.18.07,2a18.38,18.38,0,0,1,.23,2,47.66,47.66,0,0,0,2.08,7.82,21,21,0,0,1-6.42-7.63c-.28-.66-.55-1.31-.76-2s-.28-1.19-.47-2-.07-1.2-.12-2,.07-1.2.12-2l.47-2c.25-.67.44-1.34.73-2l1.05-2c.4-.67.87-1.33,1.34-2A34.18,34.18,0,0,1,347.9,1318.49Z"/><path class="cls-4" d="M266.82,1382.4a26.67,26.67,0,0,1,4.76,4.4,28.72,28.72,0,0,1,3.18,4.49c.89,1.5,1.6,3.11.63,4.74a6.62,6.62,0,0,1-3.14,2.42,26.61,26.61,0,0,1-7.17,1.81c4.56-1.25,5.78-2.75,5.84-4.21s-.92-2.91-1.8-4.43a20.92,20.92,0,0,1-2-4.56A10.23,10.23,0,0,1,266.82,1382.4Z"/><path class="cls-3" d="M223.87,1433.7H98.14q49.08-103.54,98.17-207.08H310.63Z"/><path class="cls-4" d="M261.28,1234.25c-7.12,2.82-23,6.84-24.11,17.22.4,3,2.85,5.87,4.65,8.87a25.76,25.76,0,0,1,3.34,9.1,21.8,21.8,0,0,1-.7,9.26,28.78,28.78,0,0,1-4.74,9.3,52.32,52.32,0,0,1-8.79,9.2,97.85,97.85,0,0,1-13,9,97.25,97.25,0,0,0,10.41-9.07l2.15-2.28,1.86-2.29c.66-.76,1.13-1.53,1.69-2.29l.81-1.15c.26-.38.45-.76.68-1.15.42-.76.94-1.52,1.28-2.29.43-.92.65-1.38,1.09-2.29a27.92,27.92,0,0,0,1.44-4.59,22.28,22.28,0,0,0,.42-9.11,26.09,26.09,0,0,0-3-9c-1.47-3-3.87-5.93-3.8-9.07C235.45,1240.21,252.32,1237.1,261.28,1234.25Z"/><path class="cls-4" d="M188.46,1311.63c-4.86,4.61-6.12,9.24-5.84,13.81a34.76,34.76,0,0,0,1.27,6.83c.73,2.75,1.1,4.12,1.84,6.86a23.94,23.94,0,0,1,.58,6.95,15.66,15.66,0,0,1-2.44,7,24.39,24.39,0,0,1-7.19,7,59.83,59.83,0,0,1-13.71,6.45c9.61-4.25,14.46-8.87,16.56-13.45a16.47,16.47,0,0,0,1.49-6.88,26.6,26.6,0,0,0-.85-6.84c-.46-2.29-1.11-4.57-1.52-6.87a23.77,23.77,0,0,1-.34-6.94C178.84,1320.91,181.41,1316.12,188.46,1311.63Z"/><path class="cls-4" d="M181.63,1375.52c5.64,3.37,8.79,7.07,9.64,10.87a9.56,9.56,0,0,1-.49,5.76,18.21,18.21,0,0,1-4,5.78,44.83,44.83,0,0,1-7.4,5.66c-3,1.84-6.09,3.66-9.31,5.46-6.32,3.61-12.44,7.22-15.58,11,.33-1.91,1.87-3.83,3.91-5.73a61.67,61.67,0,0,1,7.53-5.6c2.74-1.85,5.76-3.67,8.39-5.5a44.73,44.73,0,0,0,6.92-5.51,20.41,20.41,0,0,0,4.21-5.59,12.16,12.16,0,0,0,1.42-5.61C186.84,1382.81,185,1379.12,181.63,1375.52Z"/><path class="cls-4" d="M208.73,1265.83a14.81,14.81,0,0,1,6.12,5.21,6.48,6.48,0,0,1,.6,5.65,13,13,0,0,1-4.58,5.68,39.43,39.43,0,0,1-9.92,5.33,45.06,45.06,0,0,0,5.81-5.5,17.86,17.86,0,0,0,3.3-5.47,11.4,11.4,0,0,0,.57-5.46A17,17,0,0,0,208.73,1265.83Z"/><path class="cls-4" d="M228.51,1318.49a72,72,0,0,0-4.77,7.92c-.28.66-.56,1.31-.9,2l-.75,2c-.17.65-.43,1.31-.64,2s-.26,1.17-.44,2-.21,1.18-.34,2-.07,1.31-.15,2,0,1.18,0,2a18.25,18.25,0,0,1,.12,2,45.86,45.86,0,0,0,1.66,7.82,19.43,19.43,0,0,1-6-7.63c-.24-.66-.47-1.31-.65-2s-.22-1.19-.36-2,0-1.2,0-2,.13-1.2.23-2l.58-2c.28-.67.52-1.34.84-2s.69-1.2,1.16-2,.94-1.33,1.45-2A37.14,37.14,0,0,1,228.51,1318.49Z"/><path class="cls-4" d="M143.92,1382.4a24.59,24.59,0,0,1,4.51,4.4,26.76,26.76,0,0,1,2.94,4.49c.8,1.5,1.42,3.11.37,4.74a7.16,7.16,0,0,1-3.28,2.42,27.67,27.67,0,0,1-7.27,1.81c4.63-1.25,5.93-2.75,6.07-4.21s-.75-2.91-1.56-4.43a19.78,19.78,0,0,1-1.7-4.56A9.92,9.92,0,0,1,143.92,1382.4Z"/><path class="cls-3" d="M98.14,1433.7H-27.59Q27.21,1330.16,82,1226.62H196.31Q147.22,1330.17,98.14,1433.7Z"/><path class="cls-4" d="M146.54,1234.25c-7.42,2.87-23.34,6.8-25.06,17.22.24,3,2.53,5.87,4.16,8.87a24.59,24.59,0,0,1,2.84,9.1,22.19,22.19,0,0,1-1.21,9.26A30.78,30.78,0,0,1,122,1288a56.72,56.72,0,0,1-9.3,9.2,105.2,105.2,0,0,1-13.49,9,105.34,105.34,0,0,0,10.91-9.07l2.27-2.28,2-2.29c.7-.76,1.22-1.53,1.82-2.29l.87-1.15c.28-.38.49-.76.74-1.15a26.54,26.54,0,0,0,1.4-2.29l1.22-2.29a28.43,28.43,0,0,0,1.7-4.59,22.58,22.58,0,0,0,.92-9.11,25,25,0,0,0-2.47-9c-1.3-3-3.54-5.93-3.29-9.07C120.42,1240.19,137.23,1237.16,146.54,1234.25Z"/><path class="cls-4" d="M69.46,1311.63c-5.12,4.61-6.63,9.24-6.6,13.81a33.92,33.92,0,0,0,.89,6.83c.58,2.75.88,4.12,1.47,6.86a23.79,23.79,0,0,1,.19,6.95,16.41,16.41,0,0,1-2.83,7,26.39,26.39,0,0,1-7.57,7A64,64,0,0,1,41,1366.54c9.84-4.25,14.94-8.87,17.3-13.45a17.24,17.24,0,0,0,1.86-6.88,26.23,26.23,0,0,0-.47-6.84c-.34-2.29-.86-4.57-1.14-6.87a23.74,23.74,0,0,1,0-6.94C59.32,1320.91,62.16,1316.12,69.46,1311.63Z"/><path class="cls-4" d="M59.11,1375.52c5.46,3.37,8.4,7.07,9,10.87a9.66,9.66,0,0,1-.8,5.76,19.79,19.79,0,0,1-4.34,5.78,49.25,49.25,0,0,1-7.71,5.66c-3.07,1.84-6.3,3.66-9.62,5.46-6.51,3.61-12.83,7.22-16.18,11,.43-1.91,2.08-3.83,4.22-5.73a68,68,0,0,1,7.83-5.6c2.85-1.85,6-3.67,8.7-5.5a48.35,48.35,0,0,0,7.22-5.51,22.3,22.3,0,0,0,4.52-5.59,12.68,12.68,0,0,0,1.73-5.61C63.92,1382.81,62.3,1379.12,59.11,1375.52Z"/><path class="cls-4" d="M92.25,1265.83a13.62,13.62,0,0,1,5.83,5.21,6.42,6.42,0,0,1,.3,5.65,14.14,14.14,0,0,1-4.9,5.68,42.36,42.36,0,0,1-10.21,5.33,49,49,0,0,0,6.11-5.5,19.23,19.23,0,0,0,3.6-5.47,11.65,11.65,0,0,0,.87-5.46A16,16,0,0,0,92.25,1265.83Z"/><path class="cls-4" d="M109.13,1318.49a79.67,79.67,0,0,0-5.21,7.92c-.31.66-.63,1.31-1,2s-.51,1.18-.86,2-.5,1.31-.74,2l-.55,2-.45,2c-.09.66-.14,1.31-.26,2s-.09,1.18-.14,2,0,1.3,0,2a44.4,44.4,0,0,0,1.22,7.82,17.94,17.94,0,0,1-5.58-7.63c-.21-.66-.4-1.31-.55-2s-.15-1.19-.24-2,0-1.2.09-2,.2-1.2.34-2l.7-2c.31-.67.59-1.34.94-2l1.27-2c.48-.67,1-1.33,1.57-2A40.14,40.14,0,0,1,109.13,1318.49Z"/><path class="cls-4" d="M21,1382.4a22.75,22.75,0,0,1,4.27,4.4,24.93,24.93,0,0,1,2.69,4.49c.72,1.5,1.25,3.11.11,4.74a7.82,7.82,0,0,1-3.41,2.42,28.76,28.76,0,0,1-7.37,1.81c4.7-1.25,6.08-2.75,6.3-4.21s-.59-2.91-1.31-4.43a18.89,18.89,0,0,1-1.46-4.56A10.09,10.09,0,0,1,21,1382.4Z"/><path class="cls-5" d="M771,466.13l-11.36-78.5c-.86-6-15.48-91.27-17.94-96.62L754.62,8.2A14.17,14.17,0,0,0,740.56-6H239A14.18,14.18,0,0,0,224.9,8.2l29.3,262.69L139.85,1443.55l86.23-2.38,48-415.34C310.56,995.9,457.62,577,465.15,603.4c71.61,11.21,237.17,420.45,236.73,452L753.45,1453l85.55-3.55Z"/><ellipse class="cls-6" cx="489.76" cy="296.92" rx="26.95" ry="27.22"/><ellipse class="cls-7" cx="490.35" cy="297.51" rx="12.31" ry="12.42"/><path class="cls-7" d="M498,585.65c-7.62,0-14.58,3.43-19.93,9.11-5.34-5.68-12.3-9.11-19.92-9.11-16.83,0-30.47,16.73-30.47,37.37s13.64,37.37,30.47,37.37c7.62,0,14.58-3.43,19.92-9.1,5.35,5.67,12.31,9.1,19.93,9.1,16.82,0,30.47-16.73,30.47-37.37S514.79,585.65,498,585.65Z"/><path class="cls-5" d="M452.26,585.65V707.53h0c.32,13.77,12,24.84,26.35,24.84s26-11.07,26.35-24.84h0V585.65Z"/><ellipse class="cls-8" cx="437" cy="575.58" rx="25" ry="25.24"/><ellipse class="cls-9" cx="462.5" cy="568.01" rx="21.5" ry="21.71"/><ellipse class="cls-8" cx="493.5" cy="574.07" rx="21.5" ry="21.71"/><ellipse class="cls-10" cx="516.5" cy="576.09" rx="23.5" ry="23.73"/><polygon class="cls-11" points="943 1226 945 1434 1231 1434 945 1434 943 1226 1231 1226 943 1226"/></svg>
