<svg id="Layer_1" data-name="Layer 1" xmlns="http://www.w3.org/2000/svg" width="1200" height="200" viewBox="0 0 1200 200"><defs><style>.cls-1,.cls-4{fill:#1f2533;}.cls-1{opacity:0.5;}.cls-2{fill:#fff;}.cls-3{fill:#ff9207;}.cls-5{fill:none;}</style></defs><title>Toggle_sprite copy</title><path class="cls-1" d="M190,99.74a20.22,20.22,0,0,0-18.27-19.88v-.12H29.19v0a20,20,0,0,0,0,39.91v0H171.73v-.13A20.22,20.22,0,0,0,190,99.74Z"/><circle class="cls-2" cx="29.5" cy="99.74" r="17.5"/><path class="cls-3" d="M62.63,104a4.44,4.44,0,0,0,2.21.66c1.21,0,1.78-.61,1.78-1.37s-.47-1.23-1.71-1.69c-1.65-.59-2.43-1.5-2.43-2.6,0-1.48,1.2-2.7,3.17-2.7a4.67,4.67,0,0,1,2.27.57l-.42,1.22a3.57,3.57,0,0,0-1.88-.53c-1,0-1.54.57-1.54,1.25s.55,1.1,1.75,1.56c1.59.61,2.41,1.4,2.41,2.77,0,1.62-1.26,2.76-3.44,2.76a5.2,5.2,0,0,1-2.58-.63Z"/><path class="cls-3" d="M70.39,92.18h1.67v13.49H70.39Z"/><path class="cls-3" d="M76.73,93.89a1,1,0,0,1-1.06,1,1,1,0,0,1-1-1,1,1,0,0,1,1-1A1,1,0,0,1,76.73,93.89Zm-1.86,11.78v-9.2h1.67v9.2Z"/><path class="cls-3" d="M87.26,92.18v11.11c0,.82,0,1.75.07,2.38h-1.5l-.07-1.6h0a3.4,3.4,0,0,1-3.14,1.81c-2.22,0-3.93-1.88-3.93-4.68,0-3.06,1.88-4.94,4.12-4.94a3.09,3.09,0,0,1,2.78,1.41h0V92.18Zm-1.68,8a2.82,2.82,0,0,0-.07-.7,2.47,2.47,0,0,0-2.41-1.94c-1.73,0-2.76,1.52-2.76,3.56,0,1.86.91,3.4,2.72,3.4a2.51,2.51,0,0,0,2.45-2,2.75,2.75,0,0,0,.07-.72Z"/><path class="cls-3" d="M91,101.37a3,3,0,0,0,3.16,3.2,5.94,5.94,0,0,0,2.54-.48l.29,1.2a7.57,7.57,0,0,1-3.06.57,4.27,4.27,0,0,1-4.52-4.64c0-2.77,1.63-5,4.31-5,3,0,3.8,2.64,3.8,4.33a5.88,5.88,0,0,1-.06.78Zm4.9-1.19c0-1.07-.43-2.72-2.31-2.72A2.78,2.78,0,0,0,91,100.18Z"/><path class="cls-3" d="M105.59,93.83v2.64H108v1.28h-2.4v5c0,1.14.33,1.79,1.26,1.79a4,4,0,0,0,1-.11l.08,1.25a4.11,4.11,0,0,1-1.48.23,2.32,2.32,0,0,1-1.81-.71,3.42,3.42,0,0,1-.64-2.39v-5h-1.43V96.47H104v-2.2Z"/><path class="cls-3" d="M118.07,101a4.5,4.5,0,0,1-4.57,4.89,4.38,4.38,0,0,1-4.41-4.73c0-3.08,2-4.89,4.56-4.89S118.07,98.18,118.07,101Zm-7.29.1c0,2,1.16,3.53,2.79,3.53s2.8-1.5,2.8-3.57c0-1.56-.78-3.53-2.76-3.53S110.78,99.34,110.78,101.09Z"/><path class="cls-3" d="M124,104a4.44,4.44,0,0,0,2.21.66c1.21,0,1.78-.61,1.78-1.37s-.47-1.23-1.71-1.69c-1.65-.59-2.43-1.5-2.43-2.6,0-1.48,1.2-2.7,3.18-2.7a4.65,4.65,0,0,1,2.26.57l-.42,1.22a3.57,3.57,0,0,0-1.88-.53c-1,0-1.54.57-1.54,1.25s.55,1.1,1.75,1.56c1.59.61,2.41,1.4,2.41,2.77,0,1.62-1.25,2.76-3.44,2.76a5.2,5.2,0,0,1-2.58-.63Z"/><path class="cls-3" d="M133.75,93.83v2.64h2.39v1.28h-2.39v5c0,1.14.32,1.79,1.25,1.79a4.09,4.09,0,0,0,1-.11l.08,1.25a4.15,4.15,0,0,1-1.48.23,2.32,2.32,0,0,1-1.81-.71,3.42,3.42,0,0,1-.64-2.39v-5h-1.43V96.47h1.43v-2.2Z"/><path class="cls-3" d="M143.12,105.67l-.14-1.16h0a3.44,3.44,0,0,1-2.81,1.37,2.62,2.62,0,0,1-2.82-2.64c0-2.23,2-3.44,5.53-3.42v-.19a1.9,1.9,0,0,0-2.09-2.13,4.54,4.54,0,0,0-2.39.68l-.38-1.1a5.74,5.74,0,0,1,3-.82c2.81,0,3.49,1.92,3.49,3.76v3.44a12.39,12.39,0,0,0,.16,2.21Zm-.25-4.7c-1.82,0-3.89.29-3.89,2.07a1.48,1.48,0,0,0,1.57,1.6,2.3,2.3,0,0,0,2.23-1.54,2,2,0,0,0,.09-.53Z"/><path class="cls-3" d="M147.18,99.34c0-1.08,0-2-.07-2.87h1.46l.06,1.81h.07a2.77,2.77,0,0,1,2.55-2,1.68,1.68,0,0,1,.47.06V97.9a2.37,2.37,0,0,0-.57-.06,2.35,2.35,0,0,0-2.24,2.15,4.43,4.43,0,0,0-.07.78v4.9h-1.66Z"/><path class="cls-3" d="M155.87,93.83v2.64h2.39v1.28h-2.39v5c0,1.14.32,1.79,1.25,1.79a4.09,4.09,0,0,0,1-.11l.07,1.25a4.11,4.11,0,0,1-1.48.23,2.3,2.3,0,0,1-1.8-.71,3.37,3.37,0,0,1-.65-2.39v-5h-1.42V96.47h1.42v-2.2Z"/><polygon class="cls-4" points="41.5 99.84 32.03 105.26 22.55 110.68 22.6 99.77 22.64 88.86 32.07 94.35 41.5 99.84"/><rect class="cls-5" y="-0.26" width="200" height="200"/><path class="cls-1" d="M390,99.74a20.22,20.22,0,0,0-18.27-19.88v-.12H229.19v0a20,20,0,0,0,0,39.91v0H371.73v-.13A20.22,20.22,0,0,0,390,99.74Z"/><path class="cls-3" d="M262.63,104a4.44,4.44,0,0,0,2.21.66c1.21,0,1.78-.61,1.78-1.37s-.47-1.23-1.71-1.69c-1.65-.59-2.43-1.5-2.43-2.6,0-1.48,1.2-2.7,3.17-2.7a4.67,4.67,0,0,1,2.27.57l-.42,1.22a3.57,3.57,0,0,0-1.88-.53c-1,0-1.54.57-1.54,1.25s.55,1.1,1.75,1.56c1.59.61,2.41,1.4,2.41,2.77,0,1.62-1.26,2.76-3.44,2.76a5.2,5.2,0,0,1-2.58-.63Z"/><path class="cls-3" d="M270.39,92.18h1.67v13.49h-1.67Z"/><path class="cls-3" d="M276.73,93.89a1,1,0,0,1-1.06,1,1,1,0,0,1-1-1,1,1,0,0,1,1-1A1,1,0,0,1,276.73,93.89Zm-1.86,11.78v-9.2h1.67v9.2Z"/><path class="cls-3" d="M287.26,92.18v11.11c0,.82,0,1.75.07,2.38h-1.5l-.07-1.6h0a3.4,3.4,0,0,1-3.14,1.81c-2.22,0-3.93-1.88-3.93-4.68,0-3.06,1.88-4.94,4.12-4.94a3.09,3.09,0,0,1,2.78,1.41h0V92.18Zm-1.68,8a2.82,2.82,0,0,0-.07-.7,2.47,2.47,0,0,0-2.41-1.94c-1.73,0-2.76,1.52-2.76,3.56,0,1.86.91,3.4,2.72,3.4a2.51,2.51,0,0,0,2.45-2,2.75,2.75,0,0,0,.07-.72Z"/><path class="cls-3" d="M291,101.37a3,3,0,0,0,3.16,3.2,5.94,5.94,0,0,0,2.54-.48l.29,1.2a7.57,7.57,0,0,1-3.06.57,4.27,4.27,0,0,1-4.52-4.64c0-2.77,1.63-5,4.31-5,3,0,3.8,2.64,3.8,4.33a5.88,5.88,0,0,1-.06.78Zm4.9-1.19c0-1.07-.43-2.72-2.31-2.72a2.78,2.78,0,0,0-2.57,2.72Z"/><path class="cls-3" d="M305.59,93.83v2.64H308v1.28h-2.4v5c0,1.14.33,1.79,1.26,1.79a4,4,0,0,0,1-.11l.08,1.25a4.11,4.11,0,0,1-1.48.23,2.32,2.32,0,0,1-1.81-.71,3.42,3.42,0,0,1-.64-2.39v-5h-1.43V96.47H304v-2.2Z"/><path class="cls-3" d="M318.07,101a4.5,4.5,0,0,1-4.57,4.89,4.38,4.38,0,0,1-4.41-4.73c0-3.08,2-4.89,4.56-4.89S318.07,98.18,318.07,101Zm-7.29.1c0,2,1.16,3.53,2.79,3.53s2.8-1.5,2.8-3.57c0-1.56-.78-3.53-2.76-3.53S310.78,99.34,310.78,101.09Z"/><path class="cls-3" d="M324,104a4.44,4.44,0,0,0,2.21.66c1.21,0,1.78-.61,1.78-1.37s-.47-1.23-1.71-1.69c-1.65-.59-2.43-1.5-2.43-2.6,0-1.48,1.2-2.7,3.18-2.7a4.65,4.65,0,0,1,2.26.57l-.42,1.22a3.57,3.57,0,0,0-1.88-.53c-1,0-1.54.57-1.54,1.25s.55,1.1,1.75,1.56c1.59.61,2.41,1.4,2.41,2.77,0,1.62-1.25,2.76-3.44,2.76a5.2,5.2,0,0,1-2.58-.63Z"/><path class="cls-3" d="M333.75,93.83v2.64h2.39v1.28h-2.39v5c0,1.14.32,1.79,1.25,1.79a4.09,4.09,0,0,0,1-.11l.08,1.25a4.15,4.15,0,0,1-1.48.23,2.32,2.32,0,0,1-1.81-.71,3.42,3.42,0,0,1-.64-2.39v-5h-1.43V96.47h1.43v-2.2Z"/><path class="cls-3" d="M343.12,105.67l-.14-1.16h-.05a3.44,3.44,0,0,1-2.81,1.37,2.62,2.62,0,0,1-2.82-2.64c0-2.23,2-3.44,5.53-3.42v-.19a1.9,1.9,0,0,0-2.09-2.13,4.54,4.54,0,0,0-2.39.68l-.38-1.1a5.74,5.74,0,0,1,3-.82c2.81,0,3.49,1.92,3.49,3.76v3.44a12.39,12.39,0,0,0,.16,2.21Zm-.25-4.7c-1.82,0-3.89.29-3.89,2.07a1.48,1.48,0,0,0,1.57,1.6,2.3,2.3,0,0,0,2.23-1.54,2,2,0,0,0,.09-.53Z"/><path class="cls-3" d="M347.18,99.34c0-1.08,0-2-.07-2.87h1.46l.06,1.81h.07a2.77,2.77,0,0,1,2.55-2,1.68,1.68,0,0,1,.47.06V97.9a2.37,2.37,0,0,0-.57-.06,2.35,2.35,0,0,0-2.24,2.15,4.43,4.43,0,0,0-.07.78v4.9h-1.66Z"/><path class="cls-3" d="M355.87,93.83v2.64h2.39v1.28h-2.39v5c0,1.14.32,1.79,1.25,1.79a4.09,4.09,0,0,0,1-.11l.07,1.25a4.11,4.11,0,0,1-1.48.23,2.3,2.3,0,0,1-1.8-.71,3.37,3.37,0,0,1-.65-2.39v-5h-1.42V96.47h1.42v-2.2Z"/><circle class="cls-2" cx="250.5" cy="99.74" r="17.5"/><polygon class="cls-4" points="262.5 99.84 253.03 105.26 243.56 110.68 243.6 99.77 243.64 88.86 253.07 94.35 262.5 99.84"/><rect class="cls-5" x="200" y="-0.26" width="200" height="200"/><path class="cls-1" d="M590,99.74a20.22,20.22,0,0,0-18.27-19.88v-.12H429.19v0a20,20,0,0,0,0,39.91v0H571.73v-.13A20.22,20.22,0,0,0,590,99.74Z"/><path class="cls-3" d="M462.63,104a4.44,4.44,0,0,0,2.21.66c1.21,0,1.78-.61,1.78-1.37s-.47-1.23-1.71-1.69c-1.65-.59-2.43-1.5-2.43-2.6,0-1.48,1.2-2.7,3.17-2.7a4.67,4.67,0,0,1,2.27.57l-.42,1.22a3.57,3.57,0,0,0-1.88-.53c-1,0-1.54.57-1.54,1.25s.55,1.1,1.75,1.56c1.59.61,2.41,1.4,2.41,2.77,0,1.62-1.26,2.76-3.44,2.76a5.2,5.2,0,0,1-2.58-.63Z"/><path class="cls-3" d="M470.39,92.18h1.67v13.49h-1.67Z"/><path class="cls-3" d="M476.73,93.89a1,1,0,0,1-1.06,1,1,1,0,0,1-1-1,1,1,0,0,1,1-1A1,1,0,0,1,476.73,93.89Zm-1.86,11.78v-9.2h1.67v9.2Z"/><path class="cls-3" d="M487.26,92.18v11.11c0,.82,0,1.75.07,2.38h-1.5l-.07-1.6h0a3.4,3.4,0,0,1-3.14,1.81c-2.22,0-3.93-1.88-3.93-4.68,0-3.06,1.88-4.94,4.12-4.94a3.09,3.09,0,0,1,2.78,1.41h0V92.18Zm-1.68,8a2.82,2.82,0,0,0-.07-.7,2.47,2.47,0,0,0-2.41-1.94c-1.73,0-2.76,1.52-2.76,3.56,0,1.86.91,3.4,2.72,3.4a2.51,2.51,0,0,0,2.45-2,2.75,2.75,0,0,0,.07-.72Z"/><path class="cls-3" d="M491,101.37a3,3,0,0,0,3.16,3.2,5.94,5.94,0,0,0,2.54-.48l.29,1.2a7.57,7.57,0,0,1-3.06.57,4.27,4.27,0,0,1-4.52-4.64c0-2.77,1.63-5,4.31-5,3,0,3.8,2.64,3.8,4.33a5.88,5.88,0,0,1-.06.78Zm4.9-1.19c0-1.07-.43-2.72-2.31-2.72a2.78,2.78,0,0,0-2.57,2.72Z"/><path class="cls-3" d="M505.59,93.83v2.64H508v1.28h-2.4v5c0,1.14.33,1.79,1.26,1.79a4,4,0,0,0,1-.11l.08,1.25a4.11,4.11,0,0,1-1.48.23,2.32,2.32,0,0,1-1.81-.71,3.42,3.42,0,0,1-.64-2.39v-5h-1.43V96.47H504v-2.2Z"/><path class="cls-3" d="M518.07,101a4.5,4.5,0,0,1-4.57,4.89,4.38,4.38,0,0,1-4.41-4.73c0-3.08,2-4.89,4.56-4.89S518.07,98.18,518.07,101Zm-7.29.1c0,2,1.16,3.53,2.79,3.53s2.8-1.5,2.8-3.57c0-1.56-.78-3.53-2.76-3.53S510.78,99.34,510.78,101.09Z"/><path class="cls-3" d="M524,104a4.44,4.44,0,0,0,2.21.66c1.21,0,1.78-.61,1.78-1.37s-.47-1.23-1.71-1.69c-1.65-.59-2.43-1.5-2.43-2.6,0-1.48,1.2-2.7,3.18-2.7a4.65,4.65,0,0,1,2.26.57l-.42,1.22a3.57,3.57,0,0,0-1.88-.53c-1,0-1.54.57-1.54,1.25s.55,1.1,1.75,1.56c1.59.61,2.41,1.4,2.41,2.77,0,1.62-1.25,2.76-3.44,2.76a5.2,5.2,0,0,1-2.58-.63Z"/><path class="cls-3" d="M533.75,93.83v2.64h2.39v1.28h-2.39v5c0,1.14.32,1.79,1.25,1.79a4.09,4.09,0,0,0,1-.11l.08,1.25a4.15,4.15,0,0,1-1.48.23,2.32,2.32,0,0,1-1.81-.71,3.42,3.42,0,0,1-.64-2.39v-5h-1.43V96.47h1.43v-2.2Z"/><path class="cls-3" d="M543.12,105.67l-.14-1.16h-.05a3.44,3.44,0,0,1-2.81,1.37,2.62,2.62,0,0,1-2.82-2.64c0-2.23,2-3.44,5.53-3.42v-.19a1.9,1.9,0,0,0-2.09-2.13,4.54,4.54,0,0,0-2.39.68l-.38-1.1a5.74,5.74,0,0,1,3-.82c2.81,0,3.49,1.92,3.49,3.76v3.44a12.39,12.39,0,0,0,.16,2.21Zm-.25-4.7c-1.82,0-3.89.29-3.89,2.07a1.48,1.48,0,0,0,1.57,1.6,2.3,2.3,0,0,0,2.23-1.54,2,2,0,0,0,.09-.53Z"/><path class="cls-3" d="M547.18,99.34c0-1.08,0-2-.07-2.87h1.46l.06,1.81h.07a2.77,2.77,0,0,1,2.55-2,1.68,1.68,0,0,1,.47.06V97.9a2.37,2.37,0,0,0-.57-.06,2.35,2.35,0,0,0-2.24,2.15,4.43,4.43,0,0,0-.07.78v4.9h-1.66Z"/><path class="cls-3" d="M555.87,93.83v2.64h2.39v1.28h-2.39v5c0,1.14.32,1.79,1.25,1.79a4.09,4.09,0,0,0,1-.11l.07,1.25a4.11,4.11,0,0,1-1.48.23,2.3,2.3,0,0,1-1.8-.71,3.37,3.37,0,0,1-.65-2.39v-5h-1.42V96.47h1.42v-2.2Z"/><circle class="cls-2" cx="479.5" cy="99.74" r="17.5"/><polygon class="cls-4" points="491.5 99.84 482.03 105.26 472.56 110.68 472.6 99.77 472.64 88.86 482.07 94.35 491.5 99.84"/><rect class="cls-5" x="400" y="-0.26" width="200" height="200"/><path class="cls-1" d="M790,99.74a20.22,20.22,0,0,0-18.27-19.88v-.12H629.19v0a20,20,0,0,0,0,39.91v0H771.73v-.13A20.22,20.22,0,0,0,790,99.74Z"/><path class="cls-1" d="M662.16,104a4.4,4.4,0,0,0,2.2.66c1.22,0,1.79-.61,1.79-1.37s-.48-1.23-1.71-1.69c-1.65-.59-2.43-1.5-2.43-2.6,0-1.48,1.19-2.7,3.17-2.7a4.62,4.62,0,0,1,2.26.57L667,98.05a3.54,3.54,0,0,0-1.88-.53c-1,0-1.54.57-1.54,1.25s.55,1.1,1.75,1.56c1.6.61,2.41,1.4,2.41,2.77,0,1.62-1.25,2.76-3.44,2.76a5.26,5.26,0,0,1-2.58-.63Z"/><path class="cls-1" d="M669.91,92.18h1.67v13.49h-1.67Z"/><path class="cls-1" d="M676.26,93.89a1,1,0,0,1-2.07,0,1,1,0,0,1,1-1A1,1,0,0,1,676.26,93.89Zm-1.87,11.78v-9.2h1.68v9.2Z"/><path class="cls-1" d="M686.78,92.18v11.11c0,.82,0,1.75.08,2.38h-1.5l-.08-1.6h0a3.39,3.39,0,0,1-3.13,1.81c-2.22,0-3.93-1.88-3.93-4.68,0-3.06,1.88-4.94,4.12-4.94a3.08,3.08,0,0,1,2.77,1.41h0V92.18Zm-1.67,8a2.84,2.84,0,0,0-.08-.7,2.46,2.46,0,0,0-2.41-1.94c-1.73,0-2.75,1.52-2.75,3.56,0,1.86.91,3.4,2.71,3.4a2.51,2.51,0,0,0,2.45-2,2.74,2.74,0,0,0,.08-.72Z"/><path class="cls-1" d="M690.49,101.37a3,3,0,0,0,3.15,3.2,6,6,0,0,0,2.55-.48l.28,1.2a7.53,7.53,0,0,1-3.06.57,4.27,4.27,0,0,1-4.52-4.64c0-2.77,1.63-5,4.31-5,3,0,3.8,2.64,3.8,4.33a6.29,6.29,0,0,1,0,.78Zm4.9-1.19c0-1.07-.44-2.72-2.32-2.72a2.77,2.77,0,0,0-2.56,2.72Z"/><path class="cls-3" d="M705.12,93.83v2.64h2.39v1.28h-2.39v5c0,1.14.32,1.79,1.25,1.79a4.09,4.09,0,0,0,1-.11l.08,1.25a4.22,4.22,0,0,1-1.49.23,2.3,2.3,0,0,1-1.8-.71,3.37,3.37,0,0,1-.65-2.39v-5h-1.42V96.47h1.42v-2.2Z"/><path class="cls-3" d="M717.6,101a4.5,4.5,0,0,1-4.58,4.89,4.38,4.38,0,0,1-4.41-4.73c0-3.08,2-4.89,4.56-4.89S717.6,98.18,717.6,101Zm-7.3.1c0,2,1.16,3.53,2.8,3.53s2.79-1.5,2.79-3.57c0-1.56-.78-3.53-2.76-3.53S710.3,99.34,710.3,101.09Z"/><path class="cls-3" d="M723.51,104a4.4,4.4,0,0,0,2.2.66c1.22,0,1.79-.61,1.79-1.37s-.48-1.23-1.71-1.69c-1.65-.59-2.43-1.5-2.43-2.6,0-1.48,1.19-2.7,3.17-2.7a4.62,4.62,0,0,1,2.26.57l-.42,1.22a3.54,3.54,0,0,0-1.88-.53c-1,0-1.54.57-1.54,1.25s.55,1.1,1.75,1.56c1.6.61,2.41,1.4,2.41,2.77,0,1.62-1.25,2.76-3.43,2.76a5.27,5.27,0,0,1-2.59-.63Z"/><path class="cls-3" d="M733.27,93.83v2.64h2.4v1.28h-2.4v5c0,1.14.33,1.79,1.26,1.79a4.09,4.09,0,0,0,1-.11l.07,1.25a4.11,4.11,0,0,1-1.48.23,2.3,2.3,0,0,1-1.8-.71,3.37,3.37,0,0,1-.65-2.39v-5h-1.42V96.47h1.42v-2.2Z"/><path class="cls-3" d="M742.64,105.67l-.13-1.16h-.06a3.42,3.42,0,0,1-2.81,1.37,2.62,2.62,0,0,1-2.81-2.64c0-2.23,2-3.44,5.53-3.42v-.19a1.9,1.9,0,0,0-2.09-2.13,4.58,4.58,0,0,0-2.4.68l-.38-1.1a5.74,5.74,0,0,1,3-.82c2.82,0,3.5,1.92,3.5,3.76v3.44a13.47,13.47,0,0,0,.15,2.21Zm-.25-4.7c-1.82,0-3.89.29-3.89,2.07a1.48,1.48,0,0,0,1.58,1.6,2.29,2.29,0,0,0,2.22-1.54,1.64,1.64,0,0,0,.09-.53Z"/><path class="cls-3" d="M746.71,99.34c0-1.08,0-2-.08-2.87h1.46l.06,1.81h.08a2.75,2.75,0,0,1,2.54-2,1.75,1.75,0,0,1,.48.06V97.9a2.37,2.37,0,0,0-.57-.06,2.34,2.34,0,0,0-2.24,2.15,4.36,4.36,0,0,0-.08.78v4.9h-1.65Z"/><path class="cls-3" d="M755.39,93.83v2.64h2.39v1.28h-2.39v5c0,1.14.32,1.79,1.25,1.79a4.09,4.09,0,0,0,1-.11l.08,1.25a4.15,4.15,0,0,1-1.48.23,2.32,2.32,0,0,1-1.81-.71,3.42,3.42,0,0,1-.64-2.39v-5h-1.43V96.47h1.43v-2.2Z"/><circle class="cls-2" cx="700.5" cy="99.74" r="17.5"/><polygon class="cls-4" points="712.5 99.84 703.03 105.26 693.55 110.68 693.6 99.77 693.64 88.86 703.07 94.35 712.5 99.84"/><rect class="cls-5" x="600" y="-0.26" width="200" height="200"/><path class="cls-1" d="M990,99.74a20.22,20.22,0,0,0-18.27-19.88v-.12H829.19v0a20,20,0,0,0,0,39.91v0H971.73v-.13A20.22,20.22,0,0,0,990,99.74Z"/><path class="cls-1" d="M862.16,104a4.4,4.4,0,0,0,2.2.66c1.22,0,1.79-.61,1.79-1.37s-.48-1.23-1.71-1.69c-1.65-.59-2.43-1.5-2.43-2.6,0-1.48,1.19-2.7,3.17-2.7a4.62,4.62,0,0,1,2.26.57L867,98.05a3.54,3.54,0,0,0-1.88-.53c-1,0-1.54.57-1.54,1.25s.55,1.1,1.75,1.56c1.6.61,2.41,1.4,2.41,2.77,0,1.62-1.25,2.76-3.44,2.76a5.26,5.26,0,0,1-2.58-.63Z"/><path class="cls-1" d="M869.91,92.18h1.67v13.49h-1.67Z"/><path class="cls-1" d="M876.26,93.89a1,1,0,0,1-2.07,0,1,1,0,0,1,1-1A1,1,0,0,1,876.26,93.89Zm-1.87,11.78v-9.2h1.68v9.2Z"/><path class="cls-1" d="M886.78,92.18v11.11c0,.82,0,1.75.08,2.38h-1.5l-.08-1.6h0a3.39,3.39,0,0,1-3.13,1.81c-2.23,0-3.93-1.88-3.93-4.68,0-3.06,1.88-4.94,4.12-4.94a3.08,3.08,0,0,1,2.77,1.41h0V92.18Zm-1.67,8a2.84,2.84,0,0,0-.08-.7,2.45,2.45,0,0,0-2.41-1.94c-1.73,0-2.75,1.52-2.75,3.56,0,1.86.91,3.4,2.71,3.4a2.51,2.51,0,0,0,2.45-2,2.74,2.74,0,0,0,.08-.72Z"/><path class="cls-1" d="M890.49,101.37a3,3,0,0,0,3.15,3.2,6,6,0,0,0,2.55-.48l.28,1.2a7.53,7.53,0,0,1-3.06.57,4.27,4.27,0,0,1-4.52-4.64c0-2.77,1.64-5,4.31-5,3,0,3.8,2.64,3.8,4.33,0,.35,0,.61,0,.78Zm4.9-1.19c0-1.07-.44-2.72-2.32-2.72a2.77,2.77,0,0,0-2.56,2.72Z"/><path class="cls-1" d="M905.12,93.83v2.64h2.39v1.28h-2.39v5c0,1.14.32,1.79,1.25,1.79a4.09,4.09,0,0,0,1-.11l.08,1.25a4.22,4.22,0,0,1-1.49.23,2.3,2.3,0,0,1-1.8-.71,3.37,3.37,0,0,1-.65-2.39v-5h-1.42V96.47h1.42v-2.2Z"/><path class="cls-1" d="M917.6,101a4.5,4.5,0,0,1-4.58,4.89,4.38,4.38,0,0,1-4.41-4.73c0-3.08,2-4.89,4.56-4.89S917.6,98.18,917.6,101Zm-7.3.1c0,2,1.16,3.53,2.8,3.53s2.79-1.5,2.79-3.57c0-1.56-.78-3.53-2.76-3.53S910.3,99.34,910.3,101.09Z"/><path class="cls-3" d="M923.51,104a4.4,4.4,0,0,0,2.2.66c1.22,0,1.79-.61,1.79-1.37s-.48-1.23-1.71-1.69c-1.65-.59-2.43-1.5-2.43-2.6,0-1.48,1.19-2.7,3.17-2.7a4.62,4.62,0,0,1,2.26.57l-.42,1.22a3.54,3.54,0,0,0-1.88-.53c-1,0-1.54.57-1.54,1.25s.55,1.1,1.75,1.56c1.6.61,2.41,1.4,2.41,2.77,0,1.62-1.25,2.76-3.43,2.76a5.27,5.27,0,0,1-2.59-.63Z"/><path class="cls-3" d="M933.28,93.83v2.64h2.39v1.28h-2.39v5c0,1.14.32,1.79,1.25,1.79a4.09,4.09,0,0,0,1-.11l.07,1.25a4.11,4.11,0,0,1-1.48.23,2.3,2.3,0,0,1-1.8-.71,3.37,3.37,0,0,1-.65-2.39v-5h-1.42V96.47h1.42v-2.2Z"/><path class="cls-3" d="M942.64,105.67l-.13-1.16h-.06a3.42,3.42,0,0,1-2.81,1.37,2.62,2.62,0,0,1-2.81-2.64c0-2.23,2-3.44,5.53-3.42v-.19a1.9,1.9,0,0,0-2.09-2.13,4.58,4.58,0,0,0-2.4.68l-.38-1.1a5.76,5.76,0,0,1,3-.82c2.82,0,3.5,1.92,3.5,3.76v3.44a13.47,13.47,0,0,0,.15,2.21Zm-.25-4.7c-1.82,0-3.89.29-3.89,2.07a1.48,1.48,0,0,0,1.58,1.6,2.29,2.29,0,0,0,2.22-1.54,1.64,1.64,0,0,0,.09-.53Z"/><path class="cls-3" d="M946.71,99.34c0-1.08,0-2-.08-2.87h1.46l.06,1.81h.08a2.75,2.75,0,0,1,2.54-2,1.75,1.75,0,0,1,.48.06V97.9a2.37,2.37,0,0,0-.57-.06,2.34,2.34,0,0,0-2.24,2.15,4.36,4.36,0,0,0-.08.78v4.9h-1.65Z"/><path class="cls-3" d="M955.39,93.83v2.64h2.39v1.28h-2.39v5c0,1.14.32,1.79,1.25,1.79a4.09,4.09,0,0,0,1-.11l.08,1.25a4.15,4.15,0,0,1-1.48.23,2.32,2.32,0,0,1-1.81-.71,3.42,3.42,0,0,1-.64-2.39v-5h-1.43V96.47h1.43v-2.2Z"/><circle class="cls-2" cx="928.5" cy="99.74" r="17.5"/><polygon class="cls-4" points="940.5 99.84 931.03 105.26 921.55 110.68 921.6 99.77 921.64 88.86 931.07 94.35 940.5 99.84"/><rect class="cls-5" x="800" y="-0.26" width="200" height="200"/><path class="cls-1" d="M1190,99.74a20.22,20.22,0,0,0-18.27-19.88v-.12H1029.19v0a20,20,0,0,0,0,39.91v0h142.54v-.13A20.22,20.22,0,0,0,1190,99.74Z"/><path class="cls-1" d="M1062.16,104a4.4,4.4,0,0,0,2.2.66c1.22,0,1.79-.61,1.79-1.37s-.48-1.23-1.71-1.69c-1.65-.59-2.43-1.5-2.43-2.6,0-1.48,1.19-2.7,3.17-2.7a4.62,4.62,0,0,1,2.26.57l-.42,1.22a3.54,3.54,0,0,0-1.88-.53c-1,0-1.54.57-1.54,1.25s.55,1.1,1.75,1.56c1.6.61,2.41,1.4,2.41,2.77,0,1.62-1.25,2.76-3.44,2.76a5.26,5.26,0,0,1-2.58-.63Z"/><path class="cls-1" d="M1069.91,92.18h1.67v13.49h-1.67Z"/><path class="cls-1" d="M1076.26,93.89a1,1,0,0,1-2.07,0,1,1,0,0,1,1-1A1,1,0,0,1,1076.26,93.89Zm-1.87,11.78v-9.2h1.68v9.2Z"/><path class="cls-1" d="M1086.78,92.18v11.11c0,.82,0,1.75.08,2.38h-1.5l-.08-1.6h0a3.39,3.39,0,0,1-3.13,1.81c-2.23,0-3.93-1.88-3.93-4.68,0-3.06,1.88-4.94,4.12-4.94a3.08,3.08,0,0,1,2.77,1.41h0V92.18Zm-1.67,8a2.84,2.84,0,0,0-.08-.7,2.45,2.45,0,0,0-2.41-1.94c-1.73,0-2.75,1.52-2.75,3.56,0,1.86.91,3.4,2.71,3.4a2.51,2.51,0,0,0,2.45-2,2.74,2.74,0,0,0,.08-.72Z"/><path class="cls-1" d="M1090.49,101.37a3,3,0,0,0,3.15,3.2,6,6,0,0,0,2.55-.48l.28,1.2a7.53,7.53,0,0,1-3.06.57,4.27,4.27,0,0,1-4.52-4.64c0-2.77,1.64-5,4.31-5,3,0,3.8,2.64,3.8,4.33,0,.35,0,.61,0,.78Zm4.9-1.19c0-1.07-.44-2.72-2.32-2.72a2.77,2.77,0,0,0-2.56,2.72Z"/><path class="cls-1" d="M1105.12,93.83v2.64h2.39v1.28h-2.39v5c0,1.14.32,1.79,1.25,1.79a4.09,4.09,0,0,0,1-.11l.08,1.25a4.22,4.22,0,0,1-1.49.23,2.3,2.3,0,0,1-1.8-.71,3.37,3.37,0,0,1-.65-2.39v-5h-1.42V96.47h1.42v-2.2Z"/><path class="cls-1" d="M1117.6,101a4.5,4.5,0,0,1-4.58,4.89,4.38,4.38,0,0,1-4.41-4.73c0-3.08,2-4.89,4.56-4.89S1117.6,98.18,1117.6,101Zm-7.3.1c0,2,1.16,3.53,2.8,3.53s2.79-1.5,2.79-3.57c0-1.56-.78-3.53-2.76-3.53S1110.3,99.34,1110.3,101.09Z"/><path class="cls-1" d="M1123.51,104a4.4,4.4,0,0,0,2.2.66c1.22,0,1.79-.61,1.79-1.37s-.48-1.23-1.71-1.69c-1.65-.59-2.43-1.5-2.43-2.6,0-1.48,1.19-2.7,3.17-2.7a4.62,4.62,0,0,1,2.26.57l-.42,1.22a3.54,3.54,0,0,0-1.88-.53c-1,0-1.54.57-1.54,1.25s.55,1.1,1.75,1.56c1.6.61,2.41,1.4,2.41,2.77,0,1.62-1.25,2.76-3.43,2.76a5.27,5.27,0,0,1-2.59-.63Z"/><path class="cls-1" d="M1133.28,93.83v2.64h2.39v1.28h-2.39v5c0,1.14.32,1.79,1.25,1.79a4.09,4.09,0,0,0,1-.11l.07,1.25a4.11,4.11,0,0,1-1.48.23,2.3,2.3,0,0,1-1.8-.71,3.37,3.37,0,0,1-.65-2.39v-5h-1.42V96.47h1.42v-2.2Z"/><path class="cls-1" d="M1142.64,105.67l-.13-1.16h-.06a3.42,3.42,0,0,1-2.81,1.37,2.62,2.62,0,0,1-2.81-2.64c0-2.23,2-3.44,5.53-3.42v-.19a1.9,1.9,0,0,0-2.09-2.13,4.58,4.58,0,0,0-2.4.68l-.38-1.1a5.76,5.76,0,0,1,3-.82c2.82,0,3.5,1.92,3.5,3.76v3.44a13.47,13.47,0,0,0,.15,2.21Zm-.25-4.7c-1.82,0-3.89.29-3.89,2.07a1.48,1.48,0,0,0,1.58,1.6,2.29,2.29,0,0,0,2.22-1.54,1.64,1.64,0,0,0,.09-.53Z"/><path class="cls-1" d="M1146.71,99.34c0-1.08,0-2-.08-2.87h1.46l.06,1.81h.08a2.75,2.75,0,0,1,2.54-2,1.75,1.75,0,0,1,.48.06V97.9a2.37,2.37,0,0,0-.57-.06,2.34,2.34,0,0,0-2.24,2.15,4.36,4.36,0,0,0-.08.78v4.9h-1.65Z"/><path class="cls-1" d="M1155.39,93.83v2.64h2.39v1.28h-2.39v5c0,1.14.32,1.79,1.25,1.79a4.09,4.09,0,0,0,1-.11l.08,1.25a4.15,4.15,0,0,1-1.48.23,2.32,2.32,0,0,1-1.81-.71,3.42,3.42,0,0,1-.64-2.39v-5h-1.43V96.47h1.43v-2.2Z"/><circle class="cls-2" cx="1169.5" cy="99.74" r="17.5"/><polygon class="cls-4" points="1181.5 99.84 1172.03 105.26 1162.56 110.68 1162.6 99.77 1162.64 88.86 1172.07 94.35 1181.5 99.84"/><rect class="cls-5" x="1000" y="-0.26" width="200" height="200"/></svg>