<svg id="Layer_1" data-name="Layer 1" xmlns="http://www.w3.org/2000/svg" width="600" height="100" viewBox="0 0 600 100"><defs><style>.cls-1{fill:#dcdfe6;}.cls-2{fill:#7f8c8d;}.cls-3{fill:#95a5a6;}.cls-4{fill:#bdc3c7;}.cls-5{fill:none;}</style></defs><title>toggle_writing</title><path class="cls-1" d="M70,26H30A20.06,20.06,0,0,0,10,46h0a19.87,19.87,0,0,0,4,12,6.49,6.49,0,0,0,10.74,7.3A19.58,19.58,0,0,0,30,66H70A20.06,20.06,0,0,0,90,46h0A20.06,20.06,0,0,0,70,26Z"/><circle class="cls-1" cx="11" cy="73" r="3"/><circle class="cls-2" cx="32" cy="47" r="5"/><circle class="cls-3" cx="48.5" cy="47" r="5"/><circle class="cls-4" cx="65" cy="47" r="5"/><rect class="cls-5" width="100" height="100"/><path class="cls-1" d="M170,26H130a20.06,20.06,0,0,0-20,20h0a19.87,19.87,0,0,0,4,12,6.49,6.49,0,0,0,10.74,7.3A19.58,19.58,0,0,0,130,66h40a20.06,20.06,0,0,0,20-20h0A20.06,20.06,0,0,0,170,26Z"/><circle class="cls-1" cx="111" cy="73" r="3"/><circle class="cls-4" cx="132" cy="47" r="5"/><circle class="cls-2" cx="148.5" cy="47" r="5"/><circle class="cls-3" cx="165" cy="47" r="5"/><rect class="cls-5" x="100" width="100" height="100"/><path class="cls-1" d="M270,26H230a20.06,20.06,0,0,0-20,20h0a19.87,19.87,0,0,0,4,12,6.49,6.49,0,0,0,10.74,7.3A19.58,19.58,0,0,0,230,66h40a20.06,20.06,0,0,0,20-20h0A20.06,20.06,0,0,0,270,26Z"/><circle class="cls-1" cx="211" cy="73" r="3"/><circle class="cls-3" cx="232" cy="47" r="5"/><circle class="cls-4" cx="248.5" cy="47" r="5"/><circle class="cls-2" cx="265" cy="47" r="5"/><rect class="cls-5" x="200" width="100" height="100"/><path class="cls-1" d="M370,26H330a20.06,20.06,0,0,0-20,20h0a19.87,19.87,0,0,0,4,12,6.49,6.49,0,0,0,10.74,7.3A19.58,19.58,0,0,0,330,66h40a20.06,20.06,0,0,0,20-20h0A20.06,20.06,0,0,0,370,26Z"/><circle class="cls-1" cx="311" cy="73" r="3"/><circle class="cls-2" cx="332" cy="47" r="5"/><circle class="cls-3" cx="348.5" cy="47" r="5"/><circle class="cls-4" cx="365" cy="47" r="5"/><rect class="cls-5" x="300" width="100" height="100"/><path class="cls-1" d="M470,26H430a20.06,20.06,0,0,0-20,20h0a19.87,19.87,0,0,0,4,12,6.49,6.49,0,0,0,10.74,7.3A19.58,19.58,0,0,0,430,66h40a20.06,20.06,0,0,0,20-20h0A20.06,20.06,0,0,0,470,26Z"/><circle class="cls-1" cx="411" cy="73" r="3"/><circle class="cls-4" cx="432" cy="47" r="5"/><circle class="cls-2" cx="448.5" cy="47" r="5"/><circle class="cls-3" cx="465" cy="47" r="5"/><rect class="cls-5" x="400" width="100" height="100"/><path class="cls-1" d="M570,26H530a20.06,20.06,0,0,0-20,20h0a19.87,19.87,0,0,0,4,12,6.49,6.49,0,0,0,10.74,7.3A19.58,19.58,0,0,0,530,66h40a20.06,20.06,0,0,0,20-20h0A20.06,20.06,0,0,0,570,26Z"/><circle class="cls-1" cx="511" cy="73" r="3"/><circle class="cls-3" cx="532" cy="47" r="5"/><circle class="cls-4" cx="548.5" cy="47" r="5"/><circle class="cls-2" cx="565" cy="47" r="5"/><rect class="cls-5" x="500" width="100" height="100"/></svg>
